<svg fill="none" xmlns="http://www.w3.org/2000/svg" viewBox="0 0 349 452">
  <rect x="30" y=".5" width="289" height="74" rx="9.5" fill="#00698A" />
  <g clip-path="url(#clip0_220_14173)">
    <path d="M309.5 17.66c-8.43 6.68-20.53 9.45-25.98 18.7-2.55 4.34-1.95 9.01-3.09 13.79-1.21 5.06-3.4 10-7.3 13.59-.48.45-.99.85-1.51 1.25h37.88V17.66Z" fill="#E2CCAF" className="animate-slot-machine-1" />
    <path d="M280.43 50.16c1.14-4.78.54-9.45 3.09-13.79 5.45-9.25 17.55-12.02 25.98-18.7V10h-49.69c-.5 1.62-1.11 3.14-1.84 4.51-4.91 9.23-13.9 11.31-17.65 21.92-1.54 4.34-1.18 9.01-1.86 13.79-.72 5.06-2.04 10-4.38 13.59-.28.42-.57.81-.86 1.19h38.4c.52-.4 1.02-.8 1.51-1.25 3.9-3.6 6.08-8.53 7.3-13.59Z" fill="#E86546" className="animate-slot-machine-2" />
    <path d="M238.47 50.21c.68-4.78.32-9.45 1.86-13.79 3.74-10.61 12.74-12.68 17.65-21.92.73-1.37 1.34-2.89 1.84-4.51h-56.18c-.17 1.64-.37 3.18-.62 4.56-1.64 9.23-4.63 11.31-5.89 21.92-.51 4.34-.39 9.01-.62 13.79-.24 5.06-.67 10-1.46 13.59-.09.4-.18.77-.27 1.13h38.45c.29-.38.59-.77.86-1.19 2.34-3.6 3.65-8.53 4.38-13.59v.01Z" fill="#E2CCAF" className="animate-slot-machine-1" />
    <path d="M196.51 50.27c.23-4.78.11-9.45.62-13.79 1.25-10.61 4.25-12.68 5.89-21.92.24-1.38.45-2.93.62-4.56h-56.93c.27 2.37.76 4.74 1.6 7.09 1.61 4.48 4.43 8.71 6.21 13.17 2.17 5.45 2.74 11.2 1.68 16.81-.72 3.8-2.18 7.53-2.3 11.36-.07 2.22.31 4.41.92 6.58h39.96c.09-.36.19-.73.27-1.13.78-3.6 1.22-8.53 1.46-13.59v-.02Z" fill="#E86546" className="animate-slot-machine-2" />
    <path d="M153.89 58.42c.12-3.82 1.58-7.56 2.3-11.36 1.06-5.61.49-11.37-1.68-16.81-1.78-4.45-4.59-8.68-6.21-13.17-.85-2.35-1.34-4.71-1.6-7.09H91.2c.51 1.68 1.14 3.26 1.89 4.68 4.9 9.23 13.9 11.31 17.64 21.91 1.54 4.34 1.18 9.01 1.86 13.79.73 5.06 2.04 10 4.38 13.6.24.36.49.69.74 1.02h37.11c-.62-2.17-1-4.36-.92-6.58l-.01.01Z" fill="#E2CCAF" className="animate-slot-machine-1" />
    <path d="M112.6 50.38c-.68-4.78-.32-9.45-1.86-13.79C107 25.99 98 23.91 93.1 14.68c-.75-1.42-1.38-3-1.89-4.68H39.5v6.14c8.38 8.07 22.13 10.47 28.05 20.51 2.56 4.34 1.95 9.01 3.1 13.79 1.2 5.06 3.39 10 7.29 13.6.37.34.77.65 1.16.96h38.62c-.25-.33-.5-.66-.74-1.02-2.34-3.6-3.65-8.54-4.38-13.6Z" fill="#E86546" className="animate-slot-machine-2" />
    <path d="M70.64 50.44c-1.14-4.78-.54-9.45-3.1-13.79C61.63 26.61 47.88 24.2 39.5 16.14v48.31c.3.19.62.37.93.55h38.66c-.39-.31-.79-.62-1.16-.96-3.9-3.6-6.08-8.54-7.29-13.6Z" fill="#E2CCAF" className="animate-slot-machine-1" />
  </g>
  <rect x="39" y="9.5" width="271" height="56" rx="10.5" stroke="#231815" />
  <mask id="path-11-outside-1_220_14173" maskUnits="userSpaceOnUse" x="46.5" y="23" width="257" height="28" fill="#000">
    <path fill="#fff" d="M46.5 23h257v28h-257z" />
    <path d="M48.5 49V25h2.667v2.667h2.666v2.666H56.5V33h2.667v2.667h2.666v2.666H64.5V25h2.667v24H64.5v-8h-2.667v-2.667h-2.666v-2.666H56.5V33h-2.667v-2.667h-2.666V49H48.5Zm24-21.333v8h10.667v2.666H72.5v8h13.333V49h-16V25h16v2.667H72.5ZM91.167 33h2.666v8H96.5v-5.333h2.667V25h2.666v10.667h2.667V41h2.667v-8h2.666v-8h2.667v8h-2.667v8h-2.666v8H104.5v-8h-2.667v-5.333h-2.666V41H96.5v8h-2.667v-8h-2.666v-8H88.5v-8h2.667v8Zm34.663-5.333V25h18.667v2.667h-8V49h-2.667V27.667h-8ZM144.497 49v-5.333h2.666v-8h2.667v-5.334h2.667V25h2.666v5.333h2.667v5.334h2.667v8h2.666V49h-2.666v-5.333h-13.334V49h-2.666Zm8-13.333h-2.667V41h8v-5.333h-2.667v-5.334h-2.666v5.334ZM171.163 49h-2.666V25h2.666v24Zm5.334 0V25h13.333v2.667h2.667v8h-2.667v2.666h-10.667V49h-2.666Zm2.666-13.333h10.667v-8h-10.667v8Zm18.664-8v8h10.667v2.666h-10.667v8h13.333V49h-16V25h16v2.667h-13.333ZM219.16 49h-2.666V25h2.666v24Zm18.667-5.333h-2.667V30.333h2.667v-2.666h2.667V25h8v2.667h2.666v2.666h-2.666v-2.666h-8v2.666h-2.667v13.334h2.667v2.666h8v-2.666h2.666v2.666h-2.666V49h-8v-2.667h-2.667v-2.666ZM259.16 49h-2.666V25h2.666v24Zm2.667-21.333V25h18.667v2.667h-8V49h-2.667V27.667h-8Zm23.997 2.666h2.666v5.334h2.667v2.666h2.667v-2.666h2.666v-5.334h2.667V25h2.667v5.333h-2.667v5.334h-2.667v2.666h-2.666V49h-2.667V38.333h-2.667v-2.666h-2.666v-5.334h-2.667V25h2.667v5.333Z" />
  </mask>
  <path d="M48.5 49V25h2.667v2.667h2.666v2.666H56.5V33h2.667v2.667h2.666v2.666H64.5V25h2.667v24H64.5v-8h-2.667v-2.667h-2.666v-2.666H56.5V33h-2.667v-2.667h-2.666V49H48.5Zm24-21.333v8h10.667v2.666H72.5v8h13.333V49h-16V25h16v2.667H72.5ZM91.167 33h2.666v8H96.5v-5.333h2.667V25h2.666v10.667h2.667V41h2.667v-8h2.666v-8h2.667v8h-2.667v8h-2.666v8H104.5v-8h-2.667v-5.333h-2.666V41H96.5v8h-2.667v-8h-2.666v-8H88.5v-8h2.667v8Zm34.663-5.333V25h18.667v2.667h-8V49h-2.667V27.667h-8ZM144.497 49v-5.333h2.666v-8h2.667v-5.334h2.667V25h2.666v5.333h2.667v5.334h2.667v8h2.666V49h-2.666v-5.333h-13.334V49h-2.666Zm8-13.333h-2.667V41h8v-5.333h-2.667v-5.334h-2.666v5.334ZM171.163 49h-2.666V25h2.666v24Zm5.334 0V25h13.333v2.667h2.667v8h-2.667v2.666h-10.667V49h-2.666Zm2.666-13.333h10.667v-8h-10.667v8Zm18.664-8v8h10.667v2.666h-10.667v8h13.333V49h-16V25h16v2.667h-13.333ZM219.16 49h-2.666V25h2.666v24Zm18.667-5.333h-2.667V30.333h2.667v-2.666h2.667V25h8v2.667h2.666v2.666h-2.666v-2.666h-8v2.666h-2.667v13.334h2.667v2.666h8v-2.666h2.666v2.666h-2.666V49h-8v-2.667h-2.667v-2.666ZM259.16 49h-2.666V25h2.666v24Zm2.667-21.333V25h18.667v2.667h-8V49h-2.667V27.667h-8Zm23.997 2.666h2.666v5.334h2.667v2.666h2.667v-2.666h2.666v-5.334h2.667V25h2.667v5.333h-2.667v5.334h-2.667v2.666h-2.666V49h-2.667V38.333h-2.667v-2.666h-2.666v-5.334h-2.667V25h2.667v5.333Z" fill="#fff" />
  <path d="M48.5 49H47v1.5h1.5V49Zm0-24v-1.5H47V25h1.5Zm2.667 0h1.5v-1.5h-1.5V25Zm0 2.667h-1.5v1.5h1.5v-1.5Zm2.666 0h1.5v-1.5h-1.5v1.5Zm2.667 2.666H58v-1.5h-1.5v1.5ZM59.167 33h1.5v-1.5h-1.5V33Zm2.666 2.667h1.5v-1.5h-1.5v1.5Zm2.667 2.666v1.5H66v-1.5h-1.5ZM64.5 25v-1.5H63V25h1.5Zm2.667 0h1.5v-1.5h-1.5V25Zm0 24v1.5h1.5V49h-1.5ZM64.5 49H63v1.5h1.5V49Zm0-8H66v-1.5h-1.5V41Zm-2.667 0h-1.5v1.5h1.5V41Zm-2.666-2.667h-1.5v1.5h1.5v-1.5ZM56.5 35.667H55v1.5h1.5v-1.5ZM53.833 33h-1.5v1.5h1.5V33Zm-2.666-2.667v-1.5h-1.5v1.5h1.5Zm0 18.667v1.5h1.5V49h-1.5ZM72.5 27.667v-1.5H71v1.5h1.5Zm0 8H71v1.5h1.5v-1.5Zm10.667 0h1.5v-1.5h-1.5v1.5Zm0 2.666v1.5h1.5v-1.5h-1.5Zm-10.667 0v-1.5H71v1.5h1.5Zm0 8H71v1.5h1.5v-1.5Zm13.333 0h1.5v-1.5h-1.5v1.5Zm0 2.667v1.5h1.5V49h-1.5Zm-16 0h-1.5v1.5h1.5V49Zm0-24v-1.5h-1.5V25h1.5Zm16 0h1.5v-1.5h-1.5V25Zm0 2.667v1.5h1.5v-1.5h-1.5Zm8 5.333h1.5v-1.5h-1.5V33Zm2.667 2.667v-1.5H95v1.5h1.5ZM99.167 25v-1.5h-1.5V25h1.5Zm2.666 0h1.5v-1.5h-1.5V25Zm2.667 10.667h1.5v-1.5h-1.5v1.5ZM107.167 33v-1.5h-1.5V33h1.5Zm2.666-8v-1.5h-1.5V25h1.5Zm2.667 0h1.5v-1.5h-1.5V25Zm0 8v1.5h1.5V33h-1.5Zm-2.667 8v1.5h1.5V41h-1.5Zm-2.666 8v1.5h1.5V49h-1.5Zm-2.667 0H103v1.5h1.5V49Zm-2.667-8h-1.5v1.5h1.5V41Zm-2.666 0v1.5h1.5V41h-1.5ZM96.5 49v1.5H98V49h-1.5Zm-2.667 0h-1.5v1.5h1.5V49Zm-2.666-8h-1.5v1.5h1.5V41ZM88.5 33H87v1.5h1.5V33Zm0-8v-1.5H87V25h1.5Zm2.667 0h1.5v-1.5h-1.5V25Zm34.663 2.667h-1.5v1.5h1.5v-1.5Zm0-2.667v-1.5h-1.5V25h1.5Zm18.667 0h1.5v-1.5h-1.5V25Zm0 2.667v1.5h1.5v-1.5h-1.5Zm-8 0v-1.5h-1.5v1.5h1.5Zm0 21.333v1.5h1.5V49h-1.5Zm-2.667 0h-1.5v1.5h1.5V49Zm0-21.333h1.5v-1.5h-1.5v1.5ZM144.497 49h-1.5v1.5h1.5V49Zm0-5.333v-1.5h-1.5v1.5h1.5Zm2.666-8v-1.5h-1.5v1.5h1.5Zm2.667-5.334v-1.5h-1.5v1.5h1.5ZM152.497 25v-1.5h-1.5V25h1.5Zm2.666 0h1.5v-1.5h-1.5V25Zm2.667 5.333h1.5v-1.5h-1.5v1.5Zm2.667 5.334h1.5v-1.5h-1.5v1.5Zm2.666 8h1.5v-1.5h-1.5v1.5Zm0 5.333v1.5h1.5V49h-1.5Zm-2.666 0h-1.5v1.5h1.5V49Zm-13.334 0v1.5h1.5V49h-1.5Zm5.334-13.333v1.5h1.5v-1.5h-1.5ZM149.83 41h-1.5v1.5h1.5V41Zm8 0v1.5h1.5V41h-1.5Zm-2.667-5.333h-1.5v1.5h1.5v-1.5Zm16 13.333v1.5h1.5V49h-1.5Zm-2.666 0h-1.5v1.5h1.5V49Zm0-24v-1.5h-1.5V25h1.5Zm2.666 0h1.5v-1.5h-1.5V25Zm5.334 24h-1.5v1.5h1.5V49Zm0-24v-1.5h-1.5V25h1.5Zm13.333 0h1.5v-1.5h-1.5V25Zm2.667 2.667h1.5v-1.5h-1.5v1.5Zm0 8v1.5h1.5v-1.5h-1.5Zm-2.667 2.666v1.5h1.5v-1.5h-1.5Zm-10.667 0v-1.5h-1.5v1.5h1.5Zm0 10.667v1.5h1.5V49h-1.5Zm0-13.333h-1.5v1.5h1.5v-1.5Zm0-8v-1.5h-1.5v1.5h1.5Zm18.664 0v-1.5h-1.5v1.5h1.5Zm0 8h-1.5v1.5h1.5v-1.5Zm10.667 0h1.5v-1.5h-1.5v1.5Zm0 2.666v1.5h1.5v-1.5h-1.5Zm-10.667 0v-1.5h-1.5v1.5h1.5Zm0 8h-1.5v1.5h1.5v-1.5Zm13.333 0h1.5v-1.5h-1.5v1.5Zm0 2.667v1.5h1.5V49h-1.5Zm-16 0h-1.5v1.5h1.5V49Zm0-24v-1.5h-1.5V25h1.5Zm16 0h1.5v-1.5h-1.5V25Zm0 2.667v1.5h1.5v-1.5h-1.5Zm8 21.333v1.5h1.5V49h-1.5Zm-2.666 0h-1.5v1.5h1.5V49Zm0-24v-1.5h-1.5V25h1.5Zm2.666 0h1.5v-1.5h-1.5V25Zm16 18.667h-1.5v1.5h1.5v-1.5Zm0-13.334v-1.5h-1.5v1.5h1.5Zm2.667-2.666v-1.5h-1.5v1.5h1.5ZM240.494 25v-1.5h-1.5V25h1.5Zm8 0h1.5v-1.5h-1.5V25Zm2.666 2.667h1.5v-1.5h-1.5v1.5Zm0 2.666v1.5h1.5v-1.5h-1.5Zm-2.666 0h-1.5v1.5h1.5v-1.5Zm-8 0v1.5h1.5v-1.5h-1.5Zm0 13.334h1.5v-1.5h-1.5v1.5Zm8 0v-1.5h-1.5v1.5h1.5Zm2.666 0h1.5v-1.5h-1.5v1.5Zm0 2.666v1.5h1.5v-1.5h-1.5ZM248.494 49v1.5h1.5V49h-1.5Zm-8 0h-1.5v1.5h1.5V49Zm-2.667-2.667h-1.5v1.5h1.5v-1.5ZM259.16 49v1.5h1.5V49h-1.5Zm-2.666 0h-1.5v1.5h1.5V49Zm0-24v-1.5h-1.5V25h1.5Zm2.666 0h1.5v-1.5h-1.5V25Zm2.667 2.667h-1.5v1.5h1.5v-1.5Zm0-2.667v-1.5h-1.5V25h1.5Zm18.667 0h1.5v-1.5h-1.5V25Zm0 2.667v1.5h1.5v-1.5h-1.5Zm-8 0v-1.5h-1.5v1.5h1.5Zm0 21.333v1.5h1.5V49h-1.5Zm-2.667 0h-1.5v1.5h1.5V49Zm0-21.333h1.5v-1.5h-1.5v1.5Zm18.663 2.666h1.5v-1.5h-1.5v1.5Zm2.667 5.334h1.5v-1.5h-1.5v1.5Zm2.667 0v-1.5h-1.5v1.5h1.5Zm2.666-5.334v-1.5h-1.5v1.5h1.5ZM299.157 25v-1.5h-1.5V25h1.5Zm2.667 0h1.5v-1.5h-1.5V25Zm0 5.333v1.5h1.5v-1.5h-1.5Zm-2.667 5.334v1.5h1.5v-1.5h-1.5Zm-2.667 2.666v1.5h1.5v-1.5h-1.5ZM293.824 49v1.5h1.5V49h-1.5Zm-2.667 0h-1.5v1.5h1.5V49Zm-2.667-10.667h-1.5v1.5h1.5v-1.5Zm-2.666-2.666h-1.5v1.5h1.5v-1.5Zm-2.667-5.334h-1.5v1.5h1.5v-1.5Zm0-5.333v-1.5h-1.5V25h1.5Zm2.667 0h1.5v-1.5h-1.5V25ZM50 49V25h-3v24h3Zm-1.5-22.5h2.667v-3H48.5v3Zm1.167-1.5v2.667h3V25h-3Zm1.5 4.167h2.666v-3h-2.666v3Zm1.166-1.5v2.666h3v-2.666h-3Zm1.5 4.166H56.5v-3h-2.667v3Zm1.167-1.5V33h3v-2.667h-3Zm1.5 4.167h2.667v-3H56.5v3Zm1.167-1.5v2.667h3V33h-3Zm1.5 4.167h2.666v-3h-2.666v3Zm1.166-1.5v2.666h3v-2.666h-3Zm1.5 4.166H64.5v-3h-2.667v3Zm4.167-1.5V25h-3v13.333h3ZM64.5 26.5h2.667v-3H64.5v3Zm1.167-1.5v24h3V25h-3Zm1.5 22.5H64.5v3h2.667v-3ZM66 49v-8h-3v8h3Zm-1.5-9.5h-2.667v3H64.5v-3ZM63.333 41v-2.667h-3V41h3Zm-1.5-4.167h-2.666v3h2.666v-3Zm-1.166 1.5v-2.666h-3v2.666h3Zm-1.5-4.166H56.5v3h2.667v-3ZM58 35.667V33h-3v2.667h3ZM56.5 31.5h-2.667v3H56.5v-3ZM55.333 33v-2.667h-3V33h3Zm-1.5-4.167h-2.666v3h2.666v-3Zm-4.166 1.5V49h3V30.333h-3Zm1.5 17.167H48.5v3h2.667v-3ZM71 27.667v8h3v-8h-3Zm1.5 9.5h10.667v-3H72.5v3Zm9.167-1.5v2.666h3v-2.666h-3Zm1.5 1.166H72.5v3h10.667v-3ZM71 38.333v8h3v-8h-3Zm1.5 9.5h13.333v-3H72.5v3Zm11.833-1.5V49h3v-2.667h-3Zm1.5 1.167h-16v3h16v-3Zm-14.5 1.5V25h-3v24h3Zm-1.5-22.5h16v-3h-16v3Zm14.5-1.5v2.667h3V25h-3Zm1.5 1.167H72.5v3h13.333v-3Zm5.334 8.333h2.666v-3h-2.666v3Zm1.166-1.5v8h3v-8h-3Zm1.5 9.5H96.5v-3h-2.667v3ZM98 41v-5.333h-3V41h3Zm-1.5-3.833h2.667v-3H96.5v3Zm4.167-1.5V25h-3v10.667h3Zm-1.5-9.167h2.666v-3h-2.666v3Zm1.166-1.5v10.667h3V25h-3Zm1.5 12.167h2.667v-3h-2.667v3Zm1.167-1.5V41h3v-5.333h-3Zm1.5 6.833h2.667v-3H104.5v3Zm4.167-1.5v-8h-3v8h3Zm-1.5-6.5h2.666v-3h-2.666v3Zm4.166-1.5v-8h-3v8h3Zm-1.5-6.5h2.667v-3h-2.667v3ZM111 25v8h3v-8h-3Zm1.5 6.5h-2.667v3h2.667v-3Zm-4.167 1.5v8h3v-8h-3Zm1.5 6.5h-2.666v3h2.666v-3Zm-4.166 1.5v8h3v-8h-3Zm1.5 6.5H104.5v3h2.667v-3ZM106 49v-8h-3v8h3Zm-1.5-9.5h-2.667v3h2.667v-3Zm-1.167 1.5v-5.333h-3V41h3Zm-1.5-6.833h-2.666v3h2.666v-3Zm-4.166 1.5V41h3v-5.333h-3Zm1.5 3.833H96.5v3h2.667v-3ZM95 41v8h3v-8h-3Zm1.5 6.5h-2.667v3H96.5v-3ZM95.333 49v-8h-3v8h3Zm-1.5-9.5h-2.666v3h2.666v-3ZM92.667 41v-8h-3v8h3Zm-1.5-9.5H88.5v3h2.667v-3ZM90 33v-8h-3v8h3Zm-1.5-6.5h2.667v-3H88.5v3Zm1.167-1.5v8h3v-8h-3Zm37.663 2.667V25h-3v2.667h3Zm-1.5-1.167h18.667v-3H125.83v3Zm17.167-1.5v2.667h3V25h-3Zm1.5 1.167h-8v3h8v-3Zm-9.5 1.5V49h3V27.667h-3Zm1.5 19.833h-2.667v3h2.667v-3ZM135.33 49V27.667h-3V49h3Zm-1.5-22.833h-8v3h8v-3ZM145.997 49v-5.333h-3V49h3Zm-1.5-3.833h2.666v-3h-2.666v3Zm4.166-1.5v-8h-3v8h3Zm-1.5-6.5h2.667v-3h-2.667v3Zm4.167-1.5v-5.334h-3v5.334h3Zm-1.5-3.834h2.667v-3h-2.667v3Zm4.167-1.5V25h-3v5.333h3Zm-1.5-3.833h2.666v-3h-2.666v3Zm1.166-1.5v5.333h3V25h-3Zm1.5 6.833h2.667v-3h-2.667v3Zm1.167-1.5v5.334h3v-5.334h-3Zm1.5 6.834h2.667v-3h-2.667v3Zm1.167-1.5v8h3v-8h-3Zm1.5 9.5h2.666v-3h-2.666v3Zm1.166-1.5V49h3v-5.333h-3Zm1.5 3.833h-2.666v3h2.666v-3Zm-1.166 1.5v-5.333h-3V49h3Zm-1.5-6.833h-13.334v3h13.334v-3Zm-14.834 1.5V49h3v-5.333h-3Zm1.5 3.833h-2.666v3h2.666v-3Zm5.334-13.333h-2.667v3h2.667v-3Zm-4.167 1.5V41h3v-5.333h-3Zm1.5 6.833h8v-3h-8v3Zm9.5-1.5v-5.333h-3V41h3Zm-1.5-6.833h-2.667v3h2.667v-3Zm-1.167 1.5v-5.334h-3v5.334h3Zm-1.5-6.834h-2.666v3h2.666v-3Zm-4.166 1.5v5.334h3v-5.334h-3ZM171.163 47.5h-2.666v3h2.666v-3Zm-1.166 1.5V25h-3v24h3Zm-1.5-22.5h2.666v-3h-2.666v3Zm1.166-1.5v24h3V25h-3Zm8.334 24V25h-3v24h3Zm-1.5-22.5h13.333v-3h-13.333v3ZM188.33 25v2.667h3V25h-3Zm1.5 4.167h2.667v-3h-2.667v3Zm1.167-1.5v8h3v-8h-3Zm1.5 6.5h-2.667v3h2.667v-3Zm-4.167 1.5v2.666h3v-2.666h-3Zm1.5 1.166h-10.667v3h10.667v-3Zm-12.167 1.5V49h3V38.333h-3Zm1.5 9.167h-2.666v3h2.666v-3Zm0-10.333h10.667v-3h-10.667v3Zm12.167-1.5v-8h-3v8h3Zm-1.5-9.5h-10.667v3h10.667v-3Zm-12.167 1.5v8h3v-8h-3Zm18.664 0v8h3v-8h-3Zm1.5 9.5h10.667v-3h-10.667v3Zm9.167-1.5v2.666h3v-2.666h-3Zm1.5 1.166h-10.667v3h10.667v-3Zm-12.167 1.5v8h3v-8h-3Zm1.5 9.5h13.333v-3h-13.333v3Zm11.833-1.5V49h3v-2.667h-3Zm1.5 1.167h-16v3h16v-3Zm-14.5 1.5V25h-3v24h3Zm-1.5-22.5h16v-3h-16v3Zm14.5-1.5v2.667h3V25h-3Zm1.5 1.167h-13.333v3h13.333v-3Zm8 21.333h-2.666v3h2.666v-3Zm-1.166 1.5V25h-3v24h3Zm-1.5-22.5h2.666v-3h-2.666v3Zm1.166-1.5v24h3V25h-3Zm20.167 17.167h-2.667v3h2.667v-3Zm-1.167 1.5V30.333h-3v13.334h3Zm-1.5-11.834h2.667v-3h-2.667v3Zm4.167-1.5v-2.666h-3v2.666h3Zm-1.5-1.166h2.667v-3h-2.667v3Zm4.167-1.5V25h-3v2.667h3Zm-1.5-1.167h8v-3h-8v3Zm6.5-1.5v2.667h3V25h-3Zm1.5 4.167h2.666v-3h-2.666v3Zm1.166-1.5v2.666h3v-2.666h-3Zm1.5 1.166h-2.666v3h2.666v-3Zm-1.166 1.5v-2.666h-3v2.666h3Zm-1.5-4.166h-8v3h8v-3Zm-9.5 1.5v2.666h3v-2.666h-3Zm1.5 1.166h-2.667v3h2.667v-3Zm-4.167 1.5v13.334h3V30.333h-3Zm1.5 14.834h2.667v-3h-2.667v3Zm1.167-1.5v2.666h3v-2.666h-3Zm1.5 4.166h8v-3h-8v3Zm9.5-1.5v-2.666h-3v2.666h3Zm-1.5-1.166h2.666v-3h-2.666v3Zm1.166-1.5v2.666h3v-2.666h-3Zm1.5 1.166h-2.666v3h2.666v-3Zm-4.166 1.5V49h3v-2.667h-3Zm1.5 1.167h-8v3h8v-3Zm-6.5 1.5v-2.667h-3V49h3Zm-1.5-4.167h-2.667v3h2.667v-3Zm-1.167 1.5v-2.666h-3v2.666h3ZM259.16 47.5h-2.666v3h2.666v-3Zm-1.166 1.5V25h-3v24h3Zm-1.5-22.5h2.666v-3h-2.666v3Zm1.166-1.5v24h3V25h-3Zm5.667 2.667V25h-3v2.667h3Zm-1.5-1.167h18.667v-3h-18.667v3Zm17.167-1.5v2.667h3V25h-3Zm1.5 1.167h-8v3h8v-3Zm-9.5 1.5V49h3V27.667h-3Zm1.5 19.833h-2.667v3h2.667v-3Zm-1.167 1.5V27.667h-3V49h3Zm-1.5-22.833h-8v3h8v-3Zm15.997 5.666h2.666v-3h-2.666v3Zm1.166-1.5v5.334h3v-5.334h-3Zm1.5 6.834h2.667v-3h-2.667v3Zm1.167-1.5v2.666h3v-2.666h-3Zm1.5 4.166h2.667v-3h-2.667v3Zm4.167-1.5v-2.666h-3v2.666h3Zm-1.5-1.166h2.666v-3h-2.666v3Zm4.166-1.5v-5.334h-3v5.334h3Zm-1.5-3.834h2.667v-3h-2.667v3Zm4.167-1.5V25h-3v5.333h3Zm-1.5-3.833h2.667v-3h-2.667v3Zm1.167-1.5v5.333h3V25h-3Zm1.5 3.833h-2.667v3h2.667v-3Zm-4.167 1.5v5.334h3v-5.334h-3Zm1.5 3.834h-2.667v3h2.667v-3Zm-4.167 1.5v2.666h3v-2.666h-3Zm1.5 1.166h-2.666v3h2.666v-3Zm-4.166 1.5V49h3V38.333h-3Zm1.5 9.167h-2.667v3h2.667v-3Zm-1.167 1.5V38.333h-3V49h3Zm-1.5-12.167h-2.667v3h2.667v-3Zm-1.167 1.5v-2.666h-3v2.666h3Zm-1.5-4.166h-2.666v3h2.666v-3Zm-1.166 1.5v-5.334h-3v5.334h3Zm-1.5-6.834h-2.667v3h2.667v-3Zm-1.167 1.5V25h-3v5.333h3Zm-1.5-3.833h2.667v-3h-2.667v3Zm1.167-1.5v5.333h3V25h-3Z" fill="#231815" mask="url(#path-11-outside-1_220_14173)" />
  <rect x="30" y=".5" width="289" height="74" rx="9.5" stroke="#231815" />
  <path fill="#00698A" d="M36 74.5h277v264H36z" />
  <rect x="62.5" y="94.5" width="224" height="224" rx="23.5" fill="#fff" />
  <rect x="72.5" y="104.5" width="204" height="204" rx="19.5" fill="#E2CCAF" stroke="#231815" />
  <g clip-path="url(#clip1_220_14173)">
    <path d="m132.453 134.963 5.015 42.476-21.415-49.291 16.4 6.815Z" fill="#00698A" stroke="#231815" stroke-linecap="round" stroke-linejoin="round" />
    <path d="m137.468 177.439-25.716-41.809-5.439 6.338 31.155 35.471Z" fill="#fff" stroke="#231815" stroke-miterlimit="10" />
    <path d="m137.468 177.439-18.089-47.904-7.572 5.969 25.661 41.935Z" fill="#E86546" stroke="#231815" stroke-miterlimit="10" />
    <path d="m103.774 140.311 9.045 7.662c1.066.9 2.828.711 3.948-.424l13.97-14.161c.948-.963 1.129-2.296.506-3.223l3.379 5.087c.614.927.443 2.259-.506 3.223l-13.969 14.161c-1.121 1.134-2.883 1.324-3.949.423l-9.045-7.661a2.12 2.12 0 0 1-.407-.45l-3.379-5.087c.109.162.244.315.407.45Z" fill="#00698A" stroke="#231815" stroke-linecap="round" stroke-linejoin="round" />
    <path d="M121.791 122.044c-1.057-.9-2.828-.711-3.949.423l-13.969 14.162c-1.12 1.134-1.166 2.782-.099 3.682l9.045 7.662c1.066.9 2.828.711 3.948-.424l13.97-14.161c1.12-1.134 1.165-2.782.099-3.682l-9.045-7.662Z" fill="#fff" stroke="#231815" stroke-miterlimit="10" />
    <path d="m103.765 140.329 9.045 7.662c1.057.9 2.828.702 3.939-.433l13.942-14.197c.479-.486.759-1.062.841-1.639.081-.576-.027-1.143-.344-1.611l1.708 2.53c.633.936.461 2.277-.497 3.25l-13.942 14.197c-1.121 1.135-2.883 1.333-3.94.432l-9.045-7.661a2.288 2.288 0 0 1-.397-.441l-1.708-2.53c.109.162.244.306.398.441Z" fill="#fff" stroke="#231815" stroke-miterlimit="10" />
    <path d="M121.746 122.017c-1.057-.9-2.828-.702-3.94.432l-13.942 14.198c-1.12 1.134-1.166 2.791-.099 3.682l9.045 7.662c1.057.9 2.828.702 3.939-.433l13.942-14.197c1.121-1.134 1.166-2.791.1-3.691l-9.045-7.653Z" fill="#fff" stroke="#231815" stroke-miterlimit="10" />
    <path d="M122.921 137.808c2.358-3.43-1.32-6.167-4.473-4.321 1.762-3.187-1.103-6.77-4.473-4.321-3.361 2.448-1.915 10.875-1.915 10.875s8.493 1.188 10.852-2.242l.009.009Z" fill="#fff" stroke="#231815" stroke-linecap="round" stroke-linejoin="round" />
    <path d="M122.713 136.926c2.358-3.43-1.319-6.167-4.473-4.321 1.762-3.187-1.102-6.77-4.473-4.322-3.361 2.449-1.915 10.876-1.915 10.876s8.493 1.188 10.852-2.242l.009.009Zm48.612 60.49a3.167 3.167 0 0 1-.406-.063 2.588 2.588 0 0 1-1.898-3.133c.018-.063.063-.27-.208-.63-.46-.612-1.382-1.089-2.195-1.125-1.428-.063-2.991.486-4.645 1.062-.695.243-1.409.495-2.141.711-4.175 1.234-7.843.595-10.066-1.755-1.057-1.116-1.599-2.404-2.069-3.547-.344-.82-.669-1.603-1.085-2.008-.722-.702-2.042-.765-4.138-.783-2.132-.018-4.554-.036-6.732-1.351-2.114-1.278-3.433-3.376-3.93-6.248-.199-1.17-.271-2.439-.199-3.916l-6.09-.567a2.6 2.6 0 0 1-2.349-2.818 2.598 2.598 0 0 1 2.801-2.341h.027l8.674.802a2.596 2.596 0 0 1 1.789.963c.443.549.642 1.251.551 1.945-.551 4.294-.081 6.833 1.437 7.742.949.576 2.467.585 4.075.603 2.431.018 5.449.045 7.717 2.251 1.184 1.152 1.753 2.521 2.259 3.727.334.801.65 1.549 1.048 1.972.967 1.017 3.126.846 4.816.351.614-.18 1.238-.396 1.898-.63 1.951-.685 4.165-1.459 6.605-1.351 2.376.108 4.725 1.333 6.126 3.196 1.129 1.504 1.518 3.268 1.093 4.97a2.601 2.601 0 0 1-2.738 1.962l-.027.009Z" fill="#E86546" stroke="#231815" stroke-miterlimit="10" />
    <path d="M185.756 162.323c9.243-20.508 28.399-18.474 39.856-8.12 11.449 10.353 13.78 36.038-7.689 52.522-16.951 13.019-36.911 14.252-36.911 14.252s-19.274-7.77-27.596-31.33c-8.322-23.561 2.097-39.676 10.789-44.375 8.702-4.7 24.532-4.304 29.755 5.582" fill="#E86546" />
    <path d="M185.756 162.323c9.243-20.508 28.399-18.474 39.856-8.12 11.449 10.353 13.78 36.038-7.689 52.522-16.951 13.019-36.911 14.252-36.911 14.252s-19.274-7.77-27.596-31.33c-8.322-23.561 2.097-39.676 10.789-44.375 8.702-4.7 24.532-4.304 29.755 5.582" stroke="#231815" stroke-miterlimit="10" />
    <path d="M188.52 176.584c.118.072.263.126.416.153l14.186 2.422h.046c.072.018.424.099.623.396.235.351.226.936-.027 1.701-.181.531.153 1.09.741 1.243.587.153 1.211-.153 1.391-.685.461-1.377.38-2.511-.226-3.376-.704-.999-1.852-1.224-2.123-1.269l-14.177-2.413c-.606-.099-1.193.261-1.31.801-.091.406.099.802.46 1.027Z" fill="#231815" />
    <path d="m152.079 158.344 1.554-.252.19-.027h.127c.081 0 .171-.018.253-.018h.74c.037 0 .073 0 .1.009h.045a.81.81 0 0 1 .145.018c.054 0 .099.018.153.027.127.018.253.045.38.081.244.054.479.126.714.207.271.09.533.207.786.342.262.135.515.279.768.45.198.126.379.279.56.423l.154.126c.018.009.027.027.045.036.036.027.072.054.099.09.063.054.136.117.199.18.018.018.036.027.045.045.063.064.127.118.19.181l.19.189c.018.018.027.036.045.045.063.063.117.135.18.198a.518.518 0 0 0 .064.072s.009.018.018.018c.018.018.027.036.045.054l.027.027.045.045.027.027a.362.362 0 0 0 .064.054l-1.555.252-.027-.027c-.009 0-.018-.018-.027-.027l-.027-.027-.045-.045-.027-.027c-.018-.018-.027-.036-.045-.054 0 0-.009-.018-.018-.018-.018-.027-.037-.045-.064-.072-.063-.063-.117-.135-.18-.198-.018-.018-.027-.036-.046-.045l-.189-.189c-.064-.063-.127-.126-.19-.18-.018-.018-.036-.027-.045-.045-.064-.063-.127-.117-.199-.18-.036-.028-.063-.055-.099-.082-.018-.018-.037-.027-.046-.045l-.153-.126c-.181-.144-.371-.297-.56-.423a9.49 9.49 0 0 0-.768-.45 6.114 6.114 0 0 0-.787-.342 6.466 6.466 0 0 0-.713-.207l-.38-.081c-.054 0-.099-.018-.154-.027a.788.788 0 0 1-.144-.018h-.045c-.036 0-.073 0-.109-.009h-.768a2.41 2.41 0 0 0-.253.018h-.063c-.081.009-.172.018-.253.036l.027-.009Zm10.319 1.792c.045 0 .09-.009.136-.018h.009c.072 0 .144-.018.216-.018h.046c.054 0 .117 0 .171-.01h.633a.79.79 0 0 1 .153.019c.244.027.479.063.796.135.18.045.361.099.542.153.244.072.479.18.704.279.299.144.588.306.859.504.063.045.135.099.199.144.018.009.036.027.045.036.063.054.126.099.199.153.045.036.09.072.126.108.018.018.036.027.045.045.018.018.036.027.045.045.064.054.127.117.181.171l.136.135.045.045c.027.027.054.063.09.09a.239.239 0 0 1 .045.054c.028.027.055.063.082.09a.239.239 0 0 1 .045.054c.009.018.027.027.036.045.009.009.018.027.027.036.027.027.045.063.072.09.019.027.037.054.055.072.027.027.045.063.072.09l.054.081a.605.605 0 0 1 .063.099l.055.081c.018.036.045.072.063.099.009.018.027.036.036.054 0 .018.018.027.027.045.054.091.109.19.163.28 0 .018.018.027.018.045l.135.27c0 .018.019.036.028.054.009.018.018.045.027.063.027.054.045.099.063.153.018.036.027.063.045.099.045.099.081.207.118.315l.054.171v.027a.507.507 0 0 0 .036.108.507.507 0 0 0 .036.108c.009.036.018.072.027.117l.027.108c.009.036.018.072.027.117 0 .036.018.072.027.117 0 .036.019.072.019.117a.32.32 0 0 0 .018.09v.018c.018.108.036.216.045.324v.072c.009.108.027.225.036.333 0 .09.009.172.018.262v.333l2.385.567-1.554.252-2.385-.567v-.324c0-.09 0-.171-.018-.261 0-.108-.018-.226-.036-.334v-.072c-.018-.108-.027-.216-.046-.324a.452.452 0 0 0-.018-.108c0-.036-.018-.081-.018-.117 0-.036-.018-.072-.027-.108 0-.036-.018-.072-.027-.117 0-.036-.018-.072-.027-.108-.009-.036-.018-.072-.027-.117a.507.507 0 0 0-.036-.108.836.836 0 0 0-.036-.117c-.018-.063-.046-.135-.064-.198a4.463 4.463 0 0 0-.117-.315c-.009-.036-.027-.063-.045-.099-.027-.072-.064-.144-.1-.216 0-.018-.018-.036-.027-.054l-.135-.27c0-.018-.018-.027-.018-.045-.055-.09-.1-.189-.163-.279-.018-.036-.045-.063-.063-.099-.018-.036-.045-.072-.064-.1l-.054-.081c-.018-.036-.045-.063-.063-.099l-.054-.081c-.027-.036-.045-.063-.073-.09a.5.5 0 0 0-.054-.072c-.027-.027-.045-.063-.072-.09-.018-.027-.045-.054-.063-.081a.239.239 0 0 1-.045-.054c-.028-.027-.055-.063-.082-.09-.018-.018-.036-.036-.045-.054a.896.896 0 0 0-.09-.099l-.045-.045-.136-.135c-.063-.063-.117-.117-.181-.171-.018-.018-.036-.027-.045-.045-.063-.054-.117-.108-.181-.153-.063-.054-.126-.108-.198-.153a.204.204 0 0 1-.046-.036c-.063-.054-.135-.099-.198-.144a4.875 4.875 0 0 0-.859-.504 5.216 5.216 0 0 0-.705-.279c-.18-.054-.361-.117-.542-.153-.316-.072-.56-.099-.795-.135a.793.793 0 0 1-.153-.018h-.633c-.054 0-.117 0-.172.009h-.045c-.072 0-.144.009-.217.018-.054 0-.099.009-.153.018-.027 0-.064 0-.091.018l1.554-.252s.064-.009.091-.018h.036Zm-3.732 17.897a21.081 21.081 0 0 0 3.154-1.593 16.54 16.54 0 0 0 1.346-.91 13.614 13.614 0 0 0 1.879-1.665c.416-.45.814-.918 1.157-1.432.289-.432.551-.882.786-1.35.136-.27.244-.558.362-.837.054-.144.108-.288.153-.432l1.554-.252c-.045.144-.09.297-.153.432-.118.279-.226.567-.362.837-.235.468-.497.927-.786 1.35-.352.514-.741.991-1.156 1.432a13.68 13.68 0 0 1-1.88 1.665c-.434.324-.885.631-1.346.91-.416.252-.84.495-1.265.72-.615.324-1.247.612-1.889.873-.858.351-1.725.657-2.602.9-.117.036-.244.063-.37.09-.082.018-.163.036-.253.045l-1.555.253c.244-.036.434-.09.624-.144a22.41 22.41 0 0 0 2.602-.901v.009Zm16.048-14.287 1.554-.252.19-.027h.126c.081 0 .172-.018.253-.018h.759c.027 0 .063 0 .091.009h.063c.027 0 .063 0 .09.009h.054c.055 0 .1.018.154.027.126.018.253.045.379.081.244.054.479.126.714.207.271.09.533.207.786.342.262.135.515.279.768.45.199.126.38.279.57.423l.153.126c.018.018.036.027.055.045.036.027.063.054.099.081.063.054.135.117.199.18.018.018.036.027.045.045.063.063.126.117.19.18l.189.189c.018.018.028.036.046.045.063.063.117.135.18.198a.414.414 0 0 0 .064.072s.009.018.018.018c.018.018.027.036.045.054l.027.027.045.045.027.027a.35.35 0 0 0 .063.055l-1.554.252c-.009 0-.018-.018-.027-.027-.009 0-.018-.018-.027-.027l-.027-.027-.045-.045-.027-.027c-.018-.018-.027-.036-.045-.054 0 0-.01-.018-.019-.018-.018-.027-.036-.045-.063-.072-.063-.064-.117-.136-.181-.199-.018-.018-.027-.036-.045-.045l-.189-.189c-.064-.063-.127-.126-.19-.18-.018-.018-.036-.027-.045-.045-.064-.063-.127-.117-.199-.18-.036-.027-.063-.054-.1-.081-.018-.018-.036-.027-.054-.045l-.153-.126c-.181-.144-.371-.297-.57-.423a8.159 8.159 0 0 0-.768-.45 6.101 6.101 0 0 0-1.5-.549l-.379-.081c-.054 0-.1-.018-.154-.027h-.054c-.027 0-.063 0-.09-.009h-.064c-.027 0-.063 0-.09-.009h-.75a2.39 2.39 0 0 0-.253.018h-.063c-.081.009-.172.018-.253.036l-.018-.009Zm10.328 1.782c.045 0 .09-.009.135-.018h.009c.073 0 .145-.018.208-.018h.045c.054 0 .118 0 .172-.009h.632c.055 0 .109.009.154.018.244.027.479.063.795.135.181.045.362.099.542.153.244.072.479.18.705.288.298.144.587.307.859.505l.198.144c.018.009.036.027.046.036.063.054.126.099.198.153.045.036.091.072.127.108.018.018.036.027.045.045.018.018.036.027.045.045.063.054.127.117.181.171l.135.135.046.045c.027.027.054.063.09.09a.239.239 0 0 1 .045.054c.027.027.054.063.081.09a.22.22 0 0 1 .046.054c.009.018.027.027.036.045.009.009.018.027.027.036.027.027.045.063.072.09.018.027.036.054.054.072.027.027.046.063.073.099a.5.5 0 0 0 .054.072.605.605 0 0 1 .063.099l.054.081c.018.036.046.072.064.108.009.018.027.036.036.054 0 .018.018.027.027.045.054.09.108.189.162.279 0 .018.019.027.019.036l.135.27c0 .018.018.036.027.054.009.018.018.045.027.063.027.054.045.099.064.153.018.036.027.064.045.1a4.547 4.547 0 0 1 .171.495v.027a.512.512 0 0 0 .037.108.507.507 0 0 0 .036.108c.009.036.018.072.027.117l.027.108c.009.036.018.072.027.117 0 .036.018.072.027.108 0 .036.018.072.018.117a.32.32 0 0 0 .018.09v.018c.018.108.036.216.045.324v.072c.01.108.028.225.037.333 0 .09.009.18.018.279v.342c0 .09 0 .18-.009.279v.073c0 .09-.009.189-.027.279-.019.126-.028.261-.046.387-.027.171-.045.351-.081.513a11.391 11.391 0 0 1-.452 1.575c-.117.279-.226.568-.361.838-.235.468-.497.927-.786 1.35-.353.513-.741.99-1.157 1.432a13.672 13.672 0 0 1-1.879 1.665c-.434.324-.886.63-1.347.909-.415.252-.84.496-1.265.721-.614.324-1.247.612-1.888.873-.859.351-1.726.657-2.602.9-.19.054-.389.099-.624.144l-1.554.252c.244-.036.434-.09.623-.144a22.234 22.234 0 0 0 2.603-.9 21.063 21.063 0 0 0 3.153-1.594c.461-.279.913-.585 1.347-.909a13.672 13.672 0 0 0 1.879-1.665c.416-.451.813-.919 1.157-1.432.289-.432.551-.882.786-1.35.135-.27.244-.558.361-.838.081-.198.145-.414.208-.621.099-.315.163-.63.244-.954.036-.171.054-.342.081-.513.018-.126.036-.261.045-.387l.027-.279v-.072c0-.09 0-.18.01-.28v-.351c0-.09 0-.18-.019-.279 0-.108-.018-.225-.036-.333v-.072c-.018-.108-.027-.216-.045-.324 0-.036-.009-.072-.018-.108 0-.036-.018-.072-.018-.117 0-.036-.018-.072-.027-.117 0-.036-.018-.072-.027-.117 0-.036-.018-.072-.027-.108l-.027-.108a.512.512 0 0 0-.037-.108.507.507 0 0 0-.036-.108c-.018-.063-.045-.135-.063-.198a4.463 4.463 0 0 0-.117-.315c-.009-.036-.028-.063-.046-.099-.027-.072-.063-.144-.099-.217 0-.018-.018-.036-.027-.054l-.136-.27c0-.018-.018-.027-.018-.036-.054-.09-.108-.189-.162-.279-.018-.036-.046-.063-.064-.099-.018-.036-.045-.072-.063-.108l-.054-.081c-.018-.036-.045-.063-.063-.099a.437.437 0 0 0-.055-.072l-.072-.099a.5.5 0 0 0-.054-.072c-.027-.027-.045-.063-.072-.09-.018-.027-.046-.054-.064-.081-.018-.018-.036-.036-.045-.054-.027-.027-.054-.063-.081-.09-.018-.018-.036-.036-.045-.054a.41.41 0 0 0-.091-.09l-.045-.045-.135-.135c-.064-.063-.118-.117-.181-.171-.018-.018-.036-.027-.045-.045-.063-.054-.118-.108-.181-.153h-.009a1.667 1.667 0 0 0-.199-.153c-.018-.009-.036-.027-.045-.036-.063-.054-.136-.099-.199-.144a4.934 4.934 0 0 0-.858-.505 6.813 6.813 0 0 0-.705-.288c-.181-.054-.361-.117-.542-.153-.316-.072-.56-.099-.795-.135a.803.803 0 0 1-.154-.018h-.632c-.055 0-.118 0-.172.009h-.045c-.073 0-.145.009-.208.018-.054 0-.099.009-.154.018a.32.32 0 0 0-.09.018l1.554-.252s.063-.009.091-.018h.045Z" fill="#fff" stroke="#231815" stroke-miterlimit="10" />
    <path d="M163.003 160.487c-.316-.072-.56-.099-.795-.135a5.318 5.318 0 0 0-1.364.027 6.328 6.328 0 0 0-1.066.261 5.765 5.765 0 0 0-1.283.612 2.111 2.111 0 0 1-.281-.288 8.86 8.86 0 0 0-1.147-1.099c-.181-.144-.371-.297-.56-.423a9.49 9.49 0 0 0-.768-.45 6.404 6.404 0 0 0-1.5-.549l-.38-.081c-.397-.072-.795-.09-1.202-.072a5.19 5.19 0 0 0-2.096.558c-.714.36-1.319.882-1.825 1.54-.199.261-.38.531-.533.819-.199.369-.38.756-.506 1.161a9.58 9.58 0 0 0-.271 1.045c-.009.054-.027.108-.036.162-.046.342-.091.621-.118.909a8.794 8.794 0 0 0-.018 1.377c.027.577.117 1.153.235 1.72.217 1.017.56 1.99.985 2.926.208.459.424.9.677 1.332.208.36.416.711.633 1.063.38.603.795 1.188 1.22 1.755a29.583 29.583 0 0 0 1.599 1.918c.497.549 1.003 1.08 1.536 1.575.298.279.597.549.895.829.054.045.108.09.153.135.371-.045.624-.108.886-.18a22.41 22.41 0 0 0 2.602-.901 21.081 21.081 0 0 0 3.154-1.593 16.54 16.54 0 0 0 1.346-.91 13.68 13.68 0 0 0 1.88-1.665c.415-.45.813-.918 1.156-1.432.289-.432.551-.882.786-1.35.136-.27.244-.558.362-.837.054-.144.108-.288.153-.432l2.359.558c-.009.297 0 .594.009.891.027.576.117 1.152.235 1.72.216 1.017.56 1.989.984 2.926.208.459.434.9.678 1.332.208.36.416.711.633 1.062.379.604.795 1.189 1.229 1.756a29.854 29.854 0 0 0 1.599 1.918c.497.549 1.003 1.08 1.536 1.575.298.279.596.549.894.828.055.045.109.09.154.135.371-.045.624-.108.886-.18a22.218 22.218 0 0 0 2.602-.9 21.063 21.063 0 0 0 3.153-1.594c.461-.279.913-.585 1.347-.909a13.672 13.672 0 0 0 1.879-1.665c.416-.451.813-.919 1.157-1.432.289-.432.551-.882.786-1.35.135-.27.244-.558.361-.838.082-.198.145-.414.208-.621.1-.315.163-.63.244-.954.036-.171.054-.342.081-.513.018-.126.037-.261.046-.387a7.169 7.169 0 0 0-.353-3.061 7.128 7.128 0 0 0-.596-1.279 6.903 6.903 0 0 0-1.003-1.278 7.064 7.064 0 0 0-.859-.72 4.934 4.934 0 0 0-.858-.505 6.813 6.813 0 0 0-.705-.288c-.18-.054-.361-.117-.542-.153-.316-.072-.56-.099-.795-.135a5.317 5.317 0 0 0-1.364.027 6.362 6.362 0 0 0-1.067.261 5.81 5.81 0 0 0-1.283.613 2.102 2.102 0 0 1-.28-.288 8.728 8.728 0 0 0-1.147-1.099c-.181-.144-.371-.297-.57-.423a8.159 8.159 0 0 0-.768-.45 6.101 6.101 0 0 0-1.5-.549l-.379-.081a5.365 5.365 0 0 0-1.202-.072 5.186 5.186 0 0 0-2.096.558c-.714.36-1.319.882-1.825 1.539-.199.261-.38.531-.534.82-.18.342-.343.693-.469 1.062l-2.386-.567c0-.198 0-.396-.018-.585a7.33 7.33 0 0 0-.37-1.819 7.192 7.192 0 0 0-.597-1.278 6.835 6.835 0 0 0-1.003-1.279 7.132 7.132 0 0 0-.858-.72 4.839 4.839 0 0 0-.859-.504 5.152 5.152 0 0 0-.704-.279c-.181-.054-.362-.117-.542-.153h-.037Z" fill="#E86546" stroke="#231815" stroke-miterlimit="10" />
    <path d="M178.373 182.445c-.099-.09-.199-.189-.298-.279a28.874 28.874 0 0 1-2.937-3.277 20.172 20.172 0 0 1-1.12-1.612c-.208-.324-.407-.675-.587-.99a15.634 15.634 0 0 1-.597-1.171c-.406-.9-.686-1.728-.858-2.539a8.184 8.184 0 0 1-.199-1.413c-.063-1.287.127-2.512.741-3.682.081-.162.199-.333.361-.549a3.441 3.441 0 0 1 1.175-1 3.173 3.173 0 0 1 1.274-.351h.054c.262-.018.515 0 .777.045l.263.054c.162.036.343.09.533.153.18.063.361.144.533.234.217.108.406.225.587.343.127.081.271.198.416.315l.018.018c.307.243.605.531.912.873l.018.018c.1.117.263.297.479.468.389.315.868.459 1.347.432.307-.018.614-.117.885-.288.28-.171.579-.315.886-.423.244-.081.488-.144.723-.18.117-.018.225-.027.325-.036.199-.009.37-.009.533.009.19.027.37.045.605.099.082.018.181.054.29.09l.117.036c.136.045.298.117.461.189.19.09.37.198.551.324.253.18.452.351.633.522.28.279.515.576.713.91.181.306.326.603.434.909.145.432.244.882.271 1.341.027.333.018.622-.009.892v.126c-.018.054-.027.108-.036.153-.018.09-.027.171-.036.252a.51.51 0 0 1-.027.162l-.036.162c-.055.234-.109.459-.163.657l-.036.126a2.453 2.453 0 0 1-.118.342l-.081.207c-.072.18-.145.36-.217.486-.226.442-.443.82-.659 1.144-.272.405-.597.792-.976 1.206-.479.513-1.03 1-1.627 1.441a14.66 14.66 0 0 1-1.202.81c-.37.225-.759.45-1.156.657-.533.279-1.093.54-1.726.801-.741.306-1.482.568-2.205.775l-.009.009Zm-22.634-5.393c-.1-.09-.199-.189-.299-.279a28.478 28.478 0 0 1-2.936-3.277 21.745 21.745 0 0 1-1.121-1.612c-.189-.306-.37-.621-.587-.999a15.243 15.243 0 0 1-.596-1.17c-.407-.901-.687-1.729-.859-2.539a8.394 8.394 0 0 1-.199-1.414 8.844 8.844 0 0 1 .009-1.107c.019-.198.046-.405.082-.666v-.045c.018-.063.036-.117.045-.18.045-.234.117-.495.217-.838.09-.288.244-.594.379-.846.082-.162.199-.333.362-.549a3.435 3.435 0 0 1 1.174-.999 3.177 3.177 0 0 1 1.274-.351h.055c.253-.018.515 0 .777.045l.262.054c.162.036.343.09.533.153.181.063.352.135.533.234.217.108.407.225.587.342.118.081.262.189.416.315l.027.018c.307.243.606.531.913.873h.009c.108.126.262.306.479.495a1.95 1.95 0 0 0 1.346.432 1.88 1.88 0 0 0 .886-.288c.28-.171.578-.315.885-.423.244-.081.488-.144.723-.18.108-.018.226-.027.325-.036.199-.009.371-.009.533.009.19.027.371.045.606.099.081.018.18.054.289.09l.108.036c.136.045.298.117.461.189.19.09.371.198.551.324.244.18.452.352.633.523.28.279.515.576.714.909.18.306.325.603.433.918.57 1.666.289 3.376-.479 4.907-.225.441-.442.819-.659 1.143-.28.405-.597.801-.976 1.206a11.99 11.99 0 0 1-1.626 1.441 15.01 15.01 0 0 1-1.202.81c-.371.225-.759.45-1.157.657-.524.28-1.093.541-1.726.802a20.89 20.89 0 0 1-2.204.774Z" fill="#333434" stroke="#231815" stroke-miterlimit="10" />
    <mask id="mask0_220_14173" style="mask-type:luminance" maskUnits="userSpaceOnUse" x="149" y="160" width="18" height="18">
      <path d="M155.739 177.052c-.1-.09-.199-.189-.299-.279a28.478 28.478 0 0 1-2.936-3.277 21.745 21.745 0 0 1-1.121-1.612c-.189-.306-.37-.621-.587-.999a15.243 15.243 0 0 1-.596-1.17c-.407-.901-.687-1.729-.859-2.539a8.394 8.394 0 0 1-.199-1.414 8.844 8.844 0 0 1 .009-1.107c.019-.198.046-.405.082-.666v-.045c.018-.063.036-.117.045-.18.045-.234.117-.495.217-.838.09-.288.244-.594.379-.846.082-.162.199-.333.362-.549a3.435 3.435 0 0 1 1.174-.999 3.177 3.177 0 0 1 1.274-.351h.055c.253-.018.515 0 .777.045l.262.054c.162.036.343.09.533.153.181.063.352.135.533.234.217.108.407.225.587.342.118.081.262.189.416.315l.027.018c.307.243.606.531.913.873h.009c.108.126.262.306.479.495a1.95 1.95 0 0 0 1.346.432 1.88 1.88 0 0 0 .886-.288c.28-.171.578-.315.885-.423.244-.081.488-.144.723-.18.108-.018.226-.027.325-.036.199-.009.371-.009.533.009.19.027.371.045.606.099.081.018.18.054.289.09l.108.036c.136.045.298.117.461.189.19.09.371.198.551.324.244.18.452.352.633.523.28.279.515.576.714.909.18.306.325.603.433.918.57 1.666.289 3.376-.479 4.907-.225.441-.442.819-.659 1.143-.28.405-.597.801-.976 1.206a11.99 11.99 0 0 1-1.626 1.441 15.01 15.01 0 0 1-1.202.81c-.371.225-.759.45-1.157.657-.524.28-1.093.541-1.726.802a20.89 20.89 0 0 1-2.204.774Z" fill="#fff" />
    </mask>
    <g mask="url(#mask0_220_14173)" fill="#fff" stroke="#231815" stroke-miterlimit="10">
      <path d="M149.061 168.67c.886-.36 1.852-.441 2.792-.585.94-.144 1.916-.36 2.684-.918 1.193-.874 1.671-2.395 2.467-3.646a7.74 7.74 0 0 1 3.225-2.818c.362-.171.75-.306 1.148-.288.398.018.804.252.931.63-1.121.18-2.042.99-2.693 1.917-.651.928-1.084 1.99-1.645 2.971-.56.982-1.292 1.927-2.322 2.404-.732.333-1.545.414-2.34.504-.795.09-1.617.189-2.322.576-.705.388-1.274 1.117-1.229 1.918-.027-.378-2.142-.45-2.322-1.053-.217-.684 1.147-1.414 1.644-1.612h-.018Z" />
      <path d="M151.944 171.263c.885-.36 1.852-.441 2.792-.585.939-.144 1.915-.36 2.683-.918 1.193-.874 1.672-2.395 2.467-3.647a7.748 7.748 0 0 1 3.226-2.817c.361-.172.75-.307 1.147-.289.398.018.805.253.931.631-1.12.18-2.042.99-2.693 1.917-.65.928-1.084 1.99-1.644 2.971-.56.982-1.292 1.927-2.322 2.404-.732.333-1.545.414-2.341.504-.795.09-1.617.189-2.322.576-.705.387-1.274 1.117-1.229 1.918-.027-.378-2.141-.45-2.322-1.053-.217-.685 1.148-1.414 1.645-1.612h-.018Z" />
    </g>
    <mask id="mask1_220_14173" style="mask-type:luminance" maskUnits="userSpaceOnUse" x="171" y="165" width="18" height="18">
      <path d="M178.373 182.445c-.099-.09-.199-.189-.298-.279a28.874 28.874 0 0 1-2.937-3.277 20.172 20.172 0 0 1-1.12-1.612c-.208-.324-.407-.675-.587-.99a15.634 15.634 0 0 1-.597-1.171c-.406-.9-.686-1.728-.858-2.539a8.184 8.184 0 0 1-.199-1.413c-.063-1.287.127-2.512.741-3.682.081-.162.199-.333.361-.549a3.441 3.441 0 0 1 1.175-1 3.173 3.173 0 0 1 1.274-.351h.054c.262-.018.515 0 .777.045l.263.054c.162.036.343.09.533.153.18.063.361.144.533.234.217.108.406.225.587.343.127.081.271.198.416.315l.018.018c.307.243.605.531.912.873l.018.018c.1.117.263.297.479.468.389.315.868.459 1.347.432.307-.018.614-.117.885-.288.28-.171.579-.315.886-.423.244-.081.488-.144.723-.18.117-.018.225-.027.325-.036.199-.009.37-.009.533.009.19.027.37.045.605.099.082.018.181.054.29.09l.117.036c.136.045.298.117.461.189.19.09.37.198.551.324.253.18.452.351.633.522.28.279.515.576.713.91.181.306.326.603.434.909.145.432.244.882.271 1.341.027.333.018.622-.009.892v.126c-.018.054-.027.108-.036.153-.018.09-.027.171-.036.252a.51.51 0 0 1-.027.162l-.036.162c-.055.234-.109.459-.163.657l-.036.126a2.453 2.453 0 0 1-.118.342l-.081.207c-.072.18-.145.36-.217.486-.226.442-.443.82-.659 1.144-.272.405-.597.792-.976 1.206-.479.513-1.03 1-1.627 1.441a14.66 14.66 0 0 1-1.202.81c-.37.225-.759.45-1.156.657-.533.279-1.093.54-1.726.801-.741.306-1.482.568-2.205.775l-.009.009Z" fill="#fff" />
    </mask>
    <g mask="url(#mask1_220_14173)" fill="#fff" stroke="#231815" stroke-miterlimit="10">
      <path d="M171.994 174.639c.886-.36 1.852-.441 2.792-.585.94-.144 1.916-.36 2.684-.918 1.192-.874 1.671-2.395 2.466-3.646a7.75 7.75 0 0 1 3.226-2.818c.362-.171.75-.306 1.148-.288.397.018.804.252.93.63-1.12.18-2.042.99-2.692 1.917-.651.928-1.084 1.99-1.645 2.971-.56.982-1.292 1.927-2.322 2.404-.732.333-1.545.414-2.34.504-.795.09-1.618.189-2.322.576-.705.388-1.274 1.117-1.229 1.918-.027-.378-2.142-.45-2.322-1.053-.217-.685 1.147-1.414 1.644-1.612h-.018Z" />
      <path d="M174.876 177.232c.886-.36 1.853-.441 2.792-.585.94-.144 1.916-.36 2.684-.919 1.193-.873 1.672-2.394 2.467-3.646a7.751 7.751 0 0 1 3.226-2.818c.361-.171.75-.306 1.147-.288.398.018.804.252.931.631-1.121.18-2.042.99-2.693 1.917-.65.927-1.084 1.99-1.644 2.971-.561.981-1.292 1.927-2.322 2.404-.732.333-1.546.414-2.341.504-.795.09-1.617.189-2.322.576-.705.387-1.274 1.117-1.229 1.918-.027-.378-2.141-.45-2.322-1.054-.217-.684 1.148-1.413 1.644-1.611h-.018Z" />
    </g>
    <path d="m168.651 182.328-.551 2.358a2.369 2.369 0 0 1-2.838 1.756 2.359 2.359 0 0 1-1.762-2.827l.552-2.359" stroke="#231815" stroke-linecap="round" stroke-linejoin="round" />
    <path d="M174.831 212.748c4.112-2.295 9.985-1.404 12.614 2.494 1.509 2.242 1.816 5.042 2.106 7.725 1.798 16.484 4.373 33.085 8.737 49.065-.153-.576-11.611 0-12.785.027-3.886.063-7.816.342-11.684.063.289-3.223-.488-6.302-.732-9.525-.244-3.223-.343-6.725-.813-10.065a620.406 620.406 0 0 0-2.431-15.791c-.668-4.024-2.258-8.616-1.698-12.712.605-4.438 2.62-9.021 6.686-11.29v.009Z" fill="#00698A" stroke="#231815" stroke-linecap="round" stroke-linejoin="round" />
    <mask id="mask2_220_14173" style="mask-type:luminance" maskUnits="userSpaceOnUse" x="168" y="211" width="31" height="62">
      <path d="M174.831 212.748c4.112-2.295 9.985-1.404 12.614 2.494 1.509 2.242 1.816 5.042 2.106 7.725 1.798 16.484 4.373 33.085 8.737 49.065-.153-.576-11.611 0-12.785.027-3.886.063-7.816.342-11.684.063.289-3.223-.488-6.302-.732-9.525-.244-3.223-.343-6.725-.813-10.065a620.406 620.406 0 0 0-2.431-15.791c-.668-4.024-2.258-8.616-1.698-12.712.605-4.438 2.62-9.021 6.686-11.29v.009Z" fill="#fff" />
    </mask>
    <g mask="url(#mask2_220_14173)">
      <path d="M168.063 255.935c1.771 3.097 3.551 6.185 5.323 9.282 1.626-5.456 3.243-10.911 4.87-16.367 1.491 5.591 2.991 11.181 4.482 16.772 1.337-2.557 2.674-5.104 4.011-7.661 2.16 2.98 4.311 5.96 6.47 8.94.75-1.45 1.5-2.908 2.25-4.358a57.835 57.835 0 0 1 5.593 14.783 287.545 287.545 0 0 1-34.092 8.274c-.931-5.483-.578-10.75-.777-16.242-.072-2.142-.271-4.015.054-6.203.19-1.251 2.25-6.455 1.816-7.22Z" fill="#E2CCAF" stroke="#231815" stroke-miterlimit="10" />
    </g>
    <path d="M174.831 212.748c4.112-2.295 9.985-1.404 12.614 2.494 1.509 2.242 1.816 5.042 2.106 7.725 1.798 16.484 4.373 33.085 8.737 49.065-.153-.576-11.611 0-12.785.027-3.886.063-7.816.342-11.684.063.289-3.223-.488-6.302-.732-9.525-.244-3.223-.343-6.725-.813-10.065a620.406 620.406 0 0 0-2.431-15.791c-.668-4.024-2.258-8.616-1.698-12.712.605-4.438 2.62-9.021 6.686-11.29v.009Z" stroke="#231815" stroke-linecap="round" stroke-linejoin="round" />
    <mask id="mask3_220_14173" style="mask-type:luminance" maskUnits="userSpaceOnUse" x="149" y="208" width="63" height="54">
      <path d="M186.686 219.978c-4.825-2.989-9.786-6.023-15.352-7.167-5.566-1.134-11.963 0-15.677 4.295-2.729 3.151-3.632 7.481-3.804 11.631-.434 10.336-1.988 21.265-2.665 31.583 7.888 1.161 20.918.72 28.869.072-1.907-6.609-3.813-13.217-5.729-19.834-.768-2.674-1.545-5.356-2.051-8.093-.117-.658-1.12-6.401.063-6.14.172.036.479.873.579 1.026.65 1.053 1.518 2.035 2.295 2.998 1.572 1.954 3.271 3.808 5.168 5.456 3.353 2.908 7.392 5.167 11.792 5.825 4.4.657 9.162-.442 12.424-3.449 3.506-3.241 4.871-8.183 5.458-12.919.587-4.735 1.617-9.507 3.081-14.053-15.035-1.171-31.146-1.999-46.227-2.305-.009 1.261-.108 2.449.108 3.691" fill="#fff" />
    </mask>
    <g mask="url(#mask3_220_14173)">
      <path d="M150.534 240.441c1.771 3.097 3.551 6.185 5.322 9.282 1.627-5.456 3.244-10.911 4.87-16.367 1.491 5.591 2.991 11.181 4.482 16.772 1.337-2.557 2.675-5.104 4.012-7.661 2.16 2.98 4.31 5.96 6.47 8.94.75-1.45 1.5-2.908 2.25-4.358a57.872 57.872 0 0 1 5.593 14.783 287.64 287.64 0 0 1-34.092 8.274c-.931-5.483-.579-10.75-.777-16.242-.073-2.142-.272-4.015.054-6.203.19-1.251 2.25-6.455 1.816-7.22Z" fill="#E2CCAF" stroke="#231815" stroke-miterlimit="10" />
    </g>
    <path d="M186.686 219.978c-4.825-2.989-9.786-6.023-15.352-7.167-5.566-1.134-11.963 0-15.677 4.295-2.729 3.151-3.632 7.481-3.804 11.631-.434 10.336-1.988 21.265-2.665 31.583 7.888 1.161 20.918.72 28.869.072-1.907-6.609-3.813-13.217-5.729-19.834-.768-2.674-1.545-5.356-2.051-8.093-.117-.658-1.12-6.401.063-6.14.172.036.479.873.579 1.026.65 1.053 1.518 2.035 2.295 2.998 1.572 1.954 3.271 3.808 5.168 5.456 3.353 2.908 7.392 5.167 11.792 5.825 4.4.657 9.162-.442 12.424-3.449 3.506-3.241 4.871-8.183 5.458-12.919.587-4.735 1.617-9.507 3.081-14.053-15.035-1.171-31.146-1.999-46.227-2.305-.009 1.261-.108 2.449.108 3.691" stroke="#231815" stroke-linejoin="round" />
    <path d="M186.686 219.978c-4.825-2.989-9.786-6.023-15.352-7.167-5.566-1.134-11.963 0-15.677 4.295-2.729 3.151-3.632 7.481-3.804 11.631-.434 10.336-1.988 21.265-2.665 31.583 7.888 1.161 20.918.72 28.869.072-1.907-6.609-3.813-13.217-5.729-19.834-.768-2.674-1.545-5.356-2.051-8.093-.117-.658-1.12-6.401.063-6.14.172.036.479.873.579 1.026.65 1.053 1.518 2.035 2.295 2.998 1.572 1.954 3.271 3.808 5.168 5.456 3.353 2.908 7.392 5.167 11.792 5.825 4.4.657 9.162-.442 12.424-3.449 3.506-3.241 4.871-8.183 5.458-12.919.587-4.735 1.617-9.507 3.081-14.053-15.035-1.171-31.146-1.999-46.227-2.305-.009 1.261-.108 2.449.108 3.691" fill="#00698A" />
    <path d="M186.686 219.978c-4.825-2.989-9.786-6.023-15.352-7.167-5.566-1.134-11.963 0-15.677 4.295-2.729 3.151-3.632 7.481-3.804 11.631-.434 10.336-1.988 21.265-2.665 31.583 7.888 1.161 20.918.72 28.869.072-1.907-6.609-3.813-13.217-5.729-19.834-.768-2.674-1.545-5.356-2.051-8.093-.117-.658-1.12-6.401.063-6.14.172.036.479.873.579 1.026.65 1.053 1.518 2.035 2.295 2.998 1.572 1.954 3.271 3.808 5.168 5.456 3.353 2.908 7.392 5.167 11.792 5.825 4.4.657 9.162-.442 12.424-3.449 3.506-3.241 4.871-8.183 5.458-12.919.587-4.735 1.617-9.507 3.081-14.053-15.035-1.171-31.146-1.999-46.227-2.305-.009 1.261-.108 2.449.108 3.691" stroke="#231815" stroke-linecap="round" stroke-linejoin="round" />
    <path d="M199.119 222.94c-1.129 2.511-2.15 5.158-2.096 7.904.054 2.746 1.437 5.636 3.967 6.725 1.952.838 3.099-.252 4.138-1.818a17.995 17.995 0 0 0 2.377-5.33c.108-.423.957-4.627.587-4.664a14.478 14.478 0 0 1-3.569-.828c-1.807-.666-3.605-1.323-5.413-1.989h.009Z" fill="#E86546" stroke="#231815" stroke-miterlimit="10" />
    <path d="M205.164 192.429c-.018.063-.063.27.208.63.461.612 1.383 1.089 2.196 1.125 1.428.063 2.991-.486 4.644-1.062.696-.243 1.41-.495 2.142-.711 4.174-1.234 7.843-.594 10.066 1.755 1.057 1.117 1.599 2.404 2.069 3.548.343.819.669 1.602 1.084 2.007.723.702 2.042.765 4.13.783 2.132.018 4.554.036 6.731 1.351 2.115 1.278 3.434 3.376 3.931 6.248.199 1.17.271 2.44.199 3.916l6.09.567a2.602 2.602 0 0 1 2.349 2.818 2.598 2.598 0 0 1-2.801 2.341h-.027l-8.675-.801a2.595 2.595 0 0 1-1.789-.964 2.573 2.573 0 0 1-.551-1.944c.551-4.295.082-6.833-1.437-7.743-.948-.576-2.466-.585-4.075-.603-2.421-.018-5.448-.045-7.716-2.251-1.184-1.152-1.753-2.52-2.259-3.727-.334-.801-.651-1.548-1.048-1.971-.967-1.018-3.127-.847-4.816-.343-.615.18-1.238.397-1.898.631-1.952.684-4.165 1.458-6.605 1.35-2.377-.108-4.726-1.332-6.126-3.196" fill="#E86546" />
    <path d="M205.164 192.429c-.018.063-.063.27.208.63.461.612 1.383 1.089 2.196 1.125 1.428.063 2.991-.486 4.644-1.062.696-.243 1.41-.495 2.142-.711 4.174-1.234 7.843-.594 10.066 1.755 1.057 1.117 1.599 2.404 2.069 3.548.343.819.669 1.602 1.084 2.007.723.702 2.042.765 4.13.783 2.132.018 4.554.036 6.731 1.351 2.115 1.278 3.434 3.376 3.931 6.248.199 1.17.271 2.44.199 3.916l6.09.567a2.602 2.602 0 0 1 2.349 2.818 2.598 2.598 0 0 1-2.801 2.341h-.027l-8.675-.801a2.595 2.595 0 0 1-1.789-.964 2.573 2.573 0 0 1-.551-1.944c.551-4.295.082-6.833-1.437-7.743-.948-.576-2.466-.585-4.075-.603-2.421-.018-5.448-.045-7.716-2.251-1.184-1.152-1.753-2.52-2.259-3.727-.334-.801-.651-1.548-1.048-1.971-.967-1.018-3.127-.847-4.816-.343-.615.18-1.238.397-1.898.631-1.952.684-4.165 1.458-6.605 1.35-2.377-.108-4.726-1.332-6.126-3.196" stroke="#231815" stroke-miterlimit="10" />
    <path d="M111.535 249.228v4.835s21.271 6.536 23.331 28.242l11.06-.036s-6.705-5.717-8.494-11.848c-1.789-6.14-3.56-14.432-9.722-17.817-6.163-3.376-16.184-3.367-16.184-3.367l.009-.009Z" fill="#E2CCAF" stroke="#231815" stroke-miterlimit="10" />
    <path d="M111.707 260.275h-.172v26.297h.172v-26.297Zm3.37 0h-.171v26.297h.171v-26.297Z" fill="#333434" stroke="#231815" stroke-linecap="round" stroke-linejoin="round" />
    <path d="M126.508 271.654h-26.394v.171h26.394v-.171Zm0 3.367h-26.394v.171h26.394v-.171Z" fill="#333434" stroke="#231815" stroke-linecap="round" stroke-linejoin="round" />
    <path d="m112.776 260.168-2.47 26.182.171.016 2.47-26.182-.171-.016Zm3.361.323-2.475 26.181.171.016 2.475-26.181-.171-.016Z" fill="#333434" stroke="#231815" stroke-linecap="round" stroke-linejoin="round" />
    <path d="m100.335 270.425-.016.17 26.278 2.456.016-.17-26.278-2.456Zm-.315 3.345-.016.17 26.278 2.457.016-.17-26.278-2.457Z" fill="#333434" stroke="#231815" stroke-linecap="round" stroke-linejoin="round" />
    <path d="m102.843 281.593-.117-.126 18.658-18.591.118.117-18.659 18.6Zm20.939-16.355-18.66 18.598.122.121 18.659-18.598-.121-.121Z" fill="#333434" stroke="#231815" stroke-linecap="round" stroke-linejoin="round" />
    <path d="m122.738 264.049-21.004 15.925.104.136 21.004-15.925-.104-.136Zm2.048 2.667-21.001 15.928.104.136 21.001-15.928-.104-.136Z" fill="#333434" stroke="#231815" stroke-linecap="round" stroke-linejoin="round" />
    <path d="m123.77 281.593-18.659-18.6.117-.117 18.659 18.591-.117.126Zm-20.927-16.344-.121.121 18.663 18.595.121-.121-18.663-18.595Z" fill="#333434" stroke="#231815" stroke-linecap="round" stroke-linejoin="round" />
    <path d="m124.872 279.946-21.234-15.62.109-.135 21.225 15.62-.1.135Zm-23.129-13.051-.102.138 21.236 15.616.102-.137-21.236-15.617Z" fill="#333434" stroke="#231815" stroke-linecap="round" stroke-linejoin="round" />
    <path d="M113.306 253.982c-10.689 0-19.354 8.633-19.354 19.284 0 10.65 8.665 19.284 19.354 19.284 10.69 0 19.355-8.634 19.355-19.284 0-10.651-8.665-19.284-19.355-19.284Zm0 34.463c-8.412 0-15.234-6.798-15.234-15.179 0-8.382 6.822-15.179 15.234-15.179 8.413 0 15.235 6.797 15.235 15.179 0 8.381-6.822 15.179-15.235 15.179Z" fill="#333434" stroke="#231815" stroke-linecap="round" stroke-linejoin="round" />
    <path d="M113.306 256.88c-9.081 0-16.445 7.338-16.445 16.386 0 9.048 7.364 16.385 16.445 16.385s16.446-7.337 16.446-16.385c0-9.048-7.365-16.386-16.446-16.386Zm0 29.782c-7.309 0-13.246-5.906-13.246-13.198 0-7.293 5.927-13.198 13.246-13.198 7.319 0 13.247 5.905 13.247 13.198 0 7.292-5.928 13.198-13.247 13.198Z" fill="#333434" stroke="#231815" stroke-linecap="round" stroke-linejoin="round" />
    <path d="M116.921 273.419a3.608 3.608 0 0 1-3.615 3.601 3.607 3.607 0 0 1-3.614-3.601 3.607 3.607 0 0 1 3.614-3.601 3.607 3.607 0 0 1 3.615 3.601Z" fill="#333434" stroke="#231815" stroke-linecap="round" stroke-linejoin="round" />
    <path d="M114.987 273.419a1.68 1.68 0 0 1-1.681 1.674 1.674 1.674 0 1 1 0-3.349c.931 0 1.681.747 1.681 1.675Z" fill="#E2CCAF" stroke="#231815" stroke-miterlimit="10" />
    <path d="M120.743 252.577c-16.978-5.663-25.083 8.841-25.083 8.841-2.241 3.016 3.298 3.826 3.298 3.826s25.182 2.818 27.64 3.943c2.621 1.198 3.949 3.89 4.599 6.545.29 1.18.506 2.368.57 3.584.081 1.548-.109 3.376 2.033 3.34 2.051-.036 1.861-2.701 1.861-2.701 2.205-23.498-14.927-27.369-14.927-27.369l.009-.009Z" fill="#00698A" stroke="#231815" stroke-miterlimit="10" />
    <path d="M211.733 260.275h-.171v26.297h.171v-26.297Zm3.371 0h-.172v26.297h.172v-26.297Z" fill="#333434" stroke="#231815" stroke-linecap="round" stroke-linejoin="round" />
    <path d="M226.534 271.654h-26.393v.171h26.393v-.171Zm0 3.367h-26.393v.171h26.393v-.171Z" fill="#333434" stroke="#231815" stroke-linecap="round" stroke-linejoin="round" />
    <path d="m212.805 260.174-2.475 26.182.171.016 2.474-26.182-.17-.016Zm3.367.315-2.474 26.181.171.016 2.474-26.181-.171-.016Z" fill="#333434" stroke="#231815" stroke-linecap="round" stroke-linejoin="round" />
    <path d="m200.353 270.419-.016.171 26.278 2.456.016-.17-26.278-2.457Zm-.315 3.346-.016.17 26.278 2.457.016-.171-26.278-2.456Z" fill="#333434" stroke="#231815" stroke-linecap="round" stroke-linejoin="round" />
    <path d="m221.435 262.892-18.702 18.556.121.121 18.702-18.556-.121-.121Zm2.379 2.351-18.679 18.579.121.121 18.68-18.579-.122-.121Z" fill="#333434" stroke="#231815" stroke-linecap="round" stroke-linejoin="round" />
    <path d="m222.768 264.052-21.004 15.925.104.136 21.003-15.925-.103-.136Zm2.037 2.653-21.001 15.928.104.136 21.001-15.928-.104-.136Z" fill="#333434" stroke="#231815" stroke-linecap="round" stroke-linejoin="round" />
    <path d="m223.796 281.593-18.659-18.6.118-.117 18.659 18.591-.118.126Zm-20.921-16.341-.121.121 18.663 18.595.121-.121-18.663-18.595Z" fill="#333434" stroke="#231815" stroke-linecap="round" stroke-linejoin="round" />
    <path d="m203.773 264.188-.102.138 21.236 15.616.102-.137-21.236-15.617Zm-2.005 2.701-.102.137 21.236 15.617.102-.138-21.236-15.616Z" fill="#333434" stroke="#231815" stroke-linecap="round" stroke-linejoin="round" />
    <path d="M213.333 253.982c-10.69 0-19.355 8.633-19.355 19.284 0 10.65 8.665 19.284 19.355 19.284 10.689 0 19.354-8.634 19.354-19.284 0-10.651-8.665-19.284-19.354-19.284Zm0 34.463c-8.413 0-15.235-6.798-15.235-15.179 0-8.382 6.822-15.179 15.235-15.179 8.412 0 15.234 6.797 15.234 15.179 0 8.381-6.822 15.179-15.234 15.179Z" fill="#333434" stroke="#231815" stroke-linecap="round" stroke-linejoin="round" />
    <path d="M213.333 256.88c-9.081 0-16.445 7.338-16.445 16.386 0 9.048 7.364 16.385 16.445 16.385s16.445-7.337 16.445-16.385c0-9.048-7.364-16.386-16.445-16.386Zm0 29.782c-7.31 0-13.247-5.906-13.247-13.198 0-7.293 5.928-13.198 13.247-13.198s13.246 5.905 13.246 13.198c0 7.292-5.927 13.198-13.246 13.198Z" fill="#333434" stroke="#231815" stroke-linecap="round" stroke-linejoin="round" />
    <path d="M216.947 273.419a3.607 3.607 0 0 1-3.614 3.601 3.608 3.608 0 0 1-3.615-3.601 3.607 3.607 0 0 1 3.615-3.601 3.606 3.606 0 0 1 3.614 3.601Z" fill="#333434" stroke="#231815" stroke-linecap="round" stroke-linejoin="round" />
    <path d="M215.013 273.419a1.68 1.68 0 0 1-1.68 1.674 1.674 1.674 0 1 1 0-3.349c.93 0 1.68.747 1.68 1.675Z" fill="#333434" stroke="#231815" stroke-linecap="round" stroke-linejoin="round" />
    <path d="M214.065 269.178c0 .982-.795 1.774-1.78 1.774h-38.05a1.774 1.774 0 1 1 0-3.547h38.05c.985 0 1.78.792 1.78 1.773Z" fill="#231815" />
    <path d="m171.452 267.198 38.122-1.936c4.78-.36 8.945 3.214 9.298 7.977.361 4.762-3.226 8.913-8.006 9.264-1.364.099-2.151.207-4.102-.027l-31.797-1.081s-9.452-.387-8.964-10.632c0 0 .506-4.096 5.44-3.565h.009Z" fill="#888" stroke="#231815" stroke-linecap="round" stroke-linejoin="round" />
    <path d="M167.187 272.554c0 .676.94 1.234 2.096 1.234l31.354.072c1.157 0 2.097-.549 2.106-1.225 0-.675-.94-1.233-2.096-1.233l-31.355-.072c-1.156 0-2.096.549-2.096 1.224h-.009Z" fill="#888" stroke="#231815" stroke-linecap="round" stroke-linejoin="round" />
    <path d="M203.791 273.635c.262 3.547 3.37 6.203 6.93 5.942a6.45 6.45 0 0 0 5.964-6.905c-.271-3.548-3.37-6.203-6.93-5.942-3.561.27-6.226 3.358-5.964 6.905Z" fill="#E2CCAF" stroke="#231815" stroke-miterlimit="10" />
    <path d="m127.547 215.467-5.141 20.995s-1.175 3.574 0 4.204l6.993 2.764 5.611-19.158s3.443-5.591 5.53-9.66c0 0 2.585-5.816 2.214-5.816-3.949 0-10.283-5.987-10.283-5.987s-4.057.351-4.102 1.369c-.045 1.017-.831 11.271-.831 11.271l.009.018Z" fill="#00698A" stroke="#231815" stroke-miterlimit="10" />
    <path d="M135.995 210.119c-.054 4.034-5.71 7.968-13.698 7.302-1.527-.126-2.783-3.268-2.783-7.302 0-4.033 1.274-7.067 2.783-7.301 6.732-1.053 13.735 3.934 13.698 7.301Z" fill="#00698A" stroke="#231815" stroke-miterlimit="10" />
    <path d="M122.387 202.8s-.063 0-.09.009c-1.509.234-2.783 3.268-2.783 7.301 0 4.034 1.256 7.176 2.783 7.302h.09v-14.63.018Z" fill="#E2CCAF" stroke="#231815" stroke-miterlimit="10" />
    <path d="M120.833 204.052c-.777 1.287-1.31 3.466-1.31 6.067 0 2.602.524 4.844 1.31 6.131v-12.198Z" fill="#fff" stroke="#231815" stroke-linecap="round" stroke-linejoin="round" />
    <path d="M140.703 204.718c-3.352-1.072-4.69-1.171-5.964-1.639-1.301-.405-2.512-.864-3.74-.81-1.347.054-3.244 0-3.832.747.1 3.817-.072 13.09 0 14.486 6.624 1.8 9.289 1.125 10.78.711 1.084-.441 2.883-2.098 4.256-5.087 0 0 2.259-7.202-1.5-8.408Z" fill="#00698A" stroke="#231815" stroke-miterlimit="10" />
    <path d="M131.631 213.117c0 .73-.596 1.315-1.319 1.315h-3.642a1.319 1.319 0 0 1-1.319-1.315c0-.729.597-1.314 1.319-1.314h3.642c.732 0 1.319.594 1.319 1.314Z" fill="#E2CCAF" stroke="#231815" stroke-miterlimit="10" />
    <path d="M146.115 181.967c.552 3.233.281 5.969-.605 6.122-.885.153-2.051-2.349-2.602-5.572-.551-3.232-.28-5.969.605-6.122.886-.153 2.051 2.349 2.602 5.572Z" fill="#888" stroke="#231815" stroke-linecap="round" stroke-linejoin="round" />
    <path d="M146.115 181.967c-.551-3.232-1.716-5.725-2.602-5.572a.515.515 0 0 0-.181.072c.823.414 1.78 2.683 2.259 5.51.515 2.997.317 5.581-.424 6.049a.57.57 0 0 0 .334.063c.886-.153 1.157-2.889.605-6.122h.009Z" fill="#888" stroke="#231815" stroke-linecap="round" stroke-linejoin="round" />
    <path d="M142.167 206.554c.172 1.126-.289 2.125-1.021 2.233-.741.117-1.482-.702-1.654-1.828-.171-1.125.289-2.124 1.021-2.232.741-.117 1.482.702 1.654 1.827Z" fill="#333434" stroke="#231815" stroke-linecap="round" stroke-linejoin="round" />
    <path d="M146.965 205.789c.162.954.018 1.774-.334 1.837 0 0-5.124.873-5.124.882-.461.081-.994-.396-1.238-.729-.334-.459-.533-1.117-.37-1.666.126-.414.533-.981 1.003-1.062l5.123-.882c.343-.063.759.666.931 1.62h.009Z" fill="#333434" stroke="#231815" stroke-linecap="round" stroke-linejoin="round" />
    <path d="M147.561 205.744c.199 1.116-.235 2.125-.967 2.26-.732.135-1.5-.666-1.698-1.783-.199-1.116.235-2.133.966-2.259.732-.136 1.5.666 1.699 1.782Z" fill="#333434" stroke="#231815" stroke-linecap="round" stroke-linejoin="round" />
    <path d="M126.526 209.633s-4.636 1-3.786 4.043c.443 1.593 5.403 3.061 7.048 2.151.696-.387.813-4.339.171-5.744-.334-.729-2.123-.774-3.433-.45Z" fill="#E2CCAF" stroke="#231815" stroke-miterlimit="10" />
    <path d="m143.441 181.985-6.587 16.791s-1.762 3.187-.66 5.168l1.337 2.817s.281.262.57 0c0 0 .099-.198-.036-.423-.127-.225-1.437-2.971-1.437-2.971s-.353-1.341.316-3.124l6.66-17.132s.442-1.017-.172-1.126h.009Z" fill="#888" stroke="#231815" stroke-linecap="round" stroke-linejoin="round" />
    <path d="M138.516 276.39c1.835 4.258 4.455 8.489 7.717 8.804h35.502s12.099.928 14.683-8.804h-57.902Z" fill="#E2CCAF" stroke="#231815" stroke-miterlimit="10" />
    <path d="M186.325 282.143h-37.399c-1.609 0-2.928.162-4.446-.622-1.518-.783-2.611-2.034-3.47-3.421-1.78-2.863-2.593-6.257-3.334-9.48-2.593-11.325-3.967-10.596-7.31-16.133-3.343-5.537.786-12.838 3.217-21.004 1.093-3.655 1.355-6.005 1.319-7.49-.28-.891-.84-1.783-1.536-2.287-.325-.234-.642-.468-1.003-.63-.886-.387-2.738-1.008-3.705-1.08-1.735-.126-2.665.252-6.198 3.124-6.696 5.446-12.054 15.962-12.533 24.929 0 0-.596 3.079 2.476 2.565 3.072-.513 20.204 1.315 23.457 18.096 0 0 3.668 15.836 10.364 16.476h35.502s6.478.495 10.969-3.052h-6.37v.009Z" fill="#00698A" stroke="#231815" stroke-miterlimit="10" />
    <path d="M244.741 271.582c-3.343-.855-2.873-4.258-2.873-4.258-.226-14.432-10.147-22.606-10.147-22.606-14.485-11.047-32.457-3.079-32.457-3.079-4.536 1.881-2.909-6.284-2.909-6.284h-6.669c-.163 1.062-.316 2.115-.479 3.178-.072.459-.135.909-.199 1.368l-16.544-.675v.765h-5.277s-.687 4.429 1.111 5.276c1.789.846 9.244 2.629 9.488 8.76.244 6.13-14.394 5.212-13.987 20.76 0 0 79.659-1.143 81.295-1.773 2.439-.937-.353-1.423-.353-1.423v-.009Z" fill="#00698A" stroke="#231815" stroke-miterlimit="10" />
    <path d="M233.148 240.522c-.235 0-.415-.018-.524-.027H212.14a1.018 1.018 0 0 1-1.021-1.017c0-.558.461-1.017 1.021-1.017h20.547c.046 0 .1 0 .145.009.244.036 1.066.054 1.5-.28.117-.09.262-.243.307-.612.244-2.061 0-7.544 0-7.598a1.014 1.014 0 0 1 .976-1.062 1.02 1.02 0 0 1 1.066.972c.009.234.253 5.708 0 7.931-.099.829-.479 1.522-1.093 1.99-.795.612-1.789.72-2.422.72l-.018-.009Z" fill="#333434" stroke="#231815" stroke-linecap="round" stroke-linejoin="round" />
    <path d="M218.239 239.982a1.018 1.018 0 0 1-1.021-1.017v-6.635c0-.568.461-1.018 1.021-1.018.56 0 1.021.459 1.021 1.018v6.635c0 .567-.461 1.017-1.021 1.017Z" fill="#333434" stroke="#231815" stroke-linecap="round" stroke-linejoin="round" />
    <path d="M230.239 244.492s7.454 6.303 9.758 14.909c0 0 .579 1.918 1.021 6.509.452 4.592.769 5.879 3.326 6.131 0 0-3.326.64-3.759-2.548-.497-3.7-.786-15.16-10.364-25.001h.018Z" fill="#E2CCAF" stroke="#231815" stroke-miterlimit="10" />
    <path d="M244.741 271.582c-3.343-.855-2.873-4.258-2.873-4.258-.226-14.432-10.147-22.606-10.147-22.606-14.485-11.047-32.457-3.079-32.457-3.079-4.536 1.881-2.909-6.284-2.909-6.284h-6.669c-.163 1.062-.316 2.115-.479 3.178-.072.459-.135.909-.199 1.368l-16.544-.675v.765h-5.277s-.687 4.429 1.111 5.276c1.789.846 9.244 2.629 9.488 8.76.244 6.13-14.394 5.212-13.987 20.76 0 0 8.665-.126 20.33-.315 1.121-9.372 5.81-24.929 24.469-27.342 20.069-2.593 28.418 12.271 31.454 26.181 2.972-.108 4.816-.207 5.051-.297 2.439-.937-.353-1.423-.353-1.423l-.009-.009Z" fill="#00698A" stroke="#231815" stroke-miterlimit="10" />
    <path d="M208.589 247.13c-18.659 2.404-23.349 17.97-24.469 27.342 3.605-.054 55.335-1.143 55.914-1.161-3.036-13.901-11.386-28.764-31.454-26.181h.009Z" fill="#00698A" stroke="#231815" stroke-miterlimit="10" />
    <path d="M209.465 249.435c-17.764 2.296-18.586 20.536-18.532 24.839 15.632-.27 33.098-.603 42.523-.909-1.753-11.515-7.717-26.037-24-23.93h.009Z" fill="#00698A" stroke="#231815" stroke-miterlimit="10" />
    <path d="M224.519 245.807c0 .729-.596 1.314-1.319 1.314h-3.642a1.319 1.319 0 0 1-1.319-1.314 1.32 1.32 0 0 1 1.319-1.315h3.642c.732 0 1.319.595 1.319 1.315Z" fill="#E2CCAF" stroke="#231815" stroke-miterlimit="10" />
    <path d="M228.269 245.258a.779.779 0 0 0-.063-.153c0-.009-.009-.018-.018-.036-.018-.054-.046-.099-.073-.144 0 0-.009-.018-.018-.027a2.796 2.796 0 0 0-.433-.595c-.046-.045-.082-.09-.127-.126l-.009-.009a4.736 4.736 0 0 0-.75-.576c-.054-.036-.108-.063-.163-.099a8.15 8.15 0 0 0-.795-.396h-.009c-.054-.018-.099-.045-.144-.063a8.52 8.52 0 0 0-.543-.198h-.018l-.099-.027h-.027l-.09-.027h-.019c-.09-.027-.162-.045-.225-.063h-.028c-.018 0-.027 0-.036-.009h-.081a6.34 6.34 0 0 0-1.193-.171c-.189-.009-.37-.018-.551 0h-.226a3.027 3.027 0 0 0-.424.054.32.32 0 0 0-.091.018c-.036 0-.063.018-.099.018-.036.009-.082.018-.118.036-.027 0-.063.018-.09.027-.045.018-.081.027-.118.045-.018 0-.036.018-.054.027-.036.018-.072.036-.099.054-.009 0-.027.018-.045.027a1.34 1.34 0 0 0-.118.081c-.009 0-.018.018-.027.027l-.081.081c0 .009-.018.018-.027.027-.027.036-.055.072-.073.117-.027.054-.045.117-.072.18 0 .018-.009.036-.018.054l-.054.162c0 .009 0 .027-.009.036a8.49 8.49 0 0 0-.054.225v.036c-.018.072-.028.144-.046.216v.045c-.027.171-.054.36-.081.55v.036l-.027.288c-.136 1.656.072 3.646.551 3.916.054.027.118.054.181.081.018 0 .045.018.063.018.045.018.09.036.136.045a.17.17 0 0 1 .072.018c.045.009.099.027.145.036.027 0 .054.009.081.018.054.009.108.018.172.027h.072c.072 0 .144.009.217.018h.036c.28.009.578 0 .885-.027 2.07-.198 4.663-1.26 4.979-2.395.154-.549.127-1.026-.018-1.449l-.009-.054Z" fill="#E2CCAF" stroke="#231815" stroke-miterlimit="10" />
    <path d="M212.583 229.413c-.19 0-.362.018-.524.027-2.277.162-4.518.648-6.723 1.197-5.195 1.296-10.4 2.62-15.749 3.106-4.59.423-9.063-.387-13.635-.279-2.015.045-4.229.207-6.036 1.197a5.426 5.426 0 0 0-1.527 1.216c.009.045.063.09.027.117-5.928 6.41 5.765 6.14 8.43 6.5h32.466s4.807.54 5.566-4.15c.759-4.691 0-6.861 0-6.861s.235-1.575-2.295-2.07Z" fill="#333434" stroke="#231815" stroke-linecap="round" stroke-linejoin="round" />
    <path d="M111.535 245.843c2.296-.747 3.922-14.837 15.614-22.714 0 0 2.937-2.845-.804-2.413-1.048.459-2.385 1.197-3.876 2.413-5.928 4.825-10.807 13.621-12.18 21.805.207.702.587 1.125 1.246.909Z" fill="#E2CCAF" stroke="#231815" stroke-miterlimit="10" />
    <path d="M131.613 221.004c1.111 1.377 1.834 2.26 1.003 5.627-1.708 6.905-9.415 18.537-2.232 25.865-3.343-5.537.786-12.838 3.217-21.004 1.093-3.655 1.491-6.032 1.057-7.454-.831-2.755-3.045-3.034-3.045-3.034Z" fill="#333434" stroke="#231815" stroke-linecap="round" stroke-linejoin="round" />
    <path d="M146.396 265.658a7.526 7.526 0 0 0-1.166.207 6.22 6.22 0 0 0-4.093 3.547c-1.166 2.773-.064 6.708 3.144 7.428 5.566 1.242 13.183-.216 18.822-.747 4.906-.46 13.219-.063 13.897-6.645.47-4.519-1.139-8.255-5.91-9.074-2.042-.352-4.147-.226-6.198-.054-3.181.261-5.584-.126-8.449 1.764-1.897 1.252-3.704 2.782-5.918 3.268-1.346.288-2.756.171-4.129.315v-.009Z" fill="#333434" stroke="#231815" stroke-miterlimit="10" />
    <path d="M186.686 219.978c-4.825-2.989-9.786-6.023-15.352-7.167-5.566-1.134-11.963 0-15.677 4.295-2.729 3.151-3.632 7.481-3.804 11.631-.434 10.336-1.988 21.265-2.665 31.583 7.888 1.161 20.918.72 28.869.072-1.907-6.609-3.813-13.217-5.729-19.834-.768-2.674-1.545-5.356-2.051-8.093-.117-.658-1.12-6.401.063-6.14.172.036.479.873.579 1.026.65 1.053 1.518 2.035 2.295 2.998 1.572 1.954 3.271 3.808 5.168 5.456 3.353 2.908 7.392 5.167 11.792 5.825 4.4.657 9.162-.442 12.424-3.449 3.506-3.241 4.871-8.183 5.458-12.919.587-4.735 1.617-9.507 3.081-14.053-15.035-1.171-31.146-1.999-46.227-2.305-.009 1.261-.108 2.449.108 3.691" fill="#00698A" />
    <path d="M186.686 219.978c-4.825-2.989-9.786-6.023-15.352-7.167-5.566-1.134-11.963 0-15.677 4.295-2.729 3.151-3.632 7.481-3.804 11.631-.434 10.336-1.988 21.265-2.665 31.583 7.888 1.161 20.918.72 28.869.072-1.907-6.609-3.813-13.217-5.729-19.834-.768-2.674-1.545-5.356-2.051-8.093-.117-.658-1.12-6.401.063-6.14.172.036.479.873.579 1.026.65 1.053 1.518 2.035 2.295 2.998 1.572 1.954 3.271 3.808 5.168 5.456 3.353 2.908 7.392 5.167 11.792 5.825 4.4.657 9.162-.442 12.424-3.449 3.506-3.241 4.871-8.183 5.458-12.919.587-4.735 1.617-9.507 3.081-14.053-15.035-1.171-31.146-1.999-46.227-2.305-.009 1.261-.108 2.449.108 3.691" stroke="#231815" stroke-linecap="round" stroke-linejoin="round" />
    <path d="M199.119 222.94c-1.129 2.511-2.15 5.158-2.096 7.904.054 2.746 1.437 5.636 3.967 6.725 1.952.838 3.099-.252 4.138-1.818a17.995 17.995 0 0 0 2.377-5.33c.108-.423.957-4.627.587-4.664a14.478 14.478 0 0 1-3.569-.828c-1.807-.666-3.605-1.323-5.413-1.989h.009Z" fill="#E86546" stroke="#231815" stroke-miterlimit="10" />
  </g>
  <g clip-path="url(#clip2_220_14173)" fill="#fff" stroke="#231815" stroke-miterlimit="10">
    <path d="M234.994 129.716c3.998 0 7.239-3.237 7.239-7.231 0-3.993-3.241-7.231-7.239-7.231-3.998 0-7.239 3.238-7.239 7.231 0 3.994 3.241 7.231 7.239 7.231Zm17.877-2.307c11.967 6.323 15.775 21.04 11.942 33.215-.127.436-.261.871-.402 1.301-.433 1.328-2.414.952-2.307-.442.033-.434.059-.869.077-1.302.466-8.205-2.426-17.079-9.578-21.391a12.873 12.873 0 0 0-3.784-1.516 5.403 5.403 0 0 1-4.115-6.441c.788-3.645 5.012-5.369 8.167-3.424Z" />
  </g>
  <rect x="62.5" y="94.5" width="224" height="224" rx="23.5" stroke="#231815" />
  <path stroke="#231815" d="M36 74.5h277v264H36z" />
  <path d="M348 412H1l34.47-74h278.06L348 412Z" fill="#E2CCAF" stroke="#231815" stroke-linejoin="round" />
  <path d="m18 401 24.22-54h264.04l24.22 54H18Z" fill="#00698A" stroke="#231815" stroke-linejoin="round" />
  <g clip-path="url(#clip3_220_14173)" stroke="#231815" stroke-miterlimit="10">
    <path d="M89.62 377.14c0-2.81-5.75-5.09-12.84-5.09s-12.84 2.28-12.84 5.09c0 1.34-1.44 6.01-1.44 7.71 0 3.13 6.4 5.66 14.28 5.66 7.88 0 14.28-2.53 14.28-5.66 0-1.7-1.44-6.37-1.44-7.71Z" fill="#E86546" />
    <path d="M76.78 382.23c7.091 0 12.84-2.279 12.84-5.09s-5.749-5.09-12.84-5.09-12.84 2.279-12.84 5.09 5.749 5.09 12.84 5.09Z" fill="#E2CCAF" />
  </g>
  <g clip-path="url(#clip4_220_14173)" stroke="#231815" stroke-miterlimit="10">
    <path d="M124.123 380.966c0-2.021-4.14-3.66-9.24-3.66-5.1 0-9.24 1.639-9.24 3.66 0 .96-1.043 4.321-1.043 5.547 0 2.252 4.604 4.073 10.283 4.073 5.68 0 10.283-1.821 10.283-4.073 0-1.217-1.043-4.587-1.043-5.547Z" fill="#E2CCAF" />
    <path d="M124.123 380.966c0-2.021-4.14-3.66-9.24-3.66-5.1 0-9.24 1.639-9.24 3.66 0 .96-1.043 4.321-1.043 5.547 0 2.252 4.604 4.073 10.283 4.073 5.68 0 10.283-1.821 10.283-4.073 0-1.217-1.043-4.587-1.043-5.547Z" />
    <path d="M124.123 380.966c0 2.02-4.14 3.659-9.24 3.659-5.1 0-9.24-1.639-9.24-3.659 0-2.021 4.14-3.66 9.24-3.66 5.1 0 9.24 1.639 9.24 3.66Z" fill="#00698A" />
    <path d="M114.883 352.957c-1.904 0-3.452.612-3.452 1.366v26.642c0 .754 1.548 1.367 3.452 1.367s3.453-.613 3.453-1.367v-26.634c0-.753-1.549-1.366-3.453-1.366v-.008Z" fill="#E86546" />
    <path d="M114.883 352.957c-1.904 0-3.452.612-3.452 1.366v26.642c0 .754 1.548 1.367 3.452 1.367s3.453-.613 3.453-1.367v-26.634c0-.753-1.549-1.366-3.453-1.366v-.008Z" />
    <path d="M114.883 357.212c7.124 0 12.899-5.775 12.899-12.899 0-7.124-5.775-12.899-12.899-12.899-7.124 0-12.899 5.775-12.899 12.899 0 7.124 5.775 12.899 12.899 12.899Z" fill="#FFE600" />
    <path d="M114.883 357.212c7.124 0 12.899-5.775 12.899-12.899 0-7.124-5.775-12.899-12.899-12.899-7.124 0-12.899 5.775-12.899 12.899 0 7.124 5.775 12.899 12.899 12.899Z" />
  </g>
  <g clip-path="url(#clip5_220_14173)">
    <path d="M164.316 351.84c2.63 0 4.79 1.69 4.79 3.74v22.21c0 2.05-2.16 3.73-4.79 3.73h-20.83c-2.64 0-4.79-1.68-4.79-3.73v-22.21c0-2.05 2.15-3.74 4.79-3.74h20.83Z" fill="#E2CCAF" stroke="#231815" stroke-linecap="round" stroke-linejoin="round" />
    <path d="M169.096 378.02c0 .07-.01.14-.02.21 0 .06-.02.12-.03.17-.01.07-.03.14-.05.2-.01.04-.02.07-.04.11-.07.2-.15.4-.26.59-.01.02-.03.05-.04.07-.11.19-.25.37-.4.54-.02.02-.03.04-.05.05-.16.17-.33.33-.53.48-.02.01-.03.02-.05.03-.2.15-.42.29-.65.41 0 0-.02 0-.02.01-.27.14-.56.26-.86.35-.03.01-.06.02-.1.03-.24.07-.48.13-.74.17h-.05c-.24.04-.48.05-.73.06h-20.99c-.28 0-.54-.02-.81-.06-.03 0-.06 0-.09-.01-.24-.04-.48-.09-.71-.15l-.12-.03c-.22-.07-.44-.15-.65-.24-.03-.02-.07-.03-.1-.05-.21-.1-.41-.21-.59-.33a.176.176 0 0 1-.05-.04c-.18-.12-.35-.26-.51-.4-.01-.01-.03-.02-.04-.03-.16-.15-.29-.3-.42-.47-.02-.03-.04-.05-.06-.08-.12-.16-.22-.33-.31-.5a.3.3 0 0 1-.04-.1c-.08-.18-.15-.36-.19-.55 0-.03 0-.05-.02-.08-.04-.2-.07-.41-.07-.62v8.97c0 .21.03.42.07.62 0 .03 0 .05.02.08.05.19.11.37.19.55.01.03.03.06.04.1.09.17.19.34.31.5.02.03.04.05.06.08.13.16.27.32.42.46.01.01.03.02.04.03.16.14.33.28.51.4.02.01.03.02.05.04.19.12.38.23.59.33.03.02.07.03.1.05.21.09.42.17.64.24.04.01.08.02.12.04.23.06.46.12.71.15h.09c.26.04.53.06.81.06h20.99c.25 0 .49-.03.73-.06h.05c.25-.04.5-.1.74-.17.02 0 .04 0 .07-.02.01 0 .02 0 .03-.01.3-.1.59-.21.86-.35h.02c.23-.12.45-.26.65-.41.02-.01.03-.02.05-.03.19-.15.37-.31.53-.48l.05-.05c.15-.17.28-.35.4-.54.01-.02.03-.05.04-.07.11-.19.19-.38.26-.59 0-.02.02-.03.02-.05 0-.02 0-.04.01-.06.02-.07.03-.14.05-.2.01-.06.03-.12.03-.17.01-.07.02-.14.02-.21 0-.04.01-.09.01-.13v-9.07c0 .08 0 .15-.01.23h.02Z" fill="#E86546" stroke="#231815" stroke-linecap="round" stroke-linejoin="round" />
    <path d="M164.156 367.38c.25-2.19-.69-4.65-3.47-4.69-.26-1.8-2.97-3.3-4.19-2.61v.05c-.77-1.63-4.22-1.7-5.2-.04-1.23-.69-3.94.82-4.19 2.63-2.78.05-3.72 2.51-3.46 4.7 0 0-.52.51-.57.57-.19.24-.36.5-.51.78-.28.55-.48 1.17-.57 1.79-.09.62-.08 1.21.08 1.73s.46 1.32.95 1.38c.25.03.51-.04.77-.06.39-.03.63.27 1 .27h2.54c1.92-.01 3.84-.02 5.76-.02l6.18-.02c1.27 0 2.55-.08 3.83 0 .34.02.58-.03.85-.26.22-.19.43-.41.71-.44.29-.03.62.13.81-.18.1-.17.19-.5.26-.72.16-.53.17-1.14.08-1.74-.09-.6-.29-1.24-.58-1.79-.14-.27-.3-.52-.48-.75-.05-.06-.59-.6-.59-.6l-.01.02Z" fill="#fff" stroke="#231815" stroke-linecap="round" stroke-linejoin="round" />
    <path d="M151.766 364.78c.54-.1 1.29-.16 1.87-.16 4.35 0 7.77 1.84 10.22 9.1" fill="#fff" />
    <path d="M151.766 364.78c.54-.1 1.29-.16 1.87-.16 4.35 0 7.77 1.84 10.22 9.1" stroke="#231815" stroke-linecap="round" stroke-linejoin="round" />
    <path d="M144.016 373.29c.82-2.89 2.19-5.02 3.87-6.4l-3.87 6.4Z" fill="#fff" />
    <path d="M144.016 373.29c.82-2.89 2.19-5.02 3.87-6.4" stroke="#231815" stroke-linecap="round" stroke-linejoin="round" />
    <path d="M144.076 367.67c.5.22.94.6 1.28 1.11l-1.28-1.11Z" fill="#fff" />
    <path d="M144.076 367.67c.5.22.94.6 1.28 1.11" stroke="#231815" stroke-linecap="round" stroke-linejoin="round" />
    <path d="M147.456 363.1c.59.45 1.01 1.18 1.18 2.04l-1.18-2.04Z" fill="#fff" />
    <path d="M147.456 363.1c.59.45 1.01 1.18 1.18 2.04" stroke="#231815" stroke-linecap="round" stroke-linejoin="round" />
    <path d="M151.556 360.89c.33.82.48 1.74.43 2.68l-.43-2.68Z" fill="#fff" />
    <path d="M151.556 360.89c.33.82.48 1.74.43 2.68" stroke="#231815" stroke-linecap="round" stroke-linejoin="round" />
    <path d="M156.366 361.18c-.2.71-.27 1.5-.18 2.29l.18-2.29Z" fill="#fff" />
    <path d="M156.366 361.18c-.2.71-.27 1.5-.18 2.29" stroke="#231815" stroke-linecap="round" stroke-linejoin="round" />
    <path d="M159.836 365.05c.27-.53.58-1.03.91-1.48l-.91 1.48Z" fill="#fff" />
    <path d="M159.836 365.05c.27-.53.58-1.03.91-1.48" stroke="#231815" stroke-linecap="round" stroke-linejoin="round" />
    <path d="M162.276 369.14c.42-.62.91-1.13 1.47-1.51l-1.47 1.51Z" fill="#fff" />
    <path d="M162.276 369.14c.42-.62.91-1.13 1.47-1.51" stroke="#231815" stroke-linecap="round" stroke-linejoin="round" />
  </g>
  <g clip-path="url(#clip6_220_14173)">
    <path d="M205.726 351.84c2.63 0 4.79 1.69 4.79 3.74v22.21c0 2.05-2.16 3.73-4.79 3.73h-20.83c-2.64 0-4.79-1.68-4.79-3.73v-22.21c0-2.05 2.15-3.74 4.79-3.74h20.83Z" fill="#E2CCAF" stroke="#231815" stroke-linecap="round" stroke-linejoin="round" />
    <path d="M210.506 378.02c0 .07-.01.14-.02.21 0 .06-.02.12-.03.17-.01.07-.03.14-.05.2-.01.04-.02.07-.04.11-.07.2-.15.4-.26.59-.01.02-.03.05-.04.07-.11.19-.25.37-.4.54-.02.02-.03.04-.05.05-.16.17-.33.33-.53.48-.02.01-.03.02-.05.03-.2.15-.42.29-.65.41 0 0-.02 0-.02.01-.27.14-.56.26-.86.35-.03.01-.06.02-.1.03-.24.07-.48.13-.74.17h-.05c-.24.04-.48.05-.73.06h-20.99c-.28 0-.54-.02-.81-.06-.03 0-.06 0-.09-.01-.24-.04-.48-.09-.71-.15l-.12-.03c-.22-.07-.44-.15-.65-.24-.03-.02-.07-.03-.1-.05-.21-.1-.41-.21-.59-.33a.176.176 0 0 1-.05-.04c-.18-.12-.35-.26-.51-.4-.01-.01-.03-.02-.04-.03-.16-.15-.29-.3-.42-.47-.02-.03-.04-.05-.06-.08-.12-.16-.22-.33-.31-.5a.3.3 0 0 1-.04-.1c-.08-.18-.15-.36-.19-.55 0-.03 0-.05-.02-.08-.04-.2-.07-.41-.07-.62v8.97c0 .21.03.42.07.62 0 .03 0 .05.02.08.05.19.11.37.19.55.01.03.03.06.04.1.09.17.19.34.31.5.02.03.04.05.06.08.13.16.27.32.42.46.01.01.03.02.04.03.16.14.33.28.51.4.02.01.03.02.05.04.19.12.38.23.59.33.03.02.07.03.1.05.21.09.42.17.64.24.04.01.08.02.12.04.23.06.46.12.71.15h.09c.26.04.53.06.81.06h20.99c.25 0 .49-.03.73-.06h.05c.25-.04.5-.1.74-.17.02 0 .04 0 .07-.02.01 0 .02 0 .03-.01.3-.1.59-.21.86-.35h.02c.23-.12.45-.26.65-.41.02-.01.03-.02.05-.03.19-.15.37-.31.53-.48l.05-.05c.15-.17.28-.35.4-.54.01-.02.03-.05.04-.07.11-.19.19-.38.26-.59 0-.02.02-.03.02-.05 0-.02 0-.04.01-.06.02-.07.03-.14.05-.2.01-.06.03-.12.03-.17.01-.07.02-.14.02-.21 0-.04.01-.09.01-.13v-9.07c0 .08 0 .15-.01.23h.02Z" fill="#E86546" stroke="#231815" stroke-linecap="round" stroke-linejoin="round" />
    <path d="M197.666 357.75c-.06 0-.12 0-.18.01-.5.08-.86.64-.74 1.13.02-.64-.55-1.23-1.19-1.24-.64-.01-1.22.58-1.21 1.22.15-.41-.12-.89-.52-1.05-.4-.16-.88-.04-1.23.21-.48.35-.67.89-1.13 1.25-.38.29-.76.56-1.16.82-.77.5-1.56.97-2.33 1.46-1.14.73-2.25 1.56-3.03 2.68-.92 1.33-1.25 2.94-1.25 4.54 0 8.56 23.46 8.57 23.46 0 0-2.64-1.22-4.89-3.21-6.57-1.03-.87-2.19-1.58-3.33-2.29-.51-.31-1.02-.63-1.51-.97-.27-.19-.45-.32-.62-.6-.19-.32-.45-.6-.82-.61v.01Z" fill="#fff" stroke="#231815" stroke-linecap="round" stroke-linejoin="round" />
    <path d="M194.026 359.88c.11.42-.08.87-.36 1.2-.28.33-.64.59-.96.88a5.09 5.09 0 0 0-1.63 3.42" fill="#fff" />
    <path d="M194.026 359.88c.11.42-.08.87-.36 1.2-.28.33-.64.59-.96.88a5.09 5.09 0 0 0-1.63 3.42" stroke="#231815" stroke-linecap="round" stroke-linejoin="round" />
    <path d="M195.706 359.97c-.12.92.14 1.89.7 2.63.39.52.91.92 1.34 1.41.43.49.75 1.14.62 1.77" fill="#fff" />
    <path d="M195.706 359.97c-.12.92.14 1.89.7 2.63.39.52.91.92 1.34 1.41.43.49.75 1.14.62 1.77" stroke="#231815" stroke-linecap="round" stroke-linejoin="round" />
    <path d="M198.366 360.15c.16.46.59.76 1.01 1.01.42.25.86.52 1.06.97" fill="#fff" />
    <path d="M198.366 360.15c.16.46.59.76 1.01 1.01.42.25.86.52 1.06.97" stroke="#231815" stroke-linecap="round" stroke-linejoin="round" />
  </g>
  <g clip-path="url(#clip7_220_14173)" stroke="#231815" stroke-miterlimit="10">
    <path d="M243.569 380.966c0-2.021-4.14-3.66-9.24-3.66-5.1 0-9.239 1.639-9.239 3.66 0 .96-1.044 4.321-1.044 5.547 0 2.252 4.604 4.073 10.283 4.073 5.68 0 10.283-1.821 10.283-4.073 0-1.217-1.043-4.587-1.043-5.547Z" fill="#E2CCAF" />
    <path d="M243.569 380.966c0-2.021-4.14-3.66-9.24-3.66-5.1 0-9.239 1.639-9.239 3.66 0 .96-1.044 4.321-1.044 5.547 0 2.252 4.604 4.073 10.283 4.073 5.68 0 10.283-1.821 10.283-4.073 0-1.217-1.043-4.587-1.043-5.547Z" />
    <path d="M243.569 380.966c0 2.02-4.14 3.659-9.24 3.659-5.1 0-9.239-1.639-9.239-3.659 0-2.021 4.139-3.66 9.239-3.66 5.1 0 9.24 1.639 9.24 3.66Z" fill="#00698A" />
    <path d="M234.329 352.957c-1.904 0-3.452.612-3.452 1.366v26.642c0 .754 1.548 1.367 3.452 1.367 1.905 0 3.453-.613 3.453-1.367v-26.634c0-.753-1.548-1.366-3.453-1.366v-.008Z" fill="#E86546" />
    <path d="M234.329 352.957c-1.904 0-3.452.612-3.452 1.366v26.642c0 .754 1.548 1.367 3.452 1.367 1.905 0 3.453-.613 3.453-1.367v-26.634c0-.753-1.548-1.366-3.453-1.366v-.008Z" />
    <path d="M234.329 357.212c7.124 0 12.899-5.775 12.899-12.899 0-7.124-5.775-12.899-12.899-12.899-7.124 0-12.899 5.775-12.899 12.899 0 7.124 5.775 12.899 12.899 12.899Z" fill="#FFE600" />
    <path d="M234.329 357.212c7.124 0 12.899-5.775 12.899-12.899 0-7.124-5.775-12.899-12.899-12.899-7.124 0-12.899 5.775-12.899 12.899 0 7.124 5.775 12.899 12.899 12.899Z" />
  </g>
  <g clip-path="url(#clip8_220_14173)" stroke="#231815" stroke-miterlimit="10">
    <path d="M285.262 377.14c0-2.81-5.75-5.09-12.84-5.09s-12.84 2.28-12.84 5.09c0 1.34-1.44 6.01-1.44 7.71 0 3.13 6.4 5.66 14.28 5.66 7.88 0 14.28-2.53 14.28-5.66 0-1.7-1.44-6.37-1.44-7.71Z" fill="#E86546" />
    <path d="M272.422 382.23c7.092 0 12.84-2.279 12.84-5.09s-5.748-5.09-12.84-5.09c-7.091 0-12.84 2.279-12.84 5.09s5.749 5.09 12.84 5.09Z" fill="#E2CCAF" />
  </g>
  <path d="M1 411h347v30c0 5.523-4.477 10-10 10H11c-5.523 0-10-4.477-10-10v-30Z" fill="#00698A" stroke="#231815" stroke-linejoin="round" />
  <defs>
    <clipPath id="clip0_220_14173">
      <rect x="39.5" y="10" width="270" height="55" rx="10" fill="#fff" />
    </clipPath>
    <clipPath id="clip1_220_14173">
      <path fill="#fff" transform="translate(93.5 121)" d="M0 0h158v172H0z" />
    </clipPath>
    <clipPath id="clip2_220_14173">
      <path fill="#fff" transform="translate(227.5 115)" d="M0 0h39v48H0z" />
    </clipPath>
    <clipPath id="clip3_220_14173">
      <path fill="#fff" transform="translate(62 371.55)" d="M0 0h29.57v19.45H0z" />
    </clipPath>
    <clipPath id="clip4_220_14173">
      <path fill="#fff" transform="translate(101.57 331)" d="M0 0h26.626v60H0z" />
    </clipPath>
    <clipPath id="clip5_220_14173">
      <path fill="#fff" transform="translate(138.196 351.34)" d="M0 0h31.41v39.66H0z" />
    </clipPath>
    <clipPath id="clip6_220_14173">
      <path fill="#fff" transform="translate(179.606 351.34)" d="M0 0h31.41v39.66H0z" />
    </clipPath>
    <clipPath id="clip7_220_14173">
      <path fill="#fff" transform="translate(221.016 331)" d="M0 0h26.626v60H0z" />
    </clipPath>
    <clipPath id="clip8_220_14173">
      <path fill="#fff" transform="translate(257.642 371.55)" d="M0 0h29.57v19.45H0z" />
    </clipPath>
  </defs>
</svg>