<svg width="178" height="40" fill="none" xmlns="http://www.w3.org/2000/svg"><rect x=".954" y=".91" width="176.176" height="38" rx="4.5" fill="#00698A"/><path d="M15.514 20.27h11.96v10h-2.42v-8.18h-7.24v8.18h-2.3v-10Zm-3.98-2.72h17.82v1.88h-17.82v-1.88Zm1.4-2.68h15.32v1.82h-15.32v-1.82Zm4.14 8.06h8.96v1.52h-8.96v-1.52Zm0 2.38h8.96v1.5h-8.96v-1.5Zm-.28 2.42h9.24v1.82h-9.24v-1.82Zm10-16.24 1.4 1.72c-4.1.68-10.06.92-15.02.88-.04-.52-.26-1.32-.46-1.8 4.9 0 10.7-.24 14.08-.8Zm-8.52 1.66 2.5.5c-1.36 4.98-3.76 9.74-8.38 12.4-.32-.54-1.02-1.44-1.5-1.9 4.24-2.28 6.44-6.68 7.38-11Zm19.24 7.12h11.96v10h-2.42v-8.18h-7.24v8.18h-2.3v-10Zm-3.98-2.72h17.82v1.88h-17.82v-1.88Zm1.4-2.68h15.32v1.82h-15.32v-1.82Zm4.14 8.06h8.96v1.52h-8.96v-1.52Zm0 2.38h8.96v1.5h-8.96v-1.5Zm-.28 2.42h9.24v1.82h-9.24v-1.82Zm10-16.24 1.4 1.72c-4.1.68-10.06.92-15.02.88-.04-.52-.26-1.32-.46-1.8 4.9 0 10.7-.24 14.08-.8Zm-8.52 1.66 2.5.5c-1.36 4.98-3.76 9.74-8.38 12.4-.32-.54-1.02-1.44-1.5-1.9 4.24-2.28 6.44-6.68 7.38-11Zm16.56.2h15.24v2.44h-15.24v-2.44Zm1.38 6.44h12.26v2.42h-12.26v-2.42Zm-2.52 6.76h17.44v2.46h-17.44v-2.46Zm21.66 1.2h18.22v1.88h-18.22v-1.88Zm.12-12.76h17.96v1.88h-17.96v-1.88Zm1.36 9.9h15.44v1.82h-15.44v-1.82Zm6.32-11.6h2.4v15.42h-2.4V13.29Zm7.34-1.84 1.1 1.84c-3.9.64-9.46.94-14.14.98-.02-.54-.28-1.36-.48-1.84 4.68-.1 10.12-.44 13.52-.98Zm-10.66 10.08v.9h9.24v-.9h-9.24Zm0-2.34v.9h9.24v-.9h-9.24Zm-2.34-1.58h14.04v6.4h-14.04v-6.4Zm19.72 1.7h18.52v2.62h-18.52v-2.62Zm30.8-3.8h9.94v2.28h-9.94v-2.28Zm5.44-4.06h2.46v15.8c0 1.42-.3 2.1-1.14 2.48-.82.4-2.14.5-3.94.48-.1-.7-.48-1.82-.84-2.52 1.26.04 2.52.04 2.94.04.38 0 .52-.12.52-.5V11.45Zm-5.28 8.78 1.98-.94c1.04 1.42 2.08 3.3 2.44 4.6l-2.16 1.08c-.32-1.26-1.28-3.24-2.26-4.74Zm-8.82-4.68h8.08v2.28h-8.08v-2.28Zm3.1-4.12h2.32v18.78h-2.32V11.43Zm-.1 5.66 1.52.54c-.74 3.28-2.16 7.14-3.86 9.2-.24-.7-.82-1.7-1.22-2.32 1.56-1.76 2.96-4.82 3.56-7.42Zm2.34 1.8c.6.56 2.62 2.94 3.06 3.5l-1.46 2c-.62-1.2-2.08-3.32-2.82-4.32l1.22-1.18Z" fill="#fff"/><g clip-path="url(#a)"><path d="M155.702 15.395h-1.662v-1.662h1.662v1.662ZM162.35 23.705h-3.324v1.662h-3.324v-1.662h1.662v-1.662h-11.406V18.72h11.406v-1.662h-1.662v-1.662h3.324v1.662h3.324v1.662h3.33v3.324h-3.33v1.662ZM155.702 27.03h-1.662v-1.663h1.662v1.662Z" fill="#fff"/><path d="M166.184 22.547h-1.878v.72h-1.446v.942h-1.878v.72h-1.446v.942h-1.878v.72h-1.446v.942h-2.676v-2.676h1.446v-.942h.216v-.72h1.446v-.648h-11.19V18.21h1.446v-.942h8.298v-1.374h-1.662v-2.676h1.446v-.942h2.676v1.662h3.324V15.6h3.324v1.662h3.324V21.6h-1.446v.948Zm-.504-3.828h-3.324v-1.662h-3.324v-1.662h-3.324v-1.662h-1.662v1.662h1.662v1.662h1.662v1.662h-11.412v3.324h11.406v1.662h-1.662v1.662h-1.662v1.662h1.662v-1.662h3.324v-1.662h3.324v-1.662h3.324V18.72h.006Z" fill="#231815"/></g><rect x=".954" y=".91" width="176.176" height="38" rx="4.5" stroke="#231815"/><defs><clipPath id="a"><path fill="#fff" transform="matrix(1 0 0 -1 145.454 27.533)" d="M0 0h22.176v15.246H0z"/></clipPath></defs></svg>