<svg width="178" height="39" fill="none" xmlns="http://www.w3.org/2000/svg"><rect x=".912" y=".5" width="176.176" height="38" rx="4.5" fill="#00698A"/><path d="M19.232 18.08h2.54v8.98c0 1.36-.32 2.02-1.32 2.38-1 .36-2.44.4-4.36.38-.14-.7-.58-1.76-.96-2.42 1.42.06 3.06.06 3.52.04.44 0 .58-.1.58-.44v-8.92Zm-6.96-5.66h13.98v2.36h-13.98v-2.36Zm13.26 0h.68l.54-.14 1.9 1.42c-2.04 2.2-5.04 4.64-7.82 6.1-.36-.52-1.12-1.32-1.6-1.72 2.4-1.28 5.16-3.56 6.3-5.08v-.58Zm9.72 3.74h5.54v1.76h-5.54v-1.76Zm0 3.28h5.54v1.7h-5.54v-1.7Zm0 3.34h5.54v1.78h-5.54v-1.78Zm8.66-2.26h7.54v2.02h-7.54v-2.02Zm-7.68-7.64h3.16v1.8h-3.16v-1.8Zm6.18-.84h7.42V14h-7.42v-1.96Zm0 12.3h9.42v2.08h-9.42v-2.08Zm3.74-5.62h2.28v11.02h-2.28V18.72Zm-8.74-1.64h1.6v6.36h-1.6v-6.36Zm11.78-5.04h2.14s-.02.5-.04.76c-.1 3.22-.28 4.6-.72 5.12-.32.42-.7.58-1.22.66-.44.06-1.22.08-2.02.04-.04-.6-.24-1.4-.54-1.92.64.06 1.16.08 1.42.08s.42-.04.56-.22c.22-.26.34-1.34.42-4.24v-.28Zm-5.68 6.82 1.96.38c-.36 1.84-1.02 3.68-1.8 4.86-.4-.28-1.28-.72-1.76-.94.78-1.06 1.32-2.7 1.6-4.3ZM35.752 11l2.14.46c-.72 2.76-1.96 5.46-3.4 7.16-.36-.38-1.22-1.1-1.7-1.42 1.36-1.48 2.42-3.82 2.96-6.2Zm-1.38 5.16h1.92v5.3c0 2.56-.26 6.12-1.72 8.38-.36-.32-1.22-.86-1.68-1.06 1.36-2.08 1.48-5.06 1.48-7.32v-5.3Zm5.78 0h1.96V27.5c0 .94-.18 1.54-.78 1.9-.62.34-1.44.38-2.66.38-.08-.56-.4-1.48-.68-2.02.78.04 1.58.04 1.82.02.24 0 .34-.08.34-.32v-11.3Zm4.66-3.46h2.14c-.24 2.92-.92 5.16-3.9 6.48-.24-.5-.78-1.28-1.26-1.64 2.4-.98 2.82-2.68 3.02-4.84Zm-5.98.18h.46l.3-.1 1.36.86c-.44 1.26-1.22 2.84-1.84 3.84-.38-.28-1.04-.68-1.46-.9.44-.92.94-2.4 1.18-3.34v-.36Zm17.96.06h15.24v2.44h-15.24v-2.44Zm1.38 6.44h12.26v2.42h-12.26v-2.42Zm-2.52 6.76h17.44v2.46h-17.44v-2.46Zm21.66 1.2h18.22v1.88h-18.22v-1.88Zm.12-12.76h17.96v1.88h-17.96v-1.88Zm1.36 9.9h15.44v1.82h-15.44v-1.82Zm6.32-11.6h2.4V28.3h-2.4V12.88Zm7.34-1.84 1.1 1.84c-3.9.64-9.46.94-14.14.98-.02-.54-.28-1.36-.48-1.84 4.68-.1 10.12-.44 13.52-.98Zm-10.66 10.08v.9h9.24v-.9h-9.24Zm0-2.34v.9h9.24v-.9h-9.24Zm-2.34-1.58h14.04v6.4h-14.04v-6.4Zm19.72 1.7h18.52v2.62h-18.52V18.9Zm30.8-3.8h9.94v2.28h-9.94V15.1Zm5.44-4.06h2.46v15.8c0 1.42-.3 2.1-1.14 2.48-.82.4-2.14.5-3.94.48-.1-.7-.48-1.82-.84-2.52 1.26.04 2.52.04 2.94.04.38 0 .52-.12.52-.5V11.04Zm-5.28 8.78 1.98-.94c1.04 1.42 2.08 3.3 2.44 4.6l-2.16 1.08c-.32-1.26-1.28-3.24-2.26-4.74Zm-8.82-4.68h8.08v2.28h-8.08v-2.28Zm3.1-4.12h2.32V29.8h-2.32V11.02Zm-.1 5.66 1.52.54c-.74 3.28-2.16 7.14-3.86 9.2-.24-.7-.82-1.7-1.22-2.32 1.56-1.76 2.96-4.82 3.56-7.42Zm2.34 1.8c.6.56 2.62 2.94 3.06 3.5l-1.46 2c-.62-1.2-2.08-3.32-2.82-4.32l1.22-1.18Z" fill="#fff"/><g clip-path="url(#a)"><path d="M155.66 14.985h-1.662v-1.662h1.662v1.662ZM162.308 23.295h-3.324v1.662h-3.324v-1.662h1.662v-1.662h-11.406v-3.324h11.406v-1.662h-1.662v-1.662h3.324v1.662h3.324v1.662h3.33v3.324h-3.33v1.662ZM155.66 26.619h-1.662v-1.662h1.662v1.662Z" fill="#fff"/><path d="M166.142 22.137h-1.878v.72h-1.446v.942h-1.878v.72h-1.446v.942h-1.878v.72h-1.446v.942h-2.676v-2.676h1.446v-.942h.216v-.72h1.446v-.648h-11.19v-4.338h1.446v-.942h8.298v-1.374h-1.662v-2.676h1.446v-.942h2.676v1.662h3.324v1.662h3.324v1.662h3.324v4.338h-1.446v.948Zm-.504-3.828h-3.324v-1.662h-3.324v-1.662h-3.324v-1.662h-1.662v1.662h1.662v1.662h1.662v1.662h-11.412v3.324h11.406v1.662h-1.662v1.662h-1.662v1.662h1.662v-1.662h3.324v-1.662h3.324v-1.662h3.324v-3.324h.006Z" fill="#231815"/></g><rect x=".912" y=".5" width="176.176" height="38" rx="4.5" stroke="#231815"/><defs><clipPath id="a"><path fill="#fff" transform="matrix(1 0 0 -1 145.412 27.123)" d="M0 0h22.176v15.246H0z"/></clipPath></defs></svg>