<svg width="202" height="41" fill="none" xmlns="http://www.w3.org/2000/svg"><rect x=".613" y=".91" width="200.857" height="39.286" rx="6.643" fill="#E68169"/><path d="m24.291 29.537-.002.002a1.98 1.98 0 0 1-2.637 0l-.003-.002c-1.233-1.084-2.934-2.726-4.323-4.593-1.4-1.881-2.427-3.919-2.427-5.809a8.071 8.071 0 0 1 16.143 0c0 1.89-1.028 3.928-2.428 5.81-1.389 1.866-3.09 3.508-4.323 4.592ZM20.596 16.76a3.357 3.357 0 1 0 4.748 4.748 3.357 3.357 0 0 0-4.748-4.748Z" fill="#fff" stroke="#231815"/><path d="M51.325 15.039H49.45c-.342 3.84-1.508 5.805-8.114 6.674-.16-.663-.777-1.714-1.28-2.24 5.555-.549 6.377-1.714 6.606-4.434h-3.84v3.108h-2.674V12.57h8.411c-.228-.617-.457-1.234-.709-1.783l2.858-.8c.411.8.891 1.76 1.211 2.583h8.16v5.143h-2.834v-2.674h-3.223v2.765c0 .64.114.869.8.869h3.406c.64 0 1.668-.046 2.171-.16.069.708.137 1.76.229 2.4-.458.16-1.463.183-2.309.183h-3.543c-2.72 0-3.451-.869-3.451-3.337v-2.72Zm.365 9.782v3.68h8.48v2.56h-20v-2.56h8.64v-3.68h-6.08v-2.514h15.223v2.514H51.69Zm16.366-11.337v2.675h-2.605v-4.983h19.657v4.983h-2.743v-2.675H68.056Zm2.103 10.263h3.749v-1.234h-3.749v1.234Zm0-4.206v1.212h3.749V19.54h-3.749Zm10.377 0h-3.954v1.212h3.954V19.54Zm0 4.206v-1.234h-3.954v1.234h3.954Zm4.8 2.949v2.423h-8.754v2.377h-2.674v-2.377H65.29v-2.423h8.618V25.62h-6.309v-7.954h6.309V16.64h-4.983v-1.966h4.983v-.914h2.674v.914h4.891v1.966h-4.891v1.028h6.651v7.954h-6.651v1.075h8.754Zm6.4-14.309h17.326v2.743H91.736v-2.743Zm1.577 7.292h13.943v2.765H93.313V19.68Zm-2.857 7.702h19.84v2.789h-19.84v-2.789Zm29.829-4.685h3.794v-1.029h-3.794v1.029Zm0-3.68v1.028h3.794v-1.028h-3.794Zm10.537 0h-4v1.028h4v-1.028Zm0 3.68v-1.029h-4v1.029h4Zm-4 6.057h9.12V30.9h-20.731v-2.148h8.868V27.54h-7.2v-2.034h7.2V24.48h-6.446v-7.246h6.446v-.869h-8.731V14.24h8.731v-1.006c-2.194.091-4.434.16-6.491.183-.023-.617-.32-1.532-.549-2.08 5.326-.115 11.52-.503 15.383-1.143l1.257 2.103c-1.988.32-4.366.571-6.857.754v1.189h8.96v2.125h-8.96v.869h6.789v7.246h-6.789v1.028h7.634v2.034h-7.634v1.212Zm13.371-9.577h21.029v2.948h-21.029v-2.948Zm31.2-2.195v.64c.823.869 2.743 3.155 3.178 3.726l-1.44 2.629a50.9 50.9 0 0 0-1.738-2.903V31.54h-2.628V23.04c-.686 1.714-1.463 3.291-2.332 4.457-.274-.8-.937-1.829-1.348-2.492 1.463-2.034 2.834-5.257 3.52-8.023h-2.926v-2.514h3.086v-4.251h2.628v4.251h2.606v2.514h-2.606Zm15.018-2.057V17.6h-2.858v10.4c0 1.691-.365 2.445-1.371 2.902-.983.458-2.583.549-4.846.549-.091-.823-.571-2.126-.96-2.903 1.623.069 3.246.069 3.749.069.48-.023.686-.16.686-.64V17.599h-6.218v-2.675h6.218v-4.64h2.742v4.64h2.858Zm-6.652 9.509-2.446 1.051c-.365-1.463-1.394-3.748-2.285-5.463l2.285-.891c.983 1.669 1.989 3.863 2.446 5.303Z" fill="#231815"/><rect x=".613" y=".91" width="200.857" height="39.286" rx="6.643" stroke="#231815"/></svg>