<svg fill="none" xmlns="http://www.w3.org/2000/svg" viewBox="0 0 23 16"><g clip-path="url(#clip0_201_10404)"><path d="M10.66 3.395H8.998V1.733h1.662v1.662Zm6.648 8.31h-3.324v1.662H10.66v-1.662h1.662v-1.662H.916V6.719h11.406V5.057H10.66V3.395h3.324v1.662h3.324v1.662h3.33v3.324h-3.33v1.662Zm-6.648 3.324H8.998v-1.662h1.662v1.662Z" fill="#fff"/><path d="M21.142 10.547h-1.878v.72h-1.446v.942H15.94v.72h-1.446v.942h-1.878v.72H11.17v.942H8.494v-2.676H9.94v-.942h.216v-.72h1.446v-.648H.412V6.209h1.446v-.942h8.298V3.893H8.494V1.217H9.94V.275h2.676v1.662h3.324v1.662h3.324v1.662h3.324v4.338h-1.446v.948Zm-.504-3.828h-3.324V5.057H13.99V3.395h-3.324V1.733H9.004v1.662h1.662v1.662h1.662v1.662H.916v3.324h11.406v1.662H10.66v1.662H8.998v1.662h1.662v-1.662h3.324v-1.662h3.324v-1.662h3.324V6.719h.006Z" fill="#231815"/></g><defs><clipPath id="clip0_201_10404"><path fill="#fff" transform="matrix(1 0 0 -1 .412 15.533)" d="M0 0h22.176v15.246H0z"/></clipPath></defs></svg>