<svg fill="none" xmlns="http://www.w3.org/2000/svg" viewBox="0 0 16 17"><g clip-path="url(#clip0_114_13089)" stroke="#231815" stroke-miterlimit="10"><path d="M8 16A7.5 7.5 0 1 0 8 1a7.5 7.5 0 0 0 0 15Z" fill="#fff"/><path d="M9.74 5.08c-.68 0-1.3.28-1.74.74a2.44 2.44 0 0 0-1.74-.74c-1.34 0-2.43 1.09-2.43 2.43 0 2.45 4.18 4.4 4.18 4.4s4.18-1.96 4.18-4.4c0-1.34-1.09-2.43-2.43-2.43h-.02Z" fill="#E86546"/></g><defs><clipPath id="clip0_114_13089"><path fill="#fff" transform="translate(0 .5)" d="M0 0h16v16H0z"/></clipPath></defs></svg>