<svg fill="none" xmlns="http://www.w3.org/2000/svg" viewBox="0 0 16 17"><g clip-path="url(#clip0_114_13095)" stroke="#231815" stroke-miterlimit="10"><path d="M8 16A7.5 7.5 0 1 0 8 1a7.5 7.5 0 0 0 0 15Z" fill="#fff"/><path d="m9.77 8.5 1.52-1.52c.52-.52.54-1.33.05-1.82-.49-.49-1.3-.47-1.82.05L8 6.73 6.48 5.21c-.52-.52-1.33-.54-1.82-.05-.49.49-.47 1.3.05 1.82L6.23 8.5l-1.52 1.52c-.52.52-.54 1.33-.05 1.82.49.49 1.3.47 1.82-.05L8 10.27l1.52 1.52c.52.52 1.33.54 1.82.05.49-.49.47-1.3-.05-1.82L9.77 8.5Z" fill="#E86546"/></g><defs><clipPath id="clip0_114_13095"><path fill="#fff" transform="translate(0 .5)" d="M0 0h16v16H0z"/></clipPath></defs></svg>