<?xml version="1.0" encoding="UTF-8"?><svg id="_圖層_2" xmlns="http://www.w3.org/2000/svg" viewBox="0 0 255 91.79"><defs><style>.cls-1{fill:#e86546}.cls-3{fill:#231815}.cls-4{fill:#368aa5}.cls-6,.cls-7{stroke-miterlimit:10;fill:#fafafa;stroke:#000}.cls-7{fill:#e2ccaf}</style></defs><g id="_圖層_1-2"><path d="m156.82 86.86-38.09-2.12c-4.47-.25-8.16-4.61-8.25-9.74l-1.07-64.04c-.07-4.36 2.48-7.86 5.98-8.67L96.22 6.71c-3.51.81-6.06 4.32-5.98 8.67l1.07 64.04c.09 5.13 3.78 9.49 8.25 9.74l38.09 2.12c.67.04 1.33-.02 1.95-.16l19.17-4.42c-.62.14-1.28.2-1.95.16Z" stroke="#231815" stroke-miterlimit="10" fill="#368aa5"/><path class="cls-6" d="M155.44 4.24c4.47.25 8.16 4.61 8.25 9.74l1.07 64.04c.09 5.13-3.47 9.09-7.94 8.84l-38.09-2.12c-4.47-.25-8.16-4.61-8.25-9.74l-1.07-64.04c-.09-5.13 3.47-9.09 7.94-8.84l38.09 2.12Z"/><path class="cls-6" d="m156.79 86.93-38.09-2.12c-4.47-.25-8.16-4.61-8.23-9.74L109.54 11c-.03-2.19.6-4.17 1.68-5.69 1.08-1.53 2.61-2.6 4.38-3l-9.59 2.13c-3.54.79-6.12 4.31-6.06 8.69l.93 64.07c.07 5.13 3.76 9.49 8.23 9.74l38.09 2.12c.66.04 1.29-.02 1.9-.15l9.59-2.13c-.61.13-1.24.19-1.9.15Z"/><path class="cls-6" d="M155.59 4.27c4.47.25 8.15 4.61 8.23 9.74l.93 64.07c.07 5.13-3.49 9.09-7.96 8.84L118.7 84.8c-4.47-.25-8.16-4.61-8.23-9.74l-.93-64.07c-.07-5.13 3.49-9.09 7.96-8.84l38.09 2.12Z"/><path class="cls-4" d="M139.16 42.77c-.14 0-.29-.02-.44-.05-.55-.14-.91-.41-1.08-.81a7.7 7.7 0 0 1-.28-.78c-.61-.48-.96-.76-1.04-.83-.41-.28-.96-.61-1.6-.96-.19-.11-.58-.33-.58-.73 0-.45.48-.58.76-.66l.06-.02s.44.01 1.04.04c.58.02 1.04.04 1.39.04.16 0 .29-.05.4-.14.13-.12.13-.19.13-.22v-3.51c-.08-.18-.18-.32-.3-.42h-.49c-.61 0-1.15-.22-1.6-.66-.39-.38-.76-.88-1.08-1.48-.32-.59-.57-1.22-.74-1.88-.04-.15-.17-.47-.37-.96-.13-.32-.27-.6-.4-.84-.66.26-1.07.43-1.23.49-.71.24-1.35.35-1.93.35-.15 0-.27-.01-.39-.03l-.12.46c-.18.72-.4 1.38-.65 1.95-.25.56-.57 1.19-.95 1.87-.83 1.44-1.63 2.54-2.37 3.29-.61.61-1.33 1.23-2.13 1.83-.52.28-.96.53-1.41.79l-.39.22-.27-.36c-.26-.35-.12-.73.81-2.11.19-.29.47-.69.83-1.22.44-.69.85-1.41 1.22-2.1.46-.9.87-1.77 1.2-2.57.2-.51.35-.92.45-1.22-.38.35-.74.73-1.07 1.12-.09.18-.19.36-.29.54-.17.3-.43.51-.76.62-.1.04-.22.06-.34.06-.24 0-.48-.08-.73-.24-.28-.18-.68-.57-1.25-1.21-.35-.4-.61-.82-.8-1.26-.17-.4-.33-.91-.04-1.28.15-.15.31-.21.51-.21.15 0 .34.03.62.09.25.06.39.07.47.07h.11c.29-.08.64-.2 1.03-.36.41-.17.71-.31.89-.42.2-.12.62-.38 1.26-.78.64-.42 1.12-.72 1.41-.91.07-.49.13-.9.16-1.24-.04.02-.08.03-.13.05-.09.03-.19.04-.3.04-.34 0-.76-.14-1.32-.44-.6-.32-1.16-.67-1.66-1.04-.35-.27-.75-.62-1.21-1.03-.48-.43-.81-.77-1.02-1.03l-.49-.61.76-.19c.32-.08.7-.12 1.12-.12.52 0 1.1.05 1.72.15.66.11 1.31.36 1.92.75.36.23.64.48.84.75.03-.54.05-1.15.05-1.83v-.64c0-.65-.18-1.26-.54-1.85-.28-.45-.43-.71-.45-.76-.17-.38-.35-.9-.05-1.28.21-.21.45-.3.79-.3.11 0 .31.02.6.08.27.05.77.23 1.52.53.18.06.46.18.83.34 0 0 4.88-.57 5.78-.68.47-.06.83-.1 1.08-.13v-.68c0-.21-.05-.29-.06-.31a7.12 7.12 0 0 1-.37-.54c-.26-.26-.56-.6-.85-.94-.27-.3-.78-.88-.48-1.37.2-.33.51-.52.87-.54.21-.01.46-.02.75-.02.48 0 1.12.12 1.96.38 1.14.34 1.5.56 1.66.69.09.07.26.2.5.4.56.56.55 1.1.45 1.46-.1.32-.19.62-.27.91-.01.04-.02.08-.03.13.31-.01.62-.04.93-.07.51-.06 1-.12 1.46-.18.44-.05.97-.17 1.58-.33.89-.24 1.17-.27 1.33-.27.24 0 .59.07 1.08.22.45.14.83.27 1.17.41.36.15.74.37 1.13.65.19.14.77.57.7 1.14 0 .34-.21 1.01-1.68 1.01l-5.6-.21c-.82.07-1.62.12-2.38.15.33.27.52.59.6.97.07.32.03.68-.11 1.07-.03.08-.06.15-.09.23.23-.06.62-.18 1.17-.36.25-.08.65-.19 1.22-.35.6-.17 1.16-.25 1.65-.25.45 0 .86.06 1.22.17.39.12.74.34 1.04.65.33.35.5.68.5 1.01 0 .26-.1.67-.7.92.06.04.12.09.19.14.43.34.71.58.86.73.36.36.54.7.54 1.03 0 .2-.08.58-.58.87l-1.34.65c.58.39 1.22.78 1.91 1.16.68.38 1.72.9 3.09 1.56.28.15.52.33.75.55.31.29.46.58.46.87 0 .31-.18.58-.49.73-.22.11-.51.16-.91.16-.63 0-1.2-.02-1.7-.05-.51-.04-1.02-.11-1.51-.21-.2-.05-.43-.14-.69-.26v.05c0 .25-.1.62-.57.95-.34.18-.62.39-.88.68-.18.2-.44.54-.79 1-.59.84-1.21 1.33-1.86 1.47-.08.02-.17.03-.27.03-.13 0-.3-.02-.51-.06-.21-.04-.38-.07-.52-.09l-1.13.19s.03.02.05.03c.47.42.61.89.45 1.36-.02.07-.07.21-.14.39s0 .04.02.12v2.29c0 .07-.01.44-.04 1.11-.02.69-.07 1.2-.15 1.57-.15.82-.41 1.49-.76 1.98-.33.47-.79.71-1.33.71Zm-2.05-11.31c.45-.04 1.2-.11 2.25-.21 1.47-.13 2.12-.23 2.41-.28.13-.33.24-.62.33-.86 0 0-.01 0-.02.01-.29.18-.76.29-1.5.36-.64.06-1.44.14-2.4.25-.5.06-.9.1-1.19.13l.12.6Zm3.71-3.39c.27 0 .51.02.72.06.25.05.42.11.55.2.24.13.38.29.45.45.15-.5.17-.71.17-.78 0-.39-.06-.57-.09-.64-.02 0-.07-.01-.15-.01-.13 0-.35.02-.65.07l-5.36.81.09.28c1.03-.25 1.88-.37 2.59-.37.18 0 .46-.01.83-.04.4-.02.68-.04.85-.04Zm-10.32-4.32c-.06.4-.11.72-.15.96-.08.44-.24 1.12-.46 2.02.24-.15.54-.35.95-.59.37-.23.85-.52 1.46-.88-.72-.5-1.32-1-1.79-1.5Zm9.12-1.47c-.64.91-1.35 1.78-2.12 2.59-.42.44-.84.85-1.27 1.21.39-.04.8-.09 1.22-.14 1.14-.13 1.89-.2 2.29-.2.49 0 1.02-.06 1.58-.17.68-.14 1.01-.25 1.16-.33.07-.04.14-.07.21-.1-.4-.36-.87-.79-1.4-1.29-.4-.38-.96-.91-1.68-1.57Zm-5.45.55c.14.1.3.24.49.4.1-.1.19-.2.26-.3.04-.05.07-.1.11-.16-.13.02-.24.03-.32.03-.21 0-.46-.04-.75-.12.07.04.14.09.21.14Zm8.68-1.09c.3.24.62.46.93.66.11-.12.21-.25.31-.39s.15-.23.17-.26v-.28c-.51.04-1.06.07-1.65.09.08.07.16.13.24.19Zm-11.68.11c.25 0 .57.04.99.12.1.02.19.04.28.06-.14-.09-.27-.18-.4-.29-.32-.29-.51-.51-.51-.79 0-.68.88-.68 1.22-.68h1.07c.42 0 .89-.02 1.42-.07.41-.04.76-.08 1.05-.15.24-.56.36-1.08.36-1.54 0-.54-.13-.97-.41-1.33-.9.13-1.8.24-2.72.34-.78.08-1.54.13-2.28.16.03.14.04.26.04.37 0 .22-.03.5-.1.86l-.16.88c-.09.64-.18 1.34-.28 2.09.15-.02.29-.04.43-.04Zm-.39 18.74c-.37 0-1.03-.15-1.34-1.18v-.04l-.06-.09-.04-.2v-.32c0-.4.07-.84.2-1.31.14-.49.3-.87.51-1.15.2-.27.49-.54.89-.84.18-.13.44-.32.78-.54.09-.1.22-.25.4-.43.17-.17.3-.32.39-.44.21-.32.39-.54.54-.7.22-.23.45-.27.6-.27.14 0 .26.04.39.11.16.08.41.28.51.7.03.13.05.32.05.84 0 .22-.04.6-.38 1.7-.25.82-.5 1.44-.76 1.9-.26.47-.66.96-1.17 1.44-.59.56-1.07.82-1.52.82Zm17.3-1.7c-.09 0-.18 0-.28-.02-.23-.05-.6-.18-1.58-.85-.71-.49-1.18-.83-1.43-1.06-.42-.4-.79-.76-1.1-1.1-.63-.69-.83-1.05-.77-1.39.03-.16.17-.6.85-.6h.68c.38 0 .93.11 1.66.33.71.21 1.32.47 1.81.75 1.49.89 1.65 1.93 1.53 2.65-.24 1.13-.96 1.3-1.36 1.3Z"/><path class="cls-3" d="M136.51 11.01c.42 0 1.03.12 1.82.36s1.29.44 1.5.61c.09.07.26.2.49.39.28.29.38.6.28.93-.1.31-.19.61-.27.91-.08.3-.12.55-.12.77.52 0 1.04-.03 1.56-.09.51-.06 1-.12 1.47-.18s1.01-.17 1.65-.34c.63-.17 1.03-.25 1.2-.25.19 0 .5.07.93.2.43.13.8.26 1.13.39a5 5 0 0 1 1.02.59c.36.26.52.49.5.68 0 .38-.39.57-1.18.57l-5.58-.21c-.93.07-1.79.12-2.59.16-.8.04-1.44.05-1.91.05.43.19.95.41 1.57.67.36.21.57.49.64.84.05.23.02.5-.09.81-.11.3-.28.63-.52.98.43 0 .76-.03.98-.09.23-.06.64-.18 1.23-.38.24-.07.64-.18 1.2-.34.56-.15 1.07-.23 1.52-.23.41 0 .76.05 1.07.14.31.1.58.27.82.52s.36.47.36.66c0 .29-.27.48-.8.57-.54.1-1.23.18-2.09.25-.86.07-1.82.11-2.9.11.33.38.72.74 1.14 1.07.43.33.87.63 1.32.89.23-.21.44-.46.64-.73.2-.27.28-.46.26-.55v-.39c0-.24.11-.36.32-.36h.14c.07 0 .26.02.57.05.31.04.67.21 1.07.54.41.32.68.55.82.7.26.26.39.49.39.68 0 .17-.11.31-.32.43l-2.07 1c.76.57 1.65 1.13 2.65 1.68.69.38 1.73.91 3.11 1.57.21.12.42.27.63.46.2.19.3.36.3.5 0 .12-.07.21-.21.29-.14.07-.37.11-.68.11-.62 0-1.17-.02-1.66-.05-.49-.04-.97-.1-1.45-.2-.26-.07-.64-.24-1.14-.5-.61-.33-1.11-.67-1.49-1.03.35.33.6.61.76.83.15.23.29.42.41.57.12.16.18.29.18.41 0 .19-.12.37-.36.54-.33.17-.66.42-.97.75-.19.21-.46.56-.82 1.04-.52.74-1.05 1.17-1.57 1.29-.04 0-.09.01-.16.01-.11 0-.25-.02-.42-.05-.26-.05-.47-.09-.61-.11l-2.32.39c.14.08.33.23.57.43.12.12.25.23.39.32.26.24.35.5.25.79-.02.1-.07.23-.14.39-.02.1-.02.21 0 .36v2.22c0 .07-.01.43-.04 1.09-.02.66-.07 1.15-.14 1.48-.14.76-.37 1.36-.68 1.79-.24.34-.55.5-.92.5-.1 0-.21-.01-.33-.04-.38-.1-.62-.27-.73-.52-.11-.25-.21-.54-.3-.88-.69-.55-1.08-.86-1.17-.93-.45-.31-1.01-.64-1.67-1-.21-.12-.32-.21-.32-.29 0-.05.13-.11.39-.18.05 0 .36.01.95.04.58.02 1.05.04 1.41.04.29 0 .53-.09.73-.27.2-.18.3-.38.3-.59v-3.61c-.14-.38-.36-.66-.65-.82h-.65c-.48 0-.9-.17-1.26-.52s-.69-.8-.99-1.36c-.3-.56-.53-1.15-.7-1.77-.05-.17-.18-.51-.39-1.02-.22-.51-.43-.94-.65-1.27-.89.36-1.42.57-1.62.64-.65.21-1.23.32-1.76.32-.38 0-.57-.07-.57-.21 0-.07.09-.2.27-.38.18-.18.72-.54 1.63-1.09.5-.31 1.22-.74 2.15-1.29-1.26-.79-2.19-1.57-2.79-2.36-.19-.24-.17-.39.05-.47.23-.07.45-.11.66-.11s.51.04.89.11.7.17.97.29c.26.12.55.29.86.5.19.14.45.37.79.68.26-.24.48-.47.64-.68.29-.41.58-.82.89-1.25-.14.02-.39.08-.75.18-.36.1-.61.14-.75.14-.26 0-.63-.09-1.11-.27-.48-.18-.89-.41-1.25-.7-.21-.19-.32-.32-.32-.39 0-.12.24-.18.72-.18h1.07c.43 0 .92-.02 1.47-.07.55-.05 1-.12 1.36-.21.33-.72.5-1.37.5-1.97 0-.76-.24-1.38-.72-1.86-.98.14-1.97.27-2.97.38-1 .11-1.97.16-2.9.16.14.38.21.67.21.86s-.03.45-.09.77-.11.61-.16.88c-.12.83-.24 1.75-.36 2.75s-.22 1.72-.3 2.16c-.08.44-.24 1.11-.47 2.02-.23.91-.43 1.71-.61 2.41-.18.7-.39 1.33-.63 1.88-.24.55-.55 1.16-.93 1.82-.81 1.41-1.57 2.47-2.29 3.18-.6.6-1.29 1.19-2.07 1.79-.45.24-.91.49-1.36.75-.07-.1.2-.61.82-1.54.19-.29.46-.69.82-1.22.45-.72.87-1.43 1.25-2.15.48-.93.88-1.8 1.22-2.61.26-.67.44-1.16.54-1.48.1-.32.23-.78.39-1.38-.41.31-.82.66-1.25 1.06-.43.39-.82.8-1.18 1.23l-.3.57c-.11.19-.27.32-.48.39-.06.02-.12.03-.19.03-.14 0-.29-.05-.46-.16-.24-.15-.62-.53-1.14-1.13-.31-.36-.55-.73-.72-1.13-.17-.39-.2-.65-.11-.77.02-.02.06-.03.12-.03.1 0 .27.03.51.08.23.05.43.08.58.08.09 0 .16 0 .22-.03.31-.07.68-.2 1.11-.38.43-.18.75-.33.95-.45.2-.12.63-.38 1.27-.79.81-.52 1.35-.87 1.61-1.04.12-.79.2-1.4.23-1.84.04-.44.09-1.01.16-1.72.07-.7.11-1.54.11-2.52v-.64c0-.74-.2-1.44-.61-2.11-.26-.43-.41-.67-.43-.72-.17-.38-.2-.63-.11-.75.07-.07.2-.11.39-.11.09 0 .26.02.5.07s.72.21 1.43.5c.21.07.52.2.93.39l3.33-.39c.83-.09 1.7-.2 2.59-.3.89-.11 1.4-.17 1.52-.2v-1.11c0-.26-.05-.47-.16-.61s-.22-.31-.34-.5c-.31-.33-.61-.67-.89-1-.36-.41-.5-.67-.43-.79.12-.19.28-.29.48-.3.2-.01.44-.02.72-.02m-2.02 15.77c.91-.09 1.91-.21 3.02-.34 1.11-.13 1.85-.2 2.24-.2.52 0 1.08-.06 1.68-.18.6-.12 1.02-.24 1.29-.38.26-.13.49-.2.68-.2.21 0 .43.05.64.14-.5-.41-1.3-1.12-2.4-2.15-.48-.45-1.18-1.11-2.11-1.97-.72 1.07-1.51 2.07-2.4 3-.88.93-1.76 1.68-2.65 2.25m1.72 2.33c1.19-.31 2.17-.47 2.93-.47.19 0 .48-.01.86-.04.38-.02.66-.04.82-.04.24 0 .45.02.63.05.18.04.3.08.38.13.21.12.32.26.32.43 0 .21-.11.39-.32.52-.21.13-.64.23-1.29.29-.64.06-1.45.14-2.41.25-.97.11-1.54.17-1.73.2l.32 1.57c.24-.02 1.14-.11 2.7-.25 1.56-.14 2.47-.26 2.74-.36.31-.79.52-1.36.64-1.72.29-.83.43-1.4.43-1.68 0-.38-.05-.67-.14-.86-.1-.19-.3-.29-.61-.29-.14 0-.38.02-.72.07l-5.94.89.39 1.29m-13.66-8.83c.5 0 1.05.05 1.65.14.6.1 1.17.32 1.73.68.56.36.88.74.95 1.14.07.41.11.66.11.75 0 .38-.16.62-.47.72a.68.68 0 0 1-.15.02c-.25 0-.61-.13-1.08-.38-.58-.31-1.11-.64-1.59-1-.33-.26-.73-.6-1.18-1-.45-.41-.77-.73-.97-.97.29-.07.62-.11 1-.11m11.1 13.3s.09.01.13.04c.14.07.24.2.29.39.02.12.04.36.04.72 0 .26-.12.78-.36 1.56-.24.77-.48 1.38-.72 1.81-.24.43-.6.87-1.07 1.32-.48.45-.87.68-1.18.68-.41 0-.69-.27-.86-.82 0-.02-.02-.08-.07-.18v-.32c0-.36.06-.75.18-1.18.12-.43.26-.76.43-.98.17-.23.43-.47.79-.73.19-.14.47-.33.82-.57.07-.09.21-.24.41-.45.2-.2.35-.38.45-.52.19-.29.35-.49.48-.63.08-.08.17-.13.25-.13m10.79.79c.33 0 .84.1 1.52.31.68.2 1.25.44 1.7.7 1 .6 1.43 1.31 1.29 2.13-.13.59-.42.88-.87.88-.06 0-.13 0-.2-.02-.24-.05-.7-.3-1.38-.77-.68-.47-1.14-.8-1.38-1.02-.41-.38-.76-.74-1.07-1.07-.45-.5-.67-.82-.64-.97.02-.12.14-.18.36-.18h.68m-7.92-24.35c-.31 0-.57 0-.78.02-.53.03-.98.31-1.27.78-.49.82.23 1.63.53 1.97.27.31.55.63.85.95.1.16.2.3.29.43v.3c-.17.02-.38.05-.64.08-.89.11-1.75.21-2.59.3l-3.05.36c-.3-.14-.55-.24-.75-.31-1.01-.4-1.37-.5-1.58-.54-.32-.06-.53-.09-.7-.09-.46 0-.83.13-1.1.4l-.04.04-.04.05c-.52.65-.15 1.5-.03 1.78.05.1.07.15.49.84.31.51.46 1.03.46 1.59v1.38c-.04-.03-.08-.05-.12-.08-.68-.43-1.39-.71-2.12-.82a12.1 12.1 0 0 0-1.8-.16c-.46 0-.88.05-1.24.14l-1.51.38.97 1.22c.23.28.58.64 1.08 1.09.46.42.88.77 1.23 1.04.54.4 1.12.77 1.74 1.1.56.3 1.01.46 1.4.49-.02.11-.03.23-.05.36-.3.19-.71.45-1.23.79-.62.39-1.04.65-1.24.77-.11.06-.34.18-.82.38-.37.16-.69.27-.95.32-.05 0-.16 0-.36-.05-.32-.07-.55-.1-.73-.1-.42 0-.68.18-.83.32l-.04.04-.03.04c-.52.65-.17 1.47-.03 1.79.21.49.5.96.88 1.39.78.89 1.14 1.17 1.36 1.31.32.21.66.32 1 .32.19 0 .37-.03.54-.1.11-.04.21-.08.31-.14-.15.31-.31.63-.48.96-.36.67-.77 1.37-1.21 2.07-.34.5-.62.91-.81 1.2-.87 1.3-1.3 2.01-.79 2.69l.53.71.77-.45c.44-.26.88-.5 1.32-.73l.07-.04.07-.05c.82-.62 1.55-1.25 2.18-1.88.79-.79 1.59-1.9 2.45-3.39.4-.7.73-1.35.98-1.92.26-.6.49-1.28.68-2.03 0-.02 0-.03.01-.05.63 0 1.33-.13 2.07-.37.15-.06.43-.17.85-.33a15.707 15.707 0 0 1 .54 1.31c.18.67.45 1.34.78 1.96.35.65.74 1.19 1.18 1.61.54.52 1.22.8 1.95.8h.27s.01.02.02.03v3.26h-.04c-.35 0-.81-.01-1.37-.04-.61-.03-.94-.04-.99-.04h-.13l-.13.04c-.1.03-.26.07-.43.15.12-.31.24-.66.36-1.05.35-1.15.4-1.58.4-1.85 0-.56-.03-.78-.05-.91v-.03l-.01-.03c-.12-.46-.39-.82-.78-1.03-.19-.1-.4-.16-.61-.16-.24 0-.61.07-.96.42-.18.18-.38.43-.61.78-.03.05-.12.16-.32.37-.16.16-.29.29-.38.41-.32.21-.57.39-.74.52-.43.32-.76.63-.99.94-.24.33-.43.76-.59 1.31-.14.51-.22 1-.22 1.45v.56l.11.21v.02c.43 1.38 1.42 1.53 1.82 1.53.59 0 1.18-.3 1.87-.95.42-.4.77-.8 1.04-1.2.14.49.6.74.79.85.65.35 1.18.67 1.59.95.05.04.35.27.87.69.08.25.16.48.25.68.16.38.54.88 1.41 1.1.21.05.39.07.57.07.69 0 1.3-.33 1.73-.92.4-.56.68-1.27.85-2.19.08-.37.13-.91.16-1.63.02-.68.04-1.05.04-1.13v-2.35c.04-.13.08-.24.1-.34.12-.4.1-.8-.06-1.16l.21-.03c.12.02.26.05.43.08.09.02.18.03.26.04-.25.19-.4.46-.44.71-.1.61.25 1.13.88 1.83.33.36.71.74 1.13 1.13.29.26.76.61 1.5 1.12 1.04.71 1.45.87 1.74.92.16.03.28.04.4.04.93 0 1.63-.63 1.85-1.68.16-.9-.02-2.16-1.75-3.19-.53-.31-1.17-.58-1.92-.8-.79-.24-1.37-.35-1.81-.35h-.17c.52-.28 1.01-.75 1.49-1.43.33-.43.58-.76.75-.95.21-.23.44-.41.67-.52l.07-.03.06-.04c.33-.23.53-.49.64-.73.06.02.11.04.16.05h.03l.03.02c.51.1 1.04.17 1.57.21.51.04 1.09.06 1.74.06.48 0 .84-.07 1.13-.21.48-.24.77-.68.77-1.18 0-.64-.46-1.08-.62-1.23-.27-.25-.54-.45-.83-.61h-.03l-.03-.03c-1.36-.66-2.39-1.18-3.06-1.55-.4-.22-.78-.44-1.13-.66l.51-.25h.03l.03-.03c.75-.42.83-1.05.83-1.3 0-.47-.22-.92-.69-1.39-.13-.13-.31-.29-.57-.5.31-.34.36-.73.36-.94 0-.46-.21-.9-.63-1.35-.36-.38-.78-.64-1.25-.79-.41-.12-.87-.19-1.37-.19-.54 0-1.14.09-1.79.27-.57.16-.98.27-1.22.35-.11.04-.22.07-.31.1.02-.23.01-.45-.03-.66a2.83 2.83 0 0 0-.13-.42c.47-.03.96-.06 1.46-.1l5.52.21c1.96 0 2.2-1.09 2.22-1.51.04-.55-.26-1.07-.91-1.55-.42-.31-.83-.55-1.23-.71-.35-.14-.76-.29-1.21-.42-.55-.17-.92-.24-1.22-.24-.2 0-.51.03-1.45.28-.59.16-1.1.26-1.52.31-.46.06-.95.12-1.45.18-.06 0-.13.01-.2.02.03-.1.06-.21.1-.31.21-.72.02-1.4-.52-1.94l-.04-.04-.04-.03c-.25-.2-.42-.34-.52-.41-.22-.17-.62-.41-1.82-.77-.89-.27-1.58-.4-2.11-.4Zm-4.74 8.16c.59-.03 1.18-.07 1.79-.14.81-.09 1.62-.19 2.42-.3.11.22.16.48.16.79 0 .33-.07.7-.22 1.1-.21.04-.46.06-.73.09-.51.05-.98.07-1.38.07h-1.07c-.61 0-1 .12-1.26.3l.03-.23c.04-.23.09-.52.15-.84.06-.33.1-.61.1-.84Zm5.9 7.25c.06-.07.13-.13.19-.2.65-.69 1.26-1.42 1.83-2.18.52.49.94.88 1.26 1.18.29.27.56.52.81.75-.14.04-.31.08-.53.12-.53.11-1.03.16-1.49.16-.39 0-1.06.05-2.08.17Zm-7.01.24c.08-.34.14-.63.18-.85v-.03c.17.15.35.29.54.44-.28.17-.52.31-.73.44Z"/><path class="cls-4" d="M144.86 75.65c-1.08 0-2.14-.11-3.15-.33-1-.22-1.92-.49-2.75-.81-1.53-.6-2.84-1.52-3.92-2.75-.71-.81-1.43-1.9-2.14-3.24-.05-.11-.12-.26-.21-.46-.11-.26-.17-.47-.17-.67 0-.1.01-.18.04-.26-.23-.04-.45-.14-.65-.32-.24-.21-.42-.51-.55-.91-.18-.57-.27-1.02-.27-1.36v-.76c.08-.3.13-.55.17-.74.04-.2.07-.42.1-.68.02-.16.05-.76.05-2.69 0-.39-.03-.69-.08-.9-.01-.06-.03-.11-.05-.17l-.71.25c-.59.17-.84.2-.98.21-.41 2.67-.99 5.1-1.72 7.24-.95 2.75-2.15 4.92-3.58 6.45-.32.35-.59.61-.8.78-.3.24-.52.35-.75.35h-.55l.13-1.41.03-.07c.12-.29.27-.62.44-.98.58-1.19 1.16-2.83 1.72-4.88.29-1.07.58-2.27.87-3.57l-.1.1c-.36.38-.79.87-1.29 1.46-.11.23-.21.4-.28.52-.28.52-.68.64-.96.64-.2 0-.42-.06-.7-.19-.27-.12-.57-.38-.96-.79-.36-.39-.69-.86-.97-1.4-.12-.23-.16-.4-.16-.55 0-.11.04-.64.82-.64.08 0 .17 0 .27.01.14.01.26.02.38.02.14 0 .27 0 .39-.03.06-.02.51-.25 2.52-1.83.68-.52 1.3-1.03 1.85-1.52.08-.5.15-.99.19-1.49-.16.07-.34.11-.55.11-.34 0-.76-.12-1.34-.36-.79-.36-1.35-.61-1.68-.75-.56-.27-1.22-.69-2.04-1.31a3.45 3.45 0 0 1-.32-.21c-.1-.08-.45-.32-.45-.72 0-.79 1.1-.79 1.57-.79.85.07 1.67.13 2.5.18 1.06.17 1.84.61 2.34 1.32.03.03.05.07.08.1.01-.76.02-1.67.02-2.7 0-.49-.09-1-.26-1.51-.17-.5-.39-.91-.66-1.21-.3-.47-.41-.75-.41-.97 0-.2.08-.86 1.15-.86.22 0 .48.03.77.08.3.06.74.18 1.36.4.55.19 1.03.37 1.43.55l6.63-.82v-.38c0-.34-.07-.68-.22-1.02-.13-.32-.34-.57-.63-.76-.33-.23-.77-.58-.77-1.08 0-.14.05-.61.69-.79.23-.06.46-.12.71-.17h.12c1 0 1.78.12 2.4.34.39.13.85.38 1.37.74.46.3.71.74.71 1.27 0 .31-.07.62-.22.93-.07.14-.13.28-.18.41.49-.04 1.1-.12 1.82-.24 1.09-.18 1.79-.29 2.1-.33.28-.03.58-.09.88-.18 1.31-.39 1.68-.45 1.85-.45.65 0 1.22.08 1.69.24.49.16.97.44 1.42.84.15.09.39.36.39.91 0 .27-.1.66-.58.95-.31.19-.78.29-1.43.29h-.5c-1.52 0-3.14.05-4.82.14-1.2.07-2.47.13-3.81.2.46.39.69.81.69 1.25v.16c1.16.93 2.61 1.75 4.31 2.43 1.94.66 3.92 1.33 5.91 1.99.33.17.55.34.75.52.27.25.41.53.41.81 0 .52-.43.85-1.28.99-.16.03-.36.05-.61.06-.24.01-.43.02-.58.02h-1.17l.09.15c.08.1.14.22.17.37.03.09.05.18.05.27 0 .25-.11.6-.63.9-.24.14-.3.2-.31.2-.38.52-.76 1-1.13 1.39-.24.26-.48.49-.72.69.31.43.62.86.93 1.28.67 1.06.99 2.02.99 2.87 0 .25-.05.5-.16.72.24-.04.48-.04.63-.04h1.39c.5 0 .91.04 1.24.12.38.09.76.3 1.16.64.38.33.64.61.81.88.19.31.29.61.29.89s-.14.96-1.39.96c-.33 0-.71-.05-1.15-.16-.43-.1-.93-.28-1.49-.53-.56-.25-1.09-.57-1.59-.95-.06-.02-.22-.14-.42-.32-.16-.15-.37-.37-.39-.67-.2.08-.42.12-.65.12-.68 0-1.13-.38-1.21-1.01-.14-1.35-.3-2.27-.47-2.75-.16-.44-.36-.76-.57-.96-.4-.35-.6-.74-.6-1.15 0-.23.04-.44.11-.62.05-.12.14-.3.48-.73.2-.26.4-.6.6-1.01 0 0 0-.02.01-.02-.04.03-.08.05-.1.07-.23.14-.28.2-.28.21-.36.54-.75 1.03-1.17 1.48-.21.23-.44.44-.67.64.31.41.63.83.95 1.24.74 1.09 1.04 2.01.92 2.84-.09.57-.29 1-.59 1.3-.32.32-.69.49-1.09.49-.66 0-1.07-.41-1.07-1.07-.09-.93-.24-1.75-.44-2.38-.16-.49-.38-.89-.67-1.17v1.87c0 .5-.03.93-.1 1.27-.06.32-.18.63-.36.92.15.02.32.06.51.12.55.2 1.07.41 1.58.62.4.17.59.24.67.27.07-.02.18-.04.33-.08.33-.08.57-.12.76-.12.25 0 .46.07.6.21l.04.04.03.04c.1.16.19.43 0 .82-.3.52-.32.67-.32.69-.01.17-.02.32-.02.45 0 .33-.07.65-.21.95-.19.4-.56.63-1.04.63-.26 0-.52-.05-.78-.16-.25-.1-.53-.29-.86-.56-.5-.4-.86-.74-1.1-1.03l-.81-1.13-.15-.23c-.17-.27-.25-.5-.26-.73-.08.01-.15.02-.22.02-.41 0-.98-.19-1.38-1.08-.01-.03-.09-.17-.48-.37-.43-.21-.74-.42-.95-.63-.27-.26-.4-.52-.4-.78 0-.08.02-.34.24-.54-.13-.09-.26-.21-.37-.34-.21-.23-.38-.46-.51-.68v.58c0 .29 0 .58-.02.85-.01.3-.08.68-.19 1.15-.07.28-.2.51-.37.69.13.05.27.13.42.23.54.28.94.52 1.18.71.43.32.75.68.96 1.05.43 1.02.81 1.72 1.16 2.13.51.59 1.31 1.07 2.38 1.42.29.11.69.2 1.2.27.52.07 1.1.1 1.72.1.96 0 1.81-.07 2.51-.22.46-.1.66-.19.74-.23-.02-.18-.1-.42-.24-.66-.2-.36-.39-.7-.57-1.02-.24-.42-.33-.69-.33-.9v-.39l.38-.1c.1-.03.22-.05.35-.08l.18-.04s.56.3.6.33c.17.1.46.31 1.51 1.26.5.44.96.72 1.34.82.53.14.94.31 1.23.53.46.35.56.73.56.99 0 .31-.11.59-.31.84-.16.19-.37.37-.62.54-.73.44-1.56.77-2.47.98-.9.21-1.81.32-2.71.32Zm-8.6-13.54c.09.06.18.13.27.2v-.23c-.09.02-.18.03-.27.04Zm-1.99-.66c.08-.02.17-.04.26-.04.06 0 .13 0 .2.02-.16-.17-.31-.37-.46-.61v.63Zm5.58-1.2c.16-.19.33-.47.5-.82.19-.41.29-.78.29-1.1s-.02-.04-.11-.11c-.13-.09-.53-.38-.53-.82 0-.17.06-.48.44-.74.23-.15.47-.23.71-.23.06-.01.2-.02.34-.02.47 0 .96.11 1.46.33.29.13.55.28.77.46.05-.18.17-.35.36-.5.06-.05.13-.1.2-.13-.29-.2-.56-.4-.81-.62-.3-.22-.58-.43-.85-.63-.07.25-.26.55-.78.69-.31.08-.71.17-1.2.27-1.21.21-2.04.36-2.48.45l1.61.99c.31.18.49.48.49.85 0 .24-.08.52-.24.9-.08.17-.13.29-.16.36v.41ZM136 59.2c.19.07.37.16.53.29 0-.16 0-.29-.02-.42a1.14 1.14 0 0 0-.25-.02h-.31l-.25.06c.11.03.21.07.3.1Zm-2.6-1.4 2.06-.56c.09-.03.3-.15.6-.44a8.66 8.66 0 0 1-.97-.3c-.3.21-.6.41-.92.61-.18.11-.52.29-1.03.55.08.04.16.09.25.14Zm-2.77-7.23c0 .22-.03.46-.09.72-.42 1.8-.45 2.16-.45 2.22 0 1.05-.08 2.26-.23 3.62 1.15-.74 2.35-1.74 3.56-2.97.64-.65 1.19-1.27 1.65-1.85-.19.05-.37.1-.53.15-.38.12-.76.19-1.12.19-.39 0-.82-.12-1.27-.36-.39-.21-.69-.37-.9-.49-.13-.08-.55-.32-.55-.75 0-.23.1-.41.3-.52-.12.02-.24.04-.36.05Zm8.32 2.22c-.46.53-.76.88-.93 1.04l-.97.98c.13 0 .25-.01.35-.02.14-.01.41-.06.9-.22.41-.13.72-.25.94-.36.43-.21.84-.35 1.23-.42-.02-.01-.04-.03-.06-.04-.53-.37-1.01-.69-1.45-.96Zm-4.83-2.43c.39-.07.74-.12.99-.14.28 0 .47-.02.61-.05.14-.03.35-.09.62-.17l.13-.21c-.61.07-1.57.18-3.04.38l-1.35.18h2.04Zm-5.22 24.89c-.74 0-1.24-.4-1.37-1.09-.09-.5-.13-.83-.13-1.04v-.38c0-.5.09-.94.27-1.3.1-.19.27-.41.52-.67.46-.46.79-.82.98-1.06.18-.23.37-.56.57-.98.25-.55.56-1.07 1.06-1.07.22 0 .61.1.74.8.05.3.08.55.08.73 0 1.36-.09 2.46-.26 3.27-.19.87-.62 1.64-1.28 2.3-.39.32-.77.47-1.18.47Z"/><path class="cls-3" d="M136.42 44.08c.91 0 1.66.11 2.25.32.36.12.77.35 1.25.68.33.21.5.5.5.86 0 .24-.06.48-.17.72-.11.24-.21.47-.3.68v.47c.57 0 1.39-.09 2.47-.27s1.76-.29 2.07-.32c.31-.04.63-.1.97-.2.95-.29 1.53-.43 1.72-.43.6 0 1.11.07 1.54.21.43.14.85.39 1.25.74.14.09.21.27.21.53 0 .21-.11.39-.34.53-.23.14-.61.21-1.16.21h-.5c-1.53 0-3.14.05-4.85.14-1.7.1-3.55.19-5.53.29.57.22 1.04.48 1.4.78.36.3.53.6.53.89v.4c1.23 1.03 2.77 1.92 4.62 2.66 1.97.67 3.94 1.34 5.94 2 .21.12.4.26.57.41.17.16.25.3.25.45 0 .24-.29.41-.86.5-.14.02-.33.04-.55.05-.23.01-.41.02-.55.02h-.91c-.3 0-.6-.01-.91-.04-.43 0-.95-.15-1.57-.47-.76-.38-1.42-.81-1.97-1.29-1.36-1-2.39-1.75-3.09-2.24-.7-.49-1.32-.89-1.84-1.2-.6.7-.99 1.15-1.18 1.34-.6.6-1.2 1.22-1.82 1.84h.72c.36 0 .66-.01.89-.03.24-.02.57-.1 1-.24.43-.14.76-.27 1-.38.48-.23.92-.37 1.32-.42.07 0 .13-.01.2-.01.26 0 .5.08.73.23.29.19.43.39.43.6 0 .23-.15.39-.45.47-.3.08-.69.17-1.16.26-1.34.23-2.21.39-2.61.47-.41.08-.75.12-1.04.12-.48 0-1.1-.15-1.86-.47-.36.26-.73.51-1.11.75-.24.14-.83.45-1.79.93.26.19.67.43 1.22.72l2.25-.61c.26-.1.55-.3.86-.61.14-.12.35-.18.61-.18.21 0 .47.06.75.18l1.68 1.04c.17.1.25.24.25.43 0 .17-.07.4-.2.7-.13.3-.2.46-.2.48v5.15c0 .48-.03.87-.09 1.18-.06.31-.19.61-.39.89-.2.29-.45.43-.73.43-.38 0-.69-.26-.93-.79-.1-.21-.33-.42-.72-.61-.38-.19-.66-.37-.82-.54-.17-.17-.25-.31-.25-.43 0-.18.17-.28.5-.28h.34c.36 0 .57-.11.64-.33.08-.25.13-.58.13-.98v-3.9c.02-.24.01-.47-.04-.7-.05-.23-.29-.34-.72-.34h-.36l-2.13.47v5.07c0 .29 0 .56-.02.83-.01.26-.07.62-.18 1.06-.11.44-.39.66-.84.66-.17 0-.33-.07-.5-.21-.17-.14-.3-.37-.39-.68-.17-.52-.25-.93-.25-1.22v-.64c.07-.31.13-.57.16-.77.04-.2.07-.43.11-.7.04-.26.05-1.18.05-2.75 0-.43-.03-.77-.09-1.02s-.16-.47-.3-.66l-1.11.39c-.43.12-.72.18-.86.18-.19 0-.27-.08-.23-.25.04-.17.27-.39.7-.68 1.22-.76 2.47-1.8 3.76-3.11 1.07-1.1 1.9-2.09 2.47-2.97l-.68.14c-.45.1-.85.2-1.18.3-.33.11-.66.16-.97.16s-.66-.1-1.04-.3c-.38-.2-.67-.36-.88-.48-.2-.12-.3-.23-.3-.32 0-.12.2-.18.61-.18h2.32c.45-.07.8-.12 1.04-.14.26 0 .48-.02.66-.06.18-.04.46-.12.84-.24l.79-1.21c-.43 0-1.79.16-4.08.47-.74.1-1.84.25-3.29.47.07.26.06.61-.04 1.04-.31 1.34-.47 2.11-.47 2.33 0 1.48-.16 3.26-.47 5.34-.41 2.7-.98 5.12-1.72 7.27-.93 2.7-2.09 4.79-3.47 6.27-.31.33-.56.58-.75.74-.19.15-.33.23-.43.23.02-.26.05-.52.07-.78.12-.29.26-.61.43-.96.6-1.21 1.18-2.86 1.75-4.96.41-1.47.8-3.16 1.18-5.06-.33.24-.75.61-1.25 1.11-.38.41-.84.92-1.36 1.54-.12.24-.21.42-.29.54-.14.26-.32.39-.54.39-.12 0-.28-.05-.48-.14-.2-.1-.47-.32-.8-.68-.33-.36-.63-.79-.89-1.29-.07-.14-.11-.25-.11-.32 0-.09.11-.14.32-.14.06 0 .14 0 .22.01.15.02.3.02.43.02.18 0 .34-.01.48-.04.25-.05 1.16-.69 2.74-1.93.74-.57 1.41-1.12 2-1.65.17-.96.27-1.92.3-2.89.04-.97.05-2.3.05-4 0-.55-.1-1.11-.29-1.67-.19-.56-.44-1.02-.75-1.38-.19-.31-.29-.53-.29-.65 0-.24.21-.36.65-.36.19 0 .42.02.68.07.26.05.69.17 1.29.38.6.2 1.1.4 1.51.59l7.21-.9v-.82c0-.41-.09-.81-.26-1.22-.17-.41-.44-.73-.8-.98-.37-.25-.55-.47-.55-.66 0-.14.11-.24.32-.3.21-.06.44-.11.68-.16m-14.84 9.66c.81.07 1.63.13 2.47.18.88.14 1.54.51 1.97 1.11.31.41.47.81.47 1.22 0 .43-.21.64-.64.64-.26 0-.64-.11-1.14-.32-.79-.36-1.35-.61-1.68-.75-.5-.24-1.14-.66-1.93-1.25-.12-.07-.23-.14-.32-.21-.17-.12-.25-.23-.25-.32 0-.19.36-.29 1.07-.29m19.9 3.19c.4 0 .82.1 1.25.29.56.25.97.6 1.23 1.05.07.14.11.26.11.36 0 .14-.13.29-.38.45s-.4.28-.45.37c-.33.5-.7.96-1.11 1.39a7 7 0 0 1-1 .89c.41.55.82 1.09 1.25 1.64.64.95.92 1.77.82 2.46-.07.45-.22.79-.45 1.02-.23.23-.47.34-.73.34-.38 0-.57-.19-.57-.57-.1-1.02-.25-1.87-.47-2.53-.21-.66-.54-1.18-.97-1.53-.26-.24-.39-.5-.39-.78 0-.19.07-.39.2-.59.13-.2.22-.35.27-.45.24-.24.47-.59.7-1.07.23-.48.34-.92.34-1.32 0-.19-.11-.36-.32-.52-.21-.15-.32-.29-.32-.41s.07-.23.21-.32c.14-.09.29-.14.43-.14.11-.02.22-.02.34-.02m3.38.02c.52 0 1.06.11 1.61.32.55.21.94.56 1.18 1.04.05.05.08.12.11.21.02.07.04.12.04.14 0 .17-.12.32-.38.47-.25.14-.4.25-.45.32-.38.52-.75.98-1.11 1.36-.36.38-.7.69-1.04.93.41.57.81 1.13 1.22 1.68.6.95.89 1.81.89 2.57 0 .26-.08.5-.25.72-.26.31-.58.47-.97.47-.43 0-.67-.19-.72-.57-.14-1.38-.31-2.34-.5-2.86s-.43-.91-.72-1.16c-.29-.25-.43-.51-.43-.77 0-.17.02-.31.07-.43s.18-.32.41-.61c.23-.29.45-.66.66-1.11.21-.45.32-.88.32-1.29a.431.431 0 0 0-.11-.36c-.05-.05-.15-.13-.3-.25-.16-.12-.23-.24-.23-.36 0-.1.07-.2.2-.3.13-.11.29-.16.48-.16m-10.4 2.35c.09 0 .23.03.41.08.4.12.72.22.97.3s.46.24.64.47c.17.23.26.52.26.88 0 .39-.17.59-.5.59-.05 0-.11 0-.17-.01-.4-.09-.7-.24-.92-.45-.21-.2-.42-.49-.62-.88-.05-.12-.09-.2-.11-.25-.1-.24-.15-.42-.15-.54 0-.1.04-.15.11-.18h.07m.08 2.62c.1 0 .22.04.37.11.27.12.55.24.84.38.29.13.52.32.71.55.19.24.28.54.28.89 0 .21-.05.37-.15.47-.08.07-.17.11-.29.11-.07 0-.15-.01-.23-.04-.35-.07-.65-.25-.92-.54-.26-.29-.45-.56-.56-.82l-.21-.5c-.07-.17-.11-.3-.11-.39 0-.14.09-.21.26-.21m14.76 5.26c.45 0 .83.04 1.13.11.3.07.61.25.95.54.33.29.57.54.72.77.14.23.21.44.21.63 0 .31-.3.47-.89.47-.29 0-.63-.05-1.04-.14-.41-.09-.87-.26-1.4-.5-.52-.24-1.03-.54-1.5-.89-.1-.05-.22-.14-.38-.29-.16-.14-.23-.26-.23-.36 0-.21.35-.32 1.04-.32h1.39m-16.06 0c.14 0 .35.08.61.25.55.29.93.51 1.14.68.38.29.66.58.82.89.43 1.03.83 1.76 1.22 2.22.57.67 1.44 1.19 2.61 1.57.31.12.74.21 1.29.29.55.07 1.14.11 1.79.11 1 0 1.87-.08 2.61-.23.74-.16 1.12-.35 1.14-.59 0-.33-.1-.68-.3-1.04-.2-.36-.39-.7-.57-1.02-.18-.32-.27-.54-.27-.66.1-.02.2-.05.32-.07.26.14.42.23.47.25.17.1.63.49 1.39 1.18.57.5 1.09.81 1.56.93s.82.27 1.05.45.36.38.36.59c0 .19-.07.36-.2.52-.13.15-.3.3-.52.45-.67.41-1.44.71-2.31.91-.87.2-1.73.3-2.59.3-1.05 0-2.06-.11-3.04-.32-.98-.21-1.87-.48-2.68-.79a9.536 9.536 0 0 1-3.72-2.61c-.69-.79-1.38-1.84-2.07-3.15-.05-.09-.11-.24-.2-.43-.08-.19-.13-.35-.13-.46 0-.14.07-.21.21-.21m5.97.43c.14 0 .32.04.54.11.52.19 1.04.39 1.54.61.5.21.79.32.86.32.02 0 .18-.04.47-.11s.5-.11.64-.11c.12 0 .2.02.25.07.05.07.04.18-.04.32-.24.41-.36.7-.38.88-.01.18-.02.34-.02.48 0 .26-.05.51-.16.73-.11.23-.3.34-.59.34-.19 0-.39-.04-.59-.13-.2-.08-.45-.24-.73-.48-.48-.38-.82-.7-1.04-.97-.29-.41-.55-.77-.79-1.11-.05-.07-.1-.14-.14-.21-.12-.19-.18-.36-.18-.5 0-.17.12-.25.36-.25m-8.4.57c.12 0 .2.13.25.39.05.26.07.48.07.64 0 1.34-.08 2.39-.25 3.17-.17.77-.55 1.46-1.14 2.06-.26.21-.54.32-.82.32-.5 0-.79-.23-.88-.68-.08-.45-.13-.77-.13-.95v-.38c0-.43.07-.79.21-1.07.07-.14.21-.32.43-.54.48-.48.82-.85 1.02-1.11.2-.26.41-.62.63-1.07.24-.52.44-.79.61-.79m5.61-25.11h-.1l-.1.02c-.26.05-.51.11-.75.18-.78.22-1.06.8-1.06 1.27 0 .81.74 1.32.98 1.49.21.14.35.32.45.55.11.26.17.52.18.77l-6.06.75c-.38-.17-.82-.34-1.34-.51-.65-.22-1.12-.36-1.43-.41-.33-.06-.61-.09-.86-.09-1.21 0-1.65.73-1.65 1.36 0 .33.13.67.43 1.17l.04.07.05.06c.22.26.41.61.56 1.05.15.46.23.91.23 1.35v1.49c-.49-.35-1.1-.58-1.8-.7h-.05l-.05-.01c-.81-.05-1.63-.11-2.44-.18h-.08c-1.38 0-2.07.43-2.07 1.29 0 .44.23.82.67 1.14.09.07.21.15.34.23.83.63 1.51 1.06 2.06 1.33.37.16.92.4 1.7.76.65.28 1.14.41 1.54.41l-.09.62c-.51.44-1.08.9-1.69 1.38-1.69 1.33-2.23 1.67-2.38 1.75-.07 0-.14.01-.22.01-.1 0-.21 0-.33-.02-.12-.01-.23-.02-.32-.02-1.04 0-1.32.74-1.32 1.14 0 .24.07.48.21.77.31.59.66 1.1 1.06 1.52.43.46.78.75 1.11.9.35.16.63.24.91.24.34 0 .98-.12 1.41-.92.05-.08.14-.24.25-.46.02-.02.04-.04.06-.07-.14.58-.28 1.14-.43 1.66-.55 2.02-1.12 3.63-1.69 4.78-.18.39-.33.72-.45 1.02l-.06.14v.15l-.09.79-.1 1.09h1.09c.44 0 .8-.24 1.06-.46.23-.19.51-.46.86-.83 1.47-1.58 2.71-3.8 3.68-6.62.71-2.06 1.28-4.4 1.68-6.95.16-.03.37-.08.64-.16h.03l.03-.02.16-.06c0 .11.01.24.01.4 0 2.13-.03 2.54-.04 2.62-.03.25-.07.47-.1.66a9.5 9.5 0 0 1-.15.72l-.03.11v.76c0 .39.1.89.3 1.52.15.48.38.87.7 1.14.15.13.3.22.44.29.01.24.08.5.21.78.09.21.17.37.22.48.73 1.39 1.48 2.52 2.22 3.36 1.13 1.28 2.51 2.25 4.1 2.88.86.33 1.81.61 2.83.83 1.04.23 2.14.34 3.25.34.93 0 1.88-.11 2.82-.33.97-.23 1.84-.57 2.6-1.03.33-.22.57-.43.76-.66.28-.34.43-.74.43-1.17 0-.37-.13-.92-.76-1.39-.35-.26-.81-.46-1.41-.62-.21-.05-.59-.22-1.15-.71-1.12-1.01-1.39-1.2-1.56-1.3l-.03-.02h-.03s-.19-.12-.42-.24l-.32-.17-.36.07c-.14.03-.26.05-.37.08l-.57.14c.07-.4-.07-.7-.18-.87l-.06-.09-.07-.07c-.13-.13-.34-.27-.65-.33.19-.21.34-.46.45-.75.11.9.78 1.47 1.71 1.47.11 0 .22 0 .33-.02.13.22.29.37.37.44.19.18.36.3.51.39.52.38 1.06.7 1.63.96.59.27 1.11.45 1.58.56.48.11.9.17 1.26.17 1.8 0 1.89-1.22 1.89-1.47 0-.38-.12-.77-.37-1.16-.2-.31-.5-.64-.91-.99-.46-.39-.91-.64-1.36-.75-.38-.09-.83-.13-1.36-.13h-1.37v-.18c0-.95-.35-1.99-1.05-3.1l-.02-.03-.02-.03-.67-.91c.14-.13.28-.27.41-.42.37-.39.75-.86 1.14-1.38.03-.02.09-.06.19-.11.76-.44.88-1.02.88-1.33 0-.1-.01-.19-.04-.29h.4c.16 0 .36 0 .61-.02.26-.01.48-.04.66-.07 1.48-.25 1.7-1.04 1.7-1.49 0-.29-.1-.74-.56-1.18-.23-.21-.48-.4-.76-.55l-.08-.05-.09-.03c-1.98-.66-3.95-1.33-5.91-1.99-1.55-.62-2.89-1.36-3.97-2.2-.01-.25-.07-.49-.19-.72.99-.05 1.93-.1 2.84-.15 1.68-.09 3.29-.14 4.79-.14h.5c.75 0 1.29-.11 1.69-.36.52-.33.81-.81.81-1.38 0-.73-.35-1.13-.6-1.31-.49-.42-1.02-.73-1.56-.9-.53-.17-1.15-.26-1.85-.26-.22 0-.55.04-2 .47-.27.08-.54.13-.79.16-.33.04-1.03.15-2.12.33-.34.06-.66.11-.95.14.07-.25.11-.5.11-.75 0-.7-.34-1.3-.96-1.7-.53-.37-1.02-.64-1.48-.79-.69-.25-1.54-.37-2.57-.37Zm-5.96 13.04c.08-.94.13-1.81.13-2.59 0-.04.04-.31.27-1.37.04.03.09.06.13.08.21.12.52.29.92.5.52.28 1.03.42 1.5.42.09 0 .19 0 .28-.01-.2.22-.41.44-.64.67-.88.9-1.75 1.67-2.6 2.29Zm8.15-2.16c.12-.13.27-.3.44-.49.09.06.19.12.28.18-.1.04-.21.09-.31.14-.11.05-.25.11-.41.17Zm4.07 2.17.06-.06c.07.05.15.11.23.17-.1-.04-.19-.07-.29-.11Zm-3.16.88h.04v.03l-.03-.02Zm.58 9.77c.06-.16.1-.32.14-.49.04-.2.07-.43.09-.68.05.32.1.67.13 1.05 0 .09.01.18.02.26-.13-.05-.25-.09-.38-.14Zm-5.69-.18c.05-.12.1-.25.13-.39s.07-.28.09-.41c.08.14.19.27.32.4.24.24.6.48 1.08.72.17.08.24.14.27.17.48 1.01 1.17 1.27 1.64 1.32.05.16.13.31.23.47l.08.13.08.11c.25.36.52.73.8 1.13l.02.03.02.03c.26.32.65.69 1.19 1.11.35.29.68.5.98.63.08.03.17.06.25.09a4.87 4.87 0 0 1-.55-.06c-.58-.08-.9-.17-1.06-.23h-.02l-.02-.02c-.99-.32-1.71-.75-2.16-1.27-.21-.25-.57-.8-1.05-1.95l-.02-.05-.02-.04c-.24-.44-.61-.85-1.1-1.22-.24-.19-.63-.42-1.17-.71Zm9.67 3.21s.07-.19.24-.47v.31c0 .31.11.64.39 1.15.18.32.37.67.58 1.03.02.03.04.07.05.1-.07.02-.14.03-.23.05-.64.13-1.41.21-2.29.21.44-.13.78-.42.99-.84.17-.36.26-.75.26-1.16 0-.11 0-.24.01-.37Zm-13.28-2.63c-.9 0-1.33.96-1.52 1.37-.18.37-.35.67-.51.88-.17.23-.49.57-.93 1.01-.3.3-.49.55-.62.8-.21.42-.32.94-.32 1.52v.38c0 .25.04.6.14 1.13.17.92.88 1.5 1.86 1.5.52 0 1.01-.18 1.46-.55l.04-.03.04-.04c.73-.73 1.21-1.59 1.41-2.55.18-.85.27-1.96.27-3.38 0-.23-.03-.5-.09-.82-.21-1.13-1-1.21-1.23-1.21Z"/><path class="cls-7" d="m246.56 86.86-38.09-2.12c-4.47-.25-8.16-4.61-8.25-9.74l-1.07-64.04c-.07-4.36 2.48-7.86 5.98-8.67l-19.17 4.42c-3.51.81-6.06 4.32-5.98 8.67l1.07 64.04c.09 5.13 3.78 9.49 8.25 9.74l38.09 2.12c.67.04 1.33-.02 1.95-.16l19.17-4.42c-.62.14-1.28.2-1.95.16Z"/><path class="cls-6" d="M245.18 4.24c4.47.25 8.16 4.61 8.25 9.74l1.07 64.04c.09 5.13-3.47 9.09-7.94 8.84l-38.09-2.12c-4.47-.25-8.16-4.61-8.25-9.74l-1.07-64.04c-.09-5.13 3.47-9.09 7.94-8.84l38.09 2.12Z"/><path class="cls-6" d="m246.53 86.93-38.09-2.12c-4.47-.25-8.16-4.61-8.23-9.74L199.28 11c-.03-2.19.6-4.17 1.68-5.69 1.08-1.53 2.61-2.6 4.38-3l-9.59 2.13c-3.54.79-6.12 4.31-6.06 8.69l.93 64.07c.07 5.13 3.76 9.49 8.23 9.74l38.09 2.12c.66.04 1.29-.02 1.9-.15l9.59-2.13c-.61.13-1.24.19-1.9.15Z"/><path class="cls-6" d="M245.33 4.27c4.47.25 8.15 4.61 8.23 9.74l.93 64.07c.07 5.13-3.49 9.09-7.96 8.84l-38.09-2.12c-4.47-.25-8.16-4.61-8.23-9.74l-.93-64.07c-.07-5.13 3.49-9.09 7.96-8.84l38.09 2.12Z"/><path class="cls-7" d="M242.01 32.99c0 6.35-4.58 10.45-13.74 12.29v11.74h-3.11V43.28c2.35-.41 3.89-1.73 4.63-3.93.37-1.24.55-3.41.55-6.49 0-6.9-2.09-10.36-6.28-10.36-1.38 0-2.53.32-3.45.97-.82.58-1.67 1.69-1.63 2.74.02.58.28.96.77 1.21.6.31 1.04.63 1.55 1.09 1.52 1.38 2.28 2.79 2.28 4.21 0 1.52-.6 2.76-1.79 3.73-1.15.97-2.51 1.45-4.07 1.45-2.16 0-3.84-.76-5.04-2.28-1.06-1.33-1.59-3.11-1.59-5.32 0-3.27 1.77-5.87 5.32-7.8 2.94-1.61 6.19-2.42 9.73-2.42 4.46 0 8.15.99 11.05 2.97 3.22 2.3 4.83 5.62 4.83 9.94Zm-8.42 32.65c0 1.93-.69 3.59-2.07 4.97s-3.01 2.07-4.9 2.07-3.61-.71-5.04-2.14c-1.34-1.38-2-3.01-2-4.9s.67-3.61 2-5.04c1.38-1.38 3.06-2.07 5.04-2.07s3.66.69 5.04 2.07c1.29 1.34 1.93 3.01 1.93 5.04Z"/><path d="m67.08 85.25-38.09-2.12c-4.47-.25-8.16-4.61-8.25-9.74L19.67 9.35c-.07-4.36 2.48-7.86 5.98-8.67L6.49 5.09C2.98 5.9.43 9.41.5 13.77l1.07 64.04c.09 5.13 3.78 9.49 8.25 9.74l38.09 2.12c.67.04 1.33-.02 1.95-.16l19.17-4.42c-.62.14-1.28.2-1.95.16Z" stroke="#231815" stroke-miterlimit="10" fill="#e86546"/><path class="cls-6" d="M65.7 2.63c4.47.25 8.16 4.61 8.25 9.74l1.07 64.04c.09 5.13-3.47 9.09-7.94 8.84l-38.09-2.12c-4.47-.25-8.16-4.61-8.25-9.74L19.67 9.35C19.58 4.22 23.14.26 27.61.51L65.7 2.63Z"/><path class="cls-6" d="m67.05 85.31-38.09-2.12c-4.47-.25-8.16-4.61-8.23-9.74L19.8 9.38c-.03-2.19.6-4.17 1.68-5.69 1.08-1.53 2.61-2.6 4.38-3l-9.59 2.13c-3.54.79-6.12 4.31-6.06 8.69l.93 64.07c.07 5.13 3.76 9.49 8.23 9.74l38.09 2.12c.66.04 1.29-.02 1.9-.15l9.59-2.13c-.61.13-1.24.19-1.9.15Z"/><path class="cls-6" d="M65.85 2.66c4.47.25 8.15 4.61 8.23 9.74l.93 64.07c.07 5.13-3.49 9.09-7.96 8.84l-38.09-2.12c-4.47-.25-8.16-4.61-8.23-9.74L19.8 9.38C19.73 4.25 23.29.29 27.76.54l38.09 2.12Z"/><path class="cls-1" d="M53.99 42.7c-.33 0-.94-.12-1.27-.94-.14-.34-.23-.69-.27-1.03-.13-.02-.32-.05-.58-.07-.49-.05-1.01-.07-1.54-.07-1.57 0-3.25.08-5.01.25-1.58.15-2.74.3-3.48.47-.47.89-.99 1.32-1.59 1.32-.65 0-1.21-.45-1.66-1.35-.39-.78-.59-1.54-.59-2.26 0-.56.1-1.35.29-2.42.18-.99.28-1.74.28-2.23v-5.58c0-.33-.1-.72-.31-1.17-.24-.51-.8-1.73-.8-1.73v-.11c0-.36.24-.71.79-.71s1.07.21 1.58.61c.36.29.7.55 1.03.8l6.81-.73c2.65-.29 3.34-.4 3.51-.43.48-.27.86-.49 1.15-.65.46-.26.67-.31.83-.31.5 0 1.2.34 2.19 1.06 1.07.78 1.53 1.34 1.53 1.87 0 .31-.12.66-.36 1.05-.19.31-.21.41-.21.42v8.69c0 1.42-.09 2.45-.27 3.16-.44 1.73-1.37 2.09-2.06 2.09Zm-12.28-3.74c1.45-.14 2.82-.27 4.12-.37 2.42-.19 4.28-.29 5.55-.29.42 0 .76.01 1.05.03V28.21c0-.56-.2-.75-.76-.75h-.29c-.5 0-1.01.04-1.52.12l-1.64.24-6.52.7v2.01c.73-.02 1.46-.1 2.18-.23.89-.16 1.76-.39 2.58-.69.5-.19 1.01-.38 1.53-.56.56-.2 1.16-.3 1.79-.3.48 0 1 .09 1.55.28.9.3 1.09.79 1.09 1.15s-.22.7-.66 1.04c-.19.12-.31.19-5.01.85-2.51.35-4.15.57-4.97.67l-.07 2.11c.78-.05 1.75-.21 2.89-.47 1.41-.33 2.55-.67 3.36-1.01.22-.12.54-.23.95-.32a5.216 5.216 0 0 1 2.54.08c.62.18.98.63.98 1.23 0 .91-1.25 1.25-2.47 1.46-1.99.25-2.55.33-2.7.36-.7.16-1.26.28-1.65.36-.79.17-1.39.26-1.82.26h-2l-.07 2.16Zm-2.56-13.82c-.6 0-1.42-.27-1.9-1.58-.04-.13-.13-.47-.52-2.14l-1.29-5.8c-.05-.17-.27-.69-.99-1.98-.31-.55-.62-1.11-.93-1.68l-.06-.11v-.13c0-.34.24-.68.79-.68s1.09.15 1.66.45l2.05 1.23c1.28 0 2.81-.13 4.55-.35 1.83-.24 3.58-.48 5.25-.71 1.41-.12 2.59-.23 3.58-.32.97-.09 1.85-.23 2.63-.42.06-.01.23-.05.82-.41.58-.35.96-.5 1.26-.5.36 0 .89.18 2.31 1.49 1.35 1.26 1.63 1.74 1.63 2.12s-.23.79-.72 1.28c-.19.19-.28.3-.33.36-.85 2.81-1.62 4.99-2.29 6.5-.75 1.69-1.68 2.55-2.75 2.55-.52 0-.93-.24-1.15-.67-.17-.33-.25-.72-.25-1.15 0-1 .4-2.59 1.23-4.87.97-2.67 1.17-3.84 1.17-4.35a1.18 1.18 0 0 0-.64-.18c-2.89.26-5.6.52-8.1.78-2.32.24-4.69.5-7.12.76l.69 2.85c.21.91.38 1.77.51 2.58.13-.09.32-.16.59-.19.31-.04.79-.06 1.42-.06h1.36c.71 0 1.78-.21 3.16-.64 1.5-.46 2.55-.68 3.2-.68.55 0 1.14.11 1.75.33.95.35 1.15.93 1.15 1.35.04.72-.7 1.25-4.55 1.71-2.23.26-4.19.4-5.85.4-.35 0-.81-.16-1.43-.49-.2-.11-.42-.24-.61-.4.08.71.12 1.36.12 1.96 0 .46-.08.85-.23 1.15-.12.24-.43.63-1.16.63Zm3.08-6.9c-.37 0-.84-.15-1.43-.45-.45-.23-1.04-.6-1.04-1.2 0-.12.04-.71.93-.71h2.75c.44 0 .9-.05 1.37-.14.5-.1 1-.21 1.52-.33 1.11-.29 2.24-.58 3.39-.88l.06-.02h.06c.5 0 1.07.1 1.7.31.99.33 1.2.91 1.2 1.33.02.12.02.58-.62.87-.28.13-.56.21-.83.24l-4.46.64c-1.71.22-3.26.33-4.61.33Z"/><path class="cls-3" d="M56.07 10.51c.33 0 .99.45 1.97 1.36.98.91 1.47 1.49 1.47 1.75 0 .24-.19.55-.57.93-.21.21-.36.38-.43.5-.86 2.84-1.62 5.01-2.29 6.51-.67 1.5-1.43 2.25-2.29 2.25-.33 0-.57-.13-.7-.39s-.2-.57-.2-.93c0-.93.4-2.5 1.2-4.7.8-2.2 1.2-3.71 1.2-4.52 0-.24-.12-.41-.36-.52-.24-.11-.5-.16-.79-.16-2.93.26-5.65.52-8.15.79-2.5.26-5.07.54-7.69.82.31 1.24.58 2.37.82 3.4.52 2.29.79 4.21.79 5.76 0 .38-.06.69-.18.93-.12.24-.36.36-.72.36-.64 0-1.12-.42-1.43-1.25-.05-.14-.21-.83-.5-2.07l-1.29-5.79c-.1-.33-.44-1.04-1.04-2.11-.31-.55-.62-1.11-.93-1.68 0-.12.09-.18.29-.18.45 0 .93.13 1.43.39.72.43 1.43.86 2.15 1.29 1.33 0 2.92-.12 4.76-.36 1.84-.24 3.59-.48 5.26-.72 1.38-.12 2.57-.23 3.56-.32.99-.1 1.89-.24 2.7-.43.17-.02.49-.18.97-.47s.81-.43 1-.43m-6.22 4.51c.45 0 .97.1 1.54.29.57.19.86.48.86.86.02.17-.08.3-.32.41-.24.11-.47.17-.68.2-2.65.38-4.14.6-4.47.64-1.69.21-3.21.32-4.54.32-.29 0-.69-.13-1.2-.39s-.77-.51-.77-.75c0-.14.14-.21.43-.21h2.75c.48 0 .97-.05 1.47-.15.5-.1 1.01-.21 1.54-.33 1.12-.29 2.25-.59 3.4-.88m.14 3.97c.5 0 1.02.1 1.57.3.55.2.82.5.82.88.02.48-1.35.88-4.11 1.22-2.22.26-4.15.39-5.79.39-.26 0-.66-.14-1.2-.43-.54-.29-.8-.55-.8-.79 0-.09.14-.16.43-.2.29-.04.74-.05 1.36-.05h1.36c.76 0 1.87-.22 3.31-.66 1.44-.44 2.46-.66 3.06-.66m3.18 5.87c.38 0 1.01.32 1.9.97.88.64 1.32 1.13 1.32 1.47 0 .21-.1.48-.29.79-.19.31-.29.52-.29.64v8.73c0 1.36-.09 2.37-.26 3.04-.29 1.14-.82 1.72-1.58 1.72-.37 0-.64-.21-.81-.63s-.26-.83-.26-1.23c-.17-.07-.5-.13-1.01-.18-.51-.05-1.04-.07-1.58-.07-1.59 0-3.27.08-5.05.25-1.78.17-3.04.35-3.77.54-.4.83-.82 1.25-1.25 1.25-.45 0-.85-.36-1.21-1.07-.36-.72-.53-1.4-.53-2.04 0-.52.09-1.3.29-2.32.19-1.02.29-1.8.29-2.32v-5.58c0-.41-.12-.86-.36-1.38-.24-.51-.49-1.06-.75-1.63 0-.14.09-.21.29-.21.43 0 .85.17 1.27.5.42.33.82.64 1.2.93 2.46-.26 4.79-.51 7.01-.75 2.22-.24 3.43-.39 3.65-.47.5-.29.9-.51 1.2-.68.3-.17.49-.25.59-.25m-11.98 6.19c.93 0 1.85-.08 2.77-.25.92-.17 1.81-.41 2.66-.72.5-.19 1.01-.38 1.52-.55.51-.18 1.05-.27 1.63-.27.43 0 .89.08 1.39.25.5.17.75.39.75.68 0 .19-.16.41-.47.64-.12.07-1.71.32-4.77.75-3.06.43-4.86.67-5.38.72l-.11 3.08c.89 0 2.07-.17 3.52-.5 1.45-.33 2.6-.68 3.44-1.04.22-.12.5-.21.85-.29.35-.07.67-.11.96-.11.48 0 .93.06 1.34.18.41.12.62.37.62.75 0 .41-.68.73-2.05.97-1.54.19-2.44.31-2.7.36-.72.17-1.27.29-1.66.36-.77.17-1.34.25-1.73.25h-2.48l-.11 3.22c1.65-.17 3.21-.31 4.68-.43 2.42-.19 4.26-.29 5.51-.29.74 0 1.26.04 1.55.11V28.27c0-.83-.42-1.25-1.26-1.25h-.29c-.53 0-1.06.04-1.6.13-.54.08-1.08.16-1.63.23l-6.96.75v2.97M56.1 9.57c-.4 0-.85.17-1.52.57-.41.24-.58.32-.63.34s-.04.01-.04.01c-.76.18-1.63.32-2.57.41-.99.1-2.17.2-3.55.32h-.06c-1.64.24-3.41.48-5.24.71-1.66.22-3.12.33-4.35.35l-.84-.51-1.06-.64h-.02l-.03-.03c-.64-.34-1.28-.51-1.89-.51-.84 0-1.29.59-1.29 1.18v.25l.12.22c.31.58.63 1.14.94 1.7.72 1.3.9 1.74.94 1.87l.54 2.45.74 3.31c.44 1.92.5 2.08.53 2.17.18.49.41.86.65 1.13-.3.23-.45.59-.45.95v.22l.09.2c.26.57.51 1.12.75 1.63.17.37.26.7.26.95v5.58c0 .46-.09 1.18-.27 2.14-.2 1.09-.3 1.91-.3 2.51 0 .8.21 1.63.64 2.48.54 1.08 1.25 1.63 2.11 1.63.97 0 1.59-.8 1.92-1.38.71-.14 1.79-.28 3.19-.41 1.74-.16 3.41-.25 4.96-.25.52 0 1.02.02 1.49.07.07 0 .14.01.2.02.06.26.14.52.24.78.32.79.96 1.25 1.73 1.25.71 0 1.99-.32 2.55-2.47.19-.76.29-1.83.29-3.29v-8.6s.06-.12.14-.24c.29-.48.44-.91.44-1.31 0-.72-.5-1.37-1.73-2.27-.23-.17-.45-.32-.65-.45.82-.4 1.53-1.27 2.12-2.6.67-1.51 1.44-3.68 2.28-6.47.04-.05.11-.13.23-.24.37-.37.86-.94.86-1.64 0-.54-.28-1.09-1.79-2.49-1.46-1.35-2.11-1.63-2.65-1.63Zm-16.39 5.55c2.23-.24 4.41-.47 6.55-.7 2.46-.26 5.18-.52 8.09-.78h.08c-.07.56-.32 1.68-1.11 3.86-.18.5-.35.98-.49 1.42-.21-.19-.5-.37-.89-.51-.66-.24-1.31-.37-1.92-.37h-.24c.43-.06.91-.13 1.43-.21l.2-.03c.28-.03.61-.12.95-.27.87-.39.93-1.07.91-1.37-.01-.49-.24-1.32-1.54-1.76-.67-.22-1.3-.34-1.86-.34h-.13l-.12.03c-1.15.29-2.28.59-3.4.88-.49.11-.99.22-1.48.32-.44.09-.86.13-1.28.13h-2.75c-.38 0-.67.09-.88.22-.04-.17-.09-.35-.13-.53Zm.96 4.33c-.07-.4-.15-.82-.24-1.25.07.04.12.07.17.09.67.34 1.2.5 1.65.5 1.37 0 2.94-.11 4.67-.33.21-.03.81-.12 1.81-.26-.56.12-1.25.3-2.06.55-1.67.51-2.56.62-3.02.62h-1.36c-.67 0-1.15.02-1.48.06-.05 0-.09.01-.13.02Zm1.83 3.38c1.68 0 3.67-.13 5.91-.4 1.62-.19 2.86-.41 3.71-.74-.05.32-.07.6-.07.86 0 .51.1.98.3 1.38.03.06.07.12.1.18-.1.05-.22.11-.34.18-.28.15-.64.36-1.09.61-.2.03-.93.14-3.38.41-2.1.23-4.3.46-6.62.71-.26-.2-.52-.4-.79-.62.23-.15.41-.36.54-.61.19-.39.29-.84.29-1.38 0-.32-.01-.66-.03-1.01.61.3 1.06.44 1.46.44Zm-.29 6.19 6.07-.65c.58-.08 1.13-.15 1.68-.24.48-.08.97-.11 1.44-.11h.29c.14 0 .21.02.24.03 0 .01.02.08.02.22v.52a2.24 2.24 0 0 0-.44-.18c-.6-.2-1.18-.3-1.71-.3a6.1 6.1 0 0 0-1.96.32c-.52.18-1.04.37-1.55.56-.79.28-1.63.51-2.49.67-.53.1-1.06.16-1.59.2v-1.04Zm.08 4.22c.91-.12 2.42-.32 4.55-.62 4.48-.63 4.88-.73 5.1-.86v1.07c-.11-.05-.22-.09-.34-.13a5.664 5.664 0 0 0-2.78-.09c-.43.09-.78.21-1.08.36-.78.33-1.87.65-3.24.97-.86.2-1.61.33-2.25.41l.04-1.11Zm5.1 3.48c.17-.03.74-.11 2.62-.35.49-.08 1.29-.22 1.93-.56v2.04h-.55c-1.27 0-3.15.1-5.58.29-1.12.09-2.32.2-3.56.32l.04-1.11h1.52c.46 0 1.1-.09 1.94-.27.37-.07.93-.19 1.64-.35Z"/><path class="cls-1" d="M33.93 75.76c-1.01 0-1.43-1.37-1.57-1.82-.31-1.03-.47-1.87-.47-2.54 0-.42.09-1.01.26-1.79.16-.71.27-1.29.31-1.73.05-.44.08-1.05.1-1.8.02-.77.04-1.63.04-2.58V48.87c0-.39-.12-.81-.37-1.26-.29-.45-.6-.94-.92-1.44l-.07-.12v-.14c0-.33.19-.62.53-.79.21-.11.43-.18.65-.21h.02c.63 0 1.24.24 1.92.73.21.17.42.34.63.5.23-.06.52-.14.88-.24.57-.15.83-.26.96-.33.06-.03.24-.17.53-.65.36-.59.79-.88 1.29-.88.35 0 .93.15 2.4 1.31 1.2.95 1.71 1.58 1.71 2.13 0 .24 0 .29-2.3 3.04-.98 1.17-1.72 2.03-2.2 2.6 1.01.7 1.83 1.7 2.41 2.99.17.36.31.73.43 1.11.31-.4.8-1.01 1.55-1.94 1.66-2.06 2.9-3.71 3.69-4.9 1.27-1.93 1.92-3.39 1.92-4.34 0-.1-.03-.21-.1-.33-.11-.2-.22-.4-.32-.6l-.05-.11v-.12c0-.15.06-.65.78-.76.25-.04.51-.07.78-.09h.01c.66 0 1.47.19 2.52.58.78.29 1.81.78 1.81 1.67 0 .3-.15.61-.49.98-.08.1-.18.2-.3.3.39.52.98 1.1 1.75 1.73.3.23 1.14.86 2.52 1.88 1.39.81 2.66 1.56 3.79 2.22 3.11 1.89 3.53 2.67 3.53 3.22 0 1.07-1.56 1.07-2.07 1.07-.38 0-.74-.02-1.09-.06-.35-.04-.7-.09-1.05-.17-.98-.26-2.21-1.09-3.73-2.53v.1c0 .3-.11.57-.33.78-.17.17-.39.3-.64.4l-.06.02-8.24 1.01h-.03c-.43 0-.93-.12-1.51-.38-.25-.11-.51-.24-.71-.41-.81.7-1.62 1.3-2.43 1.79.22.05.47.14.75.26l1.27.55c.67-.13 1.12-.22 1.37-.29.27-.07.66-.19 1.17-.35 0 0 .14-.06.55-.32.53-.33.62-.38.79-.38.28 0 .69.13 1.79 1.05.32.27.56.5.75.69-.03-.06-.06-.13-.09-.2-.34-.71-.41-.96-.41-1.14 0-.47.33-.79.82-.79.3 0 .71.14 1.3.43.3.15.51.26.63.31.75-.13 1.59-.27 2.43-.43.09-.06.32-.22.91-.67.43-.32.63-.42.84-.42.29 0 .74.13 2.02 1.1 1.27.96 1.52 1.38 1.52 1.76v.15l-.08.13c-.46.7-.81 1.25-1.01 1.64-.92 1.62-1.01 2.18-1.01 2.34-.04.57-.23.94-.58 1.13-.27.15-.65.22-1.18.22l-2.44.15c.42.12.86.3 1.34.56.63.34 1.46.88 1.46 1.66 0 .31-.22.57-.38.73-.13.13-.27.28-.41.44l-.32.67c1.3.52 2.23.93 2.85 1.26 1.36.74 2.05 1.83 2.05 3.27 0 .37-.08.71-.25.99-.21.36-.58.55-1.04.55-.32 0-.84-.14-2.05-1.2-1-.88-2-1.75-2.98-2.63-.53.73-.98 1.29-1.38 1.68-.61.58-1.39 1.13-2.34 1.63-.16.09-.3.17-.4.22-.42.21-.71.3-.94.3h-.14l-.12-.07c-.1-.06-.42-.25-.42-.61v-.16s.31-.44.42-.59c-.57-.04-1.31-.42-2.31-1.17-.31-.24-.73-.6-1.27-1.07-.61.61-1.39 1.26-2.31 1.93-1.46 1.07-2.49 1.56-3.23 1.56h-.1l-.09-.04c-.36-.16-.55-.38-.55-.67v-.18l.11-.14c1.18-1.46 2.23-2.82 3.14-4.03.93-1.24 1.4-2.24 1.4-2.96s-.01-.08-.12-.26c-.17-.3-.24-.53-.24-.74 0-.06 0-.13.03-.2-.48-.4-.86-1.08-1.15-2.05-.22-.88-.44-1.75-.65-2.63-.03-.1-.16-.41-.49-1.12-.15-.33-.25-.56-.32-.72.03.32.04.65.04.98 0 1.24-.22 2.3-.64 3.16-.6 1.2-1.46 1.46-2.07 1.46-.35 0-.85-.15-1.2-.85-.18-.37-.36-.72-.52-1.07-.08-.09-.29-.29-.84-.68-.16-.11-.31-.21-.45-.31v3.04c0 2.62-.07 4.77-.22 6.38-.28 3.04-.78 4.28-1.71 4.28Zm13.91-6.18c.69.31 1.21.55 1.58.73.89.46 1.39 1.06 1.51 1.79.15-.21.29-.43.43-.65 1.27-1.91 1.92-3.36 1.92-4.3s-.03-.11-.23-.37c-.34-.43-.45-.63-.45-.85 0-.08.01-.22.08-.36-.36-.28-.66-.77-.88-1.47-.27-.83-.43-1.87-.47-3.11-.32.42-.62.82-.9 1.2-.53.72-.74 1.07-.83 1.23l.03.67c0 .67-.54 1.07-1.61 1.23l-1.16.1c.33.15.64.32.9.5.73.47 1.11 1.01 1.11 1.59 0 .4-.19.86-.59 1.43-.18.26-.33.48-.45.65Zm-2.06-8.7c.08.45.19.97.32 1.57.08.38.14.68.19.9.04 0 .34-.06.41-.08.12-.4.22-.84.3-1.29.06-.39.13-.83.19-1.32-.22.04-.45.08-.69.11-.27.04-.51.07-.72.1Zm8.57-.8c0 .42.02.76.03 1.04.02.31.08.95.19 1.91l1.04-.18c.16-.53.29-1.06.38-1.59.08-.49.16-1.02.23-1.59-.27.03-.54.07-.82.14-.14.03-.42.1-1.04.28Zm-18.49-.82c.27.13.65.28 1.13.46.78.29 1.17.34 1.36.34.15-.23.19-.49.19-.79 0-1.11-.5-2.22-1.48-3.31-.56-.62-.94-1.09-1.2-1.44v4.74Zm15.45-10.17a43.53 43.53 0 0 1-3.7 4.87c-.31.34-.61.67-.92.98.73-.02 1.43-.1 2.09-.22.83-.15 1.79-.38 2.87-.69l1.92-.59h.08c.3 0 .67.05 1.12.16.15.04.39.1.66.2-.48-.5-.98-1.04-1.5-1.63a78.176 78.176 0 0 1-2.59-3.08Zm-15.28-.86c-.01.28-.04.64-.08 1.09-.06.62-.08.96-.09 1.01v1.65c.45-.64.83-1.39 1.12-2.22.22-.65.37-1.28.42-1.89-.2.05-.42.11-.66.17-.29.08-.53.14-.72.19Z"/><path class="cls-3" d="M49.42 44.54c.55 0 1.32.18 2.31.55.99.37 1.48.77 1.48 1.2 0 .17-.12.38-.36.64-.14.17-.35.35-.61.54.41.67 1.11 1.41 2.11 2.22.31.24 1.16.87 2.54 1.9 1.43.83 2.71 1.59 3.83 2.25 2.19 1.34 3.29 2.27 3.29 2.79 0 .38-.53.57-1.57.57-.36 0-.7-.02-1.04-.05-.33-.04-.67-.09-1-.16-1.36-.36-3.4-2.07-6.12-5.15a67.286 67.286 0 0 1-3-3.61c-1.34 2.07-2.68 3.87-4.04 5.4-1.72 1.91-3.42 3.36-5.11 4.36-.14.07-.25.12-.32.14-.29.12-.48.18-.57.18l-.18-.14c0-.07.67-.93 2-2.58 1.67-2.07 2.91-3.72 3.72-4.94 1.34-2.03 2-3.56 2-4.61 0-.19-.05-.38-.16-.57-.11-.19-.21-.38-.3-.57 0-.14.12-.23.36-.27.24-.04.49-.07.75-.09m-10.76 0c.38 0 1.08.4 2.09 1.2 1.01.8 1.52 1.38 1.52 1.73 0 .07-.73.98-2.18 2.72-1.29 1.53-2.15 2.54-2.57 3.04 1.17.64 2.07 1.67 2.72 3.08.57 1.24.86 2.59.86 4.04 0 1.17-.2 2.15-.59 2.93-.39.79-.94 1.18-1.63 1.18-.31 0-.56-.19-.75-.57-.19-.38-.37-.75-.54-1.11-.14-.19-.47-.47-.98-.82-.51-.36-.92-.63-1.23-.82v3.97c0 2.62-.07 4.73-.21 6.33-.24 2.55-.64 3.83-1.22 3.83-.43 0-.79-.49-1.09-1.47-.3-.98-.45-1.78-.45-2.4 0-.38.08-.94.25-1.68.17-.74.27-1.34.32-1.79.05-.45.08-1.07.11-1.84.02-.77.04-1.64.04-2.59V48.87c0-.48-.14-.98-.43-1.5-.31-.48-.62-.97-.93-1.47 0-.14.08-.26.25-.34.17-.08.33-.14.5-.16.45 0 .98.21 1.57.64.26.21.54.43.82.64.24-.07.61-.17 1.11-.3.5-.13.86-.26 1.07-.38.21-.12.45-.39.72-.82.26-.43.55-.64.86-.64m-.72 2.68c-.36.07-.8.18-1.32.32s-.88.24-1.07.29c0 .29-.03.76-.09 1.43-.06.67-.09 1.01-.09 1.04v9.26c.29.17.78.38 1.46.63.69.25 1.2.38 1.53.38.29 0 .48-.12.56-.38.08-.25.13-.55.13-.91 0-1.24-.54-2.46-1.61-3.65s-1.61-1.94-1.61-2.25c0-.36.12-.69.36-1 .52-.72.95-1.54 1.27-2.47.32-.93.48-1.82.48-2.68m15.7 6.72c.26 0 .6.05 1 .14.95.24 1.43.56 1.43.97 0 .17-.06.31-.18.43s-.27.21-.47.29l-8.15 1c-.36 0-.79-.11-1.31-.34-.51-.23-.77-.43-.77-.63 0-.24.32-.36.97-.36.95 0 1.85-.08 2.7-.23.85-.15 1.82-.39 2.91-.7l1.86-.57m3.86 3.11c.26 0 .83.33 1.72 1 .88.67 1.32 1.12 1.32 1.36-.48.72-.82 1.28-1.04 1.68-.72 1.26-1.07 2.12-1.07 2.57-.02.36-.13.59-.32.7-.19.11-.51.16-.94.16l-3.03.18c-.14.43-.35.64-.63.64-.52 0-.93-.47-1.23-1.41-.3-.94-.46-2.18-.46-3.7-.02-.29-.16-.68-.39-1.18-.24-.5-.36-.81-.36-.93 0-.19.11-.29.32-.29s.57.12 1.07.38c.5.25.76.38.79.38.88-.14 1.78-.3 2.68-.47.09-.05.44-.3 1.04-.75.29-.21.47-.32.54-.32m-.72 2.07c-.48 0-.98.06-1.5.18-.24.05-.72.18-1.43.39 0 .6.01 1.08.04 1.45.02.37.11 1.19.25 2.45.62-.09 1.24-.2 1.86-.32.21-.64.38-1.29.48-1.95.11-.66.21-1.39.3-2.2m-8.26-.89c.24 0 .73.31 1.47.93.74.62 1.11 1.05 1.11 1.29-.38.5-.74.98-1.07 1.43-.52.72-.83 1.19-.93 1.43l.04.79c0 .36-.39.6-1.18.72-.57.05-1.14.1-1.72.14l-.14.68c.55.19 1.01.42 1.4.68.6.38.89.78.89 1.18 0 .29-.17.67-.5 1.14-.5.72-.76 1.1-.79 1.14.95.43 1.66.75 2.11.97.83.43 1.25.99 1.25 1.68 0 .62-.22.93-.65.93-.46 0-1.16-.36-2.11-1.07-.36-.29-.9-.74-1.6-1.36-.64.69-1.5 1.43-2.58 2.22-1.34.98-2.32 1.47-2.93 1.47-.17-.07-.25-.14-.25-.21 1.19-1.48 2.24-2.83 3.15-4.04 1-1.34 1.5-2.42 1.5-3.25 0-.12-.06-.29-.18-.5-.12-.21-.18-.38-.18-.5s.07-.24.21-.36c-.57-.24-1.03-.92-1.36-2.04-.21-.86-.43-1.73-.64-2.61-.07-.21-.24-.62-.52-1.22-.27-.6-.41-.92-.41-.97 0-.14.08-.21.25-.21.24 0 .58.1 1.02.29.44.19.91.39 1.41.61.76-.14 1.28-.25 1.56-.32.27-.07.67-.19 1.2-.36.12-.05.34-.17.66-.38.32-.2.49-.3.52-.3m-.75 1.79c-.38.1-.83.18-1.34.25-.51.07-.92.13-1.23.18.1.55.23 1.25.41 2.09l.3 1.41c.12-.05.32-.09.59-.14.27-.05.47-.09.59-.14.17-.5.3-1.04.39-1.61.09-.57.19-1.25.29-2.04m5.97 5.51c.6 0 1.29.21 2.09.64.8.43 1.2.83 1.2 1.22 0 .1-.08.22-.23.38-.16.16-.32.33-.48.52l-.57 1.22c1.53.6 2.62 1.07 3.29 1.43 1.19.64 1.79 1.59 1.79 2.83 0 .29-.06.53-.18.73-.12.2-.32.3-.61.3-.33 0-.91-.36-1.72-1.07-1.14-1-2.28-2-3.4-3-.64.93-1.19 1.62-1.65 2.07-.57.55-1.31 1.06-2.22 1.54-.17.09-.3.17-.39.21-.33.17-.57.25-.72.25-.12-.07-.18-.13-.18-.18.67-.93 1.34-1.9 2-2.9 1.34-2 2-3.53 2-4.58 0-.17-.11-.39-.34-.68-.23-.29-.34-.47-.34-.54 0-.26.21-.39.64-.39m-4.33-21.99h-.09c-.28.03-.55.06-.81.1-.89.13-1.21.76-1.21 1.26v.23l.1.21c.1.21.21.41.33.62.03.05.03.07.03.08 0 .48-.24 1.64-1.84 4.06-.78 1.18-2.02 2.81-3.66 4.86-.4.49-.73.9-1 1.24-.04-.11-.09-.21-.14-.31-.54-1.18-1.26-2.14-2.14-2.86.46-.55 1.08-1.28 1.86-2.2 2.42-2.89 2.42-2.92 2.42-3.36 0-.73-.53-1.44-1.9-2.52-1.27-1-2.06-1.41-2.71-1.41-.47 0-1.15.19-1.71 1.12-.23.38-.36.48-.36.48-.04.02-.24.12-.82.27-.25.06-.46.12-.65.17-.14-.11-.27-.21-.4-.32l-.02-.02-.02-.02c-.78-.56-1.48-.83-2.16-.83h-.14c-.27.05-.54.14-.8.27-.51.26-.8.71-.8 1.23v.28l.15.24c.31.49.61.98.92 1.45.19.36.29.69.29.99v14.63c0 .93-.01 1.79-.04 2.56-.02.75-.06 1.35-.1 1.77-.04.41-.15.98-.3 1.67-.18.82-.27 1.44-.27 1.9 0 .73.16 1.61.49 2.69.16.54.66 2.17 2.05 2.17 1.47 0 1.95-1.89 2.21-4.73.15-1.62.22-3.78.22-6.42v-2.08c.21.16.32.25.37.31.15.33.32.66.49 1.01.49.98 1.24 1.12 1.64 1.12.76 0 1.81-.3 2.52-1.73.28-.56.48-1.21.59-1.93.18.73.35 1.44.53 2.15.29.96.65 1.67 1.11 2.14 0 .3.1.61.31.99.02.04.04.07.05.1-.03.38-.25 1.17-1.3 2.57-.89 1.2-1.94 2.55-3.13 4.01l-.22.27v.35c0 .29.11.81.85 1.13l.19.08h.21c.86 0 1.95-.51 3.52-1.66.78-.57 1.47-1.12 2.04-1.66.38.33.69.59.93.78.71.53 1.29.89 1.79 1.09l-.09.13v.32c0 .29.12.71.67 1.04l.24.14h.28c.31 0 .66-.11 1.16-.35.11-.06.26-.14.44-.24.96-.5 1.78-1.08 2.42-1.69.34-.34.71-.77 1.12-1.31.85.76 1.71 1.51 2.58 2.27 1.06.94 1.75 1.32 2.38 1.32s1.16-.28 1.47-.79c.21-.36.32-.78.32-1.24 0-1.61-.8-2.89-2.31-3.71-.55-.3-1.35-.65-2.41-1.09l.06-.12c.12-.13.23-.25.35-.37.13-.13.53-.52.53-1.08 0-.85-.64-1.43-1.27-1.84l.44-.03c.6 0 1.05-.09 1.39-.29.35-.2.77-.61.84-1.5v-.06c0-.04.05-.5.94-2.08.21-.4.54-.94 1-1.62l.17-.25v-.3c0-.43-.21-.83-.74-1.34.17.03.33.05.49.07.37.04.75.06 1.14.06 2.13 0 2.57-.85 2.57-1.57 0-.83-.63-1.73-3.77-3.64-1.12-.67-2.38-1.41-3.8-2.23-1.35-1-2.18-1.62-2.48-1.85-.56-.46-1.02-.89-1.37-1.29 0 0 .01-.02.02-.02.25-.27.6-.72.6-1.29 0-1.34-1.61-1.94-2.13-2.13-1.11-.42-1.98-.62-2.66-.62Zm-12.91 5.07c.09-.02.19-.05.29-.08-.07.34-.17.69-.29 1.05-.03.1-.07.2-.11.3.01-.14.03-.32.05-.53.02-.28.04-.52.06-.74Zm11.43 5.74.05-.05c1.13-1.27 2.26-2.73 3.37-4.37.63.78 1.36 1.64 2.18 2.57.14.16.28.31.41.46-.11 0-.21-.01-.31-.01h-.15l-.14.04-.93.29-.93.29c-1.04.29-1.99.52-2.8.67-.24.04-.5.08-.75.11Zm4.57 2.79 3.04-.37h.12l.11-.06c.32-.12.6-.29.82-.52.09-.09.18-.2.24-.31.09.08.19.16.28.24-.23.08-.46.23-.75.46-.46.35-.69.52-.81.6-.73.13-1.46.26-2.17.38-.12-.06-.27-.14-.47-.23-.14-.07-.28-.13-.4-.19Zm-16.14 1.8v-3.01c.1.12.21.24.33.37.91 1.01 1.35 1.99 1.35 2.98v.24c-.19-.04-.47-.12-.87-.27-.34-.13-.61-.23-.81-.31Zm7.37-.8c.45-.31.9-.66 1.35-1.03.19.11.37.19.48.24.65.29 1.21.42 1.71.42h.08c-.22.13-.33.19-.37.21-.48.15-.84.26-1.1.33-.21.06-.61.14-1.19.25-.34-.15-.66-.28-.97-.42Zm5.69-.62.85-.1c-.1.16-.17.34-.2.54-.24-.18-.46-.33-.65-.44Zm5.44 2.94c.37-.1.54-.14.62-.16l.15-.03c-.04.32-.09.62-.14.91-.07.41-.16.83-.27 1.24-.07.01-.14.02-.2.04-.07-.66-.11-1.12-.13-1.36-.01-.18-.02-.39-.03-.64Zm-8.49.84c.06 0 .13-.02.2-.03h.03c-.03.23-.07.44-.1.64v.01c-.05-.22-.09-.42-.13-.62Zm3.73 2.24c.1-.16.3-.48.73-1.06.03-.04.06-.08.09-.13.08.71.21 1.34.4 1.9.22.68.5 1.15.8 1.47-.01.07-.01.14-.01.21 0 .39.19.69.56 1.16.06.08.1.13.12.17-.04.6-.39 1.72-1.74 3.78-.27-.41-.7-.82-1.38-1.16-.28-.13-.63-.3-1.07-.5.03-.05.07-.1.11-.15.46-.66.68-1.21.68-1.72 0-.65-.33-1.24-.97-1.75 1.49-.32 1.72-1.16 1.72-1.65l-.02-.57Z"/></g></svg>