<?xml version="1.0" encoding="utf-8"?><svg version="1.1" id="cwde1" xmlns="http://www.w3.org/2000/svg" x="0" y="0" viewBox="0 0 331.2 314.6" xml:space="preserve"><style>.st0{fill:#e86546;stroke:#231815;stroke-miterlimit:10}</style><g id="cwde2"><path class="st0" d="M197.4 230.2c-.2-.3-.4-.6-.6-.8-1.1-1.4-2.2-2.2-3.5-2.5l-2.1-.6c-1.9-.6-3.8-1.1-5.8-1.4l-.8-.1c-1.2-.1-2.4-.3-3.6-.4-2.1-.1-4.1-.1-6.2 0-.6 0-1-.2-1.3-.8l-.1-.3c-.1-.2-.2-.4-.4-.7l-.1-.2c-.3-.4-.6-.9-1-1.3s-.9-.9-1.4-1.2c-.2-.2-.5-.4-.7-.6-.4-.4-.9-.6-1.5-.5l-1 .1c-.8.1-1.5.2-2.2.3-3.1.5-5.8.2-8.4-.9-1-.5-2-.7-2.9-.8-.6 0-1.2-.1-1.8-.2-1.2-.1-2.5-.2-3.8-.2-1.2 0-2.2-.3-3.2-1.1-2.1-1.7-4.4-2.9-6.3-3.9-.8-.4-1.6-.5-2.5-.5-1.3.1-2.6.1-4 .1h-1.4c-.4-.7-.6-1.4-.6-2.4 0-.6 0-1.2-.1-1.9s-.6-1.2-1.3-1.2h-6.2c-.6.1-1-.2-1.4-.6-.1-.1-.2-.3-.3-.4-.1-.2-.2-.3-.3-.5-.1-.2-.3-.4-.5-.5l-.7-.8-.9 1.2-.9 1.2c-.2.3-.4.6-.7 1-.2.4-.5.7-.7 1.1-.4.5-.7.8-1.2.9-.3.1-.6.1-.8.2l-1.8.5-3.9 1.2c-2.3.8-4.8 1.9-6.8 4.2-.3.4-.9.9-1.8.9-.8-.1-1.5.3-2 1l-.6.9-.6.9c-.5.7-.7 1.5-.4 2.5.3 1 .8 1.9 1.4 2.6.3.4.5.7.5 1.2v7.5c0 .2 0 .4-.1.5-.6.3-1.1.4-1.6.4-.3 0-.7.1-1.1.1-.2 0-.4.1-.6.1-.7.1-1.1.4-1.4 1.1l-.3.7c-.2.6-.5 1.1-.8 1.6-.6 1.1-.5 2 .1 2.9 0 .1.1.1.1.2s.1.2.1.3c0 .1.2.3-.1.6-.2.3-.5.5-.8.7-.3.2-.7.3-1.2.5-1.2.4-2.5 1-2.4 3.1.1 1.1-1.1 1.6-1.5 1.8-.8.2-1.6.3-2.4.1-.6-.1-1.3-.2-2.2-.1l-.2.1-.1.2c-1.2 2.1-2.4 4.3-3.4 6.4l-.4.8c-.5.9-.7 1.9-.6 3.2 0 .1.1.3.1.5 0 .1.1.2.1.3 0 .9-.2 1.4-.7 1.8-1.5 1-2.6 2.4-3.7 3.6-.4.5-.8.9-1.3 1.3l-.6.6c-.3.3-.6.5-.9.8-.6.6-1.3 1.2-1.9 1.8-1.6 1.8-1.9 3.6-1.1 5.6.1.2.1.3.2.5l.1.2c.2.5.3 1 .5 1.4.4 1 .7 2.1 1 3.2.6 2.1 1.4 4.4 2.5 7.1.2.6.6 1.1 1.2 1.6.7.6 1.5 1.3 2.2 2l.4.4c1 1 1.2 1.1.7 2.9-.2.8.1 1.3.8 1.7l1.8.9c.7.3 1 .8 1.1 1.5v.3c0 .6.3 1.4 1.4 1.7.4.1.8.3 1.2.4l.6.2c.5.2.9.5 1.2.9.4.6 1 1.2 1.6 1.8.8.8 1.6 1.5 2.3 2.3l.1.1c.5.4.7.8.7 1.3 0 .6.1 1.2.2 1.8.1.4.1.8.1 1.1.1 1.1.3 2.2.6 3.4l.1.3.3.1c1.4.6 2.8.8 4.1 1 .8.1 1.7.2 2.6.2 1.6 0 3.2-.3 4.9-1.3.2-.1.5-.3.8-.4l.6-.2c.7-.2 1.4-.5 2.1-.6.6-.1 1.2-.2 1.8-.2.5 0 .9-.1 1.4-.2 1-.2 2.4-.5 3.5-1.4.8-.6 1.6-1.1 2.5-1.7.4-.2.8-.5 1.1-.7l.5-.3c.4-.3.9-.6 1.3-.9.7-.5 1-1 1.1-1.7.1-.4.2-.9.3-1.5.3-1 .8-1.6 1.6-2 1.2-.6 2.5-1.3 3.9-2.1 2.4-1.5 4.8-2.2 7.5-2.4 2.2-.1 3.8-1 4.8-2.7.8-1.3 2-2.2 3.9-2.7.5-.1 1-.2 1.5-.4l1.1-.2.1-.3.6-1.8c.5-1.4 1-2.9 1.3-4.5.7-3.2 0-6-2-8.4-.9-1.1-1.4-2.3-1.6-3.7-.1-.6 0-1.1.4-1.5.3-.4.8-.7 1.3-1.1 1.1-.8 1.6-1.8 1.6-3.1v-3.5c0-1.2.2-2.3.6-3.3.4-1.1 1-1.7 1.9-1.8.7-.1 1.4-.4 2-.7.7-.3 1.4-.7 2.1-1.1l.7-.4 2 .7c1.2.4 2.2.2 3-.5.2-.2.5-.4.8-.7.4-.4.8-.7 1.2-1.1.6-.6.9-1.3 1-2.1 0-.2.1-.5.1-.7l.1-.5-.1-.2c-.3-.5-.7-.9-1.1-1.2-.2-.2-.5-.4-.6-.6h.1l2.3-.2c1.6-.2 3.1-.3 4.7-.5.9-.1 1.7-.2 2.6-.4 1.2-.2 2.5-.4 3.8-.5 1.7-.1 3.3-.6 5-1.5.7-.4 1.4-.7 2.1-1l.6-.3c.3.1.4.4.6.6l.3.4c.3.4.6.9 1.4 1l.5.1.3-.7c.1-.2.1-.4.2-.5.4-1.1.9-1.5 1.8-1.7 1-.2 1.9-.7 2.5-1.7.8-1.2 1.7-2.2 2.5-3 .8-.9 1.6-1.8 2-3.1.1-.2.2-.4.5-.6.4-.4.9-.7 1.4-.9.5-.3 1-.5 1.5-.8.3-.1.6-.3.9-.5.5-.3 1.1-.6 1.6-1.1l.3-.3-.6-1.2z"/><path class="st0" d="M98.7 225.2c0-.6-.2-1-.6-1.5-.6-.7-1-1.5-1.4-2.4l-.3-.6-.3-.7h-4.9c-.5 0-.6-.1-.7-.6s-.3-1.2-.3-1.8c-.1-1.2-.6-2.2-1.5-3.1l-.3-.3c-.1-.1-.2-.3-.4-.4-.3-.3-.5-.7-.5-1.2 0-1.2.1-2.4.3-3.6.1-.5.2-.8.4-1.1 1.1-1.6 2.2-3.4 3.2-5.4 0-.1.1-.1.1-.2.5-.9 1.2-1.5 1.9-1.9 1-.4 1.5-1.2 1.6-2.4.1-.6.1-1.2.2-1.9l.1-.4c.2-1.4 0-2.6-.5-3.7-.3-.6-.6-1.1-.8-1.7l-.6-1.2c-.3-.6-.7-1-1.3-1.3-.5-.2-1-.5-1.5-.7-1.9-.7-4.4-1.5-7.1-2-.4-.1-.8-.1-1.1-.3l-.1-.2c-.7-1.5-1.3-3-2.5-4.4l-.2-.2h-3.3c-.7 0-1.3.2-1.9.8l-1.7 1.7c-.3.3-.5.3-.5.4-1.2.1-1.9.2-2.6-.5-1-1-2.3-1.2-3.6-.7l-1.8.6c-.7.2-1.2.1-1.5-.3-.5-.6-1.2-1-2.1-1.2-.2-.1-.5-.1-.7-.2l-.5-.1c-.7-.2-1.1-.5-1.3-1.1-.2-.4-.3-.8-.5-1.1-.1-.2-.3-.3-.4-.5l-.6-.5-.6.6-.5.5c-.2.2-.4.4-.5.6l-.9.9c-.2.2-.3.2-.5.1-.3-.2-.5-.3-.8-.5-.3-.2-.6-.4-.8-.5-1.6-1-3.2-1.3-4.8-.9-1.6.3-3.3.2-4.7.1-1.4-.1-2.8-.4-4.2-.7l-.8-.1c-.8-.1-1.5.1-2 .6l-.5.5-.3.3c-1 1.1-2.1 2-3.2 2.8-1.1.8-2.3 1.7-3.4 2.6l-1.4 1.1c-.5.4-1.1.9-1.5 1.5l-.2.3.4.6c.1.1.2.3.3.4.5.8.4 1-.3 1.4-.1.1-.2.1-.4.2-1.7.9-3.1 2.3-4.2 4.4-.7 1.3-.9 2.6-.5 3.9.2.7.3 1.5.5 2.3l.1.5c.2 1.4 1 2.5 2.3 3.2.9.5 1.8 1.1 2.7 1.6.5.3 1 .6 1.4.9.6.4 1.2.9 1.6 1.6.9 1.4 1.8 2.8 2.8 4.2l1.4 2.2c.1.1.1.2.2.3l-.2.3-.9 1.2c-.5.7-.7 1.7-.5 2.7.2 1.1.8 2 1.5 2.5l.4.3c.4.3.8.5 1.2.8.4.2.8.5 1 .8-.3.4-.8.8-1.4 1.1-1.1.6-2.3.9-3.4 1.1-.4.1-.9.1-1.3.2-.9.1-1.8.3-2.7.6l-.2.1-.1.1c-.6 1-.6 2-.4 2.9l.1.4 1 .2c.5.1.9.2 1.3.3.9.1 1.7-.1 2.6-.7.2-.1.3-.3.4-.4l.2-.2c.4-.4.7-.4 1.3.1.4.7 1 1.1 1.6 1.5.2.1.3.2.5.3 1.9 1.5 4.2 2.4 7.1 2.6 2 .2 4-.2 5.8-1.1.8-.4 1.6-.6 2.5-.8 2-.3 4-.4 6-.4 1.2 0 2.1.5 2.8 1.3l.6.8c1.1 1.4 2.1 2.7 2.7 4.2.4.9 1 1.7 1.6 2.3 1.9 2 3.8 3.6 5.8 4.9 1.4.9 2.2 2.2 2.4 3.9.1 1 .3 2 .6 3l.2.7c.1.6.3 1.1.5 1.5.5 1 1.5 1.6 2.9 1.7h.1c1 0 1.5-.9 1.8-1.4l2.7-5c.3-.6.6-1.2 1-1.7h2.9c.5 0 1 0 1.5-.1 1.1-.1 1.7-.7 2-2 0-.2.1-.4.1-.6.1-1 .6-1.6 1.6-1.9.4-.1.8-.3 1.2-.5l.2-.1c.3-.1.5-.3.8-.5.6-.5.8-1.2.4-1.9-.1-.2-.2-.4-.3-.5l-.3-.6c-.1-.2-.1-.4 0-.6l.4-.9c.3-.7.7-1.4 1-2.1.3-.9 1-1.3 2-1.4h.8c.6-.1 1.3-.2 2-.8l.2-.2v-2.1c-.2-1.9-.2-3.7-.2-5.5zM237 168.6c.1-1.2.3-2.5.8-3.8.2-.6.4-1.2.7-1.8l.4-1.1-.1-.2c-.1-.2-.2-.5-.3-.7-.3-.5-.5-1.1-.9-1.6-.9-1.4-1.9-1.7-3.4-.9-.2.1-.4.3-.6.4l-.7.5-3.9-1.9-.8.8-1.1 1.1c-.5.5-1.1.7-2 .5-.1 0-.2-.1-.3-.1-.2-.1-.3-.1-.5-.1-.4-.1-1.8-.3-2.8.9-.5.7-1.3 1-2.4 1-.6 0-1.4 0-2.2.4-.5.2-.9.2-1.6-.2-.5-.3-1-.5-1.5-.8l-.9-.4-.2.1c-2.7.9-5.6 1.5-9.3 2h-.4l-.6 1.9c-.2.2-.5.2-.9.3l-1.2.1c-.8.1-1.6.1-2.4.2-.9 0-1.6.4-2.1 1.2l-.2.3c-.2.4-.5.7-.7 1.1-.2.5-.5.7-1.3.7h-3.9c-1.2-.1-2.1.4-2.8 1.5-.4.7-.9 1.3-1.4 2l-.5.7c-.4.5-.8.8-1.3.8-.6 0-1.2.1-1.7.2l-.9.1c-.2 0-.4 0-.5.1-.8.2-1.4.7-1.7 1.4s-.2 1.5.1 2.2c.1.2.3.5.5.7.4.5.5 1 .5 1.6v.4c-.1.6-.1 1.1-.2 1.6-.4 1.6 0 3.1 1.2 4.3l1.4 1.4c.3.3.5.6.7.9.2.4.3.9.1 1.4-.1.5-.5.9-.9 1.1-.9.5-1.7 1-2.3 1.5-.2.2-.4.3-.7.4-.1.1-.3.2-.4.2-.2.1-.4.2-.6.4l-.6.4.2.4c.1.2.1.4.2.5.1.3.3.6.3 1 .2.9.2 1.6-.3 2.2-.3.3-.6.5-1.1.5-1 .1-1.8.6-2.4 1.5-.5.8-1.2 1.2-2.1 1.3-.2 0-.4.1-.6.2l-.2.1-.3.6c-.5 1-.3 1.9.5 2.7.1.1.3.3.4.5.2.2.3.5.3.8 0 .7 0 1.4-.4 2l-.6.9-.5.8.1.3.3.6c.2.4.4.8.7 1.2.6.9.6 1.9.5 3.1 0 .1-.1.2-.2.3-.3.1-.6.3-1 .4-.7.3-1.3.7-1.8 1.3-.3.3-.4.7-.5 1.1-.2 1 .1 1.9 1 2.4 1.1.7 1.9 1.6 2.6 2.9.1.2.3.5.5.7l.4.5h4c2.2 0 4.6 0 6.8.4.3.1.7.1 1 .1.7.1 1.3.2 2 .4 1.9.5 3.8 1.1 5.6 1.6 1.2.4 2.2 1.1 3 2l.1.1c.1.1.2.2.2.3.1.2.2.3.4.5l.4.4.5.4.4-.2c.6-.3 1-.8 1.4-1.2l.3-.3c.3-.3.6-.7.9-1 .8-.9 1.6-1.7 2.4-2.5 1.3-1.2 2.6-1.9 3.9-2 1.9-.1 3.8-.1 5.6 0 1.8.2 3.7.5 5.5.8.7.1 1.4.2 2 .3.5.1 1 0 1.6-.2 1-.4 2-.8 3.1-1.2l.9-.3c.2-.1.5-.2.7-.2.6-.2 1-.7 1.1-1.4v-2c.1-1.3.2-2.4 1.1-3.2 1.1-1.1 1.6-2.5 1.5-4.2-.1-1.1-.2-2.3-.5-3.4-.1-.5 0-.8.2-1.2 1.7-2.5 3.5-4.5 5.5-6.2l.2-.2c.5-.4 1.1-.8 1.3-1.6l.1-.4-.9-.8c-.5-.4-.9-.9-1.4-1.3-.6-.5-.9-1.2-.9-1.9 0-.4 0-.8-.1-1.2-.1-.4-.1-.7-.1-1.1.1-1.7-.8-2.4-1.6-2.8l-.2-.2c-.1-.1-.2-.3-.1-.5 0-.2.1-.4.2-.5.9-1.2 1.3-2.6 1.6-3.9l.2-.6c.4-1.4.8-2.7 1.8-3.6.6-.6.8-1.4.5-2.2-.2-.8 0-1.4.6-2.1l.1-.1c.2-.2.4-.4.6-.7.2-.2.3-.5.5-.8l.4-.6-.5-.8c-.2-.3-.4-.6-.5-.9-.6-1.2-.9-2.1-.6-3.1.4 0 .4-.3.5-.7z"/><path class="st0" d="M285.8 129.4V128c0-.6-.3-1.1-.8-1.4l-.4-.2c-.4-.3-.8-.5-1.2-.8-.7-.5-1-1.1-.9-1.9 0-.5.1-1 .1-1.5 0-.8 0-1.5.2-2.2.1-.5.1-1.1.1-1.6v-.9l-.5-.3c-.2-.1-.3-.2-.5-.3-.3-.2-.6-.4-1-.7-.7-.5-1.4-1-2.2-1.4-1.3-.7-1.5-1.8-1.7-3.2l-.1-1.2c-.1-.9-.2-1.8-.3-2.6-.1-.9-.2-1.5-.4-2.1-.1-.3-.2-.6-.4-.8l-.2-.4-6.1-.8c-1.1-.2-2.2-.6-3.3-1.1-.7-.3-1.3-.6-2-.8l-.2-.1-.2.1c-1 .4-1.5 1.3-1.4 2.6.1.8-.2 1.6-1 2.4l-1.7 1.8-5.1 5.4c-.2.2-.4.4-.5.6-.1.1-.2.3-.3.4-.5.6-.7 1.3-.7 2-.1 1.1-.2 2.3-.4 3.4l-.2 1.6 2.9 5.4c-.1.2-.3.4-.4.6-.1.2-.2.4-.7.4h-.8c-.8 0-1.6 0-2.4-.1-.7-.1-1.3 0-1.9.2-.4.1-.7.3-1.2.6-.6.4-1.1.8-1.6 1.4-.3.4-.7.7-1.2 1-.2.1-.4.2-.6.4-.8.6-1.1 1.3-1.1 2.1 0 .2 0 .4-.1.6v.1c-.6.4-1 .6-1.5.6-.6 0-1.2.3-1.8.7-1.4 1.1-3.1 1.7-4.6 2.3-.8.3-1.5.6-2.3 1-.4.2-.8.3-1.2.5-.9.4-1.4 1-1.6 2-.1.8-.3 1.5-.5 2.3-.1.6-.3 1.1-.4 1.7-.1.4-.2.6-.4.9l-.7.7c-1.2 1.3-2.5 2.6-3.9 3.7-.5.4-1 1-1.4 1.5l-.2.3c-.4.5-.4 1.2 0 1.8.2.3.4.6.7.8 1.4 1.1 2.5 1.9 3.6 2.6.4.3 1 .5 1.5.5.4 0 .8.2 1.4.4l2.8 1.3.5-.4c.1-.1.3-.2.4-.3.6-.4 1.3-.6 2.1-.6.5 0 .8.2.9.5l1.1 2.2c.5.8.5 1.4 0 2.1-.7 1-1 2.2-1.2 3.3-.1.7-.2 1.4-.2 2.2 0 .4-.1.7-.1 1.1-.2 1.4.1 2.5.7 3.5.2.4.4.7.6 1.1l.1.2c-.4.7-.8 1.4-1.5 2.1-.5.5-.8 1.2-.7 1.9 0 .4.1.8.1 1.2v.3l-.3.4c-.4.5-.7.9-1.1 1.3-.3.3-.6.8-.7 1.4 0 .2-.1.4-.1.6-.1.2-.1.5-.2.7-.2 1.6-.7 2.8-1.4 3.9-.3.5-.7 1-.7 1.8v.3l.8.5c.8.5 1.2 1.2 1.2 2.3 0 .4 0 .8.1 1.3l.1.5c.1.7.2 1.4.5 2 .5 1 1.4 1.6 2.3 2.1.4.2.8.3 1.3.3.4 0 .8-.1 1.2-.1.2 0 .3-.1.5-.1.2-.1.4-.1.6-.1h1.7c2 0 4-.1 6 .2 1.2.2 2.2 0 3.1-.6 1.1-.8 2.2-1.5 3.3-2.2 1.3-.9 2.7-1.8 4-2.7.4-.3.8-.7.9-1.1l.3-1c.5-1.6 1.1-3.2 1.5-4.9v-.2l-.1-.2c-.9-1.4-1.9-2.9-2.9-4.2-1-1.4-2.1-2.9-3-4.4.7-1.3 1.1-2.7 1.5-4l.2-.7c.4-1.2 1.2-2.1 2.7-3.1.6-.4 1.1-.5 1.7-.3.4.1.8.1 1.1.1h.5c.9.1 1.7.2 2.6.2.6.1 1.5.1 2.3 0h.2l.1-.2c.7-1 1.2-2.2 1.5-3.5.2-.9.4-1.7.5-2.6l.4-2.2c.1-.8.3-1.6.5-2.4.2-.8.5-1.5 1-2 .7-.7 1.3-1.5 1.9-2.2l.6-.8c2.2-2.7 3.7-5.4 4.3-8.2 0-.1.1-.2.1-.4.2-.5.5-.7 1-.8l3.1-.3c1.2-.1 1.7-.7 1.6-1.9 0-.2 0-.4-.1-.6-.2-.7-.2-1.5 0-2.5.1-.3.2-.7.3-1 .2-.8.4-1.6.7-2.4 1-2.8 1-5.1.9-7.3zm-80.9 22.8c-.5-.7-.4-1-.2-1.4.7-1.1.7-2.2.6-3.2 0-.7-.3-1.2-.7-1.5-.4-.3-.9-.5-1.6-.4-.3 0-.7.1-1 .3-.5.4-1.1.5-1.9-.3-.4-.3-.7-.7-1.1-1l-.5-.5c-.4-.4-.8-.8-1.2-1.1-.6-.4-.9-1-.8-1.7v-.7c0-.7 0-1.4.2-2.1.3-1 0-1.9-.8-2.5-.5-.4-1-.8-1.4-1.2l-.5-.4c-1-.9-2.1-1.9-2.7-3.2l-.6-1.1h-.3c-1-.2-2 0-2.9.1l-.4.1c-1.2.2-2.2.7-2.9 1.5-.7.8-1.6 1.4-2.9 1.9-1.5.6-2.9 1.1-4.4 1.6-.9.3-1.8.7-2.7 1.4l-.3.3.2.4c.2.5.3 1 .2 1.4-.3.9-.6 1.1-1.4 1.1-.4 0-.8 0-1.2-.1-.4 0-.7-.1-1-.1-1.7-.1-3.4-.1-5.1-.1-.7 0-1.2.5-1.3 1.2-.1.9 0 1.6.6 2.3.3.3.4.7.4 1.3l-.2 3.6v1c.1 1.1.7 2 1.2 2.6.4.5.7.9.8 1.6l-.1.1c-.2.3-.5.5-.8.8-1.1 1.2-2 2.7-1.9 4.6 0 .8-.3 1.6-1.2 2.4-.8.7-1.6 1.4-2.4 2.2l-1.1 1c-1 .9-2 1.8-3.3 2.3-.2.1-.4.2-.6.2l-.7.1-.1.8c0 .3-.1.6-.1 1 0 .2-.2.3-.4.3h-1.6c-.7 0-1.3.5-1.4 1.2-.1.9-.5 1.6-1.2 2.3l-.3.3.3.5c.1.1.1.3.3.4.5.5.6 1.1.2 2.1l-.3.6-.3.6c-.3.7-.7 1.1-1.3 1.1-.4.1-1.4.2-1.8 1.1v.3c0 .1 0 .2.1.5s.2.5.4.8c.3.6.4 1 .3 1.1 0 .1-.2.3-.9.4-.7.1-1.3.6-1.6 1.1-.8 1.5-1.5 3.2-1 5.2.2.8.4 1.6.7 2.4.6 1.4.5 2.9.4 4.4 0 .4-.2.6-.7.7-.4.1-.6 0-.9-.5-.2-.3-.3-.6-.6-.9-.2-.2-.4-.4-.6-.5l-.5-.4-.4.2c-1.5.9-2.7 1.7-4.1 2.1-1 .3-2.1.6-3.2.8-.5.1-1 .2-1.5.4l-.8.2.5.7c.5.7 1.1 1.2 1.6 1.6.7.5 1.4 1 2 1.6.3.3.4.5.4.7v.5c0 1.1.1 2.1-.4 3.1-.7 1.2-.6 2.5-.5 3.7v.4c.1.9.5 1.6 1.4 2 1.1.5 2.1 1.1 3.1 1.7l.7.4c1.4.8 2.8 1.6 4 2.7.8.6 1.8 1 3.1 1h3.5c.4 0 .8 0 1.2.1 1.5.2 3.1.7 4.7 1.4 1.2.5 2.6.8 4.1.8.4 0 .8 0 1.1-.1 1.2-.1 2.4-.2 3.5-.4.6-.1 1.3-.2 2-.2 1-.1 1.3-.7 1.4-1.2.1-.4.4-.8.9-1.1.5-.3 1-.6 1.5-.8 1-.5 1.3-1 1.2-2.1-.1-.9-.4-1.8-.8-2.5-.1-.2-.3-.5-.4-.7l-.2-.4c-.2-.3-.2-.5 0-.8.3-.5.6-1.1.9-1.7.6-1.5.1-2.5-.5-3l-.5-.5c-.4-.5-.5-1.2-.2-1.8.2-.6.7-.9 1.3-1.1.9-.2 1.6-.6 2-1.2.5-.8 1.2-1.2 2.3-1.5 1.2-.3 1.8-1.1 1.7-2.4 0-.3-.1-.6-.2-.9v-.1c-.1-.2-.1-.4-.2-.5-.1-.2-.1-.4-.2-.7-.1-.4.1-.5.2-.6.9-.3 1.7-.9 2.4-1.4.6-.4 1.1-.9 1.8-1.2.9-.4 1.3-1.3 1-2.5-.2-.6-.5-1.1-1-1.6-.6-.6-1.1-1.2-1.7-1.9l-.5-.5c-.3-.4-.4-.9-.4-1.6 0-.3.1-.6.1-.9 0-.2.1-.4.1-.7.1-.5.1-1 .2-1.5.1-1.1-.2-1.8-.8-2.4-.1-.1-.1-.2-.2-.2-.4-.6-.4-1.4-.1-2 .3-.6.9-1.1 1.6-1.2.9-.1 1.7-.2 2.6-.3.9-.1 1.6-.5 2.1-1.2.4-.7.9-1.3 1.4-1.9l.2-.3c.3-.4.6-.8.9-1.1l.2-.3c.9-.1 1.9-.1 2.9-.1 1.1 0 2.2 0 3.3-.1h.3l.5-.8c.3-.4.6-.8.8-1.3.5-1 1.3-1.4 2.6-1.4h2.3c1.3-.1 1.8-.5 2.1-1.7.3-1.4.8-2.5 1.5-3.5.2-.2.3-.4.4-.7l.1-.2c1.5-2.4 1.4-4.8-.1-7z"/><path class="st0" d="M150.5 173.3c-.1-.2-.1-.3 0-.5.2-.3.4-.5.6-.8l.2-.2c.5-.6.6-1.4.2-2.3l-.2-.4-.6.1c-.2 0-.4 0-.7.1-.6.2-1.3.5-1.9.8-.7.3-1.4.4-2.2.3-.9-.2-1.7-.2-2.5-.3l-.9-.1c-.9-.1-1.8-.2-2.6-.3-.7-.1-1.4-.2-2-.2-.7-.1-1.3-.1-2-.2s-1.4-.1-2.1-.2c-.6-.1-1.1-.2-1.7-.3-.2 0-.4-.1-.6-.2-1-.6-1.9-1.3-2.9-2l-1.9-1.3c-.4-.2-.6-.6-.7-1.1l-.2-.8c-.2-.7-.3-1.4-.5-2-.2-.6-.4-1.3-.6-1.9-.2-.6-.7-.9-1.4-1h-.7c-1.6-.2-2.9-.6-3.9-1.6-.2-.2-.4-.3-.6-.5-.1-.1-.2-.2-.3-.2-.8-.7-1.8-1-3-.9-.6 0-1.1.1-1.5.5-.3.4-.3.9-.2 1.6 0 .1 0 .2.1.3 0 .1 0 .2-.2.3-.2.1-.3.2-.6.2-.7.1-1.5.2-2.2.3-1 .1-1.7.7-1.8 1.6-.1.7-.5 1.1-1.2 1.6-.2.1-.4.3-.7.4-.1.1-.3.1-.4.2-.9.5-1.9 1.2-2.3 2.5-.2.6-.7 1-1.5 1.2-.4.1-.8.1-1.2.2-.8.1-1.6.3-2.5.4-1 .1-1.8.6-2.4 1.4-.2.3-.5.6-.7.9l-.4.5c-.3.4-.7.6-1.3.6-.6 0-1.2.1-1.8.2l-.5.1c-.8.1-1.5.6-2 1.3-.2.4-.5.7-.7 1.1-.2.2-.3.4-.5.7-1.1 1.6-2.3 2.8-3.8 3.6-1.2.7-2.3 1.4-3.5 2.1-.3.2-.5.4-.8.6l-.7.5 2.7 5 1.8.5c1.2.3 2.4.6 3.6 1 1.8.5 3.4 1.1 4.7 1.8.3.2.6.4.7.8.2.4.4.9.6 1.3.2.5.5 1 .7 1.7.3.6.5 1.2.5 1.8v.9c0 .8 0 1.7-.1 2.5-.1 1.4-.6 2.3-1.6 2.9-1.1.6-1.8 1.6-2.3 2.4-.4.6-.7 1.2-1 1.8-.5 1-1 1.9-1.7 2.8-.5.6-.7 1.3-.8 2.1-.1.8-.1 1.7-.2 2.5l-.1.5c-.1.8.2 1.4.7 1.8l.2.2.2.1c1.2 1.2 1.8 2.6 1.9 4.2 0 .3.1.5.1.8l.1.6.9.1c.4.1.8.1 1.2.1.5 0 1 .1 1.7.1h.2c1.2 0 2.2-.5 2.8-1.6.2-.4.5-.9.8-1.3l.4-.6c.3-.5.7-.7 1.2-.8 1.5-.2 2.8-.9 3.8-2.1.1-.1.2-.2.3-.4l.2-.2c.6-.6 1.3-1 2.1-1.4 2.9-1.2 6-2.3 9.1-3.1.8-.2 1.4-.7 1.9-1.4l1.2-1.8.6-.8c.2-.3.4-.7.7-.9.4.3.7.7 1 1.3.7 1.1 1.7 1.6 2.9 1.3 1.3-.3 2.6-.2 4-.2h1.9c.1 0 .2 0 .4.1v.5c0 .7 0 1.4.1 2 .1.3.1.5.1.8.1.6.1 1.4.5 2l.1.2h.2c1.6.3 3.7.2 5-.1l.4-.1.1-.8c0-.3.1-.6.1-.9v-2.9c0-.4.1-.8.2-1 .3-.7.4-1.4.6-2.1 0-.2.1-.4.1-.6.2-1.2-.2-2.2-1.2-2.8-.7-.5-1.5-1-2.3-1.7-.3-.2-.6-.6-.9-.9.2-.1.4-.2.5-.3l.6-.2c.6-.2 1.2-.4 1.9-.5 2-.3 3.9-1 5.6-2.2.3-.2.6-.3.9-.4.4-.1.5 0 .6.2l.1.2c.2.3.5.7.7 1 .3.4.7.6 1.2.5.4-.1.8-.4 1-.9.3-.9.3-1.8.1-2.9-.2-.9-.4-1.7-.7-2.5l-.1-.4c-.6-2-.5-3.9.4-5.7.4-.7.8-1.1 1.4-1.3.2-.1.4-.2.7-.3l.9-.4-1.2-2.8c.1-.1.1-.2.2-.2.4-.2.9-.5 1.3-.6.9-.2 1.5-.8 1.9-1.7l.2-.5c.1-.4.3-.7.4-1.1.2-.6.1-1.2-.3-1.6l-.4-.3zm179.7-29.8c-.2-.4-.5-.7-.9-1l-.3-.3c-1.6-1.8-2.6-1.5-4.2-.3-.1.1-.2.2-.4.3-.1.1-.2.2-.4.3-.1 0-.2 0-.2-.1-.2-.2-.3-.5-.4-.8-.5-1-1-1.7-1.8-2.2-.9-.6-1.8-1.2-2.7-1.7l-.9-.6c-.3-.2-.5-.3-.8-.3-1.4-.3-2.9-.5-4.4.7l-1.2.9c-1.1.7-2.2 1.3-3.5 1.1-.9-.1-1.8-.2-2.6-.3h-.3c-1.3-.1-2.2-.5-2.9-1.3-.4-.4-.8-.7-1.1-1-.8-.6-1.5-1.2-2.3-1.9l-1-.8c-1.2-1-1.9-2.3-2.1-3.9v-4.8c0-1.4 0-2.8-.6-4.2-.1-.2-.1-.3.2-.6.3-.2.5-.4.8-.6l.5-.4v-.3c0-.8-.5-1.3-.8-1.7l-.2-.2c-.6-.6-1.1-1.2-1.7-1.7l-1.6-1.6c-1.3-1.3-2.3-2.7-3.1-4.2-.9-1.7-1-3.2-.3-4.8.3-.5.4-1.1.6-1.7.1-.3.2-.7.3-1 .2-.4.4-1 .7-1.5.4-.5.8-1.1 1.4-1.5.9-.6 1.3-1.5 1.2-2.8 0-1.3-.8-2.2-1.4-2.8-.1-.1-.2-.2-.4-.3-.3-.3-.6-.5-.8-.8-.2-.3-.3-.7-.5-1.1-.1-.2-.1-.4-.2-.6l-.1-.3h-.3c-1.8-.2-2.6-.2-3.9.3l-.3.1-.1.7c0 .3 0 .6-.1.9l-.3 7.1v.1c-.1.2-.2.2-.2.2-.1.1-.3.1-.5.2l-1.9.5-3.6.9-.3.1c-.7.2-1.4.3-2 .9l-.2.2v2.3c.1 1.1.2 2.1.4 3.2.2 1.4.4 2.7.5 4.1.1.8.4 1.5 1 2 1 .9 2.1 1.7 3.3 2.4.1.1.3.1.4.2.3.2.6.3.9.5v1c0 1.5.1 3.1-.2 4.6-.3 1.3.2 2.3 1.3 2.9.4.2.8.6 1.2.9.2.2.5.3.7.5.2.1.2.3.2.5v1.2c0 2.6 0 5.1-1.1 7.5-.1.2-.2.4-.2.6 0 .1-.1.2-.1.3-.4 1.1-.6 2.2-.5 3.2 0 .8.1 1.5.1 2.3v.7c-.2.1-.3.1-.4.2-1 .1-2 .3-3 .4-.6.1-1.4.1-2 .9l-.1.2v.2c0 .7-.3 1.4-.7 2.1-.3.7-.7 1.3-1 2-.4.8-.8 1.6-1.2 2.3-.3.5-.5.9-.8 1.2-.9 1-1.8 2.1-2.8 3.1-.8.8-1.3 1.8-1.5 2.8-.4 2.2-.8 4.2-1 6.3-.1.9-.3 1.6-.7 2.3-.2.4-.4.7-.6 1.1l-.5.9.4.4c.1.1.2.3.4.4 1.6.6 3.2 1.1 4.9 1.2h.5c1.1 0 2-.3 2.8-1 .7-.6 1.5-1.3 2.2-1.9l2.7-2.4c1.3-1.2 2.9-2.4 4.9-3.6 1-.6 2-1 3.2-1.1l1-.1c1.5-.2 3.1-.4 4.7-.5 1.4-.1 2.8-.5 4.4-1.1 1.7-.7 3-1.1 4.2-1.6 3.3-1 6-1.3 8.5-.7.4.1.7.1 1 .1h.4c1.8.1 3.1-.7 3.6-2.2.1-.4.4-.6.9-.7.2 0 .4 0 .5-.1h.4c.7-.1 1.2-.3 1.6-.8.6-.8 1.5-1.3 2.4-1.8l.6-.3c.8-.4 1.7-.9 2.3-1.7.7-.9 1.5-1.4 2.8-1.5.2 0 .5-.1.8-.2.3-.2.6-.4.7-.7 0-1.3.5-2.9-.3-4.5z"/><path class="st0" d="M292.9 87.1c-.1-.8-.6-1.2-1.4-1.3-2.1-.2-3.8.2-5.2 1.3-1 .8-2.2 1.3-3.8 1.8-2.4.7-4.5.7-6.6.2l-5.4-1.2c-.9-.2-2.1-.3-3.2.3-.4.2-.8.2-1.2.1-1.6-.6-3.3-.9-5.5-.8-2.1.1-4.1-.2-6.2-.9-1.1-.4-2.1-.2-3.1.6l-.4.3c-.4.3-.8.6-1.2 1-.7.7-1.5.9-2.5.8-.6-.1-1.2-.4-1.6-1-.4-.6-.5-1.2-.4-1.9.2-.8.4-1.4.8-1.9.2-.3.3-.5.5-.9.1-.2.4-.7-.1-1.2l-.3-.2h-.2c-.1 0-.3-.1-.5 0-1 .2-2 .3-3.1.5-.4.1-.7.2-1 .3l-.2.1c-.8.3-1.2.8-1.3 1.6-.2 1.2-.6 2.2-1.1 3-.5.8-1 1.5-1.6 2.2-.7.9-1.4 1.9-2.1 2.8l-1 1.4-.3.3c-.5.5-.9.5-1.5.2l-.7-.4c-.6-.3-1.2-.7-1.9-1-1.3-.7-2.6-1-4-1.1h-.3l-.7.7c-.4.4-.8.8-1.1 1.3-1 1.2-2 2.2-3.2 2.7l-.9.3c-.2 0-.3.1-.5.1-.6.2-1 .6-1 1.2v1.2c0 .3.1.6.1.9.1.5.1 1 .1 1.5 0 1.4.1 3.2.1 4.8 0 1 .3 1.8 1.1 2.4 1.2 1.1 2.4 2.1 3.6 3.3l.3.3c1 1 1.9 1.9 2.1 3.2l.1.4.8.1c.3 0 .6.1.9 0 .2 0 .5-.1.7-.1.2 0 .5-.1.7-.1 1 0 1.9-.2 2.9-.6.6-.2 1.3-.5 1.9-.8.6-.2 1.1-.5 1.7-.7.1-.1.3-.1.4-.2.4-.2.7-.3 1.1-.3.6.9 1 2 1.3 3 .2.5.3.9.5 1.4l.3.8c.4 1.2 1.2 2.1 2.4 2.7.2.1.3.2.5.2.2.1.4.2.5.3.7.3 1.3.7 2 1.1.2.1.3.2.2.5 0 .1-.1.2-.1.3-.1.2-.1.4-.1.7v.3c0 .5-.1 1 .1 1.5.2.8.6 1.6 1 2.5.3.6.8.9 1.5.9h.2l.5-.4.9-.6c.6-.4 1.1-.6 1.8-.5.7.1 1.4.1 2.1.2.6.1 1.4.2 2.2-.2.7-.3 1-1 .8-1.6-.1-.2-.2-.5-.4-.8l-.4-.9c-.4-.8-.9-1.6-1.3-2.4-.4-.7-.5-1.4-.4-2.5l.1-.8c.1-.6.1-1.1.2-1.7.2-1.8.8-3 2-4.2 2.1-2.1 4.3-4.2 6.2-6.5.7-.8 1.3-1.7 1.3-3 0-.3.1-.6.2-1 .2-.4.5-.9 1-1 .3-.1.7-.1 1.2.2.2.1.5.3.8.4 2.6 1.2 5.4 1.8 8.8 1.8.2 0 .5-.1.7-.2.1 0 .1-.1.2-.1l.4-.1v-.4c.1-.6.4-.9 1.2-1 .1 0 .2 0 .2-.1l7-1.8.1-.2c.6-.9.6-1.8.6-2.4v-1.3c0-1.6 0-3.3.3-5 .1-.4.3-.7.7-.7l2.4-.3.5-.1c1.3-.2 2.3-.8 3-1.4 1.1-.5 1.4-1.2 1.2-2.2zM206 124.2l-.9-.3-.3-.1c-.3-.1-.6-.2-.9-.4-.6-.4-1.2-1-1.8-1.4l-1.5-1.2c-1.1-.9-2.1-1.8-3.1-2.7-.9-.8-1.9-1.3-3.2-1.6-1.2-.3-2.5-.6-3.7-.9-1.2-.3-2.5-.7-3.7-.9-.8-.2-1.4-.5-2-1.1-.8-.8-1.7-1.8-1.9-3.1 0-.2-.1-.3-.3-.6l-.3-.5-.7.4c-.1.1-.3.1-.4.2-.6.4-1.2.5-1.9.3-.2-.1-.3-.1-.5-.1-.1 0-.2 0-.3-.1-1.1-.4-1.8-.9-2.3-1.6-.4-.7-.9-1.2-1.4-1.6-1.1-1-2.1-1.8-3-2.5-.5-.4-.9-.9-1.2-1.5-.2-.6-.5-1.2-.8-1.8L169 99c-.6-1.2-1.1-2.4-1.6-3.7-.5-1.1-.9-2.4-.9-3.7 0-.7-.2-1.4-.5-1.8-.8-1.5-2.1-2.6-3.8-3-1.5-.4-2.4-1.2-2.8-2.7-.1-.4-.2-.7-.3-1.1l-.1-.3c-.1-.2-.1-.4-.2-.6l-.2-.6-.9-.2c-.4-.1-.8-.2-1.2-.2-1.5-.4-2.6.1-3.4 1.3-.6 1-1.5 1.8-2.6 2.3-1.3.6-2.2 1.3-2.7 2.4-.1.2-.3.4-.5.6-.1.1-.2.2-.2.3-.8 1-1.3 1.9-1.5 3-.2 1 .1 1.9.8 2.6 2 2 3.9 3.7 5.7 5.2 1.5 1.2 3 2.7 4.2 3.9.6.6.9 1.3 1 2.3 0 .3 0 .5.1.8v.7c.1.8.2 1.5.2 2.4.1 1.2-.1 2.3-.8 3.4-.3.6-.6 1.1-.9 1.6-.7 1.5-1.4 2.8-2.1 3.9-.2.3-.4.6-.5.9l-.3.3.2.3c.1.2.3.4.4.6.3.4.6.7.8 1.1 1.1 1.7 1.1 3 0 4.3-.1.1-.1.2-.2.2-.7 1-.7 1.6-.1 2.7.8 1.2 1.8 2.4 3.3 3.4 1.1.8 2.4 1.7 3.9 2.7 1.8 1.2 3.4 2.1 5.1 2.8.6.2 1.4.5 2.3.5.4 0 .9-.1 1.4-.2.9-.3 1.8-.4 2.7-.4.5 0 1-.2 1.5-.3.8-.3 1.7-.7 2.5-1l2.7-1.1c1.8-.7 3.7-1.4 5.2-2.9.1-.1.2-.2.3-.2l.2-.2c.5-.5 1.1-.7 2-.8.6 0 1.2-.1 1.7-.1l.7-.1c.7-.1 1 .1 1.2.7.8 2 2.3 3.3 3.6 4.1 1.1.8 2.3.6 3.2-.3.2-.2.3-.4.4-.5 0-.1.1-.1.1-.2.3-.4.6-.9.9-1.3.7-1 1.3-2 2.1-2.9.9-1.2 2.1-2.5 3.8-3.2.6-.2 1.4-.6 1.8-1.6l.3-.6-1-.3zm-76.5-79.8c-.3-.3-.5-.6-.7-1-.4-.5-.7-1.1-1.1-1.7-.5-.9-1.1-1.8-1.7-2.6-.6-.8-.8-1.6-.8-2.5.1-1.5-.3-3-1.3-4.5l-.2-.3-.4.1c-.2 0-.3.1-.5.1-.4.1-.8.1-1.2.3-.5.2-.8.1-1.2-.4-.3-.3-.5-.6-.6-1.1.9-1.5 1.3-3.2 1.7-4.9.1-.6.3-1.1.4-1.7.4-1.5.2-2.8-.7-4l-.5-.7-.6 1c-.1.1-.1.2-.2.2-.4.6-.8.6-1.2.4-.2-.1-.5-.1-.7-.1-1.9-.1-2.2 0-3.4 1.4l-.3.3c-.2.2-.3.4-.5.5-.9-.3-1.8-.6-2.8-1-.5-.2-.9-.4-1.4-.6-.1 0-.3-.1-.3-.6v-1.4c-.1-1.2-.4-2-1.9-2.2-.7-.1-1.2-.4-1.8-1.1-.9-1.1-1.8-2.2-2.7-3.4-1.6-2-1.8-2.1-4.3-1.4-1 .3-2.1.6-3 1.1-1.3.8-2.7 1.5-4 2l-.2.1-.3.7c-.2.4-.4.7-.6 1.1l-1.7 3.6c-.8 1.6-1.5 3.2-2.3 4.8-.6 1.3-.6 1.3-2.3 1.2h-.3c-.1 0-.2 0-.3-.1l-.9-.1c-.7-.1-1.5-.2-2.2-.3-.8-.1-1.7.2-2.3.7-.6.5-.9 1.3-.9 2.1s-.3 1.4-.7 2.1l-.3.7 1.1.9c.6.5 1.1.9 1.7 1.4.6.5 1.2.6 2 .5 1.1-.2 1.9-.2 2.7.1.5.2 1 .4 1.6.5.8.3 1.5.5 2.3.8 1.8.7 3.7 1.3 5.7 1.7.5.1 1 .2 1.5.2l.6.1c.6.1.9.3 1.1.8.3.9.6 2 .3 3-.2.9-.3 1.8-.3 2.8 0 .9-.4 1.4-1.3 1.7-.3.1-.7.2-1 .2-.6.1-1.2.3-1.7.5l-.2.2-.2.4c-.1.1-.1.2-.1.4v.7c0 .4 0 .8-.1 1.2-.1 1.1.2 1.9 1.1 2.5-.1.2-.2.3-.5.5-.2.2-.5.4-.7.7l-.1.2v.2c.1 1.2.7 2 1.9 2h.1c.1 0 .3.1.5.1 1.4 0 2.4.5 3.2 1.7.4.6 1.1.8 1.8.6.7-.2 1.4-.3 2-.2l.1.2c.2.3.3.6.4.8.3.8.9 1.4 1.6 1.8.8.5 1.6.9 2.4 1.4.6.4 1.2.7 1.8 1.1l.4.1c.6.4 1.2.7 2 .9l.4.1.4-.6c.2-.2.3-.4.4-.7.2-.5.5-1 .6-1.6.2-.7.6-1.2 1.5-1.6.6-.3 1.1-.6 1.7-1 .6-.4 1.2-.7 1.8-1 .9-.5 1.5-1.1 1.7-2 .3-1.3 1.1-2 2.3-2.3 1.2-.3 2-1.3 2.4-2 .9-1.5 1.8-2.9 2.7-4.4l.1-.1 1.4 1.2.4-.3c.8-.7 1.4-1.3 2-2l.3-.3-.6-.9z"/><path class="st0" d="M246.5 129.6c-.1-.1-.1-.3-.3-.4-1.1-1.3-1.6-2.7-1.5-4.3v-2l-.6-.4c-.2-.1-.4-.3-.6-.4-.3-.1-.6-.3-.8-.4-.4-.2-.7-.3-1.1-.5-1.4-.8-2.2-1.6-2.5-2.8-.2-.7-.5-1.4-.7-2l-.2-.5c-.2-.5-.4-1-.7-1.5-.6-1.1-1.4-.9-1.9-.6l-.5.2c-.6.3-1.3.5-1.9.9-2 1-4 1.5-6 1.3-1.2-.1-2 .4-2.4 1.6l-.1.3c-.1.2-.2.5-.3.7-.2.5-.4.9-.7 1.3-.3.4-.6.6-1.2.7-2 .1-3.9.7-5.7 1.6-.4.2-.7.3-1.1.5-.7.3-1.5.7-2.2 1.1-1.1.7-2.3.8-3.6.5-.4-.1-.8-.1-1.2-.1h-.3c-.8-.1-1.6.3-1.9 1-.2.4-.6.7-1.2.9-1.5.7-3.1 1.7-4.2 3.4l-.1.1-.2.2-.1.2c-1.1 1.4-2.2 2.7-2.9 4.4 0 .1-.1.2-.2.3l-2.1.9.4.6c.5.7.7 1.5.6 2.3 0 .2-.1.4-.1.6 0 .2-.1.4-.1.5 0 .3-.1.6-.1.9v.5c-.1.8.2 1.4.8 1.9.9.8 1.8 1.6 2.7 2.5l1.4 1.3.4-.3c1.1-.9 2.1-.9 3.4 0v.2c.1 1.4.3 2.8-.6 4-.1.1-.1.3-.1.4l-.1.2.1.2c.1.1.2.3.2.4.2.4.4.8.7 1.1.8 1.1.8 2.4.8 3.7v.4c0 .1-.1.3-.2.5-.2.4-.4.8-.6 1.1-.3.5-.5.9-.8 1.4l-.2.3c-.2.4-.5.9-.6 1.6l-.1.8 3.9-.5c1.8-.2 3.5-.7 5.3-1.3.7-.2 1.2-.1 1.8.3.6.4 1.2.9 2.2 1.1h.2l.2-.1c.7-.4 1.5-.4 2.2-.4h.1c.9 0 2.2-.2 3-1.5.1-.1.3-.5 1-.5h2.3c.4 0 .9 0 1.3-.1.8-.2 1.3-.7 1.4-1.4.2-.9-.5-1.4-.9-1.6-.4-.3-.8-.5-1.1-.8-.5-.4-1-.7-1.5-1.1-.4-.3-.8-.7-1.1-1-.8-.9-.8-1.1.1-2l1.9-1.9c1.2-1.2 2.4-2.4 3.7-3.6.6-.6.9-1.2 1-2 .1-.9.3-1.8.5-2.6l.1-.7c.2-.7.6-1.2 1.2-1.5 1.6-.7 3.3-1.4 4.5-2 1.3-.6 2.6-1.3 3.8-1.9.5-.3 1-.6 1.6-.7.5-.1 1.1-.2 1.6-.8l.1-.1v-.2c.2-1.5.2-1.7 1.4-2.6.1-.1.2-.1.3-.2.2-.1.4-.2.5-.4.2-.2.3-.3.4-.5l.4-.5-.3-.2zm-137-65.9-.2-.2c-.1-.1-.2-.2-.4-.3l-1.2-.7c-1.4-.8-2.7-1.6-4.1-2.4-.7-.4-1.1-.8-1.3-1.5-.5-1.4-1-1.5-2.4-1.3-.1 0-.2 0-.3.1h-.2c-1 .2-1.5 0-1.9-.7-.5-1-1.5-1.5-2.8-1.5-.3 0-.5-.1-.8-.1-.3 0-.5-.1-.8-.1-.5 0-.8-.3-.9-.9-.2-.7-.1-.9.2-1.2.2-.1.3-.3.4-.4l.4-.5-.3-.4c-.1-.1-.2-.2-.2-.3-.1-.2-.2-.3-.3-.4-.1-.2-.2-.5-.2-.6 0-1 .1-1.9.2-2.9 0-.2.1-.3.1-.5l3.3-.8.2-.1.1-.2c.4-.5.8-1.1.6-1.8-.2-.5 0-1 .2-1.7.4-1.3.2-2.5 0-3.7-.2-.9-.8-1.4-1.7-1.6-.3-.1-.7-.1-1-.1-.2 0-.4 0-.7-.1-2.3-.4-4.4-1.2-6.6-2-1.9-.7-3.9-1.4-6.1-1.1-.8.1-1.5-.2-2.3-.9-.1-.1-.2-.2-.4-.3-.2-.2-.5-.5-.8-.7-.2-.2-.4-.3-.7-.4l-.5-.4-.4 1c-.1.3-.2.5-.3.7-.2.4-.3.8-.4 1.2-.3.9-.6 1.7-1 2.5l-.1.2c-.4.8-.8 1.6-.9 2.6-.2 1.6-1 2.9-2.7 4.2-.1 0-.1.1-.2.1s-.2.1-.2.2l-.1.1c-.6.4-1.1.9-1.7 1.3-1.2.9-1.9 2.2-2.1 3.7-.1.5-.2 1.1-.4 1.6-.8 1.8-1.8 3.6-2.9 5.4-1.2.5-2.5.8-3.8.8h-.6v.6c.1.8.5 1.3.9 1.7l1.2 1.2c.7.6 1.3 1.3 2 1.9.9.9 2 1.4 3.4 1.5h.2c.3 0 .7 0 .9.1 1.3.6 3 1.3 4.7 2.2.3.2.6.5.8.8l.1.1c.1.1.2.3.3.6.1.1.1.2.2.4.9 1.7 1.9 2.8 3.1 3.6.3.2.6.5.9.9.6.8 1.2 1.7 1.6 2.5.7 1.3 1.3 2.6 2.1 4.2.6 1.3.9 2.5.9 3.7 0 .3 0 .7.1 1.1.2 1.8.4 3.6.6 5.3.1.4.1.8.2 1.2v.2c0 .3.1.9.6 1.3l.3.2.4-.2c.5-.2 1.1-.5 1.7-1.1l.2-.2v-2.9c0-.7.2-1.2.6-1.7.3-.3.6-.7.8-1l.3-.4c.2-.2.3-.4.4-.6l.9-1.2c.8-.9 1.5-1.9 2.1-3.1.1-.2.2-.3.2-.5.2-.3.3-.7.5-1 .2-.7.7-1 1.5-1.2.3-.1.5-.1.8-.2.2-.1.3-.1.5-.2.8-.2 1.4-.7 1.6-1.5l.1-.2c.1-.3.2-.6.4-.9l.2-.4c.2-.4.4-.9.7-1.2 1.2-1.5 2.4-2.9 3.6-4.2 1.2-1.3 2.8-2.1 4.9-2.3.9-.1 1.8-.2 2.6-.4s1.2-.6 1.2-1.3l-.1-.3zm84.3-1.4c-.4-.3-.8-.5-1.2-.6-.7-.2-1.4-.5-2-1-.5-.3-1-.6-1.5-.8l-.3-.2c-.6-.3-1.1-.6-1.7-.9l-.6-.3c-.7-.3-1.3-.9-1.8-1.6-.7-.9-.6-2.1.1-2.9.4-.5.9-.9 1.5-1.2.2-.2.5-.3.9-.4.2-.1.4-.2.5-.2.7-.3 1.3-.8 1.4-1.4.1-.6-.4-1.2-.9-1.6-.5-.5-.6-.7-.6-.8 0-.1.1-.4.8-.9l3-2.1c.5-.3 1-.8 1.3-1.5.1-.2 0-.5-.1-.7l-.2-.6-.6.1c-.1 0-.3 0-.5.2-.4.4-.9.7-1.3 1.1s-.9.7-1.3 1.1c-.5.4-1 .8-1.6 1.3l-1.5 1.2c-.5.4-1.1.6-1.9.6h-.2c-.9 0-1.8-.1-2.7.1-.9.2-1.9.2-3 .2-1.8 0-3.3-.7-4.5-2-1.2-1.4-2.5-2.7-3.7-3.9-.4-.4-.9-.8-1.4-1.1l-.2-.1c-.3-.2-.6-.3-1-.2-.3.1-.6.3-.8.6-.3.5-.6 1-.8 1.5-.3.7-.8 1-1.7 1.1h-.5c-1.1-.1-2 .2-2.8 1.1-.5.6-1.1 1.1-1.6 1.6-.4.4-.9.8-1.2 1.2-1.4 1.5-3 2.7-4.7 3.6-.5.3-1 .6-1.4.9-.6.5-1.3 1.2-1.4 2.4-.1 1.4-.4 2.9-.6 4.3-.2 1-.4 1.9-.6 2.6-.3 1-.8 1.7-1.6 2.1-.9.5-1.5 1.2-2.1 1.9-.4.6-1 1-1.8 1.4-.4.2-.9.4-1.3.7l-1.1.6.2.5c.5 1.2.5 2.5.4 3.8v2.2c-.1 1.7.5 3.2 1.8 4.5.8.8 1.7 1.7 2.7 2.5.7.6 1.3 1.3 1.9 2.2.1.2.2.3.3.6l.5 1 1.1-.6c1.6-.9 3.1-1.8 4.2-3.3.2-.3.6-.7 1-1 .2-.1.4-.3.8-.1.7.2 1.2.3 1.8.4.5.1.9 0 1.3-.3s.6-.7.6-1.2v-.6c.4-.1.7-.1 1.1-.2.6-.1 1.2-.2 1.7-.2 1.1-.1 2.1-.2 3.1-.4 1.1-.2 1.9-.6 2.6-1.2.6-.5 1.4-.9 2.3-1.2 1.2-.4 2.5-.7 3.8-.9 1.4-.2 2.8-.5 4.1-1 1.3-.5 2.5-1 3.6-1.9.7-.6 1.4-1.1 2-1.7l.2-.2c.6-.5 1-.7 1.6-.8 1-.1 1.9-.6 2.5-1.3 1.3-1.6 2.8-2.7 4.7-3.5.5-.2.9-.6 1.2-.9.2-.2.3-.5.3-.8-.2-.4-.3-.7-.6-.9zm-37.9-38.5-.3-2.1c-.1-1.2-.4-2.6-1.6-3.5-.1-.1-.2-.2-.3-.4.1-.2.3-.4.7-.6.4-.3.9-.6 1.2-1.2l.1-.3-.6-.9c-.3-.5-.6-.9-.9-1.3-.4-.5-.6-.8-.8-1.1-.9-1.3-1-1.4-3-1.9l-.6-.2c-1.8-.5-2.8-1.3-3.5-2.5-.4-.6-.9-1.1-1.4-1.6l-.1-.1c-1.1-1-2.2-1.4-3.4-1.3-1.2.2-2.2-.3-3.5-1.4l-.4-.4-.6-.6-.1-.1c-.5-.4-1-.8-1.6-1.2-1.4-.9-2.9-.7-4.1.5-.8.7-1.1 1.6-1.4 2.3-.3.9-.4.9-1.2.9h-7.8c-.4 0-.7-.1-1-.4l-1.2-1.2-.5-.4c-.3-.3-.9-.9-1.8-.5-.6.2-1.2.7-1.2 1.8v1.4c0 .3-.1.5-.2.5-.7.6-1.3 1-2 1.1l-1.7.3c-.8.1-1.5.2-2.3.4-.8.1-1.7.2-2.6.3-.4 0-.6-.1-.7-.4 0-.1-.1-.1-.1-.2-.1-.3-.3-.9-1.1-1.1l-.6-.1-.1.6c0 .2-.1.4-.1.5-.1.4-.2.8-.2 1.3s-.3.9-.7 1.3l-1.5 1.2.4.8c.1.3.2.5.4.7.9 1.3 1.9 2.5 2.8 3.8.7.9 1.5 1.7 2.8 1.7l.2.1c.5.1.8.5.9 1 0 .2 0 .4.1.7v.4l.1 1.7 3.5 1.4c1.1.5 1.8 0 2.3-.5l.5-.5c.2-.2.3-.4.5-.5.4-.4.7-.5 1.1-.4.4.1.9.1 1.3.1h.5c.8.1 1.4-.4 1.7-.8.1-.1.2-.3.3-.4.1-.1.1-.2.2-.2.4.6.6 1.4.8 2.1l.1.4c0 .1 0 .4-.1.5-.2.7-.3 1.3-.5 2-.4 2-.9 3.9-1.8 5.6l-.2.3 1.5 1.9 1-.3 1.2-.3c.5-.1.5-.1.7.3.7 1.4 1.2 2.7 1.1 4-.1.6-.1 1.3.3 1.9.4.7.9 1.4 1.3 2.2.6 1 1.2 2 1.8 2.9.3.4.6 1 1.5 1.2h.2l.3-.1c.2-.1.4-.1.5-.2l5.2-2.7c1.5-.8 1.7-1 2-2.7.2-1.3.7-2 1.8-2.3.8-.2 1.4-.8 1.7-1.6.1-.3.3-.6.4-.9.1-.2.2-.5.4-.7.2-.5.6-.8 1.1-1.1.5-.2.9-.4 1.4-.7.7-.4 1.1-1.1.9-2 0-.2-.1-.4-.1-.5-.1-.2-.1-.5-.1-.7v-.2c1.3-.8 2.7-1.5 4.4-1.1 1.4.3 2.8.2 4.1.1h.2l.1-.2c.1-.1.2-.2.2-.3.1-.2.3-.4.4-.5 1.5-.9 1.4-2 1.4-2.8zm-99.6 92.4c-.4-.4-.8-.7-1.2-1-.4-.3-.7-.6-.8-.9h.4c1.2.1 2-.6 2.3-1.8v-.3l-.1-.2c0-.1-.1-.2-.3-.3-.2-.1-.3-.2-.5-.3l-.5-.3c-1.4-.7-1.6-.7-3.1.2-1.1.6-2 .7-2.9.2l-.3-.6c-.3-.7-.5-1.3-.8-2-.3-.7-.2-1.2.2-1.7.9-1 1.3-2.2 1.5-3 .2-.8.3-1.7-.3-2.6-1-1.7-2.1-3.5-3.5-5.2-1.8-2.1-3.5-4.5-5.3-7.8l-.3-.5c-.7-1.3-1.5-2.7-2.5-3.8L38 84l-1.6.7c-.8.3-1.6.7-2.5 1-.7.3-1.4.5-2.2.8l-2.4.9c-1.1.4-2.2.8-3.2 1.4-.6.3-1.2.5-1.9.5H8.4c-.8 0-1.5.3-2.1.8-1.4 1.2-3 2.7-5.1 3.8l-.5.1.3.5c0 .1 0 .2.1.3.1.2.2.4.4.6 1.1 1.2 2.3 2.4 3.4 3.5.3.3.7.6 1.2.8.7.2 1.2.6 1.8 1.4.6.9 1.4 1.4 2.6 1.5 1 .1 2 .2 3.1.3.6.1 1.3.2 1.9.2 1.3.1 2.4.5 3.4 1.1.4.2.8.4 1.3.7l3.7 1.8c1.7.8 3.4 1.7 5.2 2.5.4.2.8.4 1.2.7.2.2.3.3.2.4 0 .8-.1 1.5-.1 2.2 0 .3-.1.7-.1 1 0 .4-.1.8-.1 1.1 0 .5.1 1 .5 1.5 1 1.1 2.2 1.9 3.5 2.4.4.1.7.2 1.1.2.2 0 .3 0 .4.1.5.1 1.1.2 1.6.3 1.2.3 2.4.5 3.7.7.7.1 1.4.2 2 .2.7 0 1.4-.1 2.1-.2l.3-.1.2-.7c.1-.3.2-.6.2-.9l.1-.4c.1-.3.1-.6.2-.8.2-.3.4-.5.7-.6 1.6-.4 2.7-.1 3.7.8l1 1 .1.1c.1.2.3.3.4.5l.5.5c.4.5 1 .7 1.7.6.4-.1.8-.1 1.2-.3.8-.3 1.3-.9 1.5-1.6.2-.4-.1-1.1-.6-1.7z"/><path class="st0" d="M169.4 35.8c-.3-.5-.8-.7-1.4-.8h-.7c-1.6-.1-2.9-.5-4-1.4-.3-.2-.5-.5-.8-.7-.3-.3-.6-.6-.9-.8-.7-.6-1-1.2-.8-2.2v-.4c.4-1.4.4-2.9.3-4.2v-.6c-.1-1.8-.7-3.4-2-4.8-.4-.4-.8-.9-1.2-1.4-.2-.3-.5-.5-.7-.8l-.2-.3c-.4-.4-.8-.9-1.4-1.1l-.2-.1-.2.1c-.6.3-1.2.6-1.5 1.5l-.1.3.2.2c.7.7 1.1 1.5 1.2 2.4.1.7.2 1.4.2 2.1.1.6.1 1.1.2 1.7.1.8-.3 1.3-.9 2-.4.5-.9.6-1.7.6h-4.2c-.8 0-2.1.1-3.1 1.1l-.2.2v.7c0 .3 0 .7.1 1 .2.6 0 .9-.5 1.2-.1.1-.2.1-.3.2-.1.1-.2.1-.4.2-.8.4-1.5 1-2 1.8-.1.2-.2.3-.4.5-.2.3-.5.7-.6 1-.3.6-.7 1-1.3 1.2-1.5.5-2.2 1.5-2.2 2.9 0 .8-.4 1.4-1.2 1.8-.3.1-.5.3-.8.4l-1.1.5c-.6.3-1.3.6-1.9 1-1.6.8-3 1.9-4.4 3.4-.9 1-1 1.5-.3 2.7.7 1.2 1.4 2.4 2 3.7l.4.6c.1.2.2.3.4.5l.4.4h1.8c1.1 0 2.3 0 3.5-.2.6-.1 1.1-.2 1.6 0v.2c.1 1.3.1 2.5-.1 3.7-.1.5-.2 1-.4 1.6-.3 1-.5 2.1-.6 3.3-.1 1.3 0 2.6 1.4 3.5.2.1.3.3.5.5l.3.3c.5.6 1.1 1.2 2.1 1.4h.2l1-.4c1.5-.6 2.5-1.4 3.3-2.5.3-.5.8-.9 1.4-1.3 1-.7 1.6-1.5 1.9-2.6l.1-.5c.2-.6.4-1.3.4-1.9l.3-2.1.3-2.1c.1-1.2.6-1.9 1.7-2.5l.1-.1c.2-.1.3-.2.5-.3l.5-.3c.9-.6 1.7-1.2 2.6-1.8 1.7-1.2 3.2-2.8 4.6-4.3 1-1.1 1.9-1.5 3-1.4 1.2.1 2.2-.5 2.6-1.7.5-1.2 1-1.8 1.9-2.1l.4-.1V39c.1-.3.1-.5.2-.7l.3-.3.3-.3c.1-.2.3-.4.4-.6.4-.2.4-.8.1-1.3zM82.5 91.6c-.5-.6-1.1-1.3-1.6-1.9l-.5-.6c-.1-.1-.1-.1-.1-.2-.1-.2-.3-.4-.5-.5-.5-.4-.8-1-1-1.7-.3-1.3-.9-2.5-1.8-3.5-1-1.2-1.5-2.3-1.5-3.4 0-.4-.1-.8-.2-1.2-.4-1.7-1.4-3.1-3.2-4.7-.6-.5-1.2-1.1-1.8-1.6L70 72c-1.4-1.2-3-2.5-4.8-3.7-1.1-.7-2.2-1.2-3.5-1.5-.6-.1-1.3-.2-2.2-.1-.8 0-1.5.5-1.9 1.2l-.2.4c-.3.5-.6 1.1-.7 1.7-.3 1.3-1 2.3-2.2 3.5l-.8.8-.9.9c-1.4 1.3-2.8 2.3-4.4 2.9-.6.2-1.3.5-2 .9-1.3.7-2.7 1.3-4 1.9l-1 .4c-1.1.5-2.3 1-3.1 2.1l-.2.2.1.4c0 .2.1.3.1.4 1.4 2.8 2.8 5.3 4.3 7.6l.3.5c.5.9 1.1 1.7 1.8 2.5 1.7 1.8 3.1 3.9 4.4 6l.3.5c.2.3.3.7.3 1.2 0 1.3-.4 2.6-1.2 3.8-.5.7-.6 1.4-.4 2.2.1.6.2 1.2.4 1.7.3.8 1 1.3 1.9 1.4.2 0 .4 0 .8-.1 1-.2 1.8-.5 2.7-1.1l.2.1c.4.2.7.4 1.1.5.1.1.3.1.4.2.5.2 1 .5 1.7.5h.5l.1-.4c.6-2.3.8-4.6.9-7.1 0-1.5-.3-2.8-1-4l-.3-.5c-.3-.6-.6-1.1-1-1.7-.6-.9-.9-1.9-.8-3l.4-3.7.4-.1c.5-.2 1-.3 1.5-.5 1.1-.3 2.5-.9 3.3-2.4.3-.6.8-.8 1.6-.9h.4c.6 0 1.2.1 1.8-.1.7-.2 1.4-.2 2.2-.2h1c.8 0 1.4.2 2 .8.6.6 1.3 1.2 2 1.8.4.3.8.7 1.2 1 1 1 2.3 1.6 3.9 1.8 1.1.2 1.9.4 2.7.7.4.2.9.3 1.4.5.3.1.7 0 .9-.1.3-.2.5-.5.6-.9.1-.2-.1-.8-.5-1.3z"/><path class="st0" d="m85.4 116.1-.3-.9c-.3-1.1-.8-2-1.8-2.9l-.6-.5c-.5-.4-.9-.8-1.3-1.2-.9-.9-1.5-1.8-1.3-2.9.5-2.5 1.3-4.6 2.5-6.4l.6-.9.4-.6-.1-.2c-.1-.4-.2-.8-.3-1.1-.2-.8-.4-1.5-.5-2.3-.2-1.3-.9-2.1-2.2-2.5-.3-.1-.7-.2-1-.3-.8-.2-1.6-.5-2.4-.7-1.7-.4-3-1.1-4.2-2.3L71.5 89c-.4-.3-.8-.7-1.2-1l-.3-.3c-.7-.6-1.6-.8-2.5-.6-1.2.2-2.3.2-3.6.3h-.5c-1.4 0-2.4.6-2.9 1.6-.3.7-.9 1.1-1.8 1.4l-.6.2c-.4.1-.7.2-1.1.4-.2.1-.5.2-.7.3l-.7.3v1.2c0 .6 0 1.2-.2 1.8-.3 1.4 0 2.7.8 4 .6.9 1.4 2.2 1.7 3.6l.1.6c.2.9.4 1.8.3 2.8-.2 1.3-.3 2.6-.5 3.9l-.1.6c0 .2-.1.3-.1.5s-.1.4-.1.6c-.1.7.2 1.4.8 1.7.6.3 1.3.7 2 .9l2.7.9.9.3c1.4.5 2.4 1 3.2 1.7.4.3.8.6 1.3.9l.2.1c.8.5 1.7.5 2.6.1.6-.3 1.2-.6 1.9-.8.4-.2.8-.2 1.1-.2.5 0 .9.1 1.2.4.3.3.4.7.4 1.2v.6c0 .5 0 1.1.1 1.7l.1.6.9-.2c.3-.1.6-.1.8-.2l.4-.2c.8-.3 1.7-.6 2.5-1 1.2-.5 2.4-1.1 3.8-1.8.3-.2.5-.4.7-.6.1-.1.1-.2.2-.2l.3-.2-.2-.8zm5.3 45.9c-.7-.9-1.4-1.9-2.2-2.8-.1-.1-.2-.3-.3-.4.1-.2.4-.4.7-.6.4-.3.8-.6 1-1.1l.1-.2-.1-.2c-.3-.9-.8-1.6-1.3-2.4l-.2-.3h-.3c-1.3.2-2.4.8-3.2 1.4-.9.6-1.7.7-2.7.5-.2-.1-.5-.1-.7-.2s-.5-.1-.7-.2l-.2-.1c-.3-.1-.6-.2-1-.1-.5.2-1 .1-1.6 0l-.3-.1c-1.8-.3-3 .3-4 1.9-.5.9-1 1.8-1.4 2.6l-2.8 5.1c-1 .4-1.8.4-2.5.1l-.2-.1-.4.2c-.1.1-.2.1-.3.2-1.2 1-2.6 2.1-4.2 2.5-1 .3-1.5 1.1-1.7 1.6-.3.8-.7 1.5-1.1 2.3-.3.7-.7 1.4-1 2.1-.3.7-.6 1.3-.8 2l-.5 1.1.4.9c.2.4.4.9.6 1.3.3.9 1 1.4 1.8 1.5.6.1 1.1.2 1.7.4.6.2.9.3 1 .7.4.8 1.1 1 1.9.7.8-.2 1.5-.5 2.3-.8l.8-.3.4.2c.4.1.8.3 1.1.5s.7.3.9.6c.4.5 1 .6 1.4.6h.4c.6-.1 1.2-.4 1.7-.9l.2-.1c.4-.4.8-.8 1.2-1.3.4-.4.8-.6 1.2-.6h1.9c1.1.1 2-.2 3-.8.8-.6 1.7-1.1 2.6-1.6 1.3-.8 2.8-1.8 3.9-3.2 1-1.2 1.9-2.5 2.8-4 .3-.4.3-.9.4-1.4v-.2c.1-.6.2-1.1.2-1.7.1-.9.2-1.7.4-2.6.5-1.1.3-2-.3-2.7z"/><path class="st0" d="M67.3 151c-.8-2.2-2-4.3-3.6-6.8-.6-.9-1.4-1.5-2.4-1.8l-2.4-.7-1 .7c-.7.5-1.3.9-1.9 1.4-.4.3-.8.5-1.3.7-.6.3-1.2.6-1.8 1l-.5.4.5.5.3.3.6.6c1.5 1 1.5 1.2 1.5 2.4v.8c0 .7-.3 1.2-.9 1.6-.5.3-1.1.6-1.8.9l-.4.2c-.3.2-.7.3-1 .4l-.5.2c-.9.4-1.5 1-2 1.9-.6 1.2-1.2 2.2-1.8 3-1.8 2.5-4 3.8-6.6 3.9-.6 0-1 .4-1.1 1v.3l.2.2c2 1.9 3.3 4 4 6.2-.8.6-1.7 1.1-2.5 1.5-.9.5-1.7.9-2.4 1.4-1.3.9-2 2-2.1 3.4v.5l1.2.2c.5.1 1 .2 1.4.3s1 .1 1.5.2c.7.1 1.4.1 2.1.3 1.5.3 3 .3 4.5 0 2.2-.4 3.5-.1 4.6 1.1.1.1.2.1.2.1.6.5 1.1.7 1.5.7.7 0 1.2-.5 1.7-1.1.1-.1.2-.2.2-.3 1.5-2 2.5-3.7 3.2-5.4l.4-.8c.4-1 .9-1.9 1.3-2.9.3-.7.6-1 1.2-1.2.4-.1.8-.3 1.2-.5.8-.4 1.7-.9 2.5-1.4.4-.2 1.1-.7 1.2-1.7v-.2l-.3-.5-.6-.9c-.4-.5-.5-1-.5-1.7 0-.4.1-.9.1-1.3 0-.7.1-1.4.2-2 .1-1.1.5-2 1.2-2.9.2-.2.4-.5.5-.8.2-.8.3-1.6.4-2.3.1-.6 0-1 0-1.1z"/><path class="st0" d="m84.5 123.1-.3-.6c-.2-.4-.4-.7-.6-1.1-.2-.4-.2-.8-.3-1.3 0-.2-.1-.4-.1-.6l-.1-.4-.5-.1c-.2 0-.4-.1-.6 0l-.6.2c-.9.3-1.9.6-2.8.9-2.1.8-3.9 1.7-5.6 2.7l-.4.2.2 1c.1.4.1.7.2 1.1.3.9.2 1.8.2 2.7v.3c0 .6-.3 1.2-.8 1.6-1.6 1.3-3.3 1.9-5.1 1.6-.5-.1-1.1-.2-1.7-.2h-.5c-.5 0-.9 0-1.3-.2s-.8-.1-1.2 0c-.1 0-.2 0-.4.1-.2 0-.3 0-.5.1-.3.1-.6.1-.9 0-.7-.2-1.6-.3-2.6 0-.2.1-.5.2-.8-.4-.1-.2-.3-.4-.4-.7-.2-.3-.4-.7-.6-1-.2-.2-.6-.9-1.5-.6l-.3.1-.4 1.1c-.3.8-.6 1.5-.9 2.3-.1.4-.3.9-.2 1.4.2 1.2.5 2.7 1.6 3.8.7.8 1.5 1.6 2.4 2.1.3.2.6.4 1 .7l.2.1c.5.4.5.8.4 1.1-.1.3 0 .6.2.8l.1.2 1 .3 1.8.6c.5.1.8.4 1.1.8l.5.7c1.3 1.8 2.5 3.4 3.1 5.4 0 .1.1.3.2.4 0 .1.1.1.1.2.4 1.1 1.2 1.6 2.4 1.6h.7l.3-.6c.1-.3.3-.5.4-.8.2-.6.4-1.1.6-1.7.2-.7.5-1.4.8-2.1.8-2.1 1.8-4.4 3.4-6.1l1.8-1.8c1-.9 2.1-1.9 3.2-2.8l1.2-.9 1.2-.9.2-.2c.5-.4 1.1-.9 1.5-1.6l.1-.2-.4-1.2c-.2-.7-.4-1.4-.7-2.1-.2-.5-.1-.9.2-1.2.8-.8.9-1.7 1.1-2.5l.1-.3c.1-.6 0-1.4-.4-2z"/><path class="st0" d="m95.8 132.6-.1-.4-.6-.1c-.2 0-.3-.1-.6-.1h-7.8c-.8 0-1.5.2-2.1.8-.3.3-.7.5-1.1.8-.4.3-.9.6-1.3 1l-.7.6c-2 1.6-4.2 3.2-5.9 5.2-1.8 2-3 4.1-3.8 6.5-.4 1.2-.9 2.5-1.4 3.8-.2.4-.3.9-.6 1.2l-2.9.1v.5c-.1 1.3-.5 2.3-1.4 3.3-.4.4-.6 1-.6 1.6 0 .8-.1 1.6-.2 2.4 0 .5-.1 1-.1 1.4-.1 1.6.7 3 2.4 3.9.3.2.7.3 1.1.3.5 0 1.1-.2 1.6-1 .5-.7.9-1.4 1.3-2.1l.1-.2c.4-.6.7-1.2 1-1.9.6-1.1 1.3-2.3 2-3.4.6-.9 1.3-1.3 2.2-1.2h1.4c1.3 0 2.6 0 3.8.5.2.1.4.1.5.1.7.1 1.3.1 1.8-.3s.5-1.1.5-1.7v-2.4c0-.7.2-1.1.8-1.3.7-.3 1.3-.9 1.8-1.6l.4-.6c.3-.5.6-1 1-1.4.1-.2.3-.4.4-.6.3-.4.5-.9 1-1.2l.5.1c.6.1 1.3.2 1.9.3.4.1.9.1 1.3 0 1.4-.3 2.2-1.3 2-2.7-.1-.6-.2-1.3-.2-1.9-.1-.5-.1-1-.2-1.5-.2-2.1-.5-4.2.5-6.2.3-.2.3-.4.3-.6zm71.3 19.4c-.2-.4-.5-.8-.8-1.2l-.4-.6-.1-.1c-.2-.4-.4-.7-.4-1v-1c0-1 0-1.9.1-2.8.2-.9.2-2.1-.8-3.2 0 0-.1-.1-.1-.2.1-.5.3-1.2 0-2l-.1-.3h-.3c-1.4-.1-1.8-.1-3.3.6-.8.3-1.6.7-2.3 1.1-.7.4-1.5.6-2.4.4-1.2-.2-2.4-.2-3.6-.3h-1.2c-1.4-.1-2.6.5-3.6 1.5-2.1 2-2.7 4.5-2 7.4.1.4.2.9.4 1.3.2.8.5 1.6.6 2.4.5 2.4.7 4.6.7 6.6v.8c0 .9.5 1.6 1.3 2.1.4.2.9.4 1.3.7.7.4 1.4.8 2.2 1.1.6.3 1.1.5 1.7.7l.9.3c.4.2.9.3 1.3.3.8 0 1.6-.3 2.4-1 1.2-1.1 2.5-2.2 3.8-3.3l1.4-1.3c.5-.4.7-.9.8-1.5 0-.4.1-.9.1-1.3.1-.5.1-1.1.2-1.6 0-.4.2-.6.4-.9.6-.6 1.1-1.2 1.7-1.8.4-.5.5-1.2.1-1.9z"/><path class="st0" d="M116.5 154.6c-.2-.7-.5-1.3-1-1.9l-.2-.3-.4.1c-1.2.4-2.5.6-3.8.6-.6 0-1.2.2-1.9.5-.4.1-.7.3-1.1.5l-.6.3-.3.1c-.2.1-.4.2-.6.2-.4-.6-.5-1.2-.5-1.9v-.2c0-.7 0-1.7-.8-2.4l-.6-.2c-.3-.1-.7-.2-1-.3-.2-.1-.5-.2-.6-.6-.1-.2-.1-.4-.1-.5 0-.2-.1-.3-.1-.5-.1-.5-.2-1-.4-1.4-.3-.7-.9-1-1.6-.8-.5.1-1.1.2-1.7.2-.4 0-.8.1-1.2.1-.5.1-.7 0-.9-.6l-.1-.3c-.2-.4-.4-.9-.9-1.3l-.3-.2-.5.2c-.1.1-.3.1-.4.2-.5.4-1.2.6-2 .5-.5-.1-1-.1-1.5-.2l-.3-.1c-1-.2-1.8.2-2.2 1-.2.4-.5.8-.7 1.2-.2.4-.4.7-.6 1.1-.4.8-.9 1.3-1.6 1.7-.4.2-.7.4-.9.7-.4.4-.5.7-.6 1.1-.1 1.1-.2 2.2 0 3.5l.1.8 1.3-.6c.4-.2.7-.4 1.1-.5.3-.1.7-.3 1.1-.3h.1c.1.2.3.5.4.7.4.6.8 1.2 1 1.8l-1.9 1.9.3.4c.4.6.9 1.3 1.3 1.9.7.9 1.3 1.7 1.7 2.5l-.1 1c-.2 1.6-.4 3.2-.6 4.9 0 .3.1.5.2.7l.2.4h.4c.2 0 .4 0 .6-.1.3-.1.7-.1.9-.1 1.8.2 2.8-.9 3.4-1.7l.1-.1c.1-.1.2-.2.3-.4.6-.7 1.2-1 1.9-1.1.5-.1 1.1-.2 1.6-.3.5-.1 1.1-.2 1.6-.3 1.4-.1 2.2-.8 2.7-2 .2-.7.7-1.2 1.5-1.5.2-.1.4-.2.6-.4.1-.1.3-.2.4-.2.9-.5 1.9-1.2 2.1-2.7.1-.3.2-.7.9-.7 1.1-.1 2.1-.3 2.9-.5l.3-.1.1-.3c.2-.5.2-1 .2-1.4v-.7c.3-.3.8-.4 1.4-.4.5 0 1 0 1.5-.3l.4-.2v-.2z"/><path d="M102.8 121.8c-.1-.6-.1-1.2-.2-1.8v-5.9c0-1.2-.2-2.9-1.2-4.3-.1-.2-.2-.3-.3-.5l-.2-.3c-.7-1.2-1.6-2.3-2.6-3.2-.3-.3-.8-.7-1.6-.6h-.3l-.5.6c-.3.3-.6.7-.8 1.1-1 1.3-2.1 2.8-2.8 4.5-.3.7-.6 1-1 1.1-1 .3-1.7 1-1.9 2.2-.1.4-.3.8-.8 1-.8.5-1.7.9-2.6 1.3-.4.2-.8.4-1.3.6-.4.2-.7.3-1.1.5-.6.3-.9.9-.8 1.6v.2c.2 1 .3 2.2 1.3 3.1.2.2.3.5.3.9v1.4c.1 1.2-.2 2.1-.8 2.9-.1.1-.2.3-.3.4l-.2.5.1.3c.1.3.2.7.3 1 .2.7.4 1.4 1 2l.2.2h8.5c.9-.1 1.7-.2 2.4.1l.3.1.5-.4c.2-.2.4-.3.5-.5 1.8-1.8 3.3-3.9 4.8-6 1-1.4 1.3-2.6 1.1-4.1z" fill="#231815" stroke="#231815" stroke-miterlimit="10"/><path class="st0" d="M43.8 169.6c-1.4-2.7-2.9-4.8-4.8-6.6-.6-.6-1.3-.7-1.9-.7-1.8 0-3.7 0-5.5-.1-.6 0-1.1-.1-1.7-.1-.4 0-.8-.1-1.2-.1-1.4-.1-2.8-.1-4.2.3-1.4.4-2.4 1.3-2.7 2.5-.3 1.2-.3 2.2.2 3.1.1.1.1.3.2.4.1.2.2.5.4.8.4.7.5 1.4.3 2.1-.2.8-.2 1.6-.3 2.4v.9c-.1.9-.2 1.7-.4 2.5-.1.4-.3.7-.6 1.1-1.2 1.1-2.1 2.5-2.8 4.4l-.1.2.4.9c.2.5.5 1 .7 1.4.6 1 1.3 1.5 2.3 1.5.2 0 .5.1 1 .2.3.1.6.1.9.1.8 0 1.5-.3 2.1-.9 1-1.1 2.2-1.9 3.5-2.8l.5-.4c1.6-1.1 3.4-2.4 4.9-4 .8-.8 1.7-1.8 2.1-3.1.4-1 1-1.8 2-2.3.6-.3 1.1-.6 1.7-1l.3-.2c.5-.3 1.1-.7 1.6-1 .3-.2.5-.4.7-.6.1-.1.2-.2.2-.3l.4-.2-.2-.4zm32-51.7c-.1-.5-.3-.8-.6-1.1-.4-.3-1-.4-1.5-.3-.9.2-1.7.5-2.6.9l-.3.2c-.6.3-1.4.2-2.4-.3-.1-.1-.2-.2-.4-.3l-.2-.2c-1.6-1.2-3.2-2-4.9-2.5-1-.3-2-.7-2.9-1.1l-1.5-.6c-.2-.1-.5-.1-.7-.2l-.5-.1-.2.1c-.4.2-.7.5-1 .8-.4.4-.7.7-1.2.8l-1.2.2.9.8c.9.8 1.6 1.4 2.2 1.9l-.3 1.9c-.6.4-1.3.5-2 .7-.2.1-.5.1-.8.2-.1-.1-.2-.1-.3-.2-.3-.2-.6-.5-.9-.7-.7-.6-1.5-1.3-2.1-1.9-1.2-1.2-2.5-1-3.4-.8-.3.1-.9.4-1 .9 0 .2-.1.3-.2.5-.2.6-.5 1.3-.1 2.1l.1.3h.9c.3 0 .6 0 1 .1 1 .1 1.9.4 2.5 1 1.9 1.6 3.1 3.3 3.8 5.2l.1.3c0 .2.1.3.1.4.2.7.5 1.1 1.1 1.5.7.4 1.2 1 1.6 1.8.1.2.2.4.3.5l.3.4h2c.3 0 .5 0 .7.1.7.3 1.4.2 2.1-.1.6-.2 1-.3 1.4-.1.3.2.6.2.9.1.7 0 1.4.1 2.1.2l.3.1c.4.1.8.1 1.2.1 1.3 0 2.6-.4 3.7-1.1 1-.7 1.5-1.6 1.6-2.7 0-.6 0-1.2-.1-1.7-.1-.7-.3-1.4-.4-2.1-.1-.5 0-.8.4-1l.6-.3c.3-.2.6-.3.9-.5.2-.1.8-.6.8-1.2.2-1.2.2-2.2.1-3zm20.9-13.6-.2-.3c-.1-.2-.3-.4-.4-.5-.2-.3-.5-.5-.8-.7-.5-.4-1.1-.6-1.6-.7l-3.9-.3c-1.8-.2-3.8-.5-5.8-1.8l-.4-.3-.6.7c-.2.2-.3.3-.4.5-.8 1.2-1.4 2.4-1.8 3.6-.5 1.2-.7 2.4-.7 3.7 0 .8.3 1.4.9 2l1.3 1.3c.5.5 1.1 1 1.6 1.6.6.5.9 1.1 1.1 1.8.2.5.3 1.1.5 1.6s.7.8 1.1.8c.1 0 .2 0 .3-.1 1.2-.4 2.8-.9 3.1-2.9.2-1 .8-1.2 1.2-1.3.9-.1 1.2-.8 1.4-1.2l1.2-2.1c.4-.7.9-1.4 1.4-2 .3-.4.6-.9.9-1.3l.1-.1c.3-.4.6-.9.6-1.6l-.1-.4zm18 42.5c-.4-.9-.9-2-2.1-2.6-1.2-.6-2.4-1.3-3.6-1.9-.5-.2-1.1-.3-1.6-.4h-.2c-1.1-.2-2 .2-2.6 1.1-.7 1-1.5 1.9-2.4 2.5l-.3.2.3 1.3c.2.8.4 1.5.6 2.2.2.7.7 1.1 1.4 1.2.2 0 .3.1.4.1l.3.1c.4.1.5.3.6.5l.1.3c.1.5.2 1 .2 1.6v.3c0 .5.1 1.2.7 1.8l.3.3.6-.2c.2-.1.3-.1.4-.2 1.4-.9 2.8-1.3 4.1-1.3.7 0 1.3-.2 1.9-.3l.4-.1c.7-.2 1.1-.7 1.1-1.4v-.2c0-1.7 0-3.3-.6-4.9z"/></g><path d="M100.8 119.8c-.1-.6-.1-1.2-.2-1.8v-5.9c0-1.2-.2-2.9-1.2-4.3-.1-.2-.2-.3-.3-.5l-.2-.3c-.7-1.2-1.6-2.3-2.6-3.2-.3-.3-.8-.7-1.6-.6h-.3l-.5.6c-.3.3-.6.7-.8 1.1-1 1.3-2.1 2.8-2.8 4.5-.3.7-.6 1-1 1.1-1 .3-1.7 1-1.9 2.2-.1.4-.3.8-.8 1-.8.5-1.7.9-2.6 1.3-.4.2-.8.4-1.3.6-.4.2-.7.3-1.1.5-.6.3-.9.9-.8 1.6v.2c.2 1 .3 2.2 1.3 3.1.2.2.3.5.3.9v1.4c.1 1.2-.2 2.1-.8 2.9-.1.1-.2.3-.3.4l-.2.5.1.3c.1.3.2.7.3 1 .2.7.4 1.4 1 2l.2.2h8.5c.9-.1 1.7-.2 2.4.1l.3.1.5-.4c.2-.2.4-.3.5-.5 1.8-1.8 3.3-3.9 4.8-6 1-1.4 1.3-2.6 1.1-4.1z" fill="#ffd600" stroke="#231815" stroke-miterlimit="10"/><path d="M108.1 77.3H68.2c-6.2 0-11.2 5-11.2 11.2s5 11.2 11.2 11.2h15.7l4.3 5.7 4.3-5.7h15.7c6.2 0 11.2-5 11.2-11.2s-5.2-11.2-11.3-11.2z" fill="#fff" stroke="#231815" stroke-miterlimit="10"/><path d="M70.4 95.2c.6-.6.9-1.7 1-2.8l.7.2c-.1 1.1-.4 2.3-1.1 3l-.6-.4zm.3-4.4c.8 0 1.8-.1 2.9-.2v-1.3H71v-.8h2.6v-1.1h-2.4V82h6v5.3h-2.6v1.1h2.7v.8h-2.7v1.2l3-.2v.8c-2.5.2-5 .4-6.7.4l-.2-.6zm1.2-4.2h1.7v-3.8h-1.7v3.8zm.8-3.1c.3.7.5 1.7.5 2.4l-.5.1c0-.7-.2-1.6-.5-2.4l.5-.1zm.7 8.8c.2.8.4 1.9.4 2.7l-.7.1c0-.7-.2-1.8-.4-2.7l.7-.1zm1.5-.1c.4.8.7 1.8.8 2.5l-.7.1c-.1-.7-.4-1.7-.8-2.5l.7-.1zm1.4-9.4h-1.9v3.8h1.9v-3.8zm-1.6 3.1c.2-.7.5-1.8.7-2.5l.6.2c-.3.8-.6 1.8-.8 2.4l-.5-.1zm1.6 5.9c.6.7 1.1 1.7 1.4 2.3l-.7.3c-.2-.6-.8-1.6-1.3-2.3l.6-.3zm5-6v3H84v6.7h-1v-.7h-4v.7h-1v-6.8h2.3v-7.3h1v3.4h3.4v1h-3.4zm1.7 3.9h-4v4.1h4v-4.1zm16.1-1.5c-.7 1.3-1.6 2.6-2.7 3.7.6 1.7 1.3 2.7 2.2 2.7.4 0 .6-.8.7-2.8.2.2.6.4.9.5-.2 2.5-.6 3.3-1.7 3.3-1.2 0-2.2-1.1-2.9-3-1 .9-2.2 1.7-3.3 2.3-.2-.3-.5-.6-.7-.8 1.3-.7 2.6-1.5 3.7-2.6-.4-1.3-.7-2.8-.9-4.6h-3.7v2.6c.9-.2 1.9-.4 2.8-.6l.1.9-2.9.7v3.6c0 .7-.2 1-.6 1.2-.5.2-1.3.2-2.6.2 0-.3-.2-.7-.4-1h2.2c.3 0 .4-.1.4-.4v-3.3c-1.2.3-2.3.5-3.3.8l-.3-1c.9-.2 2.2-.4 3.6-.7V87h-3.4v-1h3.4v-2.6c-1 .2-2 .4-2.9.5 0-.2-.2-.6-.3-.9 2.2-.3 4.7-.9 6.1-1.4l.7.9c-.7.2-1.6.5-2.6.7V86h3.6c-.1-1.4-.2-2.9-.2-4.5h1.1c0 1.6.1 3.1.2 4.5h4.6v1h-4.5c.2 1.4.4 2.6.7 3.7.9-.9 1.6-1.9 2.1-3l.8.5zm-.4-3.1c-.5-.7-1.5-1.8-2.5-2.6l.8-.5c.9.8 2 1.9 2.5 2.6l-.8.5zm4.8 8.2c0-.7.5-1.1 1.2-1.1.6 0 1.2.4 1.2 1.1 0 .7-.5 1.2-1.2 1.2s-1.2-.5-1.2-1.2zm.4-8.7v-1.7h1.7v1.7l-.3 6.1h-.9l-.5-6.1z" fill="#231815"/></svg>