<svg fill="none" xmlns="http://www.w3.org/2000/svg" viewBox="0 0 3028 10">
  <circle cx="4.8" cy="5.2" r="4.4" transform="rotate(-90 4.8 5.2)" fill="#00698A" stroke="#231815" stroke-width=".8" />
  <circle cx="24" cy="5.2" r="4.4" transform="rotate(-90 24 5.2)" fill="#E86546" stroke="#231815" stroke-width=".8" />
  <circle cx="43.2" cy="5.2" r="4.4" transform="rotate(-90 43.2 5.2)" fill="#00698A" stroke="#231815" stroke-width=".8" />
  <circle cx="62.4" cy="5.2" r="4.4" transform="rotate(-90 62.4 5.2)" fill="#E2CCAF" stroke="#231815" stroke-width=".8" />
  <path d="M77.626 9V1.858h1.747l1.776 3.417.7 1.584h.049c-.096-.758-.23-1.785-.23-2.64V1.858h1.631V9h-1.747l-1.766-3.446-.701-1.565h-.048c.077.797.22 1.776.22 2.64V9h-1.631Zm8.291 0V1.858h4.531v1.42h-2.813v1.325h2.39v1.44h-2.39V7.56h2.919V9h-4.637Zm7.621 0-1.305-7.142h1.757l.45 3.254.289 2.266h.038a141.5 141.5 0 0 1 .423-2.266l.73-3.254h1.44l.748 3.254c.144.73.269 1.498.413 2.266h.048c.086-.768.182-1.527.269-2.266l.46-3.254h1.632L99.692 9h-2.16l-.643-3.11a20.668 20.668 0 0 1-.279-1.661h-.048c-.086.537-.172 1.113-.278 1.66L95.66 9h-2.122Zm13.854 0V3.278h-1.93v-1.42h5.588v1.42h-1.94V9h-1.718Zm6.862-2.966h1.459l-.154-.605c-.192-.71-.374-1.565-.566-2.295h-.039a94.583 94.583 0 0 1-.547 2.295l-.153.605ZM116.452 9l-.413-1.642h-2.112L113.514 9h-1.747l2.218-7.142h2.054L118.257 9h-1.805Zm3.515 0V1.858h1.718V9h-1.718Zm4.316 0V1.858h2.506c1.574 0 2.87.556 2.87 2.323 0 1.699-1.315 2.448-2.822 2.448h-.835V9h-1.719Zm1.719-3.725h.749c.835 0 1.238-.393 1.238-1.094 0-.72-.461-.97-1.286-.97h-.701v2.064ZM131.834 9V1.858h4.531v1.42h-2.813v1.325h2.391v1.44h-2.391V7.56h2.919V9h-4.637Zm7.007 0V1.858h1.718V9h-1.718Zm10.494.134c-1.815 0-3.351-1.248-3.351-3.667 0-2.38 1.594-3.744 3.408-3.744.932 0 1.68.432 2.17.931l-.902 1.095c-.356-.327-.73-.557-1.239-.557-.921 0-1.68.826-1.68 2.218 0 1.42.653 2.246 1.661 2.246.566 0 1.027-.288 1.363-.653l.903 1.075c-.605.701-1.402 1.056-2.333 1.056ZM153.674 9V1.858h1.718V9h-1.718Zm5.699 0V3.278h-1.93v-1.42h5.587v1.42h-1.939V9h-1.718Zm6.741 0V6.475l-2.151-4.617h1.824l.595 1.584c.192.537.375 1.036.576 1.593h.039c.201-.557.393-1.056.595-1.593l.595-1.584h1.795l-2.16 4.617V9h-1.708Z" fill="#231815" />
  <circle cx="185.2" cy="5.2" r="4.4" transform="rotate(-90 185.2 5.2)" fill="#00698A" stroke="#231815" stroke-width=".8" />
  <circle cx="204.4" cy="5.2" r="4.4" transform="rotate(-90 204.4 5.2)" fill="#E86546" stroke="#231815" stroke-width=".8" />
  <circle cx="223.6" cy="5.2" r="4.4" transform="rotate(-90 223.6 5.2)" fill="#00698A" stroke="#231815" stroke-width=".8" />
  <circle cx="242.8" cy="5.2" r="4.4" transform="rotate(-90 242.8 5.2)" fill="#E2CCAF" stroke="#231815" stroke-width=".8" />
  <path d="M260.243 9.134c-.931 0-1.929-.345-2.668-1.027l.969-1.18c.509.431 1.171.729 1.738.729.633 0 .931-.24.931-.624 0-.413-.394-.547-1.008-.806l-.912-.384c-.749-.298-1.45-.922-1.45-1.959 0-1.2 1.076-2.16 2.592-2.16.826 0 1.7.317 2.324.941l-.855 1.075c-.47-.355-.912-.547-1.469-.547-.528 0-.854.211-.854.595 0 .394.451.547 1.085.797l.893.355c.883.355 1.411.95 1.411 1.959 0 1.19-.999 2.236-2.727 2.236ZM265.117 9V1.858h4.531v1.42h-2.813v1.325h2.391v1.44h-2.391V7.56h2.919V9h-4.637Zm7.007 0V1.858h4.531v1.42h-2.813v1.325h2.391v1.44h-2.391V7.56h2.919V9h-4.637Zm11.399 0V6.475l-2.15-4.617h1.824l.595 1.584c.192.537.374 1.036.576 1.593h.038c.202-.557.394-1.056.595-1.593l.596-1.584h1.795l-2.16 4.617V9h-1.709Zm8.294.134c-1.949 0-3.274-1.401-3.274-3.744 0-2.342 1.325-3.667 3.274-3.667s3.273 1.335 3.273 3.667c0 2.343-1.324 3.744-3.273 3.744Zm0-1.478c.941 0 1.526-.874 1.526-2.266 0-1.382-.585-2.198-1.526-2.198-.941 0-1.517.816-1.517 2.198 0 1.392.576 2.266 1.517 2.266Zm8.42 1.478c-1.91 0-2.899-1.084-2.899-3.494V1.858h1.709v3.964c0 1.354.403 1.834 1.19 1.834.778 0 1.21-.48 1.21-1.834V1.858h1.651V5.64c0 2.41-.96 3.494-2.861 3.494ZM310.194 9V3.278h-1.929v-1.42h5.587v1.42h-1.939V9h-1.719Zm5.719 0V1.858h1.718v2.716h2.352V1.858h1.699V9h-1.699V6.062h-2.352V9h-1.718Zm8.394 0V1.858h4.531v1.42h-2.813v1.325h2.391v1.44h-2.391V7.56h2.919V9h-4.637Zm8.725-5.789v1.92h.768c.816 0 1.248-.355 1.248-1.027 0-.672-.432-.893-1.248-.893h-.768ZM337.093 9h-1.92l-1.315-2.515h-.826V9h-1.718V1.858h2.621c1.526 0 2.793.518 2.793 2.246 0 1.046-.489 1.718-1.228 2.064L337.093 9Zm1.978 0V1.858h4.531v1.42h-2.813v1.325h2.391v1.44h-2.391V7.56h2.919V9h-4.637Zm7.535-2.592-.25-3.245-.057-1.517h1.718l-.058 1.517-.249 3.245h-1.104Zm.547 2.726c-.586 0-1.008-.47-1.008-1.065 0-.586.422-1.056 1.008-1.056.595 0 1.018.47 1.018 1.056 0 .595-.423 1.065-1.018 1.065Z" fill="#231815" />
  <circle cx="363.6" cy="5.2" r="4.4" transform="rotate(-90 363.6 5.2)" fill="#00698A" stroke="#231815" stroke-width=".8" />
  <circle cx="382.8" cy="5.2" r="4.4" transform="rotate(-90 382.8 5.2)" fill="#E86546" stroke="#231815" stroke-width=".8" />
  <circle cx="402" cy="5.2" r="4.4" transform="rotate(-90 402 5.2)" fill="#00698A" stroke="#231815" stroke-width=".8" />
  <circle cx="421.2" cy="5.2" r="4.4" transform="rotate(-90 421.2 5.2)" fill="#E2CCAF" stroke="#231815" stroke-width=".8" />
  <path d="M436.426 9V1.858h1.747l1.776 3.417.701 1.584h.048c-.096-.758-.231-1.785-.231-2.64V1.858h1.632V9h-1.747l-1.766-3.446-.701-1.565h-.048c.077.797.221 1.776.221 2.64V9h-1.632Zm8.291 0V1.858h4.531v1.42h-2.812v1.325h2.39v1.44h-2.39V7.56h2.918V9h-4.637Zm7.621 0-1.305-7.142h1.757l.451 3.254.288 2.266h.038a141.5 141.5 0 0 1 .423-2.266l.729-3.254h1.44l.749 3.254c.144.73.269 1.498.413 2.266h.048c.086-.768.182-1.527.269-2.266l.46-3.254h1.632L458.492 9h-2.16l-.643-3.11a21.128 21.128 0 0 1-.279-1.661h-.048c-.086.537-.172 1.113-.278 1.66L454.46 9h-2.122Zm13.854 0V3.278h-1.93v-1.42h5.588v1.42h-1.94V9h-1.718Zm6.862-2.966h1.459l-.154-.605c-.192-.71-.374-1.565-.566-2.295h-.039a94.583 94.583 0 0 1-.547 2.295l-.153.605ZM475.252 9l-.413-1.642h-2.112L472.314 9h-1.747l2.218-7.142h2.054L477.057 9h-1.805Zm3.515 0V1.858h1.719V9h-1.719Zm4.316 0V1.858h2.506c1.574 0 2.87.556 2.87 2.323 0 1.699-1.315 2.448-2.822 2.448h-.835V9h-1.719Zm1.719-3.725h.749c.835 0 1.238-.393 1.238-1.094 0-.72-.461-.97-1.286-.97h-.701v2.064ZM490.634 9V1.858h4.531v1.42h-2.813v1.325h2.391v1.44h-2.391V7.56h2.919V9h-4.637Zm7.007 0V1.858h1.718V9h-1.718Zm10.494.134c-1.815 0-3.351-1.248-3.351-3.667 0-2.38 1.594-3.744 3.408-3.744.932 0 1.68.432 2.17.931l-.902 1.095c-.356-.327-.73-.557-1.239-.557-.921 0-1.68.826-1.68 2.218 0 1.42.653 2.246 1.661 2.246.566 0 1.027-.288 1.363-.653l.903 1.075c-.605.701-1.402 1.056-2.333 1.056ZM512.474 9V1.858h1.718V9h-1.718Zm5.699 0V3.278h-1.93v-1.42h5.587v1.42h-1.939V9h-1.718Zm6.741 0V6.475l-2.151-4.617h1.824l.595 1.584c.192.537.375 1.036.576 1.593h.039c.201-.557.393-1.056.595-1.593l.595-1.584h1.795l-2.16 4.617V9h-1.708Z" fill="#231815" />
  <circle cx="544" cy="5.2" r="4.4" transform="rotate(-90 544 5.2)" fill="#00698A" stroke="#231815" stroke-width=".8" />
  <circle cx="563.2" cy="5.2" r="4.4" transform="rotate(-90 563.2 5.2)" fill="#E86546" stroke="#231815" stroke-width=".8" />
  <circle cx="582.4" cy="5.2" r="4.4" transform="rotate(-90 582.4 5.2)" fill="#00698A" stroke="#231815" stroke-width=".8" />
  <circle cx="601.6" cy="5.2" r="4.4" transform="rotate(-90 601.6 5.2)" fill="#E2CCAF" stroke="#231815" stroke-width=".8" />
  <path d="M619.044 9.134c-.932 0-1.93-.345-2.669-1.027l.969-1.18c.509.431 1.172.729 1.738.729.634 0 .931-.24.931-.624 0-.413-.393-.547-1.008-.806l-.912-.384c-.749-.298-1.449-.922-1.449-1.959 0-1.2 1.075-2.16 2.592-2.16.825 0 1.699.317 2.323.94l-.855 1.076c-.47-.355-.912-.547-1.468-.547-.528 0-.855.211-.855.595 0 .394.451.547 1.085.797l.893.355c.883.355 1.411.95 1.411 1.959 0 1.19-.998 2.236-2.726 2.236ZM623.917 9V1.858h4.531v1.42h-2.812v1.325h2.39v1.44h-2.39V7.56h2.918V9h-4.637Zm7.007 0V1.858h4.531v1.42h-2.813v1.325h2.391v1.44h-2.391V7.56h2.919V9h-4.637Zm11.399 0V6.475l-2.15-4.617h1.824l.595 1.584c.192.537.374 1.036.576 1.593h.038c.202-.557.394-1.056.595-1.593l.596-1.584h1.795l-2.16 4.617V9h-1.709Zm8.294.134c-1.949 0-3.274-1.401-3.274-3.744 0-2.342 1.325-3.667 3.274-3.667s3.273 1.335 3.273 3.667c0 2.343-1.324 3.744-3.273 3.744Zm0-1.478c.941 0 1.526-.874 1.526-2.266 0-1.382-.585-2.198-1.526-2.198-.941 0-1.517.816-1.517 2.198 0 1.392.576 2.266 1.517 2.266Zm8.42 1.478c-1.91 0-2.899-1.084-2.899-3.494V1.858h1.709v3.964c0 1.354.403 1.834 1.19 1.834.778 0 1.21-.48 1.21-1.834V1.858h1.651V5.64c0 2.41-.96 3.494-2.861 3.494ZM668.995 9V3.278h-1.93v-1.42h5.587v1.42h-1.939V9h-1.718Zm5.718 0V1.858h1.718v2.716h2.352V1.858h1.699V9h-1.699V6.062h-2.352V9h-1.718Zm8.394 0V1.858h4.531v1.42h-2.812v1.325h2.39v1.44h-2.39V7.56h2.918V9h-4.637Zm8.725-5.789v1.92h.768c.816 0 1.248-.355 1.248-1.027 0-.672-.432-.893-1.248-.893h-.768ZM695.893 9h-1.92l-1.315-2.515h-.826V9h-1.718V1.858h2.621c1.526 0 2.793.518 2.793 2.246 0 1.046-.489 1.718-1.228 2.064L695.893 9Zm1.978 0V1.858h4.531v1.42h-2.813v1.325h2.391v1.44h-2.391V7.56h2.919V9h-4.637Zm7.535-2.592-.25-3.245-.057-1.517h1.718l-.058 1.517-.249 3.245h-1.104Zm.547 2.726c-.586 0-1.008-.47-1.008-1.065 0-.586.422-1.056 1.008-1.056.595 0 1.018.47 1.018 1.056 0 .595-.423 1.065-1.018 1.065Z" fill="#231815" />
  <circle cx="722.4" cy="5.2" r="4.4" transform="rotate(-90 722.4 5.2)" fill="#00698A" stroke="#231815" stroke-width=".8" />
  <circle cx="741.6" cy="5.2" r="4.4" transform="rotate(-90 741.6 5.2)" fill="#E86546" stroke="#231815" stroke-width=".8" />
  <circle cx="760.8" cy="5.2" r="4.4" transform="rotate(-90 760.8 5.2)" fill="#00698A" stroke="#231815" stroke-width=".8" />
  <circle cx="780" cy="5.2" r="4.4" transform="rotate(-90 780 5.2)" fill="#E2CCAF" stroke="#231815" stroke-width=".8" />
  <path d="M797.444 9.134c-.932 0-1.93-.345-2.669-1.027l.969-1.18c.509.431 1.172.729 1.738.729.634 0 .931-.24.931-.624 0-.413-.393-.547-1.008-.806l-.912-.384c-.749-.298-1.449-.922-1.449-1.959 0-1.2 1.075-2.16 2.592-2.16.825 0 1.699.317 2.323.94l-.855 1.076c-.47-.355-.912-.547-1.468-.547-.528 0-.855.211-.855.595 0 .394.451.547 1.085.797l.893.355c.883.355 1.411.95 1.411 1.959 0 1.19-.998 2.236-2.726 2.236ZM802.317 9V1.858h4.531v1.42h-2.812v1.325h2.39v1.44h-2.39V7.56h2.918V9h-4.637Zm7.007 0V1.858h4.531v1.42h-2.813v1.325h2.391v1.44h-2.391V7.56h2.919V9h-4.637Zm11.399 0V6.475l-2.15-4.617h1.824l.595 1.584c.192.537.374 1.036.576 1.593h.038c.202-.557.394-1.056.595-1.593l.596-1.584h1.795l-2.16 4.617V9h-1.709Zm8.294.134c-1.949 0-3.274-1.401-3.274-3.744 0-2.342 1.325-3.667 3.274-3.667s3.273 1.335 3.273 3.667c0 2.343-1.324 3.744-3.273 3.744Zm0-1.478c.941 0 1.526-.874 1.526-2.266 0-1.382-.585-2.198-1.526-2.198-.941 0-1.517.816-1.517 2.198 0 1.392.576 2.266 1.517 2.266Zm8.42 1.478c-1.91 0-2.899-1.084-2.899-3.494V1.858h1.709v3.964c0 1.354.403 1.834 1.19 1.834.778 0 1.21-.48 1.21-1.834V1.858h1.651V5.64c0 2.41-.96 3.494-2.861 3.494ZM847.395 9V3.278h-1.93v-1.42h5.587v1.42h-1.939V9h-1.718Zm5.718 0V1.858h1.718v2.716h2.352V1.858h1.699V9h-1.699V6.062h-2.352V9h-1.718Zm8.394 0V1.858h4.531v1.42h-2.812v1.325h2.39v1.44h-2.39V7.56h2.918V9h-4.637Zm8.725-5.789v1.92H871c.816 0 1.248-.355 1.248-1.027 0-.672-.432-.893-1.248-.893h-.768ZM874.293 9h-1.92l-1.315-2.515h-.826V9h-1.718V1.858h2.621c1.526 0 2.793.518 2.793 2.246 0 1.046-.489 1.718-1.228 2.064L874.293 9Zm1.978 0V1.858h4.531v1.42h-2.813v1.325h2.391v1.44h-2.391V7.56h2.919V9h-4.637Zm7.535-2.592-.25-3.245-.057-1.517h1.718l-.058 1.517-.249 3.245h-1.104Zm.547 2.726c-.586 0-1.008-.47-1.008-1.065 0-.586.422-1.056 1.008-1.056.595 0 1.018.47 1.018 1.056 0 .595-.423 1.065-1.018 1.065Z" fill="#231815" />
  <circle cx="900.8" cy="5.2" r="4.4" transform="rotate(-90 900.8 5.2)" fill="#00698A" stroke="#231815" stroke-width=".8" />
  <circle cx="920" cy="5.2" r="4.4" transform="rotate(-90 920 5.2)" fill="#E86546" stroke="#231815" stroke-width=".8" />
  <circle cx="939.2" cy="5.2" r="4.4" transform="rotate(-90 939.2 5.2)" fill="#00698A" stroke="#231815" stroke-width=".8" />
  <circle cx="958.4" cy="5.2" r="4.4" transform="rotate(-90 958.4 5.2)" fill="#E2CCAF" stroke="#231815" stroke-width=".8" />
  <path d="M975.844 9.134c-.932 0-1.93-.345-2.669-1.027l.969-1.18c.509.431 1.172.729 1.738.729.634 0 .931-.24.931-.624 0-.413-.393-.547-1.008-.806l-.912-.384c-.749-.298-1.449-.922-1.449-1.959 0-1.2 1.075-2.16 2.592-2.16.825 0 1.699.317 2.323.94l-.855 1.076c-.47-.355-.912-.547-1.468-.547-.528 0-.855.211-.855.595 0 .394.451.547 1.085.797l.893.355c.883.355 1.411.95 1.411 1.959 0 1.19-.998 2.236-2.726 2.236ZM980.717 9V1.858h4.531v1.42h-2.812v1.325h2.39v1.44h-2.39V7.56h2.918V9h-4.637Zm7.007 0V1.858h4.531v1.42h-2.813v1.325h2.391v1.44h-2.391V7.56h2.919V9h-4.637Zm11.399 0V6.475l-2.15-4.617h1.824l.595 1.584c.192.537.374 1.036.576 1.593h.042c.2-.557.39-1.056.59-1.593l.6-1.584h1.79l-2.16 4.617V9h-1.707Zm8.297.134c-1.95 0-3.28-1.401-3.28-3.744 0-2.342 1.33-3.667 3.28-3.667 1.95 0 3.27 1.335 3.27 3.667 0 2.343-1.32 3.744-3.27 3.744Zm0-1.478c.94 0 1.52-.874 1.52-2.266 0-1.382-.58-2.198-1.52-2.198-.94 0-1.52.816-1.52 2.198 0 1.392.58 2.266 1.52 2.266Zm8.42 1.478c-1.91 0-2.9-1.084-2.9-3.494V1.858h1.71v3.964c0 1.354.4 1.834 1.19 1.834.77 0 1.21-.48 1.21-1.834V1.858h1.65V5.64c0 2.41-.96 3.494-2.86 3.494Zm9.95-.134V3.278h-1.92v-1.42h5.58v1.42h-1.94V9h-1.72Zm5.72 0V1.858h1.72v2.716h2.35V1.858h1.7V9h-1.7V6.062h-2.35V9h-1.72Zm8.4 0V1.858h4.53v1.42h-2.81v1.325h2.39v1.44h-2.39V7.56h2.91V9h-4.63Zm8.72-5.789v1.92h.77c.82 0 1.25-.355 1.25-1.027 0-.672-.43-.893-1.25-.893h-.77ZM1052.69 9h-1.92l-1.31-2.515h-.83V9h-1.72V1.858h2.62c1.53 0 2.8.518 2.8 2.246 0 1.046-.49 1.718-1.23 2.064L1052.69 9Zm1.98 0V1.858h4.53v1.42h-2.81v1.325h2.39v1.44h-2.39V7.56h2.92V9h-4.64Zm7.54-2.592-.25-3.245-.06-1.517h1.72l-.06 1.517-.25 3.245h-1.1Zm.54 2.726c-.58 0-1-.47-1-1.065 0-.586.42-1.056 1-1.056.6 0 1.02.47 1.02 1.056 0 .595-.42 1.065-1.02 1.065Z" fill="#231815" />
  <circle cx="1079.2" cy="5.2" r="4.4" transform="rotate(-90 1079.2 5.2)" fill="#00698A" stroke="#231815" stroke-width=".8" />
  <circle cx="1098.4" cy="5.2" r="4.4" transform="rotate(-90 1098.4 5.2)" fill="#E86546" stroke="#231815" stroke-width=".8" />
  <circle cx="1117.6" cy="5.2" r="4.4" transform="rotate(-90 1117.6 5.2)" fill="#00698A" stroke="#231815" stroke-width=".8" />
  <circle cx="1136.8" cy="5.2" r="4.4" transform="rotate(-90 1136.8 5.2)" fill="#E2CCAF" stroke="#231815" stroke-width=".8" />
  <path d="M1154.24 9.134c-.93 0-1.93-.345-2.67-1.027l.97-1.18c.51.431 1.18.729 1.74.729.64 0 .93-.24.93-.624 0-.413-.39-.547-1.01-.806l-.91-.384c-.75-.298-1.45-.922-1.45-1.959 0-1.2 1.08-2.16 2.6-2.16.82 0 1.69.317 2.32.94l-.86 1.076c-.47-.355-.91-.547-1.46-.547-.53 0-.86.211-.86.595 0 .394.45.547 1.09.797l.89.355c.88.355 1.41.95 1.41 1.959 0 1.19-1 2.236-2.73 2.236Zm4.88-.134V1.858h4.53v1.42h-2.81v1.325h2.39v1.44h-2.39V7.56h2.91V9h-4.63Zm7 0V1.858h4.54v1.42h-2.82v1.325h2.39v1.44h-2.39V7.56h2.92V9h-4.64Zm11.4 0V6.475l-2.15-4.617h1.83l.59 1.584c.19.537.38 1.036.58 1.593h.04c.2-.557.39-1.056.59-1.593l.6-1.584h1.79l-2.16 4.617V9h-1.71Zm8.3.134c-1.95 0-3.28-1.401-3.28-3.744 0-2.342 1.33-3.667 3.28-3.667 1.95 0 3.27 1.335 3.27 3.667 0 2.343-1.32 3.744-3.27 3.744Zm0-1.478c.94 0 1.52-.874 1.52-2.266 0-1.382-.58-2.198-1.52-2.198-.94 0-1.52.816-1.52 2.198 0 1.392.58 2.266 1.52 2.266Zm8.42 1.478c-1.91 0-2.9-1.084-2.9-3.494V1.858h1.71v3.964c0 1.354.4 1.834 1.19 1.834.77 0 1.21-.48 1.21-1.834V1.858h1.65V5.64c0 2.41-.96 3.494-2.86 3.494Zm9.95-.134V3.278h-1.93v-1.42h5.59v1.42h-1.94V9h-1.72Zm5.72 0V1.858h1.72v2.716h2.35V1.858h1.7V9h-1.7V6.062h-2.35V9h-1.72Zm8.4 0V1.858h4.53v1.42h-2.81v1.325h2.39v1.44h-2.39V7.56h2.91V9h-4.63Zm8.72-5.789v1.92h.77c.82 0 1.25-.355 1.25-1.027 0-.672-.43-.893-1.25-.893h-.77ZM1231.09 9h-1.92l-1.31-2.515h-.83V9h-1.72V1.858h2.62c1.53 0 2.8.518 2.8 2.246 0 1.046-.49 1.718-1.23 2.064L1231.09 9Zm1.98 0V1.858h4.53v1.42h-2.81v1.325h2.39v1.44h-2.39V7.56h2.92V9h-4.64Zm7.54-2.592-.25-3.245-.06-1.517h1.72l-.06 1.517-.25 3.245h-1.1Zm.54 2.726c-.58 0-1.01-.47-1.01-1.065 0-.586.43-1.056 1.01-1.056.6 0 1.02.47 1.02 1.056 0 .595-.42 1.065-1.02 1.065Z" fill="#231815" />
  <circle cx="1257.6" cy="5.2" r="4.4" transform="rotate(-90 1257.6 5.2)" fill="#00698A" stroke="#231815" stroke-width=".8" />
  <circle cx="1276.8" cy="5.2" r="4.4" transform="rotate(-90 1276.8 5.2)" fill="#E86546" stroke="#231815" stroke-width=".8" />
  <circle cx="1296" cy="5.2" r="4.4" transform="rotate(-90 1296 5.2)" fill="#00698A" stroke="#231815" stroke-width=".8" />
  <circle cx="1315.2" cy="5.2" r="4.4" transform="rotate(-90 1315.2 5.2)" fill="#E2CCAF" stroke="#231815" stroke-width=".8" />
  <path d="M1332.64 9.134c-.93 0-1.93-.345-2.67-1.027l.97-1.18c.51.431 1.18.729 1.74.729.64 0 .93-.24.93-.624 0-.413-.39-.547-1.01-.806l-.91-.384c-.75-.298-1.45-.922-1.45-1.959 0-1.2 1.08-2.16 2.6-2.16.82 0 1.69.317 2.32.94l-.86 1.076c-.47-.355-.91-.547-1.46-.547-.53 0-.86.211-.86.595 0 .394.45.547 1.09.797l.89.355c.88.355 1.41.95 1.41 1.959 0 1.19-1 2.236-2.73 2.236Zm4.88-.134V1.858h4.53v1.42h-2.81v1.325h2.39v1.44h-2.39V7.56h2.91V9h-4.63Zm7 0V1.858h4.53v1.42h-2.81v1.325h2.39v1.44h-2.39V7.56h2.92V9h-4.64Zm11.4 0V6.475l-2.15-4.617h1.83l.59 1.584c.19.537.38 1.036.58 1.593h.04c.2-.557.39-1.056.59-1.593l.6-1.584h1.79l-2.16 4.617V9h-1.71Zm8.3.134c-1.95 0-3.28-1.401-3.28-3.744 0-2.342 1.33-3.667 3.28-3.667 1.95 0 3.27 1.335 3.27 3.667 0 2.343-1.32 3.744-3.27 3.744Zm0-1.478c.94 0 1.52-.874 1.52-2.266 0-1.382-.58-2.198-1.52-2.198-.94 0-1.52.816-1.52 2.198 0 1.392.58 2.266 1.52 2.266Zm8.42 1.478c-1.91 0-2.9-1.084-2.9-3.494V1.858h1.71v3.964c0 1.354.4 1.834 1.19 1.834.77 0 1.21-.48 1.21-1.834V1.858h1.65V5.64c0 2.41-.96 3.494-2.86 3.494Zm9.95-.134V3.278h-1.93v-1.42h5.59v1.42h-1.94V9h-1.72Zm5.72 0V1.858h1.72v2.716h2.35V1.858h1.7V9h-1.7V6.062h-2.35V9h-1.72Zm8.4 0V1.858h4.53v1.42h-2.81v1.325h2.39v1.44h-2.39V7.56h2.91V9h-4.63Zm8.72-5.789v1.92h.77c.82 0 1.25-.355 1.25-1.027 0-.672-.43-.893-1.25-.893h-.77ZM1409.49 9h-1.92l-1.31-2.515h-.83V9h-1.72V1.858h2.62c1.53 0 2.8.518 2.8 2.246 0 1.046-.49 1.718-1.23 2.064L1409.49 9Zm1.98 0V1.858h4.53v1.42h-2.81v1.325h2.39v1.44h-2.39V7.56h2.92V9h-4.64Zm7.54-2.592-.25-3.245-.06-1.517h1.72l-.06 1.517-.25 3.245h-1.1Zm.54 2.726c-.58 0-1.01-.47-1.01-1.065 0-.586.43-1.056 1.01-1.056.6 0 1.02.47 1.02 1.056 0 .595-.42 1.065-1.02 1.065Z" fill="#231815" />
  <circle cx="1436" cy="5.2" r="4.4" transform="rotate(-90 1436 5.2)" fill="#00698A" stroke="#231815" stroke-width=".8" />
  <circle cx="1455.2" cy="5.2" r="4.4" transform="rotate(-90 1455.2 5.2)" fill="#E86546" stroke="#231815" stroke-width=".8" />
  <circle cx="1474.4" cy="5.2" r="4.4" transform="rotate(-90 1474.4 5.2)" fill="#00698A" stroke="#231815" stroke-width=".8" />
  <circle cx="1493.6" cy="5.2" r="4.4" transform="rotate(-90 1493.6 5.2)" fill="#E2CCAF" stroke="#231815" stroke-width=".8" />
  <path d="M1511.04 9.134c-.93 0-1.93-.345-2.67-1.027l.97-1.18c.51.431 1.17.729 1.74.729.63 0 .93-.24.93-.624 0-.413-.39-.547-1.01-.806l-.91-.384c-.75-.298-1.45-.922-1.45-1.959 0-1.2 1.08-2.16 2.59-2.16.83 0 1.7.317 2.33.94l-.86 1.076c-.47-.355-.91-.547-1.47-.547-.52 0-.85.211-.85.595 0 .394.45.547 1.09.797l.89.355c.88.355 1.41.95 1.41 1.959 0 1.19-1 2.236-2.73 2.236Zm4.88-.134V1.858h4.53v1.42h-2.81v1.325h2.39v1.44h-2.39V7.56h2.91V9h-4.63Zm7 0V1.858h4.53v1.42h-2.81v1.325h2.39v1.44h-2.39V7.56h2.92V9h-4.64Zm11.4 0V6.475l-2.15-4.617h1.83l.59 1.584c.19.537.38 1.036.58 1.593h.04c.2-.557.39-1.056.59-1.593l.6-1.584h1.79l-2.16 4.617V9h-1.71Zm8.3.134c-1.95 0-3.28-1.401-3.28-3.744 0-2.342 1.33-3.667 3.28-3.667 1.95 0 3.27 1.335 3.27 3.667 0 2.343-1.32 3.744-3.27 3.744Zm0-1.478c.94 0 1.52-.874 1.52-2.266 0-1.382-.58-2.198-1.52-2.198-.94 0-1.52.816-1.52 2.198 0 1.392.58 2.266 1.52 2.266Zm8.42 1.478c-1.91 0-2.9-1.084-2.9-3.494V1.858h1.71v3.964c0 1.354.4 1.834 1.19 1.834.77 0 1.21-.48 1.21-1.834V1.858h1.65V5.64c0 2.41-.96 3.494-2.86 3.494Zm9.95-.134V3.278h-1.93v-1.42h5.59v1.42h-1.94V9h-1.72Zm5.72 0V1.858h1.72v2.716h2.35V1.858h1.7V9h-1.7V6.062h-2.35V9h-1.72Zm8.4 0V1.858h4.53v1.42h-2.81v1.325h2.39v1.44h-2.39V7.56h2.91V9h-4.63Zm8.72-5.789v1.92h.77c.82 0 1.25-.355 1.25-1.027 0-.672-.43-.893-1.25-.893h-.77ZM1587.89 9h-1.92l-1.31-2.515h-.83V9h-1.72V1.858h2.62c1.53 0 2.8.518 2.8 2.246 0 1.046-.49 1.718-1.23 2.064L1587.89 9Zm1.98 0V1.858h4.53v1.42h-2.81v1.325h2.39v1.44h-2.39V7.56h2.92V9h-4.64Zm7.54-2.592-.25-3.245-.06-1.517h1.72l-.06 1.517-.25 3.245h-1.1Zm.54 2.726c-.58 0-1.01-.47-1.01-1.065 0-.586.43-1.056 1.01-1.056.6 0 1.02.47 1.02 1.056 0 .595-.42 1.065-1.02 1.065Z" fill="#231815" />
  <circle cx="1614.4" cy="5.2" r="4.4" transform="rotate(-90 1614.4 5.2)" fill="#00698A" stroke="#231815" stroke-width=".8" />
  <circle cx="1633.6" cy="5.2" r="4.4" transform="rotate(-90 1633.6 5.2)" fill="#E86546" stroke="#231815" stroke-width=".8" />
  <circle cx="1652.8" cy="5.2" r="4.4" transform="rotate(-90 1652.8 5.2)" fill="#00698A" stroke="#231815" stroke-width=".8" />
  <circle cx="1672" cy="5.2" r="4.4" transform="rotate(-90 1672 5.2)" fill="#E2CCAF" stroke="#231815" stroke-width=".8" />
  <path d="M1689.44 9.134c-.93 0-1.93-.345-2.67-1.027l.97-1.18c.51.431 1.17.729 1.74.729.63 0 .93-.24.93-.624 0-.413-.39-.547-1.01-.806l-.91-.384c-.75-.298-1.45-.922-1.45-1.959 0-1.2 1.08-2.16 2.59-2.16.83 0 1.7.317 2.33.94l-.86 1.076c-.47-.355-.91-.547-1.47-.547-.52 0-.85.211-.85.595 0 .394.45.547 1.09.797l.89.355c.88.355 1.41.95 1.41 1.959 0 1.19-1 2.236-2.73 2.236Zm4.88-.134V1.858h4.53v1.42h-2.82v1.325h2.4v1.44h-2.4V7.56h2.92V9h-4.63Zm7 0V1.858h4.53v1.42h-2.81v1.325h2.39v1.44h-2.39V7.56h2.92V9h-4.64Zm11.4 0V6.475l-2.15-4.617h1.83l.59 1.584c.19.537.38 1.036.58 1.593h.04c.2-.557.39-1.056.59-1.593l.6-1.584h1.79l-2.16 4.617V9h-1.71Zm8.3.134c-1.95 0-3.28-1.401-3.28-3.744 0-2.342 1.33-3.667 3.28-3.667 1.94 0 3.27 1.335 3.27 3.667 0 2.343-1.33 3.744-3.27 3.744Zm0-1.478c.94 0 1.52-.874 1.52-2.266 0-1.382-.58-2.198-1.52-2.198-.94 0-1.52.816-1.52 2.198 0 1.392.58 2.266 1.52 2.266Zm8.42 1.478c-1.91 0-2.9-1.084-2.9-3.494V1.858h1.71v3.964c0 1.354.4 1.834 1.19 1.834.77 0 1.21-.48 1.21-1.834V1.858h1.65V5.64c0 2.41-.96 3.494-2.86 3.494Zm9.95-.134V3.278h-1.93v-1.42h5.59v1.42h-1.94V9h-1.72Zm5.72 0V1.858h1.72v2.716h2.35V1.858h1.7V9h-1.7V6.062h-2.35V9h-1.72Zm8.4 0V1.858h4.53v1.42h-2.82v1.325h2.4v1.44h-2.4V7.56h2.92V9h-4.63Zm8.72-5.789v1.92h.77c.82 0 1.25-.355 1.25-1.027 0-.672-.43-.893-1.25-.893h-.77ZM1766.29 9h-1.92l-1.31-2.515h-.83V9h-1.72V1.858h2.62c1.53 0 2.8.518 2.8 2.246 0 1.046-.49 1.718-1.23 2.064L1766.29 9Zm1.98 0V1.858h4.53v1.42h-2.81v1.325h2.39v1.44h-2.39V7.56h2.92V9h-4.64Zm7.54-2.592-.25-3.245-.06-1.517h1.72l-.06 1.517-.25 3.245h-1.1Zm.54 2.726c-.58 0-1.01-.47-1.01-1.065 0-.586.43-1.056 1.01-1.056.6 0 1.02.47 1.02 1.056 0 .595-.42 1.065-1.02 1.065Z" fill="#231815" />
  <circle cx="1792.8" cy="5.2" r="4.4" transform="rotate(-90 1792.8 5.2)" fill="#00698A" stroke="#231815" stroke-width=".8" />
  <circle cx="1812" cy="5.2" r="4.4" transform="rotate(-90 1812 5.2)" fill="#E86546" stroke="#231815" stroke-width=".8" />
  <circle cx="1831.2" cy="5.2" r="4.4" transform="rotate(-90 1831.2 5.2)" fill="#00698A" stroke="#231815" stroke-width=".8" />
  <circle cx="1850.4" cy="5.2" r="4.4" transform="rotate(-90 1850.4 5.2)" fill="#E2CCAF" stroke="#231815" stroke-width=".8" />
  <path d="M1867.84 9.134c-.93 0-1.93-.345-2.67-1.027l.97-1.18c.51.431 1.17.729 1.74.729.63 0 .93-.24.93-.624 0-.413-.39-.547-1.01-.806l-.91-.384c-.75-.298-1.45-.922-1.45-1.959 0-1.2 1.08-2.16 2.59-2.16.83 0 1.7.317 2.33.94l-.86 1.076c-.47-.355-.91-.547-1.47-.547-.52 0-.85.211-.85.595 0 .394.45.547 1.08.797l.9.355c.88.355 1.41.95 1.41 1.959 0 1.19-1 2.236-2.73 2.236Zm4.88-.134V1.858h4.53v1.42h-2.82v1.325h2.39v1.44h-2.39V7.56h2.92V9h-4.63Zm7 0V1.858h4.53v1.42h-2.81v1.325h2.39v1.44h-2.39V7.56h2.92V9h-4.64Zm11.4 0V6.475l-2.15-4.617h1.83l.59 1.584c.19.537.38 1.036.58 1.593h.04c.2-.557.39-1.056.59-1.593l.6-1.584h1.79l-2.16 4.617V9h-1.71Zm8.3.134c-1.95 0-3.28-1.401-3.28-3.744 0-2.342 1.33-3.667 3.28-3.667 1.94 0 3.27 1.335 3.27 3.667 0 2.343-1.33 3.744-3.27 3.744Zm0-1.478c.94 0 1.52-.874 1.52-2.266 0-1.382-.58-2.198-1.52-2.198-.94 0-1.52.816-1.52 2.198 0 1.392.58 2.266 1.52 2.266Zm8.42 1.478c-1.91 0-2.9-1.084-2.9-3.494V1.858h1.71v3.964c0 1.354.4 1.834 1.19 1.834.77 0 1.21-.48 1.21-1.834V1.858h1.65V5.64c0 2.41-.96 3.494-2.86 3.494Zm9.95-.134V3.278h-1.93v-1.42h5.59v1.42h-1.94V9h-1.72Zm5.72 0V1.858h1.72v2.716h2.35V1.858h1.7V9h-1.7V6.062h-2.35V9h-1.72Zm8.4 0V1.858h4.53v1.42h-2.82v1.325h2.39v1.44h-2.39V7.56h2.92V9h-4.63Zm8.72-5.789v1.92h.77c.82 0 1.25-.355 1.25-1.027 0-.672-.43-.893-1.25-.893h-.77ZM1944.69 9h-1.92l-1.31-2.515h-.83V9h-1.72V1.858h2.62c1.53 0 2.8.518 2.8 2.246 0 1.046-.49 1.718-1.23 2.064L1944.69 9Zm1.98 0V1.858h4.53v1.42h-2.81v1.325h2.39v1.44h-2.39V7.56h2.92V9h-4.64Zm7.53-2.592-.24-3.245-.06-1.517h1.72l-.06 1.517-.25 3.245h-1.11Zm.55 2.726c-.58 0-1.01-.47-1.01-1.065 0-.586.43-1.056 1.01-1.056.6 0 1.02.47 1.02 1.056 0 .595-.42 1.065-1.02 1.065Z" fill="#231815" />
  <circle cx="1971.2" cy="5.2" r="4.4" transform="rotate(-90 1971.2 5.2)" fill="#00698A" stroke="#231815" stroke-width=".8" />
  <circle cx="1990.4" cy="5.2" r="4.4" transform="rotate(-90 1990.4 5.2)" fill="#E86546" stroke="#231815" stroke-width=".8" />
  <circle cx="2009.6" cy="5.2" r="4.4" transform="rotate(-90 2009.6 5.2)" fill="#00698A" stroke="#231815" stroke-width=".8" />
  <circle cx="2028.8" cy="5.2" r="4.4" transform="rotate(-90 2028.8 5.2)" fill="#E2CCAF" stroke="#231815" stroke-width=".8" />
  <path d="M2046.24 9.134c-.93 0-1.93-.345-2.67-1.027l.97-1.18c.51.431 1.17.729 1.74.729.63 0 .93-.24.93-.624 0-.413-.39-.547-1.01-.807l-.91-.384c-.75-.297-1.45-.921-1.45-1.958 0-1.2 1.08-2.16 2.59-2.16.83 0 1.7.317 2.33.94l-.86 1.076c-.47-.355-.91-.547-1.47-.547-.52 0-.85.211-.85.595 0 .394.45.547 1.08.797l.9.355c.88.355 1.41.95 1.41 1.958 0 1.19-1 2.237-2.73 2.237Zm4.88-.134V1.857h4.53v1.421h-2.82v1.325h2.39v1.44h-2.39V7.56h2.92V9h-4.63Zm7 0V1.857h4.53v1.421h-2.81v1.325h2.39v1.44h-2.39V7.56h2.92V9h-4.64Zm11.4 0V6.475l-2.15-4.618h1.83l.59 1.584c.19.538.38 1.037.58 1.594h.04c.2-.557.39-1.056.59-1.594l.6-1.584h1.79l-2.16 4.618V9h-1.71Zm8.3.134c-1.95 0-3.28-1.401-3.28-3.744 0-2.342 1.33-3.667 3.28-3.667 1.94 0 3.27 1.334 3.27 3.667 0 2.343-1.33 3.744-3.27 3.744Zm0-1.478c.94 0 1.52-.874 1.52-2.266 0-1.382-.58-2.198-1.52-2.198-.95 0-1.52.816-1.52 2.198 0 1.392.57 2.266 1.52 2.266Zm8.42 1.478c-1.91 0-2.9-1.085-2.9-3.494V1.857h1.71v3.965c0 1.354.4 1.834 1.19 1.834.77 0 1.21-.48 1.21-1.834V1.857h1.65V5.64c0 2.41-.96 3.494-2.86 3.494Zm9.95-.134V3.278h-1.93v-1.42h5.59v1.42h-1.94V9h-1.72Zm5.72 0V1.857h1.72v2.717h2.35V1.857h1.7V9h-1.7V6.062h-2.35V9h-1.72Zm8.4 0V1.857h4.53v1.421h-2.82v1.325h2.39v1.44h-2.39V7.56h2.92V9h-4.63Zm8.72-5.789v1.92h.77c.82 0 1.25-.355 1.25-1.027 0-.672-.43-.893-1.25-.893h-.77ZM2123.09 9h-1.92l-1.31-2.515h-.83V9h-1.72V1.857h2.62c1.53 0 2.8.519 2.8 2.247 0 1.046-.49 1.718-1.23 2.064L2123.09 9Zm1.98 0V1.857h4.53v1.421h-2.81v1.325h2.39v1.44h-2.39V7.56h2.92V9h-4.64Zm7.53-2.592-.25-3.245-.05-1.517h1.72l-.06 1.517-.25 3.245h-1.11Zm.55 2.726c-.58 0-1.01-.47-1.01-1.065 0-.586.43-1.056 1.01-1.056.6 0 1.02.47 1.02 1.056 0 .595-.42 1.065-1.02 1.065Z" fill="#231815" />
  <circle cx="2149.6" cy="5.2" r="4.4" transform="rotate(-90 2149.6 5.2)" fill="#00698A" stroke="#231815" stroke-width=".8" />
  <circle cx="2168.8" cy="5.2" r="4.4" transform="rotate(-90 2168.8 5.2)" fill="#E86546" stroke="#231815" stroke-width=".8" />
  <circle cx="2188" cy="5.2" r="4.4" transform="rotate(-90 2188 5.2)" fill="#00698A" stroke="#231815" stroke-width=".8" />
  <circle cx="2207.2" cy="5.2" r="4.4" transform="rotate(-90 2207.2 5.2)" fill="#E2CCAF" stroke="#231815" stroke-width=".8" />
</svg>