<svg fill="none" xmlns="http://www.w3.org/2000/svg" viewBox="0 0 280 506"><rect x=".5" y=".5" width="279" height="504.35" rx="4.5" fill="#FFE177"/><g clip-path="url(#clip0_94_6218)" stroke="#231815" stroke-miterlimit="10"><path d="M84.32 27.21c.34 1.64 1.95 2.83 3.83 2.84l103.68.44c1.88 0 3.5-1.17 3.85-2.81l4.41-20.48c.67-3.11-1.07-6.21-3.48-6.22L83.06.5C80.7.49 79.29 2.97 79.92 6l4.4 21.2v.01Z" fill="#00698A"/><path d="M116.48 17.4c.14 1.03.82 1.78 1.61 1.79l43.77.23c.79 0 1.48-.74 1.63-1.77l1.87-12.91c.28-1.96-.45-3.91-1.47-3.92L115.95.57c-.99 0-1.59 1.56-1.33 3.47l1.85 13.36h.01Zm69.19-7.19c0-1.42 1.16-2.56 2.58-2.55 1.42 0 2.56 1.16 2.55 2.58 0 1.42-1.16 2.56-2.57 2.55-1.42 0-2.56-1.16-2.55-2.58h-.01Zm-10.74-.02c0-1.42 1.16-2.56 2.58-2.55 1.42 0 2.56 1.16 2.55 2.58 0 1.42-1.16 2.56-2.58 2.55-1.42 0-2.56-1.16-2.55-2.58Zm-80.59-.28c0-1.42-1.15-2.57-2.56-2.57-1.42 0-2.57 1.15-2.57 2.56 0 1.42 1.15 2.57 2.56 2.57 1.42 0 2.57-1.15 2.57-2.56Zm10.73.02c0-1.42-1.15-2.57-2.56-2.57-1.42 0-2.57 1.15-2.57 2.56 0 1.42 1.15 2.57 2.56 2.57 1.42 0 2.57-1.15 2.57-2.56Z" fill="#FFE177"/></g><path d="M119.96 52.702v.744l.984-.024c-.12-.168-.24-.336-.36-.48l.552-.24h-1.176Zm-4.368-1.8h1.416v-.648h-1.416v.648Zm0-2.976v.624h1.416v-.624h-1.416Zm5.784 0h-1.416v.624h1.416v-.624Zm0 2.976v-.648h-1.416v.648h1.416Zm-8.832 5.088-.192-2.424c1.296 0 2.904-.024 4.656-.072v-.792h-4.104v-6.576h4.104v-.624h-4.416v-2.52h4.416V41.47h2.952v1.512h4.632v2.52h-4.632v.624h4.248v6.576h-.696c.648.888 1.248 1.896 1.584 2.64l-2.424 1.176c-.096-.24-.216-.528-.36-.816-3.528.144-7.128.216-9.768.288Zm6.6 5.28v-2.04h-2.688c.552.648 1.032 1.368 1.296 1.944l-.696.432c.696.024 1.416.024 1.632.024.336-.024.456-.096.456-.36Zm-13.824-8.112v.984h.912v-.984h-.912Zm0-3.192v.96h.912v-.96h-.912Zm4.104.96v-.96h-.984v.96h.984Zm0 3.216v-.984h-.984v.984h.984Zm12.912 1.8v.768h2.616v2.52h-2.616v2.136c0 1.416-.264 2.136-1.272 2.568-1.008.408-2.28.432-3.96.432-.096-.72-.408-1.608-.696-2.352l-1.128.696c-.336-.84-1.128-2.088-1.944-2.952l.912-.528H112.4v1.44h-3.528v3.576H105.8V60.67h-3.672v-3.024h3.672v-1.128h-2.88V47.59h2.88v-1.008h-3.312v-2.976h3.312v-2.112h3.072v2.112h3.24v2.976h-3.24v1.008h3.048v8.928h-3.048v1.128h3.528v-.936h6.744v-.768h3.192Zm24.024-3.24v.744l.984-.024c-.12-.168-.24-.336-.36-.48l.552-.24h-1.176Zm-4.368-1.8h1.416v-.648h-1.416v.648Zm0-2.976v.624h1.416v-.624h-1.416Zm5.784 0h-1.416v.624h1.416v-.624Zm0 2.976v-.648h-1.416v.648h1.416Zm-8.832 5.088-.192-2.424c1.296 0 2.904-.024 4.656-.072v-.792h-4.104v-6.576h4.104v-.624h-4.416v-2.52h4.416V41.47h2.952v1.512h4.632v2.52h-4.632v.624h4.248v6.576h-.696c.648.888 1.248 1.896 1.584 2.64l-2.424 1.176c-.096-.24-.216-.528-.36-.816-3.528.144-7.128.216-9.768.288Zm6.6 5.28v-2.04h-2.688c.552.648 1.032 1.368 1.296 1.944l-.696.432c.696.024 1.416.024 1.632.024.336-.024.456-.096.456-.36Zm-13.824-8.112v.984h.912v-.984h-.912Zm0-3.192v.96h.912v-.96h-.912Zm4.104.96v-.96h-.984v.96h.984Zm0 3.216v-.984h-.984v.984h.984Zm12.912 1.8v.768h2.616v2.52h-2.616v2.136c0 1.416-.264 2.136-1.272 2.568-1.008.408-2.28.432-3.96.432-.096-.72-.408-1.608-.696-2.352l-1.128.696c-.336-.84-1.128-2.088-1.944-2.952l.912-.528H138.8v1.44h-3.528v3.576H132.2V60.67h-3.672v-3.024h3.672v-1.128h-2.88V47.59h2.88v-1.008h-3.312v-2.976h3.312v-2.112h3.072v2.112h3.24v2.976h-3.24v1.008h3.048v8.928h-3.048v1.128h3.528v-.936h6.744v-.768h3.192Zm16.368-11.112v-1.104h-.816v1.104h.816Zm2.52-3v4.872h-5.712V41.83h5.712Zm-8.616 10.128v.72h1.176v-.72h-1.176Zm0-2.592v.72h1.176v-.72h-1.176Zm5.208.72v-.72h-1.248v.72h1.248Zm0 2.592v-.72h-1.248v.72h1.248Zm-8.256 1.992v-7.296h11.448v7.296H155.96Zm2.856-9.84v-1.104h-.744v1.104h.744Zm2.448-3v4.872h-5.52V41.83h5.52Zm7.152 13.344v2.4H155v-2.4h13.416Zm-8.88 6.024h4.296v-.792h-4.296v.792Zm18.168-10.2h-3.6c.6 4.272 1.776 8.256 4.056 10.44-.768.624-1.896 1.944-2.424 2.88-1.488-1.608-2.496-3.816-3.216-6.432-.792 2.328-1.992 4.536-3.816 6.384-.336-.432-.96-1.056-1.56-1.584v1.344h-3.312v-.48h-4.296v.72h-3.168v-6.168h10.776v2.688c2.472-2.856 3.12-6.6 3.312-9.792h-2.712v-3.192h2.76v-6.36h3.384v1.632l2.52-.912c.696 1.32 1.392 3.048 1.608 4.2l-2.904 1.08c-.12-1.008-.648-2.568-1.224-3.888v4.248h3.816v3.192Z" fill="#231815"/><path d="M15.5 199.99c0-68.759 55.74-124.5 124.5-124.5 68.76 0 124.5 55.741 124.5 124.5v120a4.5 4.5 0 0 1-4.5 4.5H20a4.5 4.5 0 0 1-4.5-4.5v-120Z" fill="#fff" stroke="#231815"/><g clip-path="url(#clip1_94_6218)"><path d="M137.053 179.109c-8.875 10.999-24.483 15.739-37.978 11.53-.698-.214-1.387-.457-2.058-.689-2.077-.718-4.042-1.397-5.923-1.351-1.732.047-3.818 1.248-3.818 2.682a2.596 2.596 0 0 1-2.58 2.599 2.588 2.588 0 0 1-2.589-2.58c0-2.235 1.071-4.293 3.027-5.811 1.63-1.258 3.753-2.012 5.82-2.068 2.822-.074 5.337.792 7.758 1.63.661.233 1.285.447 1.909.643 5.523 1.722 11.79 1.695 17.667-.094 5.876-1.778 11.101-5.243 14.733-9.741" fill="#231815"/><path d="M137.053 179.109c-8.875 10.999-24.483 15.739-37.978 11.53-.698-.214-1.387-.457-2.058-.689-2.077-.718-4.042-1.397-5.923-1.351-1.732.047-3.818 1.248-3.818 2.682a2.596 2.596 0 0 1-2.58 2.599 2.588 2.588 0 0 1-2.589-2.58c0-2.235 1.071-4.293 3.027-5.811 1.63-1.258 3.753-2.012 5.82-2.068 2.822-.074 5.337.792 7.758 1.63.661.233 1.285.447 1.909.643 5.523 1.722 11.79 1.695 17.667-.094 5.876-1.778 11.101-5.243 14.733-9.741" stroke="#231815" stroke-miterlimit="10"/><path d="M236.087 175.384a.477.477 0 0 1-.307-.195c-.187-.252-1.844-1.909-2.18-2.17a.37.37 0 0 1-.139-.093.479.479 0 0 1 0-.662c1.965-1.955 3.324-4.162 4.907-6.714.42-.671.848-1.369 1.314-2.096a.473.473 0 0 1 .391-.214.45.45 0 0 1 .233.065c1.741.997 4.256 3.539 5.252 5.057a.47.47 0 0 1-.112.634c-1.285.95-2.626 1.909-3.976 2.831-.503.344-1.015.698-1.528 1.043-1.266.857-2.468 1.676-3.492 2.449a.44.44 0 0 1-.279.093h-.075l-.009-.028Z" fill="#231815"/><path d="M240.073 163.696c1.685.96 4.144 3.465 5.094 4.908a127.355 127.355 0 0 1-3.958 2.822c-1.751 1.202-3.576 2.403-5.038 3.502-.187-.289-2.254-2.338-2.375-2.338 2.514-2.505 4.014-5.336 6.286-8.894m0-.931a.918.918 0 0 0-.782.429c-.466.726-.894 1.424-1.313 2.095-1.565 2.533-2.915 4.722-4.843 6.64l.661.661v.932a.821.821 0 0 1-.493-.149c.279.214 1.881 1.797 2.114 2.095a.913.913 0 0 0 .614.391c.047 0 .093.009.14.009.205 0 .4-.074.568-.195 1.024-.773 2.216-1.583 3.483-2.44.503-.345 1.015-.689 1.518-1.034 1.35-.931 2.691-1.881 3.986-2.84a.927.927 0 0 0 .223-1.258c-1.024-1.564-3.613-4.181-5.41-5.205a.941.941 0 0 0-.466-.122v-.009Zm-51.472 30.854c-5.793 0-10.496-4.712-10.496-10.496 0-5.783 4.712-10.495 10.496-10.495 5.783 0 10.495 4.712 10.495 10.495 0 5.784-4.712 10.496-10.495 10.496Z" fill="#231815"/><path d="M188.609 173.084c5.542 0 10.03 4.489 10.03 10.03 0 5.541-4.488 10.03-10.03 10.03a10.028 10.028 0 0 1-10.03-10.03c0-5.541 4.489-10.03 10.03-10.03Zm0-.931c-6.044 0-10.961 4.917-10.961 10.961 0 6.044 4.917 10.961 10.961 10.961 6.045 0 10.962-4.917 10.962-10.961 0-6.044-4.917-10.961-10.962-10.961Z" fill="#231815"/><path d="M203.194 196.273c-4.378 0-7.935-3.558-7.935-7.935s3.557-7.934 7.935-7.934c4.377 0 7.934 3.557 7.934 7.934 0 4.377-3.557 7.935-7.934 7.935Z" fill="#231815"/><path d="M203.194 180.87a7.468 7.468 0 1 1 0 14.937 7.468 7.468 0 0 1-7.469-7.469 7.468 7.468 0 0 1 7.469-7.468Zm0-.932c-4.629 0-8.401 3.772-8.401 8.4 0 4.629 3.772 8.401 8.401 8.401 4.628 0 8.4-3.772 8.4-8.401 0-4.628-3.772-8.4-8.4-8.4Z" fill="#231815"/><path d="M216.492 194.96c-4.377 0-7.934-3.558-7.934-7.935s3.557-7.934 7.934-7.934c4.377 0 7.935 3.557 7.935 7.934 0 4.377-3.558 7.935-7.935 7.935Z" fill="#231815"/><path d="M216.492 179.547a7.468 7.468 0 0 1 7.469 7.469 7.468 7.468 0 0 1-7.469 7.469 7.468 7.468 0 0 1-7.469-7.469 7.468 7.468 0 0 1 7.469-7.469Zm0-.931c-4.628 0-8.4 3.771-8.4 8.4 0 4.628 3.772 8.4 8.4 8.4 4.629 0 8.401-3.772 8.401-8.4 0-4.629-3.772-8.4-8.401-8.4Z" fill="#231815"/><path d="M225.88 188.655a6.342 6.342 0 1 0 0-12.684 6.342 6.342 0 0 0 0 12.684Z" fill="#231815"/><path d="M225.88 176.437a5.876 5.876 0 0 1 5.876 5.876 5.87 5.87 0 0 1-5.876 5.877 5.872 5.872 0 0 1-5.877-5.877 5.87 5.87 0 0 1 5.877-5.876Zm0-.932a6.817 6.817 0 0 0-6.808 6.808 6.817 6.817 0 0 0 6.808 6.808c3.753 0 6.807-3.055 6.807-6.808 0-3.753-3.054-6.808-6.807-6.808Z" fill="#231815"/><path d="M232.203 181.531a5.22 5.22 0 0 1-5.215-5.215 5.22 5.22 0 0 1 5.215-5.216 5.219 5.219 0 0 1 5.215 5.216 5.218 5.218 0 0 1-5.215 5.215Z" fill="#231815"/><path d="M232.203 171.557a4.75 4.75 0 0 1 4.75 4.749 4.758 4.758 0 0 1-4.75 4.75 4.757 4.757 0 0 1-4.749-4.75 4.756 4.756 0 0 1 4.749-4.749Zm0-.932a5.686 5.686 0 0 0-5.681 5.681 5.692 5.692 0 0 0 5.681 5.681 5.692 5.692 0 0 0 5.681-5.681 5.692 5.692 0 0 0-5.681-5.681Zm-177.83-11.343a.44.44 0 0 1-.28-.093c-1.024-.773-2.225-1.592-3.492-2.449-.512-.345-1.024-.689-1.527-1.043a165.828 165.828 0 0 1-3.976-2.831.47.47 0 0 1-.112-.634c.996-1.518 3.51-4.06 5.252-5.056a.507.507 0 0 1 .233-.066c.158 0 .307.075.391.215.466.726.894 1.424 1.304 2.095 1.583 2.561 2.952 4.768 4.917 6.724a.46.46 0 0 1-.14.754c-.335.261-2.002 1.919-2.179 2.17a.48.48 0 0 1-.307.196h-.075l-.009.018Z" fill="#231815"/><path d="M50.471 147.585c2.263 3.558 3.772 6.389 6.286 8.894-.12 0-2.179 2.058-2.374 2.337-1.453-1.098-3.288-2.3-5.039-3.501a127.475 127.475 0 0 1-3.958-2.822c.95-1.443 3.409-3.949 5.094-4.908m0-.931a.938.938 0 0 0-.465.121c-1.798 1.024-4.387 3.641-5.411 5.206a.934.934 0 0 0 .223 1.257c1.295.959 2.636 1.918 3.986 2.84.503.345 1.015.69 1.518 1.034 1.267.857 2.468 1.677 3.493 2.44a.937.937 0 0 0 .559.186c.055 0 .102 0 .158-.009a.926.926 0 0 0 .615-.4c.214-.28 1.806-1.863 2.095-2.077a.82.82 0 0 1-.494.149v-.922l.662-.661c-1.928-1.919-3.279-4.107-4.843-6.64-.42-.671-.848-1.369-1.313-2.096a.92.92 0 0 0-.783-.428Zm51.454 30.854c-5.792 0-10.495-4.713-10.495-10.496s4.712-10.496 10.495-10.496c5.784 0 10.496 4.713 10.496 10.496s-4.712 10.496-10.496 10.496Z" fill="#231815"/><path d="M101.934 156.973c5.541 0 10.03 4.488 10.03 10.03 0 5.541-4.489 10.03-10.03 10.03a10.028 10.028 0 0 1-10.03-10.03c0-5.542 4.489-10.03 10.03-10.03Zm0-.932c-6.044 0-10.961 4.917-10.961 10.962 0 6.044 4.917 10.961 10.961 10.961 6.044 0 10.962-4.917 10.962-10.961 0-6.045-4.918-10.962-10.962-10.962Z" fill="#231815"/><path d="M87.34 180.171c-4.376 0-7.934-3.558-7.934-7.935s3.558-7.934 7.935-7.934 7.934 3.557 7.934 7.934c0 4.377-3.557 7.935-7.934 7.935Z" fill="#231815"/><path d="M87.34 164.767a7.469 7.469 0 0 1 7.47 7.469 7.468 7.468 0 0 1-7.47 7.469 7.468 7.468 0 0 1-7.468-7.469 7.469 7.469 0 0 1 7.469-7.469Zm0-.931c-4.628 0-8.4 3.772-8.4 8.4 0 4.629 3.772 8.401 8.4 8.401 4.63 0 8.401-3.772 8.401-8.401 0-4.628-3.772-8.4-8.4-8.4Z" fill="#231815"/><path d="M74.042 178.849c-4.377 0-7.934-3.558-7.934-7.935s3.557-7.935 7.934-7.935c4.377 0 7.935 3.558 7.935 7.935s-3.558 7.935-7.935 7.935Z" fill="#231815"/><path d="M74.042 163.445a7.468 7.468 0 0 1 7.47 7.469 7.468 7.468 0 0 1-7.47 7.469 7.468 7.468 0 0 1-7.469-7.469 7.468 7.468 0 0 1 7.47-7.469Zm0-.931c-4.628 0-8.4 3.771-8.4 8.4 0 4.628 3.772 8.4 8.4 8.4 4.629 0 8.4-3.772 8.4-8.4 0-4.629-3.771-8.4-8.4-8.4Z" fill="#231815"/><path d="M64.664 172.553a6.342 6.342 0 1 0 0-12.684 6.342 6.342 0 0 0 0 12.684Z" fill="#231815"/><path d="M64.664 160.335a5.876 5.876 0 0 1 5.876 5.876 5.871 5.871 0 0 1-5.876 5.877 5.871 5.871 0 0 1-5.877-5.877 5.87 5.87 0 0 1 5.877-5.876Zm0-.932a6.817 6.817 0 0 0-6.808 6.808 6.817 6.817 0 0 0 6.808 6.808 6.817 6.817 0 0 0 6.808-6.808 6.817 6.817 0 0 0-6.808-6.808Z" fill="#231815"/><path d="M58.34 165.429a5.219 5.219 0 0 1-5.215-5.215 5.22 5.22 0 0 1 5.215-5.216 5.219 5.219 0 0 1 5.216 5.216 5.219 5.219 0 0 1-5.215 5.215Z" fill="#231815"/><path d="M58.34 155.454a4.752 4.752 0 0 1 4.75 4.75 4.758 4.758 0 0 1-4.75 4.75 4.758 4.758 0 0 1-4.75-4.75 4.758 4.758 0 0 1 4.75-4.75Zm0-.931a5.686 5.686 0 0 0-5.68 5.681 5.692 5.692 0 0 0 5.68 5.681 5.691 5.691 0 0 0 5.681-5.681 5.692 5.692 0 0 0-5.68-5.681Z" fill="#231815"/><path d="M171.548 203.481c4.573 0 9.146.019 13.718.028a107.595 107.595 0 0 1-2.03-15.701c0-.354-3.697.037-4.219.531-.894.847-1.099 3.511-1.527 4.628-1.453 3.772-3.716 7.171-5.932 10.514h-.01Z" fill="#231815" stroke="#231815" stroke-miterlimit="10"/><path d="M181.578 201.228c-.186 1.899-.549 3.809-1.201 5.755a484.244 484.244 0 0 0 8.726-2.468c1.071-.317 8.968-3.371 9.537-2.803-6.249-6.156-10.775-14.044-12.917-22.547-.103-.409-3.623 1.705-3.921 2.291-.755 1.481-.289 4.219-.298 5.84-.028 4.805.531 9.34.074 13.941v-.009Z" fill="#231815" stroke="#231815" stroke-miterlimit="10"/><path d="M144.168 208.11c23.506 0 42.56-19.055 42.56-42.56 0-23.505-19.054-42.56-42.56-42.56-23.505 0-42.56 19.055-42.56 42.56 0 23.505 19.055 42.56 42.56 42.56Z" fill="#231815" stroke="#231815" stroke-miterlimit="10"/><path d="m120.681 168.055-.624 2.691a2.684 2.684 0 0 1-3.213 2.003 2.685 2.685 0 0 1-2.002-3.213l.624-2.692" stroke="#231815" stroke-linecap="round" stroke-linejoin="round"/><path d="M127.685 202.68c4.656-2.607 11.324-1.601 14.304 2.832 1.714 2.551 2.058 5.746 2.394 8.791 2.039 18.766 4.954 37.661 9.909 55.85-.177-.652-13.169.009-14.501.027-4.405.075-8.866.392-13.252.075.326-3.66-.549-7.171-.829-10.84-.279-3.67-.382-7.655-.922-11.455a687.108 687.108 0 0 0-2.756-17.974c-.764-4.582-2.561-9.807-1.928-14.463.68-5.057 2.971-10.263 7.59-12.852l-.009.009Z" fill="#231815" stroke="#231815" stroke-miterlimit="10"/><mask id="mask0_94_6218" style="mask-type:luminance" maskUnits="userSpaceOnUse" x="119" y="201" width="36" height="70"><path d="M127.685 202.68c4.656-2.607 11.324-1.601 14.304 2.832 1.714 2.551 2.058 5.746 2.394 8.791 2.039 18.766 4.954 37.661 9.909 55.85-.177-.652-13.169.009-14.501.027-4.405.075-8.866.392-13.252.075.326-3.66-.549-7.171-.829-10.84-.279-3.67-.382-7.655-.922-11.455a687.108 687.108 0 0 0-2.756-17.974c-.764-4.582-2.561-9.807-1.928-14.463.68-5.057 2.971-10.263 7.59-12.852l-.009.009Z" fill="#fff"/></mask><g mask="url(#mask0_94_6218)"><path d="m120.011 251.843 6.034 10.561c1.844-6.212 3.679-12.414 5.523-18.626l5.085 19.092c1.518-2.906 3.027-5.811 4.545-8.717 2.449 3.39 4.889 6.78 7.338 10.17.848-1.658 1.704-3.306 2.552-4.964a66.008 66.008 0 0 1 6.342 16.828 322.353 322.353 0 0 1-38.667 9.416c-1.053-6.24-.661-12.238-.885-18.487-.084-2.439-.307-4.563.065-7.059.214-1.425 2.561-7.348 2.058-8.214h.01Z" fill="#231815" stroke="#231815" stroke-linecap="round" stroke-linejoin="round"/></g><path d="M127.685 202.68c4.656-2.607 11.324-1.601 14.304 2.832 1.714 2.551 2.058 5.746 2.394 8.791 2.039 18.766 4.954 37.661 9.909 55.85-.177-.652-13.169.009-14.501.027-4.405.075-8.866.392-13.252.075.326-3.66-.549-7.171-.829-10.84-.279-3.67-.382-7.655-.922-11.455a687.108 687.108 0 0 0-2.756-17.974c-.764-4.582-2.561-9.807-1.928-14.463.68-5.057 2.971-10.263 7.59-12.852l-.009.009Z" stroke="#231815" stroke-linecap="round" stroke-linejoin="round"/><mask id="mask1_94_6218" style="mask-type:luminance" maskUnits="userSpaceOnUse" x="98" y="198" width="71" height="60"><path d="M141.132 210.913c-5.476-3.399-11.101-6.864-17.415-8.158-6.314-1.295-13.559 0-17.778 4.889-3.092 3.586-4.116 8.512-4.321 13.243-.494 11.762-2.254 24.204-3.027 35.957 8.95 1.323 23.729.82 32.744.084-2.16-7.525-4.33-15.049-6.491-22.574-.875-3.046-1.751-6.1-2.319-9.211-.14-.745-1.266-7.282.075-6.994.195.047.54.987.652 1.164.735 1.202 1.713 2.319 2.598 3.409 1.788 2.216 3.716 4.33 5.858 6.212 3.799 3.315 8.381 5.885 13.373 6.63 4.992.745 10.393-.503 14.09-3.93 3.977-3.697 5.523-9.313 6.194-14.705.67-5.392 1.834-10.821 3.492-15.99-17.052-1.332-35.324-2.272-52.423-2.617-.009 1.434-.121 2.794.131 4.2" fill="#fff"/></mask><g mask="url(#mask1_94_6218)"><path d="m100.128 234.205 6.034 10.56c1.844-6.211 3.679-12.414 5.523-18.625l5.085 19.091c1.518-2.906 3.026-5.811 4.544-8.717 2.45 3.39 4.89 6.78 7.339 10.17.848-1.658 1.704-3.306 2.552-4.964a66 66 0 0 1 6.342 16.829 322.34 322.34 0 0 1-38.667 9.415c-1.053-6.24-.661-12.237-.885-18.486-.084-2.44-.307-4.564.065-7.059.214-1.425 2.561-7.348 2.058-8.214h.01Z" fill="#231815" stroke="#231815" stroke-linecap="round" stroke-linejoin="round"/></g><path d="M141.132 210.913c-5.476-3.399-11.101-6.864-17.415-8.158-6.314-1.295-13.559 0-17.778 4.889-3.092 3.586-4.116 8.512-4.321 13.243-.494 11.762-2.254 24.204-3.027 35.957 8.95 1.323 23.729.82 32.744.084-2.16-7.525-4.33-15.049-6.491-22.574-.875-3.046-1.751-6.1-2.319-9.211-.14-.745-1.266-7.282.075-6.994.195.047.54.987.652 1.164.735 1.202 1.713 2.319 2.598 3.409 1.788 2.216 3.716 4.33 5.858 6.212 3.799 3.315 8.381 5.885 13.373 6.63 4.992.745 10.393-.503 14.09-3.93 3.977-3.697 5.523-9.313 6.194-14.705.67-5.392 1.834-10.821 3.492-15.99-17.052-1.332-35.324-2.272-52.423-2.617-.009 1.434-.121 2.794.131 4.2" stroke="#231815" stroke-linecap="round" stroke-linejoin="round"/><path d="M141.132 210.913c-5.476-3.399-11.101-6.864-17.415-8.158-6.314-1.295-13.559 0-17.778 4.889-3.092 3.586-4.116 8.512-4.321 13.243-.494 11.762-2.254 24.204-3.027 35.957 8.95 1.323 23.729.82 32.744.084-2.16-7.525-4.33-15.049-6.491-22.574-.875-3.046-1.751-6.1-2.319-9.211-.14-.745-1.266-7.282.075-6.994.195.047.54.987.652 1.164.735 1.202 1.713 2.319 2.598 3.409 1.788 2.216 3.716 4.33 5.858 6.212 3.799 3.315 8.381 5.885 13.373 6.63 4.992.745 10.393-.503 14.09-3.93 3.977-3.697 5.523-9.313 6.194-14.705.67-5.392 1.834-10.821 3.492-15.99-17.052-1.332-35.324-2.272-52.423-2.617-.009 1.434-.121 2.794.131 4.2" fill="#231815"/><path d="M141.132 210.913c-5.476-3.399-11.101-6.864-17.415-8.158-6.314-1.295-13.559 0-17.778 4.889-3.092 3.586-4.116 8.512-4.321 13.243-.494 11.762-2.254 24.204-3.027 35.957 8.95 1.323 23.729.82 32.744.084-2.16-7.525-4.33-15.049-6.491-22.574-.875-3.046-1.751-6.1-2.319-9.211-.14-.745-1.266-7.282.075-6.994.195.047.54.987.652 1.164.735 1.202 1.713 2.319 2.598 3.409 1.788 2.216 3.716 4.33 5.858 6.212 3.799 3.315 8.381 5.885 13.373 6.63 4.992.745 10.393-.503 14.09-3.93 3.977-3.697 5.523-9.313 6.194-14.705.67-5.392 1.834-10.821 3.492-15.99-17.052-1.332-35.324-2.272-52.423-2.617-.009 1.434-.121 2.794.131 4.2" stroke="#231815" stroke-miterlimit="10"/><path d="M155.232 214.284c-1.276 2.859-2.44 5.867-2.375 8.996.065 3.13 1.63 6.408 4.498 7.656 2.208.959 3.521-.28 4.685-2.068a20.802 20.802 0 0 0 2.701-6.072c.13-.484 1.08-5.271.67-5.308a16.434 16.434 0 0 1-4.042-.941c-2.049-.754-4.088-1.508-6.137-2.263ZM54.494 243.192v5.681s24.884 7.673 27.287 33.153l12.945-.046s-7.841-6.705-9.937-13.914c-2.095-7.208-4.163-16.94-11.37-20.907-7.2-3.967-18.925-3.958-18.925-3.958v-.009Z" fill="#231815" stroke="#231815" stroke-miterlimit="10"/><path d="M54.69 255.699h-.196a.465.465 0 0 0-.465.465v30.873c0 .257.208.465.465.465h.196a.465.465 0 0 0 .466-.465v-30.873a.465.465 0 0 0-.466-.465Z" fill="#231815"/><path d="M54.7 256.164v30.873h-.196v-30.873h.195Zm0-.931h-.196a.934.934 0 0 0-.932.931v30.873c0 .512.42.931.932.931h.195a.934.934 0 0 0 .931-.931v-30.873a.934.934 0 0 0-.93-.931Zm3.939.466h-.196a.465.465 0 0 0-.466.465v30.873c0 .257.209.465.466.465h.196a.465.465 0 0 0 .465-.465v-30.873a.465.465 0 0 0-.465-.465Z" fill="#231815"/><path d="M58.639 256.164v30.873h-.196v-30.873h.196Zm0-.931h-.196a.934.934 0 0 0-.931.931v30.873c0 .512.419.931.93.931h.197a.934.934 0 0 0 .93-.931v-30.873a.934.934 0 0 0-.93-.931Z" fill="#231815"/><path d="M72.012 269.063H41.139a.465.465 0 0 0-.465.465v.196c0 .257.208.466.465.466h30.873a.466.466 0 0 0 .466-.466v-.196a.465.465 0 0 0-.466-.465Z" fill="#231815"/><path d="M72.002 269.528v.196H41.14v-.196h30.872m0-.931H41.139a.934.934 0 0 0-.93.931v.196c0 .512.418.931.93.931h30.873a.934.934 0 0 0 .931-.931v-.196a.934.934 0 0 0-.931-.931Zm0 4.405H41.139a.466.466 0 0 0-.465.466v.195c0 .258.208.466.465.466h30.873a.465.465 0 0 0 .466-.466v-.195a.466.466 0 0 0-.466-.466Z" fill="#231815"/><path d="M72.002 273.468v.195H41.14v-.195h30.872m0-.931H41.139a.934.934 0 0 0-.93.931v.195c0 .513.418.932.93.932h30.873a.934.934 0 0 0 .931-.932v-.195a.934.934 0 0 0-.931-.931Z" fill="#231815"/><path d="M53.014 287.232a.466.466 0 0 1-.42-.503l2.887-30.732a.486.486 0 0 1 .168-.317.482.482 0 0 1 .298-.102c.019 0 .242.018.242.018a.474.474 0 0 1 .42.503l-2.888 30.733a.482.482 0 0 1-.167.316.477.477 0 0 1-.298.103c-.019 0-.242-.019-.242-.019Z" fill="#231815"/><path d="m55.947 256.034.196.019-2.887 30.732-.196-.018 2.887-30.733Zm0-.931a.934.934 0 0 0-.931.847l-2.887 30.733a.93.93 0 0 0 .838 1.015l.196.019h.083a.935.935 0 0 0 .932-.848l2.887-30.732a.931.931 0 0 0-.838-1.016l-.196-.018h-.093.01Zm.997 32.502a.467.467 0 0 1-.42-.503l2.887-30.733a.482.482 0 0 1 .168-.316.477.477 0 0 1 .298-.103c.019 0 .242.019.242.019a.466.466 0 0 1 .42.503l-2.888 30.732a.486.486 0 0 1-.167.317.482.482 0 0 1-.298.102c-.019 0-.242-.018-.242-.018Z" fill="#231815"/><path d="m59.877 256.407.196.018-2.887 30.733-.196-.019 2.887-30.732Zm0-.932a.924.924 0 0 0-.922.848l-2.887 30.732a.946.946 0 0 0 .214.68.965.965 0 0 0 .634.336l.195.018h.084a.923.923 0 0 0 .922-.847l2.887-30.733a.948.948 0 0 0-.214-.68.968.968 0 0 0-.633-.335l-.196-.019h-.084Z" fill="#231815"/><path d="M41.335 268.756a.467.467 0 0 1-.419-.503l.019-.196a.486.486 0 0 1 .167-.317.441.441 0 0 1 .298-.111c.019 0 30.78 2.887 30.78 2.887a.466.466 0 0 1 .419.503l-.019.195a.486.486 0 0 1-.168.317.442.442 0 0 1-.298.112c-.018 0-30.779-2.887-30.779-2.887Z" fill="#231815"/><path d="m41.4 268.094 30.733 2.887-.019.196-30.732-2.887.018-.196Zm0-.931a.923.923 0 0 0-.922.848l-.018.195a.948.948 0 0 0 .214.68.968.968 0 0 0 .633.335l30.733 2.887h.084a.923.923 0 0 0 .922-.847l.018-.196a.949.949 0 0 0-.214-.68.968.968 0 0 0-.633-.335l-30.733-2.887H41.4Zm-.437 5.522a.483.483 0 0 1-.317-.167.45.45 0 0 1-.102-.345l.018-.195a.459.459 0 0 1 .466-.419c.018 0 30.779 2.887 30.779 2.887a.483.483 0 0 1 .317.167.49.49 0 0 1 .102.345l-.019.195a.458.458 0 0 1-.465.419c-.019 0-30.78-2.887-30.78-2.887Z" fill="#231815"/><path d="m41.028 272.024 30.732 2.887-.018.196-30.733-2.887.019-.196Zm0-.931a.94.94 0 0 0-.596.214.97.97 0 0 0-.336.633l-.018.196a.93.93 0 0 0 .838 1.015l30.733 2.887h.084a.923.923 0 0 0 .921-.847l.02-.196a.95.95 0 0 0-.215-.68.968.968 0 0 0-.633-.335l-30.733-2.887h-.084.019Z" fill="#231815"/><path d="M44.334 281.654a.438.438 0 0 1-.326-.14l-.14-.14a.47.47 0 0 1-.14-.325c0-.122.047-.243.14-.326l21.83-21.83a.469.469 0 0 1 .326-.14c.111 0 .242.047.326.14l.14.14a.478.478 0 0 1 .139.326.437.437 0 0 1-.14.326l-21.83 21.829a.469.469 0 0 1-.325.14Z" fill="#231815"/><path d="m66.014 259.219.14.14-21.83 21.829-.14-.139 21.83-21.83Zm0-.931a.954.954 0 0 0-.66.27l-21.83 21.829a.929.929 0 0 0 0 1.314l.14.139a.92.92 0 0 0 .66.27.96.96 0 0 0 .662-.27l21.83-21.829a.922.922 0 0 0 .27-.661.962.962 0 0 0-.27-.662l-.14-.139a.954.954 0 0 0-.662-.27v.009Zm-18.896 26.16a.438.438 0 0 1-.326-.14l-.14-.14a.471.471 0 0 1-.139-.326c0-.121.047-.242.14-.325l21.83-21.83a.469.469 0 0 1 .325-.14c.112 0 .242.047.326.14l.14.14c.084.084.14.205.14.326a.437.437 0 0 1-.14.326l-21.83 21.829a.469.469 0 0 1-.326.14Z" fill="#231815"/><path d="m68.808 262.013.14.14-21.83 21.829-.14-.14 21.83-21.829Zm0-.931a.954.954 0 0 0-.661.27l-21.83 21.829a.922.922 0 0 0-.27.661c0 .252.103.485.27.662l.14.139c.187.186.42.27.661.27a.954.954 0 0 0 .662-.27l21.83-21.829a.922.922 0 0 0 .27-.661.963.963 0 0 0-.27-.662l-.14-.139a.954.954 0 0 0-.662-.27Zm-25.722 18.83a.487.487 0 0 1-.307-.177l-.121-.158a.464.464 0 0 1 .093-.652l24.567-18.691a.44.44 0 0 1 .28-.093h.065a.496.496 0 0 1 .307.177l.121.158a.463.463 0 0 1-.093.652L43.43 279.819a.44.44 0 0 1-.279.093h-.065Z" fill="#231815"/><path d="m67.598 260.607.12.158-24.567 18.691-.12-.158 24.567-18.691Zm0-.932a.952.952 0 0 0-.56.187l-24.567 18.691a.958.958 0 0 0-.363.614.883.883 0 0 0 .186.689l.121.159a.922.922 0 0 0 .745.363.958.958 0 0 0 .56-.186l24.567-18.691a.96.96 0 0 0 .363-.615.882.882 0 0 0-.186-.689l-.121-.159a.922.922 0 0 0-.745-.363ZM45.48 283.051a.496.496 0 0 1-.308-.177l-.121-.158a.463.463 0 0 1 .093-.652l24.568-18.691a.435.435 0 0 1 .279-.093h.065a.49.49 0 0 1 .308.176l.12.159a.464.464 0 0 1-.093.652l-24.567 18.691a.44.44 0 0 1-.28.093h-.065Z" fill="#231815"/><path d="m69.99 263.745.122.159-24.567 18.691-.122-.159 24.568-18.691Zm0-.931a.958.958 0 0 0-.558.186l-24.567 18.691a.96.96 0 0 0-.364.615.883.883 0 0 0 .187.689l.12.158a.92.92 0 0 0 .746.364.96.96 0 0 0 .559-.187l24.567-18.691a.958.958 0 0 0 .363-.614.885.885 0 0 0-.186-.69l-.121-.158a.922.922 0 0 0-.745-.363Z" fill="#231815"/><path d="M68.808 281.654a.438.438 0 0 1-.326-.14l-21.83-21.829a.475.475 0 0 1-.139-.326c0-.121.047-.242.14-.326l.14-.14a.469.469 0 0 1 .325-.14c.112 0 .243.047.326.14l21.83 21.83a.47.47 0 0 1 .14.326.434.434 0 0 1-.14.325l-.14.14a.469.469 0 0 1-.326.14Z" fill="#231815"/><path d="m47.118 259.219 21.83 21.83-.14.139-21.83-21.829.14-.14Zm0-.931a.954.954 0 0 0-.66.27l-.14.14a.92.92 0 0 0-.27.661.96.96 0 0 0 .27.661l21.829 21.83c.177.176.41.27.661.27a.965.965 0 0 0 .661-.27l.14-.14a.927.927 0 0 0 0-1.313l-21.83-21.83a.915.915 0 0 0-.66-.27v-.009Zm18.896 26.16a.438.438 0 0 1-.326-.14l-21.83-21.829a.462.462 0 0 1 0-.662l.14-.139a.474.474 0 0 1 .327-.14c.12 0 .242.047.325.14l21.83 21.829c.084.084.14.205.14.326a.437.437 0 0 1-.14.326l-.14.14a.469.469 0 0 1-.326.14v.009Z" fill="#231815"/><path d="m44.334 262.013 21.83 21.829-.14.14-21.83-21.829.14-.14Zm0-.931a.954.954 0 0 0-.661.27l-.14.139a.923.923 0 0 0-.27.662.96.96 0 0 0 .27.661l21.83 21.829a.92.92 0 0 0 .66.27.96.96 0 0 0 .662-.27l.14-.139a.929.929 0 0 0 0-1.314l-21.83-21.829a.916.916 0 0 0-.661-.27v-.009Zm25.769 18.644a.44.44 0 0 1-.28-.093l-24.837-18.328a.472.472 0 0 1-.103-.652l.121-.158a.462.462 0 0 1 .308-.186h.065a.44.44 0 0 1 .28.093l24.837 18.328a.471.471 0 0 1 .102.651l-.12.159a.47.47 0 0 1-.308.186h-.065Z" fill="#231815"/><path d="m45.386 260.765 24.838 18.328-.121.158-24.838-18.328.121-.158Zm0-.931a.917.917 0 0 0-.745.372l-.12.159a.955.955 0 0 0-.178.689.933.933 0 0 0 .373.614l24.837 18.328a.91.91 0 0 0 .55.186c.046 0 .093 0 .14-.009a.932.932 0 0 0 .614-.372l.121-.159a.935.935 0 0 0-.195-1.303l-24.838-18.328a.953.953 0 0 0-.55-.187l-.009.01Zm22.37 23.068a.459.459 0 0 1-.28-.093L42.64 264.481a.472.472 0 0 1-.103-.652l.122-.158a.467.467 0 0 1 .307-.187h.065c.102 0 .196.028.28.094l24.837 18.327a.47.47 0 0 1 .102.652l-.12.159a.472.472 0 0 1-.373.186Z" fill="#231815"/><path d="m43.04 263.941 24.837 18.328-.121.158-24.838-18.328.121-.158Zm0-.931a.932.932 0 0 0-.755.381l-.121.159a.909.909 0 0 0-.168.689.934.934 0 0 0 .373.614l24.837 18.328a.918.918 0 0 0 1.294-.186l.122-.158a.957.957 0 0 0 .177-.689.899.899 0 0 0-.373-.615L43.59 263.205a.953.953 0 0 0-.55-.186v-.009Z" fill="#231815"/><path d="M56.571 294.524c-12.74 0-23.105-10.365-23.105-23.105s10.365-23.105 23.105-23.105 23.105 10.365 23.105 23.105-10.365 23.105-23.105 23.105Zm0-40.455c-9.564 0-17.35 7.786-17.35 17.35 0 9.564 7.786 17.35 17.35 17.35 9.564 0 17.35-7.786 17.35-17.35 0-9.564-7.786-17.35-17.35-17.35Z" fill="#231815"/><path d="M56.571 248.779c12.507 0 22.64 10.133 22.64 22.64 0 12.507-10.133 22.64-22.64 22.64-12.507 0-22.64-10.142-22.64-22.64 0-12.498 10.133-22.64 22.64-22.64Zm0 40.456c9.835 0 17.816-7.972 17.816-17.816 0-9.844-7.972-17.815-17.816-17.815-9.844 0-17.816 7.971-17.816 17.815 0 9.844 7.972 17.816 17.816 17.816Zm0-41.387c-13 0-23.57 10.57-23.57 23.571 0 13.001 10.57 23.571 23.57 23.571s23.571-10.57 23.571-23.571c0-13.001-10.57-23.571-23.571-23.571Zm0 40.455c-9.313 0-16.884-7.571-16.884-16.884s7.571-16.884 16.884-16.884 16.884 7.571 16.884 16.884-7.571 16.884-16.884 16.884Z" fill="#231815"/><path d="M56.571 291.125c-10.868 0-19.706-8.838-19.706-19.706s8.838-19.706 19.706-19.706 19.706 8.838 19.706 19.706-8.838 19.706-19.706 19.706Zm0-34.495c-8.288 0-15.022 6.743-15.022 15.022s6.743 15.022 15.022 15.022c8.28 0 15.022-6.743 15.022-15.022S64.85 256.63 56.57 256.63Z" fill="#231815"/><path d="M56.571 252.179c10.626 0 19.24 8.614 19.24 19.24 0 10.626-8.614 19.241-19.24 19.241-10.626 0-19.24-8.615-19.24-19.241s8.614-19.24 19.24-19.24Zm0 34.96c8.559 0 15.487-6.938 15.487-15.487s-6.938-15.487-15.487-15.487c-8.55 0-15.487 6.938-15.487 15.487s6.938 15.487 15.487 15.487Zm0-35.892c-11.12 0-20.172 9.043-20.172 20.172 0 11.129 9.043 20.172 20.172 20.172 11.129 0 20.172-9.043 20.172-20.172 0-11.129-9.043-20.172-20.172-20.172Zm0 34.961c-8.028 0-14.556-6.528-14.556-14.556 0-8.028 6.528-14.556 14.556-14.556 8.028 0 14.556 6.528 14.556 14.556 0 8.028-6.528 14.556-14.556 14.556Z" fill="#231815"/><path d="M56.571 276.29a4.698 4.698 0 0 1-4.694-4.694 4.698 4.698 0 0 1 4.694-4.694 4.698 4.698 0 0 1 4.694 4.694 4.698 4.698 0 0 1-4.694 4.694Z" fill="#231815"/><path d="M56.571 267.368a4.225 4.225 0 0 1 4.228 4.228 4.225 4.225 0 0 1-4.228 4.228 4.225 4.225 0 0 1-4.228-4.228 4.225 4.225 0 0 1 4.228-4.228Zm0-.931a5.158 5.158 0 1 0-.002 10.32 5.158 5.158 0 0 0 .002-10.32Z" fill="#231815"/><path d="M58.527 271.596a1.966 1.966 0 1 1-3.931-.001 1.966 1.966 0 0 1 3.93.001Z" fill="#231815" stroke="#231815" stroke-miterlimit="10"/><path d="M65.27 247.122c-19.856-6.65-29.336 10.374-29.336 10.374-2.617 3.539 3.864 4.489 3.864 4.489s29.457 3.315 32.335 4.629c3.064 1.406 4.62 4.572 5.383 7.683.344 1.387.596 2.775.67 4.209.093 1.816-.13 3.968 2.375 3.921 2.393-.047 2.18-3.176 2.18-3.176 2.57-27.585-17.462-32.129-17.462-32.129h-.01Z" fill="#231815" stroke="#231815" stroke-miterlimit="10"/><path d="M171.688 255.699h-.196a.465.465 0 0 0-.465.465v30.873c0 .257.208.465.465.465h.196a.466.466 0 0 0 .466-.465v-30.873a.466.466 0 0 0-.466-.465Z" fill="#231815"/><path d="M171.697 256.164v30.873h-.195v-30.873h.195Zm0-.931h-.195a.935.935 0 0 0-.932.931v30.873c0 .512.42.931.932.931h.195a.935.935 0 0 0 .932-.931v-30.873a.935.935 0 0 0-.932-.931Zm3.94.466h-.196a.466.466 0 0 0-.466.465v30.873c0 .257.209.465.466.465h.196a.465.465 0 0 0 .465-.465v-30.873a.465.465 0 0 0-.465-.465Z" fill="#231815"/><path d="M175.637 256.164v30.873h-.196v-30.873h.196Zm0-.931h-.196a.934.934 0 0 0-.931.931v30.873c0 .512.419.931.931.931h.196a.934.934 0 0 0 .931-.931v-30.873a.934.934 0 0 0-.931-.931Z" fill="#231815"/><path d="M189.01 269.063h-30.872a.465.465 0 0 0-.466.465v.196c0 .257.208.466.466.466h30.872a.466.466 0 0 0 .466-.466v-.196a.466.466 0 0 0-.466-.465Z" fill="#231815"/><path d="M189.001 269.528v.196h-30.873v-.196h30.873Zm0-.931h-30.873a.934.934 0 0 0-.931.931v.196c0 .512.419.931.931.931h30.873a.934.934 0 0 0 .931-.931v-.196a.934.934 0 0 0-.931-.931Zm.009 4.405h-30.872a.466.466 0 0 0-.466.466v.195c0 .258.208.466.466.466h30.872a.466.466 0 0 0 .466-.466v-.195a.466.466 0 0 0-.466-.466Z" fill="#231815"/><path d="M189.001 273.468v.195h-30.873v-.195h30.873Zm0-.931h-30.873a.934.934 0 0 0-.931.931v.195c0 .513.419.932.931.932h30.873a.934.934 0 0 0 .931-.932v-.195a.934.934 0 0 0-.931-.931Z" fill="#231815"/><path d="M170.012 287.232a.466.466 0 0 1-.419-.503l2.887-30.732a.484.484 0 0 1 .167-.317.482.482 0 0 1 .298-.102c.019 0 .242.018.242.018a.473.473 0 0 1 .419.503l-2.887 30.733a.48.48 0 0 1-.167.316.479.479 0 0 1-.298.103c-.019 0-.242-.019-.242-.019Z" fill="#231815"/><path d="m172.945 256.034.196.019-2.887 30.732-.196-.018 2.887-30.733Zm0-.931a.935.935 0 0 0-.596.214.968.968 0 0 0-.335.633l-2.887 30.733a.93.93 0 0 0 .838 1.015l.196.019h.084a.936.936 0 0 0 .931-.848l2.887-30.732a.932.932 0 0 0-.838-1.016l-.196-.018h-.093.009Zm.997 32.502a.466.466 0 0 1-.419-.503l2.887-30.733a.48.48 0 0 1 .167-.316.479.479 0 0 1 .298-.103c.019 0 .242.019.242.019a.467.467 0 0 1 .42.503l-2.887 30.732a.49.49 0 0 1-.168.317.482.482 0 0 1-.298.102c-.019 0-.242-.018-.242-.018Z" fill="#231815"/><path d="m176.875 256.407.196.018-2.887 30.733-.196-.019 2.887-30.732Zm0-.932a.924.924 0 0 0-.922.848l-2.887 30.732a.95.95 0 0 0 .214.68.967.967 0 0 0 .634.336l.195.018h.084a.923.923 0 0 0 .922-.847l2.887-30.733a.947.947 0 0 0-.214-.68.968.968 0 0 0-.633-.335l-.196-.019h-.084Z" fill="#231815"/><path d="M158.333 268.756a.486.486 0 0 1-.316-.168.45.45 0 0 1-.103-.345l.019-.195a.458.458 0 0 1 .465-.419c.019 0 30.78 2.887 30.78 2.887a.466.466 0 0 1 .419.503l-.019.195a.481.481 0 0 1-.466.429c-.018 0-30.779-2.887-30.779-2.887Z" fill="#231815"/><path d="m158.398 268.094 30.733 2.887-.019.196-30.732-2.887.018-.196Zm0-.931a.923.923 0 0 0-.921.848l-.019.195a.947.947 0 0 0 .214.68.968.968 0 0 0 .633.335l30.733 2.887h.084a.923.923 0 0 0 .922-.847l.018-.196a.944.944 0 0 0-.214-.68.968.968 0 0 0-.633-.335l-30.733-2.887h-.084Zm-.437 5.522a.465.465 0 0 1-.419-.502l.018-.196a.49.49 0 0 1 .168-.317.44.44 0 0 1 .298-.111c.019 0 30.779 2.887 30.779 2.887a.484.484 0 0 1 .317.167.494.494 0 0 1 .102.345l-.018.195a.459.459 0 0 1-.466.419c-.019 0-30.779-2.887-30.779-2.887Z" fill="#231815"/><path d="m158.026 272.024 30.732 2.887-.018.196-30.733-2.887.019-.196Zm0-.931a.939.939 0 0 0-.596.214.97.97 0 0 0-.335.633l-.019.196a.93.93 0 0 0 .838 1.015l30.733 2.887h.084a.924.924 0 0 0 .922-.847l.018-.196a.949.949 0 0 0-.214-.68.968.968 0 0 0-.633-.335l-30.733-2.887h-.084.019Z" fill="#231815"/><path d="M161.332 281.654a.438.438 0 0 1-.326-.14l-.14-.14a.473.473 0 0 1-.139-.325c0-.122.046-.243.139-.326l21.83-21.83a.468.468 0 0 1 .326-.14c.112 0 .242.047.326.14l.139.14c.084.084.14.205.14.326a.434.434 0 0 1-.14.326l-21.829 21.829a.468.468 0 0 1-.326.14Z" fill="#231815"/><path d="m183.012 259.219.14.14-21.829 21.829-.14-.139 21.829-21.83Zm0-.931a.955.955 0 0 0-.661.27l-21.829 21.829a.929.929 0 0 0 0 1.314l.139.139c.177.177.41.27.662.27a.96.96 0 0 0 .661-.27l21.829-21.829a.922.922 0 0 0 .27-.661.961.961 0 0 0-.27-.662l-.139-.139a.913.913 0 0 0-.662-.27v.009Zm-18.895 26.16a.435.435 0 0 1-.326-.14l-.14-.14a.47.47 0 0 1-.14-.326c0-.121.047-.242.14-.325l21.829-21.83a.472.472 0 0 1 .326-.14c.112 0 .242.047.326.14l.14.14c.084.084.14.205.14.326a.438.438 0 0 1-.14.326l-21.829 21.829a.472.472 0 0 1-.326.14Z" fill="#231815"/><path d="m185.806 262.013.14.14-21.829 21.829-.14-.14 21.829-21.829Zm0-.931a.953.953 0 0 0-.661.27l-21.829 21.829a.926.926 0 0 0 0 1.313l.139.14c.177.177.41.27.662.27a.96.96 0 0 0 .661-.27l21.829-21.83a.918.918 0 0 0 .27-.661.96.96 0 0 0-.27-.661l-.139-.14a.957.957 0 0 0-.662-.27v.01Zm-25.722 18.83a.485.485 0 0 1-.307-.177l-.121-.158a.463.463 0 0 1 .093-.652l24.567-18.691a.441.441 0 0 1 .28-.093h.065a.494.494 0 0 1 .307.177l.121.158a.463.463 0 0 1-.093.652l-24.567 18.691a.441.441 0 0 1-.28.093h-.065Z" fill="#231815"/><path d="m184.596 260.607.121.158-24.568 18.691-.121-.158 24.568-18.691Zm0-.932a.957.957 0 0 0-.568.187l-24.568 18.691a.96.96 0 0 0-.363.614.884.884 0 0 0 .186.689l.121.159a.922.922 0 0 0 .745.363.959.959 0 0 0 .559-.186l24.567-18.691a.932.932 0 0 0 .177-1.304l-.121-.159a.964.964 0 0 0-.614-.363h-.131.01Zm-22.119 23.376a.497.497 0 0 1-.307-.177l-.121-.158a.464.464 0 0 1 .093-.652l24.568-18.691a.435.435 0 0 1 .279-.093h.065a.493.493 0 0 1 .308.176l.121.159a.465.465 0 0 1-.093.652l-24.568 18.691a.44.44 0 0 1-.279.093h-.066Z" fill="#231815"/><path d="m186.989 263.745.121.159-24.567 18.691-.121-.159 24.567-18.691Zm0-.931a.959.959 0 0 0-.559.186l-24.567 18.691a.957.957 0 0 0-.363.615.881.881 0 0 0 .186.689l.121.158a.919.919 0 0 0 .745.364.96.96 0 0 0 .559-.187l24.567-18.691a.955.955 0 0 0 .363-.614.884.884 0 0 0-.186-.69l-.121-.158a.92.92 0 0 0-.745-.363Z" fill="#231815"/><path d="M185.806 281.654a.438.438 0 0 1-.326-.14l-21.829-21.829a.474.474 0 0 1-.14-.326c0-.121.047-.242.14-.326l.14-.14a.468.468 0 0 1 .326-.14c.111 0 .242.047.326.14l21.829 21.83a.47.47 0 0 1 .14.326.434.434 0 0 1-.14.325l-.14.14a.468.468 0 0 1-.326.14Z" fill="#231815"/><path d="m164.117 259.219 21.829 21.83-.14.139-21.829-21.829.14-.14Zm0-.931a.955.955 0 0 0-.662.27l-.139.14a.92.92 0 0 0-.27.661.96.96 0 0 0 .27.661l21.829 21.83c.177.176.41.27.661.27a.966.966 0 0 0 .662-.27l.139-.14a.926.926 0 0 0 0-1.313l-21.829-21.83a.915.915 0 0 0-.661-.27v-.009Zm18.896 26.16a.435.435 0 0 1-.326-.14l-21.83-21.829a.474.474 0 0 1-.14-.326c0-.121.047-.242.14-.326l.14-.14a.468.468 0 0 1 .326-.14c.111 0 .242.047.326.14l21.829 21.83a.47.47 0 0 1 .14.325.435.435 0 0 1-.14.326l-.14.14a.468.468 0 0 1-.325.14Z" fill="#231815"/><path d="m161.332 262.013 21.829 21.829-.139.14-21.83-21.829.14-.14Zm0-.931a.953.953 0 0 0-.661.27l-.14.139a.922.922 0 0 0-.27.662.96.96 0 0 0 .27.661l21.83 21.829c.176.177.409.27.661.27a.96.96 0 0 0 .661-.27l.14-.139a.929.929 0 0 0 0-1.314l-21.83-21.829a.915.915 0 0 0-.661-.27v-.009Zm25.769 18.644a.441.441 0 0 1-.28-.093l-24.837-18.328a.472.472 0 0 1-.102-.652l.121-.158a.46.46 0 0 1 .307-.186h.065c.103 0 .196.028.279.093l24.838 18.328a.471.471 0 0 1 .102.651l-.121.159a.468.468 0 0 1-.307.186h-.065Z" fill="#231815"/><path d="m162.384 260.765 24.838 18.328-.121.158-24.838-18.328.121-.158Zm0-.931a.918.918 0 0 0-.745.372l-.121.159a.955.955 0 0 0-.177.689.9.9 0 0 0 .373.614l24.837 18.328a.955.955 0 0 0 .55.186.93.93 0 0 0 .754-.381l.121-.159a.933.933 0 0 0-.205-1.303l-24.837-18.328a.954.954 0 0 0-.55-.187v.01Zm22.37 23.068a.457.457 0 0 1-.279-.093l-24.838-18.328a.472.472 0 0 1-.102-.652l.121-.158a.466.466 0 0 1 .307-.187h.065c.103 0 .196.028.28.094l24.837 18.327a.465.465 0 0 1 .186.308.458.458 0 0 1-.083.344l-.122.159a.47.47 0 0 1-.372.186Z" fill="#231815"/><path d="m160.038 263.941 24.837 18.328-.121.158-24.838-18.328.122-.158Zm0-.931a.932.932 0 0 0-.755.381l-.121.159a.936.936 0 0 0 .205 1.303l24.838 18.328a.918.918 0 0 0 1.294-.186l.121-.158a.957.957 0 0 0 .177-.689.935.935 0 0 0-.372-.615l-24.838-18.328a.952.952 0 0 0-.549-.186v-.009Z" fill="#231815"/><path d="M173.569 294.524c-12.74 0-23.105-10.365-23.105-23.105s10.365-23.105 23.105-23.105 23.106 10.365 23.106 23.105-10.366 23.105-23.106 23.105Zm0-40.455c-9.564 0-17.35 7.786-17.35 17.35 0 9.564 7.786 17.35 17.35 17.35 9.565 0 17.35-7.786 17.35-17.35 0-9.564-7.785-17.35-17.35-17.35Z" fill="#231815"/><path d="M173.569 248.779c12.507 0 22.64 10.133 22.64 22.64 0 12.507-10.133 22.64-22.64 22.64-12.507 0-22.64-10.133-22.64-22.64 0-12.507 10.133-22.64 22.64-22.64Zm0 40.456c9.835 0 17.816-7.972 17.816-17.816 0-9.844-7.972-17.815-17.816-17.815-9.844 0-17.815 7.971-17.815 17.815 0 9.844 7.971 17.816 17.815 17.816Zm0-41.387c-13.001 0-23.571 10.57-23.571 23.571 0 13.001 10.57 23.571 23.571 23.571 13.001 0 23.571-10.57 23.571-23.571 0-13.001-10.57-23.571-23.571-23.571Zm0 40.455c-9.313 0-16.884-7.571-16.884-16.884s7.571-16.884 16.884-16.884 16.884 7.571 16.884 16.884-7.571 16.884-16.884 16.884Z" fill="#231815"/><path d="M173.569 291.125c-10.868 0-19.706-8.838-19.706-19.706s8.838-19.706 19.706-19.706 19.706 8.838 19.706 19.706-8.838 19.706-19.706 19.706Zm0-34.495c-8.288 0-15.022 6.743-15.022 15.022s6.743 15.022 15.022 15.022 15.022-6.743 15.022-15.022-6.743-15.022-15.022-15.022Z" fill="#231815"/><path d="M173.569 252.179c10.626 0 19.241 8.614 19.241 19.24 0 10.626-8.615 19.241-19.241 19.241s-19.24-8.615-19.24-19.241 8.614-19.24 19.24-19.24Zm0 34.96c8.559 0 15.488-6.938 15.488-15.487s-6.939-15.487-15.488-15.487-15.487 6.938-15.487 15.487 6.938 15.487 15.487 15.487Zm0-35.892c-11.119 0-20.172 9.043-20.172 20.172 0 11.129 9.043 20.172 20.172 20.172 11.129 0 20.172-9.043 20.172-20.172 0-11.129-9.043-20.172-20.172-20.172Zm0 34.961c-8.027 0-14.556-6.528-14.556-14.556 0-8.028 6.529-14.556 14.556-14.556 8.028 0 14.556 6.528 14.556 14.556 0 8.028-6.528 14.556-14.556 14.556Z" fill="#231815"/><path d="M173.569 276.29a4.695 4.695 0 1 0-.001-9.39 4.695 4.695 0 0 0 .001 9.39Z" fill="#231815"/><path d="M173.569 267.368a4.224 4.224 0 0 1 4.228 4.228 4.225 4.225 0 0 1-4.228 4.228 4.226 4.226 0 0 1-4.228-4.228 4.225 4.225 0 0 1 4.228-4.228Zm0-.931a5.158 5.158 0 1 0 0 10.318c2.85 0 5.16-2.319 5.16-5.159a5.165 5.165 0 0 0-5.16-5.159Z" fill="#231815"/><path d="M173.569 274.027a2.431 2.431 0 1 0 0-4.862 2.431 2.431 0 0 0 0 4.862Z" fill="#231815"/><path d="M173.569 269.64a1.966 1.966 0 1 1-.002 3.932 1.966 1.966 0 0 1 .002-3.932Zm0-.931a2.9 2.9 0 0 0-2.896 2.896 2.894 2.894 0 0 0 2.896 2.897 2.894 2.894 0 0 0 2.896-2.897 2.893 2.893 0 0 0-2.896-2.896Zm.857-2.095a2.078 2.078 0 0 1-2.077 2.076h-44.497a2.079 2.079 0 0 1-2.077-2.076c0-1.146.932-2.077 2.077-2.077h44.497c1.146 0 2.077.931 2.077 2.077Z" fill="#231815"/><path d="M168.307 282.865c-.726 0-1.518-.056-2.468-.168l-37.158-1.266c-.205 0-4.871-.243-8.074-3.744-2.077-2.273-3.046-5.374-2.859-9.229 0-.084.633-4.685 5.82-4.685.335 0 .689.019 1.062.056l44.516-2.272a10.8 10.8 0 0 1 .791-.028c5.523 0 10.17 4.312 10.58 9.825.437 5.839-3.958 10.943-9.798 11.38l-.456.038c-.68.055-1.267.102-1.956.102v-.009Z" fill="#231815"/><path d="M169.937 261.994c5.262 0 9.714 4.061 10.114 9.397.419 5.588-3.772 10.458-9.369 10.878-.885.065-1.564.13-2.384.13-.652 0-1.397-.047-2.412-.168l-37.196-1.276s-11.054-.456-10.486-12.488c0 0 .521-4.238 5.355-4.238.316 0 .652.019 1.006.056l44.59-2.272c.261-.019.512-.028.764-.028m0-.931c-.28 0-.559.009-.839.028l-44.497 2.272a9.937 9.937 0 0 0-1.033-.056c-4.48 0-6.063 3.306-6.287 5.057v.065c-.186 3.986.811 7.199 2.98 9.565 3.334 3.641 8.196 3.883 8.401 3.892l37.158 1.276c.95.112 1.742.168 2.487.168.745 0 1.304-.047 1.993-.103l.465-.037a11.003 11.003 0 0 0 7.572-3.818 11.054 11.054 0 0 0 2.654-8.056c-.428-5.746-5.28-10.253-11.045-10.253h-.009Z" fill="#231815"/><path d="M122.041 272.49c-.736 0-1.434-.177-1.974-.494-.615-.363-.95-.866-.941-1.425 0-1.071 1.285-1.899 2.915-1.899l36.683.083c.736 0 1.435.177 1.975.494.614.363.95.866.94 1.425 0 1.071-1.285 1.9-2.915 1.9l-36.683-.084Z" fill="#231815"/><path d="m122.041 269.137 36.674.084c1.35 0 2.449.652 2.449 1.453 0 .792-1.099 1.434-2.449 1.434h-.009l-36.675-.084c-1.359 0-2.449-.652-2.449-1.452 0-.792 1.099-1.435 2.449-1.435m0-.931c-1.927 0-3.38 1.015-3.38 2.366 0 1.35 1.453 2.374 3.38 2.384l36.675.083c1.937 0 3.39-1.015 3.39-2.365 0-.717-.429-1.388-1.174-1.825-.605-.354-1.387-.559-2.207-.559l-36.674-.084h-.01Z" fill="#231815"/><path d="M162.403 271.847c.307 4.163 3.939 7.283 8.102 6.976 4.163-.307 7.283-3.939 6.976-8.102-.308-4.163-3.94-7.283-8.103-6.976-4.163.308-7.282 3.94-6.975 8.102Zm-89.181-68.291-6.016 24.642s-1.369 4.191 0 4.936l8.186 3.24 6.566-22.481s4.033-6.566 6.472-11.343c0 0 3.027-6.826 2.59-6.826-4.62 0-12.023-7.022-12.023-7.022s-4.74.409-4.797 1.611c-.046 1.201-.978 13.233-.978 13.233v.01Z" fill="#231815" stroke="#231815" stroke-miterlimit="10"/><path d="M83.104 197.279c-.066 4.731-6.678 9.35-16.019 8.577-1.788-.149-3.25-3.837-3.25-8.577s1.49-8.298 3.25-8.577c7.87-1.23 16.065 4.61 16.019 8.577Z" fill="#231815" stroke="#231815" stroke-miterlimit="10"/><path d="M67.197 188.692s-.074 0-.102.01c-1.76.279-3.25 3.837-3.25 8.577s1.462 8.428 3.25 8.577h.102v-17.173.009Z" fill="#231815" stroke="#231815" stroke-miterlimit="10"/><path d="M65.372 190.164c-.913 1.509-1.537 4.07-1.537 7.124 0 3.055.615 5.69 1.537 7.199v-14.323Z" fill="#231815" stroke="#231815" stroke-linecap="round" stroke-linejoin="round"/><path d="M88.617 190.937c-3.921-1.257-5.486-1.369-6.976-1.928-1.527-.475-2.933-1.015-4.367-.959-1.574.065-3.8 0-4.48.885.112 4.479-.084 15.375 0 17.005 7.74 2.114 10.859 1.313 12.61.838 1.266-.512 3.371-2.458 4.973-5.969 0 0 2.645-8.457-1.75-9.872h-.01Z" fill="#231815" stroke="#231815" stroke-miterlimit="10"/><path d="M78.01 200.808c0 .857-.69 1.546-1.547 1.546h-4.256a1.542 1.542 0 0 1-1.545-1.546c0-.856.689-1.546 1.545-1.546h4.256c.857 0 1.546.69 1.546 1.546Z" fill="#231815" stroke="#231815" stroke-miterlimit="10"/><path d="M94.158 171.892c-1.527 0-2.84-3.595-3.409-6.938-.316-1.872-.419-3.679-.279-5.076.158-1.629.624-2.523 1.37-2.645.027 0 .139-.009.167-.009 1.527 0 2.84 3.595 3.408 6.938.317 1.872.42 3.67.28 5.066-.159 1.63-.624 2.524-1.37 2.645-.027 0-.14.01-.167.01v.009Z" fill="#231815"/><path d="M91.997 157.69c1.025 0 2.32 2.868 2.953 6.556.642 3.79.325 7.003-.708 7.18h-.093c-1.025 0-2.32-2.868-2.953-6.556-.642-3.791-.325-7.003.708-7.18h.093Zm0-.932c-.084 0-.167 0-.242.019-.978.168-1.564 1.201-1.75 3.064-.14 1.434-.038 3.278.288 5.196.205 1.22 1.37 7.33 3.865 7.33.084 0 .168 0 .242-.019 2.71-.466 1.602-7.46 1.462-8.26-.205-1.22-1.369-7.33-3.865-7.33Z" fill="#231815"/><path d="M94.158 171.892a1.16 1.16 0 0 1-.512-.131.442.442 0 0 1-.252-.391c0-.167.075-.326.215-.419.521-.335.922-2.878.288-6.631-.577-3.371-1.667-5.764-2.393-6.137a.46.46 0 0 1-.252-.391c0-.168.075-.326.215-.419a.978.978 0 0 1 .372-.149c.028 0 .14-.019.168-.019 1.527 0 2.84 3.595 3.408 6.938.317 1.872.42 3.67.28 5.067-.159 1.629-.624 2.523-1.37 2.645-.027 0-.14.009-.167.009v.028Z" fill="#231815"/><path d="M91.997 157.69c1.025 0 2.329 2.868 2.953 6.556.642 3.79.325 7.003-.708 7.18h-.084a.636.636 0 0 1-.307-.084c.866-.549 1.099-3.576.493-7.096-.568-3.325-1.685-5.988-2.645-6.473a.559.559 0 0 1 .205-.083h.093Zm0-.932c-.083 0-.167 0-.242.019a1.433 1.433 0 0 0-.55.214.924.924 0 0 0 .085 1.611c.428.214 1.536 2.198 2.15 5.802.616 3.595.224 5.83-.11 6.184a.92.92 0 0 0-.42.82.926.926 0 0 0 .522.773c.232.121.484.176.726.176.084 0 .168 0 .242-.018 2.71-.466 1.602-7.46 1.462-8.261-.205-1.22-1.369-7.329-3.865-7.329v.009Zm-3.027 39.441c-1.042 0-2.002-1.099-2.225-2.552-.112-.727-.028-1.444.233-2.021.288-.633.782-1.043 1.35-1.136.075-.009.158-.019.233-.019 1.052 0 2.002 1.099 2.226 2.552.14.922-.038 1.844-.485 2.449-.288.391-.67.643-1.099.708a2.029 2.029 0 0 1-.232.019Z" fill="#231815"/><path d="M88.56 190.946c.811 0 1.584.922 1.77 2.161.205 1.313-.335 2.496-1.201 2.626-.056 0-.112.009-.158.009-.81 0-1.584-.922-1.77-2.16-.205-1.313.335-2.496 1.202-2.627.055 0 .111-.009.158-.009Zm0-.931c-.102 0-.204 0-.297.019-.727.111-1.35.623-1.704 1.396-.298.662-.4 1.472-.27 2.282.26 1.704 1.397 2.943 2.69 2.943.103 0 .206 0 .299-.019.726-.111 1.35-.624 1.704-1.397.298-.661.4-1.471.27-2.281-.26-1.704-1.397-2.943-2.691-2.943Z" fill="#231815"/><path d="M89.436 195.863c-.735 0-1.415-.661-1.695-1.061-.41-.568-.754-1.49-.493-2.366.195-.67.8-1.443 1.546-1.574l5.997-1.033s.103-.01.13-.01c.81 0 1.314 1.239 1.5 2.291.13.783.14 1.807-.233 2.338a.808.808 0 0 1-.53.354s-5.905 1.015-5.998 1.033a1.42 1.42 0 0 1-.205.019l-.019.009Z" fill="#231815"/><path d="M94.903 190.294c.4 0 .847.829 1.034 1.909.195 1.118.018 2.087-.391 2.152l-5.998 1.033c-.037 0-.084.01-.12.01-.513 0-1.063-.503-1.323-.866-.392-.54-.624-1.304-.429-1.956.15-.484.633-1.146 1.174-1.239l5.997-1.033h.047m0-.932c-.066 0-.14 0-.205.019l-5.998 1.034c-1.043.177-1.713 1.229-1.909 1.9-.307 1.033.093 2.114.568 2.775.42.577 1.211 1.248 2.077 1.248.093 0 .186 0 .28-.028l5.997-1.034c.354-.065.978-.326 1.173-1.434.094-.512.084-1.146-.028-1.798-.223-1.294-.856-2.682-1.955-2.682Z" fill="#231815"/><path d="M95.322 195.286c-1.043 0-1.993-1.052-2.254-2.496-.13-.726-.065-1.443.187-2.03.27-.643.754-1.071 1.322-1.173.093-.019.177-.028.27-.028 1.043 0 1.993 1.052 2.254 2.495.13.727.065 1.444-.186 2.021-.27.643-.755 1.071-1.323 1.174a1.375 1.375 0 0 1-.27.028v.009Z" fill="#231815"/><path d="M94.838 190.033c.8 0 1.583.894 1.797 2.114.233 1.313-.27 2.496-1.127 2.655-.065.009-.12.018-.186.018-.8 0-1.574-.894-1.797-2.114-.233-1.313.27-2.496 1.126-2.654.066-.009.122-.019.187-.019Zm0-.931c-.121 0-.233.009-.354.028-.727.13-1.332.661-1.667 1.443-.28.671-.363 1.481-.214 2.291.298 1.667 1.443 2.878 2.71 2.878.12 0 .242-.009.354-.028 1.387-.251 2.216-1.89 1.88-3.734-.297-1.667-1.443-2.878-2.71-2.878Z" fill="#231815"/><path d="M72.03 196.72s-5.42 1.174-4.423 4.75c.521 1.862 6.323 3.585 8.242 2.524.82-.457.95-5.095.205-6.743-.392-.857-2.478-.903-4.014-.531h-.01Z" fill="#231815" stroke="#231815" stroke-miterlimit="10"/><path d="M85.255 193.945a.996.996 0 0 1-.661-.27.556.556 0 0 1-.103-.14l-1.564-3.306c-1.397-2.487.689-6.324.782-6.491l7.674-19.65a.476.476 0 0 1 .437-.298h.084a.857.857 0 0 1 .643.447c.298.549-.028 1.359-.093 1.518l-7.786 20.088c-.717 1.909-.363 3.371-.354 3.38.559 1.155 1.537 3.185 1.64 3.371.195.354.148.717.055.932a.384.384 0 0 1-.102.139.958.958 0 0 1-.643.261l-.01.019Z" fill="#231815"/><path d="M91.811 164.265c.717.121.205 1.322.205 1.322l-7.786 20.107c-.782 2.095-.372 3.669-.372 3.669s1.536 3.222 1.685 3.483c.15.261.038.493.038.493a.473.473 0 0 1-.326.14.56.56 0 0 1-.345-.14l-1.564-3.306c-1.295-2.319.763-6.062.763-6.062l7.702-19.706Zm0-.932a.926.926 0 0 0-.866.596l-7.683 19.651c-.345.633-2.17 4.283-.755 6.882l1.556 3.278a.99.99 0 0 0 .205.279c.093.093.456.391.987.391.354 0 .68-.13.95-.381a.98.98 0 0 0 .205-.28 1.476 1.476 0 0 0-.066-1.359c-.102-.187-.894-1.835-1.61-3.325-.057-.289-.215-1.5.363-3.036l7.785-20.097c.102-.233.447-1.165.056-1.891a1.333 1.333 0 0 0-.978-.689c-.056 0-.102-.009-.158-.009l.01-.01Z" fill="#231815"/><path d="M86.056 275.079c2.142 5.001 5.215 9.965 9.033 10.328h41.527s14.155 1.09 17.173-10.328H86.056Z" fill="#231815" stroke="#231815" stroke-miterlimit="10"/><path d="M141.98 281.831H98.237c-1.89 0-3.427.186-5.197-.727-1.77-.912-3.054-2.384-4.06-4.023-2.077-3.352-3.036-7.348-3.893-11.129-3.036-13.299-4.638-12.442-8.55-18.942-3.91-6.501.914-15.069 3.763-24.652 1.276-4.293 1.584-7.049 1.537-8.791-.335-1.052-.978-2.086-1.797-2.682-.373-.27-.755-.549-1.174-.736-1.034-.456-3.204-1.182-4.33-1.266-2.021-.149-3.12.298-7.246 3.669-7.832 6.389-14.1 18.738-14.658 29.27 0 0-.699 3.614 2.896 3.009 3.595-.596 23.627 1.545 27.436 21.242 0 0 4.284 18.589 12.125 19.343h41.527s7.58.578 12.823-3.585h-7.459Z" fill="#231815" stroke="#231815" stroke-miterlimit="10"/><path d="M210.299 269.435c-3.911-.996-3.362-4.991-3.362-4.991-.27-16.95-11.864-26.542-11.864-26.542-16.94-12.964-37.969-3.623-37.969-3.623-5.299 2.207-3.399-7.385-3.399-7.385h-7.795l-.559 3.735c-.084.53-.158 1.071-.233 1.601l-19.352-.791v.894h-6.165s-.801 5.196 1.294 6.193c2.096.996 10.813 3.092 11.101 10.281.289 7.19-16.837 6.119-16.362 24.372 0 0 93.175-1.341 95.094-2.077 2.85-1.098-.41-1.676-.41-1.676l-.019.009Z" fill="#231815" stroke="#231815" stroke-miterlimit="10"/><path d="M196.749 233.441c-.298 0-.531-.019-.661-.037h-23.906a1.663 1.663 0 0 1-1.667-1.658c0-.913.745-1.667 1.667-1.667h24.036c.075 0 .158 0 .233.019.056 0 .158.018.289.018.484 0 .903-.093 1.108-.251.046-.037.149-.112.177-.41.279-2.356 0-8.782-.009-8.847-.019-.447.13-.866.437-1.202a1.635 1.635 0 0 1 1.155-.54c.969 0 1.695.699 1.732 1.583.028.69.298 6.799-.009 9.388-.13 1.099-.633 2.021-1.462 2.654-1.015.782-2.254.941-3.12.941v.009Z" fill="#231815"/><path d="M199.673 219.332c.634 0 1.174.503 1.202 1.145.009.27.298 6.706 0 9.313-.112.978-.559 1.788-1.276 2.338-.932.717-2.096.847-2.841.847-.27 0-.493-.018-.614-.028h-23.962c-.662 0-1.202-.54-1.202-1.201s.54-1.201 1.202-1.201h24.036c.056 0 .112 0 .168.009.074.009.205.019.354.019.419 0 1.024-.066 1.387-.354.14-.112.308-.289.354-.717.289-2.422 0-8.857 0-8.922a1.198 1.198 0 0 1 1.146-1.248h.056m0-.931h-.094a2.133 2.133 0 0 0-1.48.689 2.162 2.162 0 0 0-.559 1.536c0 .066.289 6.436.009 8.773a.294.294 0 0 1-.028.121c-.056.028-.344.121-.801.121-.102 0-.186 0-.242-.009a2.728 2.728 0 0 0-.288-.019h-24.037c-1.174 0-2.133.96-2.133 2.133s.959 2.133 2.133 2.133h23.906c.159.018.382.028.661.028.941 0 2.291-.177 3.409-1.043.922-.708 1.49-1.742 1.639-2.971.307-2.626.047-8.773.009-9.462a2.13 2.13 0 0 0-2.132-2.03h.028Z" fill="#231815"/><path d="M179.297 232.808a1.665 1.665 0 0 1-1.667-1.667v-7.786c0-.922.745-1.667 1.667-1.667s1.667.745 1.667 1.667v7.786c0 .922-.745 1.667-1.667 1.667Z" fill="#231815"/><path d="M179.297 222.163c.661 0 1.201.54 1.201 1.201v7.786c0 .661-.54 1.201-1.201 1.201-.662 0-1.202-.54-1.202-1.201v-7.786c0-.661.54-1.201 1.202-1.201Zm0-.931a2.138 2.138 0 0 0-2.133 2.132v7.786c0 1.173.959 2.133 2.133 2.133 1.173 0 2.132-.96 2.132-2.133v-7.786a2.138 2.138 0 0 0-2.132-2.132Z" fill="#231815"/><path d="M193.34 237.632s8.727 7.394 11.418 17.499c0 0 .671 2.244 1.201 7.636.522 5.393.894 6.901 3.893 7.19 0 0-3.893.754-4.395-2.989-.578-4.34-.922-17.797-12.117-29.345v.009Z" fill="#231815" stroke="#231815" stroke-miterlimit="10"/><path d="M210.299 269.435c-3.911-.996-3.362-4.991-3.362-4.991-.27-16.95-11.864-26.542-11.864-26.542-16.94-12.964-37.969-3.623-37.969-3.623-5.299 2.207-3.399-7.385-3.399-7.385h-7.795l-.559 3.735c-.084.53-.158 1.071-.233 1.601l-19.352-.791v.894h-6.165s-.801 5.196 1.294 6.193c2.096.996 10.813 3.092 11.101 10.281.289 7.19-16.837 6.119-16.362 24.372 0 0 10.132-.149 23.775-.372 1.314-10.999 6.799-29.271 28.619-32.093 23.469-3.036 33.238 14.407 36.786 30.733 3.483-.121 5.634-.242 5.904-.345 2.85-1.098-.409-1.676-.409-1.676l-.01.009Z" fill="#231815" stroke="#231815" stroke-miterlimit="10"/><path d="M168.019 240.733c-21.82 2.831-27.306 21.094-28.619 32.092 4.219-.065 64.725-1.341 65.405-1.359-3.548-16.326-13.318-33.769-36.786-30.733Z" fill="#231815" stroke="#231815" stroke-miterlimit="10"/><path d="M169.043 243.434c-20.777 2.691-21.736 24.102-21.671 29.159 18.291-.317 38.714-.708 49.74-1.062-2.049-13.513-9.024-30.565-28.069-28.097Zm17.611-4.256c0 .857-.689 1.546-1.546 1.546h-4.256a1.542 1.542 0 0 1-1.546-1.546c0-.857.689-1.546 1.546-1.546h4.256c.857 0 1.546.689 1.546 1.546Z" fill="#231815" stroke="#231815" stroke-miterlimit="10"/><path d="M191.04 238.535c-.018-.065-.046-.121-.065-.177a.066.066 0 0 0-.019-.037l-.083-.168c0-.009-.01-.018-.019-.028a3.366 3.366 0 0 0-.503-.689c-.047-.056-.102-.102-.149-.149l-.009-.009a6.02 6.02 0 0 0-.876-.671c-.065-.037-.121-.074-.186-.111a8.508 8.508 0 0 0-.931-.466h-.01c-.055-.028-.111-.047-.177-.075-.232-.093-.447-.167-.633-.232h-.028c-.037-.01-.074-.028-.112-.038-.009 0-.018 0-.027-.009a1.442 1.442 0 0 1-.103-.028h-.019c-.102-.028-.186-.056-.26-.074h-.028c-.019 0-.028 0-.047-.01h-.112a7.721 7.721 0 0 0-2.039-.214h-.252a4.04 4.04 0 0 0-.502.065c-.038 0-.066.01-.103.019-.037 0-.074.018-.112.028-.046.009-.093.028-.139.037a.338.338 0 0 0-.103.037 8.07 8.07 0 0 1-.139.056l-.066.028a.539.539 0 0 0-.121.065c-.018 0-.028.019-.046.028a1.25 1.25 0 0 0-.14.103c-.009 0-.019.018-.028.028a.455.455 0 0 0-.093.093c-.009.009-.019.028-.028.037-.028.047-.065.084-.084.13-.028.066-.056.14-.084.205a.132.132 0 0 1-.018.056c-.019.065-.047.131-.065.196 0 .018 0 .028-.01.046-.028.084-.046.177-.065.261v.037l-.056.252c0 .018 0 .037-.009.056-.037.205-.065.419-.093.642v.037l-.028.336c-.158 1.946.084 4.284.642 4.591.066.037.14.065.215.102.028.01.046.019.074.028.056.019.103.038.168.056.028 0 .056.019.093.028a.939.939 0 0 0 .177.037c.028 0 .065.01.093.019l.196.028c.027 0 .055 0 .083.009.084 0 .168.019.252.019h.046c.326.019.68 0 1.043-.028 2.412-.233 5.448-1.481 5.821-2.812.177-.643.149-1.211-.019-1.705l-.065-.065Z" fill="#231815" stroke="#231815" stroke-miterlimit="10"/><path d="M169.397 235.788c-.363 0-.577-.028-.577-.028h-37.923c-.484-.056-1.108-.103-1.844-.159-3.65-.251-9.154-.642-10.244-3.371-.512-1.294.047-2.84 1.723-4.712 0-.112.037-.224.112-.307a6.897 6.897 0 0 1 1.918-1.528c2.152-1.183 4.769-1.397 7.274-1.462.354 0 .717-.009 1.071-.009 1.955 0 3.911.121 5.811.242 1.881.112 3.818.233 5.727.233 1.192 0 2.282-.047 3.316-.14 6.035-.549 12.013-2.049 17.787-3.492l.559-.14c2.477-.624 5.16-1.22 7.944-1.416.196-.009.643-.037.643-.037h.093c2.887.568 3.073 2.328 3.064 2.831.158.512.81 3.129 0 8.186-.792 4.908-5.132 5.29-6.445 5.29l-.009.019Z" fill="#231815"/><path d="M172.694 219.937c2.961.587 2.691 2.431 2.691 2.431s.894 2.542 0 8.055c-.726 4.48-4.563 4.899-5.979 4.899-.326 0-.521-.019-.521-.019h-37.978c-3.12-.419-16.791-.102-9.863-7.627.038-.037-.018-.093-.037-.14a6.559 6.559 0 0 1 1.788-1.424c2.114-1.155 4.703-1.341 7.059-1.407.354 0 .708-.009 1.062-.009 3.865 0 7.683.475 11.539.475 1.117 0 2.235-.037 3.362-.14 6.258-.577 12.339-2.123 18.421-3.641 2.579-.643 5.206-1.22 7.869-1.406.186-.01.401-.028.615-.038m0-.931h-.047c-.223.009-.438.028-.633.037-2.822.196-5.523.801-8.028 1.435l-.559.139c-5.764 1.444-11.725 2.934-17.722 3.483a35.92 35.92 0 0 1-3.269.14c-1.9 0-3.828-.121-5.699-.233-1.9-.121-3.875-.242-5.84-.242-.363 0-.717 0-1.08.009-2.561.066-5.243.289-7.478 1.518a7.695 7.695 0 0 0-2.049 1.63.904.904 0 0 0-.205.41c-1.723 1.965-2.282 3.632-1.704 5.085 1.192 2.999 6.882 3.399 10.644 3.66.727.046 1.351.093 1.751.149h38.053c.093 0 .298.018.568.018 1.406 0 6.053-.409 6.901-5.681.791-4.87.223-7.571.018-8.307.019-.996-.651-2.691-3.445-3.241a1.18 1.18 0 0 0-.177-.018v.009Z" fill="#231815"/><path d="M54.494 239.215c2.682-.876 4.592-17.415 18.263-26.672 0 0 3.436-3.344-.931-2.831-1.23.54-2.794 1.406-4.536 2.831-6.938 5.662-12.647 15.99-14.249 25.601.243.829.69 1.322 1.453 1.071Z" fill="#231815" stroke="#231815" stroke-miterlimit="10"/><path d="M76.538 247.485a.473.473 0 0 1-.335-.14c-6.603-6.752-2.831-16.446.205-24.232.93-2.393 1.816-4.657 2.281-6.566.913-3.706.168-4.638-1.061-6.174a.5.5 0 0 1-.056-.531.468.468 0 0 1 .4-.251h.056c.121.018 2.906.4 3.949 3.892.503 1.686.13 4.377-1.239 9.015-.642 2.179-1.397 4.303-2.114 6.352-2.468 7.022-4.61 13.084-1.695 17.927a.46.46 0 0 1-.4.699l.009.009Z" fill="#231815"/><path d="M77.981 210.056s2.59.326 3.558 3.558c.503 1.667.037 4.451-1.239 8.744-2.85 9.583-7.674 18.151-3.762 24.652-8.4-8.596.615-22.258 2.608-30.36.968-3.949.12-4.983-1.174-6.603m0-.931a.93.93 0 0 0-.726 1.508l.018.019c1.22 1.527 1.835 2.291.978 5.774-.466 1.881-1.34 4.125-2.263 6.51-3.082 7.906-6.92 17.759-.102 24.725.177.187.419.28.67.28a.938.938 0 0 0 .8-1.416c-2.802-4.656-.697-10.626 1.733-17.536.727-2.058 1.472-4.191 2.124-6.379 1.425-4.787 1.778-7.479 1.238-9.276-1.136-3.772-4.21-4.2-4.34-4.219h-.111l-.019.01Zm20.908 67.537c-2.3 0-4.247-.186-5.951-.568-1.565-.354-2.86-1.378-3.642-2.896-.968-1.872-1.061-4.247-.242-6.194.876-2.086 2.766-3.734 4.955-4.302a9.283 9.283 0 0 1 1.387-.242c.624-.065 1.248-.084 1.863-.103.968-.028 1.881-.056 2.775-.251 1.909-.419 3.604-1.602 5.243-2.747.438-.308.876-.615 1.313-.904 2.655-1.76 4.936-1.844 7.581-1.956.708-.027 1.444-.055 2.217-.121 1.22-.102 2.523-.195 3.809-.195 1.285 0 2.319.084 3.334.261 5.122.875 7.701 4.824 7.087 10.83-.717 6.929-8.345 7.432-13.923 7.805-.801.056-1.565.102-2.263.167-1.397.131-2.896.317-4.461.503-3.492.429-7.441.904-11.082.904v.009Z" fill="#231815"/><path d="M120.188 256.639c1.089 0 2.188.065 3.259.252 5.411.922 7.236 5.178 6.705 10.328-.773 7.487-10.197 7.031-15.766 7.562-4.582.428-10.3 1.406-15.497 1.406-2.067 0-4.051-.158-5.849-.559-3.64-.819-4.88-5.299-3.566-8.456.82-1.956 2.589-3.501 4.647-4.032a9.035 9.035 0 0 1 1.322-.233c1.556-.158 3.148-.019 4.685-.354 2.514-.549 4.563-2.291 6.714-3.716 3.25-2.151 5.979-1.704 9.583-2.002 1.248-.103 2.515-.196 3.772-.196m0-.931c-1.313 0-2.626.093-3.846.196-.764.065-1.49.093-2.198.121-2.598.102-5.057.205-7.823 2.03-.447.298-.885.605-1.332.913-1.667 1.173-3.25 2.272-5.066 2.672-.847.187-1.742.215-2.682.233-.615.019-1.257.037-1.9.103a9.046 9.046 0 0 0-1.462.26c-2.319.606-4.34 2.366-5.271 4.582-.866 2.077-.764 4.601.26 6.585.848 1.639 2.254 2.747 3.959 3.129 1.741.391 3.715.577 6.053.577 3.66 0 7.627-.484 11.129-.903 1.574-.196 3.064-.373 4.451-.503.69-.065 1.453-.112 2.254-.168 5.737-.382 13.597-.903 14.351-8.223.652-6.286-2.076-10.421-7.469-11.343-1.043-.177-2.16-.261-3.417-.261h.009Z" fill="#231815"/><path d="M141.132 210.913c-5.476-3.399-11.101-6.864-17.415-8.158-6.314-1.295-13.559 0-17.778 4.889-3.092 3.586-4.116 8.512-4.321 13.243-.494 11.762-2.254 24.204-3.027 35.957 8.95 1.323 23.729.82 32.744.084-2.16-7.525-4.33-15.049-6.491-22.574-.875-3.046-1.751-6.1-2.319-9.211-.14-.745-1.266-7.282.075-6.994.195.047.54.987.652 1.164.735 1.202 1.713 2.319 2.598 3.409 1.788 2.216 3.716 4.33 5.858 6.212 3.799 3.315 8.381 5.885 13.373 6.63 4.992.745 10.393-.503 14.09-3.93 3.977-3.697 5.523-9.313 6.194-14.705.67-5.392 1.834-10.821 3.492-15.99-17.052-1.332-35.324-2.272-52.423-2.617-.009 1.434-.121 2.794.131 4.2" fill="#231815"/><path d="M141.132 210.913c-5.476-3.399-11.101-6.864-17.415-8.158-6.314-1.295-13.559 0-17.778 4.889-3.092 3.586-4.116 8.512-4.321 13.243-.494 11.762-2.254 24.204-3.027 35.957 8.95 1.323 23.729.82 32.744.084-2.16-7.525-4.33-15.049-6.491-22.574-.875-3.046-1.751-6.1-2.319-9.211-.14-.745-1.266-7.282.075-6.994.195.047.54.987.652 1.164.735 1.202 1.713 2.319 2.598 3.409 1.788 2.216 3.716 4.33 5.858 6.212 3.799 3.315 8.381 5.885 13.373 6.63 4.992.745 10.393-.503 14.09-3.93 3.977-3.697 5.523-9.313 6.194-14.705.67-5.392 1.834-10.821 3.492-15.99-17.052-1.332-35.324-2.272-52.423-2.617-.009 1.434-.121 2.794.131 4.2" stroke="#231815" stroke-miterlimit="10"/><path d="M155.232 214.284c-1.276 2.859-2.44 5.867-2.375 8.996.065 3.13 1.63 6.408 4.498 7.656 2.208.959 3.521-.28 4.685-2.068a20.802 20.802 0 0 0 2.701-6.072c.13-.484 1.08-5.271.67-5.308a16.434 16.434 0 0 1-4.042-.941c-2.049-.754-4.088-1.508-6.137-2.263Z" fill="#231815" stroke="#231815" stroke-miterlimit="10"/><path d="M172.023 181.046a.461.461 0 0 1-.419-.447l-.68-22.174c-1.22-1.052-13.773-4.535-17.936-5.69a249.17 249.17 0 0 1-2.394-.67c-1.49-.457-2.989-.885-4.489-1.314a214.392 214.392 0 0 0-19.333-4.479c-1.211-.224-2.431-.438-3.642-.652-5.261-.941-10.7-1.909-15.981-3.269a.615.615 0 0 1-.344-.288c-.382-.811 1.9-6.594 1.918-6.641.699-1.518 1.714-2.961 2.701-4.358l.447-.633c2.366-3.381 5.495-6.342 9.052-8.577 6.314-3.958 14.044-6.035 23.646-6.352a66.616 66.616 0 0 1 2.365-.037c5.988 0 11.176.773 15.869 2.365 8.131 2.757 15.562 8.103 20.927 15.041a37.142 37.142 0 0 1 4.311 7.115c2.571 5.56 3.8 11.799 3.67 18.542-.093 4.833-1.034 13.867-6.249 20.041a.459.459 0 0 1-.354.168.548.548 0 0 1-.214-.047.474.474 0 0 1-.242-.531c.307-1.248 1.108-5.42-1.667-6.789a4.727 4.727 0 0 0-2.105-.475c-1.714 0-3.53.838-4.871 2.245-1.602 1.685-2.719 4.088-3.501 7.552a.469.469 0 0 1-.457.364h-.046l.018-.01Z" fill="#231815"/><path d="M146.943 115.921c5.318 0 10.654.624 15.711 2.338 7.963 2.701 15.329 7.925 20.712 14.882a36.873 36.873 0 0 1 4.266 7.031c2.589 5.607 3.753 11.828 3.622 18.337-.139 6.873-1.723 14.519-6.137 19.753.708-2.84.578-6.1-1.909-7.32a5.17 5.17 0 0 0-2.31-.521c-1.89 0-3.827.94-5.206 2.393-1.955 2.049-2.97 4.917-3.613 7.776-.233-7.431-.456-14.863-.689-22.295-.037-1.136-18.645-6.063-20.665-6.677-1.491-.457-2.99-.885-4.499-1.313a215.892 215.892 0 0 0-19.38-4.499c-6.547-1.192-13.131-2.253-19.585-3.911-.419-.112 1.658-5.783 1.891-6.286.782-1.714 2.021-3.371 3.11-4.917 2.366-3.381 5.43-6.259 8.922-8.447 7.022-4.405 15.282-6.007 23.413-6.277a65.74 65.74 0 0 1 2.356-.037m0-.932c-.773 0-1.583.01-2.384.038-9.686.316-17.49 2.412-23.869 6.416-3.604 2.263-6.789 5.271-9.192 8.708l-.447.633c-.997 1.416-2.03 2.868-2.738 4.433-.028.056-2.44 5.951-1.919 7.041.131.27.364.465.643.53 5.29 1.369 10.747 2.338 16.018 3.279 1.211.214 2.422.428 3.642.651a213.556 213.556 0 0 1 19.287 4.471c1.49.419 2.998.856 4.479 1.303.354.112 1.229.354 2.421.68 3.949 1.099 15.646 4.349 17.593 5.495v.419l.679 21.513a.925.925 0 0 0 .839.894h.093c.428 0 .81-.298.903-.727.764-3.389 1.835-5.718 3.381-7.338 1.257-1.313 2.952-2.105 4.535-2.105.68 0 1.313.149 1.9.429 2.468 1.21 1.713 5.094 1.415 6.258a.934.934 0 0 0 .475 1.052c.131.065.28.103.429.103a.89.89 0 0 0 .708-.336c5.308-6.286 6.258-15.44 6.36-20.33.14-6.807-1.108-13.112-3.706-18.747a37.837 37.837 0 0 0-4.368-7.208c-5.42-7.012-12.926-12.414-21.15-15.198-4.74-1.612-9.974-2.385-16.018-2.385l-.009.028Zm-30.779 46.332a3.38 3.38 0 1 0-.001-6.761 3.38 3.38 0 0 0 .001 6.761Z" fill="#231815"/><path d="M116.174 155.036a2.913 2.913 0 0 1 2.915 2.914 2.913 2.913 0 0 1-2.915 2.915 2.913 2.913 0 0 1-2.915-2.915 2.913 2.913 0 0 1 2.915-2.914Zm0-.932a3.847 3.847 0 1 0 .002 7.694 3.847 3.847 0 0 0-.002-7.694Zm8.419 8.838a3.38 3.38 0 1 0 0-6.76 3.38 3.38 0 0 0 0 6.76Z" fill="#231815"/><path d="M124.593 156.656a2.914 2.914 0 0 1 2.915 2.915 2.914 2.914 0 0 1-2.915 2.915 2.913 2.913 0 0 1-2.915-2.915 2.913 2.913 0 0 1 2.915-2.915Zm0-.931a3.847 3.847 0 1 0 0 7.694 3.847 3.847 0 0 0 0-7.694Zm17.35 25.852c-8.876 10.999-24.484 15.739-37.979 11.53-.698-.214-1.387-.457-2.058-.689-2.077-.718-4.041-1.397-5.923-1.351-1.732.047-3.818 1.248-3.818 2.682a2.596 2.596 0 0 1-2.58 2.599 2.588 2.588 0 0 1-2.589-2.58c0-2.235 1.071-4.293 3.027-5.811 1.63-1.258 3.753-2.012 5.82-2.068 2.822-.074 5.337.792 7.758 1.63.661.233 1.285.447 1.909.643 5.523 1.722 11.791 1.695 17.667-.094 5.876-1.778 11.101-5.243 14.733-9.741" fill="#231815"/><path d="M141.943 181.577c-8.876 10.999-24.484 15.739-37.979 11.53-.698-.214-1.387-.457-2.058-.689-2.077-.718-4.041-1.397-5.923-1.351-1.732.047-3.818 1.248-3.818 2.682a2.596 2.596 0 0 1-2.58 2.599 2.588 2.588 0 0 1-2.589-2.58c0-2.235 1.071-4.293 3.027-5.811 1.63-1.258 3.753-2.012 5.82-2.068 2.822-.074 5.337.792 7.758 1.63.661.233 1.285.447 1.909.643 5.523 1.722 11.791 1.695 17.667-.094 5.876-1.778 11.101-5.243 14.733-9.741" stroke="#231815" stroke-miterlimit="10"/><path d="M110.511 132.862c7.842-8.093 14.901-10.561 25.732-9.714 12.358.969 24.418 5.83 32.558 13.597 8.111 7.748 14.5 22.314 12.647 33.797-2.347-.578-6.296 2.328-7.227 4.721 1.397-8.763-1.09-19.026-5.997-26.197-4.89-7.143-15.022-13.709-22.948-16.204-25.619-8.093-34.774 0-34.774 0h.009Z" fill="#231815" stroke="#231815" stroke-miterlimit="10"/><path d="m127.191 166.49-.084 1.165m1.35-1.174.066 1.164m1.154-1.369.233 1.062m-22.127-5.225-.978.643m1.751.345-.885.754m1.788.093-.698.829" stroke="#231815" stroke-linecap="round" stroke-linejoin="round"/></g><path d="M26.547 344.522h-5.824v.644h5.824v-.644Zm-5.824 2.38h5.824v-.644h-5.824v.644Zm0 1.778h5.824v-.672h-5.824v.672Zm-1.61 1.68v-7.014h9.1v6.944h-1.666v-.406h-5.824v.476h-1.61Zm7.672-10.584v1.092h-6.314v-1.092h6.314Zm-.014 2.842h-6.286v-1.106h6.286v1.106Zm-8.596-4.662h10.892v5.012h-1.68v-3.836h-7.602v3.85h-1.61v-5.026Zm21.28 2.492h2.996a14.213 14.213 0 0 1-1.652-1.26c-.42.448-.868.868-1.344 1.26Zm-.588 1.246v-.812c-.434.308-.91.602-1.386.854-.21-.294-.686-.798-1.022-1.092-.154.518-.28 1.022-.42 1.456.714 1.078.854 2.086.854 2.884 0 .924-.154 1.526-.56 1.848-.196.168-.448.266-.742.308-.224.042-.532.042-.812.042-.014-.406-.126-1.022-.336-1.442.21.028.364.028.518.014a.454.454 0 0 0 .322-.112c.154-.126.21-.434.21-.854 0-.644-.112-1.568-.784-2.534.224-.84.476-1.988.672-2.912H34.36v11.004h-1.386v-12.488h2.842l.224-.056 1.036.602c-.182.658-.392 1.4-.588 2.128 1.596-.826 3.066-2.128 3.85-3.402l1.596.56c-.084.14-.168.294-.266.434 1.036.84 2.562 1.666 3.934 2.114a7.609 7.609 0 0 0-.63 1.582 16.88 16.88 0 0 1-1.988-1.036v.91h-4.116Zm3.57 1.82v1.288h.98v-1.288h-.98Zm-1.204 2.394v-3.514h3.472v3.514h-3.472Zm-2.814-2.394v1.288h.938v-1.288h-.938Zm-1.19 2.394v-3.514h3.374v3.514H37.23Zm1.092.154 1.456.308c-.084.28-.196.56-.308.826.49.322 1.036.714 1.33 1.008l-.84 1.106c-.238-.28-.672-.644-1.106-.966a7.132 7.132 0 0 1-2.002 2.086c-.224-.28-.756-.826-1.078-1.05 1.232-.728 2.128-1.904 2.548-3.318Zm3.864-.014 1.498.21a7.54 7.54 0 0 1-.322 1.134c.784.546 1.694 1.204 2.17 1.68l-.98 1.12c-.392-.42-1.078-.994-1.778-1.512-.42.7-.938 1.288-1.554 1.736-.21-.28-.742-.84-1.064-1.05 1.092-.714 1.764-1.89 2.03-3.318Zm12.39-5.824h5.67s-.014.574-.042.798c-.28 5.572-.56 7.672-1.176 8.4-.42.546-.826.7-1.428.784-.518.07-1.386.07-2.24.028-.028-.504-.252-1.246-.574-1.722.882.07 1.708.07 2.072.07.294 0 .462-.042.658-.224.42-.434.7-2.268.924-6.426h-3.92c-.224 2.898-1.204 6.3-5.138 8.526-.266-.42-.896-1.05-1.302-1.358 3.472-1.89 4.41-4.718 4.648-7.168h-4.214v-1.708h4.284v-2.884h1.778v2.884Z" fill="#231815"/><g clip-path="url(#clip2_94_6218)"><path d="M72.785 335.49c.85 0 2.2 2.79 2.91 3.15.49.25 2.39-.54 2.78-.16.39.38-.17 2.53.08 3.05.35.7 3.14 1.8 3.14 2.64 0 .87-2.86 2.13-3.23 2.85-.26.5.42 2.5.02 2.89-.4.39-2.52-.26-3.05-.01-.68.32-1.77 2.94-2.57 2.94-.8 0-2.04-2.63-2.73-2.96-.52-.25-2.53.46-2.93.07-.4-.39.31-2.39.05-2.9-.36-.71-3.11-1.95-3.11-2.8 0-.85 2.65-1.98 2.98-2.66.26-.53-.42-2.61-.01-3.02.41-.41 2.36.3 2.86.04.71-.36 1.675-3.11 2.525-3.11l.285-.01Z" fill="#FFE600" stroke="#231815" stroke-miterlimit="10"/><path d="M75.695 338.64c-.71-.36-2.06-3.15-2.91-3.15v17.35h.08c.8 0 1.89-2.62 2.57-2.94.53-.25 2.65.4 3.05.01.4-.39-.28-2.39-.02-2.89.37-.72 3.23-1.98 3.23-2.85 0-.84-2.79-1.94-3.14-2.64-.25-.52.31-2.67-.08-3.05-.39-.38-2.29.41-2.78.16Z" fill="#fff"/><path d="M72.785 335.49c.85 0 2.2 2.79 2.91 3.15.49.25 2.39-.54 2.78-.16.39.38-.17 2.53.08 3.05.35.7 3.14 1.8 3.14 2.64 0 .87-2.86 2.13-3.23 2.85-.26.5.42 2.5.02 2.89-.4.39-2.52-.26-3.05-.01-.68.32-1.77 2.94-2.57 2.94h-.08v-17.35Zm0 0 .01.01" stroke="#231815" stroke-miterlimit="10"/></g><g clip-path="url(#clip3_94_6218)"><path d="M93.345 335.49c.85 0 2.2 2.79 2.91 3.15.49.25 2.39-.54 2.78-.16.39.38-.17 2.53.08 3.05.35.7 3.14 1.8 3.14 2.64 0 .87-2.86 2.13-3.23 2.85-.26.5.42 2.5.02 2.89-.4.39-2.52-.26-3.05-.01-.68.32-1.77 2.94-2.57 2.94-.8 0-2.04-2.63-2.73-2.96-.52-.25-2.53.46-2.93.07-.4-.39.31-2.39.05-2.9-.36-.71-3.11-1.95-3.11-2.8 0-.85 2.65-1.98 2.98-2.66.26-.53-.42-2.61-.01-3.02.41-.41 2.36.3 2.86.04.71-.36 1.97-3.11 2.82-3.11l-.01-.01Z" fill="#FFE600" stroke="#231815" stroke-miterlimit="10"/><path d="M96.695 338.64c-.71-.36-2.06-3.15-2.91-3.15v17.35h.08c.8 0 1.89-2.62 2.57-2.94.53-.25 2.65.4 3.05.01.4-.39-.28-2.39-.02-2.89.37-.72 3.23-1.98 3.23-2.85 0-.84-2.79-1.94-3.14-2.64-.25-.52.31-2.67-.08-3.05-.39-.38-2.29.41-2.78.16Z" fill="#fff"/><path d="M93.785 335.49c.85 0 2.2 2.79 2.91 3.15.49.25 2.39-.54 2.78-.16.39.38-.17 2.53.08 3.05.35.7 3.14 1.8 3.14 2.64 0 .87-2.86 2.13-3.23 2.85-.26.5.42 2.5.02 2.89-.4.39-2.52-.26-3.05-.01-.68.32-1.77 2.94-2.57 2.94h-.08v-17.35Zm0 0 .01.01" stroke="#231815" stroke-miterlimit="10"/></g><g clip-path="url(#clip4_94_6218)"><path d="M113.905 335.49c.85 0 2.2 2.79 2.91 3.15.49.25 2.39-.54 2.78-.16.39.38-.17 2.53.08 3.05.35.7 3.14 1.8 3.14 2.64 0 .87-2.86 2.13-3.23 2.85-.26.5.42 2.5.02 2.89-.4.39-2.52-.26-3.05-.01-.68.32-1.77 2.94-2.57 2.94-.8 0-2.04-2.63-2.73-2.96-.52-.25-2.53.46-2.93.07-.4-.39.31-2.39.05-2.9-.36-.71-3.11-1.95-3.11-2.8 0-.85 2.65-1.98 2.98-2.66.26-.53-.42-2.61-.01-3.02.41-.41 2.36.3 2.86.04.71-.36 1.97-3.11 2.82-3.11l-.01-.01Z" fill="#FFE600" stroke="#231815" stroke-miterlimit="10"/><path d="M116.695 338.64c-.71-.36-2.06-3.15-2.91-3.15v17.35h.08c.8 0 1.89-2.62 2.57-2.94.53-.25 2.65.4 3.05.01.4-.39-.28-2.39-.02-2.89.37-.72 3.23-1.98 3.23-2.85 0-.84-2.79-1.94-3.14-2.64-.25-.52.31-2.67-.08-3.05-.39-.38-2.29.41-2.78.16Z" fill="#fff"/><path d="M113.785 335.49c.85 0 2.2 2.79 2.91 3.15.49.25 2.39-.54 2.78-.16.39.38-.17 2.53.08 3.05.35.7 3.14 1.8 3.14 2.64 0 .87-2.86 2.13-3.23 2.85-.26.5.42 2.5.02 2.89-.4.39-2.52-.26-3.05-.01-.68.32-1.77 2.94-2.57 2.94h-.08v-17.35Zm0 0 .01.01" stroke="#231815" stroke-miterlimit="10"/></g><path d="m165.733 346.322 1.484.504c-.574.784-1.4 1.764-2.058 2.338-.28-.266-.896-.714-1.26-.938a9.44 9.44 0 0 0 1.834-1.904Zm4.676.672 1.204-.7c.63.644 1.526 1.554 1.988 2.128l-1.288.784c-.42-.56-1.26-1.526-1.904-2.212Zm.392-3.206v-.518h-3.598v.518h3.598Zm0 1.456v-.532h-3.598v.532h3.598Zm-6.552-6.342v3.108c0 .378-.014.784-.028 1.204a7.623 7.623 0 0 0 1.204-.728c-.266-.224-.56-.462-.826-.644l.84-.742c.266.168.588.392.868.602.21-.21.406-.434.574-.672h-2.142v-1.246h2.884c.112-.294.224-.588.308-.882h-3.682Zm5.292 2.128h-.938c-.266.434-.56.854-.91 1.26h2.702a7.67 7.67 0 0 1-.854-1.26Zm3.08 0h-1.568c.21.28.462.546.742.798.294-.266.616-.574.826-.798Zm.07 0 .91.672c-.294.28-.63.56-.952.798.42.266.868.504 1.33.658a4.81 4.81 0 0 0-.966 1.176 6.639 6.639 0 0 1-.756-.406v2.296h-2.45v1.792c0 .686-.126 1.022-.644 1.246-.476.21-1.106.21-1.946.21-.098-.42-.336-.966-.518-1.33.518.014 1.092.014 1.274.014.168 0 .224-.056.224-.196v-1.736h-2.38v-2.31c-.266.182-.546.35-.84.504a3.555 3.555 0 0 0-.77-.91c-.14 2.03-.63 4.396-2.044 5.95-.21-.308-.84-.91-1.148-1.106.924-1.022 1.344-2.324 1.54-3.626-.504.308-.994.602-1.484.868l-.462-1.498c.546-.224 1.302-.602 2.1-1.008.014-.364.014-.728.014-1.078v-.476l-1.232.56c-.14-.714-.476-1.918-.77-2.814l1.232-.49c.266.784.588 1.792.77 2.478v-3.766h4.648l-.28-.84 1.694-.336c.14.364.28.784.406 1.176h4.578v1.4h-5.264l.98.126c-.084.266-.182.504-.28.756h4.438v1.246h-.952Zm7.728 8.162-1.26-.7c.49-.504.952-1.316 1.204-2.002l1.246.546c-.294.714-.686 1.596-1.19 2.156Zm4.368-4.522v-2.716h1.176v2.716h-1.176Zm3.346-2.856v3.136c0 .588-.084.854-.49 1.036-.392.182-.91.182-1.638.182-.056-.336-.238-.77-.406-1.078.448.014.882.014 1.036 0 .14-.014.182-.042.182-.168v-3.108h1.316Zm-4.746 4.606 1.05-.658c.434.364 1.05.924 1.344 1.288l-1.078.728c-.28-.392-.854-.952-1.316-1.358Zm-1.764-2.24h1.4v-.392h-1.386c0 .126 0 .266-.014.392Zm1.4-1.442h-1.386v.35h1.386v-.35Zm1.19-.812v3.234c0 .476-.084.658-.406.798-.28.14-.728.14-1.316.14-.028-.266-.168-.574-.28-.812.28.014.574.014.672.014.098 0 .14-.028.14-.14v-.28h-1.484c-.112.504-.322.966-.742 1.33-.196-.224-.714-.63-.98-.784.602-.462.644-1.078.644-1.68v-1.82h3.752Zm-.476 6.272h1.54c.364 0 .448-.112.49-.84.266.182.798.336 1.148.406-.14 1.19-.49 1.498-1.498 1.498h-1.862c-1.414 0-1.75-.322-1.75-1.4v-1.33h1.358v1.316c0 .322.084.35.574.35Zm2.674-1.26 1.19-.532c.518.658 1.134 1.554 1.414 2.156l-1.26.588c-.238-.574-.826-1.526-1.344-2.212Zm-3.024-6.272h2.142a18.048 18.048 0 0 1-1.148-.588c-.322.21-.644.406-.994.588Zm-3.64-1.708v1.694c1.47-.364 3.108-.938 4.158-1.694h-4.158Zm5.698.28-.14.14a17.324 17.324 0 0 0 3.962 1.19c-.308.28-.686.742-.868 1.134a20.442 20.442 0 0 1-2.212-.742v.602h-3.668v-.476c-.686.28-1.4.546-2.086.742a4.917 4.917 0 0 0-.686-.924v1.162c0 2.226-.294 5.488-2.086 7.434-.21-.308-.84-.896-1.148-1.092.924-1.022 1.344-2.338 1.54-3.654-.504.308-.994.616-1.484.896l-.462-1.498c.546-.238 1.302-.616 2.1-1.008.014-.378.014-.742.014-1.078v-.49l-1.232.574c-.07-.742-.392-1.918-.756-2.814l1.19-.504c.35.784.672 1.764.798 2.45v-3.724h4.83a11.057 11.057 0 0 0-.294-.952l1.68-.322c.154.392.322.854.448 1.274h4.242v1.4h-4.256l.574.28Zm12.81.056h5.67s-.014.574-.042.798c-.28 5.572-.56 7.672-1.176 8.4-.42.546-.826.7-1.428.784-.518.07-1.386.07-2.24.028-.028-.504-.252-1.246-.574-1.722.882.07 1.708.07 2.072.07.294 0 .462-.042.658-.224.42-.434.7-2.268.924-6.426h-3.92c-.224 2.898-1.204 6.3-5.138 8.526-.266-.42-.896-1.05-1.302-1.358 3.472-1.89 4.41-4.718 4.648-7.168h-4.214v-1.708h4.284v-2.884h1.778v2.884Z" fill="#231815"/><g clip-path="url(#clip5_94_6218)" stroke="#231815" stroke-miterlimit="10"><path d="M219.405 335.49c-1.34 0-2.54.55-3.41 1.44a4.741 4.741 0 0 0-3.41-1.44c-2.64 0-4.77 2.13-4.77 4.77 0 4.79 8.18 10.62 8.18 10.62s8.18-5.83 8.18-10.62a4.77 4.77 0 0 0-4.77-4.77Z" fill="#FF002A"/><path d="M215.995 336.93c.87-.89 2.07-1.44 3.41-1.44a4.77 4.77 0 0 1 4.77 4.77c0 4.79-8.18 10.62-8.18 10.62v-13.95Z" fill="#fff"/></g><g clip-path="url(#clip6_94_6218)" stroke="#231815" stroke-miterlimit="10"><path d="M238.755 335.49c-1.34 0-2.54.55-3.41 1.44a4.741 4.741 0 0 0-3.41-1.44c-2.64 0-4.77 2.13-4.77 4.77 0 4.79 8.18 10.62 8.18 10.62s8.18-5.83 8.18-10.62a4.77 4.77 0 0 0-4.77-4.77Z" fill="#FF002A"/><path d="M234.995 336.93c.87-.89 2.07-1.44 3.41-1.44a4.77 4.77 0 0 1 4.77 4.77c0 4.79-8.18 10.62-8.18 10.62v-13.95Z" fill="#fff"/></g><g clip-path="url(#clip7_94_6218)" stroke="#231815" stroke-miterlimit="10"><path d="M258.105 335.49c-1.34 0-2.54.55-3.41 1.44a4.741 4.741 0 0 0-3.41-1.44c-2.64 0-4.77 2.13-4.77 4.77 0 4.79 8.18 10.62 8.18 10.62s8.18-5.83 8.18-10.62a4.77 4.77 0 0 0-4.77-4.77Z" fill="#FF002A"/><path d="M254.995 336.93c.87-.89 2.07-1.44 3.41-1.44a4.77 4.77 0 0 1 4.77 4.77c0 4.79-8.18 10.62-8.18 10.62v-13.95Z" fill="#fff"/></g><path d="M15.5 368.35a4.5 4.5 0 0 1 4.5-4.5h44.5v33H20a4.5 4.5 0 0 1-4.5-4.5v-24Z" fill="#00698A"/><path d="M33.778 377.916v-.798H31.86v.798h1.918Zm0 2.212v-.868H31.86v.868h1.918Zm0 2.226v-.882H31.86v.882h1.918Zm-3.528 1.988v-5.81c-.238.28-.476.518-.714.756-.154-.336-.616-1.162-.896-1.526 1.12-1.008 2.128-2.604 2.688-4.242l1.512.42c-.21.602-.476 1.19-.756 1.778h2.086a13.32 13.32 0 0 0-.658-1.512l1.568-.448c.35.602.714 1.372.896 1.96h2.212v1.4H35.36v.798h2.254v1.344H35.36v.868h2.198v1.344H35.36v.882h2.982v1.4H31.86v.588h-1.61Zm-1.68-8.526-1.526.532c-.154-.63-.518-1.652-.756-2.408l1.47-.448c.266.756.616 1.694.812 2.324Zm.126 3.962.714.252c-.252 1.274-.63 2.59-1.106 3.64.224.14.49.336.868.56.952.574 2.268.658 3.906.658 1.61 0 4.116-.14 5.656-.364-.182.448-.462 1.26-.476 1.708-1.162.07-3.626.168-5.264.168-1.862 0-3.038-.154-4.046-.742-.588-.322-1.078-.784-1.372-.784-.322 0-.812.952-1.162 1.75l-1.106-1.582c.476-.588.994-1.05 1.47-1.33.308-.7.588-1.582.798-2.436h-1.764c.322-.826.7-1.946 1.008-3.038h-1.26v-1.484h3.276c-.294.98-.63 2.1-.952 3.08h.56l.252-.056Zm15.652-6.23 1.554.518a21.66 21.66 0 0 1-1.358 2.66v9.842h-1.582v-7.546c-.448.56-.882 1.05-1.344 1.484-.154-.406-.616-1.316-.882-1.736 1.428-1.232 2.814-3.22 3.612-5.222Zm5.026 11.228h2.044c.714 0 .826-.588.952-2.898.378.294 1.036.616 1.47.7-.182 2.702-.602 3.668-2.296 3.668h-2.338c-1.722 0-2.212-.56-2.212-2.464v-10.024h1.61v3.556h4.872v1.596h-4.872v4.9c0 .826.098.966.77.966Z" fill="#fff"/><path d="M15.5 368.35a4.5 4.5 0 0 1 4.5-4.5h44.5v33H20a4.5 4.5 0 0 1-4.5-4.5v-24Z" stroke="#231815"/><path d="M64.5 363.85H260a4.5 4.5 0 0 1 4.5 4.5v24a4.5 4.5 0 0 1-4.5 4.5H64.5v-33Z" fill="#fff"/><g clip-path="url(#clip8_94_6218)"><path d="M78.636 373.35h.49c.019.005.039.012.058.013.203.017.404.051.602.104a3.553 3.553 0 0 1 1.634.934c.31.307.553.66.735 1.055.228.493.33 1.011.33 1.552.002.587 0 1.172 0 1.759v.099h.099c.175 0 .349-.003.524 0 .288.004.525.166.61.426.03.089.041.188.041.283.003 2.357.002 4.713.002 7.069v.07a.638.638 0 0 1-.437.604c-.024.008-.046.021-.068.032h-8.75l-.085-.036a.632.632 0 0 1-.362-.336.73.73 0 0 1-.059-.316v-7.139a.638.638 0 0 1 .657-.657c.179-.002.357 0 .535 0 .025 0 .05-.003.083-.004v-1.973a3.569 3.569 0 0 1 .932-2.351 3.577 3.577 0 0 1 2.207-1.154c.075-.01.148-.022.222-.034Zm2.574 5.512.002-.063c0-.607.002-1.213 0-1.82 0-.119-.006-.24-.025-.358a2.272 2.272 0 0 0-.767-1.412 2.255 2.255 0 0 0-1.95-.545c-.68.118-1.203.484-1.572 1.066a2.122 2.122 0 0 0-.347 1.13c-.007.644 0 1.289 0 1.933 0 .023.004.045.007.069h4.654-.002Zm-2.964 4.945c0 .128-.004.257 0 .384a.631.631 0 0 0 .864.571.638.638 0 0 0 .403-.591c0-.248.003-.495-.001-.743 0-.072.02-.122.075-.173.328-.309.428-.685.296-1.114a1.034 1.034 0 0 0-.977-.728 1.058 1.058 0 0 0-.722 1.86.154.154 0 0 1 .062.134c-.004.133 0 .267 0 .401v-.001Z" fill="#231815"/></g><g clip-path="url(#clip9_94_6218)"><path d="M98.396 373.35h.49c.02.005.04.012.058.013.204.017.404.051.603.104a3.547 3.547 0 0 1 1.633.934c.31.307.553.66.735 1.055.228.493.33 1.011.331 1.552.002.587 0 1.172 0 1.759v.099h.098c.175 0 .349-.003.525 0 .288.004.525.166.609.426.03.089.042.188.042.283.002 2.357.001 4.713.001 7.069v.07a.638.638 0 0 1-.437.604c-.024.008-.045.021-.068.032h-8.75l-.085-.036a.632.632 0 0 1-.362-.336.73.73 0 0 1-.059-.316v-7.139a.638.638 0 0 1 .658-.657c.178-.002.356 0 .534 0 .026 0 .051-.003.083-.004v-1.973a3.57 3.57 0 0 1 .932-2.351 3.577 3.577 0 0 1 2.207-1.154c.075-.01.149-.022.222-.034Zm2.574 5.512c0-.028.003-.046.003-.063v-1.82c0-.119-.007-.24-.026-.358a2.272 2.272 0 0 0-.767-1.412 2.255 2.255 0 0 0-1.95-.545c-.68.118-1.202.484-1.572 1.066a2.122 2.122 0 0 0-.347 1.13c-.006.644 0 1.289 0 1.933 0 .023.004.045.007.069h4.655-.003Zm-2.963 4.945c0 .128-.004.257 0 .384a.631.631 0 0 0 .863.571.638.638 0 0 0 .403-.591c0-.248.003-.495 0-.743 0-.072.02-.122.074-.173.328-.309.429-.685.296-1.114a1.034 1.034 0 0 0-.976-.728 1.058 1.058 0 0 0-.722 1.86.154.154 0 0 1 .062.134c-.004.133 0 .267 0 .401v-.001Z" fill="#231815"/></g><g clip-path="url(#clip10_94_6218)"><path d="M118.157 373.35h.49c.019.005.039.012.058.013.203.017.404.051.602.104a3.556 3.556 0 0 1 1.634.934c.309.307.553.66.735 1.055.228.493.329 1.011.331 1.552v1.858h.097c.176 0 .35-.003.525 0 .288.004.525.166.61.426a.928.928 0 0 1 .041.283c.003 2.357.001 4.713.001 7.069v.07a.637.637 0 0 1-.436.604c-.024.008-.046.021-.068.032h-8.75c-.028-.012-.057-.025-.086-.036a.631.631 0 0 1-.361-.336.729.729 0 0 1-.059-.316v-7.139a.639.639 0 0 1 .657-.657c.179-.002.357 0 .535 0 .025 0 .051-.003.083-.004v-1.973a3.572 3.572 0 0 1 .932-2.351 3.579 3.579 0 0 1 2.207-1.154c.075-.01.148-.022.222-.034Zm2.574 5.512.002-.063c0-.607.002-1.213 0-1.82 0-.119-.006-.24-.025-.358a2.272 2.272 0 0 0-.767-1.412 2.256 2.256 0 0 0-1.95-.545c-.68.118-1.203.484-1.572 1.066a2.116 2.116 0 0 0-.347 1.13c-.007.644 0 1.289 0 1.933 0 .023.004.045.007.069h4.654-.002Zm-2.964 4.945c0 .128-.004.257 0 .384a.632.632 0 0 0 .864.571.64.64 0 0 0 .403-.591c0-.248.003-.495-.001-.743 0-.072.02-.122.075-.173.328-.309.428-.685.296-1.114a1.035 1.035 0 0 0-.977-.728 1.053 1.053 0 0 0-1.013.667c-.168.416-.053.891.292 1.193a.152.152 0 0 1 .061.134c-.004.133 0 .267 0 .401v-.001Z" fill="#231815"/></g><path d="M64.5 363.85H260a4.5 4.5 0 0 1 4.5 4.5v24a4.5 4.5 0 0 1-4.5 4.5H64.5v-33Z" stroke="#231815"/><path d="M15.5 412.35a4.5 4.5 0 0 1 4.5-4.5h44.5v33H20a4.5 4.5 0 0 1-4.5-4.5v-24Z" fill="#00698A"/><path d="M33.918 420.978v2.002h-1.526v-2.002h1.526Zm1.512 7.644h-.462c.21.252.406.504.546.77h.308c.14 0 .238-.028.322-.154.154-.196.266-.896.35-2.772h-3.472v.392h2.408v1.764Zm-2.408.406.896-.042a3.952 3.952 0 0 0-.196-.252l.28-.112h-.98v.406Zm1.148-1.064v-.448h-1.148v.448h1.148Zm-3.724 0h1.176v-.448h-1.176v.448Zm1.176-1.498h-1.134c-.14.14-.28.266-.434.392h1.568v-.392Zm-3.374-5.684v1.372c0 1.302-.056 2.954-.308 4.564.868-.476 1.54-1.036 2.002-1.596h-1.148v-1.96h.28l-.238-.826c.588-.098 1.386-.224 2.24-.392a15.106 15.106 0 0 0-1.96-.406l.238-.728c.84.098 1.792.266 2.38.462l-.238.602.532-.098.014.826c-.896.21-1.82.42-2.59.56h7.266c-.658-.196-1.568-.378-2.408-.49l.238-.714.294.014-.322-.658c.504-.084 1.246-.336 1.806-.532h-8.078Zm7.896-1.722h-7.896v.658h7.896v-.658Zm-.042 5.39v-.616h-1.19v.616h1.19Zm-2.45 0v-.616H32.49v.616h1.162Zm-2.422 0v-.616h-1.134v.616h1.134Zm.112 1.092h6.678s0 .35-.014.518c-.112 2.604-.252 3.598-.56 3.976-.224.294-.504.392-.812.434-.294.056-.77.056-1.26.042a2.693 2.693 0 0 0-.098-.532l-.602.252a3.58 3.58 0 0 0-.154-.336c-2.156.154-4.382.294-5.992.392l-.098-1.078c.868-.028 1.974-.084 3.192-.14v-.448h-2.366v-1.176a12.67 12.67 0 0 1-.56.364c-.182-.252-.518-.56-.798-.77-.224 1.274-.546 2.492-1.078 3.486-.308-.252-1.022-.658-1.442-.812 1.162-2.156 1.26-5.334 1.26-7.56v-4.144h11.13v2.772h-.966l.364.644c-.686.266-1.624.448-2.282.56.854.098 1.778.28 2.324.448l-.266.728h.532v1.96H31.65c-.098.14-.196.28-.308.42Zm19.222 2.996h3.304v1.582H45.16v-1.582h3.738v-2.8h-2.702v-1.554h2.702v-2.296h-1.54c-.21.728-.49 1.4-.784 1.932a14.722 14.722 0 0 0-1.484-.756c.14-.252.28-.518.42-.812l-.798.364c-.084-.42-.294-1.036-.532-1.61v9.562h-1.666v-10.01c-.084 1.176-.308 2.716-.63 3.71l-1.232-.448c.336-.924.588-2.492.686-3.64l1.176.168v-2.856h1.666v2.646l.812-.336c.28.546.574 1.218.77 1.764.35-1.022.602-2.226.742-3.416l1.624.224c-.098.658-.21 1.316-.35 1.946h1.12v-2.744h1.666v2.744h2.856v1.568h-2.856v2.296h2.562v1.554h-2.562v2.8Z" fill="#fff"/><path d="M15.5 412.35a4.5 4.5 0 0 1 4.5-4.5h44.5v33H20a4.5 4.5 0 0 1-4.5-4.5v-24Z" stroke="#231815"/><path d="M64.5 407.85H260a4.5 4.5 0 0 1 4.5 4.5v24a4.5 4.5 0 0 1-4.5 4.5H64.5v-33Z" fill="#fff"/><g clip-path="url(#clip11_94_6218)"><path d="M78.636 417.35h.49c.019.005.039.012.058.013.203.017.404.051.602.104a3.553 3.553 0 0 1 1.634.934c.31.307.553.66.735 1.055.228.493.33 1.011.33 1.552.002.587 0 1.172 0 1.759v.099h.099c.175 0 .349-.003.524 0 .288.004.525.166.61.426.03.089.041.188.041.283.003 2.357.002 4.713.002 7.069v.07a.638.638 0 0 1-.437.604c-.024.008-.046.021-.068.032h-8.75l-.085-.036a.632.632 0 0 1-.362-.336.73.73 0 0 1-.059-.316v-7.139a.638.638 0 0 1 .657-.657c.179-.002.357 0 .535 0 .025 0 .05-.003.083-.004v-1.973a3.569 3.569 0 0 1 .932-2.351 3.577 3.577 0 0 1 2.207-1.154c.075-.01.148-.022.222-.034Zm2.574 5.512.002-.063c0-.607.002-1.213 0-1.82 0-.119-.006-.24-.025-.358a2.272 2.272 0 0 0-.767-1.412 2.255 2.255 0 0 0-1.95-.545c-.68.118-1.203.484-1.572 1.066a2.122 2.122 0 0 0-.347 1.13c-.007.644 0 1.289 0 1.933 0 .023.004.045.007.069h4.654-.002Zm-2.964 4.945c0 .128-.004.257 0 .384a.631.631 0 0 0 .864.571.638.638 0 0 0 .403-.591c0-.248.003-.495-.001-.743 0-.072.02-.122.075-.173.328-.309.428-.685.296-1.114a1.034 1.034 0 0 0-.977-.728 1.058 1.058 0 0 0-.722 1.86.154.154 0 0 1 .062.134c-.004.133 0 .267 0 .401v-.001Z" fill="#231815"/></g><g clip-path="url(#clip12_94_6218)"><path d="M98.396 417.35h.49c.02.005.04.012.058.013.204.017.404.051.603.104a3.547 3.547 0 0 1 1.633.934c.31.307.553.66.735 1.055.228.493.33 1.011.331 1.552.002.587 0 1.172 0 1.759v.099h.098c.175 0 .349-.003.525 0 .288.004.525.166.609.426.03.089.042.188.042.283.002 2.357.001 4.713.001 7.069v.07a.638.638 0 0 1-.437.604c-.024.008-.045.021-.068.032h-8.75l-.085-.036a.632.632 0 0 1-.362-.336.73.73 0 0 1-.059-.316v-7.139a.638.638 0 0 1 .658-.657c.178-.002.356 0 .534 0 .026 0 .051-.003.083-.004v-1.973a3.57 3.57 0 0 1 .932-2.351 3.577 3.577 0 0 1 2.207-1.154c.075-.01.149-.022.222-.034Zm2.574 5.512c0-.028.003-.046.003-.063v-1.82c0-.119-.007-.24-.026-.358a2.272 2.272 0 0 0-.767-1.412 2.255 2.255 0 0 0-1.95-.545c-.68.118-1.202.484-1.572 1.066a2.122 2.122 0 0 0-.347 1.13c-.006.644 0 1.289 0 1.933 0 .023.004.045.007.069h4.655-.003Zm-2.963 4.945c0 .128-.004.257 0 .384a.631.631 0 0 0 .863.571.638.638 0 0 0 .403-.591c0-.248.003-.495 0-.743 0-.072.02-.122.074-.173.328-.309.429-.685.296-1.114a1.034 1.034 0 0 0-.976-.728 1.058 1.058 0 0 0-.722 1.86.154.154 0 0 1 .062.134c-.004.133 0 .267 0 .401v-.001Z" fill="#231815"/></g><g clip-path="url(#clip13_94_6218)"><path d="M118.157 417.35h.49c.019.005.039.012.058.013.203.017.404.051.602.104a3.556 3.556 0 0 1 1.634.934c.309.307.553.66.735 1.055.228.493.329 1.011.331 1.552v1.858h.097c.176 0 .35-.003.525 0 .288.004.525.166.61.426a.928.928 0 0 1 .041.283c.003 2.357.001 4.713.001 7.069v.07a.637.637 0 0 1-.436.604c-.024.008-.046.021-.068.032h-8.75c-.028-.012-.057-.025-.086-.036a.631.631 0 0 1-.361-.336.729.729 0 0 1-.059-.316v-7.139a.639.639 0 0 1 .657-.657c.179-.002.357 0 .535 0 .025 0 .051-.003.083-.004v-1.973a3.572 3.572 0 0 1 .932-2.351 3.579 3.579 0 0 1 2.207-1.154c.075-.01.148-.022.222-.034Zm2.574 5.512.002-.063c0-.607.002-1.213 0-1.82 0-.119-.006-.24-.025-.358a2.272 2.272 0 0 0-.767-1.412 2.256 2.256 0 0 0-1.95-.545c-.68.118-1.203.484-1.572 1.066a2.116 2.116 0 0 0-.347 1.13c-.007.644 0 1.289 0 1.933 0 .023.004.045.007.069h4.654-.002Zm-2.964 4.945c0 .128-.004.257 0 .384a.632.632 0 0 0 .864.571.64.64 0 0 0 .403-.591c0-.248.003-.495-.001-.743 0-.072.02-.122.075-.173.328-.309.428-.685.296-1.114a1.035 1.035 0 0 0-.977-.728 1.053 1.053 0 0 0-1.013.667c-.168.416-.053.891.292 1.193a.152.152 0 0 1 .061.134c-.004.133 0 .267 0 .401v-.001Z" fill="#231815"/></g><path d="M64.5 407.85H260a4.5 4.5 0 0 1 4.5 4.5v24a4.5 4.5 0 0 1-4.5 4.5H64.5v-33Z" stroke="#231815"/><path d="M15.5 456.35a4.5 4.5 0 0 1 4.5-4.5h44.5v33H20a4.5 4.5 0 0 1-4.5-4.5v-24Z" fill="#00698A"/><path d="m30.138 467.442.21 1.526c-.49.14-.994.28-1.498.406v3.346c0 .812-.154 1.204-.63 1.47-.462.252-1.134.294-2.114.294a7.24 7.24 0 0 0-.476-1.512c.546.014 1.12.014 1.302.014.21 0 .266-.07.266-.28v-2.884l-1.358.336-.434-1.582c.518-.098 1.12-.238 1.792-.406v-2.478h-1.61v-1.54h1.61v-2.66h1.652v2.66h1.372v1.54H28.85v2.072l1.288-.322Zm5.852.756h-3.402a8.001 8.001 0 0 0 1.652 2.478 7.802 7.802 0 0 0 1.75-2.478Zm1.05-1.568 1.064.448c-.532 1.946-1.428 3.472-2.604 4.648.91.644 1.988 1.106 3.234 1.414-.35.336-.826 1.008-1.064 1.442-1.358-.406-2.52-.98-3.486-1.764-1.092.756-2.324 1.316-3.682 1.722-.182-.448-.588-1.148-.896-1.512 1.232-.294 2.366-.742 3.346-1.372-.826-.938-1.484-2.044-1.988-3.332l.42-.126h-.728V466.7h2.758v-1.68h-3.01v-1.54h3.01v-2.002h1.652v2.002h3.136v1.54h-3.136v1.68h1.68l.294-.07Zm15.274 1.036h-2.128c-1.68 0-2.128-.616-2.128-2.17v-3.976h1.652v1.652h3.444v1.428H49.71v.924c0 .518.084.714.532.714h2.044c.392 0 .98-.042 1.288-.112.028.434.098 1.036.154 1.414-.294.098-.882.126-1.414.126Zm-9.044 1.498v.504c0 .532-.028 1.162-.098 1.792.63-.28 1.456-.7 2.296-1.148v-.462l-.672.658c-.35-.364-.994-.91-1.526-1.344Zm2.198-1.26H43.27v.994l.7-.602c.476.336 1.078.826 1.498 1.19v-1.582Zm1.568-1.4v6.524c0 .686-.126 1.036-.588 1.26-.448.21-1.078.238-1.932.238-.07-.392-.294-.938-.504-1.302.504.028 1.05.028 1.218.028.182 0 .238-.056.238-.238v-1.428c-.7.504-1.4.98-2.03 1.386l-.35-.98c-.154.952-.462 1.904-.994 2.632-.238-.322-.868-.924-1.162-1.12.742-1.092.798-2.632.798-3.85v-3.15h5.306Zm-2.128-3.486 1.344-.49c.588 1.008 1.33 2.38 1.666 3.22l-1.456.588c-.084-.252-.21-.546-.35-.882-3.542.35-4.116.434-4.522.602a17.634 17.634 0 0 0-.518-1.498c.252-.056.49-.252.77-.56.28-.308 1.134-1.386 1.652-2.492l1.68.476c-.476.812-1.106 1.624-1.722 2.324l2.044-.154c-.21-.406-.406-.798-.588-1.134Zm5.446 9.996h1.596c.476 0 .574-.238.644-1.526.336.252 1.008.504 1.442.602-.168 1.834-.602 2.38-1.932 2.38h-1.988c-1.652 0-2.058-.49-2.058-2.016v-4.396h1.652v1.4h3.542v1.47H49.71v1.526c0 .49.098.56.644.56Z" fill="#fff"/><path d="M15.5 456.35a4.5 4.5 0 0 1 4.5-4.5h44.5v33H20a4.5 4.5 0 0 1-4.5-4.5v-24Z" stroke="#231815"/><path d="M64.5 451.85H260a4.5 4.5 0 0 1 4.5 4.5v24a4.5 4.5 0 0 1-4.5 4.5H64.5v-33Z" fill="#fff"/><g clip-path="url(#clip14_94_6218)"><path d="M78.636 461.35h.49c.019.005.039.012.058.013.203.017.404.051.602.104a3.553 3.553 0 0 1 1.634.934c.31.307.553.66.735 1.055.228.493.33 1.011.33 1.552.002.587 0 1.172 0 1.759v.099h.099c.175 0 .349-.003.524 0 .288.004.525.166.61.426.03.089.041.188.041.283.003 2.357.002 4.713.002 7.069v.07a.638.638 0 0 1-.437.604c-.024.008-.046.021-.068.032h-8.75l-.085-.036a.632.632 0 0 1-.362-.336.73.73 0 0 1-.059-.316v-7.139a.638.638 0 0 1 .657-.657c.179-.002.357 0 .535 0 .025 0 .05-.003.083-.004v-1.973a3.569 3.569 0 0 1 .932-2.351 3.577 3.577 0 0 1 2.207-1.154c.075-.01.148-.022.222-.034Zm2.574 5.512.002-.063c0-.607.002-1.213 0-1.82 0-.119-.006-.24-.025-.358a2.272 2.272 0 0 0-.767-1.412 2.255 2.255 0 0 0-1.95-.545c-.68.118-1.203.484-1.572 1.066a2.122 2.122 0 0 0-.347 1.13c-.007.644 0 1.289 0 1.933 0 .023.004.045.007.069h4.654-.002Zm-2.964 4.945c0 .128-.004.257 0 .384a.631.631 0 0 0 .864.571.638.638 0 0 0 .403-.591c0-.248.003-.495-.001-.743 0-.072.02-.122.075-.173.328-.309.428-.685.296-1.114a1.034 1.034 0 0 0-.977-.728 1.058 1.058 0 0 0-.722 1.86.154.154 0 0 1 .062.134c-.004.133 0 .267 0 .401v-.001Z" fill="#231815"/></g><g clip-path="url(#clip15_94_6218)"><path d="M98.396 461.35h.49c.02.005.04.012.058.013.204.017.404.051.603.104a3.547 3.547 0 0 1 1.633.934c.31.307.553.66.735 1.055.228.493.33 1.011.331 1.552.002.587 0 1.172 0 1.759v.099h.098c.175 0 .349-.003.525 0 .288.004.525.166.609.426.03.089.042.188.042.283.002 2.357.001 4.713.001 7.069v.07a.638.638 0 0 1-.437.604c-.024.008-.045.021-.068.032h-8.75l-.085-.036a.632.632 0 0 1-.362-.336.73.73 0 0 1-.059-.316v-7.139a.638.638 0 0 1 .658-.657c.178-.002.356 0 .534 0 .026 0 .051-.003.083-.004v-1.973a3.57 3.57 0 0 1 .932-2.351 3.577 3.577 0 0 1 2.207-1.154c.075-.01.149-.022.222-.034Zm2.574 5.512c0-.028.003-.046.003-.063v-1.82c0-.119-.007-.24-.026-.358a2.272 2.272 0 0 0-.767-1.412 2.255 2.255 0 0 0-1.95-.545c-.68.118-1.202.484-1.572 1.066a2.122 2.122 0 0 0-.347 1.13c-.006.644 0 1.289 0 1.933 0 .023.004.045.007.069h4.655-.003Zm-2.963 4.945c0 .128-.004.257 0 .384a.631.631 0 0 0 .863.571.638.638 0 0 0 .403-.591c0-.248.003-.495 0-.743 0-.072.02-.122.074-.173.328-.309.429-.685.296-1.114a1.034 1.034 0 0 0-.976-.728 1.058 1.058 0 0 0-.722 1.86.154.154 0 0 1 .062.134c-.004.133 0 .267 0 .401v-.001Z" fill="#231815"/></g><g clip-path="url(#clip16_94_6218)"><path d="M118.157 461.35h.49c.019.005.039.012.058.013.203.017.404.051.602.104a3.556 3.556 0 0 1 1.634.934c.309.307.553.66.735 1.055.228.493.329 1.011.331 1.552v1.858h.097c.176 0 .35-.003.525 0 .288.004.525.166.61.426a.928.928 0 0 1 .041.283c.003 2.357.001 4.713.001 7.069v.07a.637.637 0 0 1-.436.604c-.024.008-.046.021-.068.032h-8.75c-.028-.012-.057-.025-.086-.036a.631.631 0 0 1-.361-.336.729.729 0 0 1-.059-.316v-7.139a.639.639 0 0 1 .657-.657c.179-.002.357 0 .535 0 .025 0 .051-.003.083-.004v-1.973a3.572 3.572 0 0 1 .932-2.351 3.579 3.579 0 0 1 2.207-1.154c.075-.01.148-.022.222-.034Zm2.574 5.512.002-.063c0-.607.002-1.213 0-1.82 0-.119-.006-.24-.025-.358a2.272 2.272 0 0 0-.767-1.412 2.256 2.256 0 0 0-1.95-.545c-.68.118-1.203.484-1.572 1.066a2.116 2.116 0 0 0-.347 1.13c-.007.644 0 1.289 0 1.933 0 .023.004.045.007.069h4.654-.002Zm-2.964 4.945c0 .128-.004.257 0 .384a.632.632 0 0 0 .864.571.64.64 0 0 0 .403-.591c0-.248.003-.495-.001-.743 0-.072.02-.122.075-.173.328-.309.428-.685.296-1.114a1.035 1.035 0 0 0-.977-.728 1.053 1.053 0 0 0-1.013.667c-.168.416-.053.891.292 1.193a.152.152 0 0 1 .061.134c-.004.133 0 .267 0 .401v-.001Z" fill="#231815"/></g><path d="M64.5 451.85H260a4.5 4.5 0 0 1 4.5 4.5v24a4.5 4.5 0 0 1-4.5 4.5H64.5v-33Z" stroke="#231815"/><rect x=".5" y=".5" width="279" height="504.35" rx="4.5" stroke="#231815"/><defs><clipPath id="clip0_94_6218"><path fill="#fff" transform="translate(79.27)" d="M0 0h121.46v30.99H0z"/></clipPath><clipPath id="clip1_94_6218"><path fill="#fff" transform="translate(33 114.99)" d="M0 0h213.089v180H0z"/></clipPath><clipPath id="clip2_94_6218"><path fill="#fff" transform="translate(63.635 334.99)" d="M0 0h18.56v18.36H0z"/></clipPath><clipPath id="clip3_94_6218"><path fill="#fff" transform="translate(84.195 334.99)" d="M0 0h18.56v18.36H0z"/></clipPath><clipPath id="clip4_94_6218"><path fill="#fff" transform="translate(104.755 334.99)" d="M0 0h18.56v18.36H0z"/></clipPath><clipPath id="clip5_94_6218"><path fill="#fff" transform="translate(207.315 334.99)" d="M0 0h17.35v16.5H0z"/></clipPath><clipPath id="clip6_94_6218"><path fill="#fff" transform="translate(226.665 334.99)" d="M0 0h17.35v16.5H0z"/></clipPath><clipPath id="clip7_94_6218"><path fill="#fff" transform="translate(246.015 334.99)" d="M0 0h17.35v16.5H0z"/></clipPath><clipPath id="clip8_94_6218"><path fill="#fff" transform="translate(74 373.35)" d="M0 0h9.761v14H0z"/></clipPath><clipPath id="clip9_94_6218"><path fill="#fff" transform="translate(93.76 373.35)" d="M0 0h9.761v14H0z"/></clipPath><clipPath id="clip10_94_6218"><path fill="#fff" transform="translate(113.521 373.35)" d="M0 0h9.761v14H0z"/></clipPath><clipPath id="clip11_94_6218"><path fill="#fff" transform="translate(74 417.35)" d="M0 0h9.761v14H0z"/></clipPath><clipPath id="clip12_94_6218"><path fill="#fff" transform="translate(93.76 417.35)" d="M0 0h9.761v14H0z"/></clipPath><clipPath id="clip13_94_6218"><path fill="#fff" transform="translate(113.521 417.35)" d="M0 0h9.761v14H0z"/></clipPath><clipPath id="clip14_94_6218"><path fill="#fff" transform="translate(74 461.35)" d="M0 0h9.761v14H0z"/></clipPath><clipPath id="clip15_94_6218"><path fill="#fff" transform="translate(93.76 461.35)" d="M0 0h9.761v14H0z"/></clipPath><clipPath id="clip16_94_6218"><path fill="#fff" transform="translate(113.521 461.35)" d="M0 0h9.761v14H0z"/></clipPath></defs></svg>