<svg fill="none" xmlns="http://www.w3.org/2000/svg" viewBox="0 0 280 506"><rect x=".5" y=".5" width="279" height="504.35" rx="4.5" fill="#F590A8"/><g clip-path="url(#clip0_94_6220)" stroke="#231815" stroke-miterlimit="10"><path d="M84.32 27.21c.34 1.64 1.95 2.83 3.83 2.84l103.68.44c1.88 0 3.5-1.17 3.85-2.81l4.41-20.48c.67-3.11-1.07-6.21-3.48-6.22L83.06.5C80.7.49 79.29 2.97 79.92 6l4.4 21.2v.01Z" fill="#00698A"/><path d="M116.48 17.4c.14 1.03.82 1.78 1.61 1.79l43.77.23c.79 0 1.48-.74 1.63-1.77l1.87-12.91c.28-1.96-.45-3.91-1.47-3.92L115.95.57c-.99 0-1.59 1.56-1.33 3.47l1.85 13.36h.01Z" fill="#F590A8"/><path d="M185.67 10.21c0-1.42 1.16-2.56 2.58-2.55 1.42 0 2.56 1.16 2.55 2.58 0 1.42-1.16 2.56-2.57 2.55-1.42 0-2.56-1.16-2.55-2.58h-.01Zm-10.74-.02c0-1.42 1.16-2.56 2.58-2.55 1.42 0 2.56 1.16 2.55 2.58 0 1.42-1.16 2.56-2.58 2.55-1.42 0-2.56-1.16-2.55-2.58Zm-80.59-.28c0-1.42-1.15-2.57-2.56-2.57-1.42 0-2.57 1.15-2.57 2.56 0 1.42 1.15 2.57 2.56 2.57 1.42 0 2.57-1.15 2.57-2.56Zm10.73.02c0-1.42-1.15-2.57-2.56-2.57-1.42 0-2.57 1.15-2.57 2.56 0 1.42 1.15 2.57 2.56 2.57 1.42 0 2.57-1.15 2.57-2.56Z" fill="#FFE600"/></g><path d="M119.96 52.702v.744l.984-.024c-.12-.168-.24-.336-.36-.48l.552-.24h-1.176Zm-4.368-1.8h1.416v-.648h-1.416v.648Zm0-2.976v.624h1.416v-.624h-1.416Zm5.784 0h-1.416v.624h1.416v-.624Zm0 2.976v-.648h-1.416v.648h1.416Zm-8.832 5.088-.192-2.424c1.296 0 2.904-.024 4.656-.072v-.792h-4.104v-6.576h4.104v-.624h-4.416v-2.52h4.416V41.47h2.952v1.512h4.632v2.52h-4.632v.624h4.248v6.576h-.696c.648.888 1.248 1.896 1.584 2.64l-2.424 1.176c-.096-.24-.216-.528-.36-.816-3.528.144-7.128.216-9.768.288Zm6.6 5.28v-2.04h-2.688c.552.648 1.032 1.368 1.296 1.944l-.696.432c.696.024 1.416.024 1.632.024.336-.024.456-.096.456-.36Zm-13.824-8.112v.984h.912v-.984h-.912Zm0-3.192v.96h.912v-.96h-.912Zm4.104.96v-.96h-.984v.96h.984Zm0 3.216v-.984h-.984v.984h.984Zm12.912 1.8v.768h2.616v2.52h-2.616v2.136c0 1.416-.264 2.136-1.272 2.568-1.008.408-2.28.432-3.96.432-.096-.72-.408-1.608-.696-2.352l-1.128.696c-.336-.84-1.128-2.088-1.944-2.952l.912-.528H112.4v1.44h-3.528v3.576H105.8V60.67h-3.672v-3.024h3.672v-1.128h-2.88V47.59h2.88v-1.008h-3.312v-2.976h3.312v-2.112h3.072v2.112h3.24v2.976h-3.24v1.008h3.048v8.928h-3.048v1.128h3.528v-.936h6.744v-.768h3.192Zm24.024-3.24v.744l.984-.024c-.12-.168-.24-.336-.36-.48l.552-.24h-1.176Zm-4.368-1.8h1.416v-.648h-1.416v.648Zm0-2.976v.624h1.416v-.624h-1.416Zm5.784 0h-1.416v.624h1.416v-.624Zm0 2.976v-.648h-1.416v.648h1.416Zm-8.832 5.088-.192-2.424c1.296 0 2.904-.024 4.656-.072v-.792h-4.104v-6.576h4.104v-.624h-4.416v-2.52h4.416V41.47h2.952v1.512h4.632v2.52h-4.632v.624h4.248v6.576h-.696c.648.888 1.248 1.896 1.584 2.64l-2.424 1.176c-.096-.24-.216-.528-.36-.816-3.528.144-7.128.216-9.768.288Zm6.6 5.28v-2.04h-2.688c.552.648 1.032 1.368 1.296 1.944l-.696.432c.696.024 1.416.024 1.632.024.336-.024.456-.096.456-.36Zm-13.824-8.112v.984h.912v-.984h-.912Zm0-3.192v.96h.912v-.96h-.912Zm4.104.96v-.96h-.984v.96h.984Zm0 3.216v-.984h-.984v.984h.984Zm12.912 1.8v.768h2.616v2.52h-2.616v2.136c0 1.416-.264 2.136-1.272 2.568-1.008.408-2.28.432-3.96.432-.096-.72-.408-1.608-.696-2.352l-1.128.696c-.336-.84-1.128-2.088-1.944-2.952l.912-.528H138.8v1.44h-3.528v3.576H132.2V60.67h-3.672v-3.024h3.672v-1.128h-2.88V47.59h2.88v-1.008h-3.312v-2.976h3.312v-2.112h3.072v2.112h3.24v2.976h-3.24v1.008h3.048v8.928h-3.048v1.128h3.528v-.936h6.744v-.768h3.192Zm16.368-11.112v-1.104h-.816v1.104h.816Zm2.52-3v4.872h-5.712V41.83h5.712Zm-8.616 10.128v.72h1.176v-.72h-1.176Zm0-2.592v.72h1.176v-.72h-1.176Zm5.208.72v-.72h-1.248v.72h1.248Zm0 2.592v-.72h-1.248v.72h1.248Zm-8.256 1.992v-7.296h11.448v7.296H155.96Zm2.856-9.84v-1.104h-.744v1.104h.744Zm2.448-3v4.872h-5.52V41.83h5.52Zm7.152 13.344v2.4H155v-2.4h13.416Zm-8.88 6.024h4.296v-.792h-4.296v.792Zm18.168-10.2h-3.6c.6 4.272 1.776 8.256 4.056 10.44-.768.624-1.896 1.944-2.424 2.88-1.488-1.608-2.496-3.816-3.216-6.432-.792 2.328-1.992 4.536-3.816 6.384-.336-.432-.96-1.056-1.56-1.584v1.344h-3.312v-.48h-4.296v.72h-3.168v-6.168h10.776v2.688c2.472-2.856 3.12-6.6 3.312-9.792h-2.712v-3.192h2.76v-6.36h3.384v1.632l2.52-.912c.696 1.32 1.392 3.048 1.608 4.2l-2.904 1.08c-.12-1.008-.648-2.568-1.224-3.888v4.248h3.816v3.192Z" fill="#231815"/><path d="M15.5 199.99c0-68.759 55.74-124.5 124.5-124.5 68.759 0 124.5 55.741 124.5 124.5v120a4.5 4.5 0 0 1-4.5 4.5H20a4.5 4.5 0 0 1-4.5-4.5v-120Z" fill="#fff" stroke="#231815"/><g clip-path="url(#clip1_94_6220)"><path d="M149.251 183.352c-8.551 10.597-23.589 15.164-36.59 11.109-.673-.207-1.337-.44-1.983-.664-2.001-.691-3.894-1.346-5.707-1.301-1.669.044-3.678 1.202-3.678 2.584a2.501 2.501 0 0 1-2.486 2.503 2.493 2.493 0 0 1-2.494-2.485c0-2.154 1.032-4.137 2.916-5.599 1.57-1.212 3.616-1.938 5.608-1.992 2.718-.072 5.141.762 7.474 1.57.637.224 1.238.431 1.839.619 5.321 1.66 11.36 1.633 17.021-.09 5.662-1.713 10.696-5.051 14.195-9.385" fill="#231815"/><path d="M149.251 183.352c-8.551 10.597-23.589 15.164-36.59 11.109-.673-.207-1.337-.44-1.983-.664-2.001-.691-3.894-1.346-5.707-1.301-1.669.044-3.678 1.202-3.678 2.584a2.501 2.501 0 0 1-2.486 2.503 2.493 2.493 0 0 1-2.494-2.485c0-2.154 1.032-4.137 2.916-5.599 1.57-1.212 3.616-1.938 5.608-1.992 2.718-.072 5.141.762 7.474 1.57.637.224 1.238.431 1.839.619 5.321 1.66 11.36 1.633 17.021-.09 5.662-1.713 10.696-5.051 14.195-9.385" stroke="#231815" stroke-width=".75" stroke-linecap="round" stroke-linejoin="round"/><path d="M118.062 178.812c-.206 0-.412-.009-.628-.027l-.52-.027c-2.504-.053-3.921-.843-5.707-1.839-.377-.215-.78-.44-1.22-.673-.7-.377-1.49-.646-2.243-.915-.978-.35-1.992-.709-2.898-1.283-1.58-1.005-2.728-2.961-2.19-4.675-1.857-.206-3.643-1.202-4.773-2.692-1.158-1.525-1.624-3.571-1.274-5.446-1.624-.171-3.078-.879-3.966-1.947-1.176-1.427-1.624-3.428-1.194-5.213-.807-.261-1.543-.826-2.063-1.588-.62-.916-.853-2.001-.646-2.997.386-1.84 2.117-3.132 4.199-3.132.188 0 .377.009.565.036-.206-1.48.512-2.997 1.83-3.679a3.514 3.514 0 0 1 1.589-.377 3.97 3.97 0 0 1 1.929.512c0-1.041.52-2.091 1.418-2.656a2.966 2.966 0 0 1 1.579-.44c.475 0 .933.099 1.355.288-.171-.817-.171-1.598 0-2.315.332-1.418 1.363-2.54 2.629-2.845a2.974 2.974 0 0 1 2.494.574c.036-1.058.153-2.162.511-3.203.611-1.758 1.858-3.032 3.347-3.418.234-.063.485-.09.736-.09.233 0 .476.027.727.081a3.204 3.204 0 0 1 .718-2.683c.753-.87 1.947-1.373 3.275-1.373h.107c.404 0 .969.206 1.57.413.539.188 1.14.395 1.454.395.233-.09.404-.673.494-.951.053-.18.098-.341.152-.458.52-1.274 1.104-2.71 3.105-2.979a5.62 5.62 0 0 1 .673-.045c1.462 0 3.05.655 4.513 1.857.448-2.09 1.965-3.921 3.966-4.701a6.275 6.275 0 0 1 2.315-.431c1.426 0 2.817.458 3.93 1.274.682-1.794 2.333-3.23 4.226-3.598a5.453 5.453 0 0 1 1.014-.098c1.489 0 3.005.619 4.064 1.668.126.036.252.072.395.135.718-.7 1.741-1.104 2.8-1.104.717 0 1.399.189 1.965.548.834.529 1.435 1.417 1.659 2.458.054.045.108.09.153.135.467.43 2.1 1.974 3.347 3.903a5.983 5.983 0 0 1 1.265 2.665c.188.655.251 1.31.188 1.893a.456.456 0 0 1-.197.323c-.224.96-.718 1.741-1.454 2.306.969 1.139 1.346 2.764.934 4.208-.422 1.472-1.642 2.656-3.105 3.087.278 1.328-.153 2.799-1.148 3.732a4.024 4.024 0 0 1-2.728 1.059h-.117c.332.772.323 1.732.027 2.539-.26.718-.682 1.346-1.086 1.947-.26.395-.511.763-.726 1.158-.332.628-.557 1.31-.799 2.019-.278.825-.556 1.687-1.032 2.467-.736 1.22-2.09 2.064-3.311 2.064-.125 0-.251 0-.368-.027.314 1.31.045 2.764-.771 3.849-.844 1.113-2.252 1.813-3.679 1.813h-.17c.224 1.633-.341 3.347-1.508 4.504-.978.969-2.36 1.534-3.777 1.534-.278 0-.557-.018-.826-.062-.107.861-.511 1.695-1.184 2.395-.942.978-2.288 1.561-3.58 1.561-.341 0-.664-.035-.978-.116.152.574.152 1.202.009 1.848-.323 1.418-1.31 2.728-2.584 3.428-.817.448-1.768.511-2.674.574-.808.054-1.562.108-2.064.422-.377.242-.673.565-.987.915-.458.511-.933 1.032-1.705 1.328a3.546 3.546 0 0 1-1.301.224l-.045-.036Z" fill="#231815"/><path d="M145.151 115.887c1.426 0 2.844.601 3.831 1.624.224.045.476.135.736.261.655-.772 1.678-1.194 2.692-1.194.61 0 1.211.153 1.722.476.808.511 1.319 1.382 1.49 2.324.09.071.17.143.26.224.933.852 2.27 2.261 3.275 3.813l.027.027c.592.7.996 1.579 1.175 2.486.171.601.243 1.193.18 1.758l-.144.036c-.179 1.05-.735 1.992-1.767 2.575 1.139 1.014 1.624 2.692 1.202 4.155-.422 1.462-1.732 2.629-3.23 2.88.457 1.274.099 2.808-.897 3.741-.646.611-1.535.934-2.423.934-.467 0-.933-.09-1.364-.279 1.059.512 1.256 2.001.853 3.105-.404 1.104-1.239 2.001-1.786 3.042-.754 1.417-.987 3.086-1.812 4.468-.62 1.023-1.804 1.848-2.926 1.848a2.05 2.05 0 0 1-1.121-.323c.691 1.364.529 3.105-.386 4.325-.772 1.023-2.046 1.633-3.32 1.633-.242 0-.484-.018-.727-.071.44 1.642-.062 3.508-1.265 4.701-.906.897-2.189 1.4-3.463 1.4-.422 0-.844-.054-1.247-.171.071 2.244-2.181 4.056-4.352 4.056a3.369 3.369 0 0 1-1.875-.538c1.337 1.848.107 4.648-1.894 5.742-1.462.799-3.562.251-4.764 1.014-1.014.646-1.436 1.759-2.611 2.207a3.109 3.109 0 0 1-1.14.198c-.368 0-.726-.036-1.139-.045-2.916-.063-4.244-1.14-6.73-2.459-1.642-.87-3.544-1.193-5.114-2.189-1.57-.996-2.719-3.113-1.759-4.702-1.965-.018-3.903-.987-5.087-2.557-1.185-1.57-1.597-3.697-1.086-5.59-1.516-.045-3.167-.61-4.172-1.821-1.184-1.436-1.57-3.491-.978-5.249-1.849-.323-3.212-2.333-2.826-4.172.367-1.768 2.072-2.773 3.759-2.773.395 0 .79.054 1.166.17-.52-1.426.063-3.158 1.436-3.867a2.98 2.98 0 0 1 1.382-.323c1.032 0 2.081.485 2.692 1.337-.664-1.166-.252-2.826.888-3.535.404-.251.87-.368 1.337-.368.861 0 1.741.404 2.234 1.122-.476-1.095-.718-2.333-.449-3.491.27-1.166 1.14-2.225 2.297-2.512.18-.045.359-.063.539-.063 1.014 0 2.046.646 2.288 1.633 0-1.516.018-3.059.511-4.486.494-1.427 1.57-2.755 3.033-3.132a2.55 2.55 0 0 1 .628-.08c.503 0 1.005.143 1.454.332-.575-.978-.413-2.243.323-3.096.717-.825 1.839-1.211 2.943-1.211h.098c.691.018 2.279.807 3.033.807a.69.69 0 0 0 .251-.045c.485-.224.628-1.211.808-1.65.565-1.4 1.077-2.477 2.746-2.71a4.74 4.74 0 0 1 .61-.045c1.794 0 3.517 1.032 4.836 2.288.161-2.252 1.705-4.343 3.804-5.168a5.879 5.879 0 0 1 2.154-.395c1.516 0 3.041.556 4.154 1.597.449-1.947 2.118-3.553 4.083-3.93.305-.063.619-.09.933-.09m0-.897c-.368 0-.745.036-1.104.108-1.893.368-3.508 1.66-4.343 3.364a7.16 7.16 0 0 0-3.723-1.04 6.78 6.78 0 0 0-2.477.457c-1.92.754-3.427 2.405-4.055 4.352-1.149-.826-2.611-1.534-4.262-1.534a6.97 6.97 0 0 0-.736.044c-2.261.306-2.925 1.939-3.464 3.258a5.933 5.933 0 0 0-.161.502c-.045.153-.126.44-.206.61-.297-.054-.808-.233-1.158-.359-.664-.233-1.229-.43-1.705-.439h-.116c-1.463 0-2.773.556-3.616 1.525a3.691 3.691 0 0 0-.889 2.458h-.224c-.287 0-.574.036-.852.108-1.633.422-2.997 1.804-3.661 3.706-.296.843-.431 1.723-.494 2.575a3.417 3.417 0 0 0-1.453-.323c-.251 0-.503.027-.745.09-1.427.35-2.593 1.588-2.961 3.176a5.25 5.25 0 0 0-.108 1.768 3.942 3.942 0 0 0-.798-.09c-.655 0-1.283.17-1.813.502-.843.53-1.39 1.409-1.57 2.351a4.244 4.244 0 0 0-1.534-.287c-.637 0-1.256.144-1.795.431-1.319.682-2.117 2.117-2.108 3.598h-.081c-2.297 0-4.208 1.435-4.639 3.481-.233 1.113.027 2.333.709 3.338a4.554 4.554 0 0 0 1.92 1.615c-.314 1.821.18 3.795 1.364 5.222.888 1.068 2.234 1.786 3.795 2.046-.215 1.866.297 3.84 1.427 5.339 1.104 1.453 2.791 2.467 4.585 2.799-.26 1.777.915 3.679 2.494 4.684.952.601 1.992.969 2.988 1.328.772.278 1.508.538 2.181.888.43.233.834.449 1.211.664 1.839 1.032 3.302 1.839 5.922 1.902.179 0 .341.018.502.027.225.009.44.027.655.027.341 0 .862-.027 1.463-.251.879-.332 1.409-.924 1.875-1.454.287-.323.565-.628.897-.834.404-.26 1.113-.305 1.858-.359.915-.063 1.956-.135 2.862-.628 1.382-.754 2.459-2.181 2.809-3.724.107-.475.143-.951.098-1.4.144.009.287.018.431.018 1.418 0 2.88-.637 3.903-1.696.628-.646 1.05-1.408 1.229-2.207.153.009.305.018.458.018 1.543 0 3.033-.601 4.091-1.66 1.149-1.148 1.759-2.772 1.687-4.387 1.454-.099 2.854-.835 3.715-1.974.781-1.032 1.104-2.369.951-3.643 1.337-.072 2.737-.969 3.526-2.279.494-.826.79-1.705 1.077-2.557.233-.7.449-1.355.772-1.957.197-.367.439-.735.699-1.112.422-.628.862-1.274 1.14-2.037a4.08 4.08 0 0 0 .153-2.27c.96-.108 1.875-.511 2.557-1.149 1.005-.942 1.498-2.395 1.346-3.759 1.435-.547 2.602-1.777 3.032-3.266.413-1.445.117-3.051-.744-4.271a4.504 4.504 0 0 0 1.238-2.118.857.857 0 0 0 .242-.52c.072-.637 0-1.337-.197-2.073-.216-1.049-.691-2.063-1.355-2.844-1.229-1.893-2.773-3.374-3.383-3.93-.018-.018-.036-.036-.054-.045-.269-1.095-.924-2.028-1.821-2.593a4.107 4.107 0 0 0-2.207-.619 4.586 4.586 0 0 0-2.907 1.041c-.018 0-.045-.018-.063-.018a6.35 6.35 0 0 0-4.289-1.714h.009Z" fill="#231815"/><path d="M111.162 185.3c-1.767 0-3.517-.449-5.105-1.337-5.078-2.827-6.9-9.251-4.083-14.321 2.827-5.078 9.251-6.9 14.321-4.082a1.24 1.24 0 0 1 .484 1.687 1.24 1.24 0 0 1-1.687.484c-3.876-2.153-8.793-.762-10.946 3.123-2.163 3.876-.763 8.793 3.122 10.946a7.965 7.965 0 0 0 6.12.709 8.011 8.011 0 0 0 4.827-3.822c1.606-2.88 1.265-6.523-.843-9.063a1.24 1.24 0 0 1 .161-1.749 1.24 1.24 0 0 1 1.75.161c2.763 3.32 3.203 8.085 1.103 11.853a10.488 10.488 0 0 1-6.316 5.007c-.96.269-1.93.404-2.899.404h-.009Z" fill="#231815" stroke="#231815" stroke-miterlimit="10"/><path d="M156.106 211.293c22.647 0 41.005-18.358 41.005-41.005 0-22.646-18.358-41.005-41.005-41.005-22.646 0-41.005 18.359-41.005 41.005 0 22.647 18.359 41.005 41.005 41.005Z" fill="#231815" stroke="#231815" stroke-width=".75" stroke-linecap="round" stroke-linejoin="round"/><path d="m133.477 172.693-.601 2.593a2.586 2.586 0 0 1-3.095 1.929 2.586 2.586 0 0 1-1.929-3.095l.601-2.593" stroke="#231815" stroke-linecap="round" stroke-linejoin="round"/><path d="M140.225 206.053c4.486-2.512 10.911-1.543 13.782 2.728 1.651 2.458 1.983 5.536 2.306 8.47 1.965 18.08 4.773 36.285 9.547 53.809-.171-.628-12.688.009-13.971.027-4.244.072-8.542.377-12.768.072.314-3.527-.529-6.909-.798-10.445-.27-3.535-.368-7.375-.889-11.036a658.72 658.72 0 0 0-2.656-17.317c-.735-4.415-2.467-9.448-1.857-13.935.655-4.872 2.862-9.887 7.313-12.382l-.009.009Z" fill="#231815" stroke="#231815" stroke-miterlimit="10"/><mask id="mask0_94_6220" style="mask-type:luminance" maskUnits="userSpaceOnUse" x="132" y="204" width="34" height="68"><path d="M140.225 206.053c4.486-2.512 10.911-1.543 13.782 2.728 1.651 2.458 1.983 5.536 2.306 8.47 1.965 18.08 4.773 36.285 9.547 53.809-.171-.628-12.688.009-13.971.027-4.244.072-8.542.377-12.768.072.314-3.527-.529-6.909-.798-10.445-.27-3.535-.368-7.375-.889-11.036a658.72 658.72 0 0 0-2.656-17.317c-.735-4.415-2.467-9.448-1.857-13.935.655-4.872 2.862-9.887 7.313-12.382l-.009.009Z" fill="#fff"/></mask><g mask="url(#mask0_94_6220)"><path d="m132.831 253.42 5.815 10.175c1.776-5.985 3.544-11.961 5.32-17.946l4.899 18.394c1.463-2.799 2.917-5.599 4.379-8.398 2.36 3.266 4.711 6.532 7.071 9.798.816-1.597 1.641-3.185 2.458-4.782a63.537 63.537 0 0 1 6.11 16.213 310.48 310.48 0 0 1-37.254 9.072c-1.014-6.012-.637-11.791-.852-17.811-.081-2.351-.297-4.397.062-6.801.207-1.373 2.468-7.08 1.983-7.914h.009Z" fill="#231815" stroke="#231815" stroke-linecap="round" stroke-linejoin="round"/></g><path d="M140.225 206.053c4.486-2.512 10.911-1.543 13.782 2.728 1.651 2.458 1.983 5.536 2.306 8.47 1.965 18.08 4.773 36.285 9.547 53.809-.171-.628-12.688.009-13.971.027-4.244.072-8.542.377-12.768.072.314-3.527-.529-6.909-.798-10.445-.27-3.535-.368-7.375-.889-11.036a658.72 658.72 0 0 0-2.656-17.317c-.735-4.415-2.467-9.448-1.857-13.935.655-4.872 2.862-9.887 7.313-12.382l-.009.009Z" stroke="#231815" stroke-linecap="round" stroke-linejoin="round"/><mask id="mask1_94_6220" style="mask-type:luminance" maskUnits="userSpaceOnUse" x="112" y="201" width="68" height="59"><path d="M153.181 213.994c-5.276-3.275-10.695-6.613-16.779-7.86-6.083-1.247-13.064 0-17.128 4.711-2.979 3.454-3.966 8.201-4.164 12.759-.475 11.332-2.171 23.32-2.916 34.643 8.623 1.274 22.862.79 31.548.081-2.082-7.25-4.172-14.5-6.254-21.75-.843-2.934-1.687-5.877-2.234-8.874-.135-.718-1.22-7.016.072-6.738.188.045.52.951.628 1.121.709 1.158 1.651 2.235 2.503 3.284 1.723 2.136 3.58 4.173 5.644 5.985 3.661 3.194 8.075 5.671 12.885 6.389 4.809.717 10.013-.485 13.575-3.787 3.832-3.562 5.321-8.972 5.967-14.168.646-5.195 1.768-10.426 3.365-15.406-16.429-1.283-34.033-2.189-50.507-2.521-.009 1.382-.117 2.692.125 4.047" fill="#fff"/></mask><g mask="url(#mask1_94_6220)"><path d="m113.675 236.426 5.814 10.175c1.777-5.985 3.544-11.961 5.321-17.946l4.899 18.394c1.462-2.799 2.916-5.599 4.378-8.398 2.36 3.266 4.711 6.532 7.071 9.798.816-1.597 1.642-3.185 2.458-4.783a63.56 63.56 0 0 1 6.111 16.214 310.539 310.539 0 0 1-37.255 9.071c-1.014-6.011-.637-11.79-.852-17.81-.081-2.351-.296-4.397.063-6.802.206-1.372 2.467-7.079 1.983-7.913h.009Z" fill="#231815" stroke="#231815" stroke-linecap="round" stroke-linejoin="round"/></g><path d="M153.181 213.994c-5.276-3.275-10.695-6.613-16.779-7.86-6.083-1.247-13.064 0-17.128 4.711-2.979 3.454-3.966 8.201-4.164 12.759-.475 11.332-2.171 23.32-2.916 34.643 8.623 1.274 22.862.79 31.548.081-2.082-7.25-4.172-14.5-6.254-21.75-.843-2.934-1.687-5.877-2.234-8.874-.135-.718-1.22-7.016.072-6.738.188.045.52.951.628 1.121.709 1.158 1.651 2.235 2.503 3.284 1.723 2.136 3.58 4.173 5.644 5.985 3.661 3.194 8.075 5.671 12.885 6.389 4.809.717 10.013-.485 13.575-3.787 3.832-3.562 5.321-8.972 5.967-14.168.646-5.195 1.768-10.426 3.365-15.406-16.429-1.283-34.033-2.189-50.507-2.521-.009 1.382-.117 2.692.125 4.047" stroke="#231815" stroke-linecap="round" stroke-linejoin="round"/><path d="M153.181 213.994c-5.276-3.275-10.695-6.613-16.779-7.86-6.083-1.247-13.064 0-17.128 4.711-2.979 3.454-3.966 8.201-4.164 12.759-.475 11.332-2.171 23.32-2.916 34.643 8.623 1.274 22.862.79 31.548.081-2.082-7.25-4.172-14.5-6.254-21.75-.843-2.934-1.687-5.877-2.234-8.874-.135-.718-1.22-7.016.072-6.738.188.045.52.951.628 1.121.709 1.158 1.651 2.235 2.503 3.284 1.723 2.136 3.58 4.173 5.644 5.985 3.661 3.194 8.075 5.671 12.885 6.389 4.809.717 10.013-.485 13.575-3.787 3.832-3.562 5.321-8.972 5.967-14.168.646-5.195 1.768-10.426 3.365-15.406-16.429-1.283-34.033-2.189-50.507-2.521-.009 1.382-.117 2.692.125 4.047" fill="#231815"/><path d="M153.181 213.994c-5.276-3.275-10.695-6.613-16.779-7.86-6.083-1.247-13.064 0-17.128 4.711-2.979 3.454-3.966 8.201-4.164 12.759-.475 11.332-2.171 23.32-2.916 34.643 8.623 1.274 22.862.79 31.548.081-2.082-7.25-4.172-14.5-6.254-21.75-.843-2.934-1.687-5.877-2.234-8.874-.135-.718-1.22-7.016.072-6.738.188.045.52.951.628 1.121.709 1.158 1.651 2.235 2.503 3.284 1.723 2.136 3.58 4.173 5.644 5.985 3.661 3.194 8.075 5.671 12.885 6.389 4.809.717 10.013-.485 13.575-3.787 3.832-3.562 5.321-8.972 5.967-14.168.646-5.195 1.768-10.426 3.365-15.406-16.429-1.283-34.033-2.189-50.507-2.521-.009 1.382-.117 2.692.125 4.047" stroke="#231815" stroke-miterlimit="10"/><path d="M166.766 217.233c-1.229 2.755-2.351 5.653-2.288 8.668.063 3.015 1.57 6.173 4.334 7.375 2.126.924 3.391-.269 4.513-1.992a20.04 20.04 0 0 0 2.602-5.85c.125-.466 1.041-5.078.646-5.114a15.889 15.889 0 0 1-3.894-.906c-1.974-.727-3.939-1.454-5.913-2.181Zm-97.057 27.86v5.474s23.975 7.393 26.29 31.942l12.472-.045s-7.555-6.46-9.574-13.405c-2.019-6.945-4.01-16.321-10.956-20.143-6.936-3.823-18.232-3.814-18.232-3.814v-.009Z" fill="#231815" stroke="#231815" stroke-width=".75" stroke-linecap="round" stroke-linejoin="round"/><path d="M69.897 257.135h-.188c-.248 0-.449.2-.449.448v29.744c0 .248.201.449.449.449h.188a.449.449 0 0 0 .449-.449v-29.744c0-.248-.2-.448-.449-.448Z" fill="#231815"/><path d="M69.906 257.583v29.744h-.188v-29.744h.188Zm0-.897h-.188a.9.9 0 0 0-.897.897v29.744a.9.9 0 0 0 .897.898h.188a.9.9 0 0 0 .897-.898v-29.744a.9.9 0 0 0-.897-.897Zm3.796.449h-.189c-.248 0-.448.2-.448.448v29.744c0 .248.2.449.448.449h.189a.449.449 0 0 0 .448-.449v-29.744c0-.248-.2-.448-.448-.448Z" fill="#231815"/><path d="M73.702 257.583v29.744h-.189v-29.744h.189Zm0-.897h-.189a.9.9 0 0 0-.897.897v29.744a.9.9 0 0 0 .897.898h.189a.9.9 0 0 0 .897-.898v-29.744a.9.9 0 0 0-.897-.897Z" fill="#231815"/><path d="M86.586 270.01H56.842a.449.449 0 0 0-.449.449v.188a.45.45 0 0 0 .45.449h29.743a.449.449 0 0 0 .449-.449v-.188c0-.248-.2-.449-.449-.449Z" fill="#231815"/><path d="M86.577 270.459v.188H56.842v-.188h29.744m0-.897H56.842a.9.9 0 0 0-.897.897v.188a.9.9 0 0 0 .897.897h29.744a.9.9 0 0 0 .898-.897v-.188a.9.9 0 0 0-.898-.897Zm0 4.252H56.842a.449.449 0 0 0-.449.449v.189c0 .247.201.448.45.448h29.743a.449.449 0 0 0 .449-.448v-.189c0-.248-.2-.449-.449-.449Z" fill="#231815"/><path d="M86.577 274.263v.189H56.842v-.189h29.744m0-.897H56.842a.9.9 0 0 0-.897.897v.189a.9.9 0 0 0 .897.897h29.744a.9.9 0 0 0 .898-.897v-.189a.9.9 0 0 0-.898-.897Z" fill="#231815"/><path d="M68.282 287.525a.45.45 0 0 1-.404-.485l2.782-29.609a.465.465 0 0 1 .161-.305.463.463 0 0 1 .288-.099c.017 0 .233.018.233.018a.45.45 0 0 1 .404.484l-2.782 29.61a.467.467 0 0 1-.161.305.463.463 0 0 1-.287.099c-.019 0-.234-.018-.234-.018Z" fill="#231815"/><path d="m71.109 257.466.188.018-2.781 29.61-.189-.018 2.782-29.61Zm0-.897a.905.905 0 0 0-.575.206.933.933 0 0 0-.323.611l-2.781 29.609a.896.896 0 0 0 .807.978l.189.018h.08a.905.905 0 0 0 .575-.206.933.933 0 0 0 .323-.61l2.781-29.61a.897.897 0 0 0-.807-.978l-.189-.018h-.09.01Zm.96 31.306a.45.45 0 0 1-.404-.485l2.781-29.61a.47.47 0 0 1 .162-.305.468.468 0 0 1 .287-.098c.018 0 .233.018.233.018a.45.45 0 0 1 .404.484l-2.781 29.61a.467.467 0 0 1-.162.305.463.463 0 0 1-.287.099c-.018 0-.233-.018-.233-.018Z" fill="#231815"/><path d="m74.895 257.816.189.018-2.782 29.61-.189-.018 2.782-29.61Zm0-.897a.89.89 0 0 0-.888.817l-2.782 29.609a.912.912 0 0 0 .207.655.93.93 0 0 0 .61.323l.188.018h.08a.89.89 0 0 0 .89-.816l2.78-29.61a.914.914 0 0 0-.206-.655.934.934 0 0 0-.61-.323l-.188-.018h-.081Z" fill="#231815"/><path d="M57.03 269.714a.47.47 0 0 1-.305-.161.434.434 0 0 1-.098-.332l.018-.189a.443.443 0 0 1 .448-.404c.018 0 29.655 2.782 29.655 2.782a.47.47 0 0 1 .305.161c.072.09.108.207.099.332l-.018.189a.442.442 0 0 1-.449.404c-.018 0-29.654-2.782-29.654-2.782Z" fill="#231815"/><path d="m57.093 269.077 29.61 2.781-.018.189-29.61-2.782.018-.188Zm0-.897a.89.89 0 0 0-.888.816l-.018.189a.914.914 0 0 0 .206.655.934.934 0 0 0 .61.323l29.61 2.781h.081a.89.89 0 0 0 .888-.816l.018-.189a.914.914 0 0 0-.206-.655.934.934 0 0 0-.61-.323l-29.61-2.781h-.08Zm-.421 5.32a.448.448 0 0 1-.404-.484l.018-.188a.468.468 0 0 1 .161-.306.426.426 0 0 1 .287-.107c.018 0 29.655 2.781 29.655 2.781a.466.466 0 0 1 .305.162c.08.09.108.206.099.332l-.018.188a.442.442 0 0 1-.449.404c-.018 0-29.654-2.782-29.654-2.782Z" fill="#231815"/><path d="m56.734 272.864 29.61 2.781-.018.189-29.61-2.782.018-.188Zm0-.898a.9.9 0 0 0-.897.817l-.018.188a.896.896 0 0 0 .808.978l29.61 2.782h.08a.89.89 0 0 0 .889-.817l.017-.188a.912.912 0 0 0-.206-.655.93.93 0 0 0-.61-.323l-29.61-2.782h-.08.017Z" fill="#231815"/><path d="M59.92 282.141a.423.423 0 0 1-.314-.134l-.135-.135a.46.46 0 0 1 0-.637l21.032-21.032a.434.434 0 0 1 .628 0l.135.135a.46.46 0 0 1 .134.314.422.422 0 0 1-.134.314l-21.032 21.032a.46.46 0 0 1-.314.134v.009Z" fill="#231815"/><path d="m80.808 260.526.134.135-21.031 21.032-.135-.135 21.032-21.032Zm0-.897a.921.921 0 0 0-.637.26l-21.032 21.032a.893.893 0 0 0 0 1.265l.135.135c.17.17.394.26.637.26a.929.929 0 0 0 .637-.26l21.032-21.032a.89.89 0 0 0 .26-.637.924.924 0 0 0-.26-.637l-.135-.135a.921.921 0 0 0-.637-.26v.009Zm-18.206 25.204a.42.42 0 0 1-.313-.135l-.135-.134a.46.46 0 0 1 0-.637l21.032-21.032a.45.45 0 0 1 .314-.135c.107 0 .233.045.314.135l.134.134a.458.458 0 0 1 .135.314.423.423 0 0 1-.135.315l-21.031 21.031a.456.456 0 0 1-.315.135v.009Z" fill="#231815"/><path d="m83.5 263.218.134.135-21.032 21.031-.134-.134L83.5 263.218Zm0-.897a.916.916 0 0 0-.637.26L61.83 283.613a.893.893 0 0 0 0 1.265l.134.135c.17.17.395.26.637.26a.929.929 0 0 0 .638-.26l21.031-21.032a.89.89 0 0 0 .26-.637.924.924 0 0 0-.26-.637l-.134-.135a.917.917 0 0 0-.637-.26v.009Zm-24.783 18.142a.479.479 0 0 1-.296-.17l-.116-.153a.446.446 0 0 1 .09-.628l23.67-18.008a.42.42 0 0 1 .268-.09h.063a.476.476 0 0 1 .296.171l.117.152a.446.446 0 0 1-.09.628l-23.67 18.008a.423.423 0 0 1-.269.09h-.063Z" fill="#231815"/><path d="m82.333 261.863.117.153-23.67 18.008-.117-.153 23.67-18.008Zm0-.897a.927.927 0 0 0-.538.179l-23.67 18.008a.925.925 0 0 0-.35.593.851.851 0 0 0 .18.664l.116.152c.18.233.44.35.718.35a.927.927 0 0 0 .538-.179l23.67-18.009a.92.92 0 0 0 .35-.592.852.852 0 0 0-.18-.664l-.116-.152a.886.886 0 0 0-.718-.35Zm-21.31 22.53a.479.479 0 0 1-.296-.17l-.116-.153a.446.446 0 0 1 .09-.628l23.67-18.008a.42.42 0 0 1 .268-.09h.063a.475.475 0 0 1 .296.171l.117.152a.446.446 0 0 1-.09.628l-23.67 18.008a.423.423 0 0 1-.269.09h-.063Z" fill="#231815"/><path d="m84.64 264.887.116.152-23.67 18.008-.117-.152 23.67-18.008Zm0-.897a.92.92 0 0 0-.539.179l-23.67 18.008a.925.925 0 0 0-.35.592.85.85 0 0 0 .18.664l.116.153c.18.233.44.35.718.35a.92.92 0 0 0 .538-.18l23.67-18.008a.923.923 0 0 0 .35-.592.851.851 0 0 0-.18-.664l-.116-.153a.888.888 0 0 0-.718-.349Z" fill="#231815"/><path d="M83.5 282.141a.423.423 0 0 1-.314-.134l-21.032-21.032a.458.458 0 0 1-.135-.314c0-.117.045-.234.135-.314l.134-.135a.45.45 0 0 1 .315-.135c.107 0 .233.045.314.135l21.031 21.032c.18.179.18.457 0 .637l-.134.134a.456.456 0 0 1-.314.135v-.009Z" fill="#231815"/><path d="m62.602 260.526 21.032 21.032-.134.135-21.032-21.032.134-.135Zm0-.897a.92.92 0 0 0-.636.26l-.135.135a.887.887 0 0 0-.26.637c0 .242.098.466.26.637l21.032 21.032c.17.17.394.26.637.26a.929.929 0 0 0 .637-.26l.134-.135a.893.893 0 0 0 0-1.265L63.24 259.898a.883.883 0 0 0-.638-.26v-.009Zm18.206 25.204a.42.42 0 0 1-.314-.135l-21.032-21.032a.444.444 0 0 1 0-.637l.135-.134a.45.45 0 0 1 .314-.135c.107 0 .233.045.314.135l21.032 21.032c.17.17.18.457 0 .637l-.135.134a.456.456 0 0 1-.314.135Z" fill="#231815"/><path d="m59.92 263.218 21.03 21.032-.134.134-21.032-21.032.135-.134Zm0-.897a.917.917 0 0 0-.637.26l-.135.134a.89.89 0 0 0-.26.637c0 .243.099.467.26.637l21.032 21.032c.17.171.395.261.637.261a.925.925 0 0 0 .637-.261l.135-.134a.893.893 0 0 0 0-1.265L60.557 262.59a.878.878 0 0 0-.637-.26v-.009Zm24.827 17.963a.422.422 0 0 1-.27-.09l-23.93-17.658a.45.45 0 0 1-.098-.628l.117-.153a.456.456 0 0 1 .359-.179.44.44 0 0 1 .269.09l23.93 17.658c.197.143.242.43.099.628l-.117.152a.45.45 0 0 1-.296.18h-.063Z" fill="#231815"/><path d="m60.934 262.016 23.93 17.658-.117.152-23.93-17.658.117-.152Zm0-.898a.885.885 0 0 0-.718.359l-.117.153a.92.92 0 0 0-.17.664.902.902 0 0 0 .359.592l23.93 17.658c.152.117.34.18.529.18.045 0 .09 0 .135-.009a.902.902 0 0 0 .592-.359l.116-.153a.901.901 0 0 0-.188-1.256l-23.93-17.658a.916.916 0 0 0-.53-.18l-.008.009Zm21.552 22.225a.421.421 0 0 1-.27-.089l-23.93-17.658a.451.451 0 0 1-.098-.629l.117-.152a.454.454 0 0 1 .358-.18.44.44 0 0 1 .27.09l23.93 17.658a.455.455 0 0 1 .098.628l-.116.153a.448.448 0 0 1-.296.179h-.063Z" fill="#231815"/><path d="m58.672 265.075 23.93 17.658-.116.153-23.93-17.658.116-.153Zm0-.897a.898.898 0 0 0-.726.368l-.117.152a.877.877 0 0 0-.162.664.901.901 0 0 0 .36.593l23.93 17.658a.882.882 0 0 0 1.247-.18l.116-.152a.923.923 0 0 0 .17-.664.864.864 0 0 0-.358-.592l-23.93-17.659a.921.921 0 0 0-.53-.179v-.009Z" fill="#231815"/><path d="M71.71 294.541c-12.275 0-22.261-9.986-22.261-22.261 0-12.274 9.986-22.261 22.26-22.261 12.275 0 22.262 9.987 22.262 22.261 0 12.275-9.987 22.261-22.261 22.261Zm0-38.977c-9.215 0-16.716 7.501-16.716 16.716s7.5 16.716 16.716 16.716c9.215 0 16.716-7.501 16.716-16.716s-7.501-16.716-16.716-16.716Z" fill="#231815"/><path d="M71.71 250.468c12.05 0 21.812 9.762 21.812 21.812 0 12.051-9.762 21.813-21.812 21.813s-21.813-9.762-21.813-21.813c0-12.05 9.763-21.812 21.813-21.812Zm0 38.977c9.475 0 17.164-7.681 17.164-17.165 0-9.484-7.68-17.164-17.164-17.164-9.484 0-17.165 7.68-17.165 17.164 0 9.484 7.68 17.165 17.165 17.165Zm0-39.874c-12.526 0-22.71 10.183-22.71 22.709s10.184 22.71 22.71 22.71c12.526 0 22.71-10.184 22.71-22.71 0-12.526-10.184-22.709-22.71-22.709Zm0 38.977c-8.973 0-16.268-7.295-16.268-16.268 0-8.972 7.295-16.267 16.268-16.267 8.972 0 16.267 7.295 16.267 16.267 0 8.973-7.295 16.268-16.267 16.268Z" fill="#231815"/><path d="M71.71 291.266c-10.471 0-18.986-8.515-18.986-18.986s8.515-18.986 18.986-18.986c10.47 0 18.986 8.515 18.986 18.986s-8.515 18.986-18.986 18.986Zm0-33.234c-7.986 0-14.473 6.496-14.473 14.473 0 7.976 6.496 14.472 14.473 14.472 7.976 0 14.473-6.496 14.473-14.472 0-7.977-6.497-14.473-14.473-14.473Z" fill="#231815"/><path d="M71.71 253.752c10.238 0 18.537 8.299 18.537 18.537s-8.3 18.538-18.537 18.538c-10.238 0-18.538-8.3-18.538-18.538s8.3-18.537 18.538-18.537Zm0 33.683c8.246 0 14.921-6.685 14.921-14.921 0-8.237-6.684-14.922-14.921-14.922-8.237 0-14.922 6.685-14.922 14.922 0 8.236 6.685 14.921 14.922 14.921Zm0-34.581c-10.714 0-19.435 8.713-19.435 19.435 0 10.723 8.712 19.435 19.435 19.435 10.722 0 19.434-8.712 19.434-19.435 0-10.722-8.712-19.435-19.434-19.435Zm0 33.684c-7.735 0-14.024-6.29-14.024-14.024 0-7.735 6.29-14.025 14.024-14.025 7.734 0 14.024 6.29 14.024 14.025 0 7.734-6.29 14.024-14.024 14.024Z" fill="#231815"/><path d="M71.71 276.982a4.526 4.526 0 0 1-4.522-4.522 4.526 4.526 0 0 1 4.522-4.522 4.526 4.526 0 0 1 4.522 4.522 4.526 4.526 0 0 1-4.522 4.522Z" fill="#231815"/><path d="M71.71 268.386a4.07 4.07 0 0 1 4.073 4.074 4.07 4.07 0 0 1-4.073 4.073 4.07 4.07 0 0 1-4.074-4.073 4.07 4.07 0 0 1 4.074-4.074Zm0-.897a4.97 4.97 0 1 0-.001 9.942 4.97 4.97 0 0 0 0-9.942Z" fill="#231815"/><path d="M73.594 272.46a1.894 1.894 0 1 1-3.788-.002 1.894 1.894 0 0 1 3.788.002Z" fill="#231815" stroke="#231815" stroke-width=".75" stroke-linecap="round" stroke-linejoin="round"/><path d="M80.09 248.88c-19.13-6.407-28.264 9.995-28.264 9.995-2.521 3.41 3.724 4.325 3.724 4.325s28.38 3.194 31.153 4.459c2.952 1.355 4.45 4.406 5.186 7.403.332 1.337.574 2.674.646 4.055.09 1.75-.125 3.823 2.288 3.778 2.306-.045 2.1-3.06 2.1-3.06 2.476-26.577-16.824-30.955-16.824-30.955h-.009Z" fill="#231815" stroke="#231815" stroke-miterlimit="10"/><path d="M182.62 257.135h-.188c-.248 0-.449.2-.449.448v29.744c0 .248.201.449.449.449h.188a.449.449 0 0 0 .449-.449v-29.744a.448.448 0 0 0-.449-.448Z" fill="#231815"/><path d="M182.629 257.583v29.744h-.188v-29.744h.188Zm0-.897h-.188a.9.9 0 0 0-.897.897v29.744a.9.9 0 0 0 .897.898h.188a.9.9 0 0 0 .898-.898v-29.744a.9.9 0 0 0-.898-.897Zm3.796.449h-.189c-.247 0-.448.2-.448.448v29.744c0 .248.201.449.448.449h.189a.449.449 0 0 0 .449-.449v-29.744a.448.448 0 0 0-.449-.448Z" fill="#231815"/><path d="M186.425 257.583v29.744h-.189v-29.744h.189Zm0-.897h-.189a.9.9 0 0 0-.897.897v29.744a.9.9 0 0 0 .897.898h.189a.9.9 0 0 0 .897-.898v-29.744a.9.9 0 0 0-.897-.897Z" fill="#231815"/><path d="M199.31 270.01h-29.745a.449.449 0 0 0-.448.449v.188c0 .248.201.449.448.449h29.745a.449.449 0 0 0 .448-.449v-.188a.449.449 0 0 0-.448-.449Z" fill="#231815"/><path d="M199.301 270.459v.188h-29.745v-.188h29.745Zm0-.897h-29.745a.9.9 0 0 0-.897.897v.188a.9.9 0 0 0 .897.897h29.745a.9.9 0 0 0 .897-.897v-.188a.9.9 0 0 0-.897-.897Zm.009 4.252h-29.745a.449.449 0 0 0-.448.449v.189c0 .247.201.448.448.448h29.745a.449.449 0 0 0 .448-.448v-.189a.449.449 0 0 0-.448-.449Z" fill="#231815"/><path d="M199.301 274.263v.189h-29.745v-.189h29.745Zm0-.897h-29.745a.9.9 0 0 0-.897.897v.189a.9.9 0 0 0 .897.897h29.745a.9.9 0 0 0 .897-.897v-.189a.9.9 0 0 0-.897-.897Z" fill="#231815"/><path d="M181.005 287.525a.449.449 0 0 1-.403-.485l2.781-29.609a.464.464 0 0 1 .162-.305.46.46 0 0 1 .287-.099c.018 0 .233.018.233.018a.45.45 0 0 1 .404.484l-2.782 29.61a.47.47 0 0 1-.161.305.464.464 0 0 1-.287.099c-.018 0-.234-.018-.234-.018Z" fill="#231815"/><path d="m183.832 257.466.188.018-2.781 29.61-.189-.018 2.782-29.61Zm0-.897a.906.906 0 0 0-.575.206.935.935 0 0 0-.323.611l-2.781 29.609a.896.896 0 0 0 .808.978l.188.018h.081a.906.906 0 0 0 .574-.206.935.935 0 0 0 .323-.61l2.781-29.61a.897.897 0 0 0-.807-.978l-.189-.018h-.089.009Zm.96 31.306a.45.45 0 0 1-.404-.485l2.782-29.61a.467.467 0 0 1 .161-.305.47.47 0 0 1 .287-.098c.018 0 .233.018.233.018a.449.449 0 0 1 .404.484l-2.781 29.61a.466.466 0 0 1-.162.305.462.462 0 0 1-.287.099c-.018 0-.233-.018-.233-.018Z" fill="#231815"/><path d="m187.618 257.816.189.018-2.782 29.61-.188-.018 2.781-29.61Zm0-.897a.89.89 0 0 0-.888.817l-2.782 29.609a.91.91 0 0 0 .817.978l.188.018h.081c.458 0 .852-.35.888-.816l2.782-29.61a.916.916 0 0 0-.206-.655.935.935 0 0 0-.611-.323l-.188-.018h-.081Z" fill="#231815"/><path d="M169.754 269.714a.467.467 0 0 1-.305-.161.434.434 0 0 1-.099-.332l.018-.189a.442.442 0 0 1 .448-.404c.018 0 29.655 2.782 29.655 2.782a.47.47 0 0 1 .305.161c.072.09.108.207.099.332l-.018.189a.442.442 0 0 1-.449.404c-.018 0-29.654-2.782-29.654-2.782Z" fill="#231815"/><path d="m169.817 269.077 29.609 2.781-.018.189-29.609-2.782.018-.188Zm0-.897a.89.89 0 0 0-.889.816l-.018.189a.912.912 0 0 0 .207.655.933.933 0 0 0 .61.323l29.609 2.781h.081a.89.89 0 0 0 .889-.816l.017-.189a.911.911 0 0 0-.206-.655.933.933 0 0 0-.61-.323l-29.61-2.781h-.08Zm-.422 5.32a.448.448 0 0 1-.404-.484l.018-.188a.471.471 0 0 1 .161-.306.428.428 0 0 1 .288-.107c.017 0 29.654 2.781 29.654 2.781a.45.45 0 0 1 .404.485l-.018.188a.464.464 0 0 1-.449.413c-.018 0-29.654-2.782-29.654-2.782Z" fill="#231815"/><path d="m169.458 272.864 29.609 2.781-.018.189-29.609-2.782.018-.188Zm0-.898a.902.902 0 0 0-.898.817l-.018.188a.896.896 0 0 0 .808.978l29.61 2.782h.08a.89.89 0 0 0 .889-.817l.018-.188a.91.91 0 0 0-.207-.655.929.929 0 0 0-.61-.323l-29.61-2.782h-.08.018Z" fill="#231815"/><path d="M172.643 282.141a.423.423 0 0 1-.314-.134l-.135-.135a.462.462 0 0 1 0-.637l21.032-21.032a.433.433 0 0 1 .628 0l.135.135a.445.445 0 0 1 0 .637l-21.032 21.032a.46.46 0 0 1-.314.134Z" fill="#231815"/><path d="m193.531 260.526.135.135-21.032 21.032-.135-.135 21.032-21.032Zm0-.897a.922.922 0 0 0-.637.26l-21.032 21.032a.893.893 0 0 0 0 1.265l.135.135c.17.17.395.26.637.26a.928.928 0 0 0 .637-.26l21.032-21.032a.891.891 0 0 0 .26-.637.926.926 0 0 0-.26-.637l-.135-.135a.88.88 0 0 0-.637-.26v.009Zm-18.205 25.204a.418.418 0 0 1-.314-.135l-.135-.134a.462.462 0 0 1 0-.637l21.032-21.032a.45.45 0 0 1 .314-.135c.108 0 .233.045.314.135l.135.134a.445.445 0 0 1 0 .637l-21.032 21.032a.458.458 0 0 1-.314.135Z" fill="#231815"/><path d="m196.223 263.218.135.135-21.032 21.031-.135-.134 21.032-21.032Zm0-.897a.916.916 0 0 0-.637.26l-21.032 21.032a.893.893 0 0 0 0 1.265l.135.135c.17.17.394.26.637.26a.93.93 0 0 0 .637-.26l21.032-21.032a.891.891 0 0 0 .26-.637.926.926 0 0 0-.26-.637l-.135-.135a.916.916 0 0 0-.637-.26v.009Zm-24.782 18.142a.48.48 0 0 1-.297-.17l-.116-.153a.446.446 0 0 1 .09-.628l23.669-18.008a.425.425 0 0 1 .27-.09h.062a.472.472 0 0 1 .296.171l.117.152a.445.445 0 0 1-.09.628l-23.669 18.008a.425.425 0 0 1-.27.09h-.062Z" fill="#231815"/><path d="m195.057 261.863.116.153-23.67 18.008-.116-.153 23.67-18.008Zm0-.897a.935.935 0 0 0-.548.179l-23.67 18.008a.928.928 0 0 0-.35.593.854.854 0 0 0 .18.664l.117.152c.179.233.439.35.717.35a.929.929 0 0 0 .539-.179l23.67-18.009a.899.899 0 0 0 .17-1.256l-.117-.152a.921.921 0 0 0-.592-.35h-.125.009Zm-21.311 22.53a.48.48 0 0 1-.296-.17l-.116-.153a.446.446 0 0 1 .089-.628l23.67-18.008a.442.442 0 0 1 .269-.09c.135 0 .27.063.359.18l.117.152a.449.449 0 0 1 .09.332.472.472 0 0 1-.171.296l-23.67 18.008a.42.42 0 0 1-.269.09h-.063l-.009-.009Z" fill="#231815"/><path d="m197.363 264.887.116.152-23.67 18.008-.116-.152 23.67-18.008Zm0-.897a.922.922 0 0 0-.539.179l-23.67 18.008a.928.928 0 0 0-.35.592.852.852 0 0 0 .18.664l.116.153c.18.233.44.35.718.35a.923.923 0 0 0 .539-.18l23.669-18.008a.917.917 0 0 0 .35-.592.852.852 0 0 0-.179-.664l-.117-.153a.886.886 0 0 0-.717-.349Z" fill="#231815"/><path d="M196.223 282.141a.423.423 0 0 1-.314-.134l-21.032-21.032a.458.458 0 0 1-.135-.314c0-.117.045-.234.135-.314l.135-.135a.448.448 0 0 1 .314-.135c.107 0 .233.045.314.135l21.032 21.032c.17.17.179.457 0 .637l-.135.134a.456.456 0 0 1-.314.135v-.009Z" fill="#231815"/><path d="m175.326 260.526 21.032 21.032-.135.135-21.032-21.032.135-.135Zm0-.897a.919.919 0 0 0-.637.26l-.135.135a.89.89 0 0 0-.26.637.93.93 0 0 0 .26.637l21.032 21.032c.17.17.395.26.637.26a.928.928 0 0 0 .637-.26l.135-.135a.893.893 0 0 0 0-1.265l-21.032-21.032a.884.884 0 0 0-.637-.26v-.009Zm18.205 25.204a.422.422 0 0 1-.314-.135l-21.032-21.032a.445.445 0 0 1 0-.637l.135-.134a.456.456 0 0 1 .314-.135.42.42 0 0 1 .314.135l21.032 21.032c.17.17.179.457 0 .637l-.135.134a.456.456 0 0 1-.314.135Z" fill="#231815"/><path d="m172.643 263.218 21.032 21.032-.135.134-21.032-21.032.135-.134Zm0-.897a.916.916 0 0 0-.637.26l-.135.134a.891.891 0 0 0-.26.637c0 .243.099.467.26.637l21.032 21.032a.888.888 0 0 0 .637.261.925.925 0 0 0 .637-.261l.135-.134a.893.893 0 0 0 0-1.265L173.28 262.59a.878.878 0 0 0-.637-.26v-.009Zm24.827 17.963a.424.424 0 0 1-.269-.09l-23.93-17.658a.448.448 0 0 1-.179-.296.436.436 0 0 1 .08-.332l.117-.153a.456.456 0 0 1 .359-.179.44.44 0 0 1 .269.09l23.93 17.658c.197.143.242.43.099.628l-.117.152a.45.45 0 0 1-.296.18h-.063Z" fill="#231815"/><path d="m173.657 262.016 23.93 17.658-.117.152-23.93-17.658.117-.152Zm0-.898a.885.885 0 0 0-.718.359l-.117.153a.922.922 0 0 0-.17.664.867.867 0 0 0 .359.592l23.93 17.658c.161.117.35.18.529.18a.9.9 0 0 0 .727-.368l.117-.153a.878.878 0 0 0 .161-.664.9.9 0 0 0-.359-.592l-23.93-17.658a.914.914 0 0 0-.529-.18v.009Zm21.552 22.225a.421.421 0 0 1-.269-.089l-23.93-17.658a.452.452 0 0 1-.099-.629l.117-.152a.454.454 0 0 1 .359-.18c.089 0 .188.027.269.09l23.93 17.658a.456.456 0 0 1 .099.628l-.117.153a.448.448 0 0 1-.296.179h-.063Z" fill="#231815"/><path d="m171.396 265.075 23.93 17.658-.117.153-23.93-17.658.117-.153Zm0-.897a.898.898 0 0 0-.727.368l-.117.152a.879.879 0 0 0-.161.664.9.9 0 0 0 .359.593l23.93 17.658a.883.883 0 0 0 1.247-.18l.117-.152a.925.925 0 0 0 .17-.664.862.862 0 0 0-.359-.592l-23.93-17.659a.92.92 0 0 0-.529-.179v-.009Z" fill="#231815"/><path d="M184.433 294.541c-12.275 0-22.261-9.986-22.261-22.261 0-12.274 9.986-22.261 22.261-22.261 12.275 0 22.261 9.987 22.261 22.261 0 12.275-9.986 22.261-22.261 22.261Zm0-38.977c-9.215 0-16.716 7.501-16.716 16.716s7.501 16.716 16.716 16.716 16.716-7.501 16.716-16.716-7.501-16.716-16.716-16.716Z" fill="#231815"/><path d="M184.433 250.468c12.05 0 21.812 9.762 21.812 21.812 0 12.051-9.762 21.813-21.812 21.813s-21.813-9.762-21.813-21.813c0-12.05 9.763-21.812 21.813-21.812Zm0 38.977c9.475 0 17.165-7.681 17.165-17.165 0-9.484-7.681-17.164-17.165-17.164-9.484 0-17.165 7.68-17.165 17.164 0 9.484 7.681 17.165 17.165 17.165Zm0-39.874c-12.526 0-22.71 10.183-22.71 22.709s10.184 22.71 22.71 22.71c12.526 0 22.71-10.184 22.71-22.71 0-12.526-10.184-22.709-22.71-22.709Zm0 38.977c-8.973 0-16.268-7.295-16.268-16.268 0-8.972 7.295-16.267 16.268-16.267s16.267 7.295 16.267 16.267c0 8.973-7.294 16.268-16.267 16.268Z" fill="#231815"/><path d="M184.433 291.266c-10.471 0-18.986-8.515-18.986-18.986s8.515-18.986 18.986-18.986 18.986 8.515 18.986 18.986-8.515 18.986-18.986 18.986Zm0-33.234c-7.986 0-14.473 6.496-14.473 14.473 0 7.976 6.496 14.472 14.473 14.472s14.473-6.496 14.473-14.472c0-7.977-6.496-14.473-14.473-14.473Z" fill="#231815"/><path d="M184.433 253.752c10.238 0 18.537 8.299 18.537 18.537s-8.299 18.538-18.537 18.538-18.538-8.3-18.538-18.538 8.3-18.537 18.538-18.537Zm0 33.683c8.246 0 14.921-6.685 14.921-14.921 0-8.237-6.684-14.922-14.921-14.922-8.237 0-14.922 6.685-14.922 14.922 0 8.236 6.685 14.921 14.922 14.921Zm0-34.581c-10.713 0-19.435 8.713-19.435 19.435 0 10.723 8.713 19.435 19.435 19.435s19.435-8.712 19.435-19.435c0-10.722-8.713-19.435-19.435-19.435Zm0 33.684c-7.735 0-14.024-6.29-14.024-14.024 0-7.735 6.289-14.025 14.024-14.025 7.734 0 14.024 6.29 14.024 14.025 0 7.734-6.29 14.024-14.024 14.024Z" fill="#231815"/><path d="M184.433 276.982a4.523 4.523 0 1 0-.001-9.045 4.523 4.523 0 0 0 .001 9.045Z" fill="#231815"/><path d="M184.433 268.386a4.07 4.07 0 0 1 4.073 4.074 4.07 4.07 0 0 1-4.073 4.073 4.07 4.07 0 0 1-4.074-4.073 4.07 4.07 0 0 1 4.074-4.074Zm0-.897a4.97 4.97 0 1 0-.002 9.942 4.97 4.97 0 0 0 .002-9.942Z" fill="#231815"/><path d="M184.433 274.802a2.343 2.343 0 1 0-.001-4.685 2.343 2.343 0 0 0 .001 4.685Z" fill="#231815"/><path d="M184.433 270.566a1.894 1.894 0 1 1-.002 3.788 1.894 1.894 0 0 1 .002-3.788Zm0-.897a2.794 2.794 0 0 0-2.791 2.791 2.788 2.788 0 0 0 2.791 2.79 2.787 2.787 0 0 0 2.79-2.79 2.787 2.787 0 0 0-2.79-2.791Zm.825-2.01a2.002 2.002 0 0 1-2 2.001h-42.872a2.003 2.003 0 0 1-2.001-2.001c0-1.103.898-2.001 2.001-2.001h42.872c1.103 0 2 .898 2 2.001Z" fill="#231815"/><path d="M179.354 283.308a20.25 20.25 0 0 1-2.377-.162l-35.801-1.22c-.198 0-4.693-.234-7.779-3.607-2.001-2.19-2.934-5.177-2.755-8.892 0-.081.61-4.513 5.608-4.513.323 0 .664.018 1.023.053l42.889-2.189c.251-.018.502-.027.763-.027 5.32 0 9.789 4.155 10.193 9.466.421 5.626-3.814 10.543-9.44 10.965l-.448.036c-.655.054-1.221.099-1.876.099v-.009Z" fill="#231815"/><path d="M180.934 263.2a9.784 9.784 0 0 1 9.744 9.053c.404 5.384-3.634 10.077-9.027 10.48-.852.063-1.507.126-2.297.126-.628 0-1.345-.045-2.323-.162l-35.837-1.229s-10.651-.439-10.103-12.032c0 0 .502-4.083 5.159-4.083.305 0 .628.018.969.054l42.961-2.189c.251-.018.493-.027.736-.027m0-.897c-.27 0-.539.009-.808.027l-42.871 2.189a9.487 9.487 0 0 0-.996-.054c-4.316 0-5.841 3.185-6.057 4.872v.063c-.179 3.84.781 6.936 2.872 9.215 3.212 3.508 7.896 3.742 8.093 3.751l35.801 1.229a20.48 20.48 0 0 0 2.395.161c.718 0 1.257-.045 1.921-.098l.448-.036a10.605 10.605 0 0 0 7.295-3.679 10.648 10.648 0 0 0 2.557-7.761c-.413-5.537-5.087-9.879-10.641-9.879h-.009Z" fill="#231815"/><path d="M134.787 273.321c-1.579 0-2.808-.816-2.808-1.848s1.238-1.831 2.808-1.831l35.344.081c.708 0 1.381.171 1.902.476.592.35.915.834.906 1.372 0 1.032-1.238 1.831-2.808 1.831l-35.344-.081Z" fill="#231815"/><path d="m134.787 270.091 35.335.081c1.301 0 2.359.628 2.359 1.399 0 .763-1.058 1.382-2.359 1.382h-.009l-35.335-.081c-1.31 0-2.359-.628-2.359-1.399 0-.763 1.058-1.382 2.359-1.382m0-.897c-1.857 0-3.257.978-3.257 2.279s1.4 2.288 3.257 2.297l35.335.08c1.866 0 3.266-.978 3.266-2.279 0-.691-.413-1.337-1.131-1.758-.583-.341-1.337-.539-2.126-.539l-35.335-.08h-.009Z" fill="#231815"/><path d="M173.675 272.702c.296 4.011 3.795 7.017 7.806 6.721 4.011-.297 7.017-3.796 6.72-7.807-.296-4.01-3.795-7.016-7.806-6.72-4.01.296-7.016 3.795-6.72 7.806Z" fill="#231815" stroke="#231815" stroke-width=".75" stroke-linecap="round" stroke-linejoin="round"/><path d="m87.753 206.906-5.796 23.741s-1.32 4.038 0 4.756l7.886 3.122 6.326-21.66s3.885-6.325 6.236-10.928c0 0 2.916-6.577 2.494-6.577-4.45 0-11.583-6.766-11.583-6.766s-4.567.395-4.621 1.553c-.045 1.157-.942 12.75-.942 12.75v.009Z" fill="#231815" stroke="#231815" stroke-miterlimit="10"/><path d="M97.273 200.858c-.063 4.558-6.434 9.009-15.433 8.264-1.723-.144-3.132-3.697-3.132-8.264 0-4.567 1.436-7.995 3.132-8.264 7.582-1.184 15.478 4.442 15.433 8.264Z" fill="#231815" stroke="#231815" stroke-miterlimit="10"/><path d="M81.948 192.585s-.072 0-.1.009c-1.695.27-3.13 3.697-3.13 8.264 0 4.567 1.408 8.12 3.13 8.264h.1v-16.546.009Z" fill="#231815" stroke="#231815" stroke-width=".75" stroke-linecap="round" stroke-linejoin="round"/><path d="M80.189 193.994c-.88 1.454-1.48 3.921-1.48 6.864s.592 5.482 1.48 6.936v-13.8Z" fill="#231815" stroke="#231815" stroke-linecap="round" stroke-linejoin="round"/><path d="M102.585 194.748c-3.778-1.212-5.285-1.319-6.72-1.858-1.472-.457-2.827-.978-4.21-.924-1.515.063-3.66 0-4.315.853.108 4.315-.08 14.813 0 16.384 7.456 2.036 10.462 1.265 12.149.807 1.22-.493 3.248-2.369 4.791-5.751 0 0 2.549-8.147-1.686-9.511h-.009Z" fill="#231815" stroke="#231815" stroke-miterlimit="10"/><path d="M92.365 204.25c0 .825-.664 1.489-1.49 1.489h-4.1c-.826 0-1.49-.664-1.49-1.489 0-.826.664-1.49 1.49-1.49h4.1c.826 0 1.49.664 1.49 1.49Z" fill="#231815" stroke="#231815" stroke-width=".75" stroke-linecap="round" stroke-linejoin="round"/><path d="M107.923 176.399c-1.471 0-2.736-3.464-3.284-6.685-.305-1.803-.403-3.535-.269-4.881.153-1.57.601-2.432 1.319-2.548.027 0 .135-.009.162-.009 1.471 0 2.736 3.463 3.284 6.684.574 3.401.493 7.179-1.041 7.439-.027 0-.135.009-.162.009l-.009-.009Z" fill="#231815"/><path d="M105.842 162.706c.987 0 2.234 2.764 2.844 6.317.619 3.652.314 6.748-.682 6.918h-.09c-.987 0-2.234-2.764-2.844-6.317-.619-3.652-.314-6.747.682-6.918h.09Zm0-.897c-.081 0-.162 0-.234.018-.942.162-1.507 1.157-1.687 2.952-.134 1.382-.035 3.158.279 5.007.197 1.175 1.319 7.061 3.723 7.061.081 0 .162 0 .234-.018 2.611-.448 1.543-7.187 1.408-7.958-.197-1.176-1.319-7.062-3.723-7.062Z" fill="#231815"/><path d="M107.923 176.399c-.161 0-.332-.045-.493-.126a.427.427 0 0 1-.243-.377c0-.161.072-.314.207-.404.502-.323.888-2.772.278-6.388-.556-3.248-1.606-5.554-2.306-5.913a.443.443 0 0 1-.242-.377.48.48 0 0 1 .206-.404.956.956 0 0 1 .359-.143c.027 0 .135-.018.162-.018 1.471 0 2.736 3.463 3.284 6.684.574 3.401.502 7.179-1.041 7.439-.027 0-.135.009-.162.009l-.009.018Z" fill="#231815"/><path d="M105.842 162.707c.987 0 2.243 2.763 2.844 6.316.619 3.652.314 6.748-.682 6.918h-.081a.615.615 0 0 1-.296-.081c.835-.529 1.059-3.445.476-6.837-.548-3.203-1.624-5.769-2.548-6.236a.529.529 0 0 1 .197-.08h.09Zm0-.898c-.081 0-.162 0-.234.018a1.38 1.38 0 0 0-.529.207.889.889 0 0 0-.413.798c.018.323.207.61.494.754.413.206 1.48 2.117 2.072 5.59.593 3.463.216 5.617-.107 5.958a.885.885 0 0 0-.404.789.893.893 0 0 0 .502.745c.225.117.467.17.7.17.081 0 .162 0 .234-.018 2.611-.448 1.543-7.187 1.408-7.958-.197-1.176-1.319-7.062-3.723-7.062v.009Zm-2.916 38.008c-1.005 0-1.93-1.059-2.145-2.458-.108-.7-.027-1.391.224-1.947.279-.61.754-1.005 1.301-1.095.072-.009.153-.018.225-.018 1.005 0 1.929 1.059 2.144 2.459.135.888-.036 1.776-.466 2.359-.279.377-.646.619-1.059.682a1.895 1.895 0 0 1-.224.018Z" fill="#231815"/><path d="M102.531 194.748c.78 0 1.525.888 1.705 2.073.197 1.265-.323 2.404-1.158 2.53-.054 0-.108.009-.152.009-.781 0-1.526-.889-1.705-2.073-.198-1.265.323-2.405 1.157-2.53.054 0 .108-.009.153-.009Zm0-.897c-.099 0-.198 0-.287.018-.7.107-1.301.601-1.642 1.345-.288.637-.386 1.418-.261 2.199.252 1.642 1.346 2.835 2.594 2.835.098 0 .197 0 .287-.018.699-.108 1.301-.601 1.642-1.346.287-.637.385-1.417.26-2.198-.251-1.642-1.346-2.835-2.593-2.835Z" fill="#231815"/><path d="M103.374 199.485c-.709 0-1.364-.637-1.633-1.023-.395-.547-.727-1.435-.475-2.279.188-.646.771-1.39 1.489-1.516l5.778-.996s.099-.009.126-.009c.781 0 1.265 1.193 1.445 2.207.125.754.134 1.741-.225 2.253a.771.771 0 0 1-.511.34s-5.698.978-5.779.996a1.442 1.442 0 0 1-.197.018l-.018.009Z" fill="#231815"/><path d="M108.641 194.12c.386 0 .817.798.996 1.839.188 1.077.018 2.01-.377 2.073l-5.778.996c-.036 0-.081.009-.117.009-.493 0-1.023-.485-1.274-.835-.377-.52-.601-1.256-.413-1.884.144-.467.61-1.104 1.131-1.193l5.778-.996h.045m0-.898c-.063 0-.134 0-.197.018l-5.779.996c-1.005.171-1.651 1.185-1.839 1.831-.296.996.09 2.037.547 2.674.404.556 1.167 1.202 2.001 1.202.09 0 .18 0 .269-.027l5.779-.996c.341-.063.942-.314 1.13-1.382.09-.493.081-1.103-.027-1.731-.215-1.248-.825-2.585-1.884-2.585Z" fill="#231815"/><path d="M109.045 198.929c-1.005 0-1.92-1.014-2.172-2.405-.125-.699-.062-1.39.18-1.956.26-.619.727-1.031 1.274-1.13.09-.018.17-.027.26-.027 1.005 0 1.92 1.014 2.172 2.405.278 1.534-.359 2.88-1.454 3.077-.09.018-.17.027-.26.027v.009Z" fill="#231815"/><path d="M108.578 193.877c.772 0 1.526.862 1.732 2.037.224 1.265-.26 2.405-1.086 2.557-.062.009-.116.018-.179.018-.772 0-1.516-.861-1.732-2.036-.224-1.266.26-2.405 1.086-2.558.063-.009.117-.018.179-.018Zm0-.897c-.116 0-.224.009-.341.027-1.337.242-2.135 1.822-1.812 3.598.287 1.606 1.391 2.773 2.611 2.773.117 0 .233-.009.341-.027 1.337-.242 2.135-1.822 1.812-3.598-.287-1.606-1.39-2.773-2.611-2.773Z" fill="#231815"/><path d="M86.604 200.311s-5.222 1.13-4.262 4.576c.503 1.794 6.093 3.454 7.941 2.431.79-.439.915-4.908.198-6.496-.377-.825-2.387-.87-3.868-.511h-.009Z" fill="#231815" stroke="#231815" stroke-width=".75" stroke-linecap="round" stroke-linejoin="round"/><path d="M99.346 197.637c-.35 0-.593-.215-.638-.251a.375.375 0 0 1-.098-.135l-1.508-3.185c-1.346-2.396.664-6.093.754-6.254l7.393-18.932a.459.459 0 0 1 .422-.287h.081a.828.828 0 0 1 .619.43c.287.53-.027 1.31-.09 1.463l-7.5 19.354c-.692 1.839-.35 3.248-.342 3.257.539 1.112 1.48 3.068 1.579 3.248.189.341.144.691.054.897a.38.38 0 0 1-.099.135.927.927 0 0 1-.619.251l-.008.009Z" fill="#231815"/><path d="M105.662 169.041c.691.117.198 1.274.198 1.274l-7.501 19.372c-.754 2.019-.36 3.535-.36 3.535s1.481 3.105 1.625 3.356c.143.251.035.476.035.476a.46.46 0 0 1-.314.134c-.188 0-.332-.134-.332-.134l-1.507-3.186c-1.247-2.234.736-5.841.736-5.841l7.42-18.986Zm0-.897a.89.89 0 0 0-.834.574l-7.403 18.932c-.332.61-2.09 4.128-.727 6.631l1.499 3.158a.947.947 0 0 0 .197.27c.09.089.44.376.951.376.341 0 .655-.125.916-.367a.965.965 0 0 0 .197-.27 1.422 1.422 0 0 0-.063-1.31c-.098-.179-.861-1.767-1.552-3.203-.054-.278-.206-1.444.35-2.925l7.501-19.363c.099-.224.431-1.121.054-1.821a1.287 1.287 0 0 0-.942-.664c-.054 0-.099-.009-.153-.009l.009-.009Z" fill="#231815"/><path d="M100.117 275.815c2.064 4.819 5.025 9.601 8.704 9.951h40.008s13.639 1.05 16.546-9.951h-65.258Z" fill="#231815" stroke="#231815" stroke-width=".75" stroke-linecap="round" stroke-linejoin="round"/><path d="M153.998 282.321h-42.145c-1.821 0-3.302.179-5.006-.7-1.705-.879-2.943-2.297-3.913-3.876-2-3.231-2.925-7.08-3.75-10.723-2.925-12.813-4.468-11.987-8.237-18.25s.88-14.518 3.625-23.751c1.23-4.136 1.525-6.792 1.48-8.47-.323-1.014-.942-2.01-1.731-2.584-.36-.26-.727-.529-1.13-.709-.997-.439-3.087-1.139-4.173-1.22-1.947-.144-3.006.287-6.98 3.535-7.547 6.155-13.585 18.053-14.124 28.201 0 0-.673 3.482 2.79 2.898 3.464-.574 22.764 1.49 26.434 20.467 0 0 4.128 17.909 11.683 18.636h40.008s7.304.556 12.356-3.454h-7.187Z" fill="#231815" stroke="#231815" stroke-miterlimit="10"/><path d="M219.821 270.378c-3.768-.96-3.239-4.809-3.239-4.809-.26-16.33-11.431-25.572-11.431-25.572-16.321-12.49-36.582-3.491-36.582-3.491-5.105 2.127-3.275-7.115-3.275-7.115h-7.51l-.538 3.598c-.081.512-.153 1.032-.224 1.543l-18.646-.762v.861h-5.939s-.772 5.007 1.247 5.967 10.417 2.979 10.695 9.906c.278 6.927-16.222 5.895-15.765 23.481 0 0 89.771-1.292 91.62-2.001 2.745-1.059-.395-1.615-.395-1.615l-.018.009Z" fill="#231815" stroke="#231815" stroke-miterlimit="10"/><path d="M206.766 235.699c-.287 0-.512-.018-.637-.036h-23.033a1.603 1.603 0 0 1-1.606-1.597 1.61 1.61 0 0 1 1.606-1.606h23.158a.95.95 0 0 1 .225.018c.053 0 .152.018.278.018.466 0 .87-.09 1.068-.243.044-.035.143-.107.17-.394.269-2.27 0-8.462-.009-8.524a1.61 1.61 0 0 1 1.525-1.678c.934 0 1.633.673 1.669 1.525.027.664.287 6.55-.009 9.045-.125 1.058-.61 1.947-1.408 2.557-.978.753-2.172.906-3.006.906l.009.009Z" fill="#231815"/><path d="M209.583 222.105c.61 0 1.131.485 1.158 1.104.009.26.287 6.46 0 8.973-.108.942-.539 1.722-1.23 2.252-.897.691-2.018.816-2.736.816-.26 0-.476-.018-.592-.027h-23.087a1.16 1.16 0 0 1-1.157-1.157c0-.637.52-1.158 1.157-1.158h23.158c.054 0 .108 0 .162.009.072.009.197.018.341.018.404 0 .987-.063 1.337-.341.134-.107.296-.278.341-.691.278-2.332 0-8.533 0-8.595a1.154 1.154 0 0 1 1.103-1.203h.054m0-.897h-.09a2.055 2.055 0 0 0-1.426.664 2.09 2.09 0 0 0-.539 1.48c0 .063.279 6.21.009 8.453a.306.306 0 0 1-.026.116c-.054.027-.332.117-.772.117-.099 0-.18 0-.233-.009a2.566 2.566 0 0 0-.279-.018h-23.158a2.06 2.06 0 0 0-2.055 2.055 2.06 2.06 0 0 0 2.055 2.055h23.033c.152.017.368.026.637.026.906 0 2.207-.17 3.284-1.004.888-.682 1.435-1.678 1.579-2.863.296-2.53.045-8.452.009-9.116a2.053 2.053 0 0 0-2.055-1.956h.027Z" fill="#231815"/><path d="M189.96 235.089a1.605 1.605 0 0 1-1.606-1.606v-7.501a1.605 1.605 0 1 1 3.212 0v7.501c0 .888-.718 1.606-1.606 1.606Z" fill="#231815"/><path d="M189.951 224.833c.637 0 1.158.52 1.158 1.158v7.501a1.16 1.16 0 0 1-1.158 1.157 1.16 1.16 0 0 1-1.157-1.157v-7.501c0-.638.52-1.158 1.157-1.158Zm0-.897a2.06 2.06 0 0 0-2.055 2.055v7.501a2.06 2.06 0 0 0 2.055 2.054 2.06 2.06 0 0 0 2.055-2.054v-7.501a2.06 2.06 0 0 0-2.055-2.055Z" fill="#231815"/><path d="M203.482 239.737s8.407 7.124 11 16.859c0 0 .646 2.162 1.158 7.358.502 5.195.861 6.648 3.75 6.927 0 0-3.75.726-4.235-2.881-.556-4.181-.888-17.146-11.673-28.272v.009Z" fill="#231815" stroke="#231815" stroke-width=".75" stroke-linecap="round" stroke-linejoin="round"/><path d="M219.821 270.378c-3.768-.96-3.239-4.809-3.239-4.809-.26-16.33-11.431-25.572-11.431-25.572-16.321-12.49-36.582-3.491-36.582-3.491-5.105 2.127-3.275-7.115-3.275-7.115h-7.51l-.538 3.598c-.081.512-.153 1.032-.224 1.543l-18.646-.762v.861h-5.939s-.772 5.007 1.247 5.967 10.417 2.979 10.695 9.906c.278 6.927-16.222 5.895-15.765 23.481 0 0 9.762-.143 22.907-.359 1.265-10.596 6.55-28.201 27.573-30.92 22.611-2.925 32.024 13.881 35.442 29.61 3.356-.116 5.429-.233 5.689-.332 2.745-1.059-.395-1.615-.395-1.615l-.009.009Z" fill="#231815" stroke="#231815" stroke-miterlimit="10"/><path d="M179.085 242.715c-21.023 2.728-26.308 20.323-27.573 30.92 4.065-.063 62.36-1.292 63.015-1.31-3.418-15.729-12.831-32.535-35.442-29.61Z" fill="#231815" stroke="#231815" stroke-miterlimit="10"/><path d="M180.072 245.326c-20.018 2.593-20.942 23.222-20.879 28.094 17.622-.305 37.299-.682 47.923-1.023-1.974-13.019-8.695-29.448-27.044-27.071Z" fill="#231815" stroke="#231815" stroke-miterlimit="10"/><path d="M197.039 241.226c0 .826-.663 1.489-1.489 1.489h-4.1c-.826 0-1.49-.663-1.49-1.489 0-.825.664-1.489 1.49-1.489h4.1c.826 0 1.489.664 1.489 1.489Z" fill="#231815" stroke="#231815" stroke-width=".75" stroke-linecap="round" stroke-linejoin="round"/><path d="M201.266 240.607c-.018-.063-.045-.117-.063-.171a.068.068 0 0 0-.018-.036l-.081-.161c0-.009-.009-.018-.018-.027a3.221 3.221 0 0 0-.484-.664c-.045-.054-.099-.099-.144-.144l-.009-.009a5.89 5.89 0 0 0-.843-.646c-.063-.035-.117-.071-.18-.107a8.337 8.337 0 0 0-.897-.449h-.009c-.054-.027-.108-.045-.17-.072-.225-.089-.431-.161-.611-.224h-.027c-.035-.009-.071-.027-.107-.036-.009 0-.018 0-.027-.009-.036-.009-.072-.018-.099-.027h-.018c-.098-.027-.179-.054-.251-.072h-.027c-.018 0-.027 0-.045-.008h-.107a8.096 8.096 0 0 0-1.346-.198 7.158 7.158 0 0 0-.619-.009h-.243c-.17.009-.332.036-.484.063-.036 0-.063.009-.099.018-.036 0-.072.018-.108.027-.044.009-.089.027-.134.036a.322.322 0 0 0-.099.036l-.135.053c-.017.009-.044.018-.062.027a.485.485 0 0 0-.117.063c-.018 0-.027.018-.045.027-.045.027-.09.063-.134.099-.009 0-.018.018-.027.027a.447.447 0 0 0-.09.089c-.009.009-.018.027-.027.036-.027.045-.063.081-.081.126-.027.063-.054.135-.08.197a.128.128 0 0 1-.018.054c-.018.063-.045.126-.063.189 0 .018 0 .026-.009.044-.027.081-.045.171-.063.252v.036l-.054.242c0 .018 0 .036-.009.054-.036.197-.063.403-.09.619v.036l-.026.323c-.153 1.875.08 4.127.619 4.423.062.036.134.063.206.099.027.009.045.018.072.027.054.018.098.036.161.054.027 0 .054.018.09.027a.957.957 0 0 0 .171.035.32.32 0 0 1 .089.018l.189.027a.24.24 0 0 1 .08.009c.081 0 .162.018.243.018h.045c.314.018.655 0 1.004-.027 2.324-.224 5.249-1.426 5.608-2.709.171-.62.144-1.167-.018-1.642l-.062-.063Z" fill="#231815" stroke="#231815" stroke-width=".75" stroke-linecap="round" stroke-linejoin="round"/><path d="M180.413 237.951c-.35 0-.556-.027-.556-.027H143.32c-.466-.054-1.067-.099-1.776-.153-3.518-.242-8.82-.619-9.87-3.248-.494-1.247.045-2.736 1.66-4.54a.45.45 0 0 1 .107-.296 6.656 6.656 0 0 1 1.849-1.471c2.072-1.14 4.594-1.346 7.007-1.409.341 0 .691-.009 1.032-.009 1.876 0 3.769.117 5.59.233 1.804.117 3.679.225 5.518.225 1.149 0 2.199-.045 3.195-.135 5.805-.529 11.565-1.974 17.128-3.365l.548-.134c2.386-.602 4.971-1.176 7.653-1.364.189-.009.62-.036.62-.036h.089c2.782.547 2.961 2.243 2.952 2.719.153.493.781 3.014 0 7.887-.762 4.728-4.944 5.096-6.209 5.096v.027Z" fill="#231815"/><path d="M183.59 222.689c2.853.565 2.593 2.341 2.593 2.341s.861 2.45 0 7.762c-.7 4.316-4.397 4.719-5.761 4.719-.314 0-.502-.018-.502-.018h-36.591c-3.005-.403-16.177-.098-9.502-7.348.036-.036-.018-.09-.036-.135a6.337 6.337 0 0 1 1.723-1.373c2.037-1.112 4.531-1.292 6.801-1.354.341 0 .682-.009 1.023-.009 3.724 0 7.403.457 11.117.457 1.077 0 2.154-.036 3.24-.134 6.029-.557 11.888-2.046 17.747-3.509 2.486-.619 5.016-1.175 7.582-1.355.18-.009.386-.027.592-.036m0-.897h-.044c-.216.009-.422.027-.611.036-2.718.189-5.32.772-7.734 1.382l-.538.134c-5.554 1.391-11.297 2.827-17.075 3.356-.987.09-2.019.135-3.159.135-1.83 0-3.687-.117-5.491-.224-1.83-.117-3.732-.234-5.626-.234-.35 0-.691 0-1.041.009-2.467.063-5.051.278-7.205 1.463a7.411 7.411 0 0 0-1.974 1.57.873.873 0 0 0-.197.395c-1.66 1.893-2.198 3.499-1.642 4.899 1.149 2.889 6.631 3.275 10.256 3.526.7.045 1.301.09 1.687.144h36.662c.09 0 .287.018.547.018 1.355 0 5.832-.395 6.649-5.474.763-4.692.215-7.294.018-8.003.018-.96-.628-2.593-3.32-3.123a1.103 1.103 0 0 0-.17-.018l.008.009Z" fill="#231815"/><path d="M69.709 241.262c2.584-.844 4.423-16.779 17.595-25.698 0 0 3.311-3.221-.897-2.727-1.184.52-2.692 1.354-4.37 2.727-6.684 5.456-12.185 15.406-13.728 24.666.233.799.664 1.274 1.4 1.032Z" fill="#231815" stroke="#231815" stroke-width=".75" stroke-linecap="round" stroke-linejoin="round"/><path d="M90.947 249.221a.455.455 0 0 1-.323-.135c-6.362-6.505-2.728-15.846.197-23.347.898-2.306 1.75-4.486 2.199-6.326.879-3.571.161-4.468-1.023-5.948a.465.465 0 0 1-.054-.512.452.452 0 0 1 .386-.242h.054c.116.018 2.8.386 3.804 3.75.485 1.625.126 4.218-1.193 8.686-.62 2.1-1.346 4.145-2.037 6.119-2.378 6.766-4.442 12.607-1.633 17.273a.444.444 0 0 1-.108.583.448.448 0 0 1-.278.09l.009.009Z" fill="#231815"/><path d="M92.338 213.169s2.494.314 3.427 3.427c.485 1.606.036 4.289-1.193 8.425-2.746 9.233-7.393 17.488-3.625 23.751-8.093-8.282.592-21.445 2.512-29.251.934-3.804.117-4.8-1.13-6.361m0-.898a.896.896 0 0 0-.7 1.454l.018.018c1.175 1.471 1.768 2.207.942 5.563-.448 1.812-1.292 3.975-2.18 6.272-2.97 7.618-6.667 17.111-.099 23.822.17.18.404.269.646.269a.905.905 0 0 0 .772-1.364c-2.701-4.486-.673-10.237 1.669-16.895.7-1.983 1.417-4.038 2.045-6.146 1.373-4.612 1.714-7.205 1.194-8.937-1.095-3.634-4.056-4.047-4.181-4.065h-.108l-.018.009Zm20.143 65.07c-2.216 0-4.091-.179-5.733-.547-1.507-.341-2.755-1.328-3.508-2.791-.934-1.803-1.023-4.091-.234-5.967.844-2.01 2.665-3.598 4.774-4.145a8.939 8.939 0 0 1 1.337-.233c.601-.063 1.211-.081 1.794-.099.933-.027 1.804-.054 2.665-.233 1.839-.404 3.473-1.544 5.043-2.647.421-.296.843-.592 1.265-.871 2.557-1.695 4.755-1.776 7.304-1.884.682-.027 1.39-.054 2.135-.116 1.167-.099 2.423-.189 3.67-.189 1.247 0 2.234.081 3.212.251 4.935.844 7.42 4.648 6.828 10.436-.691 6.675-8.039 7.169-13.414 7.519-.771.053-1.507.098-2.18.161-1.346.126-2.791.305-4.298.485-3.365.412-7.169.87-10.678.87h.018Z" fill="#231815"/><path d="M133.002 258.05c1.05 0 2.108.062 3.14.242 5.213.888 6.972 4.989 6.461 9.951-.745 7.214-9.825 6.774-15.191 7.285-4.415.413-9.924 1.355-14.931 1.355-1.992 0-3.903-.152-5.634-.538-3.509-.79-4.702-5.106-3.437-8.147.79-1.885 2.494-3.374 4.477-3.885.422-.108.844-.18 1.275-.225 1.498-.152 3.032-.018 4.513-.341 2.422-.529 4.396-2.207 6.469-3.58 3.131-2.073 5.76-1.642 9.233-1.929 1.202-.099 2.422-.188 3.634-.188m0-.898c-1.265 0-2.53.09-3.706.189-.736.063-1.436.089-2.117.116-2.504.099-4.873.198-7.537 1.956-.431.288-.853.584-1.284.88-1.606 1.13-3.131 2.189-4.881 2.575-.816.179-1.678.206-2.584.224-.592.018-1.211.036-1.83.099a8.887 8.887 0 0 0-1.409.251c-2.234.583-4.181 2.279-5.078 4.415-.835 2.001-.736 4.432.251 6.343.816 1.58 2.171 2.647 3.813 3.015 1.678.377 3.58.556 5.832.556 3.527 0 7.349-.466 10.723-.87 1.516-.188 2.952-.359 4.289-.484.664-.063 1.399-.108 2.171-.162 5.527-.368 13.1-.87 13.827-7.923.628-6.056-2.001-10.04-7.196-10.928-1.005-.171-2.082-.252-3.293-.252h.009Z" fill="#231815"/><path d="M153.181 213.994c-5.276-3.275-10.695-6.613-16.779-7.86-6.083-1.247-13.064 0-17.128 4.711-2.979 3.454-3.966 8.201-4.164 12.759-.475 11.332-2.171 23.32-2.916 34.643 8.623 1.274 22.862.79 31.548.081-2.082-7.25-4.172-14.5-6.254-21.75-.843-2.934-1.687-5.877-2.234-8.874-.135-.718-1.22-7.016.072-6.738.188.045.52.951.628 1.121.709 1.158 1.651 2.235 2.503 3.284 1.723 2.136 3.58 4.173 5.644 5.985 3.661 3.194 8.075 5.671 12.885 6.389 4.809.717 10.013-.485 13.575-3.787 3.832-3.562 5.321-8.972 5.967-14.168.646-5.195 1.768-10.426 3.365-15.406-16.429-1.283-34.033-2.189-50.507-2.521-.009 1.382-.117 2.692.125 4.047" fill="#231815"/><path d="M153.181 213.994c-5.276-3.275-10.695-6.613-16.779-7.86-6.083-1.247-13.064 0-17.128 4.711-2.979 3.454-3.966 8.201-4.164 12.759-.475 11.332-2.171 23.32-2.916 34.643 8.623 1.274 22.862.79 31.548.081-2.082-7.25-4.172-14.5-6.254-21.75-.843-2.934-1.687-5.877-2.234-8.874-.135-.718-1.22-7.016.072-6.738.188.045.52.951.628 1.121.709 1.158 1.651 2.235 2.503 3.284 1.723 2.136 3.58 4.173 5.644 5.985 3.661 3.194 8.075 5.671 12.885 6.389 4.809.717 10.013-.485 13.575-3.787 3.832-3.562 5.321-8.972 5.967-14.168.646-5.195 1.768-10.426 3.365-15.406-16.429-1.283-34.033-2.189-50.507-2.521-.009 1.382-.117 2.692.125 4.047" stroke="#231815" stroke-miterlimit="10"/><path d="M166.766 217.233c-1.229 2.755-2.351 5.653-2.288 8.668.063 3.015 1.57 6.173 4.334 7.375 2.126.924 3.391-.269 4.513-1.992a20.04 20.04 0 0 0 2.602-5.85c.125-.466 1.041-5.078.646-5.114a15.889 15.889 0 0 1-3.894-.906c-1.974-.727-3.939-1.454-5.913-2.181Z" fill="#231815" stroke="#231815" stroke-width=".75" stroke-linecap="round" stroke-linejoin="round"/><path d="M129.135 166.215a3.257 3.257 0 1 0 0-6.515 3.257 3.257 0 0 0 0 6.515Z" fill="#231815"/><path d="M129.135 160.149a2.807 2.807 0 0 1 2.808 2.809 2.806 2.806 0 0 1-2.808 2.808 2.807 2.807 0 0 1-2.809-2.808 2.807 2.807 0 0 1 2.809-2.809Zm0-.897a3.707 3.707 0 0 0-3.706 3.706 3.707 3.707 0 1 0 3.706-3.706Zm8.111 8.524a3.262 3.262 0 0 1-3.257-3.257 3.263 3.263 0 0 1 3.257-3.257 3.263 3.263 0 0 1 3.257 3.257 3.263 3.263 0 0 1-3.257 3.257Z" fill="#231815"/><path d="M137.246 161.71a2.807 2.807 0 0 1 2.808 2.809 2.806 2.806 0 0 1-2.808 2.808 2.808 2.808 0 1 1 0-5.617Zm0-.897a3.707 3.707 0 0 0 0 7.412 3.707 3.707 0 0 0 0-7.412Zm16.716 24.917c-8.551 10.597-23.589 15.164-36.591 11.108-.672-.206-1.336-.439-1.982-.664-2.001-.69-3.895-1.345-5.707-1.301-1.669.045-3.679 1.203-3.679 2.585a2.5 2.5 0 0 1-2.485 2.503 2.493 2.493 0 0 1-2.495-2.485c0-2.154 1.032-4.137 2.916-5.599a9.806 9.806 0 0 1 5.608-1.992c2.719-.072 5.142.762 7.475 1.57.637.224 1.238.431 1.839.619 5.321 1.66 11.359 1.633 17.021-.09 5.662-1.714 10.695-5.051 14.195-9.385" fill="#231815"/><path d="M153.962 185.73c-8.551 10.597-23.589 15.164-36.591 11.108-.672-.206-1.336-.439-1.982-.664-2.001-.69-3.895-1.345-5.707-1.301-1.669.045-3.679 1.203-3.679 2.585a2.5 2.5 0 0 1-2.485 2.503 2.493 2.493 0 0 1-2.495-2.485c0-2.154 1.032-4.137 2.916-5.599a9.806 9.806 0 0 1 5.608-1.992c2.719-.072 5.142.762 7.475 1.57.637.224 1.238.431 1.839.619 5.321 1.66 11.359 1.633 17.021-.09 5.662-1.714 10.695-5.051 14.195-9.385" stroke="#231815" stroke-width=".75" stroke-linecap="round" stroke-linejoin="round"/><path d="M191.512 194.416c-1.758 0-3.571-.557-5.177-1.041-1.148-.35-2.414-.879-3.042-2.145-.385-.78-.35-2.018.099-2.88.036-.071.072-.134.108-.197-1.265-.171-2.441-.826-3.221-1.822a4.983 4.983 0 0 1-.88-4.324c-1.758-.117-3.373-1.292-3.993-2.925-.628-1.642-.161-3.634 1.077-4.882a6.812 6.812 0 0 0-.305-.206c-2.252-1.525-4.585-3.095-3.993-6.433h-.287c-1.669 0-3.311-.808-4.289-2.109-.987-1.31-1.283-3.06-.834-4.711a4.922 4.922 0 0 1-.521.027c-.888 0-1.974-.233-2.907-.628-1.319-.556-2.306-1.543-2.71-2.718a3.535 3.535 0 0 1 .315-2.97c-1.364-.207-2.612-1.086-3.222-2.324-.87-1.759-.233-4.388.88-6.245a5.992 5.992 0 0 0-.96-.063c-.171 0-.88.018-1.05.018-.987 0-2.037-.117-3.006-.96-1.095-.96-1.705-2.423-1.669-3.867a2.921 2.921 0 0 1-.484.036c-1.095 0-2.145-.494-2.8-1.31-.7-.88-.933-2.118-.61-3.24.018-.071.045-.143.072-.206-1.463-.251-2.728-1.436-2.988-2.907-.269-1.516.565-3.123 1.911-3.831-.673-1.23-.619-2.818.197-3.984.682-.969 1.876-1.57 3.105-1.57h.099a4.126 4.126 0 0 1-.279-2.226c.171-1.166.79-2.171 1.696-2.754.584-.377 1.274-.566 2.01-.566 1.265 0 2.459.566 3.203 1.463 1.059-2.055 3.473-3.508 5.958-3.508 2.037 0 3.643.987 4.469 2.736a5.979 5.979 0 0 1 2.557-.556c2.736 0 5.285 1.642 6.245 3.966a6.871 6.871 0 0 1 2.494-.458c1.176 0 2.324.287 3.32.835 1.75.96 3.033 2.71 3.437 4.666a6.377 6.377 0 0 1 1.606-.198c1.283 0 2.566.377 3.607 1.068 1.516 1.005 2.566 2.701 2.826 4.495.879-.143 1.777-.278 2.692-.278.386 0 .745.027 1.085.072 3.374.448 4.236 3.033 5.07 5.527l.027.09a6.792 6.792 0 0 1 2.916-.646c1.929 0 3.751.753 4.998 2.063 1.848 1.938 2.315 5.052 1.256 7.493.242-.036.493-.054.754-.054 1.516 0 3.023.664 4.019 1.776 1.14 1.265 1.642 3.06 1.391 4.792a4.683 4.683 0 0 1 1.983-.449 4.46 4.46 0 0 1 2.037.494c1.175.619 2.01 1.776 2.279 3.059a3.616 3.616 0 0 1 2.494-1.023c.225 0 .44.027.655.072 1.597.332 2.836 1.929 2.764 3.562-.036.844-.368 1.588-.691 2.315-.144.314-.278.628-.395.951-.359 1.014-.439 2.091-.52 3.239-.045.602-.09 1.221-.18 1.822-.619 4.181-3.598 8.048-7.573 9.843-.242.107-.583.197-.978.296-.448.117-1.372.35-1.507.556-.036.117 0 .655.027 1.014.045.61.09 1.238-.036 1.651a9.965 9.965 0 0 1-3.984 5.348c-1.57 1.032-3.499 1.606-5.446 1.606a9.652 9.652 0 0 1-3.051-.485c-1.444 3.248-4.899 5.474-8.56 5.474-.475 0-.951-.036-1.417-.117-1.203.933-2.567 1.391-4.173 1.391Z" fill="#231815"/><path d="M163.006 116.856c1.804 0 3.491.871 4.235 2.916.853-.502 1.813-.735 2.791-.735 2.575 0 5.213 1.615 5.985 4.118a6.485 6.485 0 0 1 2.754-.61c1.077 0 2.154.26 3.105.781 1.776.978 3.041 2.835 3.293 4.845a5.84 5.84 0 0 1 1.965-.332c1.184 0 2.368.341 3.355.996 1.544 1.023 2.567 2.799 2.683 4.648 1.023-.171 2.055-.35 3.087-.35.341 0 .691.018 1.032.063 3.337.439 3.966 3.068 4.899 5.814a6.26 6.26 0 0 1 3.176-.844c1.732 0 3.472.664 4.675 1.929 1.965 2.064 2.27 5.51.691 7.887a4.481 4.481 0 0 1 1.642-.305c1.372 0 2.763.602 3.687 1.633 1.301 1.454 1.669 3.634 1.032 5.483.727-.646 1.705-.987 2.683-.987.637 0 1.265.143 1.83.439 1.427.754 2.298 2.432 2.1 4.029.44-1.148 1.66-1.938 2.88-1.938.189 0 .377.018.566.054 1.39.287 2.467 1.678 2.404 3.104-.054 1.104-.691 2.091-1.059 3.132-.574 1.642-.475 3.427-.726 5.141-.61 4.136-3.527 7.788-7.313 9.502-.601.269-2.378.494-2.692 1.032-.224.377.153 2.1-.054 2.764-.628 2.063-2.001 3.921-3.804 5.105-1.534 1.005-3.365 1.525-5.195 1.525a9.227 9.227 0 0 1-3.302-.601c-1.274 3.32-4.774 5.59-8.309 5.59a7.398 7.398 0 0 1-1.534-.152c-1.274 1.049-2.638 1.417-4.047 1.417-1.66 0-3.382-.511-5.051-1.023-1.095-.332-2.217-.798-2.773-1.911-.475-.942-.206-3.113 1.167-3.338a4.478 4.478 0 0 1-.691.054c-1.355 0-2.701-.628-3.545-1.696-.987-1.247-1.229-3.041-.61-4.504a3.86 3.86 0 0 1-.323.018c-1.66 0-3.284-1.086-3.876-2.647-.628-1.66-.036-3.697 1.382-4.764-2.692-1.867-5.491-3.266-4.459-7.116a4.666 4.666 0 0 1-.862.081c-1.507 0-3.024-.718-3.93-1.929-1.103-1.463-1.211-3.419-.502-5.07-.359.144-.772.198-1.212.198-.942 0-1.983-.278-2.736-.592-1.095-.467-2.073-1.328-2.459-2.45-.386-1.13-.098-2.512.853-3.239-.117.009-.225.018-.341.018-1.418 0-2.818-.843-3.446-2.118-.924-1.875.063-4.737 1.203-6.334-.557-.18-1.122-.216-1.687-.216-.35 0-.709.018-1.05.018-.942 0-1.849-.098-2.71-.852-1.139-1.005-1.714-2.62-1.453-4.118-.323.116-.655.17-.996.17-.934 0-1.867-.413-2.45-1.149-.628-.78-.807-1.875-.529-2.835.08-.26.188-.511.332-.745h-.135c-1.462 0-2.853-1.139-3.104-2.584-.27-1.489.708-3.095 2.144-3.544-.87-1.104-.915-2.781-.108-3.93.61-.87 1.678-1.382 2.737-1.382.341 0 .673.054.996.162-1.301-1.508-.915-4.137.763-5.213a3.257 3.257 0 0 1 1.767-.503c1.346 0 2.719.736 3.293 1.974.763-2.413 3.419-4.028 5.877-4.028m0-.898c-2.431 0-4.8 1.319-6.047 3.23a4.72 4.72 0 0 0-3.114-1.175c-.825 0-1.606.224-2.252.637-1.014.655-1.705 1.777-1.902 3.069a4.664 4.664 0 0 0 .099 1.875c-1.185.144-2.279.781-2.943 1.723-.835 1.175-.961 2.754-.413 4.064-1.292.88-2.055 2.522-1.777 4.083.269 1.489 1.436 2.719 2.871 3.158-.269 1.194 0 2.477.754 3.401.745.924 1.92 1.48 3.15 1.48h.044c.09 1.409.745 2.791 1.813 3.724 1.077.942 2.225 1.077 3.302 1.077h1.283c-.87 1.74-1.49 4.172-.556 6.047.583 1.176 1.695 2.064 2.961 2.432a3.998 3.998 0 0 0-.072 2.799c.448 1.292 1.525 2.378 2.961 2.988.969.413 2.099.655 3.041.664-.278 1.606.081 3.239 1.041 4.513 1.014 1.355 2.692 2.217 4.424 2.279-.305 3.204 2.019 4.837 4.145 6.272-1.086 1.364-1.444 3.311-.816 4.953.619 1.633 2.153 2.845 3.876 3.15-.242 1.471.134 3.032 1.068 4.217a5.467 5.467 0 0 0 2.916 1.875c-.359.951-.35 2.153.054 2.952.708 1.409 2.072 1.992 3.31 2.369 1.633.502 3.482 1.068 5.312 1.068 1.633 0 3.042-.449 4.289-1.364a9.1 9.1 0 0 0 1.301.098c3.697 0 7.196-2.171 8.802-5.383.898.26 1.84.386 2.809.386 2.028 0 4.046-.593 5.688-1.678a10.375 10.375 0 0 0 4.164-5.59c.143-.485.098-1.131.054-1.813a10.81 10.81 0 0 1-.036-.744c.278-.135.852-.279 1.184-.359.422-.108.781-.198 1.05-.323 4.118-1.858 7.187-5.859 7.833-10.184.09-.628.144-1.247.188-1.858.081-1.112.162-2.162.503-3.122.108-.296.242-.601.377-.924.341-.763.682-1.553.726-2.477.081-1.875-1.283-3.634-3.122-4.019a3.428 3.428 0 0 0-.745-.081c-.807 0-1.597.26-2.252.7-.413-1.131-1.229-2.118-2.315-2.692a4.79 4.79 0 0 0-2.243-.547c-.502 0-1.005.071-1.48.224.044-1.624-.503-3.23-1.562-4.415-1.085-1.211-2.709-1.929-4.36-1.929h-.081c.798-2.485.224-5.374-1.606-7.304-1.337-1.399-3.275-2.207-5.321-2.207-.924 0-1.821.171-2.647.485-.843-2.504-1.83-4.998-5.312-5.456a9.562 9.562 0 0 0-1.148-.071c-.79 0-1.579.098-2.324.206-.377-1.75-1.454-3.365-2.943-4.361a7.084 7.084 0 0 0-5.133-1.032c-.52-1.893-1.821-3.571-3.553-4.522a7.33 7.33 0 0 0-3.535-.888c-.772 0-1.534.117-2.261.35-1.14-2.279-3.724-3.858-6.487-3.858a6.4 6.4 0 0 0-2.351.43c-.942-1.669-2.602-2.611-4.675-2.611l-.009.009Z" fill="#231815"/><path d="M146.479 124.259c2.153-.754 4.666-.359 6.487 1.023 1.669 1.274 2.835 3.49 2.728 5.616-.09 1.84-1.75 3.715-3.715 3.428-.018 1.095-.736 2.144-1.759 2.548a2.839 2.839 0 0 1-3.023-.655c.017 1.095-.629 2.163-1.598 2.665a3.039 3.039 0 0 1-3.104-.224c.242 1.426-.467 2.97-1.696 3.714-1.229.745-2.925.664-4.082-.206-.44 2.369-3.509 3.796-5.608 2.611.125 1.373-.575 2.782-1.741 3.517-1.247.781-2.701.655-3.975.027.063.88-.637 1.75-1.391 2.136a2.716 2.716 0 0 1-2.413.018c-1.068 1.166-2.907 1.902-4.334.78-.763-.601-1.122-1.678-.87-2.62-.97-.089-1.571-1.157-1.651-2.126-.153-1.866 1.067-3.76 2.826-4.379" fill="#231815"/><path d="M146.479 124.259c2.153-.754 4.666-.359 6.487 1.023 1.669 1.274 2.835 3.49 2.728 5.616-.09 1.84-1.75 3.715-3.715 3.428-.018 1.095-.736 2.144-1.759 2.548a2.839 2.839 0 0 1-3.023-.655c.017 1.095-.629 2.163-1.598 2.665a3.039 3.039 0 0 1-3.104-.224c.242 1.426-.467 2.97-1.696 3.714-1.229.745-2.925.664-4.082-.206-.44 2.369-3.509 3.796-5.608 2.611.125 1.373-.575 2.782-1.741 3.517-1.247.781-2.701.655-3.975.027.063.88-.637 1.75-1.391 2.136a2.716 2.716 0 0 1-2.413.018c-1.068 1.166-2.907 1.902-4.334.78-.763-.601-1.122-1.678-.87-2.62-.97-.089-1.571-1.157-1.651-2.126-.153-1.866 1.067-3.76 2.826-4.379" stroke="#231815" stroke-linecap="round" stroke-linejoin="round"/><path d="M178.367 192.478c-.96 0-1.929-.117-2.88-.35a11.9 11.9 0 0 1-7.402-5.438 11.93 11.93 0 0 1-1.391-9.08 11.902 11.902 0 0 1 5.437-7.402 1.235 1.235 0 0 1 1.705.421 1.235 1.235 0 0 1-.421 1.705 9.442 9.442 0 0 0-4.307 5.868 9.418 9.418 0 0 0 1.103 7.196 9.442 9.442 0 0 0 5.868 4.307 9.42 9.42 0 0 0 7.197-1.103c4.486-2.719 5.93-8.587 3.212-13.074-2.019-3.337-5.967-5.123-9.807-4.441a1.241 1.241 0 0 1-1.436-1.005 1.241 1.241 0 0 1 1.005-1.436c4.845-.852 9.807 1.391 12.364 5.599 3.428 5.662 1.615 13.056-4.046 16.483a11.95 11.95 0 0 1-6.201 1.741v.009Z" fill="#231815" stroke="#231815" stroke-miterlimit="10"/></g><path d="M26.547 344.522h-5.824v.644h5.824v-.644Zm-5.824 2.38h5.824v-.644h-5.824v.644Zm0 1.778h5.824v-.672h-5.824v.672Zm-1.61 1.68v-7.014h9.1v6.944h-1.666v-.406h-5.824v.476h-1.61Zm7.672-10.584v1.092h-6.314v-1.092h6.314Zm-.014 2.842h-6.286v-1.106h6.286v1.106Zm-8.596-4.662h10.892v5.012h-1.68v-3.836h-7.602v3.85h-1.61v-5.026Zm21.28 2.492h2.996a14.213 14.213 0 0 1-1.652-1.26c-.42.448-.868.868-1.344 1.26Zm-.588 1.246v-.812c-.434.308-.91.602-1.386.854-.21-.294-.686-.798-1.022-1.092-.154.518-.28 1.022-.42 1.456.714 1.078.854 2.086.854 2.884 0 .924-.154 1.526-.56 1.848-.196.168-.448.266-.742.308-.224.042-.532.042-.812.042-.014-.406-.126-1.022-.336-1.442.21.028.364.028.518.014a.454.454 0 0 0 .322-.112c.154-.126.21-.434.21-.854 0-.644-.112-1.568-.784-2.534.224-.84.476-1.988.672-2.912h-1.022v11.004h-1.386v-12.488h2.842l.224-.056 1.036.602c-.182.658-.392 1.4-.588 2.128 1.596-.826 3.066-2.128 3.85-3.402l1.596.56c-.084.14-.168.294-.266.434 1.036.84 2.562 1.666 3.934 2.114a7.609 7.609 0 0 0-.63 1.582 16.88 16.88 0 0 1-1.988-1.036v.91h-4.116Zm3.57 1.82v1.288h.98v-1.288h-.98Zm-1.204 2.394v-3.514h3.472v3.514h-3.472Zm-2.814-2.394v1.288h.938v-1.288h-.938Zm-1.19 2.394v-3.514h3.374v3.514h-3.374Zm1.092.154 1.456.308c-.084.28-.196.56-.308.826.49.322 1.036.714 1.33 1.008l-.84 1.106c-.238-.28-.672-.644-1.106-.966a7.132 7.132 0 0 1-2.002 2.086c-.224-.28-.756-.826-1.078-1.05 1.232-.728 2.128-1.904 2.548-3.318Zm3.864-.014 1.498.21a7.54 7.54 0 0 1-.322 1.134c.784.546 1.694 1.204 2.17 1.68l-.98 1.12c-.392-.42-1.078-.994-1.778-1.512-.42.7-.938 1.288-1.554 1.736-.21-.28-.742-.84-1.064-1.05 1.092-.714 1.764-1.89 2.03-3.318Zm12.39-5.824h5.67s-.014.574-.042.798c-.28 5.572-.56 7.672-1.176 8.4-.42.546-.826.7-1.428.784-.518.07-1.386.07-2.24.028-.028-.504-.252-1.246-.574-1.722.882.07 1.708.07 2.072.07.294 0 .462-.042.658-.224.42-.434.7-2.268.924-6.426h-3.92c-.224 2.898-1.204 6.3-5.138 8.526-.266-.42-.896-1.05-1.302-1.358 3.472-1.89 4.41-4.718 4.648-7.168h-4.214v-1.708h4.284v-2.884h1.778v2.884Z" fill="#231815"/><g clip-path="url(#clip2_94_6220)"><path d="M72.785 335.49c.85 0 2.2 2.79 2.91 3.15.49.25 2.39-.54 2.78-.16.39.38-.17 2.53.08 3.05.35.7 3.14 1.8 3.14 2.64 0 .87-2.86 2.13-3.23 2.85-.26.5.42 2.5.02 2.89-.4.39-2.52-.26-3.05-.01-.68.32-1.77 2.94-2.57 2.94-.8 0-2.04-2.63-2.73-2.96-.52-.25-2.53.46-2.93.07-.4-.39.31-2.39.05-2.9-.36-.71-3.11-1.95-3.11-2.8 0-.85 2.65-1.98 2.98-2.66.26-.53-.42-2.61-.01-3.02.41-.41 2.36.3 2.86.04.71-.36 1.675-3.11 2.525-3.11l.285-.01Z" fill="#FFE600" stroke="#231815" stroke-miterlimit="10"/><path d="M75.695 338.64c-.71-.36-2.06-3.15-2.91-3.15v17.35h.08c.8 0 1.89-2.62 2.57-2.94.53-.25 2.65.4 3.05.01.4-.39-.28-2.39-.02-2.89.37-.72 3.23-1.98 3.23-2.85 0-.84-2.79-1.94-3.14-2.64-.25-.52.31-2.67-.08-3.05-.39-.38-2.29.41-2.78.16Z" fill="#fff"/><path d="M72.785 335.49c.85 0 2.2 2.79 2.91 3.15.49.25 2.39-.54 2.78-.16.39.38-.17 2.53.08 3.05.35.7 3.14 1.8 3.14 2.64 0 .87-2.86 2.13-3.23 2.85-.26.5.42 2.5.02 2.89-.4.39-2.52-.26-3.05-.01-.68.32-1.77 2.94-2.57 2.94h-.08v-17.35Zm0 0 .01.01" stroke="#231815" stroke-miterlimit="10"/></g><g clip-path="url(#clip3_94_6220)"><path d="M93.345 335.49c.85 0 2.2 2.79 2.91 3.15.49.25 2.39-.54 2.78-.16.39.38-.17 2.53.08 3.05.35.7 3.14 1.8 3.14 2.64 0 .87-2.86 2.13-3.23 2.85-.26.5.42 2.5.02 2.89-.4.39-2.52-.26-3.05-.01-.68.32-1.77 2.94-2.57 2.94-.8 0-2.04-2.63-2.73-2.96-.52-.25-2.53.46-2.93.07-.4-.39.31-2.39.05-2.9-.36-.71-3.11-1.95-3.11-2.8 0-.85 2.65-1.98 2.98-2.66.26-.53-.42-2.61-.01-3.02.41-.41 2.36.3 2.86.04.71-.36 1.97-3.11 2.82-3.11l-.01-.01Z" fill="#FFE600" stroke="#231815" stroke-miterlimit="10"/><path d="M96.695 338.64c-.71-.36-2.06-3.15-2.91-3.15v17.35h.08c.8 0 1.89-2.62 2.57-2.94.53-.25 2.65.4 3.05.01.4-.39-.28-2.39-.02-2.89.37-.72 3.23-1.98 3.23-2.85 0-.84-2.79-1.94-3.14-2.64-.25-.52.31-2.67-.08-3.05-.39-.38-2.29.41-2.78.16Z" fill="#fff"/><path d="M93.785 335.49c.85 0 2.2 2.79 2.91 3.15.49.25 2.39-.54 2.78-.16.39.38-.17 2.53.08 3.05.35.7 3.14 1.8 3.14 2.64 0 .87-2.86 2.13-3.23 2.85-.26.5.42 2.5.02 2.89-.4.39-2.52-.26-3.05-.01-.68.32-1.77 2.94-2.57 2.94h-.08v-17.35Zm0 0 .01.01" stroke="#231815" stroke-miterlimit="10"/></g><g clip-path="url(#clip4_94_6220)"><path d="M113.905 335.49c.85 0 2.2 2.79 2.91 3.15.49.25 2.39-.54 2.78-.16.39.38-.17 2.53.08 3.05.35.7 3.14 1.8 3.14 2.64 0 .87-2.86 2.13-3.23 2.85-.26.5.42 2.5.02 2.89-.4.39-2.52-.26-3.05-.01-.68.32-1.77 2.94-2.57 2.94-.8 0-2.04-2.63-2.73-2.96-.52-.25-2.53.46-2.93.07-.4-.39.31-2.39.05-2.9-.36-.71-3.11-1.95-3.11-2.8 0-.85 2.65-1.98 2.98-2.66.26-.53-.42-2.61-.01-3.02.41-.41 2.36.3 2.86.04.71-.36 1.97-3.11 2.82-3.11l-.01-.01Z" fill="#FFE600" stroke="#231815" stroke-miterlimit="10"/><path d="M116.695 338.64c-.71-.36-2.06-3.15-2.91-3.15v17.35h.08c.8 0 1.89-2.62 2.57-2.94.53-.25 2.65.4 3.05.01.4-.39-.28-2.39-.02-2.89.37-.72 3.23-1.98 3.23-2.85 0-.84-2.79-1.94-3.14-2.64-.25-.52.31-2.67-.08-3.05-.39-.38-2.29.41-2.78.16Z" fill="#fff"/><path d="M113.785 335.49c.85 0 2.2 2.79 2.91 3.15.49.25 2.39-.54 2.78-.16.39.38-.17 2.53.08 3.05.35.7 3.14 1.8 3.14 2.64 0 .87-2.86 2.13-3.23 2.85-.26.5.42 2.5.02 2.89-.4.39-2.52-.26-3.05-.01-.68.32-1.77 2.94-2.57 2.94h-.08v-17.35Zm0 0 .01.01" stroke="#231815" stroke-miterlimit="10"/></g><path d="m165.733 346.322 1.484.504c-.574.784-1.4 1.764-2.058 2.338-.28-.266-.896-.714-1.26-.938a9.44 9.44 0 0 0 1.834-1.904Zm4.676.672 1.204-.7c.63.644 1.526 1.554 1.988 2.128l-1.288.784c-.42-.56-1.26-1.526-1.904-2.212Zm.392-3.206v-.518h-3.598v.518h3.598Zm0 1.456v-.532h-3.598v.532h3.598Zm-6.552-6.342v3.108c0 .378-.014.784-.028 1.204a7.623 7.623 0 0 0 1.204-.728c-.266-.224-.56-.462-.826-.644l.84-.742c.266.168.588.392.868.602.21-.21.406-.434.574-.672h-2.142v-1.246h2.884c.112-.294.224-.588.308-.882h-3.682Zm5.292 2.128h-.938c-.266.434-.56.854-.91 1.26h2.702a7.67 7.67 0 0 1-.854-1.26Zm3.08 0h-1.568c.21.28.462.546.742.798.294-.266.616-.574.826-.798Zm.07 0 .91.672c-.294.28-.63.56-.952.798.42.266.868.504 1.33.658a4.81 4.81 0 0 0-.966 1.176 6.639 6.639 0 0 1-.756-.406v2.296h-2.45v1.792c0 .686-.126 1.022-.644 1.246-.476.21-1.106.21-1.946.21-.098-.42-.336-.966-.518-1.33.518.014 1.092.014 1.274.014.168 0 .224-.056.224-.196v-1.736h-2.38v-2.31c-.266.182-.546.35-.84.504a3.555 3.555 0 0 0-.77-.91c-.14 2.03-.63 4.396-2.044 5.95-.21-.308-.84-.91-1.148-1.106.924-1.022 1.344-2.324 1.54-3.626-.504.308-.994.602-1.484.868l-.462-1.498c.546-.224 1.302-.602 2.1-1.008.014-.364.014-.728.014-1.078v-.476l-1.232.56c-.14-.714-.476-1.918-.77-2.814l1.232-.49c.266.784.588 1.792.77 2.478v-3.766h4.648l-.28-.84 1.694-.336c.14.364.28.784.406 1.176h4.578v1.4h-5.264l.98.126c-.084.266-.182.504-.28.756h4.438v1.246h-.952Zm7.728 8.162-1.26-.7c.49-.504.952-1.316 1.204-2.002l1.246.546c-.294.714-.686 1.596-1.19 2.156Zm4.368-4.522v-2.716h1.176v2.716h-1.176Zm3.346-2.856v3.136c0 .588-.084.854-.49 1.036-.392.182-.91.182-1.638.182-.056-.336-.238-.77-.406-1.078.448.014.882.014 1.036 0 .14-.014.182-.042.182-.168v-3.108h1.316Zm-4.746 4.606 1.05-.658c.434.364 1.05.924 1.344 1.288l-1.078.728c-.28-.392-.854-.952-1.316-1.358Zm-1.764-2.24h1.4v-.392h-1.386c0 .126 0 .266-.014.392Zm1.4-1.442h-1.386v.35h1.386v-.35Zm1.19-.812v3.234c0 .476-.084.658-.406.798-.28.14-.728.14-1.316.14-.028-.266-.168-.574-.28-.812.28.014.574.014.672.014.098 0 .14-.028.14-.14v-.28h-1.484c-.112.504-.322.966-.742 1.33-.196-.224-.714-.63-.98-.784.602-.462.644-1.078.644-1.68v-1.82h3.752Zm-.476 6.272h1.54c.364 0 .448-.112.49-.84.266.182.798.336 1.148.406-.14 1.19-.49 1.498-1.498 1.498h-1.862c-1.414 0-1.75-.322-1.75-1.4v-1.33h1.358v1.316c0 .322.084.35.574.35Zm2.674-1.26 1.19-.532c.518.658 1.134 1.554 1.414 2.156l-1.26.588c-.238-.574-.826-1.526-1.344-2.212Zm-3.024-6.272h2.142a18.048 18.048 0 0 1-1.148-.588c-.322.21-.644.406-.994.588Zm-3.64-1.708v1.694c1.47-.364 3.108-.938 4.158-1.694h-4.158Zm5.698.28-.14.14a17.324 17.324 0 0 0 3.962 1.19c-.308.28-.686.742-.868 1.134a20.442 20.442 0 0 1-2.212-.742v.602h-3.668v-.476c-.686.28-1.4.546-2.086.742a4.917 4.917 0 0 0-.686-.924v1.162c0 2.226-.294 5.488-2.086 7.434-.21-.308-.84-.896-1.148-1.092.924-1.022 1.344-2.338 1.54-3.654-.504.308-.994.616-1.484.896l-.462-1.498c.546-.238 1.302-.616 2.1-1.008.014-.378.014-.742.014-1.078v-.49l-1.232.574c-.07-.742-.392-1.918-.756-2.814l1.19-.504c.35.784.672 1.764.798 2.45v-3.724h4.83a11.057 11.057 0 0 0-.294-.952l1.68-.322c.154.392.322.854.448 1.274h4.242v1.4h-4.256l.574.28Zm12.81.056h5.67s-.014.574-.042.798c-.28 5.572-.56 7.672-1.176 8.4-.42.546-.826.7-1.428.784-.518.07-1.386.07-2.24.028-.028-.504-.252-1.246-.574-1.722.882.07 1.708.07 2.072.07.294 0 .462-.042.658-.224.42-.434.7-2.268.924-6.426h-3.92c-.224 2.898-1.204 6.3-5.138 8.526-.266-.42-.896-1.05-1.302-1.358 3.472-1.89 4.41-4.718 4.648-7.168h-4.214v-1.708h4.284v-2.884h1.778v2.884Z" fill="#231815"/><g clip-path="url(#clip5_94_6220)" stroke="#231815" stroke-miterlimit="10"><path d="M219.405 335.49c-1.34 0-2.54.55-3.41 1.44a4.741 4.741 0 0 0-3.41-1.44c-2.64 0-4.77 2.13-4.77 4.77 0 4.79 8.18 10.62 8.18 10.62s8.18-5.83 8.18-10.62a4.77 4.77 0 0 0-4.77-4.77Z" fill="#FF002A"/><path d="M215.995 336.93c.87-.89 2.07-1.44 3.41-1.44a4.77 4.77 0 0 1 4.77 4.77c0 4.79-8.18 10.62-8.18 10.62v-13.95Z" fill="#fff"/></g><g clip-path="url(#clip6_94_6220)" stroke="#231815" stroke-miterlimit="10"><path d="M238.755 335.49c-1.34 0-2.54.55-3.41 1.44a4.741 4.741 0 0 0-3.41-1.44c-2.64 0-4.77 2.13-4.77 4.77 0 4.79 8.18 10.62 8.18 10.62s8.18-5.83 8.18-10.62a4.77 4.77 0 0 0-4.77-4.77Z" fill="#FF002A"/><path d="M234.995 336.93c.87-.89 2.07-1.44 3.41-1.44a4.77 4.77 0 0 1 4.77 4.77c0 4.79-8.18 10.62-8.18 10.62v-13.95Z" fill="#fff"/></g><g clip-path="url(#clip7_94_6220)" stroke="#231815" stroke-miterlimit="10"><path d="M258.105 335.49c-1.34 0-2.54.55-3.41 1.44a4.741 4.741 0 0 0-3.41-1.44c-2.64 0-4.77 2.13-4.77 4.77 0 4.79 8.18 10.62 8.18 10.62s8.18-5.83 8.18-10.62a4.77 4.77 0 0 0-4.77-4.77Z" fill="#FF002A"/><path d="M254.995 336.93c.87-.89 2.07-1.44 3.41-1.44a4.77 4.77 0 0 1 4.77 4.77c0 4.79-8.18 10.62-8.18 10.62v-13.95Z" fill="#fff"/></g><path d="M15.5 368.35a4.5 4.5 0 0 1 4.5-4.5h44.5v33H20a4.5 4.5 0 0 1-4.5-4.5v-24Z" fill="#00698A"/><path d="M33.778 377.916v-.798H31.86v.798h1.918Zm0 2.212v-.868H31.86v.868h1.918Zm0 2.226v-.882H31.86v.882h1.918Zm-3.528 1.988v-5.81c-.238.28-.476.518-.714.756-.154-.336-.616-1.162-.896-1.526 1.12-1.008 2.128-2.604 2.688-4.242l1.512.42c-.21.602-.476 1.19-.756 1.778h2.086a13.32 13.32 0 0 0-.658-1.512l1.568-.448c.35.602.714 1.372.896 1.96h2.212v1.4H35.36v.798h2.254v1.344H35.36v.868h2.198v1.344H35.36v.882h2.982v1.4H31.86v.588h-1.61Zm-1.68-8.526-1.526.532c-.154-.63-.518-1.652-.756-2.408l1.47-.448c.266.756.616 1.694.812 2.324Zm.126 3.962.714.252c-.252 1.274-.63 2.59-1.106 3.64.224.14.49.336.868.56.952.574 2.268.658 3.906.658 1.61 0 4.116-.14 5.656-.364-.182.448-.462 1.26-.476 1.708-1.162.07-3.626.168-5.264.168-1.862 0-3.038-.154-4.046-.742-.588-.322-1.078-.784-1.372-.784-.322 0-.812.952-1.162 1.75l-1.106-1.582c.476-.588.994-1.05 1.47-1.33.308-.7.588-1.582.798-2.436h-1.764c.322-.826.7-1.946 1.008-3.038h-1.26v-1.484h3.276c-.294.98-.63 2.1-.952 3.08h.56l.252-.056Zm15.652-6.23 1.554.518a21.66 21.66 0 0 1-1.358 2.66v9.842h-1.582v-7.546c-.448.56-.882 1.05-1.344 1.484-.154-.406-.616-1.316-.882-1.736 1.428-1.232 2.814-3.22 3.612-5.222Zm5.026 11.228h2.044c.714 0 .826-.588.952-2.898.378.294 1.036.616 1.47.7-.182 2.702-.602 3.668-2.296 3.668h-2.338c-1.722 0-2.212-.56-2.212-2.464v-10.024h1.61v3.556h4.872v1.596h-4.872v4.9c0 .826.098.966.77.966Z" fill="#fff"/><path d="M15.5 368.35a4.5 4.5 0 0 1 4.5-4.5h44.5v33H20a4.5 4.5 0 0 1-4.5-4.5v-24Z" stroke="#231815"/><path d="M64.5 363.85H260a4.5 4.5 0 0 1 4.5 4.5v24a4.5 4.5 0 0 1-4.5 4.5H64.5v-33Z" fill="#fff"/><g clip-path="url(#clip8_94_6220)"><path d="M78.636 373.35h.49c.019.005.039.012.057.013.204.017.405.051.603.104a3.552 3.552 0 0 1 1.634.934c.31.307.553.66.735 1.055a3.67 3.67 0 0 1 .33 1.552c.002.587 0 1.172 0 1.759v.099h.099c.175 0 .349-.003.524 0 .288.004.525.166.61.426.03.089.041.188.041.283.003 2.357.001 4.713.001 7.069v.07a.637.637 0 0 1-.436.604c-.024.008-.046.021-.068.032h-8.75l-.085-.036a.632.632 0 0 1-.362-.336.732.732 0 0 1-.059-.316v-7.139a.638.638 0 0 1 .657-.657c.179-.002.357 0 .535 0 .025 0 .05-.003.083-.004v-1.973a3.57 3.57 0 0 1 .932-2.351 3.577 3.577 0 0 1 2.207-1.154c.075-.01.148-.022.222-.034Zm2.574 5.512.002-.063c0-.607.002-1.213 0-1.82 0-.119-.007-.24-.025-.358a2.271 2.271 0 0 0-.767-1.412 2.255 2.255 0 0 0-1.95-.545c-.68.118-1.203.484-1.572 1.066a2.122 2.122 0 0 0-.347 1.13c-.007.644 0 1.289 0 1.933 0 .023.004.045.007.069h4.654-.002Zm-2.964 4.945c0 .128-.004.257 0 .384a.631.631 0 0 0 .864.571.638.638 0 0 0 .403-.591c0-.248.003-.495-.001-.743 0-.072.02-.122.075-.173.328-.309.428-.685.295-1.114a1.034 1.034 0 0 0-.976-.728 1.058 1.058 0 0 0-.722 1.86.154.154 0 0 1 .062.134c-.004.133 0 .267 0 .401v-.001Z" fill="#231815"/></g><g clip-path="url(#clip9_94_6220)"><path d="M98.396 373.35h.49c.02.005.04.012.058.013.204.017.404.051.603.104a3.547 3.547 0 0 1 1.633.934c.31.307.553.66.735 1.055.228.493.33 1.011.331 1.552.002.587 0 1.172 0 1.759v.099h.098c.175 0 .349-.003.525 0 .288.004.525.166.609.426.03.089.042.188.042.283.002 2.357.001 4.713.001 7.069v.07a.638.638 0 0 1-.437.604c-.024.008-.045.021-.068.032h-8.75l-.085-.036a.632.632 0 0 1-.362-.336.73.73 0 0 1-.059-.316v-7.139a.638.638 0 0 1 .658-.657c.178-.002.356 0 .534 0 .026 0 .051-.003.083-.004v-1.973a3.57 3.57 0 0 1 .932-2.351 3.577 3.577 0 0 1 2.207-1.154c.075-.01.149-.022.222-.034Zm2.574 5.512c0-.028.003-.046.003-.063v-1.82c0-.119-.007-.24-.026-.358a2.272 2.272 0 0 0-.767-1.412 2.255 2.255 0 0 0-1.95-.545c-.68.118-1.202.484-1.572 1.066a2.122 2.122 0 0 0-.347 1.13c-.006.644 0 1.289 0 1.933 0 .023.004.045.007.069h4.655-.003Zm-2.963 4.945c0 .128-.004.257 0 .384a.631.631 0 0 0 .863.571.638.638 0 0 0 .403-.591c0-.248.003-.495 0-.743 0-.072.02-.122.074-.173.328-.309.429-.685.296-1.114a1.034 1.034 0 0 0-.976-.728 1.058 1.058 0 0 0-.722 1.86.154.154 0 0 1 .062.134c-.004.133 0 .267 0 .401v-.001Z" fill="#231815"/></g><g clip-path="url(#clip10_94_6220)"><path d="M118.157 373.35h.49c.019.005.039.012.058.013.203.017.404.051.602.104a3.556 3.556 0 0 1 1.634.934c.309.307.553.66.735 1.055.228.493.329 1.011.331 1.552v1.858h.097c.176 0 .35-.003.525 0 .288.004.525.166.61.426a.928.928 0 0 1 .041.283c.003 2.357.001 4.713.001 7.069v.07a.637.637 0 0 1-.436.604c-.024.008-.046.021-.068.032h-8.75c-.028-.012-.057-.025-.086-.036a.631.631 0 0 1-.361-.336.729.729 0 0 1-.059-.316v-7.139a.639.639 0 0 1 .657-.657c.179-.002.357 0 .535 0 .025 0 .051-.003.083-.004v-1.973a3.572 3.572 0 0 1 .932-2.351 3.579 3.579 0 0 1 2.207-1.154c.075-.01.148-.022.222-.034Zm2.574 5.512.002-.063c0-.607.002-1.213 0-1.82 0-.119-.006-.24-.025-.358a2.272 2.272 0 0 0-.767-1.412 2.256 2.256 0 0 0-1.95-.545c-.68.118-1.203.484-1.572 1.066a2.116 2.116 0 0 0-.347 1.13c-.007.644 0 1.289 0 1.933 0 .023.004.045.007.069h4.654-.002Zm-2.964 4.945c0 .128-.004.257 0 .384a.632.632 0 0 0 .864.571.64.64 0 0 0 .403-.591c0-.248.003-.495-.001-.743 0-.072.02-.122.075-.173.328-.309.428-.685.296-1.114a1.035 1.035 0 0 0-.977-.728 1.053 1.053 0 0 0-1.013.667c-.168.416-.053.891.292 1.193a.152.152 0 0 1 .061.134c-.004.133 0 .267 0 .401v-.001Z" fill="#231815"/></g><path d="M64.5 363.85H260a4.5 4.5 0 0 1 4.5 4.5v24a4.5 4.5 0 0 1-4.5 4.5H64.5v-33Z" stroke="#231815"/><path d="M15.5 412.35a4.5 4.5 0 0 1 4.5-4.5h44.5v33H20a4.5 4.5 0 0 1-4.5-4.5v-24Z" fill="#00698A"/><path d="M33.918 420.978v2.002h-1.526v-2.002h1.526Zm1.512 7.644h-.462c.21.252.406.504.546.77h.308c.14 0 .238-.028.322-.154.154-.196.266-.896.35-2.772h-3.472v.392h2.408v1.764Zm-2.408.406.896-.042a3.952 3.952 0 0 0-.196-.252l.28-.112h-.98v.406Zm1.148-1.064v-.448h-1.148v.448h1.148Zm-3.724 0h1.176v-.448h-1.176v.448Zm1.176-1.498h-1.134c-.14.14-.28.266-.434.392h1.568v-.392Zm-3.374-5.684v1.372c0 1.302-.056 2.954-.308 4.564.868-.476 1.54-1.036 2.002-1.596h-1.148v-1.96h.28l-.238-.826c.588-.098 1.386-.224 2.24-.392a15.106 15.106 0 0 0-1.96-.406l.238-.728c.84.098 1.792.266 2.38.462l-.238.602.532-.098.014.826c-.896.21-1.82.42-2.59.56h7.266c-.658-.196-1.568-.378-2.408-.49l.238-.714.294.014-.322-.658c.504-.084 1.246-.336 1.806-.532h-8.078Zm7.896-1.722h-7.896v.658h7.896v-.658Zm-.042 5.39v-.616h-1.19v.616h1.19Zm-2.45 0v-.616H32.49v.616h1.162Zm-2.422 0v-.616h-1.134v.616h1.134Zm.112 1.092h6.678s0 .35-.014.518c-.112 2.604-.252 3.598-.56 3.976-.224.294-.504.392-.812.434-.294.056-.77.056-1.26.042a2.693 2.693 0 0 0-.098-.532l-.602.252a3.58 3.58 0 0 0-.154-.336c-2.156.154-4.382.294-5.992.392l-.098-1.078c.868-.028 1.974-.084 3.192-.14v-.448h-2.366v-1.176a12.67 12.67 0 0 1-.56.364c-.182-.252-.518-.56-.798-.77-.224 1.274-.546 2.492-1.078 3.486-.308-.252-1.022-.658-1.442-.812 1.162-2.156 1.26-5.334 1.26-7.56v-4.144h11.13v2.772h-.966l.364.644c-.686.266-1.624.448-2.282.56.854.098 1.778.28 2.324.448l-.266.728h.532v1.96H31.65c-.098.14-.196.28-.308.42Zm19.222 2.996h3.304v1.582H45.16v-1.582h3.738v-2.8h-2.702v-1.554h2.702v-2.296h-1.54c-.21.728-.49 1.4-.784 1.932a14.722 14.722 0 0 0-1.484-.756c.14-.252.28-.518.42-.812l-.798.364c-.084-.42-.294-1.036-.532-1.61v9.562h-1.666v-10.01c-.084 1.176-.308 2.716-.63 3.71l-1.232-.448c.336-.924.588-2.492.686-3.64l1.176.168v-2.856h1.666v2.646l.812-.336c.28.546.574 1.218.77 1.764.35-1.022.602-2.226.742-3.416l1.624.224c-.098.658-.21 1.316-.35 1.946h1.12v-2.744h1.666v2.744h2.856v1.568h-2.856v2.296h2.562v1.554h-2.562v2.8Z" fill="#fff"/><path d="M15.5 412.35a4.5 4.5 0 0 1 4.5-4.5h44.5v33H20a4.5 4.5 0 0 1-4.5-4.5v-24Z" stroke="#231815"/><path d="M64.5 407.85H260a4.5 4.5 0 0 1 4.5 4.5v24a4.5 4.5 0 0 1-4.5 4.5H64.5v-33Z" fill="#fff"/><g clip-path="url(#clip11_94_6220)"><path d="M78.636 417.35h.49c.019.005.039.012.057.013.204.017.405.051.603.104a3.552 3.552 0 0 1 1.634.934c.31.307.553.66.735 1.055a3.67 3.67 0 0 1 .33 1.552c.002.587 0 1.172 0 1.759v.099h.099c.175 0 .349-.003.524 0 .288.004.525.166.61.426.03.089.041.188.041.283.003 2.357.001 4.713.001 7.069v.07a.637.637 0 0 1-.436.604c-.024.008-.046.021-.068.032h-8.75l-.085-.036a.632.632 0 0 1-.362-.336.732.732 0 0 1-.059-.316v-7.139a.638.638 0 0 1 .657-.657c.179-.002.357 0 .535 0 .025 0 .05-.003.083-.004v-1.973a3.57 3.57 0 0 1 .932-2.351 3.577 3.577 0 0 1 2.207-1.154c.075-.01.148-.022.222-.034Zm2.574 5.512.002-.063c0-.607.002-1.213 0-1.82 0-.119-.007-.24-.025-.358a2.271 2.271 0 0 0-.767-1.412 2.255 2.255 0 0 0-1.95-.545c-.68.118-1.203.484-1.572 1.066a2.122 2.122 0 0 0-.347 1.13c-.007.644 0 1.289 0 1.933 0 .023.004.045.007.069h4.654-.002Zm-2.964 4.945c0 .128-.004.257 0 .384a.631.631 0 0 0 .864.571.638.638 0 0 0 .403-.591c0-.248.003-.495-.001-.743 0-.072.02-.122.075-.173.328-.309.428-.685.295-1.114a1.034 1.034 0 0 0-.976-.728 1.058 1.058 0 0 0-.722 1.86.154.154 0 0 1 .062.134c-.004.133 0 .267 0 .401v-.001Z" fill="#231815"/></g><g clip-path="url(#clip12_94_6220)"><path d="M98.396 417.35h.49c.02.005.04.012.058.013.204.017.404.051.603.104a3.547 3.547 0 0 1 1.633.934c.31.307.553.66.735 1.055.228.493.33 1.011.331 1.552.002.587 0 1.172 0 1.759v.099h.098c.175 0 .349-.003.525 0 .288.004.525.166.609.426.03.089.042.188.042.283.002 2.357.001 4.713.001 7.069v.07a.638.638 0 0 1-.437.604c-.024.008-.045.021-.068.032h-8.75l-.085-.036a.632.632 0 0 1-.362-.336.73.73 0 0 1-.059-.316v-7.139a.638.638 0 0 1 .658-.657c.178-.002.356 0 .534 0 .026 0 .051-.003.083-.004v-1.973a3.57 3.57 0 0 1 .932-2.351 3.577 3.577 0 0 1 2.207-1.154c.075-.01.149-.022.222-.034Zm2.574 5.512c0-.028.003-.046.003-.063v-1.82c0-.119-.007-.24-.026-.358a2.272 2.272 0 0 0-.767-1.412 2.255 2.255 0 0 0-1.95-.545c-.68.118-1.202.484-1.572 1.066a2.122 2.122 0 0 0-.347 1.13c-.006.644 0 1.289 0 1.933 0 .023.004.045.007.069h4.655-.003Zm-2.963 4.945c0 .128-.004.257 0 .384a.631.631 0 0 0 .863.571.638.638 0 0 0 .403-.591c0-.248.003-.495 0-.743 0-.072.02-.122.074-.173.328-.309.429-.685.296-1.114a1.034 1.034 0 0 0-.976-.728 1.058 1.058 0 0 0-.722 1.86.154.154 0 0 1 .062.134c-.004.133 0 .267 0 .401v-.001Z" fill="#231815"/></g><g clip-path="url(#clip13_94_6220)"><path d="M118.157 417.35h.49c.019.005.039.012.058.013.203.017.404.051.602.104a3.556 3.556 0 0 1 1.634.934c.309.307.553.66.735 1.055.228.493.329 1.011.331 1.552v1.858h.097c.176 0 .35-.003.525 0 .288.004.525.166.61.426a.928.928 0 0 1 .041.283c.003 2.357.001 4.713.001 7.069v.07a.637.637 0 0 1-.436.604c-.024.008-.046.021-.068.032h-8.75c-.028-.012-.057-.025-.086-.036a.631.631 0 0 1-.361-.336.729.729 0 0 1-.059-.316v-7.139a.639.639 0 0 1 .657-.657c.179-.002.357 0 .535 0 .025 0 .051-.003.083-.004v-1.973a3.572 3.572 0 0 1 .932-2.351 3.579 3.579 0 0 1 2.207-1.154c.075-.01.148-.022.222-.034Zm2.574 5.512.002-.063c0-.607.002-1.213 0-1.82 0-.119-.006-.24-.025-.358a2.272 2.272 0 0 0-.767-1.412 2.256 2.256 0 0 0-1.95-.545c-.68.118-1.203.484-1.572 1.066a2.116 2.116 0 0 0-.347 1.13c-.007.644 0 1.289 0 1.933 0 .023.004.045.007.069h4.654-.002Zm-2.964 4.945c0 .128-.004.257 0 .384a.632.632 0 0 0 .864.571.64.64 0 0 0 .403-.591c0-.248.003-.495-.001-.743 0-.072.02-.122.075-.173.328-.309.428-.685.296-1.114a1.035 1.035 0 0 0-.977-.728 1.053 1.053 0 0 0-1.013.667c-.168.416-.053.891.292 1.193a.152.152 0 0 1 .061.134c-.004.133 0 .267 0 .401v-.001Z" fill="#231815"/></g><path d="M64.5 407.85H260a4.5 4.5 0 0 1 4.5 4.5v24a4.5 4.5 0 0 1-4.5 4.5H64.5v-33Z" stroke="#231815"/><path d="M15.5 456.35a4.5 4.5 0 0 1 4.5-4.5h44.5v33H20a4.5 4.5 0 0 1-4.5-4.5v-24Z" fill="#00698A"/><path d="m30.138 467.442.21 1.526c-.49.14-.994.28-1.498.406v3.346c0 .812-.154 1.204-.63 1.47-.462.252-1.134.294-2.114.294a7.24 7.24 0 0 0-.476-1.512c.546.014 1.12.014 1.302.014.21 0 .266-.07.266-.28v-2.884l-1.358.336-.434-1.582c.518-.098 1.12-.238 1.792-.406v-2.478h-1.61v-1.54h1.61v-2.66h1.652v2.66h1.372v1.54H28.85v2.072l1.288-.322Zm5.852.756h-3.402a8.001 8.001 0 0 0 1.652 2.478 7.802 7.802 0 0 0 1.75-2.478Zm1.05-1.568 1.064.448c-.532 1.946-1.428 3.472-2.604 4.648.91.644 1.988 1.106 3.234 1.414-.35.336-.826 1.008-1.064 1.442-1.358-.406-2.52-.98-3.486-1.764-1.092.756-2.324 1.316-3.682 1.722-.182-.448-.588-1.148-.896-1.512 1.232-.294 2.366-.742 3.346-1.372-.826-.938-1.484-2.044-1.988-3.332l.42-.126h-.728V466.7h2.758v-1.68h-3.01v-1.54h3.01v-2.002h1.652v2.002h3.136v1.54h-3.136v1.68h1.68l.294-.07Zm15.274 1.036h-2.128c-1.68 0-2.128-.616-2.128-2.17v-3.976h1.652v1.652h3.444v1.428H49.71v.924c0 .518.084.714.532.714h2.044c.392 0 .98-.042 1.288-.112.028.434.098 1.036.154 1.414-.294.098-.882.126-1.414.126Zm-9.044 1.498v.504c0 .532-.028 1.162-.098 1.792.63-.28 1.456-.7 2.296-1.148v-.462l-.672.658c-.35-.364-.994-.91-1.526-1.344Zm2.198-1.26H43.27v.994l.7-.602c.476.336 1.078.826 1.498 1.19v-1.582Zm1.568-1.4v6.524c0 .686-.126 1.036-.588 1.26-.448.21-1.078.238-1.932.238-.07-.392-.294-.938-.504-1.302.504.028 1.05.028 1.218.028.182 0 .238-.056.238-.238v-1.428c-.7.504-1.4.98-2.03 1.386l-.35-.98c-.154.952-.462 1.904-.994 2.632-.238-.322-.868-.924-1.162-1.12.742-1.092.798-2.632.798-3.85v-3.15h5.306Zm-2.128-3.486 1.344-.49c.588 1.008 1.33 2.38 1.666 3.22l-1.456.588c-.084-.252-.21-.546-.35-.882-3.542.35-4.116.434-4.522.602a17.634 17.634 0 0 0-.518-1.498c.252-.056.49-.252.77-.56.28-.308 1.134-1.386 1.652-2.492l1.68.476c-.476.812-1.106 1.624-1.722 2.324l2.044-.154c-.21-.406-.406-.798-.588-1.134Zm5.446 9.996h1.596c.476 0 .574-.238.644-1.526.336.252 1.008.504 1.442.602-.168 1.834-.602 2.38-1.932 2.38h-1.988c-1.652 0-2.058-.49-2.058-2.016v-4.396h1.652v1.4h3.542v1.47H49.71v1.526c0 .49.098.56.644.56Z" fill="#fff"/><path d="M15.5 456.35a4.5 4.5 0 0 1 4.5-4.5h44.5v33H20a4.5 4.5 0 0 1-4.5-4.5v-24Z" stroke="#231815"/><path d="M64.5 451.85H260a4.5 4.5 0 0 1 4.5 4.5v24a4.5 4.5 0 0 1-4.5 4.5H64.5v-33Z" fill="#fff"/><g clip-path="url(#clip14_94_6220)"><path d="M78.636 461.35h.49c.019.005.039.012.057.013.204.017.405.051.603.104a3.552 3.552 0 0 1 1.634.934c.31.307.553.66.735 1.055a3.67 3.67 0 0 1 .33 1.552c.002.587 0 1.172 0 1.759v.099h.099c.175 0 .349-.003.524 0 .288.004.525.166.61.426.03.089.041.188.041.283.003 2.357.001 4.713.001 7.069v.07a.637.637 0 0 1-.436.604c-.024.008-.046.021-.068.032h-8.75l-.085-.036a.632.632 0 0 1-.362-.336.732.732 0 0 1-.059-.316v-7.139a.638.638 0 0 1 .657-.657c.179-.002.357 0 .535 0 .025 0 .05-.003.083-.004v-1.973a3.57 3.57 0 0 1 .932-2.351 3.577 3.577 0 0 1 2.207-1.154c.075-.01.148-.022.222-.034Zm2.574 5.512.002-.063c0-.607.002-1.213 0-1.82 0-.119-.007-.24-.025-.358a2.271 2.271 0 0 0-.767-1.412 2.255 2.255 0 0 0-1.95-.545c-.68.118-1.203.484-1.572 1.066a2.122 2.122 0 0 0-.347 1.13c-.007.644 0 1.289 0 1.933 0 .023.004.045.007.069h4.654-.002Zm-2.964 4.945c0 .128-.004.257 0 .384a.631.631 0 0 0 .864.571.638.638 0 0 0 .403-.591c0-.248.003-.495-.001-.743 0-.072.02-.122.075-.173.328-.309.428-.685.295-1.114a1.034 1.034 0 0 0-.976-.728 1.058 1.058 0 0 0-.722 1.86.154.154 0 0 1 .062.134c-.004.133 0 .267 0 .401v-.001Z" fill="#231815"/></g><g clip-path="url(#clip15_94_6220)"><path d="M98.396 461.35h.49c.02.005.04.012.058.013.204.017.404.051.603.104a3.547 3.547 0 0 1 1.633.934c.31.307.553.66.735 1.055.228.493.33 1.011.331 1.552.002.587 0 1.172 0 1.759v.099h.098c.175 0 .349-.003.525 0 .288.004.525.166.609.426.03.089.042.188.042.283.002 2.357.001 4.713.001 7.069v.07a.638.638 0 0 1-.437.604c-.024.008-.045.021-.068.032h-8.75l-.085-.036a.632.632 0 0 1-.362-.336.73.73 0 0 1-.059-.316v-7.139a.638.638 0 0 1 .658-.657c.178-.002.356 0 .534 0 .026 0 .051-.003.083-.004v-1.973a3.57 3.57 0 0 1 .932-2.351 3.577 3.577 0 0 1 2.207-1.154c.075-.01.149-.022.222-.034Zm2.574 5.512c0-.028.003-.046.003-.063v-1.82c0-.119-.007-.24-.026-.358a2.272 2.272 0 0 0-.767-1.412 2.255 2.255 0 0 0-1.95-.545c-.68.118-1.202.484-1.572 1.066a2.122 2.122 0 0 0-.347 1.13c-.006.644 0 1.289 0 1.933 0 .023.004.045.007.069h4.655-.003Zm-2.963 4.945c0 .128-.004.257 0 .384a.631.631 0 0 0 .863.571.638.638 0 0 0 .403-.591c0-.248.003-.495 0-.743 0-.072.02-.122.074-.173.328-.309.429-.685.296-1.114a1.034 1.034 0 0 0-.976-.728 1.058 1.058 0 0 0-.722 1.86.154.154 0 0 1 .062.134c-.004.133 0 .267 0 .401v-.001Z" fill="#231815"/></g><g clip-path="url(#clip16_94_6220)"><path d="M118.157 461.35h.49c.019.005.039.012.058.013.203.017.404.051.602.104a3.556 3.556 0 0 1 1.634.934c.309.307.553.66.735 1.055.228.493.329 1.011.331 1.552v1.858h.097c.176 0 .35-.003.525 0 .288.004.525.166.61.426a.928.928 0 0 1 .041.283c.003 2.357.001 4.713.001 7.069v.07a.637.637 0 0 1-.436.604c-.024.008-.046.021-.068.032h-8.75c-.028-.012-.057-.025-.086-.036a.631.631 0 0 1-.361-.336.729.729 0 0 1-.059-.316v-7.139a.639.639 0 0 1 .657-.657c.179-.002.357 0 .535 0 .025 0 .051-.003.083-.004v-1.973a3.572 3.572 0 0 1 .932-2.351 3.579 3.579 0 0 1 2.207-1.154c.075-.01.148-.022.222-.034Zm2.574 5.512.002-.063c0-.607.002-1.213 0-1.82 0-.119-.006-.24-.025-.358a2.272 2.272 0 0 0-.767-1.412 2.256 2.256 0 0 0-1.95-.545c-.68.118-1.203.484-1.572 1.066a2.116 2.116 0 0 0-.347 1.13c-.007.644 0 1.289 0 1.933 0 .023.004.045.007.069h4.654-.002Zm-2.964 4.945c0 .128-.004.257 0 .384a.632.632 0 0 0 .864.571.64.64 0 0 0 .403-.591c0-.248.003-.495-.001-.743 0-.072.02-.122.075-.173.328-.309.428-.685.296-1.114a1.035 1.035 0 0 0-.977-.728 1.053 1.053 0 0 0-1.013.667c-.168.416-.053.891.292 1.193a.152.152 0 0 1 .061.134c-.004.133 0 .267 0 .401v-.001Z" fill="#231815"/></g><path d="M64.5 451.85H260a4.5 4.5 0 0 1 4.5 4.5v24a4.5 4.5 0 0 1-4.5 4.5H64.5v-33Z" stroke="#231815"/><rect x=".5" y=".5" width="279" height="504.35" rx="4.5" stroke="#231815"/><defs><clipPath id="clip0_94_6220"><path fill="#fff" transform="translate(79.27)" d="M0 0h121.46v30.99H0z"/></clipPath><clipPath id="clip1_94_6220"><path fill="#fff" transform="translate(49 114.99)" d="M0 0h181.445v180H0z"/></clipPath><clipPath id="clip2_94_6220"><path fill="#fff" transform="translate(63.635 334.99)" d="M0 0h18.56v18.36H0z"/></clipPath><clipPath id="clip3_94_6220"><path fill="#fff" transform="translate(84.195 334.99)" d="M0 0h18.56v18.36H0z"/></clipPath><clipPath id="clip4_94_6220"><path fill="#fff" transform="translate(104.755 334.99)" d="M0 0h18.56v18.36H0z"/></clipPath><clipPath id="clip5_94_6220"><path fill="#fff" transform="translate(207.315 334.99)" d="M0 0h17.35v16.5H0z"/></clipPath><clipPath id="clip6_94_6220"><path fill="#fff" transform="translate(226.665 334.99)" d="M0 0h17.35v16.5H0z"/></clipPath><clipPath id="clip7_94_6220"><path fill="#fff" transform="translate(246.015 334.99)" d="M0 0h17.35v16.5H0z"/></clipPath><clipPath id="clip8_94_6220"><path fill="#fff" transform="translate(74 373.35)" d="M0 0h9.761v14H0z"/></clipPath><clipPath id="clip9_94_6220"><path fill="#fff" transform="translate(93.76 373.35)" d="M0 0h9.761v14H0z"/></clipPath><clipPath id="clip10_94_6220"><path fill="#fff" transform="translate(113.521 373.35)" d="M0 0h9.761v14H0z"/></clipPath><clipPath id="clip11_94_6220"><path fill="#fff" transform="translate(74 417.35)" d="M0 0h9.761v14H0z"/></clipPath><clipPath id="clip12_94_6220"><path fill="#fff" transform="translate(93.76 417.35)" d="M0 0h9.761v14H0z"/></clipPath><clipPath id="clip13_94_6220"><path fill="#fff" transform="translate(113.521 417.35)" d="M0 0h9.761v14H0z"/></clipPath><clipPath id="clip14_94_6220"><path fill="#fff" transform="translate(74 461.35)" d="M0 0h9.761v14H0z"/></clipPath><clipPath id="clip15_94_6220"><path fill="#fff" transform="translate(93.76 461.35)" d="M0 0h9.761v14H0z"/></clipPath><clipPath id="clip16_94_6220"><path fill="#fff" transform="translate(113.521 461.35)" d="M0 0h9.761v14H0z"/></clipPath></defs></svg>