<svg fill="none" xmlns="http://www.w3.org/2000/svg" viewBox="0 0 333 601"><rect x=".594" y=".594" width="331.256" height="599.451" rx="5.343" fill="#00698A"/><g clip-path="url(#clip0_220_19927)" stroke="#231815" stroke-width="1.187" stroke-miterlimit="10"><path d="M100.113 32.306c.403 1.948 2.315 3.36 4.547 3.372l123.099.523c2.232 0 4.155-1.39 4.571-3.337l5.236-24.315c.796-3.693-1.27-7.373-4.132-7.385L98.617.594c-2.802-.012-4.476 2.932-3.728 6.53l5.224 25.17v.013Z" fill="#E86546"/><path d="M138.296 20.659c.166 1.223.974 2.113 1.912 2.125l51.968.273c.938 0 1.757-.878 1.935-2.101l2.22-15.328c.333-2.327-.534-4.643-1.745-4.654L137.667.677c-1.175 0-1.888 1.852-1.579 4.12l2.196 15.862h.012Z" fill="#00698A"/><path d="M220.445 12.122a3.033 3.033 0 0 1 3.063-3.027 3.033 3.033 0 0 1 3.028 3.063 3.03 3.03 0 0 1-3.051 3.028 3.033 3.033 0 0 1-3.028-3.064h-.012Zm-12.751-.023a3.033 3.033 0 0 1 3.063-3.028 3.032 3.032 0 0 1 3.027 3.064 3.033 3.033 0 0 1-3.063 3.027 3.032 3.032 0 0 1-3.027-3.063Zm-95.685-.333a3.047 3.047 0 0 0-3.039-3.052 3.048 3.048 0 0 0-3.051 3.04 3.048 3.048 0 0 0 3.039 3.051 3.048 3.048 0 0 0 3.051-3.04Zm12.74.024a3.048 3.048 0 0 0-3.039-3.052 3.048 3.048 0 0 0-3.052 3.04 3.048 3.048 0 0 0 3.04 3.051 3.048 3.048 0 0 0 3.051-3.04Z" fill="#E2CCAF"/></g><path d="M142.428 62.64v.883l1.168-.028a9.924 9.924 0 0 0-.427-.57l.655-.285h-1.396Zm-5.186-2.137h1.681v-.77h-1.681v.77Zm0-3.534v.741h1.681v-.74h-1.681Zm6.867 0h-1.681v.741h1.681v-.74Zm0 3.534v-.77h-1.681v.77h1.681Zm-10.486 6.04-.228-2.877c1.539 0 3.448-.029 5.528-.086v-.94h-4.873v-7.808h4.873v-.74h-5.243v-2.993h5.243v-1.795h3.505V51.1h5.5v2.992h-5.5v.741h5.044v7.808h-.827c.77 1.054 1.482 2.251 1.881 3.134l-2.878 1.397a13.173 13.173 0 0 0-.427-.97c-4.189.172-8.464.257-11.598.343Zm7.836 6.27V70.39h-3.191c.655.769 1.225 1.624 1.538 2.308l-.826.513c.826.028 1.681.028 1.938.028.399-.028.541-.114.541-.427Zm-16.413-9.632v1.169h1.083v-1.17h-1.083Zm0-3.79v1.14h1.083v-1.14h-1.083Zm4.873 1.14v-1.14h-1.169v1.14h1.169Zm0 3.819v-1.17h-1.169v1.169h1.169Zm15.33 2.137v.912h3.106v2.992h-3.106v2.536c0 1.68-.313 2.536-1.51 3.049-1.197.484-2.707.513-4.702.513-.114-.855-.484-1.91-.826-2.793l-1.34.826c-.398-.997-1.339-2.479-2.308-3.505l1.083-.626h-2.194v1.71h-4.189v4.245h-3.647V72.1h-4.36v-3.59h4.36v-1.34h-3.42v-10.6h3.42v-1.196h-3.932V51.84h3.932v-2.507h3.647v2.507h3.847v3.534h-3.847v1.196h3.619v10.6h-3.619v1.34h4.189v-1.111h8.007v-.912h3.79Zm28.524-3.847v.883l1.168-.028c-.143-.2-.285-.4-.428-.57l.656-.285h-1.396Zm-5.186-2.137h1.681v-.77h-1.681v.77Zm0-3.534v.741h1.681v-.74h-1.681Zm6.867 0h-1.681v.741h1.681v-.74Zm0 3.534v-.77h-1.681v.77h1.681Zm-10.486 6.04-.228-2.877c1.538 0 3.448-.029 5.528-.086v-.94h-4.873v-7.808h4.873v-.74h-5.243v-2.993h5.243v-1.795h3.505V51.1h5.499v2.992h-5.499v.741h5.043v7.808h-.826c.769 1.054 1.482 2.251 1.881 3.134l-2.878 1.397a12.799 12.799 0 0 0-.428-.97c-4.189.172-8.463.257-11.597.343Zm7.836 6.27V70.39h-3.192c.656.769 1.226 1.624 1.539 2.308l-.826.513c.826.028 1.681.028 1.937.028.399-.028.542-.114.542-.427Zm-16.413-9.632v1.169h1.082v-1.17h-1.082Zm0-3.79v1.14h1.082v-1.14h-1.082Zm4.872 1.14v-1.14h-1.168v1.14h1.168Zm0 3.819v-1.17h-1.168v1.169h1.168Zm15.331 2.137v.912h3.106v2.992h-3.106v2.536c0 1.68-.314 2.536-1.511 3.049-1.196.484-2.707.513-4.701.513-.114-.855-.485-1.91-.827-2.793l-1.339.826c-.399-.997-1.339-2.479-2.308-3.505l1.083-.626h-2.194v1.71h-4.189v4.245h-3.647V72.1h-4.36v-3.59h4.36v-1.34h-3.42v-10.6h3.42v-1.196h-3.933V51.84h3.933v-2.507h3.647v2.507h3.847v3.534h-3.847v1.196h3.619v10.6h-3.619v1.34h4.189v-1.111h8.007v-.912h3.79Zm19.433-13.193v-1.311h-.969v1.31h.969Zm2.992-3.562v5.784h-6.782v-5.784h6.782ZM188.79 61.757v.854h1.396v-.854h-1.396Zm0-3.078v.855h1.396v-.855h-1.396Zm6.183.855v-.855h-1.482v.855h1.482Zm0 3.077v-.854h-1.482v.854h1.482Zm-9.802 2.366v-8.663h13.592v8.663h-13.592Zm3.391-11.684v-1.31h-.884v1.31h.884Zm2.906-3.561v5.784h-6.554v-5.784h6.554Zm8.492 15.843v2.85h-15.929v-2.85h15.929Zm-10.544 7.152h5.101v-.94h-5.101v.94Zm21.571-12.11h-4.274c.712 5.072 2.109 9.802 4.816 12.395-.912.741-2.251 2.308-2.878 3.42-1.767-1.91-2.964-4.531-3.819-7.637-.94 2.764-2.365 5.385-4.53 7.58-.399-.513-1.14-1.254-1.853-1.881v1.596h-3.932v-.57h-5.101v.855h-3.761V69.05h12.794v3.192c2.935-3.391 3.705-7.836 3.933-11.626h-3.22v-3.79h3.277v-7.551h4.017v1.937l2.992-1.083c.827 1.568 1.653 3.62 1.91 4.987L207.91 56.4c-.143-1.197-.77-3.05-1.454-4.617v5.044h4.531v3.79Z" fill="#fff"/><path d="M18.403 236.952c0-81.638 66.18-147.818 147.818-147.818s147.819 66.18 147.819 147.818v142.475a5.343 5.343 0 0 1-5.343 5.343H23.746a5.343 5.343 0 0 1-5.343-5.343V236.952Z" fill="#fff" stroke="#231815" stroke-width="1.187"/><path d="m177.398 203.042 10.405-6.791c.151-.099.073-.33-.105-.323l-6.096.237 12.777-12.326c.144-.138-.013-.37-.191-.284l-16.947 7.762 2.502-5.47c.073-.158-.111-.317-.256-.218l-12.1 8.198 5.538-.132-.565 3.851 6.181-.535-1.149 6.038.006-.007Z" fill="url(#paint0_linear_220_19927)"/><path d="m230.895 271.258 8.415-5.806c.19-.132.092-.429-.138-.416l-4.914.244 9.065-8.138c.184-.165.007-.476-.23-.39l-11.41 4.069 2.575-3.95a.23.23 0 0 0-.249-.35l-8.08 2.398 3.718 1.77-2.568 4.558 4.618 1.097-.789 4.914h-.013Z" fill="url(#paint1_linear_220_19927)"/><path d="m225.285 224.556 9.065-8.032c.184-.165.04-.476-.203-.436l-5.4.885 11.41-10.153c.21-.185 0-.522-.256-.423l-15.437 5.932 3.771-5.747c.131-.205-.073-.462-.302-.37l-12.843 5.291 7.187 1.962-2.496 5.311h6.214l-.71 5.774v.006Z" fill="url(#paint2_linear_220_19927)"/><path d="m144.226 214.39 25.217-9.076a3.156 3.156 0 0 1 3.876 1.519c1.005 1.949 2.542 4.479 4.132 5.47 2.733 1.691 17.808-5.998 21.244-3.389 3.435 2.609-.697 7.266 1.051 9.453 1.753 2.18 15.147-1.837 18.373 2.18 3.225 4.023-2.523 12.062-1.334 14.737 1.196 2.682 11.712 3.177 12.415 6.909.697 3.739-.84 6.699-11.64 21.72-3.297 4.934 5.4 4.234 5.538 7.9.138 3.666-27.221 35.836-63.416 41.9-36.194 6.064-57.096-10.397-66.575-29.032-9.48-18.628-1.689-44.027 32.588-63.883 4.986-11.25 10.096-22.076 12.257-26.615.355-.746 1.439-.621 1.623.185l4.651 20.022Z" fill="#FFE600"/><path d="M121.78 229.801a583.911 583.911 0 0 1 3.915-9.003c4.986-11.25 10.096-22.076 12.257-26.615.355-.746 1.439-.621 1.623.185l4.651 20.022 3.172 13.661" stroke="#231815" stroke-width="1.187" stroke-miterlimit="10"/><path d="M125.695 220.798c-34.276 19.856-42.067 45.255-32.588 63.883 9.479 18.635 30.381 35.096 66.575 29.032 36.195-6.064 63.554-38.233 63.416-41.9-.138-3.666-8.835-2.965-5.538-7.9 10.8-15.021 12.337-17.981 11.64-21.719-.703-3.733-11.219-4.228-12.415-6.91-1.189-2.675 4.559-10.714 1.334-14.737-3.226-4.016-16.62 0-18.373-2.18-1.748-2.187 2.384-6.844-1.051-9.453-3.436-2.609-18.511 5.08-21.244 3.389-1.59-.991-3.127-3.521-4.132-5.47a3.156 3.156 0 0 0-3.876-1.519l-25.217 9.076" stroke="#231815" stroke-width="1.187" stroke-miterlimit="10"/><path d="M148.265 262.929c-3.034 0-5.504-2.484-5.504-5.536 0-3.052 2.47-5.536 5.504-5.536 3.035 0 5.499 2.484 5.499 5.536 0 3.052-2.47 5.536-5.499 5.536Z" fill="#333434"/><path d="M148.265 252.195c2.858 0 5.17 2.332 5.17 5.198 0 2.867-2.319 5.199-5.17 5.199-2.85 0-5.169-2.332-5.169-5.199 0-2.866 2.319-5.198 5.169-5.198Zm0-.661c-3.212 0-5.826 2.629-5.826 5.859 0 3.231 2.614 5.86 5.826 5.86 3.213 0 5.827-2.629 5.827-5.86 0-3.23-2.614-5.859-5.827-5.859Z" fill="#231815"/><path d="M113.516 262.929c-3.035 0-5.498-2.484-5.498-5.536 0-3.052 2.47-5.536 5.498-5.536s5.505 2.484 5.505 5.536c0 3.052-2.47 5.536-5.505 5.536Z" fill="#333434"/><path d="M113.516 252.195c2.858 0 5.17 2.332 5.17 5.198 0 2.867-2.319 5.199-5.17 5.199s-5.17-2.332-5.17-5.199c0-2.866 2.319-5.198 5.17-5.198Zm0-.661c-3.212 0-5.826 2.629-5.826 5.859 0 3.231 2.614 5.86 5.826 5.86 3.212 0 5.827-2.629 5.827-5.86 0-3.23-2.615-5.859-5.827-5.859ZM30.947 409.118h-6.914v.765h6.914v-.765Zm-6.914 2.826h6.914v-.765h-6.914v.765Zm0 2.111h6.914v-.798h-6.914v.798Zm-1.912 1.995v-8.328h10.805v8.244h-1.979v-.482h-6.914v.566H22.12Zm9.109-12.567v1.297h-7.497v-1.297h7.497Zm-.017 3.375H23.75v-1.314h7.463v1.314Zm-10.206-5.536H33.94v5.951h-1.994v-4.554H22.92v4.571h-1.912v-5.968Zm25.266 2.959h3.557a16.859 16.859 0 0 1-1.961-1.496 16.93 16.93 0 0 1-1.596 1.496Zm-.698 1.479v-.964c-.515.366-1.08.715-1.646 1.014-.249-.349-.814-.947-1.213-1.296-.183.615-.333 1.213-.499 1.729.848 1.279 1.014 2.476 1.014 3.424 0 1.097-.183 1.812-.665 2.194-.232.199-.532.316-.88.366-.267.049-.632.049-.965.049-.016-.482-.15-1.213-.399-1.712.25.034.432.034.615.017.133 0 .283-.033.383-.133.182-.15.249-.515.249-1.014a5.12 5.12 0 0 0-.93-3.009c.265-.997.564-2.36.797-3.457h-1.213v13.065h-1.646v-14.827h3.374l.266-.066 1.23.714c-.216.782-.465 1.663-.698 2.527 1.895-.981 3.64-2.527 4.571-4.039l1.895.665c-.1.166-.2.349-.316.515 1.23.997 3.042 1.978 4.671 2.51a9.015 9.015 0 0 0-.748 1.878c-.781-.332-1.579-.765-2.36-1.23v1.08h-4.887Zm4.239 2.161v1.53h1.163v-1.53h-1.163Zm-1.43 2.843v-4.172h4.122v4.172h-4.122Zm-3.341-2.843v1.53h1.114v-1.53h-1.114Zm-1.413 2.843v-4.172h4.006v4.172H43.63Zm1.297.183 1.728.365a9.87 9.87 0 0 1-.365.981c.581.382 1.23.848 1.579 1.197l-.998 1.313c-.282-.333-.797-.765-1.313-1.147a8.473 8.473 0 0 1-2.377 2.477c-.266-.333-.897-.981-1.28-1.247 1.463-.864 2.527-2.261 3.026-3.939Zm4.587-.017 1.779.249c-.1.466-.216.915-.382 1.347.93.648 2.01 1.429 2.576 1.994l-1.163 1.33c-.466-.499-1.28-1.18-2.111-1.795-.5.831-1.114 1.529-1.846 2.061-.249-.332-.88-.997-1.263-1.247 1.297-.847 2.095-2.244 2.41-3.939Zm14.711-6.915h6.732s-.017.682-.05.948c-.332 6.615-.665 9.109-1.396 9.973-.499.648-.98.831-1.696.931-.615.083-1.645.083-2.66.033-.032-.598-.298-1.479-.68-2.045a30.94 30.94 0 0 0 2.46.084c.348 0 .548-.05.78-.266.5-.516.832-2.693 1.098-7.63h-4.654c-.267 3.441-1.43 7.48-6.1 10.123-.317-.499-1.065-1.247-1.547-1.612 4.123-2.244 5.236-5.602 5.519-8.511h-5.003v-2.028h5.086v-3.424h2.111v3.424Z" fill="#231815"/><g clip-path="url(#clip1_220_19927)"><path d="M86.417 397.831c1.01 0 2.612 3.313 3.455 3.74.582.297 2.838-.641 3.301-.19.463.451-.202 3.004.095 3.621.416.831 3.728 2.137 3.728 3.135 0 1.033-3.395 2.529-3.835 3.384-.308.593.499 2.968.024 3.431-.475.463-2.992-.309-3.621-.012-.808.38-2.102 3.491-3.052 3.491-.95 0-2.422-3.123-3.241-3.515-.617-.297-3.004.546-3.479.083-.475-.463.368-2.837.06-3.443-.428-.843-3.693-2.315-3.693-3.324s3.146-2.351 3.538-3.158c.309-.63-.498-3.099-.012-3.586.487-.487 2.802.356 3.396.047.843-.427 1.989-3.692 2.998-3.692l.338-.012Z" fill="#FFE600" stroke="#231815" stroke-width="1.187" stroke-miterlimit="10"/><path d="M89.872 401.571c-.843-.427-2.445-3.74-3.455-3.74v20.6h.095c.95 0 2.244-3.111 3.052-3.491.629-.297 3.146.475 3.62.012.476-.463-.331-2.838-.023-3.431.44-.855 3.835-2.351 3.835-3.384 0-.998-3.312-2.304-3.728-3.135-.297-.617.368-3.17-.095-3.621-.463-.451-2.719.487-3.3.19Z" fill="#fff"/><path d="M86.417 397.831c1.01 0 2.612 3.313 3.455 3.74.582.297 2.838-.641 3.301-.19.463.451-.202 3.004.095 3.621.416.831 3.728 2.137 3.728 3.135 0 1.033-3.395 2.529-3.835 3.384-.308.593.499 2.968.024 3.431-.475.463-2.992-.309-3.621-.012-.808.38-2.102 3.491-3.052 3.491h-.095v-20.6Zm0 0 .012.012" stroke="#231815" stroke-width="1.187" stroke-miterlimit="10"/></g><g clip-path="url(#clip2_220_19927)"><path d="M110.828 397.831c1.009 0 2.612 3.313 3.455 3.74.582.297 2.838-.641 3.301-.19.463.451-.202 3.004.095 3.621.415.831 3.728 2.137 3.728 3.135 0 1.033-3.396 2.529-3.835 3.384-.309.593.499 2.968.024 3.431-.475.463-2.992-.309-3.622-.012-.807.38-2.101 3.491-3.051 3.491-.95 0-2.422-3.123-3.241-3.515-.618-.297-3.004.546-3.479.083-.475-.463.368-2.837.059-3.443-.427-.843-3.692-2.315-3.692-3.324s3.146-2.351 3.538-3.158c.309-.63-.499-3.099-.012-3.586.487-.487 2.802.356 3.396.047.843-.427 2.339-3.692 3.348-3.692l-.012-.012Z" fill="#FFE600" stroke="#231815" stroke-width="1.187" stroke-miterlimit="10"/><path d="M114.806 401.571c-.843-.427-2.446-3.74-3.455-3.74v20.6h.095c.949 0 2.243-3.111 3.051-3.491.629-.297 3.146.475 3.621.012.475-.463-.332-2.838-.024-3.431.44-.855 3.835-2.351 3.835-3.384 0-.998-3.312-2.304-3.728-3.135-.297-.617.368-3.17-.095-3.621-.463-.451-2.719.487-3.3.19Z" fill="#fff"/><path d="M111.351 397.831c1.009 0 2.612 3.313 3.455 3.74.581.297 2.837-.641 3.3-.19.463.451-.202 3.004.095 3.621.416.831 3.728 2.137 3.728 3.135 0 1.033-3.395 2.529-3.835 3.384-.308.593.499 2.968.024 3.431-.475.463-2.992-.309-3.621-.012-.808.38-2.102 3.491-3.051 3.491h-.095v-20.6Zm0 0 .011.012" stroke="#231815" stroke-width="1.187" stroke-miterlimit="10"/></g><g clip-path="url(#clip3_220_19927)"><path d="M135.239 397.831c1.009 0 2.612 3.313 3.455 3.74.582.297 2.838-.641 3.301-.19.463.451-.202 3.004.095 3.621.415.831 3.728 2.137 3.728 3.135 0 1.033-3.396 2.529-3.835 3.384-.309.593.498 2.968.024 3.431-.475.463-2.992-.309-3.622-.012-.807.38-2.101 3.491-3.051 3.491-.95 0-2.422-3.123-3.241-3.515-.618-.297-3.004.546-3.479.083-.475-.463.368-2.837.059-3.443-.427-.843-3.692-2.315-3.692-3.324s3.146-2.351 3.538-3.158c.309-.63-.499-3.099-.012-3.586.487-.487 2.802.356 3.396.047.843-.427 2.339-3.692 3.348-3.692l-.012-.012Z" fill="#FFE600" stroke="#231815" stroke-width="1.187" stroke-miterlimit="10"/><path d="M138.551 401.571c-.843-.427-2.445-3.74-3.455-3.74v20.6h.095c.95 0 2.244-3.111 3.052-3.491.629-.297 3.146.475 3.621.012.475-.463-.332-2.838-.024-3.431.44-.855 3.835-2.351 3.835-3.384 0-.998-3.312-2.304-3.728-3.135-.297-.617.368-3.17-.095-3.621-.463-.451-2.719.487-3.301.19Z" fill="#fff"/><path d="M135.096 397.831c1.01 0 2.612 3.313 3.455 3.74.582.297 2.838-.641 3.301-.19.463.451-.202 3.004.095 3.621.416.831 3.728 2.137 3.728 3.135 0 1.033-3.395 2.529-3.835 3.384-.308.593.499 2.968.024 3.431-.475.463-2.992-.309-3.621-.012-.808.38-2.102 3.491-3.052 3.491h-.095v-20.6Zm0 0 .012.012" stroke="#231815" stroke-width="1.187" stroke-miterlimit="10"/></g><path d="m196.774 411.255 1.762.599c-.681.931-1.662 2.094-2.443 2.776-.333-.316-1.064-.848-1.496-1.114a11.169 11.169 0 0 0 2.177-2.261Zm5.552.798 1.429-.831c.748.765 1.812 1.845 2.361 2.527l-1.53.931c-.498-.665-1.496-1.812-2.26-2.627Zm.465-3.806v-.615h-4.272v.615h4.272Zm0 1.729v-.632h-4.272v.632h4.272Zm-7.779-7.53v3.69c0 .449-.016.931-.033 1.429a9.006 9.006 0 0 0 1.429-.864 12.874 12.874 0 0 0-.98-.765l.997-.881c.316.2.698.466 1.031.715.249-.249.482-.515.681-.798h-2.543v-1.479h3.424c.133-.349.266-.698.366-1.047h-4.372Zm6.283 2.526h-1.113a11.264 11.264 0 0 1-1.081 1.496h3.208a9.13 9.13 0 0 1-1.014-1.496Zm3.657 0h-1.862c.25.333.549.649.881.948.35-.316.732-.682.981-.948Zm.083 0 1.081.798c-.349.333-.748.665-1.131.948.499.315 1.031.598 1.58.781-.399.332-.915.964-1.147 1.396a7.782 7.782 0 0 1-.898-.482v2.726h-2.909v2.128c0 .814-.149 1.213-.764 1.479-.566.249-1.314.249-2.311.249-.116-.498-.399-1.146-.615-1.579a58.59 58.59 0 0 0 1.513.017c.199 0 .266-.067.266-.233v-2.061h-2.826v-2.743a9.689 9.689 0 0 1-.998.599 4.204 4.204 0 0 0-.914-1.081c-.166 2.411-.748 5.22-2.427 7.065-.249-.366-.997-1.081-1.363-1.313 1.097-1.214 1.596-2.76 1.829-4.305-.599.365-1.18.714-1.762 1.03l-.549-1.778c.649-.266 1.546-.715 2.494-1.197.016-.432.016-.865.016-1.28v-.565l-1.462.665c-.167-.848-.566-2.278-.915-3.341l1.463-.582c.316.931.698 2.127.914 2.942v-4.471h5.519l-.333-.998 2.012-.399c.166.432.332.931.482 1.397h5.435v1.662h-6.25l1.164.149c-.1.316-.216.599-.333.898h5.27v1.479h-1.131Zm9.176 9.691-1.496-.831c.581-.598 1.13-1.563 1.429-2.377l1.48.648c-.349.848-.815 1.895-1.413 2.56Zm5.186-5.369v-3.225h1.396v3.225h-1.396Zm3.973-3.391v3.724c0 .698-.1 1.013-.582 1.23-.466.216-1.081.216-1.945.216-.067-.399-.283-.915-.482-1.28.532.016 1.047.016 1.23 0 .166-.017.216-.05.216-.2v-3.69h1.563Zm-5.635 5.469 1.246-.781c.516.432 1.247 1.097 1.596 1.529l-1.28.864c-.332-.465-1.014-1.13-1.562-1.612Zm-2.095-2.66h1.662v-.465h-1.645c0 .149 0 .316-.017.465Zm1.662-1.712h-1.645v.416h1.645V407Zm1.413-.964v3.84c0 .565-.099.781-.482.947-.332.167-.864.167-1.562.167-.033-.316-.2-.682-.333-.965.333.017.682.017.798.017.117 0 .166-.033.166-.166v-.333h-1.762c-.133.599-.382 1.147-.88 1.58-.233-.266-.848-.748-1.164-.931.715-.549.765-1.28.765-1.995v-2.161h4.454Zm-.565 7.447h1.829c.432 0 .531-.133.581-.997.316.216.948.398 1.363.482-.166 1.412-.581 1.778-1.778 1.778h-2.211c-1.679 0-2.078-.382-2.078-1.662v-1.579h1.613v1.562c0 .383.099.416.681.416Zm3.175-1.496 1.413-.632c.615.781 1.346 1.845 1.679 2.56l-1.496.698c-.283-.681-.981-1.812-1.596-2.626Zm-3.59-7.447h2.543a21.193 21.193 0 0 1-1.363-.698c-.383.249-.765.482-1.18.698Zm-4.322-2.028v2.012c1.745-.433 3.69-1.114 4.937-2.012h-4.937Zm6.765.333-.166.166a20.586 20.586 0 0 0 4.704 1.413c-.366.332-.815.881-1.031 1.346a24.154 24.154 0 0 1-2.626-.881v.715h-4.355v-.565c-.814.332-1.662.648-2.477.881a5.8 5.8 0 0 0-.814-1.097v1.379c0 2.643-.349 6.516-2.477 8.827-.249-.366-.997-1.064-1.363-1.297 1.097-1.213 1.596-2.776 1.829-4.338-.599.365-1.181.731-1.762 1.064l-.549-1.779c.648-.283 1.546-.731 2.493-1.197.017-.449.017-.881.017-1.28v-.581l-1.463.681c-.083-.881-.465-2.277-.897-3.341l1.413-.598c.415.93.797 2.094.947 2.909v-4.422h5.735c-.1-.399-.233-.798-.349-1.13l1.994-.383c.183.466.383 1.014.532 1.513h5.037v1.662h-5.053l.681.333Zm15.209.066h6.732s-.016.682-.05.948c-.332 6.615-.664 9.109-1.396 9.973-.499.648-.981.831-1.695.931-.615.083-1.646.083-2.66.033-.033-.598-.299-1.479-.681-2.045 1.047.084 2.028.084 2.46.084.349 0 .548-.05.781-.266.499-.516.831-2.693 1.097-7.63h-4.654c-.266 3.441-1.43 7.48-6.101 10.123-.315-.499-1.063-1.247-1.545-1.612 4.122-2.244 5.236-5.602 5.518-8.511h-5.003v-2.028h5.086v-3.424h2.111v3.424Z" fill="#231815"/><g clip-path="url(#clip4_220_19927)" stroke="#231815" stroke-width="1.187" stroke-miterlimit="10"><path d="M261.07 397.831a5.627 5.627 0 0 0-4.048 1.71 5.63 5.63 0 0 0-4.049-1.71 5.654 5.654 0 0 0-5.663 5.663c0 5.688 9.712 12.61 9.712 12.61s9.712-6.922 9.712-12.61a5.663 5.663 0 0 0-5.664-5.663Z" fill="#FF002A"/><path d="M257.022 399.541a5.627 5.627 0 0 1 4.048-1.71 5.663 5.663 0 0 1 5.664 5.663c0 5.688-9.712 12.61-9.712 12.61v-16.563Z" fill="#fff"/></g><g clip-path="url(#clip5_220_19927)" stroke="#231815" stroke-width="1.187" stroke-miterlimit="10"><path d="M284.044 397.831c-1.59 0-3.015.653-4.048 1.71a5.63 5.63 0 0 0-4.049-1.71 5.655 5.655 0 0 0-5.663 5.663c0 5.688 9.712 12.61 9.712 12.61s9.712-6.922 9.712-12.61a5.663 5.663 0 0 0-5.664-5.663Z" fill="#FF002A"/><path d="M279.58 399.541a5.63 5.63 0 0 1 4.049-1.71 5.662 5.662 0 0 1 5.663 5.663c0 5.688-9.712 12.61-9.712 12.61v-16.563Z" fill="#fff"/></g><g clip-path="url(#clip6_220_19927)" stroke="#231815" stroke-width="1.187" stroke-miterlimit="10"><path d="M307.019 397.831a5.63 5.63 0 0 0-4.049 1.71 5.63 5.63 0 0 0-4.049-1.71 5.655 5.655 0 0 0-5.663 5.663c0 5.688 9.712 12.61 9.712 12.61s9.712-6.922 9.712-12.61a5.662 5.662 0 0 0-5.663-5.663Z" fill="#FF002A"/><path d="M303.326 399.541a5.63 5.63 0 0 1 4.049-1.71 5.662 5.662 0 0 1 5.663 5.663c0 5.688-9.712 12.61-9.712 12.61v-16.563Z" fill="#fff"/></g><path d="M18.403 436.845a5.343 5.343 0 0 1 5.343-5.343H76.58v39.559H23.746a5.343 5.343 0 0 1-5.343-5.343v-28.873Z" fill="#E86546"/><path d="M40.414 448.955v-.947h-2.277v.947h2.277Zm0 2.627v-1.031h-2.277v1.031h2.277Zm0 2.643v-1.048h-2.277v1.048h2.277Zm-4.189 2.36v-6.898a14.48 14.48 0 0 1-.848.897c-.182-.399-.731-1.379-1.063-1.811 1.33-1.197 2.526-3.092 3.191-5.037l1.795.499c-.25.714-.565 1.413-.897 2.111h2.476a15.722 15.722 0 0 0-.78-1.795l1.86-.532c.416.714.848 1.629 1.065 2.327h2.626v1.662h-3.358v.947h2.676v1.596h-2.676v1.031h2.61v1.595h-2.61v1.048h3.54v1.662h-7.695v.698h-1.912Zm-1.995-10.123-1.811.632c-.183-.748-.615-1.962-.898-2.859l1.745-.532c.316.897.732 2.011.965 2.759Zm.15 4.704.848.299c-.3 1.513-.748 3.075-1.313 4.322.266.166.581.399 1.03.665 1.13.681 2.693.781 4.638.781 1.911 0 4.887-.166 6.715-.432-.216.532-.548 1.496-.565 2.028-1.38.083-4.305.199-6.25.199-2.21 0-3.607-.182-4.804-.881-.698-.382-1.28-.93-1.629-.93-.382 0-.964 1.13-1.38 2.077l-1.313-1.878c.566-.698 1.18-1.247 1.746-1.579.365-.831.698-1.878.947-2.892h-2.094a41.76 41.76 0 0 0 1.197-3.607h-1.496v-1.762h3.89c-.35 1.163-.749 2.493-1.131 3.657h.665l.3-.067Zm18.584-7.397 1.845.615a25.664 25.664 0 0 1-1.613 3.158v11.686h-1.878v-8.959a16.76 16.76 0 0 1-1.596 1.761c-.183-.482-.731-1.562-1.047-2.061 1.696-1.462 3.341-3.823 4.289-6.2ZM58.93 457.1h2.427c.848 0 .98-.698 1.13-3.441.449.35 1.23.732 1.745.832-.216 3.208-.714 4.355-2.726 4.355H58.73c-2.044 0-2.626-.665-2.626-2.926v-11.901h1.912v4.222H63.8v1.895h-5.784v5.817c0 .981.116 1.147.914 1.147Z" fill="#fff"/><path d="M18.403 436.845a5.343 5.343 0 0 1 5.343-5.343H76.58v39.559H23.746a5.343 5.343 0 0 1-5.343-5.343v-28.873Z" stroke="#231815" stroke-width="1.187"/><path d="M76.58 431.502h232.117a5.343 5.343 0 0 1 5.343 5.343v28.873a5.343 5.343 0 0 1-5.343 5.343H76.581v-39.559Z" fill="#fff"/><path d="M91.65 447.991v2.344h3.507v-2.344H91.65Zm9.026 0h-3.458v2.344h3.458v-2.344Zm2.044 4.239h-5.519c-.116 1.33-.448 2.56-1.246 3.64 2.044.881 4.704 1.097 8.161 1.147-.399.482-.781 1.363-.914 2.061-3.607-.183-6.5-.582-8.743-1.745-1.13.798-2.693 1.463-4.854 1.945-.233-.466-.764-1.313-1.197-1.762 1.912-.349 3.292-.815 4.289-1.38a9.61 9.61 0 0 1-2.294-3.075l1.812-.648a7.958 7.958 0 0 0 2.011 2.443c.582-.798.815-1.662.898-2.626h-5.402v-6.134h5.435v-2.31h2.061v2.31h5.502v6.134Zm14.345-4.721v-1.047h-2.31v-1.745h2.31v-1.014h1.961v1.014h2.81v1.745h-2.81v1.047h-1.961Zm-7.081 0v-1.047h-2.926v-1.745h2.926v-1.014h1.945v1.014h2.26v1.745h-2.26v1.047h-1.945Zm-.465 2.56 1.778.316c-.1.382-.216.731-.349 1.08.615.582 1.38 1.33 1.762 1.829l-1.43.947c-.216-.332-.615-.798-1.047-1.263a8.043 8.043 0 0 1-1.662 1.961c-.332-.299-1.08-.864-1.496-1.08 1.23-.864 2.078-2.211 2.444-3.79Zm12.217 3.574-1.396 1.147c-.383-.466-1.031-1.114-1.713-1.746a5.936 5.936 0 0 1-.881 1.23c-.349-.199-1.08-.515-1.562-.698 1.446 1.696 3.607 3.026 6.134 3.674-.449.382-1.031 1.197-1.297 1.729-2.261-.748-4.155-2.045-5.602-3.757v4.006h-1.961v-4.056a12.754 12.754 0 0 1-5.519 3.873c-.299-.499-.881-1.28-1.329-1.695 2.992-.881 5.535-2.826 6.848-5.137v-2.26h-6.283v-1.729h6.283v-1.147h1.961v1.147h6.333v1.729h-6.333v2.543c.2.332.416.648.665.947.865-.814 1.446-2.044 1.712-3.374l1.829.283a7.56 7.56 0 0 1-.283 1.097c.815.698 1.862 1.579 2.394 2.194Zm7.28-4.837-1.379.1a82.052 82.052 0 0 1-.665 3.457c.382.382.798.781 1.213 1.18.632-1.645.798-3.324.831-4.737Zm2.361-.166-.715.049c-.05 1.796-.266 4.006-1.197 6.134a27.953 27.953 0 0 1 1.546 1.745l-1.164 1.513c-.315-.465-.764-1.014-1.263-1.612a11.445 11.445 0 0 1-2.41 2.626c-.249-.366-.831-.948-1.23-1.214 1.064-.831 1.862-1.745 2.443-2.709a73.884 73.884 0 0 0-2.21-2.261c.282-1.063.565-2.443.797-3.906l-.864.05-.183-1.778 1.313-.05c.167-1.18.283-2.361.349-3.408l1.679.067a65.76 65.76 0 0 1-.365 3.258l1.13-.067v-1.03h1.629v.93l.731-.033-.016 1.696Zm2.909-1.513 1.263-.781c.582.631 1.379 1.546 1.745 2.111l-1.33.881c-.332-.565-1.113-1.53-1.678-2.211Zm2.842 6.649-1.33.931c-.366-.632-1.213-1.646-1.828-2.394l1.263-.798c.632.682 1.513 1.646 1.895 2.261Zm-3.823 1.097h4.305a86.35 86.35 0 0 0 .183-3.541h-4.206c-.099 1.247-.182 2.477-.282 3.541Zm4.604-8.81h-4.022c-.067 1.13-.133 2.344-.2 3.507h4.156c.016-1.03.033-2.21.066-3.507Zm2.643 5.269h-.931c-.05 1.446-.1 2.627-.166 3.541h.765v1.778h-.931c-.117.748-.25 1.214-.416 1.48-.365.615-.748.814-1.313.931-.515.099-1.28.083-2.044.066-.017-.482-.233-1.23-.516-1.712a16.13 16.13 0 0 0 1.613.067c.282 0 .432-.084.581-.35.067-.083.133-.249.183-.482h-4.787v-.016h-1.363c.183-1.446.382-3.308.532-5.303h-.831v-1.762h.947c.117-1.795.216-3.623.266-5.236h7.63s-.017.732-.017.965c-.033 1.628-.066 3.025-.083 4.271h.881v1.762Z" fill="#231815"/><path d="M76.58 431.502h232.117a5.343 5.343 0 0 1 5.343 5.343v28.873a5.343 5.343 0 0 1-5.343 5.343H76.581v-39.559Z" stroke="#231815" stroke-width="1.187"/><path d="M18.403 489.464a5.343 5.343 0 0 1 5.343-5.343H76.58v39.559H23.746a5.343 5.343 0 0 1-5.343-5.343v-28.873Z" fill="#E86546"/><path d="M40.58 500.461v2.377h-1.812v-2.377h1.812Zm1.795 9.076h-.548c.25.299.482.598.648.914h.366c.166 0 .282-.033.382-.183.183-.233.316-1.064.416-3.291h-4.123v.465h2.86v2.095Zm-2.859.482 1.064-.05c-.083-.117-.15-.2-.233-.299l.333-.133h-1.164v.482Zm1.363-1.264v-.532h-1.363v.532h1.363Zm-4.421 0h1.396v-.532h-1.396v.532Zm1.396-1.778h-1.346a6.75 6.75 0 0 1-.516.465h1.862v-.465Zm-4.006-6.749v1.629c0 1.546-.066 3.507-.365 5.419 1.03-.565 1.828-1.23 2.376-1.895h-1.363v-2.327h.333l-.283-.981c.698-.116 1.646-.266 2.66-.465a17.786 17.786 0 0 0-2.327-.482l.282-.865c.998.117 2.128.316 2.826.549l-.282.715.631-.117.017.981a66.67 66.67 0 0 1-3.075.665h8.627c-.782-.233-1.862-.449-2.86-.582l.283-.848.35.017-.383-.781c.598-.1 1.48-.399 2.144-.632h-9.59Zm9.375-2.044h-9.375v.781h9.375v-.781Zm-.05 6.399v-.731H41.76v.731h1.413Zm-2.909 0v-.731h-1.38v.731h1.38Zm-2.875 0v-.731h-1.347v.731h1.347Zm.133 1.297h7.928s0 .415-.016.615c-.133 3.091-.3 4.272-.665 4.72-.266.349-.599.466-.964.516-.35.066-.914.066-1.496.05a3.194 3.194 0 0 0-.116-.632l-.715.299c-.05-.133-.117-.266-.183-.399-2.56.183-5.203.349-7.114.466l-.117-1.28c1.03-.034 2.344-.1 3.79-.167v-.531h-2.809v-1.397c-.216.15-.449.299-.665.432-.216-.299-.615-.664-.947-.914-.266 1.513-.649 2.959-1.28 4.139-.366-.299-1.214-.781-1.712-.964 1.38-2.56 1.496-6.333 1.496-8.976v-4.92H45.15v3.291h-1.147l.433.765c-.815.316-1.929.532-2.71.665 1.014.116 2.111.332 2.76.532l-.317.864h.632v2.327h-6.915a9.966 9.966 0 0 1-.365.499Zm22.822 3.557h3.923v1.878h-10.34v-1.878h4.439v-3.325h-3.208v-1.845h3.208v-2.726h-1.829a11.334 11.334 0 0 1-.93 2.294c-.4-.249-1.297-.698-1.762-.897.166-.3.332-.615.498-.965l-.947.433c-.1-.499-.35-1.23-.632-1.912v11.353h-1.978v-11.885c-.1 1.396-.366 3.225-.748 4.405l-1.463-.532c.4-1.097.698-2.959.815-4.322l1.396.2v-3.391h1.978v3.142l.964-.399c.333.648.682 1.446.914 2.094.416-1.213.715-2.643.881-4.056l1.929.266c-.117.781-.25 1.563-.416 2.311h1.33v-3.258h1.978v3.258h3.39v1.861h-3.39v2.726h3.042v1.845h-3.042v3.325Z" fill="#fff"/><path d="M18.403 489.464a5.343 5.343 0 0 1 5.343-5.343H76.58v39.559H23.746a5.343 5.343 0 0 1-5.343-5.343v-28.873Z" stroke="#231815" stroke-width="1.187"/><path d="M76.58 484.121h232.117a5.343 5.343 0 0 1 5.343 5.343v28.495a5.343 5.343 0 0 1-5.343 5.343H76.581v-39.181Z" fill="#fff"/><g clip-path="url(#clip7_220_19927)"><path d="M93.364 495.401h.582c.022.006.046.014.068.016a4.23 4.23 0 0 1 2.655 1.232c.368.364.657.784.873 1.253.27.585.391 1.2.393 1.842v2.206h.116c.208 0 .415-.004.623 0 .342.004.623.197.724.505.035.107.049.224.049.337.003 2.798.001 5.595.001 8.393v.083a.758.758 0 0 1-.518.717c-.028.009-.054.025-.08.038H88.46c-.032-.014-.067-.03-.1-.043a.752.752 0 0 1-.43-.399.866.866 0 0 1-.07-.375v-8.476a.759.759 0 0 1 .78-.78c.212-.002.423 0 .635 0 .03 0 .06-.004.098-.005v-2.342a4.247 4.247 0 0 1 1.107-2.792 4.258 4.258 0 0 1 2.62-1.37c.09-.012.177-.026.264-.04Zm3.056 6.544c0-.034.003-.054.003-.075v-2.161a2.74 2.74 0 0 0-.03-.424 2.695 2.695 0 0 0-.911-1.677c-.668-.582-1.445-.798-2.315-.647-.808.139-1.428.575-1.867 1.265a2.518 2.518 0 0 0-.411 1.342c-.008.765 0 1.531 0 2.296 0 .027.004.052.008.081h5.526-.003Zm-3.519 5.871c0 .153-.004.305 0 .457a.75.75 0 0 0 1.026.677.756.756 0 0 0 .478-.701c0-.294.004-.589-.001-.883 0-.086.024-.144.089-.205.39-.367.509-.814.351-1.323a1.227 1.227 0 0 0-1.159-.864 1.256 1.256 0 0 0-.857 2.208c.053.046.075.089.073.159-.004.159 0 .318 0 .477v-.002Z" fill="#231815"/></g><g clip-path="url(#clip8_220_19927)"><path d="M116.826 495.401h.581c.023.006.047.014.069.016a4.23 4.23 0 0 1 2.655 1.232c.367.364.657.784.873 1.253.27.585.391 1.2.392 1.842.002.697 0 1.392 0 2.088v.118h.117c.208 0 .414-.004.623 0 .342.004.623.197.723.505.035.107.049.224.049.337.004 2.798.002 5.595.002 8.393v.083a.757.757 0 0 1-.518.717c-.029.009-.054.025-.081.038h-10.389l-.101-.043a.753.753 0 0 1-.43-.399.875.875 0 0 1-.07-.375v-8.476c0-.206.064-.388.206-.539a.754.754 0 0 1 .575-.241c.212-.002.423 0 .634 0 .031 0 .061-.004.099-.005v-2.342a4.24 4.24 0 0 1 1.107-2.792 4.252 4.252 0 0 1 2.62-1.37c.089-.012.176-.026.264-.04Zm3.055 6.544c0-.034.004-.054.004-.075v-2.161c0-.141-.008-.284-.031-.424a2.694 2.694 0 0 0-.911-1.677c-.667-.582-1.445-.798-2.315-.647-.807.139-1.427.575-1.866 1.265a2.527 2.527 0 0 0-.412 1.342c-.008.765 0 1.531 0 2.296 0 .027.005.052.008.081h5.527-.004Zm-3.518 5.871c0 .153-.005.305 0 .457a.75.75 0 0 0 1.025.677.755.755 0 0 0 .479-.701c0-.294.003-.589-.002-.883 0-.086.024-.144.089-.205.39-.367.509-.814.352-1.323a1.228 1.228 0 0 0-1.159-.864 1.251 1.251 0 0 0-1.204.791 1.255 1.255 0 0 0 .347 1.417c.052.046.075.089.073.159-.005.159 0 .318 0 .477v-.002Z" fill="#231815"/></g><g clip-path="url(#clip9_220_19927)"><path d="M140.287 495.401h.582c.022.006.046.014.068.016a4.22 4.22 0 0 1 2.655 1.232c.368.364.657.784.873 1.253.271.585.391 1.2.393 1.842.002.697 0 1.392 0 2.088v.118h.116c.208 0 .415-.004.623 0 .342.004.624.197.724.505.035.107.049.224.049.337.003 2.798.002 5.595.002 8.393v.083a.759.759 0 0 1-.519.717c-.028.009-.054.025-.081.038h-10.388c-.033-.014-.068-.03-.102-.043a.752.752 0 0 1-.429-.399.86.86 0 0 1-.07-.375v-8.476a.76.76 0 0 1 .781-.78c.211-.002.423 0 .634 0 .03 0 .06-.004.099-.005v-2.342a4.248 4.248 0 0 1 1.106-2.792 4.262 4.262 0 0 1 2.62-1.37c.089-.012.177-.026.264-.04Zm3.056 6.544c0-.034.003-.054.003-.075 0-.72.002-1.44 0-2.161a2.74 2.74 0 0 0-.03-.424 2.694 2.694 0 0 0-.911-1.677c-.668-.582-1.445-.798-2.315-.647-.808.139-1.428.575-1.867 1.265a2.518 2.518 0 0 0-.411 1.342c-.008.765 0 1.531 0 2.296 0 .027.004.052.008.081h5.526-.003Zm-3.519 5.871c0 .153-.004.305 0 .457a.75.75 0 0 0 1.026.677.758.758 0 0 0 .479-.701c0-.294.003-.589-.002-.883 0-.086.024-.144.089-.205.389-.367.509-.814.351-1.323a1.226 1.226 0 0 0-1.159-.864 1.257 1.257 0 0 0-.857 2.208c.053.046.075.089.073.159-.004.159 0 .318 0 .477v-.002Z" fill="#231815"/></g><path d="M76.58 484.121h232.117a5.343 5.343 0 0 1 5.343 5.343v28.495a5.343 5.343 0 0 1-5.343 5.343H76.581v-39.181Z" stroke="#231815" stroke-width="1.187"/><path d="M18.403 542.083a5.343 5.343 0 0 1 5.343-5.343H76.58v39.559H23.746a5.343 5.343 0 0 1-5.343-5.343v-28.873Z" fill="#E86546"/><path d="m36.092 556.005.25 1.812c-.582.166-1.18.332-1.78.482v3.973c0 .964-.182 1.429-.747 1.745-.549.299-1.346.349-2.51.349-.083-.499-.332-1.28-.565-1.795.648.016 1.33.016 1.546.016.249 0 .316-.083.316-.332v-3.424l-1.613.399-.515-1.879c.615-.116 1.33-.282 2.128-.482v-2.942H30.69v-1.828h1.912v-3.158h1.96v3.158h1.63v1.828h-1.63v2.46l1.53-.382Zm6.948.898h-4.039a9.503 9.503 0 0 0 1.961 2.942 9.265 9.265 0 0 0 2.078-2.942Zm1.247-1.862 1.263.532c-.631 2.31-1.695 4.122-3.092 5.518 1.08.765 2.36 1.314 3.84 1.679-.415.399-.98 1.197-1.263 1.712-1.612-.482-2.992-1.163-4.14-2.094-1.296.897-2.758 1.562-4.37 2.044-.217-.531-.699-1.363-1.064-1.795 1.462-.349 2.809-.881 3.972-1.629-.98-1.113-1.762-2.427-2.36-3.956l.498-.149h-.864v-1.779h3.275v-1.995h-3.574v-1.828h3.574v-2.377h1.961v2.377h3.724v1.828h-3.724v1.995h1.995l.349-.083Zm18.135 1.23h-2.527c-1.995 0-2.527-.731-2.527-2.576v-4.721h1.962v1.961h4.089v1.696h-4.09v1.097c0 .615.1.847.633.847h2.426c.466 0 1.164-.049 1.53-.132.033.515.116 1.23.182 1.678-.349.117-1.047.15-1.678.15Zm-10.738 1.779v.598c0 .632-.033 1.38-.117 2.128.748-.333 1.73-.832 2.726-1.363v-.549l-.797.781c-.416-.432-1.18-1.08-1.812-1.595Zm2.61-1.496h-2.61v1.18l.83-.715c.566.399 1.28.981 1.78 1.413v-1.878Zm1.861-1.663v7.746c0 .815-.15 1.23-.698 1.496-.532.25-1.28.283-2.294.283-.083-.466-.349-1.114-.598-1.546.598.033 1.246.033 1.446.033.216 0 .282-.066.282-.282v-1.696a57.012 57.012 0 0 1-2.41 1.646l-.415-1.164c-.183 1.13-.549 2.261-1.18 3.125-.283-.382-1.031-1.097-1.38-1.33.88-1.296.947-3.125.947-4.571v-3.74h6.3Zm-2.526-4.139 1.595-.581c.698 1.196 1.58 2.825 1.978 3.823l-1.728.698c-.1-.299-.25-.648-.416-1.047-4.205.415-4.887.515-5.369.714-.1-.382-.416-1.28-.615-1.778.3-.067.582-.299.914-.665.333-.366 1.347-1.646 1.962-2.959l1.994.565c-.565.964-1.313 1.929-2.044 2.76l2.427-.183c-.25-.482-.482-.948-.698-1.347Zm6.465 11.869h1.895c.566 0 .682-.283.765-1.812.399.299 1.197.598 1.712.715-.2 2.177-.715 2.825-2.294 2.825h-2.36c-1.962 0-2.444-.581-2.444-2.393v-5.22h1.962v1.663h4.205v1.745H59.33v1.812c0 .581.116.665.764.665Z" fill="#fff"/><path d="M18.403 542.083a5.343 5.343 0 0 1 5.343-5.343H76.58v39.559H23.746a5.343 5.343 0 0 1-5.343-5.343v-28.873Z" stroke="#231815" stroke-width="1.187"/><path d="M76.58 536.74h232.117a5.343 5.343 0 0 1 5.343 5.343v28.495a5.343 5.343 0 0 1-5.343 5.343H76.581V536.74Z" fill="#fff"/><g clip-path="url(#clip10_220_19927)"><path d="M93.364 548.019h.582c.022.006.046.014.068.016a4.23 4.23 0 0 1 2.655 1.232c.368.364.657.784.873 1.253.27.585.391 1.2.393 1.843v2.205h.116c.208 0 .415-.003.623 0 .342.005.623.197.724.505.035.107.049.224.049.337.003 2.799.001 5.595.001 8.393v.083a.757.757 0 0 1-.518.717c-.028.01-.054.025-.08.038H88.46c-.032-.014-.067-.03-.1-.043a.749.749 0 0 1-.43-.399.866.866 0 0 1-.07-.375v-8.476a.759.759 0 0 1 .78-.78c.212-.002.423 0 .635 0 .03 0 .06-.003.098-.005v-2.342a4.247 4.247 0 0 1 1.107-2.792 4.272 4.272 0 0 1 2.62-1.37c.09-.011.177-.026.264-.04Zm3.056 6.544c0-.033.003-.054.003-.075v-2.16c0-.142-.008-.285-.03-.425a2.695 2.695 0 0 0-.911-1.677c-.668-.582-1.445-.798-2.315-.647-.808.14-1.428.575-1.867 1.265a2.518 2.518 0 0 0-.411 1.342c-.008.765 0 1.531 0 2.296 0 .027.004.052.008.081h5.526-.003Zm-3.519 5.871c0 .153-.004.306 0 .457a.75.75 0 0 0 1.026.677.756.756 0 0 0 .478-.701c0-.294.004-.588-.001-.883 0-.085.024-.144.089-.205.39-.367.509-.814.351-1.322a1.227 1.227 0 0 0-1.159-.865 1.256 1.256 0 0 0-.857 2.208c.053.046.075.089.073.159-.004.159 0 .318 0 .477v-.002Z" fill="#231815"/></g><g clip-path="url(#clip11_220_19927)"><path d="M116.826 548.019h.581c.023.006.047.014.069.016a4.23 4.23 0 0 1 2.655 1.232c.367.364.657.784.873 1.253.27.585.391 1.2.392 1.843.002.696 0 1.391 0 2.087v.118h.117c.208 0 .414-.003.623 0 .342.005.623.197.723.505.035.107.049.224.049.337.004 2.799.002 5.595.002 8.393v.083a.756.756 0 0 1-.518.717c-.029.01-.054.025-.081.038h-10.389l-.101-.043a.75.75 0 0 1-.43-.399.875.875 0 0 1-.07-.375v-8.476c0-.206.064-.388.206-.539a.754.754 0 0 1 .575-.241c.212-.002.423 0 .634 0 .031 0 .061-.003.099-.005v-2.342a4.24 4.24 0 0 1 1.107-2.792 4.266 4.266 0 0 1 2.62-1.37c.089-.011.176-.026.264-.04Zm3.055 6.544c0-.033.004-.054.004-.075v-2.16c0-.142-.008-.285-.031-.425a2.694 2.694 0 0 0-.911-1.677c-.667-.582-1.445-.798-2.315-.647-.807.14-1.427.575-1.866 1.265a2.527 2.527 0 0 0-.412 1.342c-.008.765 0 1.531 0 2.296 0 .027.005.052.008.081h5.527-.004Zm-3.518 5.871c0 .153-.005.306 0 .457a.749.749 0 0 0 1.025.677.755.755 0 0 0 .479-.701c0-.294.003-.588-.002-.883 0-.085.024-.144.089-.205.39-.367.509-.814.352-1.322a1.229 1.229 0 0 0-1.159-.865 1.253 1.253 0 0 0-1.204.791 1.255 1.255 0 0 0 .347 1.417c.052.046.075.089.073.159-.005.159 0 .318 0 .477v-.002Z" fill="#231815"/></g><g clip-path="url(#clip12_220_19927)"><path d="M140.287 548.019h.582c.022.006.046.014.068.016a4.22 4.22 0 0 1 2.655 1.232c.368.364.657.784.873 1.253.271.585.391 1.2.393 1.843.002.696 0 1.391 0 2.087v.118h.116c.208 0 .415-.003.623 0 .342.005.624.197.724.505.035.107.049.224.049.337.003 2.799.002 5.595.002 8.393v.083a.758.758 0 0 1-.519.717c-.028.01-.054.025-.081.038h-10.388c-.033-.014-.068-.03-.102-.043a.748.748 0 0 1-.429-.399.86.86 0 0 1-.07-.375v-8.476a.76.76 0 0 1 .781-.78c.211-.002.423 0 .634 0 .03 0 .06-.003.099-.005v-2.342a4.248 4.248 0 0 1 1.106-2.792 4.277 4.277 0 0 1 2.62-1.37c.089-.011.177-.026.264-.04Zm3.056 6.544c0-.033.003-.054.003-.075 0-.72.002-1.44 0-2.16 0-.142-.008-.285-.03-.425a2.694 2.694 0 0 0-.911-1.677c-.668-.582-1.445-.798-2.315-.647-.808.14-1.428.575-1.867 1.265a2.518 2.518 0 0 0-.411 1.342c-.008.765 0 1.531 0 2.296 0 .027.004.052.008.081h5.526-.003Zm-3.519 5.871c0 .153-.004.306 0 .457a.75.75 0 0 0 1.026.677.758.758 0 0 0 .479-.701c0-.294.003-.588-.002-.883 0-.085.024-.144.089-.205.389-.367.509-.814.351-1.322a1.227 1.227 0 0 0-1.159-.865 1.257 1.257 0 0 0-.857 2.208c.053.046.075.089.073.159-.004.159 0 .318 0 .477v-.002Z" fill="#231815"/></g><path d="M76.58 536.74h232.117a5.343 5.343 0 0 1 5.343 5.343v28.495a5.343 5.343 0 0 1-5.343 5.343H76.581V536.74Z" stroke="#231815" stroke-width="1.187"/><rect x=".594" y=".594" width="331.256" height="599.451" rx="5.343" stroke="#231815" stroke-width="1.187"/><defs><clipPath id="clip0_220_19927"><path fill="#fff" transform="translate(94.117)" d="M0 0h144.209v36.794H0z"/></clipPath><clipPath id="clip1_220_19927"><path fill="#fff" transform="translate(75.554 397.237)" d="M0 0h22.036v21.799H0z"/></clipPath><clipPath id="clip2_220_19927"><path fill="#fff" transform="translate(99.964 397.237)" d="M0 0h22.036v21.799H0z"/></clipPath><clipPath id="clip3_220_19927"><path fill="#fff" transform="translate(124.375 397.237)" d="M0 0h22.036v21.799H0z"/></clipPath><clipPath id="clip4_220_19927"><path fill="#fff" transform="translate(246.716 397.237)" d="M0 0h20.6v19.59H0z"/></clipPath><clipPath id="clip5_220_19927"><path fill="#fff" transform="translate(269.69 397.237)" d="M0 0h20.6v19.59H0z"/></clipPath><clipPath id="clip6_220_19927"><path fill="#fff" transform="translate(292.664 397.237)" d="M0 0h20.6v19.59H0z"/></clipPath><clipPath id="clip7_220_19927"><path fill="#fff" transform="translate(87.86 495.401)" d="M0 0h11.589v16.622H0z"/></clipPath><clipPath id="clip8_220_19927"><path fill="#fff" transform="translate(111.321 495.401)" d="M0 0h11.589v16.622H0z"/></clipPath><clipPath id="clip9_220_19927"><path fill="#fff" transform="translate(134.783 495.401)" d="M0 0h11.589v16.622H0z"/></clipPath><clipPath id="clip10_220_19927"><path fill="#fff" transform="translate(87.86 548.019)" d="M0 0h11.589v16.622H0z"/></clipPath><clipPath id="clip11_220_19927"><path fill="#fff" transform="translate(111.321 548.019)" d="M0 0h11.589v16.622H0z"/></clipPath><clipPath id="clip12_220_19927"><path fill="#fff" transform="translate(134.783 548.019)" d="M0 0h11.589v16.622H0z"/></clipPath><linearGradient id="paint0_linear_220_19927" x1="169.337" y1="198.346" x2="192.076" y2="183.805" gradientUnits="userSpaceOnUse"><stop stop-color="#00C7FF" stop-opacity=".1"/><stop offset=".36" stop-color="#FFD600" stop-opacity=".43"/><stop offset=".67" stop-color="#FFD600" stop-opacity=".69"/><stop offset=".89" stop-color="#FFD600" stop-opacity=".84"/><stop offset="1" stop-color="#FFD600" stop-opacity=".9"/></linearGradient><linearGradient id="paint1_linear_220_19927" x1="227.188" y1="267.705" x2="243.122" y2="258.996" gradientUnits="userSpaceOnUse"><stop stop-color="#00C7FF" stop-opacity=".1"/><stop offset=".36" stop-color="#FFD600" stop-opacity=".43"/><stop offset=".67" stop-color="#FFD600" stop-opacity=".69"/><stop offset=".89" stop-color="#FFD600" stop-opacity=".84"/><stop offset="1" stop-color="#FFD600" stop-opacity=".9"/></linearGradient><linearGradient id="paint2_linear_220_19927" x1="216.903" y1="220.13" x2="238.195" y2="206.677" gradientUnits="userSpaceOnUse"><stop stop-color="#00C7FF" stop-opacity=".1"/><stop offset=".36" stop-color="#FFD600" stop-opacity=".43"/><stop offset=".67" stop-color="#FFD600" stop-opacity=".69"/><stop offset=".89" stop-color="#FFD600" stop-opacity=".84"/><stop offset="1" stop-color="#FFD600" stop-opacity=".9"/></linearGradient></defs></svg>