<svg fill="none" xmlns="http://www.w3.org/2000/svg" viewBox="0 0 280 506"><rect x=".5" y=".5" width="279" height="504.35" rx="4.5" fill="#E68169"/><g clip-path="url(#clip0_94_6221)" stroke="#231815" stroke-miterlimit="10"><path d="M84.32 27.21c.34 1.64 1.95 2.83 3.83 2.84l103.68.44c1.88 0 3.5-1.17 3.85-2.81l4.41-20.48c.67-3.11-1.07-6.21-3.48-6.22L83.06.5C80.7.49 79.29 2.97 79.92 6l4.4 21.2v.01Z" fill="#00698A"/><path d="M116.48 17.4c.14 1.03.82 1.78 1.61 1.79l43.77.23c.79 0 1.48-.74 1.63-1.77l1.87-12.91c.28-1.96-.45-3.91-1.47-3.92L115.95.57c-.99 0-1.59 1.56-1.33 3.47l1.85 13.36h.01Z" fill="#E86546"/><path d="M185.67 10.21c0-1.42 1.16-2.56 2.58-2.55 1.42 0 2.56 1.16 2.55 2.58 0 1.42-1.16 2.56-2.57 2.55-1.42 0-2.56-1.16-2.55-2.58h-.01Zm-10.74-.02c0-1.42 1.16-2.56 2.58-2.55 1.42 0 2.56 1.16 2.55 2.58 0 1.42-1.16 2.56-2.58 2.55-1.42 0-2.56-1.16-2.55-2.58Zm-80.59-.28c0-1.42-1.15-2.57-2.56-2.57-1.42 0-2.57 1.15-2.57 2.56 0 1.42 1.15 2.57 2.56 2.57 1.42 0 2.57-1.15 2.57-2.56Zm10.73.02c0-1.42-1.15-2.57-2.56-2.57-1.42 0-2.57 1.15-2.57 2.56 0 1.42 1.15 2.57 2.56 2.57 1.42 0 2.57-1.15 2.57-2.56Z" fill="#FFE600"/></g><path d="M119.96 52.702v.744l.984-.024c-.12-.168-.24-.336-.36-.48l.552-.24h-1.176Zm-4.368-1.8h1.416v-.648h-1.416v.648Zm0-2.976v.624h1.416v-.624h-1.416Zm5.784 0h-1.416v.624h1.416v-.624Zm0 2.976v-.648h-1.416v.648h1.416Zm-8.832 5.088-.192-2.424c1.296 0 2.904-.024 4.656-.072v-.792h-4.104v-6.576h4.104v-.624h-4.416v-2.52h4.416V41.47h2.952v1.512h4.632v2.52h-4.632v.624h4.248v6.576h-.696c.648.888 1.248 1.896 1.584 2.64l-2.424 1.176c-.096-.24-.216-.528-.36-.816-3.528.144-7.128.216-9.768.288Zm6.6 5.28v-2.04h-2.688c.552.648 1.032 1.368 1.296 1.944l-.696.432c.696.024 1.416.024 1.632.024.336-.024.456-.096.456-.36Zm-13.824-8.112v.984h.912v-.984h-.912Zm0-3.192v.96h.912v-.96h-.912Zm4.104.96v-.96h-.984v.96h.984Zm0 3.216v-.984h-.984v.984h.984Zm12.912 1.8v.768h2.616v2.52h-2.616v2.136c0 1.416-.264 2.136-1.272 2.568-1.008.408-2.28.432-3.96.432-.096-.72-.408-1.608-.696-2.352l-1.128.696c-.336-.84-1.128-2.088-1.944-2.952l.912-.528H112.4v1.44h-3.528v3.576H105.8V60.67h-3.672v-3.024h3.672v-1.128h-2.88V47.59h2.88v-1.008h-3.312v-2.976h3.312v-2.112h3.072v2.112h3.24v2.976h-3.24v1.008h3.048v8.928h-3.048v1.128h3.528v-.936h6.744v-.768h3.192Zm24.024-3.24v.744l.984-.024c-.12-.168-.24-.336-.36-.48l.552-.24h-1.176Zm-4.368-1.8h1.416v-.648h-1.416v.648Zm0-2.976v.624h1.416v-.624h-1.416Zm5.784 0h-1.416v.624h1.416v-.624Zm0 2.976v-.648h-1.416v.648h1.416Zm-8.832 5.088-.192-2.424c1.296 0 2.904-.024 4.656-.072v-.792h-4.104v-6.576h4.104v-.624h-4.416v-2.52h4.416V41.47h2.952v1.512h4.632v2.52h-4.632v.624h4.248v6.576h-.696c.648.888 1.248 1.896 1.584 2.64l-2.424 1.176c-.096-.24-.216-.528-.36-.816-3.528.144-7.128.216-9.768.288Zm6.6 5.28v-2.04h-2.688c.552.648 1.032 1.368 1.296 1.944l-.696.432c.696.024 1.416.024 1.632.024.336-.024.456-.096.456-.36Zm-13.824-8.112v.984h.912v-.984h-.912Zm0-3.192v.96h.912v-.96h-.912Zm4.104.96v-.96h-.984v.96h.984Zm0 3.216v-.984h-.984v.984h.984Zm12.912 1.8v.768h2.616v2.52h-2.616v2.136c0 1.416-.264 2.136-1.272 2.568-1.008.408-2.28.432-3.96.432-.096-.72-.408-1.608-.696-2.352l-1.128.696c-.336-.84-1.128-2.088-1.944-2.952l.912-.528H138.8v1.44h-3.528v3.576H132.2V60.67h-3.672v-3.024h3.672v-1.128h-2.88V47.59h2.88v-1.008h-3.312v-2.976h3.312v-2.112h3.072v2.112h3.24v2.976h-3.24v1.008h3.048v8.928h-3.048v1.128h3.528v-.936h6.744v-.768h3.192Zm16.368-11.112v-1.104h-.816v1.104h.816Zm2.52-3v4.872h-5.712V41.83h5.712Zm-8.616 10.128v.72h1.176v-.72h-1.176Zm0-2.592v.72h1.176v-.72h-1.176Zm5.208.72v-.72h-1.248v.72h1.248Zm0 2.592v-.72h-1.248v.72h1.248Zm-8.256 1.992v-7.296h11.448v7.296H155.96Zm2.856-9.84v-1.104h-.744v1.104h.744Zm2.448-3v4.872h-5.52V41.83h5.52Zm7.152 13.344v2.4H155v-2.4h13.416Zm-8.88 6.024h4.296v-.792h-4.296v.792Zm18.168-10.2h-3.6c.6 4.272 1.776 8.256 4.056 10.44-.768.624-1.896 1.944-2.424 2.88-1.488-1.608-2.496-3.816-3.216-6.432-.792 2.328-1.992 4.536-3.816 6.384-.336-.432-.96-1.056-1.56-1.584v1.344h-3.312v-.48h-4.296v.72h-3.168v-6.168h10.776v2.688c2.472-2.856 3.12-6.6 3.312-9.792h-2.712v-3.192h2.76v-6.36h3.384v1.632l2.52-.912c.696 1.32 1.392 3.048 1.608 4.2l-2.904 1.08c-.12-1.008-.648-2.568-1.224-3.888v4.248h3.816v3.192Z" fill="#231815"/><path d="M15.5 199.99c0-68.759 55.74-124.5 124.5-124.5 68.759 0 124.5 55.741 124.5 124.5v120a4.5 4.5 0 0 1-4.5 4.5H20a4.5 4.5 0 0 1-4.5-4.5v-120Z" fill="#fff" stroke="#231815"/><g clip-path="url(#clip1_94_6221)"><path d="M159.625 215.576c21.488 0 38.907-17.419 38.907-38.906 0-21.488-17.419-38.907-38.907-38.907-21.487 0-38.906 17.419-38.906 38.907 0 21.487 17.419 38.906 38.906 38.906Z" fill="#231815" stroke="#231815" stroke-miterlimit="10"/><path d="M153.121 189.066c-8.113 10.054-22.382 14.387-34.718 10.539-.639-.195-1.269-.417-1.881-.63-1.899-.655-3.695-1.277-5.415-1.234-1.584.042-3.491 1.141-3.491 2.452a2.372 2.372 0 0 1-2.358 2.375 2.366 2.366 0 0 1-2.367-2.358c0-2.043.98-3.925 2.767-5.313a9.314 9.314 0 0 1 5.321-1.89c2.58-.068 4.878.724 7.092 1.49.604.213 1.175.409 1.745.588 5.049 1.575 10.778 1.549 16.15-.085 5.372-1.627 10.148-4.794 13.469-8.906" fill="#231815"/><path d="M153.121 189.066c-8.113 10.054-22.382 14.387-34.718 10.539-.639-.195-1.269-.417-1.881-.63-1.899-.655-3.695-1.277-5.415-1.234-1.584.042-3.491 1.141-3.491 2.452a2.372 2.372 0 0 1-2.358 2.375 2.366 2.366 0 0 1-2.367-2.358c0-2.043.98-3.925 2.767-5.313a9.314 9.314 0 0 1 5.321-1.89c2.58-.068 4.878.724 7.092 1.49.604.213 1.175.409 1.745.588 5.049 1.575 10.778 1.549 16.15-.085 5.372-1.627 10.148-4.794 13.469-8.906" stroke="#231815" stroke-miterlimit="10"/><path d="m138.154 178.951-.57 2.461a2.453 2.453 0 0 1-2.937 1.83 2.454 2.454 0 0 1-1.831-2.937l.571-2.46" stroke="#231815" stroke-linecap="round" stroke-linejoin="round"/><path d="M144.556 210.605c4.257-2.384 10.353-1.465 13.077 2.588 1.566 2.332 1.881 5.253 2.188 8.036 1.864 17.155 4.529 34.429 9.058 51.056-.162-.596-12.038.008-13.255.025-4.027.068-8.105.358-12.115.068.298-3.345-.502-6.555-.758-9.909-.255-3.355-.349-6.998-.842-10.472a630.371 630.371 0 0 0-2.52-16.431c-.698-4.188-2.342-8.965-1.763-13.221.622-4.623 2.716-9.382 6.939-11.749l-.009.009Z" fill="#231815" stroke="#231815" stroke-miterlimit="10"/><mask id="mask0_94_6221" style="mask-type:luminance" maskUnits="userSpaceOnUse" x="137" y="209" width="32" height="64"><path d="M144.556 210.605c4.257-2.384 10.353-1.465 13.077 2.588 1.566 2.332 1.881 5.253 2.188 8.036 1.864 17.155 4.529 34.429 9.058 51.056-.162-.596-12.038.008-13.255.025-4.027.068-8.105.358-12.115.068.298-3.345-.502-6.555-.758-9.909-.255-3.355-.349-6.998-.842-10.472a630.371 630.371 0 0 0-2.52-16.431c-.698-4.188-2.342-8.965-1.763-13.221.622-4.623 2.716-9.382 6.939-11.749l-.009.009Z" fill="#fff"/></mask><g mask="url(#mask0_94_6221)"><path d="m137.541 255.547 5.517 9.654c1.686-5.678 3.363-11.348 5.048-17.026 1.55 5.814 3.099 11.637 4.649 17.452 1.387-2.656 2.767-5.312 4.154-7.968 2.239 3.098 4.47 6.197 6.709 9.296.775-1.515 1.558-3.022 2.333-4.537a60.298 60.298 0 0 1 5.797 15.383 294.294 294.294 0 0 1-35.348 8.607c-.962-5.704-.604-11.186-.808-16.899-.077-2.23-.281-4.171.059-6.453.196-1.302 2.341-6.717 1.882-7.509h.008Z" fill="#231815" stroke="#231815" stroke-linecap="round" stroke-linejoin="round"/></g><path d="M144.556 210.605c4.257-2.384 10.353-1.465 13.077 2.588 1.566 2.332 1.881 5.253 2.188 8.036 1.864 17.155 4.529 34.429 9.058 51.056-.162-.596-12.038.008-13.255.025-4.027.068-8.105.358-12.115.068.298-3.345-.502-6.555-.758-9.909-.255-3.355-.349-6.998-.842-10.472a630.371 630.371 0 0 0-2.52-16.431c-.698-4.188-2.342-8.965-1.763-13.221.622-4.623 2.716-9.382 6.939-11.749l-.009.009Z" stroke="#231815" stroke-linecap="round" stroke-linejoin="round"/><mask id="mask1_94_6221" style="mask-type:luminance" maskUnits="userSpaceOnUse" x="117" y="206" width="66" height="55"><path d="M156.85 218.131c-5.006-3.108-10.148-6.275-15.92-7.458-5.772-1.184-12.396 0-16.253 4.469-2.826 3.278-3.763 7.782-3.95 12.106-.451 10.753-2.06 22.127-2.767 32.871 8.182 1.209 21.693.749 29.934.077-1.975-6.879-3.959-13.758-5.934-20.637-.801-2.784-1.601-5.576-2.12-8.42-.128-.681-1.158-6.657.068-6.393.179.042.494.902.596 1.064.673 1.098 1.566 2.12 2.375 3.116 1.635 2.026 3.397 3.958 5.355 5.678 3.474 3.031 7.662 5.381 12.225 6.062 4.564.681 9.502-.46 12.881-3.593 3.636-3.38 5.049-8.513 5.662-13.443.613-4.929 1.677-9.892 3.192-14.617-15.588-1.218-32.291-2.078-47.922-2.393-.008 1.311-.111 2.554.119 3.84" fill="#fff"/></mask><g mask="url(#mask1_94_6221)"><path d="m119.365 239.423 5.517 9.654c1.685-5.679 3.363-11.348 5.048-17.027 1.55 5.815 3.099 11.638 4.649 17.453 1.387-2.657 2.767-5.313 4.154-7.969 2.239 3.099 4.47 6.198 6.709 9.297.775-1.516 1.558-3.023 2.333-4.538a60.305 60.305 0 0 1 5.797 15.384 294.53 294.53 0 0 1-35.348 8.607c-.962-5.704-.604-11.187-.808-16.899-.077-2.231-.281-4.172.059-6.453.196-1.303 2.341-6.718 1.882-7.509h.008Z" fill="#231815" stroke="#231815" stroke-linecap="round" stroke-linejoin="round"/></g><path d="M156.85 218.131c-5.006-3.108-10.148-6.275-15.92-7.458-5.772-1.184-12.396 0-16.253 4.469-2.826 3.278-3.763 7.782-3.95 12.106-.451 10.753-2.06 22.127-2.767 32.871 8.182 1.209 21.693.749 29.934.077-1.975-6.879-3.959-13.758-5.934-20.637-.801-2.784-1.601-5.576-2.12-8.42-.128-.681-1.158-6.657.068-6.393.179.042.494.902.596 1.064.673 1.098 1.566 2.12 2.375 3.116 1.635 2.026 3.397 3.958 5.355 5.678 3.474 3.031 7.662 5.381 12.226 6.062 4.563.681 9.501-.46 12.88-3.593 3.636-3.38 5.049-8.513 5.662-13.443.613-4.929 1.677-9.892 3.192-14.617-15.588-1.218-32.291-2.078-47.922-2.393-.008 1.311-.111 2.554.119 3.84" stroke="#231815" stroke-linecap="round" stroke-linejoin="round"/><path d="M156.85 218.131c-5.006-3.108-10.148-6.275-15.92-7.458-5.772-1.184-12.396 0-16.253 4.469-2.826 3.278-3.763 7.782-3.95 12.106-.451 10.753-2.06 22.127-2.767 32.871 8.182 1.209 21.693.749 29.934.077-1.975-6.879-3.959-13.758-5.934-20.637-.801-2.784-1.601-5.576-2.12-8.42-.128-.681-1.158-6.657.068-6.393.179.042.494.902.596 1.064.673 1.098 1.566 2.12 2.375 3.116 1.635 2.026 3.397 3.958 5.355 5.678 3.474 3.031 7.662 5.381 12.225 6.062 4.564.681 9.502-.46 12.881-3.593 3.636-3.38 5.049-8.513 5.662-13.443.613-4.929 1.677-9.892 3.192-14.617-15.588-1.218-32.291-2.078-47.922-2.393-.008 1.311-.111 2.554.119 3.84" fill="#231815"/><path d="M156.85 218.131c-5.006-3.108-10.148-6.275-15.92-7.458-5.772-1.184-12.396 0-16.253 4.469-2.826 3.278-3.763 7.782-3.95 12.106-.451 10.753-2.06 22.127-2.767 32.871 8.182 1.209 21.693.749 29.934.077-1.975-6.879-3.959-13.758-5.934-20.637-.801-2.784-1.601-5.576-2.12-8.42-.128-.681-1.158-6.657.068-6.393.179.042.494.902.596 1.064.673 1.098 1.566 2.12 2.375 3.116 1.635 2.026 3.397 3.958 5.355 5.678 3.474 3.031 7.662 5.381 12.226 6.062 4.563.681 9.501-.46 12.88-3.593 3.636-3.38 5.049-8.513 5.662-13.443.613-4.929 1.677-9.892 3.192-14.617-15.588-1.218-32.291-2.078-47.922-2.393-.008 1.311-.111 2.554.119 3.84" stroke="#231815" stroke-miterlimit="10"/><path d="M169.739 221.212c-1.166 2.614-2.231 5.364-2.171 8.224.06 2.861 1.49 5.858 4.112 6.998 2.018.877 3.218-.255 4.282-1.89a18.965 18.965 0 0 0 2.469-5.55c.119-.443.988-4.819.613-4.853a15.044 15.044 0 0 1-3.695-.86c-1.873-.689-3.737-1.379-5.61-2.069Zm-92.09 26.435v5.193s22.748 7.015 24.944 30.308l11.834-.043s-7.168-6.129-9.084-12.719c-1.915-6.589-3.805-15.486-10.395-19.113-6.58-3.626-17.299-3.618-17.299-3.618v-.008Z" fill="#231815" stroke="#231815" stroke-miterlimit="10"/><path d="M77.828 259.072h-.179a.425.425 0 0 0-.426.425v28.223c0 .235.191.425.426.425h.179c.235 0 .425-.19.425-.425v-28.223a.425.425 0 0 0-.425-.425Z" fill="#231815"/><path d="M77.836 259.497v28.222h-.178v-28.222h.178Zm0-.851h-.178a.854.854 0 0 0-.852.851v28.222c0 .469.383.852.852.852h.178a.854.854 0 0 0 .852-.852v-28.222a.854.854 0 0 0-.852-.851Zm3.602.426h-.18a.425.425 0 0 0-.425.425v28.223c0 .235.19.425.426.425h.179c.235 0 .425-.19.425-.425v-28.223a.425.425 0 0 0-.425-.425Z" fill="#231815"/><path d="M81.438 259.497v28.222h-.18v-28.222h.18Zm0-.851h-.18a.854.854 0 0 0-.85.851v28.222c0 .469.383.852.85.852h.18a.854.854 0 0 0 .85-.852v-28.222a.854.854 0 0 0-.85-.851Z" fill="#231815"/><path d="M93.663 271.289H65.44a.425.425 0 0 0-.426.425v.179c0 .235.19.426.426.426h28.222a.426.426 0 0 0 .426-.426v-.179a.425.425 0 0 0-.426-.425Z" fill="#231815"/><path d="M93.654 271.714v.179H65.441v-.179h28.222m0-.851H65.44a.854.854 0 0 0-.852.851v.179c0 .468.383.851.852.851h28.222a.854.854 0 0 0 .851-.851v-.179a.854.854 0 0 0-.851-.851Zm0 4.035H65.44a.426.426 0 0 0-.426.426v.179c0 .235.19.425.426.425h28.222c.235 0 .426-.19.426-.425v-.179a.426.426 0 0 0-.426-.426Z" fill="#231815"/><path d="M93.654 275.324v.179H65.441v-.179h28.222m0-.851H65.44a.854.854 0 0 0-.852.851v.179c0 .468.383.851.852.851h28.222a.854.854 0 0 0 .851-.851v-.179a.854.854 0 0 0-.851-.851Z" fill="#231815"/><path d="M76.304 287.907a.427.427 0 0 1-.383-.46l2.639-28.094a.445.445 0 0 1 .153-.29.444.444 0 0 1 .273-.094c.017 0 .221.018.221.018.23.025.409.229.383.459l-2.64 28.095a.444.444 0 0 1-.152.289.438.438 0 0 1-.273.094c-.017 0-.221-.017-.221-.017Z" fill="#231815"/><path d="m78.977 259.387.179.017-2.64 28.094-.178-.017 2.64-28.094Zm0-.852a.86.86 0 0 0-.545.196.884.884 0 0 0-.306.579l-2.64 28.095a.85.85 0 0 0 .767.927l.179.018h.076a.86.86 0 0 0 .545-.196.885.885 0 0 0 .307-.579l2.639-28.095a.851.851 0 0 0-.766-.928l-.18-.017h-.084.008Zm.911 29.704a.427.427 0 0 1-.383-.46l2.64-28.094a.419.419 0 0 1 .425-.383c.017 0 .221.017.221.017a.44.44 0 0 1 .29.153.411.411 0 0 1 .093.315l-2.639 28.094a.444.444 0 0 1-.153.29.443.443 0 0 1-.273.093c-.017 0-.22-.017-.22-.017v-.008Z" fill="#231815"/><path d="m82.57 259.719.179.017-2.64 28.094-.178-.017 2.639-28.094Zm0-.852a.86.86 0 0 0-.545.196.885.885 0 0 0-.307.579l-2.639 28.095a.851.851 0 0 0 .767.928l.178.017h.077a.86.86 0 0 0 .545-.196.885.885 0 0 0 .306-.579l2.64-28.095a.851.851 0 0 0-.767-.928l-.179-.017h-.076Z" fill="#231815"/><path d="M65.62 271.008a.427.427 0 0 1-.384-.46l.017-.179a.44.44 0 0 1 .426-.391c.017 0 28.137 2.639 28.137 2.639.11.008.213.068.29.153a.448.448 0 0 1 .093.315l-.017.179a.425.425 0 0 1-.425.383c-.017 0-28.138-2.639-28.138-2.639Z" fill="#231815"/><path d="m65.68 270.403 28.094 2.639-.017.179-28.095-2.639.017-.179Zm0-.851a.844.844 0 0 0-.844.774l-.017.179a.868.868 0 0 0 .196.622c.145.17.35.281.58.306l28.094 2.639h.076a.844.844 0 0 0 .843-.774l.017-.179a.868.868 0 0 0-.196-.622.882.882 0 0 0-.579-.306l-28.094-2.639h-.077Zm-.401 5.048a.441.441 0 0 1-.29-.153.448.448 0 0 1-.093-.315l.017-.179a.425.425 0 0 1 .426-.383c.017 0 28.137 2.639 28.137 2.639.11.009.212.068.29.153a.45.45 0 0 1 .093.315l-.017.179a.425.425 0 0 1-.426.383c-.017 0-28.137-2.639-28.137-2.639Z" fill="#231815"/><path d="m65.339 273.996 28.094 2.639-.017.179-28.094-2.639.017-.179Zm0-.851a.858.858 0 0 0-.545.195.884.884 0 0 0-.307.579l-.017.179a.851.851 0 0 0 .767.928l28.094 2.639h.076a.844.844 0 0 0 .843-.775l.017-.178a.866.866 0 0 0-.195-.622.883.883 0 0 0-.58-.306l-28.094-2.639h-.076.017Z" fill="#231815"/><path d="M68.36 282.799a.4.4 0 0 1-.297-.128l-.128-.128a.436.436 0 0 1 0-.604l19.956-19.956a.413.413 0 0 1 .596 0l.127.128c.17.17.17.434 0 .605L68.66 282.671a.432.432 0 0 1-.298.128Z" fill="#231815"/><path d="m88.18 262.29.128.127-19.956 19.956-.127-.128L88.18 262.29Zm0-.852a.875.875 0 0 0-.604.247L67.62 281.641a.847.847 0 0 0 0 1.2l.128.128a.842.842 0 0 0 .604.247.88.88 0 0 0 .605-.247l19.955-19.956a.84.84 0 0 0 .247-.604.877.877 0 0 0-.247-.604l-.127-.128a.871.871 0 0 0-.605-.247v.008Zm-17.274 23.915a.4.4 0 0 1-.298-.128l-.127-.128a.421.421 0 0 1 0-.604l19.955-19.956a.427.427 0 0 1 .298-.127c.102 0 .213.042.298.127l.128.128a.434.434 0 0 1 .128.298.4.4 0 0 1-.128.298l-19.956 19.956a.436.436 0 0 1-.298.127v.009Z" fill="#231815"/><path d="m90.734 264.844.128.127-19.956 19.956-.127-.128 19.955-19.955Zm0-.852a.876.876 0 0 0-.604.247l-19.956 19.956a.842.842 0 0 0-.247.604c0 .23.094.443.247.605l.128.127c.17.171.383.247.604.247a.871.871 0 0 0 .605-.247l19.955-19.955a.844.844 0 0 0 .247-.605.88.88 0 0 0-.247-.604l-.127-.128a.876.876 0 0 0-.605-.247ZM67.22 281.207a.452.452 0 0 1-.28-.162l-.111-.145a.424.424 0 0 1 .085-.596l22.458-17.086a.43.43 0 0 1 .596.085l.11.145a.424.424 0 0 1 .086.315.456.456 0 0 1-.162.281L67.544 281.13a.4.4 0 0 1-.256.085h-.06l-.008-.008Z" fill="#231815"/><path d="m89.627 263.558.111.145L67.28 280.79l-.111-.145 22.458-17.087Zm0-.851a.88.88 0 0 0-.51.17l-22.459 17.087a.876.876 0 0 0-.332.562.808.808 0 0 0 .17.63l.111.144a.84.84 0 0 0 .681.332.873.873 0 0 0 .51-.17l22.46-17.086a.88.88 0 0 0 .332-.562.807.807 0 0 0-.17-.63l-.112-.145a.843.843 0 0 0-.68-.332Zm-20.219 21.377a.451.451 0 0 1-.28-.161l-.112-.145a.424.424 0 0 1 .086-.596l22.458-17.087a.405.405 0 0 1 .255-.085h.06c.11.017.213.077.281.162l.11.145a.424.424 0 0 1-.084.596l-22.459 17.086a.4.4 0 0 1-.255.085h-.06Z" fill="#231815"/><path d="m91.815 266.427.111.145-22.458 17.087-.111-.145 22.458-17.087Zm0-.851a.88.88 0 0 0-.51.17l-22.459 17.087a.875.875 0 0 0-.332.562.807.807 0 0 0 .17.63l.111.144a.84.84 0 0 0 .681.332.873.873 0 0 0 .51-.17l22.46-17.086a.88.88 0 0 0 .331-.562.806.806 0 0 0-.17-.63l-.11-.145a.843.843 0 0 0-.682-.332Z" fill="#231815"/><path d="M90.734 282.799a.4.4 0 0 1-.298-.128l-19.955-19.955a.436.436 0 0 1-.128-.298c0-.111.043-.222.128-.298l.127-.128a.414.414 0 0 1 .596 0l19.956 19.955c.17.171.17.435 0 .605l-.128.128a.436.436 0 0 1-.298.127v-.008Z" fill="#231815"/><path d="m70.906 262.29 19.956 19.955-.128.128-19.955-19.955.127-.128Zm0-.852a.875.875 0 0 0-.604.247l-.128.128a.844.844 0 0 0-.247.605.88.88 0 0 0 .247.604l19.956 19.956a.845.845 0 0 0 .604.246.88.88 0 0 0 .605-.246l.127-.128a.849.849 0 0 0 0-1.201l-19.955-19.955a.837.837 0 0 0-.605-.247v-.009Zm17.274 23.915a.4.4 0 0 1-.298-.128L67.927 265.27a.422.422 0 0 1 0-.605l.127-.128a.413.413 0 0 1 .596 0l19.956 19.956a.42.42 0 0 1 0 .604l-.128.128a.432.432 0 0 1-.298.128Z" fill="#231815"/><path d="m68.36 264.844 19.956 19.955-.127.128-19.956-19.956.128-.127Zm0-.852a.876.876 0 0 0-.604.247l-.127.128a.844.844 0 0 0-.247.604c0 .23.093.443.247.605l19.955 19.955a.842.842 0 0 0 .605.247c.23 0 .442-.093.604-.247l.128-.127a.849.849 0 0 0 0-1.201l-19.956-19.955a.837.837 0 0 0-.604-.247v-.009Zm23.558 17.044a.416.416 0 0 1-.256-.085l-22.705-16.754a.426.426 0 0 1-.094-.596l.11-.145a.43.43 0 0 1 .597-.085l22.705 16.755a.426.426 0 0 1 .094.595l-.11.145a.43.43 0 0 1-.341.17Z" fill="#231815"/><path d="m69.323 263.703 22.705 16.755-.11.144-22.706-16.754.11-.145Zm0-.851a.84.84 0 0 0-.681.34l-.11.145a.875.875 0 0 0-.163.63.823.823 0 0 0 .34.562l22.706 16.754a.83.83 0 0 0 .503.171c.042 0 .085 0 .127-.009a.854.854 0 0 0 .562-.34l.11-.145a.855.855 0 0 0-.178-1.192l-22.705-16.754a.869.869 0 0 0-.503-.171l-.008.009Zm20.449 21.088a.417.417 0 0 1-.255-.086L66.81 267.1a.426.426 0 0 1-.093-.596l.11-.145a.433.433 0 0 1 .341-.17c.085 0 .179.025.255.085l22.706 16.755a.426.426 0 0 1 .094.596l-.111.144a.431.431 0 0 1-.34.171Z" fill="#231815"/><path d="m67.177 266.606 22.706 16.755-.11.144-22.706-16.754.11-.145Zm0-.851s-.085 0-.127.008a.856.856 0 0 0-.562.341l-.11.145a.856.856 0 0 0 .178 1.192l22.705 16.754a.84.84 0 0 0 1.183-.17l.111-.145a.875.875 0 0 0 .162-.63.823.823 0 0 0-.34-.562L67.67 265.934a.83.83 0 0 0-.502-.171l.008-.008Z" fill="#231815"/><path d="M79.547 294.564c-11.646 0-21.121-9.475-21.121-21.122 0-11.646 9.475-21.121 21.121-21.121 11.647 0 21.122 9.475 21.122 21.121 0 11.647-9.475 21.122-21.121 21.122Zm0-36.982c-8.743 0-15.86 7.117-15.86 15.86 0 8.744 7.117 15.861 15.86 15.861 8.744 0 15.861-7.117 15.861-15.861 0-8.743-7.117-15.86-15.86-15.86Z" fill="#231815"/><path d="M79.548 252.746c11.433 0 20.696 9.263 20.696 20.696 0 11.434-9.263 20.697-20.696 20.697-11.434 0-20.697-9.263-20.697-20.697 0-11.433 9.263-20.696 20.697-20.696Zm0 36.983c8.99 0 16.286-7.288 16.286-16.287 0-8.998-7.288-16.286-16.286-16.286-9 0-16.287 7.288-16.287 16.286 0 8.999 7.288 16.287 16.287 16.287Zm0-37.834c-11.885 0-21.548 9.663-21.548 21.547 0 11.885 9.663 21.548 21.548 21.548 11.884 0 21.547-9.663 21.547-21.548 0-11.884-9.663-21.547-21.547-21.547Zm0 36.982c-8.514 0-15.435-6.921-15.435-15.435 0-8.513 6.921-15.435 15.435-15.435 8.513 0 15.434 6.922 15.434 15.435 0 8.514-6.921 15.435-15.434 15.435Z" fill="#231815"/><path d="M79.548 291.457c-9.936 0-18.015-8.079-18.015-18.015 0-9.935 8.08-18.014 18.015-18.014s18.014 8.079 18.014 18.014c0 9.936-8.08 18.015-18.014 18.015Zm0-31.534c-7.577 0-13.733 6.164-13.733 13.732 0 7.569 6.164 13.732 13.733 13.732 7.568 0 13.732-6.163 13.732-13.732 0-7.568-6.164-13.732-13.732-13.732Z" fill="#231815"/><path d="M79.548 255.862c9.713 0 17.588 7.875 17.588 17.589 0 9.714-7.875 17.589-17.588 17.589-9.714 0-17.59-7.875-17.59-17.589 0-9.714 7.876-17.589 17.59-17.589Zm0 31.96c7.823 0 14.157-6.343 14.157-14.158 0-7.816-6.342-14.158-14.157-14.158-7.816 0-14.158 6.342-14.158 14.158 0 7.815 6.342 14.158 14.158 14.158Zm0-32.811c-10.166 0-18.44 8.266-18.44 18.44 0 10.173 8.266 18.44 18.44 18.44 10.173 0 18.44-8.267 18.44-18.44 0-10.174-8.267-18.44-18.44-18.44Zm0 31.959c-7.339 0-13.307-5.968-13.307-13.306 0-7.339 5.968-13.307 13.307-13.307 7.338 0 13.306 5.968 13.306 13.307 0 7.338-5.968 13.306-13.306 13.306Z" fill="#231815"/><path d="M79.548 277.895a4.295 4.295 0 0 1-4.291-4.291 4.295 4.295 0 0 1 4.29-4.291 4.295 4.295 0 0 1 4.291 4.291 4.295 4.295 0 0 1-4.29 4.291Z" fill="#231815"/><path d="M79.547 269.748a3.862 3.862 0 0 1 3.866 3.865 3.862 3.862 0 0 1-3.865 3.865 3.862 3.862 0 0 1-3.866-3.865 3.862 3.862 0 0 1 3.865-3.865Zm0-.852a4.716 4.716 0 1 0 0 9.433 4.716 4.716 0 1 0 0-9.433Z" fill="#231815"/><path d="M81.335 273.613a1.797 1.797 0 1 1-3.593-.002 1.797 1.797 0 0 1 3.593.002Z" fill="#231815" stroke="#231815" stroke-miterlimit="10"/><path d="M87.5 251.239c-18.151-6.078-26.818 9.484-26.818 9.484-2.393 3.236 3.533 4.104 3.533 4.104s26.928 3.031 29.559 4.231c2.8 1.286 4.222 4.18 4.92 7.024.315 1.268.545 2.537.613 3.848.085 1.66-.119 3.627 2.171 3.584 2.188-.043 1.992-2.903 1.992-2.903 2.35-25.217-15.962-29.372-15.962-29.372h-.009Z" fill="#231815" stroke="#231815" stroke-miterlimit="10"/><path d="M184.782 259.072h-.178a.425.425 0 0 0-.426.425v28.223c0 .235.191.425.426.425h.178c.236 0 .426-.19.426-.425v-28.223a.425.425 0 0 0-.426-.425Z" fill="#231815"/><path d="M184.791 259.497v28.222h-.179v-28.222h.179Zm0-.851h-.179a.854.854 0 0 0-.851.851v28.222c0 .469.383.852.851.852h.179a.854.854 0 0 0 .851-.852v-28.222a.854.854 0 0 0-.851-.851Zm3.601.426h-.179a.425.425 0 0 0-.425.425v28.223c0 .235.19.425.425.425h.179c.235 0 .426-.19.426-.425v-28.223a.425.425 0 0 0-.426-.425Z" fill="#231815"/><path d="M188.392 259.497v28.222h-.179v-28.222h.179Zm0-.851h-.179a.854.854 0 0 0-.851.851v28.222c0 .469.383.852.851.852h.179a.855.855 0 0 0 .852-.852v-28.222a.854.854 0 0 0-.852-.851Z" fill="#231815"/><path d="M200.618 271.289h-28.223a.425.425 0 0 0-.425.425v.179c0 .235.19.426.425.426h28.223a.425.425 0 0 0 .425-.426v-.179a.425.425 0 0 0-.425-.425Z" fill="#231815"/><path d="M200.609 271.714v.179h-28.222v-.179h28.222Zm0-.851h-28.222a.854.854 0 0 0-.852.851v.179c0 .468.384.851.852.851h28.222a.854.854 0 0 0 .851-.851v-.179a.854.854 0 0 0-.851-.851Zm.009 4.035h-28.223a.425.425 0 0 0-.425.426v.179c0 .235.19.425.425.425h28.223c.235 0 .425-.19.425-.425v-.179a.425.425 0 0 0-.425-.426Z" fill="#231815"/><path d="M200.609 275.324v.179h-28.222v-.179h28.222Zm0-.851h-28.222a.854.854 0 0 0-.852.851v.179c0 .468.384.851.852.851h28.222a.854.854 0 0 0 .851-.851v-.179a.854.854 0 0 0-.851-.851Z" fill="#231815"/><path d="M183.25 287.907a.426.426 0 0 1-.383-.46l2.639-28.094a.447.447 0 0 1 .153-.29.447.447 0 0 1 .273-.094c.017 0 .221.018.221.018.23.025.409.229.383.459l-2.639 28.095a.442.442 0 0 1-.153.289.438.438 0 0 1-.273.094c-.017 0-.221-.017-.221-.017Z" fill="#231815"/><path d="m185.932 259.387.178.017-2.639 28.094-.179-.017 2.64-28.094Zm0-.852a.86.86 0 0 0-.545.196.884.884 0 0 0-.307.579l-2.639 28.095a.85.85 0 0 0 .766.927l.179.018h.077a.861.861 0 0 0 .545-.196.883.883 0 0 0 .306-.579l2.639-28.095a.85.85 0 0 0-.766-.928l-.179-.017h-.085.009Zm.911 29.704a.428.428 0 0 1-.384-.46l2.64-28.094a.418.418 0 0 1 .425-.383c.017 0 .222.017.222.017.11.008.212.068.289.153a.412.412 0 0 1 .094.315l-2.639 28.094a.448.448 0 0 1-.154.29.44.44 0 0 1-.272.093c-.017 0-.221-.017-.221-.017v-.008Z" fill="#231815"/><path d="m189.524 259.719.179.017-2.639 28.094-.179-.017 2.639-28.094Zm0-.852a.859.859 0 0 0-.544.196.884.884 0 0 0-.307.579l-2.639 28.095a.85.85 0 0 0 .766.928l.179.017h.076a.86.86 0 0 0 .545-.196.884.884 0 0 0 .307-.579l2.639-28.095a.85.85 0 0 0-.766-.928l-.179-.017h-.077Z" fill="#231815"/><path d="M172.574 271.008a.44.44 0 0 1-.289-.154.445.445 0 0 1-.094-.315l.017-.178a.425.425 0 0 1 .426-.383c.017 0 28.137 2.639 28.137 2.639.11.008.212.068.289.153a.452.452 0 0 1 .094.315l-.017.179a.426.426 0 0 1-.426.383c-.017 0-28.137-2.639-28.137-2.639Z" fill="#231815"/><path d="m172.634 270.403 28.094 2.639-.017.179-28.094-2.639.017-.179Zm0-.851a.843.843 0 0 0-.843.774l-.017.179a.867.867 0 0 0 .196.622.88.88 0 0 0 .579.306l28.094 2.639h.077a.843.843 0 0 0 .842-.774l.017-.179a.872.872 0 0 0-.195-.622.883.883 0 0 0-.579-.306l-28.095-2.639h-.076Zm-.4 5.048a.442.442 0 0 1-.29-.153.452.452 0 0 1-.094-.315l.017-.179a.426.426 0 0 1 .426-.383c.017 0 28.137 2.639 28.137 2.639a.447.447 0 0 1 .29.153.448.448 0 0 1 .093.315l-.017.179a.424.424 0 0 1-.426.383c-.017 0-28.136-2.639-28.136-2.639Z" fill="#231815"/><path d="m172.293 273.996 28.095 2.639-.018.179-28.094-2.639.017-.179Zm0-.851a.858.858 0 0 0-.545.195.883.883 0 0 0-.306.579l-.017.179a.85.85 0 0 0 .766.928l28.094 2.639h.077a.844.844 0 0 0 .843-.775l.017-.178a.865.865 0 0 0-.196-.622.883.883 0 0 0-.579-.306l-28.094-2.639h-.077.017Z" fill="#231815"/><path d="M175.316 282.799a.399.399 0 0 1-.298-.128l-.128-.128a.436.436 0 0 1 0-.604l19.955-19.956a.41.41 0 0 1 .596 0l.128.128c.17.17.17.434 0 .605l-19.955 19.955a.434.434 0 0 1-.298.128Z" fill="#231815"/><path d="m195.135 262.29.127.128-19.955 19.955-.128-.128 19.956-19.955Zm0-.852a.882.882 0 0 0-.605.247l-19.955 19.956a.847.847 0 0 0 0 1.2l.127.128a.843.843 0 0 0 .605.247c.23 0 .443-.094.604-.247l19.956-19.956a.847.847 0 0 0 0-1.2l-.128-.128a.845.845 0 0 0-.604-.247Zm-17.274 23.915a.4.4 0 0 1-.298-.128l-.128-.128a.438.438 0 0 1 0-.604l19.956-19.956a.414.414 0 0 1 .596 0l.127.128a.42.42 0 0 1 0 .605l-19.955 19.955a.432.432 0 0 1-.298.128Z" fill="#231815"/><path d="m197.689 264.844.128.127-19.956 19.956-.128-.128 19.956-19.955Zm0-.852a.879.879 0 0 0-.605.247l-19.955 19.956a.847.847 0 0 0 0 1.2l.128.128a.84.84 0 0 0 .604.247c.23 0 .443-.094.605-.247l19.955-19.956a.84.84 0 0 0 .247-.604.882.882 0 0 0-.247-.605l-.128-.127a.87.87 0 0 0-.604-.247v.008Zm-23.514 17.215a.451.451 0 0 1-.281-.162l-.111-.145a.424.424 0 0 1 .085-.596l22.459-17.086a.396.396 0 0 1 .255-.085h.06c.11.017.212.076.281.161l.11.145a.424.424 0 0 1-.085.596l-22.458 17.087a.407.407 0 0 1-.256.085h-.059Z" fill="#231815"/><path d="m196.582 263.558.111.145-22.459 17.087-.11-.145 22.458-17.087Zm0-.851a.885.885 0 0 0-.519.17l-22.459 17.087a.878.878 0 0 0-.332.562.807.807 0 0 0 .171.63l.11.144a.84.84 0 0 0 .681.332.873.873 0 0 0 .511-.17l22.459-17.086a.853.853 0 0 0 .161-1.192l-.11-.145a.879.879 0 0 0-.562-.332h-.119.008Zm-20.219 21.377a.45.45 0 0 1-.281-.161l-.111-.145a.424.424 0 0 1 .085-.596l22.459-17.087a.402.402 0 0 1 .255-.085h.06c.11.017.212.077.281.162l.11.145a.424.424 0 0 1-.085.596l-22.458 17.086a.401.401 0 0 1-.256.085h-.059Z" fill="#231815"/><path d="m198.77 266.427.111.145-22.459 17.087-.111-.145 22.459-17.087Zm0-.851a.88.88 0 0 0-.511.17l-22.458 17.087a.874.874 0 0 0-.332.562.807.807 0 0 0 .17.63l.111.144a.84.84 0 0 0 .681.332.872.872 0 0 0 .51-.17l22.459-17.086a.879.879 0 0 0 .332-.562.809.809 0 0 0-.17-.63l-.111-.145a.843.843 0 0 0-.681-.332Z" fill="#231815"/><path d="M197.689 282.799a.399.399 0 0 1-.298-.128l-19.956-19.955a.423.423 0 0 1 0-.605l.128-.128a.414.414 0 0 1 .596 0l19.956 19.956c.17.162.17.434 0 .604l-.128.128a.432.432 0 0 1-.298.128Z" fill="#231815"/><path d="m177.861 262.29 19.955 19.955-.127.128-19.956-19.955.128-.128Zm0-.852a.879.879 0 0 0-.605.247l-.127.128a.843.843 0 0 0-.247.605c0 .229.093.442.247.604l19.955 19.956a.846.846 0 0 0 .605.246c.23 0 .442-.093.604-.246l.128-.128a.849.849 0 0 0 0-1.201l-19.956-19.955a.836.836 0 0 0-.604-.247v-.009Zm17.274 23.915a.399.399 0 0 1-.298-.128l-19.956-19.955a.423.423 0 0 1 0-.605l.128-.128a.414.414 0 0 1 .596 0l19.955 19.956a.42.42 0 0 1 0 .604l-.127.128a.434.434 0 0 1-.298.128Z" fill="#231815"/><path d="m175.315 264.844 19.956 19.955-.128.128-19.955-19.956.127-.127Zm0-.852a.875.875 0 0 0-.604.247l-.128.128a.847.847 0 0 0-.247.604c0 .23.094.443.247.605l19.956 19.955a.84.84 0 0 0 .604.247c.23 0 .443-.093.605-.247l.127-.127a.849.849 0 0 0 0-1.201l-19.955-19.955a.837.837 0 0 0-.605-.247v-.009Zm23.557 17.044a.398.398 0 0 1-.255-.085l-22.706-16.754a.428.428 0 0 1-.093-.596l.11-.145a.432.432 0 0 1 .341-.17c.085 0 .179.025.255.085l22.706 16.755a.43.43 0 0 1 .093.595l-.11.145a.424.424 0 0 1-.281.17h-.068.008Z" fill="#231815"/><path d="m176.277 263.703 22.706 16.755-.111.144-22.705-16.754.11-.145Zm0-.851a.84.84 0 0 0-.681.34l-.11.145a.874.874 0 0 0-.162.63.852.852 0 0 0 .341.562l22.705 16.754a.83.83 0 0 0 .502.171c.043 0 .085 0 .128-.009a.855.855 0 0 0 .562-.34l.11-.145a.856.856 0 0 0-.178-1.192l-22.706-16.754a.868.868 0 0 0-.502-.171l-.009.009Zm20.45 21.088a.42.42 0 0 1-.256-.086L173.766 267.1a.424.424 0 0 1-.17-.281.42.42 0 0 1 .076-.315l.111-.145a.433.433 0 0 1 .341-.17c.085 0 .178.025.255.085l22.705 16.755a.426.426 0 0 1 .094.596l-.111.144a.43.43 0 0 1-.34.171Z" fill="#231815"/><path d="m174.132 266.606 22.705 16.755-.11.144-22.706-16.754.111-.145Zm0-.851s-.085 0-.128.008a.854.854 0 0 0-.561.341l-.111.145a.855.855 0 0 0 .179 1.192l22.705 16.754a.838.838 0 0 0 1.183-.17l.111-.145a.879.879 0 0 0 .162-.63.852.852 0 0 0-.341-.562l-22.705-16.754a.832.832 0 0 0-.502-.171l.008-.008Z" fill="#231815"/><path d="M186.502 294.564c-11.646 0-21.122-9.475-21.122-21.122 0-11.646 9.476-21.121 21.122-21.121 11.646 0 21.122 9.475 21.122 21.121 0 11.647-9.476 21.122-21.122 21.122Zm0-36.982c-8.743 0-15.861 7.117-15.861 15.86 0 8.744 7.118 15.861 15.861 15.861s15.861-7.117 15.861-15.861c0-8.743-7.118-15.86-15.861-15.86Z" fill="#231815"/><path d="M186.502 252.746c11.434 0 20.696 9.263 20.696 20.696 0 11.434-9.262 20.697-20.696 20.697-11.433 0-20.696-9.263-20.696-20.697 0-11.433 9.263-20.696 20.696-20.696Zm0 36.983c8.99 0 16.286-7.288 16.286-16.287 0-8.998-7.287-16.286-16.286-16.286-8.999 0-16.286 7.288-16.286 16.286 0 8.999 7.287 16.287 16.286 16.287Zm0-37.834c-11.885 0-21.547 9.663-21.547 21.547 0 11.885 9.662 21.548 21.547 21.548s21.548-9.663 21.548-21.548c0-11.884-9.663-21.547-21.548-21.547Zm0 36.982c-8.513 0-15.435-6.921-15.435-15.435 0-8.513 6.922-15.435 15.435-15.435 8.514 0 15.435 6.922 15.435 15.435 0 8.514-6.921 15.435-15.435 15.435Z" fill="#231815"/><path d="M186.502 291.457c-9.935 0-18.014-8.079-18.014-18.015 0-9.935 8.079-18.014 18.014-18.014 9.935 0 18.015 8.079 18.015 18.014 0 9.936-8.08 18.015-18.015 18.015Zm0-31.534c-7.577 0-13.732 6.164-13.732 13.732 0 7.569 6.164 13.732 13.732 13.732s13.732-6.163 13.732-13.732c0-7.568-6.164-13.732-13.732-13.732Z" fill="#231815"/><path d="M186.502 255.862c9.714 0 17.589 7.875 17.589 17.589 0 9.714-7.875 17.589-17.589 17.589-9.714 0-17.589-7.875-17.589-17.589 0-9.714 7.875-17.589 17.589-17.589Zm0 31.96c7.824 0 14.158-6.343 14.158-14.158 0-7.816-6.342-14.158-14.158-14.158-7.815 0-14.158 6.342-14.158 14.158 0 7.815 6.343 14.158 14.158 14.158Zm0-32.811c-10.165 0-18.44 8.266-18.44 18.44 0 10.173 8.267 18.44 18.44 18.44 10.174 0 18.44-8.267 18.44-18.44 0-10.174-8.266-18.44-18.44-18.44Zm0 31.959c-7.338 0-13.306-5.968-13.306-13.306 0-7.339 5.968-13.307 13.306-13.307 7.339 0 13.307 5.968 13.307 13.307 0 7.338-5.968 13.306-13.307 13.306Z" fill="#231815"/><path d="M186.502 277.895a4.295 4.295 0 0 1-4.291-4.291 4.295 4.295 0 0 1 4.291-4.291 4.295 4.295 0 0 1 4.291 4.291 4.295 4.295 0 0 1-4.291 4.291Z" fill="#231815"/><path d="M186.502 269.748a3.862 3.862 0 0 1 3.865 3.865 3.862 3.862 0 0 1-3.865 3.865 3.862 3.862 0 0 1-3.865-3.865 3.862 3.862 0 0 1 3.865-3.865Zm0-.852a4.715 4.715 0 1 0 0 9.433 4.716 4.716 0 1 0 0-9.433Z" fill="#231815"/><path d="M186.502 275.826a2.224 2.224 0 0 1-2.222-2.222c0-1.226.996-2.222 2.222-2.222s2.222.996 2.222 2.222a2.224 2.224 0 0 1-2.222 2.222Z" fill="#231815"/><path d="M186.502 271.816a1.798 1.798 0 1 1-.001 3.595 1.798 1.798 0 0 1 .001-3.595Zm0-.851a2.65 2.65 0 0 0-2.648 2.648 2.645 2.645 0 0 0 2.648 2.647 2.645 2.645 0 0 0 2.648-2.647 2.645 2.645 0 0 0-2.648-2.648Zm.783-1.907a1.9 1.9 0 0 1-1.898 1.898H144.71a1.9 1.9 0 0 1-1.899-1.898 1.9 1.9 0 0 1 1.899-1.899h40.677a1.9 1.9 0 0 1 1.898 1.899Z" fill="#231815"/><path d="M181.684 283.905c-.665 0-1.38-.051-2.257-.153l-33.968-1.158c-.188 0-4.453-.221-7.381-3.422-1.899-2.077-2.776-4.912-2.614-8.437 0-.076.579-4.282 5.321-4.282.306 0 .63.017.97.051l40.695-2.077c.238-.017.476-.026.723-.026 5.049 0 9.297 3.942 9.672 8.982.4 5.338-3.619 10.003-8.956 10.403l-.426.034c-.622.051-1.158.094-1.779.094v-.009Z" fill="#231815"/><path d="M183.182 264.827a9.282 9.282 0 0 1 9.245 8.59c.384 5.108-3.447 9.561-8.564 9.944-.809.059-1.43.119-2.18.119-.595 0-1.277-.043-2.204-.153l-34.003-1.167s-10.106-.417-9.586-11.416c0 0 .476-3.874 4.895-3.874.289 0 .596.017.919.051l40.763-2.077c.238-.017.468-.026.698-.026m0-.851c-.256 0-.511.009-.766.026l-40.678 2.077a9.027 9.027 0 0 0-.945-.051c-4.095 0-5.542 3.022-5.746 4.623v.059c-.171 3.644.74 6.581 2.724 8.743 3.048 3.329 7.492 3.551 7.679 3.559l33.969 1.166c.868.103 1.592.154 2.273.154s1.192-.043 1.822-.094l.426-.034c5.567-.417 9.764-5.287 9.347-10.855-.391-5.252-4.827-9.373-10.097-9.373h-.008Z" fill="#231815"/><path d="M139.397 274.43c-1.498 0-2.665-.775-2.665-1.754s1.167-1.737 2.657-1.737l33.534.077c1.498 0 2.665.775 2.665 1.754s-1.175 1.737-2.665 1.737l-33.534-.077h.008Z" fill="#231815"/><path d="m139.397 271.365 33.526.077c1.235 0 2.239.596 2.239 1.328 0 .724-1.004 1.311-2.239 1.311h-.008l-33.526-.077c-1.243 0-2.239-.596-2.239-1.328 0-.723 1.004-1.311 2.239-1.311m0-.851c-1.763 0-3.091.928-3.091 2.162 0 1.235 1.328 2.171 3.091 2.18l33.526.076c1.77 0 3.098-.928 3.098-2.162 0-.656-.391-1.269-1.072-1.669-.554-.323-1.269-.51-2.018-.51l-33.526-.077h-.008Z" fill="#231815"/><path d="M176.294 273.843c.281 3.805 3.602 6.657 7.407 6.376 3.806-.281 6.658-3.601 6.377-7.407-.281-3.805-3.601-6.657-7.407-6.376-3.805.281-6.657 3.601-6.377 7.407Zm-81.524-62.43-5.5 22.527s-1.251 3.831 0 4.512l7.483 2.963 6.002-20.552s3.687-6.002 5.917-10.369c0 0 2.767-6.24 2.367-6.24-4.223 0-10.991-6.42-10.991-6.42s-4.333.375-4.384 1.473c-.043 1.099-.894 12.098-.894 12.098v.008Z" fill="#231815" stroke="#231815" stroke-miterlimit="10"/><path d="M103.802 205.675c-.059 4.325-6.104 8.548-14.643 7.841-1.634-.136-2.97-3.507-2.97-7.841 0-4.333 1.361-7.585 2.97-7.841 7.194-1.123 14.686 4.214 14.643 7.841Z" fill="#231815" stroke="#231815" stroke-miterlimit="10"/><path d="M89.261 197.826s-.068 0-.093.008c-1.61.256-2.972 3.508-2.972 7.841 0 4.334 1.337 7.705 2.972 7.841h.093v-15.699.009Z" fill="#231815" stroke="#231815" stroke-miterlimit="10"/><path d="M87.593 199.163c-.835 1.379-1.405 3.72-1.405 6.512 0 2.793.562 5.202 1.405 6.581v-13.093Z" fill="#231815" stroke="#231815" stroke-linecap="round" stroke-linejoin="round"/><path d="M108.842 199.869c-3.584-1.149-5.014-1.251-6.376-1.762-1.396-.434-2.682-.928-3.993-.877-1.439.06-3.474 0-4.095.809.102 4.095-.077 14.055 0 15.545 7.075 1.933 9.927 1.201 11.527.767 1.158-.469 3.082-2.248 4.546-5.458 0 0 2.418-7.73-1.6-9.024h-.009Z" fill="#231815" stroke="#231815" stroke-miterlimit="10"/><path d="M99.146 208.893a1.41 1.41 0 0 1-1.414 1.414h-3.89a1.41 1.41 0 0 1-1.413-1.414c0-.783.63-1.413 1.413-1.413h3.89c.784 0 1.414.63 1.414 1.413Z" fill="#231815" stroke="#231815" stroke-miterlimit="10"/><path d="M113.908 182.468c-1.396 0-2.597-3.287-3.116-6.343-.289-1.711-.383-3.354-.255-4.631.144-1.49.57-2.307 1.251-2.418.026 0 .128-.009.153-.009 1.397 0 2.597 3.287 3.116 6.343.545 3.227.468 6.811-.987 7.058-.026 0-.128.008-.154.008l-.008-.008Z" fill="#231815"/><path d="M111.933 169.476c.936 0 2.12 2.622 2.698 5.994.588 3.465.298 6.402-.647 6.563h-.085c-.936 0-2.12-2.622-2.698-5.993-.588-3.465-.298-6.402.647-6.564h.085Zm0-.851c-.077 0-.154 0-.222.017-.894.153-1.43 1.098-1.6 2.801-.128 1.311-.034 2.996.264 4.75.187 1.115 1.251 6.7 3.533 6.7.076 0 .153 0 .221-.017 2.478-.425 1.465-6.819 1.337-7.551-.187-1.115-1.252-6.7-3.533-6.7Z" fill="#231815"/><path d="M113.908 182.468c-.162 0-.315-.043-.477-.119a.425.425 0 0 1-.23-.358c0-.153.068-.298.196-.383.477-.298.843-2.631.264-6.062-.528-3.082-1.524-5.27-2.188-5.61a.422.422 0 0 1-.23-.358c0-.153.068-.298.196-.383a.881.881 0 0 1 .349-.136c.026 0 .128-.017.153-.017 1.396 0 2.597 3.286 3.116 6.343.545 3.226.468 6.81-.987 7.057-.026 0-.128.009-.154.009l-.008.017Z" fill="#231815"/><path d="M111.933 169.476c.936 0 2.128 2.622 2.698 5.994.588 3.465.298 6.402-.647 6.563h-.076a.582.582 0 0 1-.281-.076c.792-.502 1.004-3.269.451-6.487-.519-3.04-1.541-5.475-2.418-5.917.06-.034.119-.068.188-.077h.085Zm0-.851c-.077 0-.154 0-.222.017-.17.025-.34.093-.502.196a.844.844 0 0 0 .077 1.472c.391.196 1.404 2.01 1.966 5.304.562 3.286.205 5.33-.102 5.653a.843.843 0 0 0-.383.749.845.845 0 0 0 .477.707c.213.111.442.162.664.162.076 0 .153 0 .221-.017 2.478-.426 1.464-6.82 1.337-7.552-.188-1.115-1.252-6.7-3.533-6.7v.009Zm-2.767 36.063c-.954 0-1.831-1.005-2.035-2.333-.128-.843.034-1.686.443-2.239.264-.366.613-.587 1.004-.647.068-.009.145-.017.213-.017.954 0 1.831 1.004 2.035 2.333.128.842-.034 1.685-.443 2.239-.264.366-.613.587-1.004.647a1.91 1.91 0 0 1-.213.017Z" fill="#231815"/><path d="M108.791 199.878c.741 0 1.448.843 1.618 1.975.187 1.2-.307 2.281-1.098 2.401-.051 0-.103.008-.145.008-.741 0-1.447-.843-1.618-1.966-.187-1.201.307-2.282 1.099-2.401.051 0 .102-.009.144-.009m0-.851c-.093 0-.187 0-.272.017-.664.102-1.235.57-1.558 1.277-.273.604-.366 1.345-.247 2.086.238 1.558 1.277 2.69 2.46 2.69.094 0 .188 0 .273-.017.664-.102 1.234-.57 1.558-1.277.272-.604.366-1.345.247-2.086-.239-1.558-1.277-2.69-2.461-2.69Z" fill="#231815"/><path d="M109.583 204.373c-.673 0-1.294-.605-1.549-.971-.375-.519-.69-1.362-.452-2.162.179-.613.741-1.32 1.414-1.439l5.482-.945s.094-.008.119-.008c.741 0 1.201 1.132 1.371 2.094.196 1.132.051 2.333-.698 2.46 0 0-5.406.928-5.483.945a1.3 1.3 0 0 1-.187.017l-.017.009Z" fill="#231815"/><path d="M114.589 199.282c.366 0 .775.757.945 1.745.179 1.022.017 1.907-.358 1.967l-5.482.945c-.034 0-.077.008-.111.008-.468 0-.971-.46-1.209-.792-.358-.493-.57-1.191-.392-1.787.137-.443.579-1.048 1.073-1.141l5.483-.945h.042m0-.852c-.059 0-.127 0-.187.017l-5.483.945c-.953.162-1.566 1.124-1.745 1.737-.281.945.085 1.933.519 2.537.384.528 1.107 1.141 1.899 1.141.085 0 .17 0 .255-.026l5.483-.945c.324-.059.894-.298 1.073-1.311.085-.468.076-1.047-.026-1.643-.204-1.183-.783-2.452-1.788-2.452Z" fill="#231815"/><path d="M114.972 203.845c-.954 0-1.822-.962-2.06-2.282-.264-1.455.34-2.732 1.379-2.92.085-.017.162-.025.247-.025.962 0 1.822.962 2.06 2.281.264 1.456-.34 2.733-1.379 2.92a1.22 1.22 0 0 1-.247.026Z" fill="#231815"/><path d="M114.529 199.043c.733 0 1.448.818 1.643 1.933.213 1.2-.246 2.281-1.03 2.426-.059.009-.11.017-.17.017-.732 0-1.439-.817-1.643-1.932-.213-1.201.247-2.282 1.03-2.427.06-.008.111-.017.17-.017Zm0-.851c-.11 0-.212.008-.323.025-1.269.23-2.026 1.729-1.72 3.414.273 1.524 1.32 2.631 2.478 2.631.11 0 .221-.009.323-.026 1.269-.229 2.026-1.728 1.72-3.413-.273-1.524-1.32-2.631-2.478-2.631Z" fill="#231815"/><path d="M93.68 205.156s-4.955 1.073-4.044 4.342c.477 1.703 5.78 3.278 7.534 2.307.75-.417.869-4.657.188-6.164-.358-.783-2.265-.826-3.67-.485h-.008Z" fill="#231815" stroke="#231815" stroke-miterlimit="10"/><path d="M105.769 202.619c-.332 0-.562-.204-.604-.238a.347.347 0 0 1-.094-.128l-1.43-3.022c-1.277-2.273.63-5.781.715-5.934l7.015-17.964a.436.436 0 0 1 .4-.272h.077a.785.785 0 0 1 .587.409c.272.502-.026 1.243-.085 1.387l-7.117 18.364c-.656 1.745-.332 3.082-.324 3.09.511 1.056 1.405 2.912 1.499 3.082a.987.987 0 0 1 .051.852.505.505 0 0 1-.094.127.88.88 0 0 1-.587.239l-.009.008Z" fill="#231815"/><path d="M111.763 175.487c.655.11.187 1.209.187 1.209l-7.117 18.38c-.716 1.916-.341 3.354-.341 3.354s1.405 2.946 1.541 3.184c.136.239.034.452.034.452a.436.436 0 0 1-.298.127c-.179 0-.315-.127-.315-.127l-1.43-3.023c-1.184-2.12.698-5.542.698-5.542l7.041-18.014Zm0-.852a.845.845 0 0 0-.792.545l-7.024 17.964c-.315.578-1.983 3.916-.689 6.291l1.421 2.997a.914.914 0 0 0 .188.255c.085.085.417.358.902.358.324 0 .622-.12.868-.349a.904.904 0 0 0 .188-.256 1.353 1.353 0 0 0-.06-1.243c-.094-.17-.817-1.677-1.473-3.039-.051-.264-.196-1.371.332-2.775l7.118-18.372c.093-.213.408-1.065.051-1.729a1.222 1.222 0 0 0-.894-.63c-.051 0-.094-.008-.145-.008l.009-.009Z" fill="#231815"/><path d="M106.501 276.797c1.958 4.571 4.768 9.109 8.258 9.441h37.962s12.94.996 15.699-9.441h-61.919Z" fill="#231815" stroke="#231815" stroke-miterlimit="10"/><path d="M157.624 282.961h-39.987c-1.728 0-3.133.17-4.751-.665-1.617-.834-2.792-2.179-3.712-3.677-1.898-3.065-2.775-6.717-3.558-10.174-2.776-12.157-4.24-11.374-7.816-17.316-3.575-5.943.835-13.775 3.44-22.535 1.166-3.925 1.447-6.445 1.405-8.037-.307-.962-.894-1.907-1.644-2.452-.34-.247-.689-.502-1.072-.673-.945-.417-2.929-1.081-3.959-1.157-1.847-.137-2.852.272-6.623 3.354-7.16 5.84-12.89 17.129-13.4 26.758 0 0-.64 3.303 2.647 2.75 3.286-.545 21.599 1.413 25.081 19.419 0 0 3.916 16.993 11.084 17.682h37.962s6.93.528 11.723-3.277h-6.82Z" fill="#231815" stroke="#231815" stroke-miterlimit="10"/><path d="M220.079 271.629c-3.575-.911-3.073-4.563-3.073-4.563-.247-15.495-10.846-24.264-10.846-24.264-15.486-11.85-34.71-3.311-34.71-3.311-4.844 2.017-3.107-6.751-3.107-6.751h-7.126l-.511 3.413c-.076.486-.144.979-.213 1.465l-17.69-.724v.817h-5.636s-.733 4.751 1.183 5.662c1.915.911 9.884 2.826 10.148 9.399.264 6.572-15.392 5.593-14.958 22.279 0 0 85.177-1.226 86.931-1.898 2.605-1.005-.375-1.533-.375-1.533l-.017.009Z" fill="#231815" stroke="#231815" stroke-miterlimit="10"/><path d="M207.692 238.733c-.272 0-.485-.017-.604-.034h-21.854a1.52 1.52 0 0 1-1.524-1.515c0-.835.681-1.524 1.524-1.524h21.973c.068 0 .145 0 .213.017.051 0 .144.017.264.017.442 0 .825-.085 1.013-.23.051-.034.136-.102.161-.375.247-2.077.017-7.475-.008-8.079a1.536 1.536 0 0 1 1.447-1.601c.886 0 1.55.639 1.584 1.448.042 1.047.255 6.317-.009 8.581-.119 1.005-.579 1.848-1.328 2.427-.928.715-2.06.859-2.852.859v.009Z" fill="#231815"/><path d="M210.365 225.835c.579 0 1.073.46 1.099 1.047.008.247.272 6.13 0 8.514-.103.894-.511 1.634-1.167 2.137-.851.655-1.915.774-2.596.774-.247 0-.452-.017-.562-.025h-21.905a1.101 1.101 0 0 1-1.099-1.098c0-.605.494-1.099 1.099-1.099h21.973c.051 0 .102 0 .153.009.068.008.187.017.324.017.383 0 .936-.06 1.268-.324.128-.102.281-.263.324-.655.264-2.214 0-8.096 0-8.156a1.095 1.095 0 0 1 1.047-1.141h.051m0-.851h-.085a1.948 1.948 0 0 0-1.865 2.035c0 .059.264 5.891.009 8.019a.285.285 0 0 1-.026.111c-.051.025-.315.111-.732.111-.093 0-.17 0-.221-.009a2.566 2.566 0 0 0-.264-.017h-21.973c-1.073 0-1.95.877-1.95 1.95 0 1.072.877 1.949 1.95 1.949h21.854c.144.017.349.026.604.026.86 0 2.094-.162 3.116-.954.843-.647 1.362-1.592 1.498-2.716.281-2.4.043-8.019.009-8.649a1.948 1.948 0 0 0-1.95-1.856h.026Z" fill="#231815"/><path d="M191.738 238.154a1.522 1.522 0 0 1-1.524-1.524v-7.117c0-.843.681-1.524 1.524-1.524s1.524.681 1.524 1.524v7.117c0 .843-.681 1.524-1.524 1.524Z" fill="#231815"/><path d="M191.738 228.415c.604 0 1.098.494 1.098 1.098v7.117c0 .605-.494 1.099-1.098 1.099a1.1 1.1 0 0 1-1.098-1.099v-7.117a1.1 1.1 0 0 1 1.098-1.098Zm0-.852c-1.073 0-1.95.877-1.95 1.95v7.117c0 1.073.877 1.95 1.95 1.95a1.954 1.954 0 0 0 1.949-1.95v-7.117c0-1.073-.876-1.95-1.949-1.95Z" fill="#231815"/><path d="M204.576 242.556s7.977 6.759 10.438 15.996c0 0 .613 2.052 1.098 6.981.477 4.93.817 6.309 3.559 6.573 0 0-3.559.689-4.019-2.733-.528-3.967-.843-16.269-11.076-26.826v.009Z" fill="#231815" stroke="#231815" stroke-miterlimit="10"/><path d="M220.079 271.629c-3.576-.911-3.073-4.563-3.073-4.563-.247-15.495-10.846-24.264-10.846-24.264-15.486-11.85-34.71-3.311-34.71-3.311-4.844 2.017-3.107-6.751-3.107-6.751h-7.126l-.511 3.413c-.076.486-.144.979-.213 1.465l-17.69-.724v.817h-5.636s-.733 4.751 1.183 5.662c1.915.911 9.884 2.826 10.148 9.399.264 6.572-15.392 5.593-14.958 22.279 0 0 9.263-.136 21.735-.34 1.2-10.055 6.215-26.758 26.162-29.338 21.453-2.775 30.384 13.171 33.628 28.095 3.184-.111 5.15-.221 5.397-.315 2.605-1.005-.374-1.533-.374-1.533l-.009.009Z" fill="#231815" stroke="#231815" stroke-miterlimit="10"/><path d="M181.428 245.391c-19.947 2.588-24.961 19.283-26.162 29.337 3.857-.06 59.169-1.226 59.79-1.243-3.243-14.924-12.174-30.87-33.628-28.094Z" fill="#231815" stroke="#231815" stroke-miterlimit="10"/><path d="M182.365 247.868c-18.994 2.46-19.871 22.033-19.811 26.656 16.72-.29 35.39-.647 45.47-.971-1.873-12.353-8.249-27.941-25.659-25.685Zm16.098-3.891a1.41 1.41 0 0 1-1.413 1.414h-3.89a1.41 1.41 0 0 1-1.414-1.414c0-.783.63-1.413 1.414-1.413h3.89c.783 0 1.413.63 1.413 1.413Z" fill="#231815" stroke="#231815" stroke-miterlimit="10"/><path d="M202.473 243.39c-.017-.06-.042-.111-.059-.162a.073.073 0 0 0-.017-.034l-.077-.153c0-.009-.008-.017-.017-.026a3.115 3.115 0 0 0-.46-.63c-.042-.051-.093-.093-.136-.136l-.008-.008a5.485 5.485 0 0 0-.801-.613c-.059-.034-.11-.068-.17-.102a7.763 7.763 0 0 0-.851-.426h-.009c-.051-.026-.102-.043-.161-.068-.213-.085-.409-.153-.579-.213h-.026c-.034-.009-.068-.026-.102-.034-.009 0-.017 0-.026-.009a1.317 1.317 0 0 1-.093-.025h-.017c-.094-.026-.171-.051-.239-.068h-.025c-.017 0-.026 0-.043-.009h-.102a7.701 7.701 0 0 0-1.277-.187 6.816 6.816 0 0 0-.587-.009h-.23a3.766 3.766 0 0 0-.46.06c-.034 0-.06.008-.094.017-.034 0-.068.017-.102.026-.042.008-.085.025-.127.034a.282.282 0 0 0-.094.034l-.128.051-.059.025a.437.437 0 0 0-.111.06c-.017 0-.026.017-.043.025-.042.026-.085.06-.127.094-.009 0-.017.017-.026.026a.403.403 0 0 0-.085.085c-.009.008-.017.025-.026.034-.025.042-.059.076-.076.119-.026.06-.051.128-.077.187a.114.114 0 0 1-.017.051c-.017.06-.042.12-.059.179 0 .017 0 .026-.009.043-.025.076-.043.161-.06.238v.034l-.051.23c0 .017 0 .034-.008.051-.034.187-.06.383-.085.588v.034l-.026.306c-.145 1.779.077 3.916.588 4.197.059.034.127.06.195.094.026.008.043.017.069.025.051.017.093.034.153.051.025 0 .051.017.085.026a.858.858 0 0 0 .162.034c.025 0 .059.009.085.017l.179.026c.025 0 .051 0 .076.008.077 0 .153.017.23.017h.043c.298.017.621 0 .953-.025 2.205-.213 4.981-1.354 5.321-2.571.162-.588.136-1.107-.017-1.558l-.06-.06Z" fill="#231815" stroke="#231815" stroke-miterlimit="10"/><path d="M182.688 240.87c-.332 0-.528-.026-.528-.026h-34.667c-.442-.051-1.013-.093-1.685-.144-3.337-.23-8.369-.588-9.365-3.082-.468-1.184.043-2.597 1.575-4.308 0-.102.034-.204.102-.281a6.503 6.503 0 0 1 1.754-1.396c1.967-1.081 4.359-1.277 6.64-1.337.324 0 .656-.008.979-.008 1.78 0 3.576.11 5.313.221 1.711.111 3.49.213 5.236.213 1.089 0 2.085-.043 3.03-.128 5.509-.502 10.966-1.873 16.253-3.192l.527-.128c2.265-.571 4.717-1.115 7.262-1.294.179-.009.588-.034.588-.034h.085c2.639.519 2.809 2.128 2.801 2.579.145.469.741 2.861 0 7.484-.724 4.486-4.691 4.835-5.891 4.835l-.009.026Z" fill="#231815"/><path d="M185.702 226.38c2.707.537 2.46 2.222 2.46 2.222s.818 2.324 0 7.364c-.664 4.095-4.171 4.478-5.465 4.478-.298 0-.477-.017-.477-.017h-34.718c-2.852-.383-15.35-.093-9.016-6.972.034-.034-.017-.085-.034-.128a5.991 5.991 0 0 1 1.635-1.302c1.932-1.056 4.299-1.226 6.453-1.286.324 0 .647-.008.971-.008 3.533 0 7.023.434 10.548.434 1.021 0 2.043-.034 3.073-.128 5.721-.528 11.28-1.941 16.84-3.329 2.358-.587 4.759-1.115 7.194-1.285.17-.009.366-.026.561-.034m0-.852h-.042c-.204.009-.4.026-.579.034-2.571.179-5.049.733-7.339 1.311l-.51.128c-5.27 1.32-10.719 2.682-16.202 3.184-.936.085-1.915.128-2.996.128-1.737 0-3.499-.111-5.211-.213-1.736-.111-3.541-.221-5.337-.221-.332 0-.656 0-.988.008-2.341.06-4.793.264-6.836 1.388a7 7 0 0 0-1.873 1.49.82.82 0 0 0-.188.374c-1.575 1.797-2.085 3.321-1.558 4.649 1.09 2.741 6.292 3.107 9.731 3.345.664.043 1.235.086 1.601.137h34.786c.085 0 .272.017.519.017 1.286 0 5.534-.375 6.309-5.193.723-4.453.204-6.922.017-7.594.017-.911-.596-2.461-3.15-2.963a.99.99 0 0 0-.162-.017l.008.008Z" fill="#231815"/><path d="M77.649 244.011c2.452-.8 4.197-15.92 16.695-24.382 0 0 3.141-3.057-.851-2.588-1.124.494-2.554 1.285-4.146 2.588-6.343 5.176-11.562 14.617-13.026 23.403.221.758.63 1.209 1.328.979Z" fill="#231815" stroke="#231815" stroke-miterlimit="10"/><path d="M97.8 251.563a.433.433 0 0 1-.306-.128c-6.036-6.172-2.588-15.035.187-22.152.852-2.188 1.66-4.257 2.086-6.002.834-3.388.153-4.24-.97-5.644a.442.442 0 0 1-.052-.486.428.428 0 0 1 .367-.229h.05c.111.017 2.657.366 3.61 3.558.46 1.541.128 4.002-1.132 8.241-.587 1.992-1.277 3.933-1.933 5.806-2.256 6.42-4.214 11.962-1.549 16.389a.42.42 0 0 1-.102.553.423.423 0 0 1-.264.085l.008.009Z" fill="#231815"/><path d="M99.12 217.347s2.367.298 3.252 3.253c.46 1.523.034 4.069-1.132 7.994-2.605 8.76-7.015 16.592-3.44 22.535-7.679-7.858.562-20.347 2.384-27.754.886-3.61.111-4.555-1.072-6.036m0-.851a.85.85 0 0 0-.664 1.379l.017.017c1.115 1.396 1.677 2.094.893 5.278-.425 1.72-1.226 3.772-2.068 5.951-2.818 7.228-6.326 16.235-.094 22.603a.855.855 0 0 0 1.132.077.857.857 0 0 0 .213-1.115c-2.562-4.257-.638-9.714 1.584-16.031.664-1.882 1.345-3.831 1.941-5.832 1.302-4.376 1.626-6.836 1.132-8.479-1.039-3.448-3.848-3.84-3.967-3.857h-.102l-.017.009Zm19.112 61.739c-2.103 0-3.882-.17-5.44-.519-1.43-.324-2.614-1.26-3.329-2.648-.885-1.711-.97-3.882-.221-5.661.8-1.907 2.528-3.414 4.529-3.934.383-.102.8-.17 1.269-.221.57-.06 1.149-.077 1.702-.094.886-.025 1.712-.051 2.529-.221 1.745-.383 3.295-1.464 4.784-2.512.401-.28.801-.561 1.209-.825 2.427-1.609 4.512-1.686 6.93-1.788.647-.026 1.32-.051 2.026-.111 1.107-.093 2.299-.179 3.482-.179 1.184 0 2.129.077 3.048.239 4.683.8 7.041 4.41 6.479 9.901-.655 6.334-7.628 6.794-12.728 7.134-.732.051-1.43.094-2.068.153-1.277.12-2.657.29-4.087.46-3.184.383-6.802.826-10.122.826h.008Z" fill="#231815"/><path d="M137.703 259.94c.996 0 2.001.06 2.98.23 4.946.843 6.615 4.734 6.129 9.441-.706 6.845-9.322 6.428-14.413 6.913-4.189.392-9.416 1.286-14.166 1.286-1.89 0-3.704-.145-5.347-.511-3.329-.749-4.461-4.844-3.26-7.73.749-1.788 2.366-3.201 4.248-3.686.4-.103.8-.171 1.209-.213 1.421-.145 2.877-.017 4.282-.324 2.299-.502 4.172-2.094 6.138-3.397 2.971-1.966 5.466-1.558 8.761-1.83 1.14-.094 2.298-.179 3.447-.179m0-.851c-1.2 0-2.4.085-3.516.179-.698.059-1.362.085-2.009.11-2.375.094-4.623.188-7.151 1.856-.409.273-.809.554-1.217.835-1.524 1.072-2.972 2.077-4.632 2.443-.775.17-1.592.196-2.452.213-.562.017-1.149.034-1.736.093a8.419 8.419 0 0 0-1.337.239c-2.12.553-3.967 2.162-4.819 4.188-.791 1.899-.698 4.206.239 6.019.774 1.499 2.06 2.512 3.618 2.861 1.592.358 3.397.528 5.534.528 3.345 0 6.972-.443 10.173-.826 1.439-.179 2.801-.341 4.07-.46.63-.059 1.328-.102 2.06-.153 5.244-.349 12.43-.826 13.119-7.517.596-5.747-1.898-9.527-6.828-10.37-.953-.162-1.975-.238-3.124-.238h.008Z" fill="#231815"/><path d="M156.85 218.131c-5.006-3.108-10.148-6.275-15.92-7.458-5.772-1.184-12.396 0-16.253 4.469-2.826 3.278-3.763 7.782-3.95 12.106-.451 10.753-2.06 22.127-2.767 32.871 8.182 1.209 21.693.749 29.934.077-1.975-6.879-3.959-13.758-5.934-20.637-.801-2.784-1.601-5.576-2.12-8.42-.128-.681-1.158-6.657.068-6.393.179.042.494.902.596 1.064.673 1.098 1.566 2.12 2.375 3.116 1.635 2.026 3.397 3.958 5.355 5.678 3.474 3.031 7.662 5.381 12.225 6.062 4.564.681 9.502-.46 12.881-3.593 3.636-3.38 5.049-8.513 5.662-13.443.613-4.929 1.677-9.892 3.192-14.617-15.588-1.218-32.291-2.078-47.922-2.393-.008 1.311-.111 2.554.119 3.84" fill="#231815"/><path d="M156.85 218.131c-5.006-3.108-10.148-6.275-15.92-7.458-5.772-1.184-12.396 0-16.253 4.469-2.826 3.278-3.763 7.782-3.95 12.106-.451 10.753-2.06 22.127-2.767 32.871 8.182 1.209 21.693.749 29.934.077-1.975-6.879-3.959-13.758-5.934-20.637-.801-2.784-1.601-5.576-2.12-8.42-.128-.681-1.158-6.657.068-6.393.179.042.494.902.596 1.064.673 1.098 1.566 2.12 2.375 3.116 1.635 2.026 3.397 3.958 5.355 5.678 3.474 3.031 7.662 5.381 12.226 6.062 4.563.681 9.501-.46 12.88-3.593 3.636-3.38 5.049-8.513 5.662-13.443.613-4.929 1.677-9.892 3.192-14.617-15.588-1.218-32.291-2.078-47.922-2.393-.008 1.311-.111 2.554.119 3.84" stroke="#231815" stroke-miterlimit="10"/><path d="M169.739 221.212c-1.166 2.614-2.231 5.364-2.171 8.224.06 2.861 1.49 5.858 4.112 6.998 2.018.877 3.218-.255 4.282-1.89a18.965 18.965 0 0 0 2.469-5.55c.119-.443.988-4.819.613-4.853a15.044 15.044 0 0 1-3.695-.86c-1.873-.689-3.737-1.379-5.61-2.069Z" fill="#231815" stroke="#231815" stroke-miterlimit="10"/><path d="M157.59 191.322c-8.113 10.054-22.382 14.387-34.718 10.539-.638-.196-1.268-.417-1.881-.63-1.898-.655-3.695-1.277-5.415-1.234-1.583.042-3.49 1.141-3.49 2.452a2.373 2.373 0 0 1-2.358 2.375 2.365 2.365 0 0 1-2.367-2.358c0-2.044.979-3.925 2.767-5.313a9.314 9.314 0 0 1 5.321-1.89c2.579-.068 4.878.724 7.091 1.49a52.93 52.93 0 0 0 1.746.588c5.048 1.575 10.778 1.549 16.15-.086 5.372-1.626 10.148-4.793 13.468-8.905" fill="#231815"/><path d="M157.59 191.322c-8.113 10.054-22.382 14.387-34.718 10.539-.638-.196-1.268-.417-1.881-.63-1.898-.655-3.695-1.277-5.415-1.234-1.583.042-3.49 1.141-3.49 2.452a2.373 2.373 0 0 1-2.358 2.375 2.365 2.365 0 0 1-2.367-2.358c0-2.044.979-3.925 2.767-5.313a9.314 9.314 0 0 1 5.321-1.89c2.579-.068 4.878.724 7.091 1.49a52.93 52.93 0 0 0 1.746.588c5.048 1.575 10.778 1.549 16.15-.086 5.372-1.626 10.148-4.793 13.468-8.905" stroke="#231815" stroke-miterlimit="10"/><path d="M197.221 188.674c-1.329 0-2.767-.673-3.832-1.796-1.268-1.337-2.06-3.091-2.834-4.785-1.031-2.273-2.01-4.427-4.019-5.627a.415.415 0 0 1-.204-.384c0-.153.102-.298.247-.366 2.12-1.004 3.048-3.567 3.201-5.636.102-1.353-.085-2.392-.571-3.167-.672-1.064-2.009-1.702-3.584-1.702-.306 0-.613.025-.919.076-3.704.63-6.045 3.227-6.964 7.705-.324 1.575-.443 3.21-.562 4.802a88.653 88.653 0 0 1-.17 2.111c-.12 1.217-.298 2.614-.979 3.84-.767 1.379-2.061 2.239-3.397 2.247-2.044 0-3.491-1.881-3.831-3.652-.332-1.728.102-3.448.519-5.108l.043-.153c.51-2.035.689-3.78.544-5.321-.068-.767-.238-1.507-.408-2.291-.222-.996-.443-2.017-.469-3.098-.025-1.558.239-3.099.494-4.598.222-1.319.46-2.681.486-4.018.068-4.018-3.184-7.773-7.407-8.539a5.432 5.432 0 0 0-.988-.085c-1.864 0-3.652.885-5.542 1.822-1.916.945-3.891 1.924-5.985 1.924-.272 0-.545-.017-.817-.051-1.618-.205-3.091-1.022-4.512-1.814-1.541-.86-2.997-1.668-4.521-1.668a4.28 4.28 0 0 0-.868.093c-1.746.375-2.912 1.805-4.163 3.329-.639.783-1.303 1.592-2.061 2.256a9.053 9.053 0 0 1-2.486 1.558c-1.268.536-2.707.817-4.163.817a11.4 11.4 0 0 1-3.669-.596c-3.133-1.047-6.045-3.439-8.19-6.734-4.546-6.964-4.733-16.439-.468-23.573 3.099-5.177 8.59-9.042 14.703-10.344 1.557-.332 3.371-.511 5.116-.511 2.793 0 7.645.477 9.91 3.567 1.507-2.111 3.95-3.533 6.547-3.746.238-.017.468-.034.706-.034 2.478 0 4.904 1.056 6.573 2.852 2.094-1.302 4.58-1.984 7.219-1.984 4.495 0 8.837 2.044 11.391 5.338 7.262.29 14.141 5.67 16.184 12.634 1.498.23 2.954.741 4.325 1.524.536.196 1.132.605 1.805 1.252a12.543 12.543 0 0 1 2.903 3.346c2.222 3.039 3.788 6.802 4.495 10.846.996 5.661.511 11.919-1.515 19.683-.401 1.541-.928 3.073-1.431 4.546-.289.843-.579 1.694-.851 2.545-.077.247-.17.511-.255.767-.264.774-.545 1.583-.605 2.315-.042.503-.017.996.017 1.516.043.757.085 1.541-.102 2.366-.383 1.678-1.413 2.98-2.733 3.482a3.681 3.681 0 0 1-1.336.247l-.017-.025Z" fill="#231815"/><path d="M151.154 115.841c2.452 0 4.904 1.107 6.496 2.98 2.154-1.43 4.716-2.111 7.296-2.111 4.282 0 8.599 1.881 11.17 5.329 7.287.187 14.141 5.568 16.065 12.6 1.566.204 3.081.724 4.452 1.507.622.23 1.184.664 1.72 1.183a12.479 12.479 0 0 1 2.835 3.252c2.298 3.142 3.771 6.879 4.435 10.702 1.133 6.47.145 13.145-1.515 19.504-.63 2.401-1.532 4.708-2.273 7.075-.315 1.004-.792 2.128-.886 3.175-.11 1.286.222 2.512-.076 3.814-.315 1.363-1.166 2.682-2.478 3.184a3.332 3.332 0 0 1-1.183.213c-1.294 0-2.605-.698-3.516-1.66-2.852-3.014-3.244-8.283-6.938-10.488 2.179-1.031 3.26-3.585 3.447-5.985.094-1.175 0-2.427-.638-3.423-.817-1.294-2.392-1.907-3.942-1.907-.332 0-.664.026-.987.085-4.308.732-6.479 3.985-7.305 8.046-.468 2.281-.511 4.631-.732 6.955-.119 1.269-.315 2.563-.928 3.678-.621 1.115-1.754 2.018-3.022 2.026h-.017c-1.711 0-3.074-1.626-3.389-3.312-.323-1.685.137-3.414.554-5.082.442-1.754.723-3.652.553-5.466-.17-1.813-.843-3.507-.868-5.355-.051-2.886.919-5.712.97-8.598.077-4.41-3.473-8.19-7.755-8.965a5.703 5.703 0 0 0-1.065-.094c-3.941 0-7.543 3.746-11.527 3.746-.255 0-.511-.017-.766-.051-3.244-.409-5.977-3.49-9.092-3.49-.315 0-.639.034-.962.102-2.844.613-4.232 3.754-6.411 5.687a8.634 8.634 0 0 1-2.375 1.481c-1.252.528-2.623.783-4.002.783-1.2 0-2.4-.195-3.533-.57-3.329-1.107-6.053-3.627-7.968-6.564-4.444-6.802-4.623-16.15-.46-23.122 3.107-5.202 8.522-8.889 14.422-10.149 1.387-.298 3.167-.502 5.023-.502 3.924 0 8.198.928 9.909 3.916 1.379-2.298 3.908-3.882 6.581-4.103.222-.017.451-.026.673-.026m0-.851a7.23 7.23 0 0 0-.741.034c-2.528.213-4.929 1.515-6.521 3.482-2.486-2.843-7.16-3.303-9.901-3.303-1.771 0-3.619.187-5.202.519-6.223 1.32-11.825 5.261-14.975 10.54-4.351 7.27-4.155 16.933.476 24.025 2.205 3.38 5.194 5.831 8.412 6.904 1.226.409 2.503.613 3.805.613a11.31 11.31 0 0 0 4.334-.851 9.435 9.435 0 0 0 2.605-1.626c.783-.69 1.456-1.516 2.103-2.307 1.191-1.456 2.324-2.835 3.916-3.176.255-.051.519-.085.783-.085 1.413 0 2.826.783 4.316 1.618 1.456.808 2.972 1.651 4.666 1.864.281.034.579.051.868.051 2.197 0 4.223-1.005 6.181-1.967 1.847-.911 3.584-1.779 5.355-1.779.306 0 .613.026.911.085 4.018.732 7.117 4.3 7.049 8.114-.026 1.302-.238 2.588-.477 3.95-.255 1.515-.528 3.082-.502 4.674.017 1.123.255 2.171.477 3.184.17.766.332 1.49.4 2.23.144 1.49-.034 3.184-.528 5.176l-.043.154c-.425 1.711-.868 3.473-.527 5.295.366 1.941 1.975 4.001 4.231 4.001 1.507-.008 2.945-.953 3.788-2.46.715-1.294.911-2.75 1.03-4.001.068-.707.119-1.414.171-2.12.119-1.575.238-3.201.553-4.742.877-4.291 3.099-6.777 6.615-7.373.272-.051.562-.068.843-.068 1.421 0 2.63.562 3.218 1.507.434.69.604 1.643.502 2.903-.153 1.95-1.004 4.359-2.963 5.278a.868.868 0 0 0-.485.733.85.85 0 0 0 .417.774c1.89 1.133 2.844 3.227 3.848 5.44.784 1.729 1.592 3.516 2.912 4.904 1.141 1.209 2.69 1.933 4.138 1.933.519 0 1.021-.094 1.489-.273 1.456-.562 2.58-1.975 2.997-3.788.204-.886.153-1.703.111-2.486-.026-.502-.06-.979-.017-1.447.059-.69.323-1.465.587-2.214.094-.264.179-.528.264-.775.264-.851.562-1.711.851-2.545.511-1.482 1.031-3.014 1.439-4.572 2.043-7.832 2.529-14.141 1.524-19.87-.715-4.095-2.298-7.901-4.563-11.025a13.098 13.098 0 0 0-2.98-3.423c-.681-.655-1.294-1.072-1.915-1.319a13.148 13.148 0 0 0-4.146-1.499c-2.163-6.947-9.025-12.293-16.295-12.676-2.673-3.354-6.973-5.347-11.604-5.347-2.597 0-5.057.647-7.151 1.873a9.488 9.488 0 0 0-6.641-2.741h-.008Z" fill="#231815"/><path d="M125.69 122.533a21.048 21.048 0 0 0-1.66 13.46c.954 4.503 3.457 8.666 6.981 11.629m2.886-25.745c-2.136 7.697.886 16.568 7.288 21.352m.911-17.359c-.409 4.427 1.481 8.999 4.895 11.842m-12.251 29.176a11.07 11.07 0 0 0 3.355.085" stroke="#231815" stroke-linecap="round" stroke-linejoin="round"/><path d="M137.694 170.881c-.885-2.452-.391-5.415 1.72-7.169 2.648-2.196 7.535-1.949 10.795-1.166 2.248.536 4.402 1.839 5.253 3.789 1.371 3.15.894 8.079-1.873 10.505-5.729 5.006-13.902-.442-15.886-5.951l-.009-.008Z" fill="#231815" stroke="#231815" stroke-miterlimit="10"/><path d="M148.43 177.674c-4.24 0-8.42-3.711-9.671-7.176-.656-1.831-.486-4.368 1.379-5.917 1.158-.962 3.031-1.465 5.414-1.465 1.414 0 2.98.188 4.393.528 2.146.511 3.857 1.711 4.478 3.133 1.167 2.682.801 7.117-1.583 9.203-1.286 1.124-2.767 1.694-4.41 1.694Z" fill="#231815"/><path d="M145.552 163.542c1.38 0 2.904.188 4.3.52 2.017.485 3.618 1.592 4.188 2.894 1.107 2.546.775 6.751-1.472 8.709-1.209 1.056-2.597 1.592-4.13 1.592-4.06 0-8.07-3.567-9.271-6.895-.604-1.686-.459-4.027 1.252-5.441 1.081-.893 2.86-1.37 5.142-1.37m0-.852c-2.486 0-4.444.545-5.687 1.567-2.026 1.677-2.214 4.418-1.507 6.385 1.294 3.584 5.508 7.458 10.071 7.458 1.746 0 3.321-.605 4.691-1.797 2.563-2.239 2.938-6.819 1.695-9.688-.681-1.566-2.461-2.826-4.768-3.38a19.835 19.835 0 0 0-4.495-.536v-.009Z" fill="#231815"/><path d="M134.272 170.659c1.226-2.145 1.388-4.997-.043-7.015-1.574-2.213-5.482-3.397-8.053-3.729-1.967-.255-4.104.12-5.568 1.456-1.098 1.005-1.72 2.452-1.984 3.916-.459 2.537-.357 5.934 1.133 8.148 3.831 5.695 11.765 2.026 14.515-2.776Z" fill="#231815" stroke="#231815" stroke-miterlimit="10"/><path d="M125.086 175.206c-1.847 0-3.32-.809-4.393-2.393-1.32-1.966-1.337-5.167-.953-7.313.178-.979.604-2.341 1.626-3.277.876-.801 2.171-1.235 3.66-1.235.332 0 .673.026.996.068 2.716.358 6.028 1.499 7.279 3.261 1.073 1.507 1.065 3.891-.017 5.798-1.634 2.86-5.235 5.099-8.207 5.099l.009-.008Z" fill="#231815"/><path d="M125.027 161.405c.315 0 .629.017.944.06 2.546.332 5.815 1.439 6.99 3.09.979 1.379.962 3.576-.043 5.338-1.566 2.741-5.005 4.887-7.84 4.887-1.695 0-3.048-.741-4.036-2.205-1.251-1.856-1.26-4.938-.885-7.007.162-.911.562-2.188 1.498-3.039.8-.724 1.992-1.124 3.372-1.124Zm0-.851c-1.593 0-2.989.477-3.942 1.345-1.115 1.013-1.575 2.477-1.763 3.516-.417 2.333-.374 5.559 1.022 7.628 1.132 1.686 2.775 2.58 4.742 2.58 3.159 0 6.845-2.29 8.573-5.321 1.166-2.043 1.166-4.614 0-6.258-1.328-1.864-4.767-3.073-7.577-3.439a8.69 8.69 0 0 0-1.055-.068v.017Z" fill="#231815"/><mask id="mask2_94_6221" style="mask-type:luminance" maskUnits="userSpaceOnUse" x="119" y="161" width="15" height="14"><path d="M125.086 174.78c-1.694 0-3.048-.741-4.035-2.205-1.252-1.856-1.26-4.938-.886-7.007.162-.911.562-2.188 1.499-3.039.8-.724 1.992-1.124 3.371-1.124.315 0 .63.017.945.06 2.545.332 5.815 1.439 6.989 3.09.98 1.379.963 3.576-.042 5.338-1.567 2.742-5.006 4.887-7.841 4.887Z" fill="#fff"/></mask><g mask="url(#mask2_94_6221)" fill="#231815" stroke="#231815" stroke-linecap="round" stroke-linejoin="round"><path d="M118.326 169.893c.826-.536 1.797-.817 2.725-1.149.928-.332 1.873-.741 2.537-1.473 1.038-1.132 1.217-2.775 1.779-4.197a8.069 8.069 0 0 1 2.716-3.516c.332-.238.698-.468 1.106-.519.409-.051.869.102 1.065.459-1.099.409-1.882 1.414-2.359 2.495-.476 1.081-.706 2.239-1.081 3.354-.374 1.115-.928 2.222-1.881 2.912-.673.485-1.49.732-2.282.97-.792.239-1.6.52-2.239 1.047-.638.528-1.073 1.388-.868 2.197-.102-.383-2.265-.043-2.571-.613-.358-.656.885-1.669 1.353-1.967Z"/><path d="M121.766 171.971c.826-.537 1.796-.818 2.724-1.15.928-.332 1.873-.74 2.537-1.472 1.039-1.133 1.217-2.776 1.779-4.198a8.082 8.082 0 0 1 2.716-3.516c.332-.238.698-.468 1.107-.519.409-.051.868.102 1.064.46-1.098.408-1.881 1.413-2.358 2.494-.477 1.081-.707 2.239-1.081 3.354-.375 1.116-.928 2.223-1.882 2.912-.672.485-1.49.732-2.281.971-.792.238-1.601.519-2.239 1.047-.639.528-1.073 1.387-.869 2.196-.102-.383-2.264-.042-2.571-.613-.357-.655.886-1.668 1.354-1.966Z"/></g><mask id="mask3_94_6221" style="mask-type:luminance" maskUnits="userSpaceOnUse" x="138" y="163" width="17" height="15"><path d="M148.43 177.249c-4.061 0-8.071-3.567-9.271-6.896-.605-1.686-.46-4.027 1.251-5.44 1.082-.894 2.861-1.371 5.142-1.371 1.38 0 2.904.188 4.3.52 2.017.485 3.618 1.592 4.188 2.894 1.107 2.546.775 6.751-1.472 8.709-1.209 1.056-2.597 1.592-4.129 1.592l-.009-.008Z" fill="#fff"/></mask><g mask="url(#mask3_94_6221)" fill="#231815" stroke="#231815" stroke-linecap="round" stroke-linejoin="round"><path d="M139.823 172.711c.826-.536 1.796-.817 2.724-1.149.928-.332 1.873-.741 2.537-1.473 1.039-1.132 1.218-2.775 1.78-4.197a8.066 8.066 0 0 1 2.715-3.516c.332-.239.698-.468 1.107-.519.409-.052.868.102 1.064.459-1.098.409-1.881 1.413-2.358 2.495-.477 1.081-.707 2.239-1.081 3.354-.375 1.115-.928 2.222-1.882 2.912-.672.485-1.49.732-2.281.97-.792.238-1.601.519-2.239 1.047-.639.528-1.073 1.388-.869 2.197-.102-.383-2.264-.043-2.571-.613-.357-.656.886-1.669 1.354-1.967Z"/><path d="M143.271 174.78c.826-.536 1.796-.817 2.724-1.149.928-.332 1.873-.741 2.537-1.473 1.039-1.132 1.218-2.776 1.78-4.197a8.066 8.066 0 0 1 2.715-3.516c.332-.239.698-.469 1.107-.52.409-.051.868.103 1.064.46-1.098.409-1.881 1.413-2.358 2.495-.477 1.081-.707 2.239-1.081 3.354-.375 1.115-.928 2.222-1.882 2.911-.672.486-1.49.733-2.281.971-.792.238-1.601.519-2.239 1.047-.639.528-1.073 1.388-.869 2.197-.102-.384-2.264-.043-2.571-.613-.357-.656.886-1.669 1.354-1.967Z"/></g></g><path d="M26.547 344.522h-5.824v.644h5.824v-.644Zm-5.824 2.38h5.824v-.644h-5.824v.644Zm0 1.778h5.824v-.672h-5.824v.672Zm-1.61 1.68v-7.014h9.1v6.944h-1.666v-.406h-5.824v.476h-1.61Zm7.672-10.584v1.092h-6.314v-1.092h6.314Zm-.014 2.842h-6.286v-1.106h6.286v1.106Zm-8.596-4.662h10.892v5.012h-1.68v-3.836h-7.602v3.85h-1.61v-5.026Zm21.28 2.492h2.996a14.213 14.213 0 0 1-1.652-1.26c-.42.448-.868.868-1.344 1.26Zm-.588 1.246v-.812c-.434.308-.91.602-1.386.854-.21-.294-.686-.798-1.022-1.092-.154.518-.28 1.022-.42 1.456.714 1.078.854 2.086.854 2.884 0 .924-.154 1.526-.56 1.848-.196.168-.448.266-.742.308-.224.042-.532.042-.812.042-.014-.406-.126-1.022-.336-1.442.21.028.364.028.518.014a.454.454 0 0 0 .322-.112c.154-.126.21-.434.21-.854 0-.644-.112-1.568-.784-2.534.224-.84.476-1.988.672-2.912h-1.022v11.004h-1.386v-12.488h2.842l.224-.056 1.036.602c-.182.658-.392 1.4-.588 2.128 1.596-.826 3.066-2.128 3.85-3.402l1.596.56c-.084.14-.168.294-.266.434 1.036.84 2.562 1.666 3.934 2.114a7.609 7.609 0 0 0-.63 1.582 16.88 16.88 0 0 1-1.988-1.036v.91h-4.116Zm3.57 1.82v1.288h.98v-1.288h-.98Zm-1.204 2.394v-3.514h3.472v3.514h-3.472Zm-2.814-2.394v1.288h.938v-1.288h-.938Zm-1.19 2.394v-3.514h3.374v3.514h-3.374Zm1.092.154 1.456.308c-.084.28-.196.56-.308.826.49.322 1.036.714 1.33 1.008l-.84 1.106c-.238-.28-.672-.644-1.106-.966a7.132 7.132 0 0 1-2.002 2.086c-.224-.28-.756-.826-1.078-1.05 1.232-.728 2.128-1.904 2.548-3.318Zm3.864-.014 1.498.21a7.54 7.54 0 0 1-.322 1.134c.784.546 1.694 1.204 2.17 1.68l-.98 1.12c-.392-.42-1.078-.994-1.778-1.512-.42.7-.938 1.288-1.554 1.736-.21-.28-.742-.84-1.064-1.05 1.092-.714 1.764-1.89 2.03-3.318Zm12.39-5.824h5.67s-.014.574-.042.798c-.28 5.572-.56 7.672-1.176 8.4-.42.546-.826.7-1.428.784-.518.07-1.386.07-2.24.028-.028-.504-.252-1.246-.574-1.722.882.07 1.708.07 2.072.07.294 0 .462-.042.658-.224.42-.434.7-2.268.924-6.426h-3.92c-.224 2.898-1.204 6.3-5.138 8.526-.266-.42-.896-1.05-1.302-1.358 3.472-1.89 4.41-4.718 4.648-7.168h-4.214v-1.708h4.284v-2.884h1.778v2.884Z" fill="#231815"/><g clip-path="url(#clip2_94_6221)"><path d="M72.785 335.49c.85 0 2.2 2.79 2.91 3.15.49.25 2.39-.54 2.78-.16.39.38-.17 2.53.08 3.05.35.7 3.14 1.8 3.14 2.64 0 .87-2.86 2.13-3.23 2.85-.26.5.42 2.5.02 2.89-.4.39-2.52-.26-3.05-.01-.68.32-1.77 2.94-2.57 2.94-.8 0-2.04-2.63-2.73-2.96-.52-.25-2.53.46-2.93.07-.4-.39.31-2.39.05-2.9-.36-.71-3.11-1.95-3.11-2.8 0-.85 2.65-1.98 2.98-2.66.26-.53-.42-2.61-.01-3.02.41-.41 2.36.3 2.86.04.71-.36 1.675-3.11 2.525-3.11l.285-.01Z" fill="#FFE600" stroke="#231815" stroke-miterlimit="10"/><path d="M75.695 338.64c-.71-.36-2.06-3.15-2.91-3.15v17.35h.08c.8 0 1.89-2.62 2.57-2.94.53-.25 2.65.4 3.05.01.4-.39-.28-2.39-.02-2.89.37-.72 3.23-1.98 3.23-2.85 0-.84-2.79-1.94-3.14-2.64-.25-.52.31-2.67-.08-3.05-.39-.38-2.29.41-2.78.16Z" fill="#fff"/><path d="M72.785 335.49c.85 0 2.2 2.79 2.91 3.15.49.25 2.39-.54 2.78-.16.39.38-.17 2.53.08 3.05.35.7 3.14 1.8 3.14 2.64 0 .87-2.86 2.13-3.23 2.85-.26.5.42 2.5.02 2.89-.4.39-2.52-.26-3.05-.01-.68.32-1.77 2.94-2.57 2.94h-.08v-17.35Zm0 0 .01.01" stroke="#231815" stroke-miterlimit="10"/></g><g clip-path="url(#clip3_94_6221)"><path d="M93.345 335.49c.85 0 2.2 2.79 2.91 3.15.49.25 2.39-.54 2.78-.16.39.38-.17 2.53.08 3.05.35.7 3.14 1.8 3.14 2.64 0 .87-2.86 2.13-3.23 2.85-.26.5.42 2.5.02 2.89-.4.39-2.52-.26-3.05-.01-.68.32-1.77 2.94-2.57 2.94-.8 0-2.04-2.63-2.73-2.96-.52-.25-2.53.46-2.93.07-.4-.39.31-2.39.05-2.9-.36-.71-3.11-1.95-3.11-2.8 0-.85 2.65-1.98 2.98-2.66.26-.53-.42-2.61-.01-3.02.41-.41 2.36.3 2.86.04.71-.36 1.97-3.11 2.82-3.11l-.01-.01Z" fill="#FFE600" stroke="#231815" stroke-miterlimit="10"/><path d="M96.695 338.64c-.71-.36-2.06-3.15-2.91-3.15v17.35h.08c.8 0 1.89-2.62 2.57-2.94.53-.25 2.65.4 3.05.01.4-.39-.28-2.39-.02-2.89.37-.72 3.23-1.98 3.23-2.85 0-.84-2.79-1.94-3.14-2.64-.25-.52.31-2.67-.08-3.05-.39-.38-2.29.41-2.78.16Z" fill="#fff"/><path d="M93.785 335.49c.85 0 2.2 2.79 2.91 3.15.49.25 2.39-.54 2.78-.16.39.38-.17 2.53.08 3.05.35.7 3.14 1.8 3.14 2.64 0 .87-2.86 2.13-3.23 2.85-.26.5.42 2.5.02 2.89-.4.39-2.52-.26-3.05-.01-.68.32-1.77 2.94-2.57 2.94h-.08v-17.35Zm0 0 .01.01" stroke="#231815" stroke-miterlimit="10"/></g><g clip-path="url(#clip4_94_6221)"><path d="M113.905 335.49c.85 0 2.2 2.79 2.91 3.15.49.25 2.39-.54 2.78-.16.39.38-.17 2.53.08 3.05.35.7 3.14 1.8 3.14 2.64 0 .87-2.86 2.13-3.23 2.85-.26.5.42 2.5.02 2.89-.4.39-2.52-.26-3.05-.01-.68.32-1.77 2.94-2.57 2.94-.8 0-2.04-2.63-2.73-2.96-.52-.25-2.53.46-2.93.07-.4-.39.31-2.39.05-2.9-.36-.71-3.11-1.95-3.11-2.8 0-.85 2.65-1.98 2.98-2.66.26-.53-.42-2.61-.01-3.02.41-.41 2.36.3 2.86.04.71-.36 1.97-3.11 2.82-3.11l-.01-.01Z" fill="#FFE600" stroke="#231815" stroke-miterlimit="10"/><path d="M116.695 338.64c-.71-.36-2.06-3.15-2.91-3.15v17.35h.08c.8 0 1.89-2.62 2.57-2.94.53-.25 2.65.4 3.05.01.4-.39-.28-2.39-.02-2.89.37-.72 3.23-1.98 3.23-2.85 0-.84-2.79-1.94-3.14-2.64-.25-.52.31-2.67-.08-3.05-.39-.38-2.29.41-2.78.16Z" fill="#fff"/><path d="M113.785 335.49c.85 0 2.2 2.79 2.91 3.15.49.25 2.39-.54 2.78-.16.39.38-.17 2.53.08 3.05.35.7 3.14 1.8 3.14 2.64 0 .87-2.86 2.13-3.23 2.85-.26.5.42 2.5.02 2.89-.4.39-2.52-.26-3.05-.01-.68.32-1.77 2.94-2.57 2.94h-.08v-17.35Zm0 0 .01.01" stroke="#231815" stroke-miterlimit="10"/></g><path d="m165.733 346.322 1.484.504c-.574.784-1.4 1.764-2.058 2.338-.28-.266-.896-.714-1.26-.938a9.44 9.44 0 0 0 1.834-1.904Zm4.676.672 1.204-.7c.63.644 1.526 1.554 1.988 2.128l-1.288.784c-.42-.56-1.26-1.526-1.904-2.212Zm.392-3.206v-.518h-3.598v.518h3.598Zm0 1.456v-.532h-3.598v.532h3.598Zm-6.552-6.342v3.108c0 .378-.014.784-.028 1.204a7.623 7.623 0 0 0 1.204-.728c-.266-.224-.56-.462-.826-.644l.84-.742c.266.168.588.392.868.602.21-.21.406-.434.574-.672h-2.142v-1.246h2.884c.112-.294.224-.588.308-.882h-3.682Zm5.292 2.128h-.938c-.266.434-.56.854-.91 1.26h2.702a7.67 7.67 0 0 1-.854-1.26Zm3.08 0h-1.568c.21.28.462.546.742.798.294-.266.616-.574.826-.798Zm.07 0 .91.672c-.294.28-.63.56-.952.798.42.266.868.504 1.33.658a4.81 4.81 0 0 0-.966 1.176 6.639 6.639 0 0 1-.756-.406v2.296h-2.45v1.792c0 .686-.126 1.022-.644 1.246-.476.21-1.106.21-1.946.21-.098-.42-.336-.966-.518-1.33.518.014 1.092.014 1.274.014.168 0 .224-.056.224-.196v-1.736h-2.38v-2.31c-.266.182-.546.35-.84.504a3.555 3.555 0 0 0-.77-.91c-.14 2.03-.63 4.396-2.044 5.95-.21-.308-.84-.91-1.148-1.106.924-1.022 1.344-2.324 1.54-3.626-.504.308-.994.602-1.484.868l-.462-1.498c.546-.224 1.302-.602 2.1-1.008.014-.364.014-.728.014-1.078v-.476l-1.232.56c-.14-.714-.476-1.918-.77-2.814l1.232-.49c.266.784.588 1.792.77 2.478v-3.766h4.648l-.28-.84 1.694-.336c.14.364.28.784.406 1.176h4.578v1.4h-5.264l.98.126c-.084.266-.182.504-.28.756h4.438v1.246h-.952Zm7.728 8.162-1.26-.7c.49-.504.952-1.316 1.204-2.002l1.246.546c-.294.714-.686 1.596-1.19 2.156Zm4.368-4.522v-2.716h1.176v2.716h-1.176Zm3.346-2.856v3.136c0 .588-.084.854-.49 1.036-.392.182-.91.182-1.638.182-.056-.336-.238-.77-.406-1.078.448.014.882.014 1.036 0 .14-.014.182-.042.182-.168v-3.108h1.316Zm-4.746 4.606 1.05-.658c.434.364 1.05.924 1.344 1.288l-1.078.728c-.28-.392-.854-.952-1.316-1.358Zm-1.764-2.24h1.4v-.392h-1.386c0 .126 0 .266-.014.392Zm1.4-1.442h-1.386v.35h1.386v-.35Zm1.19-.812v3.234c0 .476-.084.658-.406.798-.28.14-.728.14-1.316.14-.028-.266-.168-.574-.28-.812.28.014.574.014.672.014.098 0 .14-.028.14-.14v-.28h-1.484c-.112.504-.322.966-.742 1.33-.196-.224-.714-.63-.98-.784.602-.462.644-1.078.644-1.68v-1.82h3.752Zm-.476 6.272h1.54c.364 0 .448-.112.49-.84.266.182.798.336 1.148.406-.14 1.19-.49 1.498-1.498 1.498h-1.862c-1.414 0-1.75-.322-1.75-1.4v-1.33h1.358v1.316c0 .322.084.35.574.35Zm2.674-1.26 1.19-.532c.518.658 1.134 1.554 1.414 2.156l-1.26.588c-.238-.574-.826-1.526-1.344-2.212Zm-3.024-6.272h2.142a18.048 18.048 0 0 1-1.148-.588c-.322.21-.644.406-.994.588Zm-3.64-1.708v1.694c1.47-.364 3.108-.938 4.158-1.694h-4.158Zm5.698.28-.14.14a17.324 17.324 0 0 0 3.962 1.19c-.308.28-.686.742-.868 1.134a20.442 20.442 0 0 1-2.212-.742v.602h-3.668v-.476c-.686.28-1.4.546-2.086.742a4.917 4.917 0 0 0-.686-.924v1.162c0 2.226-.294 5.488-2.086 7.434-.21-.308-.84-.896-1.148-1.092.924-1.022 1.344-2.338 1.54-3.654-.504.308-.994.616-1.484.896l-.462-1.498c.546-.238 1.302-.616 2.1-1.008.014-.378.014-.742.014-1.078v-.49l-1.232.574c-.07-.742-.392-1.918-.756-2.814l1.19-.504c.35.784.672 1.764.798 2.45v-3.724h4.83a11.057 11.057 0 0 0-.294-.952l1.68-.322c.154.392.322.854.448 1.274h4.242v1.4h-4.256l.574.28Zm12.81.056h5.67s-.014.574-.042.798c-.28 5.572-.56 7.672-1.176 8.4-.42.546-.826.7-1.428.784-.518.07-1.386.07-2.24.028-.028-.504-.252-1.246-.574-1.722.882.07 1.708.07 2.072.07.294 0 .462-.042.658-.224.42-.434.7-2.268.924-6.426h-3.92c-.224 2.898-1.204 6.3-5.138 8.526-.266-.42-.896-1.05-1.302-1.358 3.472-1.89 4.41-4.718 4.648-7.168h-4.214v-1.708h4.284v-2.884h1.778v2.884Z" fill="#231815"/><g clip-path="url(#clip5_94_6221)" stroke="#231815" stroke-miterlimit="10"><path d="M219.405 335.49c-1.34 0-2.54.55-3.41 1.44a4.741 4.741 0 0 0-3.41-1.44c-2.64 0-4.77 2.13-4.77 4.77 0 4.79 8.18 10.62 8.18 10.62s8.18-5.83 8.18-10.62a4.77 4.77 0 0 0-4.77-4.77Z" fill="#FF002A"/><path d="M215.995 336.93c.87-.89 2.07-1.44 3.41-1.44a4.77 4.77 0 0 1 4.77 4.77c0 4.79-8.18 10.62-8.18 10.62v-13.95Z" fill="#fff"/></g><g clip-path="url(#clip6_94_6221)" stroke="#231815" stroke-miterlimit="10"><path d="M238.755 335.49c-1.34 0-2.54.55-3.41 1.44a4.741 4.741 0 0 0-3.41-1.44c-2.64 0-4.77 2.13-4.77 4.77 0 4.79 8.18 10.62 8.18 10.62s8.18-5.83 8.18-10.62a4.77 4.77 0 0 0-4.77-4.77Z" fill="#FF002A"/><path d="M234.995 336.93c.87-.89 2.07-1.44 3.41-1.44a4.77 4.77 0 0 1 4.77 4.77c0 4.79-8.18 10.62-8.18 10.62v-13.95Z" fill="#fff"/></g><g clip-path="url(#clip7_94_6221)" stroke="#231815" stroke-miterlimit="10"><path d="M258.105 335.49c-1.34 0-2.54.55-3.41 1.44a4.741 4.741 0 0 0-3.41-1.44c-2.64 0-4.77 2.13-4.77 4.77 0 4.79 8.18 10.62 8.18 10.62s8.18-5.83 8.18-10.62a4.77 4.77 0 0 0-4.77-4.77Z" fill="#FF002A"/><path d="M254.995 336.93c.87-.89 2.07-1.44 3.41-1.44a4.77 4.77 0 0 1 4.77 4.77c0 4.79-8.18 10.62-8.18 10.62v-13.95Z" fill="#fff"/></g><path d="M15.5 368.35a4.5 4.5 0 0 1 4.5-4.5h44.5v33H20a4.5 4.5 0 0 1-4.5-4.5v-24Z" fill="#00698A"/><path d="M33.778 377.916v-.798H31.86v.798h1.918Zm0 2.212v-.868H31.86v.868h1.918Zm0 2.226v-.882H31.86v.882h1.918Zm-3.528 1.988v-5.81c-.238.28-.476.518-.714.756-.154-.336-.616-1.162-.896-1.526 1.12-1.008 2.128-2.604 2.688-4.242l1.512.42c-.21.602-.476 1.19-.756 1.778h2.086a13.32 13.32 0 0 0-.658-1.512l1.568-.448c.35.602.714 1.372.896 1.96h2.212v1.4H35.36v.798h2.254v1.344H35.36v.868h2.198v1.344H35.36v.882h2.982v1.4H31.86v.588h-1.61Zm-1.68-8.526-1.526.532c-.154-.63-.518-1.652-.756-2.408l1.47-.448c.266.756.616 1.694.812 2.324Zm.126 3.962.714.252c-.252 1.274-.63 2.59-1.106 3.64.224.14.49.336.868.56.952.574 2.268.658 3.906.658 1.61 0 4.116-.14 5.656-.364-.182.448-.462 1.26-.476 1.708-1.162.07-3.626.168-5.264.168-1.862 0-3.038-.154-4.046-.742-.588-.322-1.078-.784-1.372-.784-.322 0-.812.952-1.162 1.75l-1.106-1.582c.476-.588.994-1.05 1.47-1.33.308-.7.588-1.582.798-2.436h-1.764c.322-.826.7-1.946 1.008-3.038h-1.26v-1.484h3.276c-.294.98-.63 2.1-.952 3.08h.56l.252-.056Zm15.652-6.23 1.554.518a21.66 21.66 0 0 1-1.358 2.66v9.842h-1.582v-7.546c-.448.56-.882 1.05-1.344 1.484-.154-.406-.616-1.316-.882-1.736 1.428-1.232 2.814-3.22 3.612-5.222Zm5.026 11.228h2.044c.714 0 .826-.588.952-2.898.378.294 1.036.616 1.47.7-.182 2.702-.602 3.668-2.296 3.668h-2.338c-1.722 0-2.212-.56-2.212-2.464v-10.024h1.61v3.556h4.872v1.596h-4.872v4.9c0 .826.098.966.77.966Z" fill="#fff"/><path d="M15.5 368.35a4.5 4.5 0 0 1 4.5-4.5h44.5v33H20a4.5 4.5 0 0 1-4.5-4.5v-24Z" stroke="#231815"/><path d="M64.5 363.85H260a4.5 4.5 0 0 1 4.5 4.5v24a4.5 4.5 0 0 1-4.5 4.5H64.5v-33Z" fill="#fff"/><g clip-path="url(#clip8_94_6221)"><path d="M78.636 373.35h.49c.019.005.039.012.057.013.204.017.405.051.603.104a3.552 3.552 0 0 1 1.634.934c.31.307.553.66.735 1.055a3.67 3.67 0 0 1 .33 1.552c.002.587 0 1.172 0 1.759v.099h.099c.175 0 .349-.003.524 0 .288.004.525.166.61.426.03.089.041.188.041.283.003 2.357.001 4.713.001 7.069v.07a.637.637 0 0 1-.436.604c-.024.008-.046.021-.068.032h-8.75l-.085-.036a.632.632 0 0 1-.362-.336.732.732 0 0 1-.059-.316v-7.139a.638.638 0 0 1 .657-.657c.179-.002.357 0 .535 0 .025 0 .05-.003.083-.004v-1.973a3.57 3.57 0 0 1 .932-2.351 3.577 3.577 0 0 1 2.207-1.154c.075-.01.148-.022.222-.034Zm2.574 5.512.002-.063c0-.607.002-1.213 0-1.82 0-.119-.007-.24-.025-.358a2.271 2.271 0 0 0-.767-1.412 2.255 2.255 0 0 0-1.95-.545c-.68.118-1.203.484-1.572 1.066a2.122 2.122 0 0 0-.347 1.13c-.007.644 0 1.289 0 1.933 0 .023.004.045.007.069h4.654-.002Zm-2.964 4.945c0 .128-.004.257 0 .384a.631.631 0 0 0 .864.571.638.638 0 0 0 .403-.591c0-.248.003-.495-.001-.743 0-.072.02-.122.075-.173.328-.309.428-.685.295-1.114a1.034 1.034 0 0 0-.976-.728 1.058 1.058 0 0 0-.722 1.86.154.154 0 0 1 .062.134c-.004.133 0 .267 0 .401v-.001Z" fill="#231815"/></g><g clip-path="url(#clip9_94_6221)"><path d="M98.396 373.35h.49c.02.005.04.012.058.013.204.017.404.051.603.104a3.547 3.547 0 0 1 1.633.934c.31.307.553.66.735 1.055.228.493.33 1.011.331 1.552.002.587 0 1.172 0 1.759v.099h.098c.175 0 .349-.003.525 0 .288.004.525.166.609.426.03.089.042.188.042.283.002 2.357.001 4.713.001 7.069v.07a.638.638 0 0 1-.437.604c-.024.008-.045.021-.068.032h-8.75l-.085-.036a.632.632 0 0 1-.362-.336.73.73 0 0 1-.059-.316v-7.139a.638.638 0 0 1 .658-.657c.178-.002.356 0 .534 0 .026 0 .051-.003.083-.004v-1.973a3.57 3.57 0 0 1 .932-2.351 3.577 3.577 0 0 1 2.207-1.154c.075-.01.149-.022.222-.034Zm2.574 5.512c0-.028.003-.046.003-.063v-1.82c0-.119-.007-.24-.026-.358a2.272 2.272 0 0 0-.767-1.412 2.255 2.255 0 0 0-1.95-.545c-.68.118-1.202.484-1.572 1.066a2.122 2.122 0 0 0-.347 1.13c-.006.644 0 1.289 0 1.933 0 .023.004.045.007.069h4.655-.003Zm-2.963 4.945c0 .128-.004.257 0 .384a.631.631 0 0 0 .863.571.638.638 0 0 0 .403-.591c0-.248.003-.495 0-.743 0-.072.02-.122.074-.173.328-.309.429-.685.296-1.114a1.034 1.034 0 0 0-.976-.728 1.058 1.058 0 0 0-.722 1.86.154.154 0 0 1 .062.134c-.004.133 0 .267 0 .401v-.001Z" fill="#231815"/></g><g clip-path="url(#clip10_94_6221)"><path d="M118.157 373.35h.49c.019.005.039.012.058.013.203.017.404.051.602.104a3.556 3.556 0 0 1 1.634.934c.309.307.553.66.735 1.055.228.493.329 1.011.331 1.552v1.858h.097c.176 0 .35-.003.525 0 .288.004.525.166.61.426a.928.928 0 0 1 .041.283c.003 2.357.001 4.713.001 7.069v.07a.637.637 0 0 1-.436.604c-.024.008-.046.021-.068.032h-8.75c-.028-.012-.057-.025-.086-.036a.631.631 0 0 1-.361-.336.729.729 0 0 1-.059-.316v-7.139a.639.639 0 0 1 .657-.657c.179-.002.357 0 .535 0 .025 0 .051-.003.083-.004v-1.973a3.572 3.572 0 0 1 .932-2.351 3.579 3.579 0 0 1 2.207-1.154c.075-.01.148-.022.222-.034Zm2.574 5.512.002-.063c0-.607.002-1.213 0-1.82 0-.119-.006-.24-.025-.358a2.272 2.272 0 0 0-.767-1.412 2.256 2.256 0 0 0-1.95-.545c-.68.118-1.203.484-1.572 1.066a2.116 2.116 0 0 0-.347 1.13c-.007.644 0 1.289 0 1.933 0 .023.004.045.007.069h4.654-.002Zm-2.964 4.945c0 .128-.004.257 0 .384a.632.632 0 0 0 .864.571.64.64 0 0 0 .403-.591c0-.248.003-.495-.001-.743 0-.072.02-.122.075-.173.328-.309.428-.685.296-1.114a1.035 1.035 0 0 0-.977-.728 1.053 1.053 0 0 0-1.013.667c-.168.416-.053.891.292 1.193a.152.152 0 0 1 .061.134c-.004.133 0 .267 0 .401v-.001Z" fill="#231815"/></g><path d="M64.5 363.85H260a4.5 4.5 0 0 1 4.5 4.5v24a4.5 4.5 0 0 1-4.5 4.5H64.5v-33Z" stroke="#231815"/><path d="M15.5 412.35a4.5 4.5 0 0 1 4.5-4.5h44.5v33H20a4.5 4.5 0 0 1-4.5-4.5v-24Z" fill="#00698A"/><path d="M33.918 420.978v2.002h-1.526v-2.002h1.526Zm1.512 7.644h-.462c.21.252.406.504.546.77h.308c.14 0 .238-.028.322-.154.154-.196.266-.896.35-2.772h-3.472v.392h2.408v1.764Zm-2.408.406.896-.042a3.952 3.952 0 0 0-.196-.252l.28-.112h-.98v.406Zm1.148-1.064v-.448h-1.148v.448h1.148Zm-3.724 0h1.176v-.448h-1.176v.448Zm1.176-1.498h-1.134c-.14.14-.28.266-.434.392h1.568v-.392Zm-3.374-5.684v1.372c0 1.302-.056 2.954-.308 4.564.868-.476 1.54-1.036 2.002-1.596h-1.148v-1.96h.28l-.238-.826c.588-.098 1.386-.224 2.24-.392a15.106 15.106 0 0 0-1.96-.406l.238-.728c.84.098 1.792.266 2.38.462l-.238.602.532-.098.014.826c-.896.21-1.82.42-2.59.56h7.266c-.658-.196-1.568-.378-2.408-.49l.238-.714.294.014-.322-.658c.504-.084 1.246-.336 1.806-.532h-8.078Zm7.896-1.722h-7.896v.658h7.896v-.658Zm-.042 5.39v-.616h-1.19v.616h1.19Zm-2.45 0v-.616H32.49v.616h1.162Zm-2.422 0v-.616h-1.134v.616h1.134Zm.112 1.092h6.678s0 .35-.014.518c-.112 2.604-.252 3.598-.56 3.976-.224.294-.504.392-.812.434-.294.056-.77.056-1.26.042a2.693 2.693 0 0 0-.098-.532l-.602.252a3.58 3.58 0 0 0-.154-.336c-2.156.154-4.382.294-5.992.392l-.098-1.078c.868-.028 1.974-.084 3.192-.14v-.448h-2.366v-1.176a12.67 12.67 0 0 1-.56.364c-.182-.252-.518-.56-.798-.77-.224 1.274-.546 2.492-1.078 3.486-.308-.252-1.022-.658-1.442-.812 1.162-2.156 1.26-5.334 1.26-7.56v-4.144h11.13v2.772h-.966l.364.644c-.686.266-1.624.448-2.282.56.854.098 1.778.28 2.324.448l-.266.728h.532v1.96H31.65c-.098.14-.196.28-.308.42Zm19.222 2.996h3.304v1.582H45.16v-1.582h3.738v-2.8h-2.702v-1.554h2.702v-2.296h-1.54c-.21.728-.49 1.4-.784 1.932a14.722 14.722 0 0 0-1.484-.756c.14-.252.28-.518.42-.812l-.798.364c-.084-.42-.294-1.036-.532-1.61v9.562h-1.666v-10.01c-.084 1.176-.308 2.716-.63 3.71l-1.232-.448c.336-.924.588-2.492.686-3.64l1.176.168v-2.856h1.666v2.646l.812-.336c.28.546.574 1.218.77 1.764.35-1.022.602-2.226.742-3.416l1.624.224c-.098.658-.21 1.316-.35 1.946h1.12v-2.744h1.666v2.744h2.856v1.568h-2.856v2.296h2.562v1.554h-2.562v2.8Z" fill="#fff"/><path d="M15.5 412.35a4.5 4.5 0 0 1 4.5-4.5h44.5v33H20a4.5 4.5 0 0 1-4.5-4.5v-24Z" stroke="#231815"/><path d="M64.5 407.85H260a4.5 4.5 0 0 1 4.5 4.5v24a4.5 4.5 0 0 1-4.5 4.5H64.5v-33Z" fill="#fff"/><g clip-path="url(#clip11_94_6221)"><path d="M78.636 417.35h.49c.019.005.039.012.057.013.204.017.405.051.603.104a3.552 3.552 0 0 1 1.634.934c.31.307.553.66.735 1.055a3.67 3.67 0 0 1 .33 1.552c.002.587 0 1.172 0 1.759v.099h.099c.175 0 .349-.003.524 0 .288.004.525.166.61.426.03.089.041.188.041.283.003 2.357.001 4.713.001 7.069v.07a.637.637 0 0 1-.436.604c-.024.008-.046.021-.068.032h-8.75l-.085-.036a.632.632 0 0 1-.362-.336.732.732 0 0 1-.059-.316v-7.139a.638.638 0 0 1 .657-.657c.179-.002.357 0 .535 0 .025 0 .05-.003.083-.004v-1.973a3.57 3.57 0 0 1 .932-2.351 3.577 3.577 0 0 1 2.207-1.154c.075-.01.148-.022.222-.034Zm2.574 5.512.002-.063c0-.607.002-1.213 0-1.82 0-.119-.007-.24-.025-.358a2.271 2.271 0 0 0-.767-1.412 2.255 2.255 0 0 0-1.95-.545c-.68.118-1.203.484-1.572 1.066a2.122 2.122 0 0 0-.347 1.13c-.007.644 0 1.289 0 1.933 0 .023.004.045.007.069h4.654-.002Zm-2.964 4.945c0 .128-.004.257 0 .384a.631.631 0 0 0 .864.571.638.638 0 0 0 .403-.591c0-.248.003-.495-.001-.743 0-.072.02-.122.075-.173.328-.309.428-.685.295-1.114a1.034 1.034 0 0 0-.976-.728 1.058 1.058 0 0 0-.722 1.86.154.154 0 0 1 .062.134c-.004.133 0 .267 0 .401v-.001Z" fill="#231815"/></g><g clip-path="url(#clip12_94_6221)"><path d="M98.396 417.35h.49c.02.005.04.012.058.013.204.017.404.051.603.104a3.547 3.547 0 0 1 1.633.934c.31.307.553.66.735 1.055.228.493.33 1.011.331 1.552.002.587 0 1.172 0 1.759v.099h.098c.175 0 .349-.003.525 0 .288.004.525.166.609.426.03.089.042.188.042.283.002 2.357.001 4.713.001 7.069v.07a.638.638 0 0 1-.437.604c-.024.008-.045.021-.068.032h-8.75l-.085-.036a.632.632 0 0 1-.362-.336.73.73 0 0 1-.059-.316v-7.139a.638.638 0 0 1 .658-.657c.178-.002.356 0 .534 0 .026 0 .051-.003.083-.004v-1.973a3.57 3.57 0 0 1 .932-2.351 3.577 3.577 0 0 1 2.207-1.154c.075-.01.149-.022.222-.034Zm2.574 5.512c0-.028.003-.046.003-.063v-1.82c0-.119-.007-.24-.026-.358a2.272 2.272 0 0 0-.767-1.412 2.255 2.255 0 0 0-1.95-.545c-.68.118-1.202.484-1.572 1.066a2.122 2.122 0 0 0-.347 1.13c-.006.644 0 1.289 0 1.933 0 .023.004.045.007.069h4.655-.003Zm-2.963 4.945c0 .128-.004.257 0 .384a.631.631 0 0 0 .863.571.638.638 0 0 0 .403-.591c0-.248.003-.495 0-.743 0-.072.02-.122.074-.173.328-.309.429-.685.296-1.114a1.034 1.034 0 0 0-.976-.728 1.058 1.058 0 0 0-.722 1.86.154.154 0 0 1 .062.134c-.004.133 0 .267 0 .401v-.001Z" fill="#231815"/></g><g clip-path="url(#clip13_94_6221)"><path d="M118.157 417.35h.49c.019.005.039.012.058.013.203.017.404.051.602.104a3.556 3.556 0 0 1 1.634.934c.309.307.553.66.735 1.055.228.493.329 1.011.331 1.552v1.858h.097c.176 0 .35-.003.525 0 .288.004.525.166.61.426a.928.928 0 0 1 .041.283c.003 2.357.001 4.713.001 7.069v.07a.637.637 0 0 1-.436.604c-.024.008-.046.021-.068.032h-8.75c-.028-.012-.057-.025-.086-.036a.631.631 0 0 1-.361-.336.729.729 0 0 1-.059-.316v-7.139a.639.639 0 0 1 .657-.657c.179-.002.357 0 .535 0 .025 0 .051-.003.083-.004v-1.973a3.572 3.572 0 0 1 .932-2.351 3.579 3.579 0 0 1 2.207-1.154c.075-.01.148-.022.222-.034Zm2.574 5.512.002-.063c0-.607.002-1.213 0-1.82 0-.119-.006-.24-.025-.358a2.272 2.272 0 0 0-.767-1.412 2.256 2.256 0 0 0-1.95-.545c-.68.118-1.203.484-1.572 1.066a2.116 2.116 0 0 0-.347 1.13c-.007.644 0 1.289 0 1.933 0 .023.004.045.007.069h4.654-.002Zm-2.964 4.945c0 .128-.004.257 0 .384a.632.632 0 0 0 .864.571.64.64 0 0 0 .403-.591c0-.248.003-.495-.001-.743 0-.072.02-.122.075-.173.328-.309.428-.685.296-1.114a1.035 1.035 0 0 0-.977-.728 1.053 1.053 0 0 0-1.013.667c-.168.416-.053.891.292 1.193a.152.152 0 0 1 .061.134c-.004.133 0 .267 0 .401v-.001Z" fill="#231815"/></g><path d="M64.5 407.85H260a4.5 4.5 0 0 1 4.5 4.5v24a4.5 4.5 0 0 1-4.5 4.5H64.5v-33Z" stroke="#231815"/><path d="M15.5 456.35a4.5 4.5 0 0 1 4.5-4.5h44.5v33H20a4.5 4.5 0 0 1-4.5-4.5v-24Z" fill="#00698A"/><path d="m30.138 467.442.21 1.526c-.49.14-.994.28-1.498.406v3.346c0 .812-.154 1.204-.63 1.47-.462.252-1.134.294-2.114.294a7.24 7.24 0 0 0-.476-1.512c.546.014 1.12.014 1.302.014.21 0 .266-.07.266-.28v-2.884l-1.358.336-.434-1.582c.518-.098 1.12-.238 1.792-.406v-2.478h-1.61v-1.54h1.61v-2.66h1.652v2.66h1.372v1.54H28.85v2.072l1.288-.322Zm5.852.756h-3.402a8.001 8.001 0 0 0 1.652 2.478 7.802 7.802 0 0 0 1.75-2.478Zm1.05-1.568 1.064.448c-.532 1.946-1.428 3.472-2.604 4.648.91.644 1.988 1.106 3.234 1.414-.35.336-.826 1.008-1.064 1.442-1.358-.406-2.52-.98-3.486-1.764-1.092.756-2.324 1.316-3.682 1.722-.182-.448-.588-1.148-.896-1.512 1.232-.294 2.366-.742 3.346-1.372-.826-.938-1.484-2.044-1.988-3.332l.42-.126h-.728V466.7h2.758v-1.68h-3.01v-1.54h3.01v-2.002h1.652v2.002h3.136v1.54h-3.136v1.68h1.68l.294-.07Zm15.274 1.036h-2.128c-1.68 0-2.128-.616-2.128-2.17v-3.976h1.652v1.652h3.444v1.428H49.71v.924c0 .518.084.714.532.714h2.044c.392 0 .98-.042 1.288-.112.028.434.098 1.036.154 1.414-.294.098-.882.126-1.414.126Zm-9.044 1.498v.504c0 .532-.028 1.162-.098 1.792.63-.28 1.456-.7 2.296-1.148v-.462l-.672.658c-.35-.364-.994-.91-1.526-1.344Zm2.198-1.26H43.27v.994l.7-.602c.476.336 1.078.826 1.498 1.19v-1.582Zm1.568-1.4v6.524c0 .686-.126 1.036-.588 1.26-.448.21-1.078.238-1.932.238-.07-.392-.294-.938-.504-1.302.504.028 1.05.028 1.218.028.182 0 .238-.056.238-.238v-1.428c-.7.504-1.4.98-2.03 1.386l-.35-.98c-.154.952-.462 1.904-.994 2.632-.238-.322-.868-.924-1.162-1.12.742-1.092.798-2.632.798-3.85v-3.15h5.306Zm-2.128-3.486 1.344-.49c.588 1.008 1.33 2.38 1.666 3.22l-1.456.588c-.084-.252-.21-.546-.35-.882-3.542.35-4.116.434-4.522.602a17.634 17.634 0 0 0-.518-1.498c.252-.056.49-.252.77-.56.28-.308 1.134-1.386 1.652-2.492l1.68.476c-.476.812-1.106 1.624-1.722 2.324l2.044-.154c-.21-.406-.406-.798-.588-1.134Zm5.446 9.996h1.596c.476 0 .574-.238.644-1.526.336.252 1.008.504 1.442.602-.168 1.834-.602 2.38-1.932 2.38h-1.988c-1.652 0-2.058-.49-2.058-2.016v-4.396h1.652v1.4h3.542v1.47H49.71v1.526c0 .49.098.56.644.56Z" fill="#fff"/><path d="M15.5 456.35a4.5 4.5 0 0 1 4.5-4.5h44.5v33H20a4.5 4.5 0 0 1-4.5-4.5v-24Z" stroke="#231815"/><path d="M64.5 451.85H260a4.5 4.5 0 0 1 4.5 4.5v24a4.5 4.5 0 0 1-4.5 4.5H64.5v-33Z" fill="#fff"/><g clip-path="url(#clip14_94_6221)"><path d="M78.636 461.35h.49c.019.005.039.012.057.013.204.017.405.051.603.104a3.552 3.552 0 0 1 1.634.934c.31.307.553.66.735 1.055a3.67 3.67 0 0 1 .33 1.552c.002.587 0 1.172 0 1.759v.099h.099c.175 0 .349-.003.524 0 .288.004.525.166.61.426.03.089.041.188.041.283.003 2.357.001 4.713.001 7.069v.07a.637.637 0 0 1-.436.604c-.024.008-.046.021-.068.032h-8.75l-.085-.036a.632.632 0 0 1-.362-.336.732.732 0 0 1-.059-.316v-7.139a.638.638 0 0 1 .657-.657c.179-.002.357 0 .535 0 .025 0 .05-.003.083-.004v-1.973a3.57 3.57 0 0 1 .932-2.351 3.577 3.577 0 0 1 2.207-1.154c.075-.01.148-.022.222-.034Zm2.574 5.512.002-.063c0-.607.002-1.213 0-1.82 0-.119-.007-.24-.025-.358a2.271 2.271 0 0 0-.767-1.412 2.255 2.255 0 0 0-1.95-.545c-.68.118-1.203.484-1.572 1.066a2.122 2.122 0 0 0-.347 1.13c-.007.644 0 1.289 0 1.933 0 .023.004.045.007.069h4.654-.002Zm-2.964 4.945c0 .128-.004.257 0 .384a.631.631 0 0 0 .864.571.638.638 0 0 0 .403-.591c0-.248.003-.495-.001-.743 0-.072.02-.122.075-.173.328-.309.428-.685.295-1.114a1.034 1.034 0 0 0-.976-.728 1.058 1.058 0 0 0-.722 1.86.154.154 0 0 1 .062.134c-.004.133 0 .267 0 .401v-.001Z" fill="#231815"/></g><g clip-path="url(#clip15_94_6221)"><path d="M98.396 461.35h.49c.02.005.04.012.058.013.204.017.404.051.603.104a3.547 3.547 0 0 1 1.633.934c.31.307.553.66.735 1.055.228.493.33 1.011.331 1.552.002.587 0 1.172 0 1.759v.099h.098c.175 0 .349-.003.525 0 .288.004.525.166.609.426.03.089.042.188.042.283.002 2.357.001 4.713.001 7.069v.07a.638.638 0 0 1-.437.604c-.024.008-.045.021-.068.032h-8.75l-.085-.036a.632.632 0 0 1-.362-.336.73.73 0 0 1-.059-.316v-7.139a.638.638 0 0 1 .658-.657c.178-.002.356 0 .534 0 .026 0 .051-.003.083-.004v-1.973a3.57 3.57 0 0 1 .932-2.351 3.577 3.577 0 0 1 2.207-1.154c.075-.01.149-.022.222-.034Zm2.574 5.512c0-.028.003-.046.003-.063v-1.82c0-.119-.007-.24-.026-.358a2.272 2.272 0 0 0-.767-1.412 2.255 2.255 0 0 0-1.95-.545c-.68.118-1.202.484-1.572 1.066a2.122 2.122 0 0 0-.347 1.13c-.006.644 0 1.289 0 1.933 0 .023.004.045.007.069h4.655-.003Zm-2.963 4.945c0 .128-.004.257 0 .384a.631.631 0 0 0 .863.571.638.638 0 0 0 .403-.591c0-.248.003-.495 0-.743 0-.072.02-.122.074-.173.328-.309.429-.685.296-1.114a1.034 1.034 0 0 0-.976-.728 1.058 1.058 0 0 0-.722 1.86.154.154 0 0 1 .062.134c-.004.133 0 .267 0 .401v-.001Z" fill="#231815"/></g><g clip-path="url(#clip16_94_6221)"><path d="M118.157 461.35h.49c.019.005.039.012.058.013.203.017.404.051.602.104a3.556 3.556 0 0 1 1.634.934c.309.307.553.66.735 1.055.228.493.329 1.011.331 1.552v1.858h.097c.176 0 .35-.003.525 0 .288.004.525.166.61.426a.928.928 0 0 1 .041.283c.003 2.357.001 4.713.001 7.069v.07a.637.637 0 0 1-.436.604c-.024.008-.046.021-.068.032h-8.75c-.028-.012-.057-.025-.086-.036a.631.631 0 0 1-.361-.336.729.729 0 0 1-.059-.316v-7.139a.639.639 0 0 1 .657-.657c.179-.002.357 0 .535 0 .025 0 .051-.003.083-.004v-1.973a3.572 3.572 0 0 1 .932-2.351 3.579 3.579 0 0 1 2.207-1.154c.075-.01.148-.022.222-.034Zm2.574 5.512.002-.063c0-.607.002-1.213 0-1.82 0-.119-.006-.24-.025-.358a2.272 2.272 0 0 0-.767-1.412 2.256 2.256 0 0 0-1.95-.545c-.68.118-1.203.484-1.572 1.066a2.116 2.116 0 0 0-.347 1.13c-.007.644 0 1.289 0 1.933 0 .023.004.045.007.069h4.654-.002Zm-2.964 4.945c0 .128-.004.257 0 .384a.632.632 0 0 0 .864.571.64.64 0 0 0 .403-.591c0-.248.003-.495-.001-.743 0-.072.02-.122.075-.173.328-.309.428-.685.296-1.114a1.035 1.035 0 0 0-.977-.728 1.053 1.053 0 0 0-1.013.667c-.168.416-.053.891.292 1.193a.152.152 0 0 1 .061.134c-.004.133 0 .267 0 .401v-.001Z" fill="#231815"/></g><path d="M64.5 451.85H260a4.5 4.5 0 0 1 4.5 4.5v24a4.5 4.5 0 0 1-4.5 4.5H64.5v-33Z" stroke="#231815"/><rect x=".5" y=".5" width="279" height="504.35" rx="4.5" stroke="#231815"/><defs><clipPath id="clip0_94_6221"><path fill="#fff" transform="translate(79.27)" d="M0 0h121.46v30.99H0z"/></clipPath><clipPath id="clip1_94_6221"><path fill="#fff" transform="translate(58 114.99)" d="M0 0h164.625v180H0z"/></clipPath><clipPath id="clip2_94_6221"><path fill="#fff" transform="translate(63.635 334.99)" d="M0 0h18.56v18.36H0z"/></clipPath><clipPath id="clip3_94_6221"><path fill="#fff" transform="translate(84.195 334.99)" d="M0 0h18.56v18.36H0z"/></clipPath><clipPath id="clip4_94_6221"><path fill="#fff" transform="translate(104.755 334.99)" d="M0 0h18.56v18.36H0z"/></clipPath><clipPath id="clip5_94_6221"><path fill="#fff" transform="translate(207.315 334.99)" d="M0 0h17.35v16.5H0z"/></clipPath><clipPath id="clip6_94_6221"><path fill="#fff" transform="translate(226.665 334.99)" d="M0 0h17.35v16.5H0z"/></clipPath><clipPath id="clip7_94_6221"><path fill="#fff" transform="translate(246.015 334.99)" d="M0 0h17.35v16.5H0z"/></clipPath><clipPath id="clip8_94_6221"><path fill="#fff" transform="translate(74 373.35)" d="M0 0h9.761v14H0z"/></clipPath><clipPath id="clip9_94_6221"><path fill="#fff" transform="translate(93.76 373.35)" d="M0 0h9.761v14H0z"/></clipPath><clipPath id="clip10_94_6221"><path fill="#fff" transform="translate(113.521 373.35)" d="M0 0h9.761v14H0z"/></clipPath><clipPath id="clip11_94_6221"><path fill="#fff" transform="translate(74 417.35)" d="M0 0h9.761v14H0z"/></clipPath><clipPath id="clip12_94_6221"><path fill="#fff" transform="translate(93.76 417.35)" d="M0 0h9.761v14H0z"/></clipPath><clipPath id="clip13_94_6221"><path fill="#fff" transform="translate(113.521 417.35)" d="M0 0h9.761v14H0z"/></clipPath><clipPath id="clip14_94_6221"><path fill="#fff" transform="translate(74 461.35)" d="M0 0h9.761v14H0z"/></clipPath><clipPath id="clip15_94_6221"><path fill="#fff" transform="translate(93.76 461.35)" d="M0 0h9.761v14H0z"/></clipPath><clipPath id="clip16_94_6221"><path fill="#fff" transform="translate(113.521 461.35)" d="M0 0h9.761v14H0z"/></clipPath></defs></svg>