<svg fill="none" xmlns="http://www.w3.org/2000/svg" viewBox="0 0 280 506"><rect x=".5" y=".5" width="279" height="504.35" rx="4.5" fill="#74D194"/><g clip-path="url(#clip0_94_6219)" stroke="#231815" stroke-miterlimit="10"><path d="M84.32 27.21c.34 1.64 1.95 2.83 3.83 2.84l103.68.44c1.88 0 3.5-1.17 3.85-2.81l4.41-20.48c.67-3.11-1.07-6.21-3.48-6.22L83.06.5C80.7.49 79.29 2.97 79.92 6l4.4 21.2v.01Z" fill="#00698A"/><path d="M116.48 17.4c.14 1.03.82 1.78 1.61 1.79l43.77.23c.79 0 1.48-.74 1.63-1.77l1.87-12.91c.28-1.96-.45-3.91-1.47-3.92L115.95.57c-.99 0-1.59 1.56-1.33 3.47l1.85 13.36h.01Z" fill="#74D194"/><path d="M185.67 10.21c0-1.42 1.16-2.56 2.58-2.55 1.42 0 2.56 1.16 2.55 2.58 0 1.42-1.16 2.56-2.57 2.55-1.42 0-2.56-1.16-2.55-2.58h-.01Zm-10.74-.02c0-1.42 1.16-2.56 2.58-2.55 1.42 0 2.56 1.16 2.55 2.58 0 1.42-1.16 2.56-2.58 2.55-1.42 0-2.56-1.16-2.55-2.58Zm-80.59-.28c0-1.42-1.15-2.57-2.56-2.57-1.42 0-2.57 1.15-2.57 2.56 0 1.42 1.15 2.57 2.56 2.57 1.42 0 2.57-1.15 2.57-2.56Zm10.73.02c0-1.42-1.15-2.57-2.56-2.57-1.42 0-2.57 1.15-2.57 2.56 0 1.42 1.15 2.57 2.56 2.57 1.42 0 2.57-1.15 2.57-2.56Z" fill="#FFE600"/></g><path d="M119.96 52.702v.744l.984-.024c-.12-.168-.24-.336-.36-.48l.552-.24h-1.176Zm-4.368-1.8h1.416v-.648h-1.416v.648Zm0-2.976v.624h1.416v-.624h-1.416Zm5.784 0h-1.416v.624h1.416v-.624Zm0 2.976v-.648h-1.416v.648h1.416Zm-8.832 5.088-.192-2.424c1.296 0 2.904-.024 4.656-.072v-.792h-4.104v-6.576h4.104v-.624h-4.416v-2.52h4.416V41.47h2.952v1.512h4.632v2.52h-4.632v.624h4.248v6.576h-.696c.648.888 1.248 1.896 1.584 2.64l-2.424 1.176c-.096-.24-.216-.528-.36-.816-3.528.144-7.128.216-9.768.288Zm6.6 5.28v-2.04h-2.688c.552.648 1.032 1.368 1.296 1.944l-.696.432c.696.024 1.416.024 1.632.024.336-.024.456-.096.456-.36Zm-13.824-8.112v.984h.912v-.984h-.912Zm0-3.192v.96h.912v-.96h-.912Zm4.104.96v-.96h-.984v.96h.984Zm0 3.216v-.984h-.984v.984h.984Zm12.912 1.8v.768h2.616v2.52h-2.616v2.136c0 1.416-.264 2.136-1.272 2.568-1.008.408-2.28.432-3.96.432-.096-.72-.408-1.608-.696-2.352l-1.128.696c-.336-.84-1.128-2.088-1.944-2.952l.912-.528H112.4v1.44h-3.528v3.576H105.8V60.67h-3.672v-3.024h3.672v-1.128h-2.88V47.59h2.88v-1.008h-3.312v-2.976h3.312v-2.112h3.072v2.112h3.24v2.976h-3.24v1.008h3.048v8.928h-3.048v1.128h3.528v-.936h6.744v-.768h3.192Zm24.024-3.24v.744l.984-.024c-.12-.168-.24-.336-.36-.48l.552-.24h-1.176Zm-4.368-1.8h1.416v-.648h-1.416v.648Zm0-2.976v.624h1.416v-.624h-1.416Zm5.784 0h-1.416v.624h1.416v-.624Zm0 2.976v-.648h-1.416v.648h1.416Zm-8.832 5.088-.192-2.424c1.296 0 2.904-.024 4.656-.072v-.792h-4.104v-6.576h4.104v-.624h-4.416v-2.52h4.416V41.47h2.952v1.512h4.632v2.52h-4.632v.624h4.248v6.576h-.696c.648.888 1.248 1.896 1.584 2.64l-2.424 1.176c-.096-.24-.216-.528-.36-.816-3.528.144-7.128.216-9.768.288Zm6.6 5.28v-2.04h-2.688c.552.648 1.032 1.368 1.296 1.944l-.696.432c.696.024 1.416.024 1.632.024.336-.024.456-.096.456-.36Zm-13.824-8.112v.984h.912v-.984h-.912Zm0-3.192v.96h.912v-.96h-.912Zm4.104.96v-.96h-.984v.96h.984Zm0 3.216v-.984h-.984v.984h.984Zm12.912 1.8v.768h2.616v2.52h-2.616v2.136c0 1.416-.264 2.136-1.272 2.568-1.008.408-2.28.432-3.96.432-.096-.72-.408-1.608-.696-2.352l-1.128.696c-.336-.84-1.128-2.088-1.944-2.952l.912-.528H138.8v1.44h-3.528v3.576H132.2V60.67h-3.672v-3.024h3.672v-1.128h-2.88V47.59h2.88v-1.008h-3.312v-2.976h3.312v-2.112h3.072v2.112h3.24v2.976h-3.24v1.008h3.048v8.928h-3.048v1.128h3.528v-.936h6.744v-.768h3.192Zm16.368-11.112v-1.104h-.816v1.104h.816Zm2.52-3v4.872h-5.712V41.83h5.712Zm-8.616 10.128v.72h1.176v-.72h-1.176Zm0-2.592v.72h1.176v-.72h-1.176Zm5.208.72v-.72h-1.248v.72h1.248Zm0 2.592v-.72h-1.248v.72h1.248Zm-8.256 1.992v-7.296h11.448v7.296H155.96Zm2.856-9.84v-1.104h-.744v1.104h.744Zm2.448-3v4.872h-5.52V41.83h5.52Zm7.152 13.344v2.4H155v-2.4h13.416Zm-8.88 6.024h4.296v-.792h-4.296v.792Zm18.168-10.2h-3.6c.6 4.272 1.776 8.256 4.056 10.44-.768.624-1.896 1.944-2.424 2.88-1.488-1.608-2.496-3.816-3.216-6.432-.792 2.328-1.992 4.536-3.816 6.384-.336-.432-.96-1.056-1.56-1.584v1.344h-3.312v-.48h-4.296v.72h-3.168v-6.168h10.776v2.688c2.472-2.856 3.12-6.6 3.312-9.792h-2.712v-3.192h2.76v-6.36h3.384v1.632l2.52-.912c.696 1.32 1.392 3.048 1.608 4.2l-2.904 1.08c-.12-1.008-.648-2.568-1.224-3.888v4.248h3.816v3.192Z" fill="#231815"/><path d="M15.5 199.99c0-68.759 55.74-124.5 124.5-124.5 68.759 0 124.5 55.741 124.5 124.5v120a4.5 4.5 0 0 1-4.5 4.5H20a4.5 4.5 0 0 1-4.5-4.5v-120Z" fill="#fff" stroke="#231815"/><g clip-path="url(#clip1_94_6219)"><path d="M154.064 177.983c-8.961 11.106-24.721 15.892-38.347 11.642-.705-.216-1.401-.461-2.078-.696-2.097-.724-4.081-1.41-5.981-1.363-1.749.047-3.855 1.26-3.855 2.708a2.62 2.62 0 0 1-2.605 2.623 2.612 2.612 0 0 1-2.614-2.604c0-2.257 1.081-4.335 3.056-5.868 1.646-1.27 3.79-2.031 5.877-2.088 2.85-.075 5.388.8 7.833 1.646a60.11 60.11 0 0 0 1.928.649c5.576 1.739 11.905 1.711 17.838-.094 5.934-1.796 11.209-5.294 14.877-9.836" fill="#231815"/><path d="M154.064 177.983c-8.961 11.106-24.721 15.892-38.347 11.642-.705-.216-1.401-.461-2.078-.696-2.097-.724-4.081-1.41-5.981-1.363-1.749.047-3.855 1.26-3.855 2.708a2.62 2.62 0 0 1-2.605 2.623 2.612 2.612 0 0 1-2.614-2.604c0-2.257 1.081-4.335 3.056-5.868 1.646-1.27 3.79-2.031 5.877-2.088 2.85-.075 5.388.8 7.833 1.646a60.11 60.11 0 0 0 1.928.649c5.576 1.739 11.905 1.711 17.838-.094 5.934-1.796 11.209-5.294 14.877-9.836" stroke="#231815" stroke-miterlimit="10"/><path d="M161.248 207.266c23.734 0 42.974-19.24 42.974-42.974 0-23.733-19.24-42.973-42.974-42.973-23.733 0-42.973 19.24-42.973 42.973 0 23.734 19.24 42.974 42.973 42.974Z" fill="#231815" stroke="#231815" stroke-miterlimit="10"/><path d="m137.533 166.822-.63 2.717a2.71 2.71 0 0 1-3.244 2.022 2.711 2.711 0 0 1-2.022-3.244l.63-2.718" stroke="#231815" stroke-linecap="round" stroke-linejoin="round"/><path d="M144.604 201.783c4.702-2.633 11.435-1.617 14.444 2.859 1.73 2.577 2.078 5.802 2.417 8.877 2.059 18.948 5.002 38.027 10.005 56.392-.179-.658-13.296.009-14.641.028-4.448.075-8.952.395-13.381.075.329-3.695-.555-7.24-.837-10.945-.292-3.855-.386-7.73-.931-11.566a692.027 692.027 0 0 0-2.783-18.149c-.772-4.626-2.586-9.902-1.947-14.603.687-5.106 3-10.363 7.664-12.977l-.01.009Z" fill="#231815" stroke="#231815" stroke-miterlimit="10"/><mask id="mask0_94_6219" style="mask-type:luminance" maskUnits="userSpaceOnUse" x="136" y="200" width="36" height="71"><path d="M144.604 201.783c4.702-2.633 11.435-1.617 14.444 2.859 1.73 2.577 2.078 5.802 2.417 8.877 2.059 18.948 5.002 38.027 10.005 56.392-.179-.658-13.296.009-14.641.028-4.448.075-8.952.395-13.381.075.329-3.695-.555-7.24-.837-10.945-.292-3.855-.386-7.73-.931-11.566a692.027 692.027 0 0 0-2.783-18.149c-.772-4.626-2.586-9.902-1.947-14.603.687-5.106 3-10.363 7.664-12.977l-.01.009Z" fill="#fff"/></mask><g mask="url(#mask0_94_6219)"><path d="m136.856 251.424 6.093 10.663c1.862-6.272 3.715-12.534 5.577-18.806l5.134 19.276c1.533-2.933 3.056-5.867 4.589-8.801 2.473 3.423 4.937 6.846 7.41 10.268.855-1.673 1.72-3.338 2.576-5.012a66.66 66.66 0 0 1 6.404 16.992 325.187 325.187 0 0 1-39.043 9.507c-1.063-6.3-.668-12.356-.893-18.666-.085-2.463-.311-4.607.065-7.127.217-1.439 2.586-7.42 2.079-8.294h.009Z" fill="#231815" stroke="#231815" stroke-linecap="round" stroke-linejoin="round"/></g><path d="M144.604 201.783c4.702-2.633 11.435-1.617 14.444 2.859 1.73 2.577 2.078 5.802 2.417 8.877 2.059 18.948 5.002 38.027 10.005 56.392-.179-.658-13.296.009-14.641.028-4.448.075-8.952.395-13.381.075.329-3.695-.555-7.24-.837-10.945-.292-3.855-.386-7.73-.931-11.566a692.027 692.027 0 0 0-2.783-18.149c-.772-4.626-2.586-9.902-1.947-14.603.687-5.106 3-10.363 7.664-12.977l-.01.009Z" stroke="#231815" stroke-linecap="round" stroke-linejoin="round"/><mask id="mask1_94_6219" style="mask-type:luminance" maskUnits="userSpaceOnUse" x="115" y="197" width="72" height="61"><path d="M158.183 210.096c-5.529-3.432-11.209-6.93-17.584-8.237-6.376-1.307-13.692 0-17.952 4.936-3.121 3.621-4.156 8.595-4.363 13.372-.498 11.877-2.275 24.439-3.056 36.307 9.037 1.335 23.96.827 33.063.084-2.182-7.598-4.373-15.196-6.555-22.794-.884-3.075-1.767-6.159-2.341-9.3-.141-.752-1.279-7.353.075-7.062.198.047.546.997.658 1.176.743 1.213 1.731 2.341 2.624 3.441 1.805 2.238 3.752 4.373 5.915 6.273 3.836 3.347 8.463 5.943 13.503 6.695 5.04.752 10.494-.508 14.227-3.968 4.016-3.734 5.577-9.404 6.254-14.848.677-5.445 1.852-10.927 3.526-16.146-17.218-1.345-35.667-2.295-52.932-2.642-.009 1.448-.122 2.821.132 4.24" fill="#fff"/></mask><g mask="url(#mask1_94_6219)"><path d="m116.78 233.614 6.093 10.663c1.862-6.272 3.714-12.534 5.576-18.807 1.712 6.423 3.423 12.855 5.135 19.277 1.532-2.933 3.056-5.867 4.588-8.801 2.474 3.423 4.937 6.846 7.41 10.268.856-1.673 1.721-3.338 2.577-5.012a66.645 66.645 0 0 1 6.404 16.992 325.187 325.187 0 0 1-39.043 9.507c-1.063-6.3-.668-12.356-.894-18.666-.084-2.463-.31-4.607.066-7.127.216-1.439 2.586-7.42 2.078-8.294h.01Z" fill="#231815" stroke="#231815" stroke-linecap="round" stroke-linejoin="round"/></g><path d="M158.183 210.096c-5.529-3.432-11.209-6.93-17.584-8.237-6.376-1.307-13.692 0-17.952 4.936-3.121 3.621-4.156 8.595-4.363 13.372-.498 11.877-2.275 24.439-3.056 36.307 9.037 1.335 23.96.827 33.063.084-2.182-7.598-4.373-15.196-6.555-22.794-.884-3.075-1.767-6.159-2.341-9.3-.141-.752-1.279-7.353.075-7.062.198.047.546.997.658 1.176.743 1.213 1.731 2.341 2.624 3.441 1.805 2.238 3.752 4.373 5.915 6.273 3.836 3.347 8.463 5.943 13.503 6.695 5.04.752 10.494-.508 14.227-3.968 4.016-3.734 5.577-9.404 6.254-14.848.677-5.445 1.852-10.927 3.526-16.146-17.218-1.345-35.667-2.295-52.932-2.642-.009 1.448-.122 2.821.132 4.24" stroke="#231815" stroke-linecap="round" stroke-linejoin="round"/><path d="M158.183 210.096c-5.529-3.432-11.209-6.93-17.584-8.237-6.376-1.307-13.692 0-17.952 4.936-3.121 3.621-4.156 8.595-4.363 13.372-.498 11.877-2.275 24.439-3.056 36.307 9.037 1.335 23.96.827 33.063.084-2.182-7.598-4.373-15.196-6.555-22.794-.884-3.075-1.767-6.159-2.341-9.3-.141-.752-1.279-7.353.075-7.062.198.047.546.997.658 1.176.743 1.213 1.731 2.341 2.624 3.441 1.805 2.238 3.752 4.373 5.915 6.273 3.836 3.347 8.463 5.943 13.503 6.695 5.04.752 10.494-.508 14.227-3.968 4.016-3.734 5.577-9.404 6.254-14.848.677-5.445 1.852-10.927 3.526-16.146-17.218-1.345-35.667-2.295-52.932-2.642-.009 1.448-.122 2.821.132 4.24" fill="#231815"/><path d="M158.183 210.096c-5.529-3.432-11.209-6.93-17.584-8.237-6.376-1.307-13.692 0-17.952 4.936-3.121 3.621-4.156 8.595-4.363 13.372-.498 11.877-2.275 24.439-3.056 36.307 9.037 1.335 23.96.827 33.063.084-2.182-7.598-4.373-15.196-6.555-22.794-.884-3.075-1.767-6.159-2.341-9.3-.141-.752-1.279-7.353.075-7.062.198.047.546.997.658 1.176.743 1.213 1.731 2.341 2.624 3.441 1.805 2.238 3.752 4.373 5.915 6.273 3.836 3.347 8.463 5.943 13.503 6.695 5.04.752 10.494-.508 14.227-3.968 4.016-3.734 5.577-9.404 6.254-14.848.677-5.445 1.852-10.927 3.526-16.146-17.218-1.345-35.667-2.295-52.932-2.642-.009 1.448-.122 2.821.132 4.24" stroke="#231815" stroke-miterlimit="10"/><path d="M172.42 213.5c-1.289 2.887-2.464 5.924-2.398 9.084.066 3.159 1.645 6.469 4.542 7.729 2.228.969 3.554-.282 4.73-2.087a21.022 21.022 0 0 0 2.727-6.131c.131-.489 1.09-5.323.677-5.36a16.648 16.648 0 0 1-4.081-.95l-6.197-2.285ZM70.703 242.688v5.736s25.126 7.749 27.552 33.476l13.071-.047s-7.918-6.77-10.034-14.048c-2.115-7.279-4.203-17.105-11.481-21.111-7.27-4.006-19.108-3.996-19.108-3.996v-.01Z" fill="#231815" stroke="#231815" stroke-miterlimit="10"/><path d="M70.9 255.317h-.197a.47.47 0 0 0-.47.47v31.172c0 .26.21.471.47.471h.198a.47.47 0 0 0 .47-.471v-31.172a.47.47 0 0 0-.47-.47Z" fill="#231815"/><path d="M70.91 255.787v31.173h-.198v-31.173h.198Zm0-.94h-.198a.943.943 0 0 0-.94.94v31.173c0 .517.423.94.94.94h.198c.517 0 .94-.423.94-.94v-31.173a.943.943 0 0 0-.94-.94Zm3.978.47h-.198a.47.47 0 0 0-.47.47v31.172c0 .26.21.471.47.471h.198a.47.47 0 0 0 .47-.471v-31.172a.47.47 0 0 0-.47-.47Z" fill="#231815"/><path d="M74.888 255.787v31.173h-.198v-31.173h.198Zm0-.94h-.198a.943.943 0 0 0-.94.94v31.173c0 .517.423.94.94.94h.198c.517 0 .94-.423.94-.94v-31.173a.943.943 0 0 0-.94-.94Z" fill="#231815"/><path d="M88.39 268.811H57.22a.47.47 0 0 0-.47.47v.197c0 .26.21.471.47.471h31.17a.47.47 0 0 0 .47-.471v-.197a.47.47 0 0 0-.47-.47Z" fill="#231815"/><path d="M88.381 269.281v.198H57.218v-.198h31.173m0-.94H57.218a.943.943 0 0 0-.94.94v.198c0 .517.423.94.94.94h31.173c.517 0 .94-.423.94-.94v-.198a.943.943 0 0 0-.94-.94Zm-.001 4.448H57.22a.47.47 0 0 0-.47.47v.197c0 .26.21.47.47.47h31.17c.26 0 .47-.21.47-.47v-.197a.47.47 0 0 0-.47-.47Z" fill="#231815"/><path d="M88.381 273.259v.197H57.218v-.197h31.173m0-.941H57.218a.944.944 0 0 0-.94.941v.197c0 .517.423.941.94.941h31.173c.517 0 .94-.424.94-.941v-.197a.944.944 0 0 0-.94-.941Z" fill="#231815"/><path d="M69.217 287.157a.492.492 0 0 1-.32-.169.455.455 0 0 1-.103-.348l2.915-31.032a.487.487 0 0 1 .17-.319.485.485 0 0 1 .3-.104c.02 0 .245.019.245.019a.471.471 0 0 1 .423.508l-2.915 31.031a.463.463 0 0 1-.47.423c-.019 0-.245-.019-.245-.019v.01Z" fill="#231815"/><path d="m72.17 255.656.198.018-2.916 31.032-.197-.019 2.915-31.031Zm0-.941a.946.946 0 0 0-.94.856l-2.915 31.031a.94.94 0 0 0 .846 1.025l.197.019h.085a.945.945 0 0 0 .602-.216.978.978 0 0 0 .338-.64l2.915-31.031a.94.94 0 0 0-.846-1.025l-.197-.019h-.094.009Zm1.016 32.818a.487.487 0 0 1-.32-.169.454.454 0 0 1-.103-.348l2.914-31.031a.463.463 0 0 1 .47-.423c.02 0 .245.018.245.018.122.01.235.076.32.17a.454.454 0 0 1 .103.348L73.9 287.129a.464.464 0 0 1-.47.423c-.019 0-.244-.019-.244-.019Z" fill="#231815"/><path d="m76.138 256.032.198.018-2.915 31.032-.198-.019 2.915-31.031Zm0-.941a.932.932 0 0 0-.93.856l-2.916 31.031a.957.957 0 0 0 .216.687c.16.188.386.31.64.338l.197.019h.085c.48 0 .893-.367.931-.856l2.915-31.031a.956.956 0 0 0-.216-.686.977.977 0 0 0-.64-.339l-.197-.019h-.085Z" fill="#231815"/><path d="M57.416 268.501a.493.493 0 0 1-.32-.17.495.495 0 0 1-.103-.348l.019-.197a.47.47 0 0 1 .47-.423c.019 0 31.078 2.915 31.078 2.915a.487.487 0 0 1 .32.169.494.494 0 0 1 .103.348l-.019.198a.47.47 0 0 1-.47.423c-.019 0-31.078-2.915-31.078-2.915Z" fill="#231815"/><path d="m57.482 267.833 31.031 2.915-.019.197-31.03-2.915.018-.197Zm0-.94a.932.932 0 0 0-.931.855l-.019.198a.956.956 0 0 0 .216.686c.16.188.386.311.64.339l31.031 2.915h.085a.93.93 0 0 0 .93-.856l.02-.197a.958.958 0 0 0-.217-.687.975.975 0 0 0-.64-.338l-31.03-2.915h-.085Zm-.442 5.576a.492.492 0 0 1-.32-.169.496.496 0 0 1-.103-.348l.019-.198a.47.47 0 0 1 .47-.423c.019 0 31.078 2.915 31.078 2.915.122.01.235.075.32.169a.496.496 0 0 1 .103.348l-.019.198a.47.47 0 0 1-.47.423c-.019 0-31.078-2.915-31.078-2.915Z" fill="#231815"/><path d="m57.106 271.792 31.03 2.915-.018.197-31.031-2.915.019-.197Zm0-.94a.945.945 0 0 0-.602.216.975.975 0 0 0-.339.639l-.018.198a.94.94 0 0 0 .846 1.025l31.031 2.915h.085a.93.93 0 0 0 .93-.856l.02-.197a.958.958 0 0 0-.217-.687.975.975 0 0 0-.64-.338l-31.03-2.915h-.085.019Z" fill="#231815"/><path d="M60.444 281.524a.441.441 0 0 1-.33-.141l-.14-.141a.483.483 0 0 1 0-.668l22.041-22.041a.456.456 0 0 1 .658 0l.142.141a.466.466 0 0 1 0 .668l-22.042 22.041a.477.477 0 0 1-.33.141Z" fill="#231815"/><path d="m82.335 258.872.141.141-22.041 22.041-.142-.141 22.042-22.041Zm0-.941a.962.962 0 0 0-.667.273l-22.042 22.042a.935.935 0 0 0 0 1.325l.14.141a.93.93 0 0 0 .669.273.968.968 0 0 0 .667-.273l22.042-22.041a.932.932 0 0 0 .272-.668.968.968 0 0 0-.272-.667l-.141-.141a.962.962 0 0 0-.668-.273v.009Zm-19.08 26.414a.441.441 0 0 1-.329-.141l-.14-.141a.478.478 0 0 1-.142-.329c0-.122.047-.244.141-.329l22.042-22.042a.456.456 0 0 1 .658 0l.141.142a.465.465 0 0 1 0 .667l-22.041 22.042a.481.481 0 0 1-.33.141v-.01Z" fill="#231815"/><path d="m85.156 261.692.141.141-22.041 22.042-.141-.141 22.041-22.042Zm0-.94a.962.962 0 0 0-.668.273l-22.041 22.041a.937.937 0 0 0 0 1.326l.141.141a.93.93 0 0 0 .668.273.968.968 0 0 0 .667-.273l22.042-22.041a.932.932 0 0 0 .272-.668.972.972 0 0 0-.272-.668l-.141-.141a.966.966 0 0 0-.668-.272v.009Zm-25.972 19.014a.5.5 0 0 1-.31-.179l-.123-.16a.468.468 0 0 1 .094-.658l24.806-18.872a.463.463 0 0 1 .283-.095c.14 0 .282.066.376.189l.122.159a.472.472 0 0 1 .094.348.501.501 0 0 1-.179.311l-24.806 18.872a.443.443 0 0 1-.282.094h-.066l-.01-.009Z" fill="#231815"/><path d="m83.934 260.273.122.159-24.806 18.873-.123-.16 24.807-18.872Zm0-.941a.969.969 0 0 0-.565.188l-24.806 18.873a.967.967 0 0 0-.367.621.89.89 0 0 0 .189.695l.122.16a.93.93 0 0 0 .752.367.97.97 0 0 0 .564-.188l24.806-18.873a.967.967 0 0 0 .367-.62.89.89 0 0 0-.188-.696l-.122-.16a.932.932 0 0 0-.752-.367ZM61.6 282.935a.5.5 0 0 1-.31-.179l-.122-.16a.468.468 0 0 1 .094-.658l24.806-18.873a.449.449 0 0 1 .282-.094h.066a.5.5 0 0 1 .31.179l.123.16a.468.468 0 0 1-.094.658l-24.806 18.873a.443.443 0 0 1-.283.094h-.065Z" fill="#231815"/><path d="m86.35 263.442.123.159-24.807 18.873-.122-.16 24.806-18.872Zm0-.941a.97.97 0 0 0-.564.188L60.98 281.562a.967.967 0 0 0-.367.621.89.89 0 0 0 .188.695l.122.16a.93.93 0 0 0 .753.367.969.969 0 0 0 .564-.188l24.806-18.873a.967.967 0 0 0 .367-.62.891.891 0 0 0-.188-.696l-.122-.16a.93.93 0 0 0-.753-.367Z" fill="#231815"/><path d="M85.156 281.524a.441.441 0 0 1-.33-.141l-22.04-22.041a.48.48 0 0 1-.142-.329c0-.123.047-.245.141-.33l.141-.141a.456.456 0 0 1 .659 0l22.041 22.042a.466.466 0 0 1 0 .668l-.14.141a.482.482 0 0 1-.33.141v-.01Z" fill="#231815"/><path d="m63.256 258.871 22.041 22.042-.14.141-22.042-22.041.14-.142Zm0-.94a.962.962 0 0 0-.668.273l-.141.141a.932.932 0 0 0-.273.668.97.97 0 0 0 .273.667l22.041 22.042a.933.933 0 0 0 .668.272.972.972 0 0 0 .668-.272l.14-.141a.937.937 0 0 0 0-1.326l-22.04-22.042a.923.923 0 0 0-.668-.272v-.01Zm19.079 26.414a.441.441 0 0 1-.329-.141l-22.042-22.041a.466.466 0 0 1 0-.668l.142-.141a.456.456 0 0 1 .658 0l22.041 22.042a.465.465 0 0 1 0 .667l-.14.141a.477.477 0 0 1-.33.141Z" fill="#231815"/><path d="m60.444 261.693 22.041 22.041-.14.141-22.042-22.041.14-.141Zm0-.941a.962.962 0 0 0-.668.273l-.14.141a.932.932 0 0 0-.274.668.97.97 0 0 0 .273.667l22.042 22.042a.934.934 0 0 0 .667.273.973.973 0 0 0 .668-.273l.141-.141a.937.937 0 0 0 0-1.326l-22.041-22.042a.923.923 0 0 0-.668-.272v-.01Zm26.019 18.826a.461.461 0 0 1-.282-.094l-25.079-18.506a.47.47 0 0 1-.103-.658l.122-.16a.477.477 0 0 1 .376-.188.46.46 0 0 1 .282.094l25.08 18.506a.472.472 0 0 1 .103.658l-.123.16a.477.477 0 0 1-.376.188Z" fill="#231815"/><path d="m61.507 260.432 25.078 18.506-.122.16-25.079-18.506.123-.16Zm0-.94a.928.928 0 0 0-.753.376l-.122.16a.966.966 0 0 0-.179.696c.028.244.17.47.376.621l25.08 18.505c.16.123.357.189.554.189.047 0 .094 0 .141-.01a.944.944 0 0 0 .62-.376l.123-.16a.944.944 0 0 0-.197-1.316l-25.08-18.506a.956.956 0 0 0-.554-.188l-.01.009Zm22.587 23.283a.461.461 0 0 1-.283-.094l-25.079-18.506a.471.471 0 0 1-.103-.658l.122-.16a.477.477 0 0 1 .377-.188c.093 0 .197.028.282.094l25.079 18.506a.471.471 0 0 1 .103.658l-.122.16a.477.477 0 0 1-.376.188Z" fill="#231815"/><path d="m59.137 263.639 25.079 18.506-.122.16-25.08-18.506.123-.16Zm0-.94a.939.939 0 0 0-.762.385l-.122.16a.919.919 0 0 0-.17.696c.038.244.17.47.367.621l25.08 18.506a.926.926 0 0 0 1.307-.189l.122-.159a.967.967 0 0 0 .178-.696.91.91 0 0 0-.376-.621l-25.079-18.506a.963.963 0 0 0-.555-.188l.01-.009Z" fill="#231815"/><path d="M72.8 294.52c-12.864 0-23.33-10.466-23.33-23.33 0-12.864 10.466-23.33 23.33-23.33 12.864 0 23.33 10.466 23.33 23.33 0 12.864-10.466 23.33-23.33 23.33Zm0-40.849c-9.657 0-17.518 7.862-17.518 17.519 0 9.657 7.86 17.519 17.518 17.519 9.657 0 17.519-7.862 17.519-17.519 0-9.657-7.862-17.519-17.519-17.519Z" fill="#231815"/><path d="M72.8 248.33c12.629 0 22.86 10.231 22.86 22.86s-10.231 22.86-22.86 22.86-22.86-10.241-22.86-22.86 10.231-22.86 22.86-22.86Zm0 40.849c9.93 0 17.989-8.05 17.989-17.989s-8.05-17.989-17.989-17.989c-9.94 0-17.989 8.05-17.989 17.989s8.05 17.989 17.989 17.989Zm0-41.789c-13.127 0-23.8 10.673-23.8 23.8s10.673 23.8 23.8 23.8 23.8-10.673 23.8-23.8-10.673-23.8-23.8-23.8Zm0 40.848c-9.403 0-17.048-7.645-17.048-17.048 0-9.403 7.645-17.048 17.048-17.048 9.403 0 17.048 7.645 17.048 17.048 0 9.403-7.645 17.048-17.048 17.048Z" fill="#231815"/><path d="M72.8 291.078c-10.974 0-19.897-8.924-19.897-19.897 0-10.974 8.923-19.898 19.897-19.898 10.974 0 19.898 8.924 19.898 19.898 0 10.973-8.924 19.897-19.898 19.897Zm0-34.83c-8.369 0-15.168 6.808-15.168 15.168 0 8.359 6.808 15.167 15.168 15.167s15.168-6.808 15.168-15.167c0-8.36-6.808-15.168-15.168-15.168Z" fill="#231815"/><path d="M72.8 251.763c10.73 0 19.428 8.698 19.428 19.427s-8.699 19.427-19.428 19.427c-10.73 0-19.427-8.698-19.427-19.427s8.698-19.427 19.427-19.427Zm0 35.3c8.642 0 15.638-7.006 15.638-15.638s-7.006-15.638-15.638-15.638-15.638 7.006-15.638 15.638 7.006 15.638 15.638 15.638Zm0-36.241c-11.228 0-20.368 9.131-20.368 20.368 0 11.237 9.131 20.368 20.368 20.368 11.237 0 20.368-9.131 20.368-20.368 0-11.237-9.13-20.368-20.368-20.368Zm0 35.301c-8.106 0-14.697-6.592-14.697-14.698 0-8.106 6.591-14.697 14.697-14.697 8.106 0 14.698 6.591 14.698 14.697 0 8.106-6.592 14.698-14.698 14.698Z" fill="#231815"/><path d="M72.8 276.108a4.743 4.743 0 0 1-4.74-4.739 4.744 4.744 0 0 1 4.74-4.74 4.744 4.744 0 0 1 4.74 4.74 4.743 4.743 0 0 1-4.74 4.739Z" fill="#231815"/><path d="M72.8 267.1c2.36 0 4.27 1.908 4.27 4.269a4.266 4.266 0 0 1-4.27 4.269 4.266 4.266 0 0 1-4.27-4.269 4.265 4.265 0 0 1 4.27-4.269Zm0-.941a5.209 5.209 0 1 0-.001 10.42 5.209 5.209 0 0 0 .001-10.42Z" fill="#231815"/><path d="M74.775 271.369a1.985 1.985 0 1 1-3.97-.002 1.985 1.985 0 0 1 3.97.002Z" fill="#231815" stroke="#231815" stroke-miterlimit="10"/><path d="M81.583 246.656c-20.048-6.714-29.62 10.476-29.62 10.476-2.643 3.573 3.901 4.532 3.901 4.532s29.744 3.348 32.65 4.674c3.093 1.42 4.663 4.617 5.434 7.758.348 1.401.602 2.802.677 4.25.094 1.834-.131 4.006 2.398 3.959 2.417-.047 2.2-3.207 2.2-3.207 2.596-27.853-17.63-32.442-17.63-32.442h-.01Z" fill="#231815" stroke="#231815" stroke-miterlimit="10"/><path d="M189.036 255.317h-.198a.47.47 0 0 0-.47.47v31.172c0 .26.21.471.47.471h.198a.47.47 0 0 0 .47-.471v-31.172a.47.47 0 0 0-.47-.47Z" fill="#231815"/><path d="M189.045 255.787v31.173h-.198v-31.173h.198Zm0-.94h-.198a.943.943 0 0 0-.94.94v31.173c0 .517.423.94.94.94h.198c.517 0 .94-.423.94-.94v-31.173a.943.943 0 0 0-.94-.94Zm3.978.47h-.198a.47.47 0 0 0-.47.47v31.172c0 .26.21.471.47.471h.198a.47.47 0 0 0 .47-.471v-31.172a.47.47 0 0 0-.47-.47Z" fill="#231815"/><path d="M193.023 255.787v31.173h-.198v-31.173h.198Zm0-.94h-.198a.943.943 0 0 0-.94.94v31.173c0 .517.423.94.94.94h.198c.517 0 .94-.423.94-.94v-31.173a.943.943 0 0 0-.94-.94Z" fill="#231815"/><path d="M206.526 268.811h-31.172a.47.47 0 0 0-.471.47v.197c0 .26.211.471.471.471h31.172a.47.47 0 0 0 .47-.471v-.197a.47.47 0 0 0-.47-.47Z" fill="#231815"/><path d="M206.516 269.281v.198h-31.172v-.198h31.172Zm0-.94h-31.172a.943.943 0 0 0-.94.94v.198c0 .517.423.94.94.94h31.172a.943.943 0 0 0 .941-.94v-.198a.943.943 0 0 0-.941-.94Zm.01 4.448h-31.172a.47.47 0 0 0-.471.47v.197c0 .26.211.47.471.47h31.172c.26 0 .47-.21.47-.47v-.197a.47.47 0 0 0-.47-.47Z" fill="#231815"/><path d="M206.516 273.259v.197h-31.172v-.197h31.172Zm0-.941h-31.172a.944.944 0 0 0-.94.941v.197c0 .517.423.941.94.941h31.172a.944.944 0 0 0 .941-.941v-.197a.944.944 0 0 0-.941-.941Z" fill="#231815"/><path d="M187.352 287.157a.49.49 0 0 1-.319-.169.456.456 0 0 1-.104-.348l2.915-31.032a.49.49 0 0 1 .17-.319.483.483 0 0 1 .3-.104c.019 0 .245.019.245.019a.47.47 0 0 1 .423.508l-2.915 31.031a.463.463 0 0 1-.47.423c-.019 0-.245-.019-.245-.019v.01Z" fill="#231815"/><path d="m190.305 255.656.197.018-2.915 31.032-.197-.019 2.915-31.031Zm0-.941a.947.947 0 0 0-.602.217.972.972 0 0 0-.338.639l-2.915 31.031a.94.94 0 0 0 .846 1.025l.197.019h.085a.948.948 0 0 0 .602-.216.977.977 0 0 0 .338-.64l2.915-31.031a.94.94 0 0 0-.846-1.025l-.197-.019h-.094.009Zm1.006 32.818a.49.49 0 0 1-.32-.169.458.458 0 0 1-.103-.348l2.915-31.031a.463.463 0 0 1 .47-.423c.019 0 .245.018.245.018a.49.49 0 0 1 .319.17.454.454 0 0 1 .104.348l-2.915 31.031a.464.464 0 0 1-.47.423c-.019 0-.245-.019-.245-.019Z" fill="#231815"/><path d="m194.273 256.032.198.018-2.915 31.032-.198-.019 2.915-31.031Zm0-.941a.933.933 0 0 0-.931.856l-2.915 31.031a.956.956 0 0 0 .217.687c.159.188.385.31.639.338l.197.019h.085c.48 0 .893-.367.931-.856l2.915-31.031a.954.954 0 0 0-.216-.686.978.978 0 0 0-.64-.339l-.197-.019h-.085Z" fill="#231815"/><path d="M175.551 268.501a.495.495 0 0 1-.32-.17.493.493 0 0 1-.103-.348l.019-.197a.469.469 0 0 1 .47-.423c.019 0 31.078 2.915 31.078 2.915a.49.49 0 0 1 .32.169.493.493 0 0 1 .103.348l-.019.198a.47.47 0 0 1-.47.423c-.019 0-31.078-2.915-31.078-2.915Z" fill="#231815"/><path d="m175.617 267.833 31.031 2.915-.019.197-31.031-2.915.019-.197Zm0-.94a.932.932 0 0 0-.931.855l-.019.198a.959.959 0 0 0 .216.686c.16.188.386.311.64.339l31.031 2.915h.085a.933.933 0 0 0 .931-.856l.018-.197a.955.955 0 0 0-.216-.687.974.974 0 0 0-.639-.338l-31.031-2.915h-.085Zm-.442 5.576a.494.494 0 0 1-.32-.169.494.494 0 0 1-.103-.348l.019-.198a.47.47 0 0 1 .47-.423c.019 0 31.078 2.915 31.078 2.915.122.01.235.075.32.169a.494.494 0 0 1 .103.348l-.019.198a.47.47 0 0 1-.47.423c-.019 0-31.078-2.915-31.078-2.915Z" fill="#231815"/><path d="m175.241 271.792 31.031 2.915-.019.197-31.031-2.915.019-.197Zm0-.94a.943.943 0 0 0-.602.216.98.98 0 0 0-.339.639l-.018.198a.94.94 0 0 0 .846 1.025l31.031 2.915h.085a.933.933 0 0 0 .931-.856l.018-.197a.955.955 0 0 0-.216-.687.974.974 0 0 0-.639-.338l-31.031-2.915h-.085.019Z" fill="#231815"/><path d="M178.579 281.524a.44.44 0 0 1-.329-.141l-.141-.141a.483.483 0 0 1 0-.668l22.041-22.041a.474.474 0 0 1 .329-.141c.113 0 .245.047.33.141l.141.141a.466.466 0 0 1 0 .668l-22.042 22.041a.478.478 0 0 1-.329.141Z" fill="#231815"/><path d="m200.47 258.872.141.141-22.041 22.041-.141-.141 22.041-22.041Zm0-.941a.965.965 0 0 0-.668.273l-22.041 22.042a.935.935 0 0 0 0 1.325l.141.141a.93.93 0 0 0 .668.273.967.967 0 0 0 .667-.273l22.042-22.041a.935.935 0 0 0 .273-.668.97.97 0 0 0-.273-.667l-.141-.141a.92.92 0 0 0-.668-.273v.009Zm-19.079 26.414a.442.442 0 0 1-.33-.141l-.141-.141a.483.483 0 0 1 0-.667l22.042-22.042a.455.455 0 0 1 .658 0l.141.141a.466.466 0 0 1 0 .668l-22.041 22.041a.478.478 0 0 1-.329.141Z" fill="#231815"/><path d="m203.291 261.692.141.141-22.041 22.042-.142-.141 22.042-22.042Zm0-.94a.964.964 0 0 0-.668.273l-22.041 22.041a.936.936 0 0 0 0 1.326l.141.141a.93.93 0 0 0 .668.273.969.969 0 0 0 .667-.273l22.042-22.041a.934.934 0 0 0 .272-.668.973.973 0 0 0-.272-.668l-.141-.141a.965.965 0 0 0-.668-.272v.009Zm-25.972 19.014a.5.5 0 0 1-.31-.179l-.123-.16a.468.468 0 0 1 .094-.658l24.807-18.872a.441.441 0 0 1 .282-.095h.065a.5.5 0 0 1 .311.179l.122.16a.467.467 0 0 1-.094.658l-24.806 18.873a.444.444 0 0 1-.282.094h-.066Z" fill="#231815"/><path d="m202.069 260.273.122.159-24.806 18.873-.123-.16 24.807-18.872Zm0-.941a.976.976 0 0 0-.574.188l-24.806 18.873a.967.967 0 0 0-.367.621.888.888 0 0 0 .188.695l.122.16a.93.93 0 0 0 .753.367.969.969 0 0 0 .564-.188l24.806-18.873a.941.941 0 0 0 .179-1.316l-.123-.16a.971.971 0 0 0-.62-.367h-.132.01Zm-22.333 23.603a.5.5 0 0 1-.311-.179l-.122-.16a.467.467 0 0 1 .094-.658l24.806-18.873a.45.45 0 0 1 .282-.094h.066a.5.5 0 0 1 .31.179l.123.16a.468.468 0 0 1-.094.658l-24.807 18.873a.44.44 0 0 1-.282.094h-.065Z" fill="#231815"/><path d="m204.485 263.442.123.159-24.807 18.873-.122-.16 24.806-18.872Zm0-.941a.969.969 0 0 0-.564.188l-24.806 18.873a.967.967 0 0 0-.367.621.891.891 0 0 0 .188.695l.123.16c.188.245.46.367.752.367a.969.969 0 0 0 .564-.188l24.806-18.873a.967.967 0 0 0 .367-.62.889.889 0 0 0-.188-.696l-.122-.16a.93.93 0 0 0-.753-.367Z" fill="#231815"/><path d="M203.291 281.524a.442.442 0 0 1-.329-.141l-22.042-22.041a.466.466 0 0 1 0-.668l.141-.141a.474.474 0 0 1 .33-.141c.112 0 .244.047.329.141l22.041 22.041a.466.466 0 0 1 0 .668l-.141.141a.476.476 0 0 1-.329.141Z" fill="#231815"/><path d="m181.391 258.871 22.041 22.042-.141.141-22.041-22.041.141-.142Zm0-.94a.962.962 0 0 0-.668.273l-.141.141a.93.93 0 0 0-.273.668c0 .253.104.489.273.667l22.041 22.042a.934.934 0 0 0 .668.272.973.973 0 0 0 .668-.272l.141-.141a.936.936 0 0 0 0-1.326l-22.042-22.042a.922.922 0 0 0-.667-.272v-.01Zm19.079 26.414a.442.442 0 0 1-.329-.141l-22.042-22.041a.466.466 0 0 1 0-.668l.141-.141a.474.474 0 0 1 .329-.141c.113 0 .245.047.33.141l22.041 22.042a.465.465 0 0 1 0 .667l-.141.141a.478.478 0 0 1-.329.141Z" fill="#231815"/><path d="m178.579 261.693 22.042 22.041-.142.141-22.041-22.041.141-.141Zm0-.941a.962.962 0 0 0-.668.273l-.141.141a.934.934 0 0 0-.272.668.97.97 0 0 0 .272.667l22.042 22.042a.934.934 0 0 0 .667.273.974.974 0 0 0 .668-.273l.141-.141a.936.936 0 0 0 0-1.326l-22.041-22.042a.924.924 0 0 0-.668-.272v-.01Zm26.019 18.826a.444.444 0 0 1-.282-.094l-25.079-18.506a.473.473 0 0 1-.103-.658l.122-.16a.477.477 0 0 1 .376-.188.46.46 0 0 1 .282.094l25.079 18.506c.207.15.254.451.104.658l-.123.16a.473.473 0 0 1-.31.188h-.075.009Z" fill="#231815"/><path d="m179.641 260.432 25.079 18.506-.122.16-25.079-18.506.122-.16Zm0-.94a.928.928 0 0 0-.752.376l-.122.16a.97.97 0 0 0-.179.696c.038.244.17.47.376.621l25.079 18.505a.96.96 0 0 0 .555.189.94.94 0 0 0 .762-.386l.122-.16a.913.913 0 0 0 .169-.696.94.94 0 0 0-.376-.62l-25.079-18.506a.954.954 0 0 0-.555-.188v.009Zm22.588 23.283a.463.463 0 0 1-.283-.094l-25.078-18.506a.477.477 0 0 1-.104-.658l.122-.16a.476.476 0 0 1 .311-.188h.075c.103 0 .197.028.282.094l25.079 18.506a.473.473 0 0 1 .103.658l-.122.16a.477.477 0 0 1-.376.188h-.009Z" fill="#231815"/><path d="m177.272 263.639 25.079 18.506-.122.16-25.079-18.506.122-.16Zm0-.94a.939.939 0 0 0-.762.385l-.122.16a.915.915 0 0 0-.169.696c.037.244.169.47.376.621l25.079 18.506a.927.927 0 0 0 1.307-.189l.122-.159a.97.97 0 0 0 .179-.696.95.95 0 0 0-.376-.621l-25.079-18.506a.965.965 0 0 0-.555-.188v-.009Z" fill="#231815"/><path d="M190.935 294.52c-12.864 0-23.33-10.466-23.33-23.33 0-12.864 10.466-23.33 23.33-23.33 12.864 0 23.33 10.466 23.33 23.33 0 12.864-10.466 23.33-23.33 23.33Zm0-40.849c-9.657 0-17.519 7.862-17.519 17.519 0 9.657 7.862 17.519 17.519 17.519 9.657 0 17.519-7.862 17.519-17.519 0-9.657-7.862-17.519-17.519-17.519Z" fill="#231815"/><path d="M190.935 248.33c12.629 0 22.86 10.231 22.86 22.86s-10.231 22.86-22.86 22.86-22.86-10.231-22.86-22.86 10.231-22.86 22.86-22.86Zm0 40.849c9.93 0 17.989-8.05 17.989-17.989s-8.05-17.989-17.989-17.989-17.989 8.05-17.989 17.989 8.05 17.989 17.989 17.989Zm0-41.789c-13.127 0-23.8 10.673-23.8 23.8s10.673 23.8 23.8 23.8 23.8-10.673 23.8-23.8-10.673-23.8-23.8-23.8Zm0 40.848c-9.403 0-17.048-7.645-17.048-17.048 0-9.403 7.645-17.048 17.048-17.048 9.403 0 17.048 7.645 17.048 17.048 0 9.403-7.645 17.048-17.048 17.048Z" fill="#231815"/><path d="M190.935 291.078c-10.974 0-19.898-8.924-19.898-19.897 0-10.974 8.924-19.898 19.898-19.898s19.898 8.924 19.898 19.898c0 10.973-8.924 19.897-19.898 19.897Zm0-34.83c-8.369 0-15.168 6.808-15.168 15.168 0 8.359 6.808 15.167 15.168 15.167s15.168-6.808 15.168-15.167c0-8.36-6.808-15.168-15.168-15.168Z" fill="#231815"/><path d="M190.935 251.763c10.729 0 19.427 8.698 19.427 19.427s-8.698 19.427-19.427 19.427-19.427-8.698-19.427-19.427 8.698-19.427 19.427-19.427Zm0 35.3c8.642 0 15.638-7.006 15.638-15.638s-7.006-15.638-15.638-15.638-15.638 7.006-15.638 15.638 7.006 15.638 15.638 15.638Zm0-36.241c-11.228 0-20.368 9.131-20.368 20.368 0 11.237 9.131 20.368 20.368 20.368 11.237 0 20.368-9.131 20.368-20.368 0-11.237-9.131-20.368-20.368-20.368Zm0 35.301c-8.106 0-14.697-6.592-14.697-14.698 0-8.106 6.591-14.697 14.697-14.697 8.106 0 14.698 6.591 14.698 14.697 0 8.106-6.592 14.698-14.698 14.698Z" fill="#231815"/><path d="M190.935 276.108a4.743 4.743 0 0 1-4.739-4.739 4.744 4.744 0 0 1 4.739-4.74 4.744 4.744 0 0 1 4.739 4.74 4.743 4.743 0 0 1-4.739 4.739Z" fill="#231815"/><path d="M190.935 267.1a4.265 4.265 0 0 1 4.269 4.269 4.266 4.266 0 0 1-4.269 4.269 4.266 4.266 0 0 1-4.269-4.269 4.265 4.265 0 0 1 4.269-4.269Zm0-.941a5.216 5.216 0 0 0-5.21 5.21 5.21 5.21 0 0 0 10.419 0 5.215 5.215 0 0 0-5.209-5.21Z" fill="#231815"/><path d="M190.935 273.823a2.456 2.456 0 0 1 0-4.909 2.456 2.456 0 0 1 0 4.909Z" fill="#231815"/><path d="M190.935 269.394a1.984 1.984 0 1 1 0 3.969 1.984 1.984 0 0 1 0-3.969Zm0-.94a2.928 2.928 0 0 0-2.925 2.924 2.923 2.923 0 0 0 2.925 2.925 2.922 2.922 0 0 0 2.924-2.925 2.921 2.921 0 0 0-2.924-2.924Zm.865-2.116c0 1.157-.94 2.097-2.097 2.097h-44.929a2.098 2.098 0 0 1-2.097-2.097c0-1.157.94-2.097 2.097-2.097h44.929c1.157 0 2.097.94 2.097 2.097Z" fill="#231815"/><path d="M185.613 282.747c-.734 0-1.524-.057-2.492-.169l-37.52-1.279c-.197 0-4.918-.245-8.153-3.78-2.096-2.295-3.065-5.426-2.886-9.319 0-.085.639-4.73 5.877-4.73.338 0 .696.019 1.072.056l44.948-2.294c.263-.019.536-.028.799-.028 5.567 0 10.259 4.353 10.683 9.92a10.63 10.63 0 0 1-2.568 7.796 10.65 10.65 0 0 1-7.325 3.695l-.47.038c-.686.056-1.279.103-1.965.103v-.009Z" fill="#231815"/><path d="M187.268 261.664c5.313 0 9.807 4.1 10.212 9.488.423 5.642-3.809 10.56-9.46 10.984-.893.065-1.58.131-2.407.131-.659 0-1.411-.047-2.436-.169l-37.557-1.288s-11.162-.461-10.588-12.61c0 0 .526-4.279 5.407-4.279.319 0 .658.019 1.015.057l45.024-2.295c.263-.019.517-.028.771-.028m0-.94c-.282 0-.564.009-.846.028l-44.93 2.294a10.13 10.13 0 0 0-1.044-.056c-4.523 0-6.121 3.338-6.347 5.106v.066c-.188 4.024.818 7.269 3.009 9.657 3.367 3.677 8.275 3.921 8.482 3.931l37.52 1.288c.959.113 1.758.169 2.51.169.753 0 1.317-.047 2.013-.103l.47-.038a11.113 11.113 0 0 0 7.645-3.855 11.165 11.165 0 0 0 2.68-8.134c-.433-5.802-5.332-10.353-11.153-10.353h-.009Z" fill="#231815"/><path d="M138.906 272.271c-1.655 0-2.943-.855-2.943-1.937 0-1.081 1.297-1.918 2.943-1.918l37.04.085c1.655 0 2.943.855 2.943 1.937 0 1.081-1.297 1.918-2.943 1.918l-37.04-.085Z" fill="#231815"/><path d="m138.906 268.886 37.031.085c1.363 0 2.473.658 2.473 1.467 0 .799-1.11 1.448-2.473 1.448h-.01l-37.03-.085c-1.373 0-2.474-.658-2.474-1.467 0-.799 1.11-1.448 2.474-1.448m0-.94c-1.947 0-3.414 1.025-3.414 2.388 0 .724.433 1.401 1.185 1.843.611.358 1.401.565 2.229.565l37.03.084c1.956 0 3.423-1.025 3.423-2.388 0-.724-.433-1.401-1.185-1.843-.611-.358-1.401-.565-2.228-.565l-37.031-.084h-.009Z" fill="#231815"/><path d="M179.66 271.622c.311 4.204 3.978 7.354 8.181 7.044 4.204-.311 7.354-3.978 7.043-8.181-.31-4.204-3.977-7.354-8.18-7.043-4.204.31-7.354 3.977-7.044 8.18Zm-90.047-68.955-6.074 24.882s-1.383 4.231 0 4.984l8.265 3.272 6.63-22.7s4.071-6.629 6.535-11.453c0 0 3.056-6.893 2.614-6.893-4.664 0-12.14-7.09-12.14-7.09s-4.786.414-4.842 1.627c-.047 1.213-.988 13.362-.988 13.362v.009Z" fill="#231815" stroke="#231815" stroke-miterlimit="10"/><path d="M99.59 196.329c-.066 4.777-6.742 9.441-16.174 8.661-1.805-.151-3.281-3.874-3.281-8.661 0-4.786 1.504-8.378 3.281-8.66 7.946-1.241 16.221 4.655 16.174 8.66Z" fill="#231815" stroke="#231815" stroke-miterlimit="10"/><path d="M83.53 187.66s-.076 0-.104.009c-1.777.282-3.282 3.874-3.282 8.66 0 4.787 1.476 8.511 3.282 8.661h.103v-17.34.01Z" fill="#231815" stroke="#231815" stroke-miterlimit="10"/><path d="M81.686 189.145c-.921 1.524-1.551 4.11-1.551 7.194 0 3.084.62 5.745 1.551 7.269v-14.463Z" fill="#231815" stroke="#231815" stroke-linecap="round" stroke-linejoin="round"/><path d="M105.157 189.926c-3.959-1.27-5.538-1.383-7.043-1.947-1.542-.479-2.962-1.025-4.41-.968-1.59.065-3.837 0-4.523.893.113 4.523-.085 15.525 0 17.171 7.814 2.134 10.964 1.325 12.732.846 1.279-.517 3.404-2.483 5.021-6.028 0 0 2.671-8.538-1.767-9.967h-.01Z" fill="#231815" stroke="#231815" stroke-miterlimit="10"/><path d="M94.447 199.893c0 .865-.696 1.561-1.561 1.561h-4.298a1.557 1.557 0 0 1-1.56-1.561c0-.865.695-1.561 1.56-1.561h4.298c.865 0 1.56.696 1.56 1.561Z" fill="#231815" stroke="#231815" stroke-miterlimit="10"/><path d="M110.752 170.696c-1.542 0-2.868-3.63-3.441-7.006-.32-1.89-.424-3.714-.283-5.115.16-1.646.63-2.549 1.383-2.671.028 0 .141-.009.169-.009 1.542 0 2.868 3.629 3.442 7.005.601 3.564.526 7.523-1.091 7.796-.028 0-.141.009-.169.009l-.01-.009Z" fill="#231815"/><path d="M108.571 156.356c1.034 0 2.341 2.896 2.98 6.62.649 3.827.33 7.071-.714 7.25h-.094c-1.035 0-2.342-2.897-2.981-6.62-.649-3.828-.329-7.072.714-7.25h.095Zm0-.941c-.085 0-.17 0-.245.019-.987.169-1.58 1.213-1.768 3.094-.141 1.448-.037 3.31.292 5.247.207 1.232 1.382 7.4 3.902 7.4.085 0 .169 0 .245-.018 2.736-.471 1.617-7.533 1.476-8.341-.207-1.232-1.382-7.401-3.902-7.401Z" fill="#231815"/><path d="M110.752 170.696c-.178 0-.348-.047-.526-.132a.464.464 0 0 1-.254-.395.5.5 0 0 1 .216-.423c.527-.329.931-2.906.292-6.695-.583-3.404-1.684-5.821-2.417-6.197a.464.464 0 0 1-.254-.395.5.5 0 0 1 .216-.423c.122-.075.254-.132.386-.151.028 0 .141-.009.169-.009 1.542 0 2.868 3.63 3.442 7.006.601 3.563.526 7.522-1.091 7.795-.028 0-.141.009-.169.009l-.01.01Z" fill="#231815"/><path d="M108.571 156.356c1.034 0 2.341 2.896 2.98 6.62.649 3.827.33 7.071-.714 7.25h-.085a.647.647 0 0 1-.31-.085c.874-.555 1.109-3.611.498-7.165-.573-3.358-1.702-6.047-2.67-6.536.065-.037.131-.075.207-.084h.094Zm0-.941c-.085 0-.17 0-.245.019a1.448 1.448 0 0 0-.555.216.933.933 0 0 0-.432.837c.019.339.216.64.517.79.432.216 1.551 2.219 2.172 5.858.621 3.63.226 5.887-.113 6.244a.93.93 0 0 0-.423.828c.019.338.226.63.527.78.235.122.489.179.733.179.085 0 .169 0 .245-.019 2.736-.47 1.617-7.532 1.476-8.341-.207-1.232-1.382-7.4-3.902-7.4v.009Zm-3.056 39.824c-1.054 0-2.022-1.11-2.248-2.577-.244-1.608.461-3.009 1.608-3.188.075-.009.16-.018.235-.018 1.053 0 2.022 1.109 2.248 2.576.112.734.028 1.458-.236 2.041-.291.639-.789 1.053-1.363 1.147-.075.009-.16.019-.235.019h-.009Z" fill="#231815"/><path d="M105.101 189.935c.818 0 1.598.931 1.786 2.172.207 1.326-.338 2.52-1.213 2.652-.056 0-.113.009-.16.009-.818 0-1.598-.93-1.786-2.181-.207-1.326.338-2.52 1.213-2.652.056 0 .113-.009.16-.009m0-.941c-.104 0-.207 0-.301.019-.734.113-1.364.63-1.721 1.411-.301.667-.404 1.485-.273 2.304.264 1.72 1.411 2.971 2.718 2.971.103 0 .207 0 .301-.019.733-.113 1.363-.63 1.721-1.41.3-.668.404-1.486.272-2.304-.263-1.721-1.41-2.972-2.717-2.972Z" fill="#231815"/><path d="M105.975 194.9c-.743 0-1.429-.667-1.711-1.072-.414-.573-.762-1.504-.499-2.388.198-.677.819-1.458 1.561-1.589l6.056-1.044s.104-.01.132-.01c.818 0 1.326 1.251 1.514 2.314.216 1.25.056 2.576-.771 2.717a927.802 927.802 0 0 1-6.141 1.044s-.056.009-.122.009l-.019.019Z" fill="#231815"/><path d="M111.504 189.277c.405 0 .856.837 1.044 1.928.198 1.128.019 2.106-.395 2.172l-6.055 1.044c-.038 0-.085.009-.123.009-.517 0-1.072-.508-1.335-.875-.395-.545-.63-1.316-.433-1.974.151-.489.64-1.157 1.185-1.251l6.056-1.044h.047m0-.94c-.066 0-.141 0-.207.019l-6.056 1.044c-1.053.178-1.73 1.241-1.927 1.918-.311 1.044.094 2.134.573 2.802.423.583 1.223 1.26 2.097 1.26.094 0 .188 0 .282-.028l6.056-1.044c.358-.066.988-.329 1.185-1.448.094-.517.085-1.157-.028-1.815-.226-1.307-.865-2.708-1.975-2.708Z" fill="#231815"/><path d="M111.928 194.317c-1.054 0-2.013-1.062-2.276-2.52-.292-1.608.376-3.018 1.523-3.225.094-.019.179-.029.273-.029 1.063 0 2.022 1.063 2.276 2.521.291 1.608-.376 3.018-1.524 3.225a1.322 1.322 0 0 1-.272.028Z" fill="#231815"/><path d="M111.439 189.014c.808 0 1.598.902 1.814 2.134.236 1.326-.272 2.52-1.137 2.68-.066.01-.123.019-.188.019-.809 0-1.59-.903-1.815-2.135-.235-1.326.272-2.52 1.137-2.68.066-.009.123-.018.189-.018Zm0-.941c-.123 0-.236.01-.358.028-1.401.254-2.238 1.909-1.899 3.771.301 1.683 1.457 2.906 2.736 2.906.122 0 .245-.01.357-.028 1.402-.254 2.238-1.909 1.9-3.771-.301-1.683-1.458-2.906-2.736-2.906Z" fill="#231815"/><path d="M88.41 195.765s-5.473 1.185-4.467 4.796c.527 1.881 6.385 3.62 8.322 2.548.828-.46.96-5.143.207-6.808-.395-.865-2.501-.912-4.053-.536h-.01Z" fill="#231815" stroke="#231815" stroke-miterlimit="10"/><path d="M101.762 192.963c-.366 0-.62-.226-.667-.263a.411.411 0 0 1-.104-.141l-1.58-3.339c-1.41-2.51.696-6.384.791-6.554l7.748-19.841a.48.48 0 0 1 .442-.301h.075a.869.869 0 0 1 .649.452c.301.554-.028 1.372-.094 1.532l-7.861 20.283c-.734 1.947-.367 3.404-.358 3.414.565 1.166 1.552 3.216 1.655 3.404.198.357.151.724.057.94a.516.516 0 0 1-.104.141.965.965 0 0 1-.649.264v.009Z" fill="#231815"/><path d="M108.382 162.994c.725.123.207 1.336.207 1.336l-7.861 20.302c-.79 2.115-.376 3.704-.376 3.704s1.552 3.254 1.702 3.517c.15.264.038.499.038.499a.483.483 0 0 1-.33.141c-.197 0-.347-.141-.347-.141l-1.58-3.338c-1.307-2.342.771-6.122.771-6.122l7.776-19.898Zm0-.94a.935.935 0 0 0-.874.602l-7.758 19.841c-.348.639-2.19 4.326-.761 6.949l1.57 3.31a.968.968 0 0 0 .207.282c.094.094.46.395.996.395.358 0 .687-.132.96-.385.084-.085.159-.179.206-.283a1.49 1.49 0 0 0-.065-1.372c-.104-.188-.903-1.853-1.627-3.357-.057-.292-.216-1.514.367-3.066l7.861-20.292c.103-.236.451-1.176.056-1.909-.197-.377-.555-.621-.987-.696-.056 0-.104-.01-.16-.01l.009-.009Z" fill="#231815"/><path d="M102.571 274.885c2.163 5.05 5.266 10.062 9.121 10.429h41.93s14.293 1.1 17.34-10.429h-68.391Z" fill="#231815" stroke="#231815" stroke-miterlimit="10"/><path d="M159.039 281.703h-44.168c-1.909 0-3.461.188-5.247-.734-1.787-.921-3.085-2.407-4.1-4.062-2.097-3.385-3.066-7.419-3.931-11.237-3.065-13.428-4.683-12.563-8.632-19.126-3.95-6.564.921-15.215 3.799-24.891 1.288-4.335 1.598-7.119 1.551-8.877-.338-1.063-.987-2.106-1.815-2.708-.376-.273-.761-.555-1.184-.743-1.044-.461-3.235-1.194-4.373-1.279-2.04-.15-3.15.301-7.316 3.705-7.908 6.451-14.237 18.92-14.8 29.555 0 0-.706 3.648 2.924 3.037 3.63-.602 23.856 1.561 27.702 21.449 0 0 4.326 18.77 12.243 19.531h41.93s7.655.583 12.949-3.62h-7.532Z" fill="#231815" stroke="#231815" stroke-miterlimit="10"/><path d="M228.022 269.187c-3.949-1.006-3.395-5.04-3.395-5.04-.272-17.114-11.98-26.8-11.98-26.8-17.104-13.09-38.337-3.658-38.337-3.658-5.351 2.229-3.432-7.457-3.432-7.457h-7.871l-.564 3.771c-.085.536-.16 1.081-.235 1.617l-19.541-.799v.903h-6.225s-.808 5.247 1.307 6.253c2.116 1.006 10.918 3.122 11.209 10.381.292 7.26-17.001 6.178-16.522 24.609 0 0 94.082-1.354 96.019-2.097 2.877-1.109-.414-1.692-.414-1.692l-.019.009Z" fill="#231815" stroke="#231815" stroke-miterlimit="10"/><path d="M214.34 232.843c-.301 0-.536-.019-.668-.038h-24.138a1.68 1.68 0 0 1-1.683-1.674c0-.921.752-1.683 1.683-1.683h24.27c.075 0 .16 0 .235.019.057 0 .16.019.292.019.489 0 .912-.094 1.119-.254.056-.038.15-.113.178-.414.282-2.407 0-8.867-.009-8.933a1.683 1.683 0 0 1 1.599-1.759c.977 0 1.711.706 1.749 1.599.047 1.157.282 6.968-.01 9.479-.131 1.109-.639 2.04-1.467 2.68-1.025.79-2.275.949-3.15.949v.01Z" fill="#231815"/><path d="M217.293 218.597c.639 0 1.185.508 1.213 1.156.009.273.301 6.771 0 9.404-.113.987-.564 1.805-1.288 2.36-.941.724-2.116.856-2.869.856-.272 0-.498-.019-.62-.028h-24.195a1.216 1.216 0 0 1-1.213-1.213c0-.668.545-1.213 1.213-1.213h24.27c.056 0 .113 0 .169.009.076.009.207.019.358.019.423 0 1.034-.066 1.401-.358.141-.112.31-.291.357-.724.292-2.445 0-8.942 0-9.008a1.209 1.209 0 0 1 1.157-1.26h.056m0-.941h-.094a2.158 2.158 0 0 0-1.495.696 2.184 2.184 0 0 0-.564 1.552c0 .066.291 6.507.009 8.858-.009.094-.028.122-.028.122-.056.028-.348.122-.809.122-.103 0-.188 0-.244-.009a2.79 2.79 0 0 0-.292-.019h-24.27a2.16 2.16 0 0 0-2.153 2.154c0 1.184.968 2.153 2.153 2.153h24.139c.159.019.385.028.667.028.95 0 2.313-.179 3.442-1.053.931-.715 1.504-1.758 1.655-3 .31-2.651.047-8.858.009-9.554a2.151 2.151 0 0 0-2.153-2.05h.028Z" fill="#231815"/><path d="M196.718 232.203a1.681 1.681 0 0 1-1.683-1.683v-7.861c0-.931.752-1.683 1.683-1.683s1.683.752 1.683 1.683v7.861c0 .931-.752 1.683-1.683 1.683Z" fill="#231815"/><path d="M196.718 221.455c.668 0 1.213.546 1.213 1.214v7.861c0 .667-.545 1.213-1.213 1.213a1.216 1.216 0 0 1-1.213-1.213v-7.861c0-.668.545-1.214 1.213-1.214Zm0-.94a2.16 2.16 0 0 0-2.153 2.154v7.861c0 1.185.968 2.153 2.153 2.153a2.158 2.158 0 0 0 2.153-2.153v-7.861a2.16 2.16 0 0 0-2.153-2.154Z" fill="#231815"/><path d="M210.898 237.074s8.811 7.467 11.529 17.669c0 0 .677 2.267 1.213 7.711.527 5.445.903 6.968 3.931 7.26 0 0-3.931.761-4.439-3.019-.583-4.382-.931-17.97-12.234-29.63v.009Z" fill="#231815" stroke="#231815" stroke-miterlimit="10"/><path d="M228.022 269.187c-3.949-1.006-3.395-5.04-3.395-5.04-.272-17.114-11.98-26.8-11.98-26.8-17.104-13.09-38.337-3.658-38.337-3.658-5.351 2.229-3.432-7.457-3.432-7.457h-7.871l-.564 3.771c-.085.536-.16 1.081-.235 1.617l-19.541-.799v.903h-6.225s-.808 5.247 1.307 6.253c2.116 1.006 10.918 3.122 11.209 10.381.292 7.26-17.001 6.178-16.522 24.609 0 0 10.231-.15 24.007-.376 1.326-11.105 6.865-29.555 28.897-32.404 23.697-3.066 33.561 14.547 37.143 31.031 3.517-.122 5.69-.244 5.962-.348 2.878-1.109-.414-1.692-.414-1.692l-.009.009Z" fill="#231815" stroke="#231815" stroke-miterlimit="10"/><path d="M185.331 240.196c-22.033 2.859-27.571 21.299-28.897 32.404 4.26-.065 65.354-1.354 66.04-1.373-3.583-16.484-13.447-34.096-37.143-31.031Z" fill="#231815" stroke="#231815" stroke-miterlimit="10"/><path d="M186.365 242.933c-20.979 2.717-21.948 24.336-21.882 29.442 18.468-.32 39.09-.715 50.224-1.072-2.069-13.645-9.112-30.862-28.342-28.37Zm17.782-4.298c0 .866-.696 1.561-1.561 1.561h-4.298c-.865 0-1.56-.695-1.56-1.561 0-.865.695-1.561 1.56-1.561h4.298c.865 0 1.561.696 1.561 1.561Z" fill="#231815" stroke="#231815" stroke-miterlimit="10"/><path d="M208.576 237.986c-.019-.065-.047-.122-.066-.178a.069.069 0 0 0-.019-.038l-.084-.169c0-.009-.01-.019-.019-.028a3.407 3.407 0 0 0-.508-.696c-.047-.057-.104-.104-.151-.151l-.009-.009a6.112 6.112 0 0 0-.884-.677c-.066-.038-.122-.075-.188-.113a8.852 8.852 0 0 0-.94-.47h-.01c-.056-.028-.113-.047-.178-.075-.235-.094-.452-.17-.64-.235h-.028c-.038-.01-.075-.029-.113-.038-.009 0-.019 0-.028-.009-.038-.01-.075-.019-.103-.029h-.019c-.104-.028-.188-.056-.264-.075h-.028c-.019 0-.028 0-.047-.009h-.113a8.416 8.416 0 0 0-1.41-.207 7.45 7.45 0 0 0-.649-.01h-.254a4.31 4.31 0 0 0-.508.066c-.037 0-.065.01-.103.019-.038 0-.075.019-.113.028-.047.01-.094.029-.141.038a.315.315 0 0 0-.103.038l-.141.056-.066.028a.535.535 0 0 0-.123.066c-.018 0-.028.019-.047.028a1.272 1.272 0 0 0-.141.104c-.009 0-.018.018-.028.028a.441.441 0 0 0-.094.094c-.009.009-.019.028-.028.038-.028.047-.066.084-.085.131-.028.066-.056.141-.084.207 0 .019-.01.038-.019.056-.019.066-.047.132-.066.198 0 .019 0 .028-.009.047-.029.085-.047.179-.066.263v.038l-.057.254c0 .019 0 .037-.009.056-.038.207-.066.423-.094.649v.038l-.028.338c-.16 1.965.084 4.326.649 4.636.065.038.141.066.216.103l.075.029c.057.018.104.037.169.056.029 0 .057.019.094.028a.96.96 0 0 0 .179.038c.028 0 .066.009.094.019l.198.028c.028 0 .056 0 .084.009.085 0 .169.019.254.019h.047c.329.019.687 0 1.053-.028 2.436-.235 5.501-1.495 5.877-2.84.179-.649.151-1.222-.018-1.721l-.066-.066Z" fill="#231815" stroke="#231815" stroke-miterlimit="10"/><path d="M186.722 235.212c-.366 0-.583-.028-.583-.028h-38.29c-.489-.056-1.119-.103-1.862-.16-3.686-.254-9.244-.648-10.344-3.404-.517-1.307.047-2.868 1.74-4.758 0-.113.037-.225.112-.31a7.102 7.102 0 0 1 1.938-1.542c2.172-1.194 4.814-1.411 7.334-1.477.358 0 .724-.009 1.082-.009 1.965 0 3.949.122 5.867.244 1.89.123 3.856.236 5.783.236 1.204 0 2.304-.047 3.348-.141 6.084-.555 12.121-2.069 17.961-3.527l.564-.141c2.51-.63 5.219-1.232 8.021-1.429.197-.01.649-.038.658-.038h.094c2.915.574 3.103 2.351 3.094 2.85.16.517.818 3.159 0 8.265-.799 4.956-5.181 5.341-6.507 5.341l-.01.028Z" fill="#231815"/><path d="M190.051 219.208c2.99.592 2.718 2.454 2.718 2.454s.902 2.567 0 8.134c-.734 4.523-4.608 4.946-6.037 4.946-.329 0-.527-.018-.527-.018h-38.347c-3.15-.424-16.954-.104-9.958-7.702.037-.037-.019-.094-.038-.141.48-.555 1.082-1.034 1.806-1.439 2.134-1.166 4.748-1.354 7.127-1.42.358 0 .715-.009 1.072-.009 3.903 0 7.758.48 11.651.48 1.129 0 2.257-.038 3.395-.141 6.319-.583 12.459-2.144 18.6-3.677 2.605-.649 5.256-1.232 7.946-1.42.188-.009.404-.028.62-.038m0-.94h-.047c-.225.009-.442.028-.639.038-2.849.197-5.576.808-8.106 1.448l-.564.141c-5.821 1.457-11.839 2.962-17.895 3.517a36.297 36.297 0 0 1-3.31.141c-1.918 0-3.865-.123-5.755-.235-1.918-.123-3.912-.245-5.896-.245-.366 0-.724 0-1.09.01-2.586.065-5.295.291-7.551 1.532-.8.442-1.495.997-2.069 1.646a.897.897 0 0 0-.207.414c-1.74 1.984-2.304 3.667-1.721 5.134 1.204 3.028 6.949 3.432 10.748 3.695.734.047 1.364.094 1.768.151h38.422c.094 0 .301.019.574.019 1.42 0 6.112-.414 6.968-5.736.799-4.918.226-7.645.019-8.388.019-1.006-.658-2.718-3.479-3.273a1.22 1.22 0 0 0-.179-.018l.009.009Z" fill="#231815"/><path d="M70.703 238.673c2.708-.884 4.636-17.584 18.44-26.931 0 0 3.47-3.376-.94-2.859-1.242.545-2.821 1.42-4.58 2.859-7.005 5.717-12.77 16.145-14.387 25.85.245.836.696 1.335 1.467 1.081Z" fill="#231815" stroke="#231815" stroke-miterlimit="10"/><path d="M92.961 247.023a.478.478 0 0 1-.339-.141c-6.667-6.817-2.858-16.606.207-24.468.94-2.416 1.834-4.701 2.304-6.629.922-3.742.17-4.683-1.072-6.234a.505.505 0 0 1-.056-.536.472.472 0 0 1 .404-.254h.056c.123.019 2.934.404 3.987 3.93.508 1.702.142 4.42-1.25 9.103-.649 2.2-1.41 4.344-2.135 6.413-2.492 7.09-4.654 13.212-1.711 18.102a.466.466 0 0 1-.113.611.469.469 0 0 1-.291.094l.009.009Z" fill="#231815"/><path d="M94.418 209.231s2.615.329 3.592 3.592c.508 1.683.038 4.495-1.25 8.83-2.878 9.676-7.749 18.327-3.8 24.891-8.481-8.68.622-22.475 2.634-30.656.978-3.987.122-5.03-1.185-6.667m0-.94a.938.938 0 0 0-.734 1.523l.02.019c1.231 1.542 1.852 2.314.987 5.83-.47 1.9-1.354 4.166-2.285 6.573-3.113 7.984-6.987 17.933-.104 24.966a.94.94 0 0 0 1.25.085.947.947 0 0 0 .236-1.232c-2.83-4.701-.705-10.729 1.749-17.706.733-2.079 1.486-4.232 2.144-6.442 1.439-4.833 1.796-7.551 1.25-9.366-1.147-3.808-4.25-4.24-4.381-4.259h-.113l-.019.009Zm21.111 68.194c-2.323 0-4.288-.188-6.009-.574-1.58-.357-2.887-1.392-3.677-2.924-.978-1.891-1.072-4.288-.244-6.254.874-2.106 2.792-3.77 5.002-4.344a8.486 8.486 0 0 1 1.401-.245c.63-.065 1.27-.084 1.881-.103.978-.028 1.89-.056 2.793-.245 1.928-.423 3.639-1.617 5.285-2.774.442-.31.884-.62 1.335-.912 2.68-1.777 4.984-1.862 7.654-1.974.715-.029 1.458-.057 2.238-.123 1.223-.103 2.539-.197 3.846-.197s2.351.085 3.367.263c5.172.884 7.776 4.871 7.156 10.936-.724 6.997-8.426 7.504-14.058 7.88-.809.057-1.58.104-2.285.17-1.411.131-2.934.319-4.514.507-3.517.424-7.513.913-11.181.913h.01Z" fill="#231815"/><path d="M137.035 256.267c1.1 0 2.21.066 3.291.254 5.463.931 7.306 5.228 6.77 10.428-.78 7.56-10.296 7.1-15.92 7.636-4.626.432-10.4 1.419-15.647 1.419-2.087 0-4.09-.159-5.905-.564-3.677-.827-4.928-5.35-3.602-8.538.828-1.975 2.614-3.536 4.693-4.072a9.214 9.214 0 0 1 1.335-.235c1.57-.16 3.178-.019 4.73-.357 2.539-.555 4.607-2.313 6.78-3.752 3.281-2.172 6.037-1.721 9.676-2.022 1.26-.103 2.539-.197 3.808-.197m0-.941c-1.326 0-2.652.094-3.883.198-.772.066-1.505.094-2.22.122-2.623.104-5.106.207-7.899 2.05-.451.301-.893.611-1.344.922-1.683 1.184-3.282 2.294-5.116 2.698-.855.188-1.758.217-2.708.235-.62.019-1.269.038-1.918.104a9.177 9.177 0 0 0-1.476.263c-2.342.611-4.382 2.389-5.323 4.627-.874 2.097-.771 4.645.263 6.648.856 1.655 2.276 2.774 3.997 3.159 1.758.395 3.752.583 6.112.583 3.696 0 7.702-.489 11.237-.912a153.08 153.08 0 0 1 4.495-.507c.696-.066 1.467-.113 2.276-.17 5.792-.385 13.729-.912 14.49-8.303.659-6.347-2.097-10.522-7.541-11.453-1.053-.179-2.182-.264-3.451-.264h.009Z" fill="#231815"/><path d="M158.183 210.096c-5.529-3.432-11.209-6.93-17.584-8.237-6.376-1.307-13.692 0-17.952 4.936-3.121 3.621-4.156 8.595-4.363 13.372-.498 11.877-2.275 24.439-3.056 36.307 9.037 1.335 23.96.827 33.063.084-2.182-7.598-4.373-15.196-6.555-22.794-.884-3.075-1.767-6.159-2.341-9.3-.141-.752-1.279-7.353.075-7.062.198.047.546.997.658 1.176.743 1.213 1.731 2.341 2.624 3.441 1.805 2.238 3.752 4.373 5.915 6.273 3.836 3.347 8.463 5.943 13.503 6.695 5.04.752 10.494-.508 14.227-3.968 4.016-3.734 5.577-9.404 6.254-14.848.677-5.445 1.852-10.927 3.526-16.146-17.218-1.345-35.667-2.295-52.932-2.642-.009 1.448-.122 2.821.132 4.24" fill="#231815"/><path d="M158.183 210.096c-5.529-3.432-11.209-6.93-17.584-8.237-6.376-1.307-13.692 0-17.952 4.936-3.121 3.621-4.156 8.595-4.363 13.372-.498 11.877-2.275 24.439-3.056 36.307 9.037 1.335 23.96.827 33.063.084-2.182-7.598-4.373-15.196-6.555-22.794-.884-3.075-1.767-6.159-2.341-9.3-.141-.752-1.279-7.353.075-7.062.198.047.546.997.658 1.176.743 1.213 1.731 2.341 2.624 3.441 1.805 2.238 3.752 4.373 5.915 6.273 3.836 3.347 8.463 5.943 13.503 6.695 5.04.752 10.494-.508 14.227-3.968 4.016-3.734 5.577-9.404 6.254-14.848.677-5.445 1.852-10.927 3.526-16.146-17.218-1.345-35.667-2.295-52.932-2.642-.009 1.448-.122 2.821.132 4.24" stroke="#231815" stroke-miterlimit="10"/><path d="M172.42 213.5c-1.289 2.887-2.464 5.924-2.398 9.084.066 3.159 1.645 6.469 4.542 7.729 2.228.969 3.554-.282 4.73-2.087a21.022 21.022 0 0 0 2.727-6.131c.131-.489 1.09-5.323.677-5.36a16.648 16.648 0 0 1-4.081-.95l-6.197-2.285Z" fill="#231815" stroke="#231815" stroke-miterlimit="10"/><path d="M132.982 160.032a3.413 3.413 0 1 0 0-6.826 3.413 3.413 0 0 0 0 6.826Z" fill="#231815"/><path d="M132.982 153.676a2.94 2.94 0 0 1 2.943 2.943 2.94 2.94 0 0 1-2.943 2.943 2.94 2.94 0 0 1-2.943-2.943 2.94 2.94 0 0 1 2.943-2.943Zm0-.941a3.885 3.885 0 0 0-3.884 3.884 3.885 3.885 0 1 0 3.884-3.884Zm8.491 8.924a3.419 3.419 0 0 1-3.413-3.413 3.419 3.419 0 0 1 3.413-3.414 3.42 3.42 0 0 1 3.414 3.414 3.42 3.42 0 0 1-3.414 3.413Z" fill="#231815"/><path d="M141.482 155.312a2.942 2.942 0 0 1 2.944 2.943 2.942 2.942 0 0 1-2.944 2.943 2.942 2.942 0 0 1-2.943-2.943 2.942 2.942 0 0 1 2.943-2.943Zm0-.941a3.885 3.885 0 0 0 0 7.768 3.885 3.885 0 0 0 3.884-3.884 3.885 3.885 0 0 0-3.884-3.884Zm17.519 26.104c-8.961 11.106-24.721 15.892-38.347 11.642-.705-.216-1.401-.461-2.078-.696-2.097-.724-4.081-1.411-5.981-1.364-1.749.047-3.855 1.261-3.855 2.709a2.62 2.62 0 0 1-2.605 2.623 2.612 2.612 0 0 1-2.614-2.605c0-2.256 1.081-4.335 3.056-5.867 1.646-1.27 3.79-2.031 5.877-2.088 2.849-.075 5.388.799 7.833 1.646a60.11 60.11 0 0 0 1.928.649c5.576 1.739 11.905 1.711 17.838-.094 5.934-1.796 11.209-5.295 14.876-9.836" fill="#231815"/><path d="M159.001 180.475c-8.961 11.106-24.721 15.892-38.347 11.642-.705-.216-1.401-.461-2.078-.696-2.097-.724-4.081-1.411-5.981-1.364-1.749.047-3.855 1.261-3.855 2.709a2.62 2.62 0 0 1-2.605 2.623 2.612 2.612 0 0 1-2.614-2.605c0-2.256 1.081-4.335 3.056-5.867 1.646-1.27 3.79-2.031 5.877-2.088 2.849-.075 5.388.799 7.833 1.646a60.11 60.11 0 0 0 1.928.649c5.576 1.739 11.905 1.711 17.838-.094 5.934-1.796 11.209-5.295 14.876-9.836" stroke="#231815" stroke-miterlimit="10"/><path d="M132.841 144.413c.658-1.382 1.354-2.755 2.181-4.043 1.571-2.426 3.752-4.552 6.329-5.934 2.228-1.194 6.178-2.689 8.548-1.185.583-.649.959-1.42 1.363-2.172.404-.752.658-1.627.489-2.482-.282-1.42-1.589-2.398-2.915-2.991-3.225-1.448-7.09-1.354-10.24.235-2.436 1.232-4.401 3.339-5.52 5.831-1.204 2.689-2.643 5.228-3.16 8.19a17.637 17.637 0 0 0-.15 4.974c.16 1.411.893 4.138 1.758 5.247-.16-.442-.047-1.025.019-1.467.113-.724.292-1.429.489-2.134.198-.696.47-1.392.79-2.069h.019Z" fill="#231815" stroke="#231815" stroke-linecap="round" stroke-linejoin="round"/><path d="M162.508 124.657c-2.567-2.614-5.961-4.345-9.497-5.435-9.403-2.906-20.227-1.251-28.163 4.476-7.937 5.736-12.714 15.459-12.102 25.05 5.19-.225 14.142.734 19.248 1.655-.987-7.485.574-13.889 5.915-17.424 5.341-3.536 10.823-3.621 18.638-1.919 4.006.875 7.419 3.216 9.253 6.856 1.749-4.824.366-9.536-3.282-13.25l-.01-.009Z" fill="#231815" stroke="#231815" stroke-linecap="round" stroke-linejoin="round"/><path d="M161.728 143.257c1.034 5.529-1.824 11.575-6.77 14.274 3.874 1.223 7.88 2.276 11.942 2.182 4.062-.094 8.247-1.448 11.011-4.429 2.201-2.37 3.339-5.586 3.743-8.802.395-3.216.113-6.469-.216-9.695-.311-3.094-.781-6.451-3.019-8.613-2.257-2.182-5.661-2.53-8.792-2.756-3.686-.263-7.429-.526-11.03.283-2.351.526-4.646 1.561-6.451 3.178-.498.442-1.222 1.072-1.354 1.768-.169.912-.451 1.805-.724 2.699 2.181-.442 4.278.112 6.065 1.41 2.812 2.041 4.956 5.05 5.595 8.491v.01Z" fill="#231815" stroke="#231815" stroke-linecap="round" stroke-linejoin="round"/><path d="M159.631 121.177a30.654 30.654 0 0 1 5.605-3.018c6.676-2.746 14.17-3.235 21.326-2.182 7.617 1.119 13.899 4.006 18.986 9.667 8.933 9.93 10.532 22.756 7.56 35.319-14.998 0-30.006-.385-44.967-1.166 3.498-3.874 5.642-8.783 5.379-13.71-.179-3.423-1.599-6.752-3.931-9.319-2.379-2.623-5.717-4.382-9.29-4.852-2.097-.282-4.232-.103-6.319.263-1.392.245-2.68.518-3.959 1.082-.104-2.84 3.601-6.771 5.51-8.689a29.062 29.062 0 0 1 4.1-3.395Z" fill="#231815" stroke="#231815" stroke-linecap="round" stroke-linejoin="round"/><path d="M166.26 127.534c6.037-.244 11.557 4.354 13.739 9.987 2.181 5.642 1.533 12.017-.292 17.781m2.652-27.608c2.389.545 4.457 2.116 5.905 4.091 1.449 1.974 2.314 4.316 2.84 6.704 1.317 5.934.602 12.3-2.003 17.801m13.325 4.307c2.398-6.799 2.445-14.397.141-21.224s-6.949-12.845-12.967-16.794m-37.557 5.66c-6.573-.827-12.366-.395-17.557 2.013-5.519 2.548-10.071 7.729-10.673 13.776" stroke="#231815" stroke-linecap="round" stroke-linejoin="round"/><path d="M155.324 124.412c-6.827-2.191-14.453-1.74-20.979 1.223-6.526 2.962-11.886 8.416-14.725 14.989" stroke="#231815" stroke-linecap="round" stroke-linejoin="round"/></g><path d="M26.547 344.522h-5.824v.644h5.824v-.644Zm-5.824 2.38h5.824v-.644h-5.824v.644Zm0 1.778h5.824v-.672h-5.824v.672Zm-1.61 1.68v-7.014h9.1v6.944h-1.666v-.406h-5.824v.476h-1.61Zm7.672-10.584v1.092h-6.314v-1.092h6.314Zm-.014 2.842h-6.286v-1.106h6.286v1.106Zm-8.596-4.662h10.892v5.012h-1.68v-3.836h-7.602v3.85h-1.61v-5.026Zm21.28 2.492h2.996a14.213 14.213 0 0 1-1.652-1.26c-.42.448-.868.868-1.344 1.26Zm-.588 1.246v-.812c-.434.308-.91.602-1.386.854-.21-.294-.686-.798-1.022-1.092-.154.518-.28 1.022-.42 1.456.714 1.078.854 2.086.854 2.884 0 .924-.154 1.526-.56 1.848-.196.168-.448.266-.742.308-.224.042-.532.042-.812.042-.014-.406-.126-1.022-.336-1.442.21.028.364.028.518.014a.454.454 0 0 0 .322-.112c.154-.126.21-.434.21-.854 0-.644-.112-1.568-.784-2.534.224-.84.476-1.988.672-2.912h-1.022v11.004h-1.386v-12.488h2.842l.224-.056 1.036.602c-.182.658-.392 1.4-.588 2.128 1.596-.826 3.066-2.128 3.85-3.402l1.596.56c-.084.14-.168.294-.266.434 1.036.84 2.562 1.666 3.934 2.114a7.609 7.609 0 0 0-.63 1.582 16.88 16.88 0 0 1-1.988-1.036v.91h-4.116Zm3.57 1.82v1.288h.98v-1.288h-.98Zm-1.204 2.394v-3.514h3.472v3.514h-3.472Zm-2.814-2.394v1.288h.938v-1.288h-.938Zm-1.19 2.394v-3.514h3.374v3.514h-3.374Zm1.092.154 1.456.308c-.084.28-.196.56-.308.826.49.322 1.036.714 1.33 1.008l-.84 1.106c-.238-.28-.672-.644-1.106-.966a7.132 7.132 0 0 1-2.002 2.086c-.224-.28-.756-.826-1.078-1.05 1.232-.728 2.128-1.904 2.548-3.318Zm3.864-.014 1.498.21a7.54 7.54 0 0 1-.322 1.134c.784.546 1.694 1.204 2.17 1.68l-.98 1.12c-.392-.42-1.078-.994-1.778-1.512-.42.7-.938 1.288-1.554 1.736-.21-.28-.742-.84-1.064-1.05 1.092-.714 1.764-1.89 2.03-3.318Zm12.39-5.824h5.67s-.014.574-.042.798c-.28 5.572-.56 7.672-1.176 8.4-.42.546-.826.7-1.428.784-.518.07-1.386.07-2.24.028-.028-.504-.252-1.246-.574-1.722.882.07 1.708.07 2.072.07.294 0 .462-.042.658-.224.42-.434.7-2.268.924-6.426h-3.92c-.224 2.898-1.204 6.3-5.138 8.526-.266-.42-.896-1.05-1.302-1.358 3.472-1.89 4.41-4.718 4.648-7.168h-4.214v-1.708h4.284v-2.884h1.778v2.884Z" fill="#231815"/><g clip-path="url(#clip2_94_6219)"><path d="M72.785 335.49c.85 0 2.2 2.79 2.91 3.15.49.25 2.39-.54 2.78-.16.39.38-.17 2.53.08 3.05.35.7 3.14 1.8 3.14 2.64 0 .87-2.86 2.13-3.23 2.85-.26.5.42 2.5.02 2.89-.4.39-2.52-.26-3.05-.01-.68.32-1.77 2.94-2.57 2.94-.8 0-2.04-2.63-2.73-2.96-.52-.25-2.53.46-2.93.07-.4-.39.31-2.39.05-2.9-.36-.71-3.11-1.95-3.11-2.8 0-.85 2.65-1.98 2.98-2.66.26-.53-.42-2.61-.01-3.02.41-.41 2.36.3 2.86.04.71-.36 1.675-3.11 2.525-3.11l.285-.01Z" fill="#FFE600" stroke="#231815" stroke-miterlimit="10"/><path d="M75.695 338.64c-.71-.36-2.06-3.15-2.91-3.15v17.35h.08c.8 0 1.89-2.62 2.57-2.94.53-.25 2.65.4 3.05.01.4-.39-.28-2.39-.02-2.89.37-.72 3.23-1.98 3.23-2.85 0-.84-2.79-1.94-3.14-2.64-.25-.52.31-2.67-.08-3.05-.39-.38-2.29.41-2.78.16Z" fill="#fff"/><path d="M72.785 335.49c.85 0 2.2 2.79 2.91 3.15.49.25 2.39-.54 2.78-.16.39.38-.17 2.53.08 3.05.35.7 3.14 1.8 3.14 2.64 0 .87-2.86 2.13-3.23 2.85-.26.5.42 2.5.02 2.89-.4.39-2.52-.26-3.05-.01-.68.32-1.77 2.94-2.57 2.94h-.08v-17.35Zm0 0 .01.01" stroke="#231815" stroke-miterlimit="10"/></g><g clip-path="url(#clip3_94_6219)"><path d="M93.345 335.49c.85 0 2.2 2.79 2.91 3.15.49.25 2.39-.54 2.78-.16.39.38-.17 2.53.08 3.05.35.7 3.14 1.8 3.14 2.64 0 .87-2.86 2.13-3.23 2.85-.26.5.42 2.5.02 2.89-.4.39-2.52-.26-3.05-.01-.68.32-1.77 2.94-2.57 2.94-.8 0-2.04-2.63-2.73-2.96-.52-.25-2.53.46-2.93.07-.4-.39.31-2.39.05-2.9-.36-.71-3.11-1.95-3.11-2.8 0-.85 2.65-1.98 2.98-2.66.26-.53-.42-2.61-.01-3.02.41-.41 2.36.3 2.86.04.71-.36 1.97-3.11 2.82-3.11l-.01-.01Z" fill="#FFE600" stroke="#231815" stroke-miterlimit="10"/><path d="M96.695 338.64c-.71-.36-2.06-3.15-2.91-3.15v17.35h.08c.8 0 1.89-2.62 2.57-2.94.53-.25 2.65.4 3.05.01.4-.39-.28-2.39-.02-2.89.37-.72 3.23-1.98 3.23-2.85 0-.84-2.79-1.94-3.14-2.64-.25-.52.31-2.67-.08-3.05-.39-.38-2.29.41-2.78.16Z" fill="#fff"/><path d="M93.785 335.49c.85 0 2.2 2.79 2.91 3.15.49.25 2.39-.54 2.78-.16.39.38-.17 2.53.08 3.05.35.7 3.14 1.8 3.14 2.64 0 .87-2.86 2.13-3.23 2.85-.26.5.42 2.5.02 2.89-.4.39-2.52-.26-3.05-.01-.68.32-1.77 2.94-2.57 2.94h-.08v-17.35Zm0 0 .01.01" stroke="#231815" stroke-miterlimit="10"/></g><g clip-path="url(#clip4_94_6219)"><path d="M113.905 335.49c.85 0 2.2 2.79 2.91 3.15.49.25 2.39-.54 2.78-.16.39.38-.17 2.53.08 3.05.35.7 3.14 1.8 3.14 2.64 0 .87-2.86 2.13-3.23 2.85-.26.5.42 2.5.02 2.89-.4.39-2.52-.26-3.05-.01-.68.32-1.77 2.94-2.57 2.94-.8 0-2.04-2.63-2.73-2.96-.52-.25-2.53.46-2.93.07-.4-.39.31-2.39.05-2.9-.36-.71-3.11-1.95-3.11-2.8 0-.85 2.65-1.98 2.98-2.66.26-.53-.42-2.61-.01-3.02.41-.41 2.36.3 2.86.04.71-.36 1.97-3.11 2.82-3.11l-.01-.01Z" fill="#FFE600" stroke="#231815" stroke-miterlimit="10"/><path d="M116.695 338.64c-.71-.36-2.06-3.15-2.91-3.15v17.35h.08c.8 0 1.89-2.62 2.57-2.94.53-.25 2.65.4 3.05.01.4-.39-.28-2.39-.02-2.89.37-.72 3.23-1.98 3.23-2.85 0-.84-2.79-1.94-3.14-2.64-.25-.52.31-2.67-.08-3.05-.39-.38-2.29.41-2.78.16Z" fill="#fff"/><path d="M113.785 335.49c.85 0 2.2 2.79 2.91 3.15.49.25 2.39-.54 2.78-.16.39.38-.17 2.53.08 3.05.35.7 3.14 1.8 3.14 2.64 0 .87-2.86 2.13-3.23 2.85-.26.5.42 2.5.02 2.89-.4.39-2.52-.26-3.05-.01-.68.32-1.77 2.94-2.57 2.94h-.08v-17.35Zm0 0 .01.01" stroke="#231815" stroke-miterlimit="10"/></g><path d="m165.733 346.322 1.484.504c-.574.784-1.4 1.764-2.058 2.338-.28-.266-.896-.714-1.26-.938a9.44 9.44 0 0 0 1.834-1.904Zm4.676.672 1.204-.7c.63.644 1.526 1.554 1.988 2.128l-1.288.784c-.42-.56-1.26-1.526-1.904-2.212Zm.392-3.206v-.518h-3.598v.518h3.598Zm0 1.456v-.532h-3.598v.532h3.598Zm-6.552-6.342v3.108c0 .378-.014.784-.028 1.204a7.623 7.623 0 0 0 1.204-.728c-.266-.224-.56-.462-.826-.644l.84-.742c.266.168.588.392.868.602.21-.21.406-.434.574-.672h-2.142v-1.246h2.884c.112-.294.224-.588.308-.882h-3.682Zm5.292 2.128h-.938c-.266.434-.56.854-.91 1.26h2.702a7.67 7.67 0 0 1-.854-1.26Zm3.08 0h-1.568c.21.28.462.546.742.798.294-.266.616-.574.826-.798Zm.07 0 .91.672c-.294.28-.63.56-.952.798.42.266.868.504 1.33.658a4.81 4.81 0 0 0-.966 1.176 6.639 6.639 0 0 1-.756-.406v2.296h-2.45v1.792c0 .686-.126 1.022-.644 1.246-.476.21-1.106.21-1.946.21-.098-.42-.336-.966-.518-1.33.518.014 1.092.014 1.274.014.168 0 .224-.056.224-.196v-1.736h-2.38v-2.31c-.266.182-.546.35-.84.504a3.555 3.555 0 0 0-.77-.91c-.14 2.03-.63 4.396-2.044 5.95-.21-.308-.84-.91-1.148-1.106.924-1.022 1.344-2.324 1.54-3.626-.504.308-.994.602-1.484.868l-.462-1.498c.546-.224 1.302-.602 2.1-1.008.014-.364.014-.728.014-1.078v-.476l-1.232.56c-.14-.714-.476-1.918-.77-2.814l1.232-.49c.266.784.588 1.792.77 2.478v-3.766h4.648l-.28-.84 1.694-.336c.14.364.28.784.406 1.176h4.578v1.4h-5.264l.98.126c-.084.266-.182.504-.28.756h4.438v1.246h-.952Zm7.728 8.162-1.26-.7c.49-.504.952-1.316 1.204-2.002l1.246.546c-.294.714-.686 1.596-1.19 2.156Zm4.368-4.522v-2.716h1.176v2.716h-1.176Zm3.346-2.856v3.136c0 .588-.084.854-.49 1.036-.392.182-.91.182-1.638.182-.056-.336-.238-.77-.406-1.078.448.014.882.014 1.036 0 .14-.014.182-.042.182-.168v-3.108h1.316Zm-4.746 4.606 1.05-.658c.434.364 1.05.924 1.344 1.288l-1.078.728c-.28-.392-.854-.952-1.316-1.358Zm-1.764-2.24h1.4v-.392h-1.386c0 .126 0 .266-.014.392Zm1.4-1.442h-1.386v.35h1.386v-.35Zm1.19-.812v3.234c0 .476-.084.658-.406.798-.28.14-.728.14-1.316.14-.028-.266-.168-.574-.28-.812.28.014.574.014.672.014.098 0 .14-.028.14-.14v-.28h-1.484c-.112.504-.322.966-.742 1.33-.196-.224-.714-.63-.98-.784.602-.462.644-1.078.644-1.68v-1.82h3.752Zm-.476 6.272h1.54c.364 0 .448-.112.49-.84.266.182.798.336 1.148.406-.14 1.19-.49 1.498-1.498 1.498h-1.862c-1.414 0-1.75-.322-1.75-1.4v-1.33h1.358v1.316c0 .322.084.35.574.35Zm2.674-1.26 1.19-.532c.518.658 1.134 1.554 1.414 2.156l-1.26.588c-.238-.574-.826-1.526-1.344-2.212Zm-3.024-6.272h2.142a18.048 18.048 0 0 1-1.148-.588c-.322.21-.644.406-.994.588Zm-3.64-1.708v1.694c1.47-.364 3.108-.938 4.158-1.694h-4.158Zm5.698.28-.14.14a17.324 17.324 0 0 0 3.962 1.19c-.308.28-.686.742-.868 1.134a20.442 20.442 0 0 1-2.212-.742v.602h-3.668v-.476c-.686.28-1.4.546-2.086.742a4.917 4.917 0 0 0-.686-.924v1.162c0 2.226-.294 5.488-2.086 7.434-.21-.308-.84-.896-1.148-1.092.924-1.022 1.344-2.338 1.54-3.654-.504.308-.994.616-1.484.896l-.462-1.498c.546-.238 1.302-.616 2.1-1.008.014-.378.014-.742.014-1.078v-.49l-1.232.574c-.07-.742-.392-1.918-.756-2.814l1.19-.504c.35.784.672 1.764.798 2.45v-3.724h4.83a11.057 11.057 0 0 0-.294-.952l1.68-.322c.154.392.322.854.448 1.274h4.242v1.4h-4.256l.574.28Zm12.81.056h5.67s-.014.574-.042.798c-.28 5.572-.56 7.672-1.176 8.4-.42.546-.826.7-1.428.784-.518.07-1.386.07-2.24.028-.028-.504-.252-1.246-.574-1.722.882.07 1.708.07 2.072.07.294 0 .462-.042.658-.224.42-.434.7-2.268.924-6.426h-3.92c-.224 2.898-1.204 6.3-5.138 8.526-.266-.42-.896-1.05-1.302-1.358 3.472-1.89 4.41-4.718 4.648-7.168h-4.214v-1.708h4.284v-2.884h1.778v2.884Z" fill="#231815"/><g clip-path="url(#clip5_94_6219)" stroke="#231815" stroke-miterlimit="10"><path d="M219.405 335.49c-1.34 0-2.54.55-3.41 1.44a4.741 4.741 0 0 0-3.41-1.44c-2.64 0-4.77 2.13-4.77 4.77 0 4.79 8.18 10.62 8.18 10.62s8.18-5.83 8.18-10.62a4.77 4.77 0 0 0-4.77-4.77Z" fill="#FF002A"/><path d="M215.995 336.93c.87-.89 2.07-1.44 3.41-1.44a4.77 4.77 0 0 1 4.77 4.77c0 4.79-8.18 10.62-8.18 10.62v-13.95Z" fill="#fff"/></g><g clip-path="url(#clip6_94_6219)" stroke="#231815" stroke-miterlimit="10"><path d="M238.755 335.49c-1.34 0-2.54.55-3.41 1.44a4.741 4.741 0 0 0-3.41-1.44c-2.64 0-4.77 2.13-4.77 4.77 0 4.79 8.18 10.62 8.18 10.62s8.18-5.83 8.18-10.62a4.77 4.77 0 0 0-4.77-4.77Z" fill="#FF002A"/><path d="M234.995 336.93c.87-.89 2.07-1.44 3.41-1.44a4.77 4.77 0 0 1 4.77 4.77c0 4.79-8.18 10.62-8.18 10.62v-13.95Z" fill="#fff"/></g><g clip-path="url(#clip7_94_6219)" stroke="#231815" stroke-miterlimit="10"><path d="M258.105 335.49c-1.34 0-2.54.55-3.41 1.44a4.741 4.741 0 0 0-3.41-1.44c-2.64 0-4.77 2.13-4.77 4.77 0 4.79 8.18 10.62 8.18 10.62s8.18-5.83 8.18-10.62a4.77 4.77 0 0 0-4.77-4.77Z" fill="#FF002A"/><path d="M254.995 336.93c.87-.89 2.07-1.44 3.41-1.44a4.77 4.77 0 0 1 4.77 4.77c0 4.79-8.18 10.62-8.18 10.62v-13.95Z" fill="#fff"/></g><path d="M15.5 368.35a4.5 4.5 0 0 1 4.5-4.5h44.5v33H20a4.5 4.5 0 0 1-4.5-4.5v-24Z" fill="#00698A"/><path d="M33.778 377.916v-.798H31.86v.798h1.918Zm0 2.212v-.868H31.86v.868h1.918Zm0 2.226v-.882H31.86v.882h1.918Zm-3.528 1.988v-5.81c-.238.28-.476.518-.714.756-.154-.336-.616-1.162-.896-1.526 1.12-1.008 2.128-2.604 2.688-4.242l1.512.42c-.21.602-.476 1.19-.756 1.778h2.086a13.32 13.32 0 0 0-.658-1.512l1.568-.448c.35.602.714 1.372.896 1.96h2.212v1.4H35.36v.798h2.254v1.344H35.36v.868h2.198v1.344H35.36v.882h2.982v1.4H31.86v.588h-1.61Zm-1.68-8.526-1.526.532c-.154-.63-.518-1.652-.756-2.408l1.47-.448c.266.756.616 1.694.812 2.324Zm.126 3.962.714.252c-.252 1.274-.63 2.59-1.106 3.64.224.14.49.336.868.56.952.574 2.268.658 3.906.658 1.61 0 4.116-.14 5.656-.364-.182.448-.462 1.26-.476 1.708-1.162.07-3.626.168-5.264.168-1.862 0-3.038-.154-4.046-.742-.588-.322-1.078-.784-1.372-.784-.322 0-.812.952-1.162 1.75l-1.106-1.582c.476-.588.994-1.05 1.47-1.33.308-.7.588-1.582.798-2.436h-1.764c.322-.826.7-1.946 1.008-3.038h-1.26v-1.484h3.276c-.294.98-.63 2.1-.952 3.08h.56l.252-.056Zm15.652-6.23 1.554.518a21.66 21.66 0 0 1-1.358 2.66v9.842h-1.582v-7.546c-.448.56-.882 1.05-1.344 1.484-.154-.406-.616-1.316-.882-1.736 1.428-1.232 2.814-3.22 3.612-5.222Zm5.026 11.228h2.044c.714 0 .826-.588.952-2.898.378.294 1.036.616 1.47.7-.182 2.702-.602 3.668-2.296 3.668h-2.338c-1.722 0-2.212-.56-2.212-2.464v-10.024h1.61v3.556h4.872v1.596h-4.872v4.9c0 .826.098.966.77.966Z" fill="#fff"/><path d="M15.5 368.35a4.5 4.5 0 0 1 4.5-4.5h44.5v33H20a4.5 4.5 0 0 1-4.5-4.5v-24Z" stroke="#231815"/><path d="M64.5 363.85H260a4.5 4.5 0 0 1 4.5 4.5v24a4.5 4.5 0 0 1-4.5 4.5H64.5v-33Z" fill="#fff"/><g clip-path="url(#clip8_94_6219)"><path d="M78.636 373.35h.49c.019.005.039.012.057.013.204.017.405.051.603.104a3.552 3.552 0 0 1 1.634.934c.31.307.553.66.735 1.055a3.67 3.67 0 0 1 .33 1.552c.002.587 0 1.172 0 1.759v.099h.099c.175 0 .349-.003.524 0 .288.004.525.166.61.426.03.089.041.188.041.283.003 2.357.001 4.713.001 7.069v.07a.637.637 0 0 1-.436.604c-.024.008-.046.021-.068.032h-8.75l-.085-.036a.632.632 0 0 1-.362-.336.732.732 0 0 1-.059-.316v-7.139a.638.638 0 0 1 .657-.657c.179-.002.357 0 .535 0 .025 0 .05-.003.083-.004v-1.973a3.57 3.57 0 0 1 .932-2.351 3.577 3.577 0 0 1 2.207-1.154c.075-.01.148-.022.222-.034Zm2.574 5.512.002-.063c0-.607.002-1.213 0-1.82 0-.119-.007-.24-.025-.358a2.271 2.271 0 0 0-.767-1.412 2.255 2.255 0 0 0-1.95-.545c-.68.118-1.203.484-1.572 1.066a2.122 2.122 0 0 0-.347 1.13c-.007.644 0 1.289 0 1.933 0 .023.004.045.007.069h4.654-.002Zm-2.964 4.945c0 .128-.004.257 0 .384a.631.631 0 0 0 .864.571.638.638 0 0 0 .403-.591c0-.248.003-.495-.001-.743 0-.072.02-.122.075-.173.328-.309.428-.685.295-1.114a1.034 1.034 0 0 0-.976-.728 1.058 1.058 0 0 0-.722 1.86.154.154 0 0 1 .062.134c-.004.133 0 .267 0 .401v-.001Z" fill="#231815"/></g><g clip-path="url(#clip9_94_6219)"><path d="M98.396 373.35h.49c.02.005.04.012.058.013.204.017.404.051.603.104a3.547 3.547 0 0 1 1.633.934c.31.307.553.66.735 1.055.228.493.33 1.011.331 1.552.002.587 0 1.172 0 1.759v.099h.098c.175 0 .349-.003.525 0 .288.004.525.166.609.426.03.089.042.188.042.283.002 2.357.001 4.713.001 7.069v.07a.638.638 0 0 1-.437.604c-.024.008-.045.021-.068.032h-8.75l-.085-.036a.632.632 0 0 1-.362-.336.73.73 0 0 1-.059-.316v-7.139a.638.638 0 0 1 .658-.657c.178-.002.356 0 .534 0 .026 0 .051-.003.083-.004v-1.973a3.57 3.57 0 0 1 .932-2.351 3.577 3.577 0 0 1 2.207-1.154c.075-.01.149-.022.222-.034Zm2.574 5.512c0-.028.003-.046.003-.063v-1.82c0-.119-.007-.24-.026-.358a2.272 2.272 0 0 0-.767-1.412 2.255 2.255 0 0 0-1.95-.545c-.68.118-1.202.484-1.572 1.066a2.122 2.122 0 0 0-.347 1.13c-.006.644 0 1.289 0 1.933 0 .023.004.045.007.069h4.655-.003Zm-2.963 4.945c0 .128-.004.257 0 .384a.631.631 0 0 0 .863.571.638.638 0 0 0 .403-.591c0-.248.003-.495 0-.743 0-.072.02-.122.074-.173.328-.309.429-.685.296-1.114a1.034 1.034 0 0 0-.976-.728 1.058 1.058 0 0 0-.722 1.86.154.154 0 0 1 .062.134c-.004.133 0 .267 0 .401v-.001Z" fill="#231815"/></g><g clip-path="url(#clip10_94_6219)"><path d="M118.157 373.35h.49c.019.005.039.012.058.013.203.017.404.051.602.104a3.556 3.556 0 0 1 1.634.934c.309.307.553.66.735 1.055.228.493.329 1.011.331 1.552v1.858h.097c.176 0 .35-.003.525 0 .288.004.525.166.61.426a.928.928 0 0 1 .041.283c.003 2.357.001 4.713.001 7.069v.07a.637.637 0 0 1-.436.604c-.024.008-.046.021-.068.032h-8.75c-.028-.012-.057-.025-.086-.036a.631.631 0 0 1-.361-.336.729.729 0 0 1-.059-.316v-7.139a.639.639 0 0 1 .657-.657c.179-.002.357 0 .535 0 .025 0 .051-.003.083-.004v-1.973a3.572 3.572 0 0 1 .932-2.351 3.579 3.579 0 0 1 2.207-1.154c.075-.01.148-.022.222-.034Zm2.574 5.512.002-.063c0-.607.002-1.213 0-1.82 0-.119-.006-.24-.025-.358a2.272 2.272 0 0 0-.767-1.412 2.256 2.256 0 0 0-1.95-.545c-.68.118-1.203.484-1.572 1.066a2.116 2.116 0 0 0-.347 1.13c-.007.644 0 1.289 0 1.933 0 .023.004.045.007.069h4.654-.002Zm-2.964 4.945c0 .128-.004.257 0 .384a.632.632 0 0 0 .864.571.64.64 0 0 0 .403-.591c0-.248.003-.495-.001-.743 0-.072.02-.122.075-.173.328-.309.428-.685.296-1.114a1.035 1.035 0 0 0-.977-.728 1.053 1.053 0 0 0-1.013.667c-.168.416-.053.891.292 1.193a.152.152 0 0 1 .061.134c-.004.133 0 .267 0 .401v-.001Z" fill="#231815"/></g><path d="M64.5 363.85H260a4.5 4.5 0 0 1 4.5 4.5v24a4.5 4.5 0 0 1-4.5 4.5H64.5v-33Z" stroke="#231815"/><path d="M15.5 412.35a4.5 4.5 0 0 1 4.5-4.5h44.5v33H20a4.5 4.5 0 0 1-4.5-4.5v-24Z" fill="#00698A"/><path d="M33.918 420.978v2.002h-1.526v-2.002h1.526Zm1.512 7.644h-.462c.21.252.406.504.546.77h.308c.14 0 .238-.028.322-.154.154-.196.266-.896.35-2.772h-3.472v.392h2.408v1.764Zm-2.408.406.896-.042a3.952 3.952 0 0 0-.196-.252l.28-.112h-.98v.406Zm1.148-1.064v-.448h-1.148v.448h1.148Zm-3.724 0h1.176v-.448h-1.176v.448Zm1.176-1.498h-1.134c-.14.14-.28.266-.434.392h1.568v-.392Zm-3.374-5.684v1.372c0 1.302-.056 2.954-.308 4.564.868-.476 1.54-1.036 2.002-1.596h-1.148v-1.96h.28l-.238-.826c.588-.098 1.386-.224 2.24-.392a15.106 15.106 0 0 0-1.96-.406l.238-.728c.84.098 1.792.266 2.38.462l-.238.602.532-.098.014.826c-.896.21-1.82.42-2.59.56h7.266c-.658-.196-1.568-.378-2.408-.49l.238-.714.294.014-.322-.658c.504-.084 1.246-.336 1.806-.532h-8.078Zm7.896-1.722h-7.896v.658h7.896v-.658Zm-.042 5.39v-.616h-1.19v.616h1.19Zm-2.45 0v-.616H32.49v.616h1.162Zm-2.422 0v-.616h-1.134v.616h1.134Zm.112 1.092h6.678s0 .35-.014.518c-.112 2.604-.252 3.598-.56 3.976-.224.294-.504.392-.812.434-.294.056-.77.056-1.26.042a2.693 2.693 0 0 0-.098-.532l-.602.252a3.58 3.58 0 0 0-.154-.336c-2.156.154-4.382.294-5.992.392l-.098-1.078c.868-.028 1.974-.084 3.192-.14v-.448h-2.366v-1.176a12.67 12.67 0 0 1-.56.364c-.182-.252-.518-.56-.798-.77-.224 1.274-.546 2.492-1.078 3.486-.308-.252-1.022-.658-1.442-.812 1.162-2.156 1.26-5.334 1.26-7.56v-4.144h11.13v2.772h-.966l.364.644c-.686.266-1.624.448-2.282.56.854.098 1.778.28 2.324.448l-.266.728h.532v1.96H31.65c-.098.14-.196.28-.308.42Zm19.222 2.996h3.304v1.582H45.16v-1.582h3.738v-2.8h-2.702v-1.554h2.702v-2.296h-1.54c-.21.728-.49 1.4-.784 1.932a14.722 14.722 0 0 0-1.484-.756c.14-.252.28-.518.42-.812l-.798.364c-.084-.42-.294-1.036-.532-1.61v9.562h-1.666v-10.01c-.084 1.176-.308 2.716-.63 3.71l-1.232-.448c.336-.924.588-2.492.686-3.64l1.176.168v-2.856h1.666v2.646l.812-.336c.28.546.574 1.218.77 1.764.35-1.022.602-2.226.742-3.416l1.624.224c-.098.658-.21 1.316-.35 1.946h1.12v-2.744h1.666v2.744h2.856v1.568h-2.856v2.296h2.562v1.554h-2.562v2.8Z" fill="#fff"/><path d="M15.5 412.35a4.5 4.5 0 0 1 4.5-4.5h44.5v33H20a4.5 4.5 0 0 1-4.5-4.5v-24Z" stroke="#231815"/><path d="M64.5 407.85H260a4.5 4.5 0 0 1 4.5 4.5v24a4.5 4.5 0 0 1-4.5 4.5H64.5v-33Z" fill="#fff"/><g clip-path="url(#clip11_94_6219)"><path d="M78.636 417.35h.49c.019.005.039.012.057.013.204.017.405.051.603.104a3.552 3.552 0 0 1 1.634.934c.31.307.553.66.735 1.055a3.67 3.67 0 0 1 .33 1.552c.002.587 0 1.172 0 1.759v.099h.099c.175 0 .349-.003.524 0 .288.004.525.166.61.426.03.089.041.188.041.283.003 2.357.001 4.713.001 7.069v.07a.637.637 0 0 1-.436.604c-.024.008-.046.021-.068.032h-8.75l-.085-.036a.632.632 0 0 1-.362-.336.732.732 0 0 1-.059-.316v-7.139a.638.638 0 0 1 .657-.657c.179-.002.357 0 .535 0 .025 0 .05-.003.083-.004v-1.973a3.57 3.57 0 0 1 .932-2.351 3.577 3.577 0 0 1 2.207-1.154c.075-.01.148-.022.222-.034Zm2.574 5.512.002-.063c0-.607.002-1.213 0-1.82 0-.119-.007-.24-.025-.358a2.271 2.271 0 0 0-.767-1.412 2.255 2.255 0 0 0-1.95-.545c-.68.118-1.203.484-1.572 1.066a2.122 2.122 0 0 0-.347 1.13c-.007.644 0 1.289 0 1.933 0 .023.004.045.007.069h4.654-.002Zm-2.964 4.945c0 .128-.004.257 0 .384a.631.631 0 0 0 .864.571.638.638 0 0 0 .403-.591c0-.248.003-.495-.001-.743 0-.072.02-.122.075-.173.328-.309.428-.685.295-1.114a1.034 1.034 0 0 0-.976-.728 1.058 1.058 0 0 0-.722 1.86.154.154 0 0 1 .062.134c-.004.133 0 .267 0 .401v-.001Z" fill="#231815"/></g><g clip-path="url(#clip12_94_6219)"><path d="M98.396 417.35h.49c.02.005.04.012.058.013.204.017.404.051.603.104a3.547 3.547 0 0 1 1.633.934c.31.307.553.66.735 1.055.228.493.33 1.011.331 1.552.002.587 0 1.172 0 1.759v.099h.098c.175 0 .349-.003.525 0 .288.004.525.166.609.426.03.089.042.188.042.283.002 2.357.001 4.713.001 7.069v.07a.638.638 0 0 1-.437.604c-.024.008-.045.021-.068.032h-8.75l-.085-.036a.632.632 0 0 1-.362-.336.73.73 0 0 1-.059-.316v-7.139a.638.638 0 0 1 .658-.657c.178-.002.356 0 .534 0 .026 0 .051-.003.083-.004v-1.973a3.57 3.57 0 0 1 .932-2.351 3.577 3.577 0 0 1 2.207-1.154c.075-.01.149-.022.222-.034Zm2.574 5.512c0-.028.003-.046.003-.063v-1.82c0-.119-.007-.24-.026-.358a2.272 2.272 0 0 0-.767-1.412 2.255 2.255 0 0 0-1.95-.545c-.68.118-1.202.484-1.572 1.066a2.122 2.122 0 0 0-.347 1.13c-.006.644 0 1.289 0 1.933 0 .023.004.045.007.069h4.655-.003Zm-2.963 4.945c0 .128-.004.257 0 .384a.631.631 0 0 0 .863.571.638.638 0 0 0 .403-.591c0-.248.003-.495 0-.743 0-.072.02-.122.074-.173.328-.309.429-.685.296-1.114a1.034 1.034 0 0 0-.976-.728 1.058 1.058 0 0 0-.722 1.86.154.154 0 0 1 .062.134c-.004.133 0 .267 0 .401v-.001Z" fill="#231815"/></g><g clip-path="url(#clip13_94_6219)"><path d="M118.157 417.35h.49c.019.005.039.012.058.013.203.017.404.051.602.104a3.556 3.556 0 0 1 1.634.934c.309.307.553.66.735 1.055.228.493.329 1.011.331 1.552v1.858h.097c.176 0 .35-.003.525 0 .288.004.525.166.61.426a.928.928 0 0 1 .041.283c.003 2.357.001 4.713.001 7.069v.07a.637.637 0 0 1-.436.604c-.024.008-.046.021-.068.032h-8.75c-.028-.012-.057-.025-.086-.036a.631.631 0 0 1-.361-.336.729.729 0 0 1-.059-.316v-7.139a.639.639 0 0 1 .657-.657c.179-.002.357 0 .535 0 .025 0 .051-.003.083-.004v-1.973a3.572 3.572 0 0 1 .932-2.351 3.579 3.579 0 0 1 2.207-1.154c.075-.01.148-.022.222-.034Zm2.574 5.512.002-.063c0-.607.002-1.213 0-1.82 0-.119-.006-.24-.025-.358a2.272 2.272 0 0 0-.767-1.412 2.256 2.256 0 0 0-1.95-.545c-.68.118-1.203.484-1.572 1.066a2.116 2.116 0 0 0-.347 1.13c-.007.644 0 1.289 0 1.933 0 .023.004.045.007.069h4.654-.002Zm-2.964 4.945c0 .128-.004.257 0 .384a.632.632 0 0 0 .864.571.64.64 0 0 0 .403-.591c0-.248.003-.495-.001-.743 0-.072.02-.122.075-.173.328-.309.428-.685.296-1.114a1.035 1.035 0 0 0-.977-.728 1.053 1.053 0 0 0-1.013.667c-.168.416-.053.891.292 1.193a.152.152 0 0 1 .061.134c-.004.133 0 .267 0 .401v-.001Z" fill="#231815"/></g><path d="M64.5 407.85H260a4.5 4.5 0 0 1 4.5 4.5v24a4.5 4.5 0 0 1-4.5 4.5H64.5v-33Z" stroke="#231815"/><path d="M15.5 456.35a4.5 4.5 0 0 1 4.5-4.5h44.5v33H20a4.5 4.5 0 0 1-4.5-4.5v-24Z" fill="#00698A"/><path d="m30.138 467.442.21 1.526c-.49.14-.994.28-1.498.406v3.346c0 .812-.154 1.204-.63 1.47-.462.252-1.134.294-2.114.294a7.24 7.24 0 0 0-.476-1.512c.546.014 1.12.014 1.302.014.21 0 .266-.07.266-.28v-2.884l-1.358.336-.434-1.582c.518-.098 1.12-.238 1.792-.406v-2.478h-1.61v-1.54h1.61v-2.66h1.652v2.66h1.372v1.54H28.85v2.072l1.288-.322Zm5.852.756h-3.402a8.001 8.001 0 0 0 1.652 2.478 7.802 7.802 0 0 0 1.75-2.478Zm1.05-1.568 1.064.448c-.532 1.946-1.428 3.472-2.604 4.648.91.644 1.988 1.106 3.234 1.414-.35.336-.826 1.008-1.064 1.442-1.358-.406-2.52-.98-3.486-1.764-1.092.756-2.324 1.316-3.682 1.722-.182-.448-.588-1.148-.896-1.512 1.232-.294 2.366-.742 3.346-1.372-.826-.938-1.484-2.044-1.988-3.332l.42-.126h-.728V466.7h2.758v-1.68h-3.01v-1.54h3.01v-2.002h1.652v2.002h3.136v1.54h-3.136v1.68h1.68l.294-.07Zm15.274 1.036h-2.128c-1.68 0-2.128-.616-2.128-2.17v-3.976h1.652v1.652h3.444v1.428H49.71v.924c0 .518.084.714.532.714h2.044c.392 0 .98-.042 1.288-.112.028.434.098 1.036.154 1.414-.294.098-.882.126-1.414.126Zm-9.044 1.498v.504c0 .532-.028 1.162-.098 1.792.63-.28 1.456-.7 2.296-1.148v-.462l-.672.658c-.35-.364-.994-.91-1.526-1.344Zm2.198-1.26H43.27v.994l.7-.602c.476.336 1.078.826 1.498 1.19v-1.582Zm1.568-1.4v6.524c0 .686-.126 1.036-.588 1.26-.448.21-1.078.238-1.932.238-.07-.392-.294-.938-.504-1.302.504.028 1.05.028 1.218.028.182 0 .238-.056.238-.238v-1.428c-.7.504-1.4.98-2.03 1.386l-.35-.98c-.154.952-.462 1.904-.994 2.632-.238-.322-.868-.924-1.162-1.12.742-1.092.798-2.632.798-3.85v-3.15h5.306Zm-2.128-3.486 1.344-.49c.588 1.008 1.33 2.38 1.666 3.22l-1.456.588c-.084-.252-.21-.546-.35-.882-3.542.35-4.116.434-4.522.602a17.634 17.634 0 0 0-.518-1.498c.252-.056.49-.252.77-.56.28-.308 1.134-1.386 1.652-2.492l1.68.476c-.476.812-1.106 1.624-1.722 2.324l2.044-.154c-.21-.406-.406-.798-.588-1.134Zm5.446 9.996h1.596c.476 0 .574-.238.644-1.526.336.252 1.008.504 1.442.602-.168 1.834-.602 2.38-1.932 2.38h-1.988c-1.652 0-2.058-.49-2.058-2.016v-4.396h1.652v1.4h3.542v1.47H49.71v1.526c0 .49.098.56.644.56Z" fill="#fff"/><path d="M15.5 456.35a4.5 4.5 0 0 1 4.5-4.5h44.5v33H20a4.5 4.5 0 0 1-4.5-4.5v-24Z" stroke="#231815"/><path d="M64.5 451.85H260a4.5 4.5 0 0 1 4.5 4.5v24a4.5 4.5 0 0 1-4.5 4.5H64.5v-33Z" fill="#fff"/><g clip-path="url(#clip14_94_6219)"><path d="M78.636 461.35h.49c.019.005.039.012.057.013.204.017.405.051.603.104a3.552 3.552 0 0 1 1.634.934c.31.307.553.66.735 1.055a3.67 3.67 0 0 1 .33 1.552c.002.587 0 1.172 0 1.759v.099h.099c.175 0 .349-.003.524 0 .288.004.525.166.61.426.03.089.041.188.041.283.003 2.357.001 4.713.001 7.069v.07a.637.637 0 0 1-.436.604c-.024.008-.046.021-.068.032h-8.75l-.085-.036a.632.632 0 0 1-.362-.336.732.732 0 0 1-.059-.316v-7.139a.638.638 0 0 1 .657-.657c.179-.002.357 0 .535 0 .025 0 .05-.003.083-.004v-1.973a3.57 3.57 0 0 1 .932-2.351 3.577 3.577 0 0 1 2.207-1.154c.075-.01.148-.022.222-.034Zm2.574 5.512.002-.063c0-.607.002-1.213 0-1.82 0-.119-.007-.24-.025-.358a2.271 2.271 0 0 0-.767-1.412 2.255 2.255 0 0 0-1.95-.545c-.68.118-1.203.484-1.572 1.066a2.122 2.122 0 0 0-.347 1.13c-.007.644 0 1.289 0 1.933 0 .023.004.045.007.069h4.654-.002Zm-2.964 4.945c0 .128-.004.257 0 .384a.631.631 0 0 0 .864.571.638.638 0 0 0 .403-.591c0-.248.003-.495-.001-.743 0-.072.02-.122.075-.173.328-.309.428-.685.295-1.114a1.034 1.034 0 0 0-.976-.728 1.058 1.058 0 0 0-.722 1.86.154.154 0 0 1 .062.134c-.004.133 0 .267 0 .401v-.001Z" fill="#231815"/></g><g clip-path="url(#clip15_94_6219)"><path d="M98.396 461.35h.49c.02.005.04.012.058.013.204.017.404.051.603.104a3.547 3.547 0 0 1 1.633.934c.31.307.553.66.735 1.055.228.493.33 1.011.331 1.552.002.587 0 1.172 0 1.759v.099h.098c.175 0 .349-.003.525 0 .288.004.525.166.609.426.03.089.042.188.042.283.002 2.357.001 4.713.001 7.069v.07a.638.638 0 0 1-.437.604c-.024.008-.045.021-.068.032h-8.75l-.085-.036a.632.632 0 0 1-.362-.336.73.73 0 0 1-.059-.316v-7.139a.638.638 0 0 1 .658-.657c.178-.002.356 0 .534 0 .026 0 .051-.003.083-.004v-1.973a3.57 3.57 0 0 1 .932-2.351 3.577 3.577 0 0 1 2.207-1.154c.075-.01.149-.022.222-.034Zm2.574 5.512c0-.028.003-.046.003-.063v-1.82c0-.119-.007-.24-.026-.358a2.272 2.272 0 0 0-.767-1.412 2.255 2.255 0 0 0-1.95-.545c-.68.118-1.202.484-1.572 1.066a2.122 2.122 0 0 0-.347 1.13c-.006.644 0 1.289 0 1.933 0 .023.004.045.007.069h4.655-.003Zm-2.963 4.945c0 .128-.004.257 0 .384a.631.631 0 0 0 .863.571.638.638 0 0 0 .403-.591c0-.248.003-.495 0-.743 0-.072.02-.122.074-.173.328-.309.429-.685.296-1.114a1.034 1.034 0 0 0-.976-.728 1.058 1.058 0 0 0-.722 1.86.154.154 0 0 1 .062.134c-.004.133 0 .267 0 .401v-.001Z" fill="#231815"/></g><g clip-path="url(#clip16_94_6219)"><path d="M118.157 461.35h.49c.019.005.039.012.058.013.203.017.404.051.602.104a3.556 3.556 0 0 1 1.634.934c.309.307.553.66.735 1.055.228.493.329 1.011.331 1.552v1.858h.097c.176 0 .35-.003.525 0 .288.004.525.166.61.426a.928.928 0 0 1 .041.283c.003 2.357.001 4.713.001 7.069v.07a.637.637 0 0 1-.436.604c-.024.008-.046.021-.068.032h-8.75c-.028-.012-.057-.025-.086-.036a.631.631 0 0 1-.361-.336.729.729 0 0 1-.059-.316v-7.139a.639.639 0 0 1 .657-.657c.179-.002.357 0 .535 0 .025 0 .051-.003.083-.004v-1.973a3.572 3.572 0 0 1 .932-2.351 3.579 3.579 0 0 1 2.207-1.154c.075-.01.148-.022.222-.034Zm2.574 5.512.002-.063c0-.607.002-1.213 0-1.82 0-.119-.006-.24-.025-.358a2.272 2.272 0 0 0-.767-1.412 2.256 2.256 0 0 0-1.95-.545c-.68.118-1.203.484-1.572 1.066a2.116 2.116 0 0 0-.347 1.13c-.007.644 0 1.289 0 1.933 0 .023.004.045.007.069h4.654-.002Zm-2.964 4.945c0 .128-.004.257 0 .384a.632.632 0 0 0 .864.571.64.64 0 0 0 .403-.591c0-.248.003-.495-.001-.743 0-.072.02-.122.075-.173.328-.309.428-.685.296-1.114a1.035 1.035 0 0 0-.977-.728 1.053 1.053 0 0 0-1.013.667c-.168.416-.053.891.292 1.193a.152.152 0 0 1 .061.134c-.004.133 0 .267 0 .401v-.001Z" fill="#231815"/></g><path d="M64.5 451.85H260a4.5 4.5 0 0 1 4.5 4.5v24a4.5 4.5 0 0 1-4.5 4.5H64.5v-33Z" stroke="#231815"/><rect x=".5" y=".5" width="279" height="504.35" rx="4.5" stroke="#231815"/><defs><clipPath id="clip0_94_6219"><path fill="#fff" transform="translate(79.27)" d="M0 0h121.46v30.99H0z"/></clipPath><clipPath id="clip1_94_6219"><path fill="#fff" transform="translate(49 114.99)" d="M0 0h181.834v180H0z"/></clipPath><clipPath id="clip2_94_6219"><path fill="#fff" transform="translate(63.635 334.99)" d="M0 0h18.56v18.36H0z"/></clipPath><clipPath id="clip3_94_6219"><path fill="#fff" transform="translate(84.195 334.99)" d="M0 0h18.56v18.36H0z"/></clipPath><clipPath id="clip4_94_6219"><path fill="#fff" transform="translate(104.755 334.99)" d="M0 0h18.56v18.36H0z"/></clipPath><clipPath id="clip5_94_6219"><path fill="#fff" transform="translate(207.315 334.99)" d="M0 0h17.35v16.5H0z"/></clipPath><clipPath id="clip6_94_6219"><path fill="#fff" transform="translate(226.665 334.99)" d="M0 0h17.35v16.5H0z"/></clipPath><clipPath id="clip7_94_6219"><path fill="#fff" transform="translate(246.015 334.99)" d="M0 0h17.35v16.5H0z"/></clipPath><clipPath id="clip8_94_6219"><path fill="#fff" transform="translate(74 373.35)" d="M0 0h9.761v14H0z"/></clipPath><clipPath id="clip9_94_6219"><path fill="#fff" transform="translate(93.76 373.35)" d="M0 0h9.761v14H0z"/></clipPath><clipPath id="clip10_94_6219"><path fill="#fff" transform="translate(113.521 373.35)" d="M0 0h9.761v14H0z"/></clipPath><clipPath id="clip11_94_6219"><path fill="#fff" transform="translate(74 417.35)" d="M0 0h9.761v14H0z"/></clipPath><clipPath id="clip12_94_6219"><path fill="#fff" transform="translate(93.76 417.35)" d="M0 0h9.761v14H0z"/></clipPath><clipPath id="clip13_94_6219"><path fill="#fff" transform="translate(113.521 417.35)" d="M0 0h9.761v14H0z"/></clipPath><clipPath id="clip14_94_6219"><path fill="#fff" transform="translate(74 461.35)" d="M0 0h9.761v14H0z"/></clipPath><clipPath id="clip15_94_6219"><path fill="#fff" transform="translate(93.76 461.35)" d="M0 0h9.761v14H0z"/></clipPath><clipPath id="clip16_94_6219"><path fill="#fff" transform="translate(113.521 461.35)" d="M0 0h9.761v14H0z"/></clipPath></defs></svg>