<svg fill="none" xmlns="http://www.w3.org/2000/svg" viewBox="0 0 82 82"><circle cx="41" cy="41" r="40" fill="#E2CCAF" stroke="#231815"/><circle cx="41" cy="41" r="35" fill="#00698A" stroke="#231815"/><path fill="#E68169" stroke="#231815" stroke-width=".5" d="M26.25 24.25h9.5v9.5h-9.5zm19 0h9.5v9.5h-9.5zm-9.5 9.5h9.5v9.5h-9.5zm-9.5 9.5h9.5v9.5h-9.5zm19 0h9.5v9.5h-9.5z"/><path d="M24.16 64.168c-2.268 0-4.188-1.56-4.188-4.584 0-2.976 1.992-4.68 4.26-4.68 1.164 0 2.1.54 2.712 1.164l-1.128 1.368c-.444-.408-.912-.696-1.548-.696-1.152 0-2.1 1.032-2.1 2.772 0 1.776.816 2.808 2.076 2.808.708 0 1.284-.36 1.704-.816l1.128 1.344c-.756.876-1.752 1.32-2.916 1.32ZM28.384 64v-8.928h2.148V62.2H34V64h-5.616Zm10.328.168c-2.436 0-4.092-1.752-4.092-4.68s1.656-4.584 4.092-4.584 4.092 1.668 4.092 4.584c0 2.928-1.656 4.68-4.092 4.68Zm0-1.848c1.176 0 1.908-1.092 1.908-2.832 0-1.728-.732-2.748-1.908-2.748s-1.896 1.02-1.896 2.748c0 1.74.72 2.832 1.896 2.832Zm8.522 1.848c-1.164 0-2.412-.432-3.336-1.284l1.212-1.476c.636.54 1.464.912 2.172.912.792 0 1.164-.3 1.164-.78 0-.516-.492-.684-1.26-1.008l-1.14-.48c-.936-.372-1.812-1.152-1.812-2.448 0-1.5 1.344-2.7 3.24-2.7 1.032 0 2.124.396 2.904 1.176l-1.068 1.344c-.588-.444-1.14-.684-1.836-.684-.66 0-1.068.264-1.068.744 0 .492.564.684 1.356.996l1.116.444c1.104.444 1.764 1.188 1.764 2.448 0 1.488-1.248 2.796-3.408 2.796ZM52.126 64v-8.928h5.664v1.776h-3.516v1.656h2.988v1.8h-2.988V62.2h3.648V64h-5.796Z" fill="#231815"/></svg>