<svg fill="none" xmlns="http://www.w3.org/2000/svg" viewBox="0 0 200 200"><circle cx="100" cy="100" r="99.5" fill="#E2CCAF" stroke="#231815"/><circle cx="100" cy="100" r="87" fill="#00698A" stroke="#231815"/><g clip-path="url(#a)"><path d="M139.55 88.55s.15-.125.225-.2l.05-.05s.175-.125.25-.175l.375-.25c.225-.15.45-.3.675-.425.275-.15.575-.3.9-.45.3-.125.625-.225.95-.325.275-.075.575-.125.825-.175.15 0 .3-.05.45-.05h.525l.85.05c.075 0 .125 0 .175.025-2.175-5.975-5.8-11-10.075-13.8C130.05 69 121.6 67.5 114.7 69c-4.775 1.025-8.475 3.4-10.7 6.85 3.275 3.175 5.9 7.475 7.775 12.75v.2a.256.256 0 0 1-.15.125l-.4.15a.24.24 0 0 1-.325-.15c-3.3-9.35-9.025-15.475-16.55-17.725-2.075-.625-4.275-.925-6.55-.925-2.05 0-4.15.25-6.25.75-4.225 1.025-8.35 3.025-11.975 5.8-3.125 2.4-5.8 5.8-7.725 9.85-1.975 4.15-3.125 8.925-3.35 13.775-.525 12.15 4.675 23.85 14.625 32.925 8.75 7.975 18.625 12.6 25.4 15.05 6.725 2.45 11.8 3.325 12.6 3.475.8-.275 5.8-2.05 11.85-6.325 6.075-4.3 14.525-12.05 20.2-24.7 2.5-5.575 3.85-10.65 4.45-15.175a26.074 26.074 0 0 1-1.65 1.675c-.625.6-1.225 1.1-1.825 1.6-.25.2-.5.375-.725.575l-.375.275-.075.05c-.15.125-.3.15-.425.125-.075 0-.15-.025-.225-.05h-.05l-1.65-.4-.3-.075c-.15-.05-.3-.1-.4-.125-.925-.35-1.875-.75-2.8-1.225A27.81 27.81 0 0 1 135.15 107c-.45-.275-.9-.6-1.325-.9-.45-.325-.925-.725-1.4-1.125a14.606 14.606 0 0 1-1.925-2.025 13.573 13.573 0 0 1-1.15-1.7c-.25-.475-.5-.975-.75-1.575l-.15-.45-.35.05c0 .2-.05.4-.075.625-.075.575-.225 1.2-.425 1.9-.3 1.025-.75 2.075-1.35 3.15-.275.525-.575.975-.875 1.4-.225.325-.5.725-.775 1.1-.45.6-.95 1.2-1.5 1.825-.6.675-1.25 1.325-1.925 1.95-.625.6-1.225 1.1-1.825 1.6l-.675.525-.55.425s-.175.1-.3.1h-.1c-.1 0-.15-.05-.25-.05h-.05l-1.65-.4c-.275-.075-.5-.15-.7-.225-.9-.35-1.85-.75-2.775-1.225a27.81 27.81 0 0 1-1.975-1.125c-.45-.275-.9-.6-1.325-.9a27.59 27.59 0 0 1-1.4-1.125c-.725-.625-1.35-1.3-1.925-2.025a13.573 13.573 0 0 1-1.15-1.7c-.125-.225-.25-.525-.375-.775l-13.025 1.125H91.1s-.45.075-.7.35c-.275.35-.325.975-.125 1.825.075.275 0 .55-.125.8-.175.25-.45.45-.775.5h-.225c-.575 0-1.1-.375-1.225-.9-.375-1.525-.175-2.75.55-3.625.875-1.025 2.15-1.175 2.4-1.175l12.5-1.075s-.025-.125-.05-.2v-.15c-.1-.3-.15-.6-.175-.9v-.2s-.05-.25-.05-.375v-.225s0-.2-.025-.275V98.55s.05-.2.075-.325c0-.125.05-.25.075-.375v-.075s.075-.225.1-.35v-.075l.25.05-.225-.125h.25l-.225-.125.125-.4s0-.075.05-.1v-.1l.05-.075V96.4h.05l.075-.2s.1-.225.175-.35l.225-.4s.125-.2.175-.3c.1-.15.175-.25.225-.35l.1-.125.05-.05.975-1.05s.1-.1.175-.15c.075-.05.15-.125.225-.175l.125-.1s.1-.075.175-.125c.075-.05.15-.1.25-.15h.05s.15-.125.25-.175c.35-.2.7-.375 1.05-.5.25-.1.525-.2.85-.25h.1c.175-.05.325-.1.5-.125.375-.05.65-.075.925-.075h.925s.125.025.2.05l.3.05h.05c.05 0 .1 0 .15.025l1.75.425s.1 0 .125.05c.25.075.5.15.75.25 0 0 .15-.15.225-.2l.275-.225s.15-.125.225-.175l.35-.25c.225-.15.45-.3.675-.425.275-.15.575-.3.9-.45.3-.125.625-.225.95-.325.275-.075.575-.125.825-.175.15 0 .3-.05.45-.05h.525l.65.025c.1 0 .15 0 .225.025.1 0 .2.025.3.05h.15l.225.075 1.65.4h.025c.025 0 .05.025.075.05.575.15 1.125.35 1.65.675A6.47 6.47 0 0 1 126.9 93.6c.225.375.4.675.525 1 0 .05.05.15.075.225l.425-.075s.025-.2.05-.3c0-.125.05-.25.075-.375V94s.075-.25.1-.375v-.075h.25l-.25-.075v-.1l.05-.1v-.1l.075-.1.025-.1.125-.35c.025-.075.05-.125.075-.2.05-.125.1-.225.175-.35l.225-.4s.125-.2.175-.3c.1-.15.175-.25.225-.35l.6-.75.65-.625s.15-.125.225-.175l.275-.2.225-.15.25-.15c.4-.225.75-.4 1.1-.525.25-.1.525-.2.85-.25h.125c.175-.05.325-.1.525-.125.375-.05.65-.075.925-.075h.925s.125.025.2.05c.125 0 .225.025.3.05.05 0 .125 0 .175.025l1.65.4h.1v.05c.275.075.55.175.85.275.075-.075.15-.125.225-.2l.075-.1Zm-11.725 22.925c.2-.025.375.1.4.3l.375 2.6a2.177 2.177 0 0 0 2.475 1.85c.575-.075 1.075-.4 1.425-.85.35-.475.5-1.05.4-1.625l-.375-2.6c-.025-.2.1-.375.3-.4.2-.025.375.1.4.3l.375 2.6c.1.775-.075 1.525-.55 2.15a2.99 2.99 0 0 1-1.9 1.15c-.15 0-.275.025-.425.025a2.924 2.924 0 0 1-2.875-2.475l-.375-2.6c-.025-.2.1-.375.3-.4l.05-.025Z" fill="#E68169"/><path d="m147.875 105.475-.275.275c-.625 4.525-1.95 9.6-4.45 15.175-5.65 12.625-14.1 20.4-20.2 24.7-6.05 4.275-11.075 6.05-11.85 6.325-.8-.125-5.875-1-12.6-3.475-6.75-2.475-16.65-7.075-25.4-15.05-9.95-9.1-15.15-20.8-14.625-32.95.2-4.85 1.375-9.625 3.35-13.775 1.925-4.05 4.6-7.45 7.725-9.85 3.625-2.775 7.75-4.775 11.975-5.8 2.1-.5 4.2-.75 6.25-.75 2.275 0 4.475.3 6.55.925 7.525 2.25 13.25 8.375 16.55 17.725.05.125.175.2.325.15l.4-.15s.125-.075.15-.125c.025-.05.025-.125 0-.2-1.875-5.3-4.5-9.575-7.775-12.75 2.25-3.45 5.95-5.825 10.7-6.85 6.9-1.5 15.35 0 21.025 3.725 4.275 2.8 7.9 7.825 10.075 13.8h.275l.225.075.6.15c-2.2-6.425-6.075-11.85-10.65-14.825-5.85-3.85-14.6-5.4-21.725-3.875-4.95 1.075-8.825 3.525-11.2 7.125-2.55-2.275-5.45-3.925-8.7-4.9-4.1-1.225-8.7-1.275-13.3-.175-4.35 1.05-8.6 3.1-12.325 5.95-3.225 2.475-6 6-8 10.2-2.025 4.275-3.225 9.175-3.45 14.15-.525 12.425 4.775 24.4 14.95 33.675 8.85 8.075 18.875 12.75 25.725 15.25 7.1 2.6 12.3 3.425 12.875 3.525h.2c.225-.075 5.6-1.8 12.2-6.475 6.2-4.35 14.775-12.25 20.525-25.075 2.8-6.25 4.175-11.9 4.7-16.85-.275.325-.525.675-.825 1Z" fill="#231815"/><path d="M88.5 104.375c-.725.875-.925 2.075-.55 3.6.15.575.775.975 1.4.85.325-.05.6-.225.75-.475.15-.225.2-.5.125-.775-.2-.85-.175-1.5.125-1.85.25-.3.65-.375.725-.375h.025l13.025-1.125c-.125-.25-.25-.475-.375-.775-.1-.25-.175-.5-.25-.75l-.075-.225s-.05-.225-.1-.35l-12.5 1.075c-.25 0-1.525.15-2.375 1.175h.05Z" fill="#231815"/><path d="m104.175 104.2-13.025 1.125h-.025c-.075 0-.475.075-.725.375-.3.35-.325 1-.125 1.85.075.275 0 .55-.125.775-.175.25-.45.425-.75.475-.625.125-1.275-.275-1.4-.85-.375-1.525-.175-2.725.55-3.6.85-1.025 2.125-1.15 2.375-1.175l12.5-1.075v-.025l-12.5 1.075c-.25 0-1.55.15-2.4 1.175-.75.875-.925 2.1-.55 3.625.125.525.65.9 1.225.9h.225c.325-.05.625-.25.775-.5.15-.25.2-.525.125-.8-.2-.85-.175-1.475.125-1.825.225-.3.625-.35.7-.35h.025l13.025-1.125v-.025l-.025-.025Z" fill="#231815"/><path d="M143.2 87.6c-.275.075-.55.175-.8.275-.275.125-.55.25-.825.4-.2.1-.375.225-.575.375-.075.05-.125.1-.2.125l-.15.125s-.15.125-.2.175l-.05.05s-.1.075-.15.125c.15.075.3.15.45.25l.275-.275s.15-.125.225-.2c.05-.05.1-.1.175-.125l.025-.025.025-.025.05-.05s.15-.125.25-.175l.375-.25c.225-.15.45-.3.675-.425.2-.1.375-.2.6-.3-.05 0-.1.025-.15.05l-.025-.1Z" fill="#E2CCAF"/><path d="M146.3 86.625s-.15-.025-.225-.05h-.125s-.1-.05-.15-.05c-.05 0-.1 0-.175-.025l-.85-.05h-.525l-.45.075c-.275.05-.55.1-.825.175a4.747 4.747 0 0 0-.95.325 5.042 5.042 0 0 0-.9.45c-.225.125-.45.275-.675.425l-.375.25s-.125.1-.25.175l-.05.05s-.15.125-.225.2c-.075.075-.15.125-.225.2l.225.075c.225.1.45.25.675.375.05-.05.1-.075.15-.125l.05-.05s.15-.1.2-.175l.15-.125c.05-.05.1-.075.2-.125.2-.125.375-.25.575-.375.275-.15.525-.275.825-.4.275-.1.55-.2.8-.275.05 0 .1-.025.15-.05l-.6.3c.3-.15.575-.3.9-.45.3-.125.625-.225.95-.325.275-.075.575-.125.825-.175.15 0 .3-.05.45-.05.475-.05.95-.025 1.4.025.25.025.5.125.725.175-.025 0-.05-.05-.075-.05l-1.05-.25-.6-.15.05.05Z" fill="#231815"/><path d="m140.975 89.175-.275.275c.225-.225.45-.425.675-.6-.05.05-.1.1-.175.125-.075.075-.15.125-.225.2Zm.5-.45-.05.05-.025.025c.225-.175.45-.35.7-.525l-.375.25s-.15.125-.25.175v.025Z" fill="#231815"/><path d="M133.75 88.975c-.25.05-.5.15-.725.225-.3.125-.6.25-.9.425l-.275.175-.225.15-.25.175s-.125.1-.2.15c-.05.025-.075.075-.125.1l-.725.75-.275-.075.2.15-.2.275s-.125.175-.175.275c-.075.125-.15.225-.2.3l-.2.375-.15.3-.075.175-.05.15h-.25l.225.075v.075l-.05.05-.15.525v.05c0 .05-.025.175-.05.275v.075s-.05.225-.075.325c0 .1-.025.175-.025.275v.325s-.05.05-.05.075l.75-.125c0-.075 0-.175.025-.25v-.05c0-.125.05-.25.075-.375V94.3s.075-.25.1-.375v-.1h.1v-.075h-.075l.1-.325.05-.1.05-.15.05-.1.05-.15s.05-.15.1-.225c.05-.1.1-.225.15-.35l.05-.075s.1-.2.15-.275v-.05l.225-.3c.1-.15.175-.25.225-.35l.05-.075.05-.075.975-1.05.15-.125s.175-.125.25-.2l.05-.05.225-.15.225-.15.05-.05.225-.15c.175-.1.325-.2.5-.275h-.075l.125.025Z" fill="#E2CCAF"/><path d="m128.675 93.175-.2.025.175.05.025-.075Zm.1-.075h-.25l.175.05h.25l-.175-.05Z" fill="#231815"/><path d="M136.525 88s-.175-.025-.3-.05c-.075 0-.125 0-.2-.025h-.075s-.175-.025-.25-.025h-.6c-.25 0-.525.025-.925.075-.175.025-.35.075-.525.1h-.125c-.3.1-.6.2-.85.275-.35.125-.7.3-1.1.525l-.25.15-.225.15-.275.2s-.15.125-.225.175l-.65.625-.6.75s-.15.2-.225.35c-.075.1-.125.2-.175.3l-.225.4s-.125.225-.175.35c-.025.075-.05.125-.075.2l-.125.35-.025.1-.025.1v.1l-.075.1v.1l.2.075h-.25v.075l-.075.375v.075c-.05.125-.075.25-.075.375 0 .1-.025.2-.05.3l-.425.075c.075.175.15.375.225.625l1.075-.175v-.4s.05-.175.075-.275c0-.1.05-.225.05-.325V94.1s.05-.225.075-.275v-.05l.15-.525v-.05l.05-.075-.225-.1h.25l.05-.15.075-.175.15-.3.2-.375s.1-.175.2-.3c.05-.1.125-.175.175-.275l.2-.275-.2-.15.275.075.725-.75s.075-.075.125-.1c.075-.05.125-.1.2-.15l.25-.175.225-.15.275-.175c.275-.175.6-.325.9-.425.225-.075.475-.175.725-.225h.075c-.175.075-.35.15-.5.25.35-.2.675-.375 1.05-.5.25-.1.55-.2.85-.25h.125c.175-.075.35-.1.5-.125.375-.05.675-.075.925-.075.5 0 1.025.025 1.6.175l-1.65-.4s-.1 0-.175-.025h-.1Zm-8.025 5.2h.2v.05l-.175-.05h-.025Zm.2-.05-.175-.05h.275l.175.05h-.275Z" fill="#231815"/><path d="M138.35 88.45s.075.025.125.05h-.1l-.025-.05Zm-5.325.975-.225.15-.225.15-.05.05s-.15.125-.25.2l-.15.125-.975 1.05-.05.075-.05.075c-.075.1-.15.2-.225.35-.075.1-.125.2-.175.3V92s-.125.15-.175.275l-.05.075s-.125.225-.15.35c.2-.475.475-.95.8-1.4.35-.5.775-.975 1.275-1.375.3-.25.65-.5 1.05-.725l-.225.15-.05.05-.1.025ZM129.55 95.1l-.75.125.75-.125Zm.225-1.125-.075.375v.075c-.05.125-.075.25-.075.375v.05-.05c.05-.325.175-.6.275-.925h-.075l-.025.1h-.025Zm.275-.85-.05.1-.05.15-.05.1-.1.3h.075c.1-.325.15-.7.3-1.025-.025.075-.075.15-.1.225l-.05.15h.025Z" fill="#231815"/><path d="M130.15 100.775c.3.525.65 1.05 1.075 1.6.35.45.75.9 1.2 1.325-.1-.125-.2-.225-.275-.35a13.573 13.573 0 0 1-1.15-1.7c-.275-.475-.525-1-.75-1.575-.1-.25-.175-.5-.25-.725l-.075-.225s0-.075-.025-.1l-.5.075.075.225c.225.55.45 1.05.7 1.475l-.025-.025Z" fill="#E2CCAF"/><path d="M129.35 101.225c.325.575.7 1.125 1.15 1.7.55.7 1.2 1.375 1.925 2.025.475.425.95.8 1.4 1.125.425.325.875.625 1.325.9.6.375 1.25.75 1.975 1.125.925.475 1.85.875 2.8 1.225.1.05.25.075.4.125l.3.075 1.65.4h.05a7.73 7.73 0 0 1-.775-.225c-.9-.35-1.85-.75-2.775-1.225a27.81 27.81 0 0 1-1.975-1.125c-.45-.3-.9-.6-1.325-.9-.45-.325-.925-.725-1.4-1.125-.725-.625-1.35-1.325-1.925-2.025.1.125.175.225.275.35a14.73 14.73 0 0 1-1.2-1.325 10.541 10.541 0 0 1-1.075-1.6c-.25-.425-.475-.925-.7-1.475l-.075-.225-.925.15.15.45c.25.6.5 1.125.75 1.575v.025Z" fill="#231815"/><path d="M118.4 91.4c-.275.075-.55.15-.825.275-.3.125-.55.25-.825.4-.2.1-.4.25-.6.375l-.625.45s-.1.075-.15.125c.15.075.3.15.425.25l.05-.05s.15-.125.225-.2l.05-.05s.15-.125.225-.2c.075-.05.15-.125.225-.175l.05-.05s.15-.125.25-.175l.375-.25c.225-.15.45-.3.675-.425l.6-.3c-.05 0-.1.025-.15.05l.025-.05Z" fill="#E2CCAF"/><path d="M119.725 90.675h.05l-.05-.175v.175Z" fill="#231815"/><path d="m123.15 90.825-1.65-.4s-.15-.025-.225-.05h-.15l-.3-.075c-.05 0-.125 0-.225-.025h-.65l-.175-.025h-.35c-.15 0-.3.025-.45.05-.275.05-.55.1-.825.175-.325.075-.625.2-.95.325a5.042 5.042 0 0 0-.9.45c-.225.125-.45.275-.675.425l-.35.25c-.075.05-.15.125-.225.175l-.275.225s-.15.125-.225.2l.225.075c.225.1.45.25.675.375.05-.05.1-.075.15-.125l.625-.45c.2-.125.4-.275.6-.375.25-.15.525-.275.825-.4.275-.125.55-.2.825-.275.05 0 .1-.025.15-.05l-.6.3c.3-.175.6-.3.9-.45.3-.125.625-.225.95-.325.275-.075.575-.125.825-.175.15 0 .3-.05.45-.05.475-.05.95-.025 1.4.025.25.025.5.125.75.175 0 0-.025-.05-.075-.05h-.025l-.05.075Zm-3.425-.325.075.175h-.05V90.5h-.025Z" fill="#231815"/><path d="m116.7 92.525-.05.05s-.15.125-.225.175c-.075.075-.15.125-.225.2l-.05.05s-.15.125-.225.2l-.05.05s.125.075.175.1l.05.025-.175-.175c.45-.45.925-.8 1.4-1.125l-.375.25s-.15.125-.25.175v.025Z" fill="#231815"/><path d="M108.975 92.775c-.25.05-.5.15-.725.225-.3.1-.6.25-.9.425-.075.05-.15.1-.225.125h-.05s-.125.125-.225.175l-.25.175s-.125.1-.2.15l-.55.525-.25-.075.175.175-.475.6s-.125.175-.175.275c-.075.1-.125.2-.175.275l-.175.3-.25-.05.225.1-.15.3-.075.175-.225.675h-.275l.25.1v.1l-.05.05c0 .05-.025.175-.05.275v.075s-.05.225-.075.325c0 .1-.025.175-.05.275v.15s-.025.125-.025.2v1.275c0 .125 0 .225.025.325v.175c.075.275.1.575.175.85v.125c.075.175.1.35.15.525l.075.225c.075.25.15.475.225.675.225.575.45 1.05.7 1.475.3.525.65 1.05 1.075 1.6.375.475.775.9 1.2 1.325-.1-.125-.2-.225-.275-.35a13.573 13.573 0 0 1-1.15-1.7c-.25-.45-.5-.975-.75-1.575-.1-.25-.175-.5-.25-.75l-.075-.225-.15-.6v-.125c-.1-.3-.15-.625-.175-.925v-.175c-.05-.15-.05-.275-.05-.4v-.2s0-.225-.025-.325v-.875c0-.1 0-.2.025-.3v-.075s.025-.2.05-.325c0-.125.05-.25.075-.375v-.075c.05-.125.075-.25.1-.375h.075v-.1H105l.025-.1.075-.225.025-.1h.075v-.15h-.05l.125-.35a.888.888 0 0 1 .1-.225c.05-.1.1-.225.15-.35l.05-.075h.025s0-.025.025-.05h-.025s.075-.15.125-.225v-.05l.225-.3c.1-.15.175-.25.225-.35l1.1-1.225.175-.15s.15-.125.225-.175l.05-.05s.15-.125.225-.175l.3-.2.225-.15c.175-.1.325-.2.5-.275h-.075l.075.125Z" fill="#E2CCAF"/><path d="m103.775 97.35.025-.075-.2.025.175.05Zm.325-.75v.025l-.275-.025.175.075.275-.025-.175-.05Z" fill="#231815"/><path d="M111.9 91.825s-.075 0-.15-.025h-.05l-.3-.05s-.125 0-.2-.025h-.075s-.175-.025-.25-.025h-.6c-.25 0-.525.025-.925.075-.175.025-.35.075-.5.1h-.1c-.3.1-.6.2-.85.275-.35.125-.7.3-1.05.5-.075.05-.15.1-.25.15h-.05s-.15.15-.25.2c-.075.05-.125.075-.175.125l-.125.1s-.15.125-.225.175c-.05.05-.1.1-.175.15l-.975 1.05-.05.05-.1.125s-.15.2-.225.35c-.05.1-.125.2-.175.3l-.225.4-.175.35-.075.2v.075l-.05.075v.1s-.05.075-.075.1l-.125.4.225.125h-.25l.225.1-.25-.05v.075c-.025.125-.05.25-.075.35v.075s-.075.25-.075.375c0 .1-.025.2-.05.325v.175s-.025.15-.05.225v1.375s.025.25.05.375v.2c.075.3.1.6.175.9v.15s.075.125.075.2v.025c.025.125.05.225.1.35l.075.225c.075.25.15.5.25.75.125.3.25.525.375.775v.025c.125.25.25.55.375.775.325.575.7 1.125 1.15 1.7.55.7 1.2 1.4 1.925 2.025.45.4.925.775 1.4 1.125.425.325.875.625 1.325.9.6.375 1.25.75 1.975 1.125.925.475 1.85.875 2.775 1.225.2.075.425.15.7.225l1.65.4h.05a31.13 31.13 0 0 1-.775-.225c-.925-.35-1.85-.75-2.775-1.225a27.81 27.81 0 0 1-1.975-1.125c-.45-.3-.9-.6-1.325-.9-.45-.325-.925-.7-1.4-1.125-.725-.625-1.35-1.325-1.925-2.025.1.125.175.225.275.35a19.793 19.793 0 0 1-1.2-1.325c-.425-.55-.775-1.05-1.075-1.6-.25-.425-.475-.9-.7-1.475-.075-.2-.15-.425-.225-.675l-.075-.225c-.05-.175-.1-.325-.125-.525v-.125c-.1-.275-.125-.55-.175-.85v-.175s-.05-.2-.05-.325V98.55s.05-.2.05-.275c0-.1.05-.225.05-.325v-.075s.05-.225.075-.275v-.15l-.2-.075h.275l.225-.7.075-.175.15-.3-.225-.1.25.05.175-.3s.1-.175.175-.275c.05-.1.125-.175.175-.275l.475-.6-.175-.175.25.075.55-.525s.125-.1.2-.15l.25-.175.225-.15h.05s.15-.125.225-.175a3.72 3.72 0 0 1 .9-.425c.225-.075.475-.175.725-.225h.075c-.175.075-.35.15-.5.25a5.07 5.07 0 0 1 1.05-.5c.25-.1.525-.2.85-.25h.125c.175-.05.325-.1.5-.125.375-.05.65-.075.925-.075.5 0 1.025.025 1.6.175.075 0 .15.05.225.075a.191.191 0 0 0-.125-.05l-1.75-.425.05-.025Zm-8.1 5.45v.075l-.2-.05h.2v-.025Zm.475-.625H104l-.175-.05h.25l.175.075.025-.025Z" fill="#231815"/><path d="M104.75 98.975s0 .175-.025.3v.75c0-.45 0-.925.1-1.425 0 .1-.025.2-.05.325V99l-.025-.025Zm3.25-5.6s-.125.1-.225.175l-.05.05s-.15.125-.225.175c.3-.25.65-.5 1.05-.725l-.225.15-.3.2-.025-.025Zm-2.825 3.725h.05c.075-.175.075-.35.15-.525-.025.075-.075.15-.1.225l-.125.325.025-.025Zm.025.1.025-.025h-.075l.05.025Zm-.1.175-.075.225s0 .1-.025.1h.075s.075-.275.125-.4h-.075l-.025.1v-.025Zm.45-1.175s-.125.225-.15.35c.05-.15.175-.275.225-.4h-.025l-.05.075V96.2Zm-.675 1.95v.075c-.05.125-.075.25-.075.375.05-.275.175-.55.25-.825h-.075l-.075.375h-.025Zm1.325-3s-.15.2-.225.35c-.075.1-.125.2-.175.3v.05s-.1.15-.15.2h.025c.175-.3.325-.625.525-.925.375-.5.8-.975 1.275-1.375l-.175.15-1.1 1.225v.025Z" fill="#231815"/><path d="M151.5 97.7c.2-.65.325-1.225.4-1.75.075-.55.1-1 .1-1.425 0-.25 0-.5-.025-.8v-.15s-.025-.125-.05-.175c-.025-.325-.1-.675-.2-1.1-.1-.45-.275-.875-.425-1.225-.1-.275-.25-.55-.475-.85-.45-.7-1-1.275-1.675-1.675a5.325 5.325 0 0 0-2.025-.725c-.4-.05-.8-.075-1.2-.025-.125 0-.25.025-.375.05-.225.025-.475.1-.725.15-.275.075-.55.175-.8.275-.275.125-.55.25-.825.4-.2.1-.375.225-.575.375-.45.3-.875.65-1.3 1.05-.125.125-.25.225-.375.325-.175.125-.375.1-.55 0a7.52 7.52 0 0 0-1.225-.725 5.75 5.75 0 0 0-1.05-.35c-.475-.1-.925-.175-1.35-.15-.225 0-.5 0-.825.075-.125 0-.275.05-.4.075h-.15c-.25.075-.5.175-.725.25-.3.125-.6.25-.9.425-.35.2-.65.425-.925.65-.425.35-.8.75-1.1 1.2-.3.4-.525.825-.7 1.225a7.447 7.447 0 0 0-.525 1.8l-.075.6c0 .225-.175.4-.4.425l-2.6.4c-.225.05-.475-.125-.525-.35-.1-.425-.25-.825-.4-1.125-.1-.275-.25-.55-.475-.85-.45-.7-1-1.275-1.675-1.675a5.325 5.325 0 0 0-2.025-.725c-.4-.05-.775-.075-1.2-.025-.125 0-.25.025-.375.05-.225.025-.475.1-.725.15-.275.075-.55.175-.8.275-.3.125-.575.25-.825.4-.2.1-.4.25-.6.375-.45.3-.85.625-1.3 1.05-.125.125-.25.225-.375.325-.175.125-.375.1-.55 0a7.52 7.52 0 0 0-1.225-.725 5.75 5.75 0 0 0-1.05-.35c-.425-.1-.8-.15-1.175-.15h-.175c-.225 0-.5 0-.825.075-.15 0-.3.05-.45.1h-.125c-.25.075-.5.175-.725.25-.3.125-.6.25-.9.425-.35.2-.65.425-.925.65-.425.35-.8.75-1.1 1.2-.3.4-.525.825-.7 1.225a7.447 7.447 0 0 0-.525 1.8c-.075.45-.1.875-.1 1.25v.625c0 .1 0 .225.025.325v.175c.075.275.1.575.175.85v.125c.075.2.1.35.15.525l.075.225.225.675c.225.575.45 1.05.7 1.475.3.525.65 1.05 1.075 1.6.525.675 1.125 1.3 1.8 1.9.45.4.875.75 1.325 1.075.4.3.825.6 1.275.875.6.375 1.225.725 1.9 1.1.9.45 1.8.85 2.675 1.175.225.075.425.15.65.2l.3-.25c.25-.2.475-.375.725-.575a43.58 43.58 0 0 0 1.775-1.55c.65-.6 1.275-1.25 1.85-1.9a22.363 22.363 0 0 0 1.45-1.75c.275-.375.55-.75.775-1.075.275-.4.55-.825.825-1.325.575-1.025 1-2 1.275-2.975.2-.65.325-1.225.4-1.75.05-.325.075-.625.1-.925 0-.225.175-.4.4-.425l2.575-.4h.075c.225 0 .4.15.45.375.025.15.075.3.1.45l.075.2c.075.25.15.475.225.7.225.55.45 1.05.7 1.475.3.525.65 1.05 1.075 1.6.525.65 1.125 1.3 1.8 1.9.45.4.9.75 1.325 1.075.425.3.85.6 1.275.875.575.375 1.2.725 1.9 1.1.9.45 1.8.85 2.675 1.175.225.075.4.15.65.2l.3-.25c.25-.175.475-.375.725-.575.575-.45 1.15-.95 1.775-1.55.65-.625 1.275-1.25 1.85-1.9.525-.575 1-1.15 1.45-1.75.25-.325.475-.675.75-1.075.275-.4.55-.85.825-1.325.575-1.025 1-2 1.275-2.975h.125Zm-25.3 1.925c-.075.5-.175 1-.375 1.625-.275.9-.675 1.825-1.2 2.8-.275.475-.525.9-.775 1.275-.225.325-.475.7-.75 1.05-.425.575-.9 1.125-1.4 1.675a41.699 41.699 0 0 1-1.8 1.85c-.575.55-1.15 1.05-1.725 1.5-.125.1-.225.2-.35.275l-.2.15s-.1.05-.15.05h-.1l-.225-.1c-.775-.3-1.575-.65-2.375-1.05-.675-.35-1.275-.7-1.85-1.05-.425-.275-.825-.55-1.225-.825-.425-.3-.85-.65-1.275-1.025a18.731 18.731 0 0 1-1.7-1.775c-.4-.5-.725-1-1-1.475-.225-.4-.425-.85-.65-1.375a4.22 4.22 0 0 1-.2-.6l-.075-.225s-.075-.275-.1-.45v-.125a3.551 3.551 0 0 1-.15-.775v-.175s-.05-.15-.05-.2v-.3s-.025-.125-.025-.175v-.15c0-.35 0-.7.075-1.1.075-.55.25-1.075.475-1.6.15-.375.375-.725.625-1.075.275-.4.6-.725.95-1.05.225-.2.5-.375.8-.575.25-.15.5-.275.725-.35.2-.075.4-.15.6-.2l.2-.05s.2-.05.3-.05c.3-.05.525-.05.75-.05h.125c.175 0 .375 0 .575.05.125 0 .25.05.4.075.275.075.575.175.875.3.375.175.725.375 1.05.625.175.125.4.225.625.25.35.05.7-.025.975-.225.2-.15.35-.275.475-.4.4-.4.775-.7 1.175-.95l.05-.05c.175-.125.35-.225.5-.3.225-.125.45-.25.725-.35.225-.1.45-.175.675-.225.225-.05.45-.1.65-.125.125 0 .225-.025.325-.05.35-.025.65 0 1 0h.075c.575.1 1.1.275 1.6.6.55.35 1.025.8 1.4 1.4.175.275.3.5.4.725.55 1.325.725 2.775.5 4.4l.05-.05Zm18.5 6.45c-.575.55-1.15 1.05-1.7 1.5l-.55.425s-.1.05-.15.05h-.1l-.225-.1c-.775-.3-1.575-.65-2.35-1.05-.675-.35-1.275-.7-1.85-1.05-.425-.25-.825-.55-1.225-.825-.425-.3-.85-.65-1.25-1.025-.65-.575-1.2-1.175-1.7-1.775-.4-.5-.725-.975-1-1.475-.225-.4-.425-.825-.65-1.375-.825-2.05-.85-4.075-.075-5.85.15-.375.375-.725.625-1.075a5.26 5.26 0 0 1 .95-1.025c.225-.2.5-.375.825-.575.225-.15.475-.25.725-.35.2-.075.425-.15.6-.2h.125c.125-.05.25-.075.35-.1.3-.05.525-.05.75-.05h.125c.175 0 .375 0 .575.05.125 0 .25.05.4.075.3.075.575.175.875.3.375.15.725.375 1.05.625.175.125.4.225.625.25.325.05.7-.025.975-.225.2-.15.35-.275.475-.4.4-.4.775-.7 1.175-.95.225-.15.4-.25.55-.35.225-.125.475-.25.725-.35.225-.1.45-.175.675-.225.225-.05.45-.1.65-.125.1 0 .225-.025.325-.05.325-.025.675 0 1 0h.075c.575.1 1.1.3 1.6.6.55.35 1 .8 1.4 1.4.175.275.3.5.4.725.125.325.275.7.375 1.075.1.4.15.725.175 1v.3c0 .3.025.525.025.75 0 .375-.025.775-.1 1.3-.075.5-.175 1-.375 1.625-.275.9-.675 1.825-1.2 2.8-.25.475-.525.875-.775 1.25-.275.4-.5.725-.75 1.05-.425.575-.9 1.125-1.4 1.675-.55.625-1.175 1.25-1.8 1.85l.025-.1Z" fill="#FF002A"/><path d="m142.775 109.525-.025.025h-.025l.175.125-.125-.15Z" fill="#231815"/><path d="M152.9 93.7v-.3s-.025-.05-.05-.075c-.05-.35-.1-.725-.2-1.2-.125-.525-.3-1-.475-1.375-.125-.325-.3-.625-.525-1a6.208 6.208 0 0 0-1.975-1.975c-.525-.325-1.075-.525-1.65-.675-.25-.075-.475-.15-.725-.175a6.525 6.525 0 0 0-1.4-.025c-.15 0-.3.025-.45.05-.275.05-.55.1-.825.175-.325.075-.625.2-.95.325a5.042 5.042 0 0 0-.9.45c-.225.125-.45.275-.675.425-.225.15-.475.325-.7.525l-.025.025c-.225.175-.45.375-.675.6l-.45-.225c-.225-.125-.45-.275-.675-.375l-.225-.075c-.275-.1-.55-.2-.85-.275-.05 0-.075-.025-.125-.05a7.283 7.283 0 0 0-1.6-.175c-.25 0-.525.025-.925.075-.175.025-.35.05-.5.1h-.125c-.3.1-.6.2-.85.275-.35.125-.7.3-1.05.5-.4.225-.725.475-1.05.725-.475.4-.9.875-1.275 1.375-.325.45-.6.925-.8 1.4-.15.325-.2.7-.3 1.05v.075c-.075.3-.225.6-.275.925v.05c0 .075-.025.175-.025.25l-.75.125-1.075.175c-.075-.25-.15-.45-.225-.625-.025-.075-.05-.175-.075-.225-.125-.325-.3-.65-.525-1a6.208 6.208 0 0 0-1.975-1.975c-.525-.325-1.075-.525-1.65-.675-.25-.075-.5-.15-.75-.175a6.525 6.525 0 0 0-1.4-.025c-.15 0-.3.025-.45.05-.275.05-.55.1-.825.175-.325.075-.625.2-.95.325a5.042 5.042 0 0 0-.9.45c-.225.125-.45.275-.675.425-.475.325-.95.7-1.4 1.125l.175.175h-.05V93.4c-.05-.05-.125-.075-.175-.1-.15-.1-.3-.175-.425-.25-.225-.125-.425-.275-.675-.375l-.225-.075c-.25-.1-.5-.175-.75-.25-.075 0-.15-.05-.225-.075a7.447 7.447 0 0 0-1.6-.175c-.25 0-.525.025-.925.075-.175.025-.35.075-.5.1h-.125c-.3.1-.6.2-.85.275-.35.125-.7.3-1.05.5-.4.225-.725.475-1.05.725-.475.4-.9.85-1.275 1.375-.225.3-.375.625-.525.925 0 0 0 .025-.025.05-.075.15-.175.275-.225.4-.075.175-.1.375-.15.55v.15c-.05.15-.075.275-.125.425v.075c-.075.275-.2.55-.25.825-.075.5-.125.975-.1 1.425v.65c0 .125.025.275.05.4v.175c.075.3.1.6.175.925v.125c.075.2.125.4.175.6l.075.225c.075.25.15.5.25.75.25.6.5 1.125.75 1.575.325.575.7 1.125 1.15 1.7.55.7 1.2 1.4 1.925 2.025.475.425.95.8 1.4 1.125.425.3.875.625 1.325.9.625.4 1.275.75 1.975 1.125.925.475 1.85.875 2.775 1.225.25.1.475.175.775.225.075 0 .15.05.25.05h.1c.1 0 .2-.025.3-.1l.55-.425.675-.525c.6-.475 1.2-1 1.825-1.6.65-.625 1.3-1.275 1.925-1.95.55-.6 1.05-1.225 1.5-1.825.275-.375.55-.775.775-1.1.3-.425.575-.9.875-1.4.6-1.1 1.05-2.125 1.35-3.15.2-.7.35-1.325.425-1.9.025-.225.05-.425.075-.625l.35-.05.925-.15.5-.075s0 .075.025.1l.075.225c.075.25.15.5.25.725.25.6.475 1.125.75 1.575.325.575.7 1.125 1.15 1.7.55.7 1.2 1.4 1.925 2.025.475.425.95.8 1.4 1.125.425.3.875.6 1.325.9.6.375 1.25.75 1.975 1.125.925.475 1.85.875 2.775 1.225.2.075.475.15.775.225.075 0 .15.05.225.05.125.025.275 0 .425-.125l.075-.05.375-.275c.25-.2.5-.375.725-.575.6-.475 1.2-1 1.825-1.6.575-.525 1.125-1.1 1.65-1.675.075-.1.175-.175.275-.275.3-.325.55-.675.825-1 .225-.275.475-.55.675-.8.275-.375.55-.75.775-1.1.3-.425.575-.875.875-1.4.6-1.1 1.05-2.125 1.35-3.15.2-.7.35-1.325.425-1.9.075-.575.1-1.075.1-1.55 0-.275 0-.525-.025-.85l-.15.125Zm-3.5 8.325c-.275.4-.525.75-.75 1.075-.45.575-.925 1.175-1.45 1.75-.575.65-1.2 1.275-1.85 1.9a43.58 43.58 0 0 1-1.775 1.55c-.225.2-.475.375-.725.575l-.3.25c-.25-.05-.45-.125-.65-.2a27.267 27.267 0 0 1-2.675-1.175c-.7-.35-1.325-.725-1.9-1.1-.425-.275-.85-.575-1.275-.875a22.826 22.826 0 0 1-1.325-1.075c-.675-.6-1.275-1.25-1.8-1.9-.425-.55-.775-1.05-1.075-1.6-.25-.425-.475-.925-.7-1.475-.1-.225-.15-.45-.225-.7l-.075-.2c-.05-.15-.075-.3-.1-.45a.455.455 0 0 0-.45-.375h-.075l-2.575.4c-.225.025-.375.225-.4.425 0 .3-.05.6-.1.925a11.4 11.4 0 0 1-.4 1.75c-.3.975-.725 1.95-1.275 2.975-.275.5-.55.925-.825 1.325-.225.325-.5.7-.775 1.075a22.363 22.363 0 0 1-1.45 1.75c-.6.65-1.225 1.3-1.85 1.9-.6.575-1.2 1.075-1.775 1.55-.25.2-.475.375-.725.575l-.3.25c-.25-.05-.45-.125-.65-.2a27.267 27.267 0 0 1-2.675-1.175c-.7-.35-1.325-.7-1.9-1.1-.45-.275-.875-.575-1.275-.875-.45-.325-.875-.675-1.325-1.075-.675-.6-1.275-1.25-1.8-1.9a10.541 10.541 0 0 1-1.075-1.6c-.25-.425-.475-.9-.7-1.475-.1-.225-.15-.45-.225-.675l-.075-.225c-.05-.15-.075-.3-.125-.525v-.125c-.1-.275-.125-.55-.175-.85v-.175s-.05-.2-.05-.325v-.625c0-.4 0-.8.075-1.25.1-.625.275-1.25.525-1.8.175-.425.425-.825.7-1.225.325-.45.7-.85 1.1-1.2.275-.225.575-.45.925-.65a3.72 3.72 0 0 1 .9-.425c.225-.075.475-.175.725-.225h.125c.15-.05.3-.1.45-.125.325-.05.6-.05.825-.075h.175c.375 0 .75.05 1.175.15.35.075.7.2 1.05.35.425.2.85.425 1.225.725.15.125.375.125.55 0 .15-.1.25-.2.375-.325.425-.4.85-.75 1.3-1.05.2-.125.4-.275.6-.375.25-.15.525-.275.825-.4.275-.1.55-.2.8-.275.25-.075.5-.125.725-.15.125 0 .25-.025.375-.05.4-.05.8-.025 1.2.025.725.1 1.4.35 2.025.725a5.356 5.356 0 0 1 1.675 1.675c.2.325.35.6.475.85.125.3.275.7.4 1.125.05.225.3.4.525.35l2.6-.4c.225-.025.375-.2.4-.425 0-.2.05-.4.075-.6.1-.625.275-1.225.525-1.8.175-.425.425-.825.7-1.225.325-.45.7-.85 1.1-1.2.275-.225.575-.45.925-.65.275-.175.6-.325.9-.425.225-.075.475-.175.725-.225h.15c.15-.05.275-.1.4-.125.325-.05.6-.05.825-.075.425 0 .85.025 1.35.15.35.075.7.2 1.05.35.45.2.85.425 1.225.725.15.125.375.125.55 0 .15-.1.25-.2.375-.325.425-.4.85-.75 1.3-1.05.2-.125.375-.25.575-.375.275-.15.525-.275.825-.4.275-.1.55-.2.8-.275.25-.075.5-.125.725-.15.125 0 .25-.025.375-.05.4-.05.8-.025 1.2.025.725.1 1.4.35 2.025.725a5.356 5.356 0 0 1 1.675 1.675c.2.325.35.6.475.85.15.35.3.775.425 1.225.1.425.15.775.2 1.1 0 .05 0 .075.025.175v.15c.025.3.05.55.05.8 0 .425-.025.875-.1 1.425a11.4 11.4 0 0 1-.4 1.75c-.3.975-.725 1.95-1.275 2.975-.275.5-.55.925-.825 1.325l-.1.025Zm-22-6.125h.05-.05Zm15.325 13.65h.025l.1.125-.15-.1.025-.025Z" fill="#231815"/><path d="M122.6 104.3c-.625-.425-1.425-.6-2.275-.75h-.1c-.85-.175-1.725-.35-2.525-.8-.975-.575-1.8-1.55-2.475-3-.2-.425-.375-.85-.55-1.275-.275-.7-.575-1.4-.925-2.025-.4-.675-.85-1.175-1.375-1.55h-.325c-.2 0-.375 0-.625.05a1.29 1.29 0 0 0-.275.05H111c-.125.075-.3.125-.475.2-.2.075-.4.175-.575.275-.025 0-.05.05-.075.05.275.1.525.2.75.325a9.036 9.036 0 0 1 3.4 3.525c.225.45.425.925.625 1.375.425 1.025.825 1.975 1.575 2.625.7.625 1.675.9 2.6 1.125l.525.125c.85.2 1.725.4 2.525.8.025 0 .275.15.55.325.225-.325.45-.65.675-.95a2.974 2.974 0 0 0-.5-.475v-.025Zm-3.325 2.525c-.625-.425-1.425-.6-2.275-.75h-.1c-.8-.175-1.725-.35-2.5-.8-.975-.575-1.8-1.55-2.475-3-.2-.4-.375-.825-.525-1.25-.275-.675-.575-1.425-.95-2.075-.575-1-1.325-1.65-2.1-1.975-.15.225-.3.45-.4.675-.2.425-.325.875-.4 1.35-.05.35-.075.65-.075.925v.9c.05.25.1.5.15.7v.15c.05.125.1.275.125.35l.075.225c.05.2.125.375.175.525.2.5.4.9.6 1.25.25.45.55.9.925 1.35.45.575 1 1.15 1.575 1.675.4.35.8.675 1.2.975.375.275.775.55 1.175.8.55.35 1.125.675 1.775 1 .725.375 1.425.7 2.15.975l.225-.175a26.38 26.38 0 0 0 1.65-1.45c.325-.3.6-.625.925-.925-.05-.575-.475-1.125-.925-1.425Zm-1.325-8.65c.425 1.025.825 1.975 1.575 2.625.7.625 1.675.9 2.6 1.125.175.05.35.075.525.125a14.39 14.39 0 0 1 1.7.475c.25-.525.45-1.05.6-1.55.175-.55.275-1.025.325-1.475.2-1.45.05-2.725-.45-3.9a3.552 3.552 0 0 0-.325-.575c-.3-.475-.65-.825-1.1-1.1-.4-.25-.8-.4-1.25-.45-.35-.05-.575-.05-.85 0-.1 0-.175 0-.275.025a4.354 4.354 0 0 0-.55.125c-.175.05-.375.1-.55.2-.225.1-.45.2-.625.3-.125.075-.3.175-.45.3-.375.25-.7.525-1.05.85-.15.15-.35.325-.6.5-.125.1-.275.125-.425.175.2.275.375.575.55.875.25.45.45.95.625 1.375v-.025Z" fill="#333434"/><path d="M118.55 93.975s.025 0 .05-.025l-.15-.125.1.15Z" fill="#231815"/><path d="M125.7 95.25c-.1-.225-.225-.45-.4-.725a4.165 4.165 0 0 0-1.4-1.4c-.5-.3-1.025-.5-1.6-.6h-.075a3.35 3.35 0 0 0-1 0c-.1 0-.225 0-.325.05a7.36 7.36 0 0 0-.65.125c-.225.05-.45.125-.675.225-.275.1-.5.225-.725.35-.15.075-.325.2-.5.3l-.05.05c-.375.25-.775.575-1.175.95-.125.1-.275.25-.475.4-.275.2-.65.275-.975.225-.225-.025-.425-.125-.625-.25a5.546 5.546 0 0 0-1.05-.625c-.3-.125-.6-.225-.875-.3a11.96 11.96 0 0 1-.4-.075c-.2-.025-.4-.05-.575-.05h-.125c-.225 0-.425 0-.75.075-.075 0-.175.025-.3.05l-.2.05c-.2.05-.425.125-.6.2-.25.1-.5.2-.725.35-.325.2-.575.375-.8.575-.375.3-.675.65-.95 1.05-.25.35-.45.7-.625 1.075-.225.5-.375 1.05-.475 1.6-.05.4-.1.75-.075 1.1v.625s0 .125.025.2v.175c.075.275.1.525.15.775v.125c.075.175.1.325.125.45l.075.225c.075.2.125.425.2.6.225.525.425.975.65 1.375a12.596 12.596 0 0 0 2.7 3.25c.425.375.85.725 1.275 1.025.4.3.8.575 1.225.825.55.35 1.15.7 1.85 1.05.8.4 1.6.775 2.375 1.05l.225.1h.1c.05 0 .1 0 .15-.05l.2-.15s.25-.175.35-.275c.575-.45 1.125-.95 1.725-1.5.625-.575 1.225-1.2 1.8-1.85.5-.55.975-1.125 1.4-1.675l.75-1.05c.25-.375.525-.8.775-1.275.55-.975.95-1.9 1.2-2.8.175-.6.3-1.125.375-1.625.225-1.625.05-3.05-.5-4.4l-.025.025Zm-2.425 9.725s-.1-.15-.15-.2c-.2.3-.45.625-.675.95.075.05.125.075.2.15 0 .025-.025.05-.05.075-.175.225-.35.425-.525.65-.275.325-.525.65-.825.975l-.175.175c-.25.275-.55.55-.825.825v-.325c-.3.3-.6.625-.925.925a26.38 26.38 0 0 1-1.65 1.45l-.225.175c-.7-.275-1.425-.6-2.15-.975-.65-.325-1.225-.65-1.775-1a17.26 17.26 0 0 1-2.375-1.775 10.996 10.996 0 0 1-1.575-1.675c-.375-.45-.675-.9-.925-1.35-.2-.35-.4-.775-.6-1.25-.05-.15-.125-.325-.175-.525l-.075-.225s-.05-.225-.075-.35v-.15c-.075-.2-.1-.45-.15-.7v-.175s-.025-.075-.025-.1v-.625c0-.275 0-.575.075-.925.075-.475.2-.925.4-1.35.1-.225.25-.45.4-.675-.075-.025-.15-.075-.225-.1.05-.1.1-.175.15-.275.25-.35.525-.65.85-.925.125-.1.275-.2.425-.3.125 0 .225.025.35.075.025 0 .05-.05.075-.05.2-.125.375-.2.575-.275.175-.05.35-.125.475-.15h.15s.2-.075.275-.1c.25-.025.45-.05.625-.05h.325c-.125-.1-.25-.2-.375-.275h.025c.175 0 .375 0 .575.025.1 0 .225.05.35.075.25.05.5.15.75.25.05 0 .1.05.15.075.275.125.525.275.775.45.275.2.575.325.9.375h.025c.35.05.725 0 1.05-.15.05.075.1.15.125.2.15-.05.3-.1.425-.175.25-.175.45-.375.6-.5.35-.325.675-.6 1.05-.85.175-.1.325-.225.45-.3.2-.1.4-.2.625-.3.2-.075.375-.15.55-.2.2-.05.375-.1.55-.125.1 0 .175 0 .275-.025h.85c.45.075.85.225 1.25.45.425.275.8.625 1.1 1.1.15.225.25.425.325.575.5 1.175.65 2.45.45 3.9-.05.45-.175.9-.325 1.475-.15.5-.375 1.025-.6 1.55.075.025.15.05.225.1-.125.275-.275.55-.425.85-.05.075-.075.175-.125.25-.1.175-.175.275-.275.425-.15.275-.325.55-.475.775 0 0 0 .025-.025.05l-.025.1Zm-4.7-11-.1-.15.15.125s-.025 0-.05.025Z" fill="#231815"/><path d="M143.125 93.8c.425 1.025.825 1.975 1.575 2.625.7.625 1.675.9 2.6 1.125l.525.125c.525.125 1.05.25 1.575.425.125-.3.25-.625.35-.925.175-.55.275-1.025.325-1.475.05-.45.075-.825.075-1.15 0-.2 0-.4-.025-.65l.25-.125-.25.05s0-.15-.025-.2a9.538 9.538 0 0 0-.15-.9c-.075-.3-.2-.625-.325-.9a3.552 3.552 0 0 0-.325-.575c-.3-.475-.65-.825-1.1-1.1-.375-.25-.8-.4-1.25-.45-.35-.05-.575-.05-.85 0-.1 0-.175 0-.275.025-.175.025-.35.075-.55.125-.175.05-.375.1-.55.2-.225.1-.45.2-.625.3-.125.075-.275.175-.425.275l-.2-.175.15.2c-.35.225-.675.5-1.025.825-.1.1-.275.25-.475.4.125.2.25.375.375.6.25.45.45.95.625 1.375v-.05Zm1.3 8.65c-.625-.425-1.425-.6-2.275-.75h-.1c-.8-.175-1.725-.35-2.525-.8-.975-.55-1.8-1.55-2.475-3-.2-.425-.375-.85-.55-1.275-.275-.7-.575-1.4-.925-2.025-.55-.95-1.275-1.625-2.05-1.95-.1.125-.225.225-.325.35-.225.3-.375.6-.525.9-.675 1.55-.65 3.325.075 5.125.2.475.4.9.6 1.25.25.45.55.9.925 1.35.45.575 1 1.15 1.575 1.675.4.35.8.675 1.2.975.375.275.775.55 1.175.8.55.35 1.125.675 1.775 1 .725.375 1.45.7 2.15.975l.225-.175c.55-.425 1.075-.9 1.65-1.45.45-.425.875-.875 1.3-1.325.025-.65-.425-1.275-.95-1.625l.05-.025Zm-5.275-7.5c.25.45.425.925.625 1.375.425 1.025.825 1.975 1.575 2.625.7.625 1.675.9 2.6 1.125l.525.125c.85.2 1.725.4 2.525.8.1.05.325.175.6.35.1-.125.175-.225.275-.375.125-.175.25-.4.375-.6-.15-.175-.325-.35-.5-.45-.625-.425-1.425-.6-2.275-.75h-.1c-.85-.175-1.725-.35-2.5-.8-1-.575-1.8-1.55-2.475-3-.175-.4-.35-.825-.525-1.225-.3-.75-.575-1.45-.95-2.1-.125-.225-.275-.4-.4-.6-.025 0-.05-.025-.075-.05-.25-.1-.475-.2-.725-.25-.125-.025-.225-.05-.325-.05-.15 0-.3-.025-.425-.025h-.1c-.2 0-.375 0-.65.05-.075 0-.175.025-.3.05h-.125s-.2.1-.325.125l.3.15a9.036 9.036 0 0 1 3.4 3.525l-.025-.025Z" fill="#333434"/><path d="M146.525 104.225c.5-.55.975-1.125 1.4-1.675.25-.325.475-.65.75-1.05.25-.375.525-.8.775-1.25.55-.975.95-1.9 1.2-2.8.175-.6.3-1.125.375-1.625.075-.5.1-.925.1-1.3 0-.225 0-.45-.025-.75v-.3a6.509 6.509 0 0 0-.175-1 4.966 4.966 0 0 0-.375-1.075c-.1-.225-.225-.45-.4-.725a4.165 4.165 0 0 0-1.4-1.4c-.5-.3-1.025-.5-1.6-.575h-.075c-.325-.05-.65-.05-1-.025-.1 0-.225 0-.325.05a7.36 7.36 0 0 0-.65.125c-.225.05-.45.125-.675.225-.275.1-.5.225-.725.35-.15.1-.325.2-.55.35-.375.25-.775.575-1.175.95-.125.125-.275.25-.475.4-.275.2-.65.275-.975.225-.225-.025-.425-.125-.625-.25a5.546 5.546 0 0 0-1.05-.625c-.3-.125-.6-.225-.875-.3-.125-.025-.275-.05-.4-.075-.2-.025-.375-.05-.575-.05h-.125c-.225 0-.425 0-.75.075-.1 0-.225.05-.35.075h-.125l-.6.225c-.25.1-.5.225-.725.35-.3.175-.575.375-.825.575-.375.325-.675.65-.95 1.025-.25.35-.45.7-.625 1.075-.775 1.775-.75 3.8.075 5.85.225.525.425.975.65 1.375.275.5.6.975 1 1.475.5.625 1.05 1.225 1.7 1.775.425.375.85.725 1.25 1.025.4.3.8.575 1.225.825.55.35 1.15.7 1.85 1.05.8.4 1.6.775 2.35 1.05l.225.1h.1c.05 0 .1 0 .15-.05l.55-.425c.575-.45 1.125-.95 1.7-1.5.65-.6 1.25-1.225 1.8-1.85l-.025.075Zm-1.15-.075v-.1c-.425.45-.85.9-1.3 1.325a26.38 26.38 0 0 1-1.65 1.45l-.225.175c-.7-.275-1.425-.6-2.15-.975-.65-.325-1.225-.65-1.775-1-.4-.25-.8-.525-1.175-.8-.4-.3-.8-.625-1.2-.975-.6-.525-1.125-1.1-1.575-1.675-.375-.45-.675-.9-.925-1.35-.2-.35-.4-.775-.6-1.25-.725-1.8-.75-3.575-.075-5.125.125-.3.3-.6.525-.9.1-.125.225-.225.325-.35-.075-.025-.175-.075-.25-.1.175-.225.35-.425.575-.625.2-.175.45-.35.725-.5.175-.1.375-.2.55-.275l.3.15c.125-.05.225-.075.325-.1h.125l.3-.1c.25-.025.45-.05.65-.05h.1c.125 0 .275 0 .425.025.1 0 .2.025.325.05.225.05.475.125.725.25.025 0 .05.025.075.05-.1-.15-.225-.275-.325-.4.125.05.225.075.35.125.325.15.625.325.925.525.125.1.3.125.45.175.15.075.3.175.475.2.25.05.525 0 .775-.05s.475-.15.7-.3c.05-.05.075-.075.15-.125.05.075.1.15.125.225.2-.15.375-.3.475-.4.35-.325.675-.6 1.025-.825l-.15-.2.2.175c.15-.1.3-.2.425-.275.2-.1.4-.2.625-.3.2-.075.375-.15.55-.2.2-.05.375-.1.55-.125.1 0 .175 0 .275-.025h.85c.45.075.85.225 1.25.45.425.275.8.625 1.1 1.1.15.225.25.425.325.575.125.275.25.6.325.9.075.35.125.65.15.9 0 .075 0 .15.025.2l.25-.05-.25.125c0 .25.025.45.025.65 0 .35 0 .7-.075 1.15-.05.45-.175.9-.325 1.475-.1.3-.225.625-.35.925.075.025.15.05.225.1-.05.125-.075.25-.125.375-.075.15-.175.325-.25.5-.1.225-.225.45-.35.7-.025.05-.05.1-.075.175-.15.25-.275.45-.4.675a.674.674 0 0 0-.175-.2c-.125.2-.25.425-.375.6-.1.15-.175.25-.275.375.075.05.125.1.2.15-.15.225-.3.45-.45.65-.025.05-.075.075-.1.125-.3.4-.65.825-1.025 1.225-.075.1-.15.2-.25.3-.175.2-.375.375-.575.575a.194.194 0 0 1-.05-.2v.05Z" fill="#231815"/><path d="M140.725 93.725c.175.45.35.85.525 1.225.6 1.275 1.275 2.125 2.075 2.6.65.375 1.45.525 2.225.675h.1c.925.2 1.825.4 2.6.925.25.175.45.4.625.6.125-.225.225-.475.35-.7-.525-.2-1.075-.35-1.625-.475-.175-.05-.35-.075-.525-.125-1.05-.25-2.125-.575-3-1.325-.925-.8-1.375-1.9-1.825-2.975-.175-.45-.375-.9-.6-1.325-.15-.275-.325-.55-.5-.825-.25.05-.525.075-.775.05-.175-.025-.325-.125-.475-.2.325.625.6 1.25.85 1.85l-.025.025Z" fill="#fff"/><path d="m147.7 98.15-.025.2.05-.175-.025-.025Zm-7.8-4.025c.175.4.325.825.525 1.225.675 1.45 1.475 2.45 2.475 3 .775.45 1.65.625 2.5.775h.1c.825.175 1.625.35 2.275.775.175.125.35.275.5.45.05.075.125.125.175.2.125-.225.275-.425.4-.675.025-.05.05-.1.075-.175-.2-.225-.375-.45-.625-.6-.775-.525-1.675-.725-2.6-.9h-.1c-.775-.175-1.575-.325-2.225-.7-.8-.475-1.5-1.3-2.075-2.6-.175-.375-.35-.8-.525-1.225-.225-.575-.5-1.225-.85-1.85-.15-.075-.3-.075-.45-.175-.275-.225-.6-.4-.925-.525-.125-.05-.225-.075-.35-.125.125.125.225.25.325.4.15.2.275.375.4.6.375.65.65 1.35.95 2.1l.025.025Z" fill="#231815"/><path d="M141.675 92.85c.225.425.4.875.6 1.325.45 1.075.925 2.175 1.825 2.975.85.75 1.95 1.1 3 1.325.175.05.35.075.525.125.55.125 1.1.275 1.625.475.075-.15.175-.325.25-.5.05-.125.075-.25.125-.375-.075-.025-.15-.075-.225-.1a12.263 12.263 0 0 0-1.575-.425l-.525-.125c-.925-.225-1.875-.5-2.6-1.125-.75-.65-1.15-1.6-1.575-2.625-.175-.425-.375-.925-.625-1.375-.1-.2-.25-.4-.375-.6-.05-.075-.075-.15-.125-.225-.05.05-.075.075-.15.125-.225.15-.45.25-.7.3.175.25.35.525.5.825h.025Z" fill="#231815"/><path d="M146.6 101.85c-.725-.35-1.525-.55-2.325-.725l-.525-.125c-1.05-.25-2.125-.575-3-1.325-.925-.8-1.375-1.9-1.825-2.975-.2-.45-.375-.9-.6-1.3a7.806 7.806 0 0 0-3.025-3.15c-.3-.175-.65-.35-.975-.35h-.075c.825.45 1.575 1.2 2.15 2.2.4.7.7 1.425 1 2.15.175.45.35.85.525 1.225.6 1.275 1.275 2.125 2.075 2.6.65.375 1.45.525 2.225.675h.1c.925.2 1.825.4 2.6.925.675.45 1.15 1.125 1.3 1.825.35-.4.7-.825 1.025-1.225-.2-.15-.425-.3-.675-.425h.025Z" fill="#fff"/><path d="M146 103.775s.15-.2.25-.3c-.15-.7-.625-1.35-1.3-1.825-.775-.525-1.675-.725-2.6-.9h-.1c-.775-.175-1.575-.325-2.225-.7-.8-.475-1.5-1.3-2.075-2.6-.175-.375-.35-.8-.525-1.225-.3-.725-.6-1.45-1-2.15-.575-1-1.325-1.775-2.15-2.2h.075c.35 0 .675.175.975.35a7.806 7.806 0 0 1 3.025 3.15c.225.4.4.85.6 1.3.45 1.075.925 2.175 1.825 2.975.85.75 1.95 1.1 3 1.325l.525.125c.8.175 1.6.35 2.325.725.25.125.475.275.675.425.025-.05.075-.075.1-.125.15-.2.3-.425.45-.65-.075-.05-.15-.1-.2-.15-.25-.175-.475-.3-.6-.35-.8-.4-1.675-.6-2.525-.8l-.525-.125c-.925-.225-1.875-.5-2.6-1.125-.75-.65-1.15-1.625-1.575-2.625-.2-.45-.4-.925-.625-1.375a9.036 9.036 0 0 0-3.4-3.525l-.3-.15-.3-.15c-.175.075-.375.15-.55.275-.275.175-.525.325-.725.5-.225.175-.4.4-.575.625.075.025.175.075.25.1.775.325 1.475.975 2.05 1.95.375.625.65 1.35.925 2.025.175.425.35.85.55 1.275.675 1.45 1.475 2.45 2.475 3 .8.45 1.7.625 2.525.775h.1c.825.175 1.625.35 2.275.775.525.35.975.975.95 1.625v.1c0 .075 0 .15.05.2.2-.2.4-.375.575-.575l-.075.025Z" fill="#231815"/><path d="M114.575 95.95c.4.7.7 1.425 1 2.15.175.425.35.85.525 1.25.6 1.275 1.275 2.125 2.075 2.6.65.375 1.45.525 2.225.675h.1c.925.2 1.825.4 2.6.925.275.175.45.4.65.625.1-.15.175-.275.275-.425.05-.075.075-.175.125-.25-.55-.2-1.125-.35-1.725-.5l-.525-.125c-1.05-.25-2.125-.575-3-1.325-.925-.8-1.375-1.9-1.825-2.975-.175-.45-.375-.9-.6-1.3-.25-.5-.6-.95-.95-1.375a2.039 2.039 0 0 1-.9-.375 3.929 3.929 0 0 0-.775-.45c.25.275.475.575.675.9l.05-.025Z" fill="#fff"/><path d="M116.5 97.225c.225.425.4.875.6 1.3.45 1.075.925 2.175 1.825 2.975.85.75 1.95 1.1 3 1.325l.525.125c.575.125 1.15.3 1.725.5.15-.275.3-.575.425-.85-.075-.025-.15-.075-.225-.1-.55-.2-1.125-.35-1.7-.475-.175-.05-.35-.075-.525-.125-.925-.225-1.875-.5-2.6-1.125-.75-.65-1.15-1.6-1.575-2.625-.175-.425-.375-.925-.625-1.375-.15-.3-.35-.6-.55-.875-.05-.075-.1-.15-.125-.2-.35.15-.7.225-1.05.15h-.025c.35.425.7.875.95 1.375h-.05Z" fill="#231815"/><path d="M123.775 104.15c-.2-.225-.4-.45-.65-.625-.775-.525-1.675-.725-2.6-.9h-.1c-.775-.175-1.575-.325-2.225-.7-.825-.475-1.5-1.3-2.075-2.6-.175-.4-.35-.825-.525-1.25-.3-.725-.575-1.45-1-2.15-.2-.35-.45-.625-.675-.9-.05 0-.1-.075-.15-.075-.25-.1-.5-.2-.75-.25-.125-.025-.225-.05-.35-.075-.2-.025-.4-.05-.575-.025h-.025c.125.075.25.175.375.275.5.375.975.875 1.375 1.55.375.625.65 1.35.925 2.025.175.425.35.85.55 1.275.675 1.45 1.475 2.45 2.475 3 .775.45 1.675.625 2.525.775h.1c.825.175 1.65.35 2.275.775.175.125.35.275.5.475.05.075.125.125.15.2 0 0 0-.025.025-.05.15-.225.325-.5.475-.775l-.05.025Z" fill="#231815"/><path d="M121.45 106.225c-.7-.35-1.525-.55-2.3-.725-.175-.05-.35-.075-.525-.125-1-.225-2.125-.575-3-1.325-.925-.8-1.375-1.9-1.825-2.975-.175-.45-.375-.9-.6-1.3-.675-1.3-1.75-2.4-3.025-3.15-.3-.175-.65-.35-.975-.35h-.075c.825.45 1.575 1.2 2.175 2.2.4.7.7 1.425 1 2.15.175.45.35.85.525 1.225.6 1.275 1.275 2.125 2.075 2.6.65.375 1.45.525 2.225.675h.1c.925.2 1.825.4 2.6.925a2.97 2.97 0 0 1 1.25 1.7l.175-.175c.3-.325.55-.65.825-.975a6.29 6.29 0 0 0-.6-.375h-.025Z" fill="#fff"/><path d="m119.225 105.075-.05.175.05-.175Zm.1-.475-.525-.125c-.925-.225-1.875-.5-2.6-1.125-.75-.65-1.15-1.625-1.575-2.625-.2-.45-.4-.925-.625-1.375a9.036 9.036 0 0 0-3.4-3.525 3.397 3.397 0 0 0-.75-.325c-.1-.025-.225-.05-.35-.075-.15.1-.3.2-.425.3-.325.275-.6.575-.85.925-.075.1-.1.175-.15.275.075 0 .15.05.225.1.8.3 1.525.975 2.1 1.975.375.65.675 1.375.95 2.075.175.4.35.825.525 1.25.675 1.45 1.475 2.45 2.475 3 .8.45 1.7.625 2.5.775h.1c.825.175 1.625.35 2.275.775.45.3.875.85.925 1.425 0 .1.025.2 0 .3v.025l.825-.825c-.175-.65-.625-1.275-1.25-1.7-.775-.525-1.675-.725-2.6-.9h-.1c-.775-.175-1.575-.325-2.225-.7-.825-.475-1.5-1.3-2.075-2.6-.175-.375-.35-.8-.525-1.225-.3-.725-.6-1.45-1-2.15-.575-1-1.325-1.775-2.175-2.2h.075c.35 0 .675.175.975.35a7.806 7.806 0 0 1 3.025 3.15c.225.425.4.875.6 1.3.45 1.075.925 2.175 1.825 2.975.875.75 2 1.1 3 1.325.175.05.35.075.525.125.8.175 1.6.375 2.3.725.225.1.425.225.6.375.175-.225.375-.425.525-.65 0-.025.025-.05.05-.075-.075-.05-.15-.1-.2-.15-.3-.2-.525-.325-.55-.325-.8-.4-1.675-.6-2.525-.8l.075-.05Zm11.45 12.375c.15 0 .275 0 .425-.025.775-.1 1.45-.525 1.9-1.15.475-.625.65-1.4.55-2.15l-.375-2.6c-.025-.2-.2-.325-.4-.3-.2.025-.325.225-.3.4l.375 2.6a2.22 2.22 0 0 1-.4 1.625c-.35.475-.85.775-1.425.85-1.2.175-2.3-.65-2.475-1.85l-.375-2.6c-.025-.2-.2-.325-.4-.3-.2.025-.325.225-.3.4l.375 2.6c.2 1.45 1.45 2.475 2.875 2.475l-.05.025Z" fill="#231815"/></g><defs><clipPath id="a"><path fill="#fff" transform="translate(57.5 67.5)" d="M0 0h95.425v85.375H0z"/></clipPath></defs></svg>