<svg fill="none" xmlns="http://www.w3.org/2000/svg" viewBox="0 0 202 202"><circle cx="101" cy="101" r="100" fill="#E2CCAF" stroke="#231815"/><circle cx="101" cy="101" r="87.5" fill="#00698A" stroke="#231815"/><path fill="#E68169" stroke="#231815" d="M64 52.333h24v24H64z"/><path fill="#E68169" stroke="#231815" d="M87.75 52.333h24v24h-24z"/><path fill="#E68169" stroke="#231815" d="M111.5 52.333h24v24h-24zM64 76.083h24v24H64z"/><path fill="#E68169" stroke="#231815" d="M87.75 76.083h24v24h-24z"/><path fill="#E68169" stroke="#231815" d="M64 99.833h24v24H64z"/><path d="M53.582 157v-22.32h5.79l3.54 9.63c.45 1.29.81 2.7 1.23 4.08h.15c.45-1.38.81-2.79 1.23-4.08l3.42-9.63h5.82V157h-4.89v-7.65c0-2.22.42-5.55.69-7.74h-.12l-1.86 5.34-3 8.16h-2.94l-3.03-8.16-1.8-5.34h-.12c.27 2.19.69 5.52.69 7.74V157h-4.8Zm26.309 0v-22.32h14.16v4.44h-8.79v4.14h7.47v4.5h-7.47v4.74h9.12v4.5H79.89Zm18.896 0v-22.32h5.46l5.55 10.68 2.19 4.95h.15c-.3-2.37-.72-5.58-.72-8.25v-7.38h5.1V157h-5.46l-5.52-10.77-2.19-4.89h-.15c.24 2.49.69 5.55.69 8.25V157h-5.1Zm31.85.42c-5.97 0-9.06-3.39-9.06-10.92v-11.82h5.34v12.39c0 4.23 1.26 5.73 3.72 5.73 2.43 0 3.78-1.5 3.78-5.73v-12.39h5.16v11.82c0 7.53-3 10.92-8.94 10.92Z" fill="#231815"/></svg>