<svg width="99" height="100" fill="none" xmlns="http://www.w3.org/2000/svg"><g clip-path="url(#a)" stroke="#231815" stroke-linecap="round" stroke-linejoin="round"><path d="M22.81 8.927C45.687-6.188 76.59-.063 91.833 22.622a51.732 51.732 0 0 1 1.623 2.613L66.055 50l31.454 15.94c-3.414 9.928-10.012 18.868-19.487 25.133-22.875 15.115-53.766 8.99-69.02-13.695C-6.24 54.691-.064 24.042 22.81 8.927Z" fill="#FFE177" stroke-width="2.045"/><path d="M57.13 33.642c4.448 0 8.055-3.577 8.055-7.989s-3.607-7.988-8.056-7.988c-4.448 0-8.055 3.576-8.055 7.988 0 4.413 3.607 7.99 8.055 7.99Z" fill="#231815" stroke-width=".511"/></g><defs><clipPath id="a"><path fill="#fff" d="M0 0h98.148v100H0z"/></clipPath></defs></svg>