<svg fill="none" xmlns="http://www.w3.org/2000/svg" viewBox="0 0 24 15"><g clip-path="url(#clip0_94_5517)"><path d="M15.612 11.556V9.972h1.578V8.394h1.584V6.81h1.578V5.226h1.584V3.648h1.584V.48h-3.168v1.584h-1.578v1.584H17.19v1.578h-1.578V6.81h-1.584v1.584h-3.162V6.81H9.282V5.226H7.698V3.648H6.12V2.064H4.536V.48H1.374v3.168h1.584v1.578h1.578V6.81H6.12v1.584h1.578v1.578h1.584v1.584h1.584v1.578h3.162v-1.578h1.584Z" fill="#fff"/><path d="M14.508 13.614v-.204h.69v-1.374h.894v-.21h.684v-1.374h.894v-.21h.69V8.868h.894v-.21h.69V7.284h.894V7.08h.69V5.706h.894v-.21h.684V4.122H24V0h-4.128v1.374h-.894v.21h-.69v1.374h-.894v.21h-.69v1.374h-.894v.21h-.684v1.374h-.894v.204h-.69v1.374h-.894v.21H11.34V6.33H9.762V4.752H8.178V3.174H6.6V1.596H5.022V0H.894v1.374H0v4.122h1.578V7.08h1.578v1.578H4.74v1.578h1.578v1.578h1.578v1.584h1.578v1.578h4.128v-1.374h.894l.012.012Zm-3.642-.48v-1.578H9.288V9.978H7.704V8.4H6.126V6.816H4.548V5.238H2.97V3.66H1.386V.48h3.162v1.584h1.578v1.578h1.578V5.22h1.584v1.578h1.578v1.584h3.162V6.798h1.584V5.22h1.578V3.642h1.578V2.064h1.578V.48h3.174v3.162h-1.578V5.22h-1.584v1.578H18.78v1.584h-1.578V9.96h-1.578v1.578H14.04v1.578h-3.162l-.012.018Z" fill="#231815"/></g><defs><clipPath id="clip0_94_5517"><path fill="#fff" transform="rotate(90 12 12)" d="M0 0h14.994v24H0z"/></clipPath></defs></svg>