<svg fill="none" xmlns="http://www.w3.org/2000/svg" viewBox="0 0 180 181"><path d="M90 179.667c49.092 0 88.889-39.797 88.889-88.89 0-49.09-39.797-88.887-88.889-88.887S1.111 41.686 1.111 90.778 40.908 179.667 90 179.667Z" fill="#E68169" stroke="#231815" stroke-width="2.222" stroke-miterlimit="10"/><path d="M90 149.667c32.523 0 58.889-26.366 58.889-58.89 0-32.523-26.366-58.888-58.889-58.888S31.111 58.254 31.111 90.778c0 32.523 26.366 58.889 58.889 58.889Z" fill="#E2CCAF" stroke="#231815" stroke-width="2.222" stroke-miterlimit="10"/><path d="m66.178 149.956 1.6.444 1.6.444 1.6.445-.445 1.6-.444 1.6-.445 1.6-.444 1.6-.445 1.6-.444 1.6-.444 1.6-.445 1.6-.444 1.6-.445 1.6-1.6-.445-1.6-.444-1.6-.444-1.6-.445.445-1.6.444-1.6.445-1.6.444-1.6.444-1.6.445-1.6.444-1.6.445-1.6.444-1.6.445-1.6 1.6.445ZM67.356 152l-1.6-.444-.445 1.6-.444 1.6-.445 1.6-.444 1.6-.445 1.6-.444 1.6-.445 1.6-.444 1.6 1.6.444 1.6.444.444-1.6.445-1.6.444-1.6.445-1.6.444-1.6.445-1.6.444-1.6.445-1.6-1.6-.444Zm6 3.356-.445 1.6-.444 1.6-.445 1.6-.444 1.6-.445 1.6-.444 1.6 1.6.444 1.6.444.444-1.6.445-1.6.444-1.6 1.6.445.445-1.6.444-1.6 1.6.444-.444 1.6-.445 1.6-1.6-.444-.444 1.6-.445 1.6-.444 1.6 1.6.444 1.6.445-.445 1.6-1.6-.445-1.6-.444-.444 1.6-.444 1.6-1.6-.445.444-1.6.444-1.6-1.6-.444-1.6-.444-1.6-.445.445-1.6.444-1.6.445-1.6.444-1.6.445-1.6.444-1.6.444-1.6 1.6.445Zm2.044-1.178-.445 1.6-1.6-.445.445-1.6 1.6.445Zm1.6.444-1.6-.444.444-1.6 1.6.444 1.6.445-.444 1.6-1.6-.445Zm4.822 1.311-.444 1.6-.445 1.6-1.6-.444.445-1.6.444-1.6 1.6.444Zm-34.378-3.4 1.378.934-.933 1.377-.934 1.378-.933 1.378 1.378.933 1.378.934 1.378.933-.934 1.378-1.378-.934-1.377-.933-1.378-.933-1.378-.934.933-1.377.934-1.378.933-1.378.933-1.378Zm.49-3.689 1.377.934-.933 1.378-.934 1.377-1.377-.933.933-1.378.933-1.378Zm.51-9.711-.933 1.378-1.378-.933.934-1.378 1.377.933Zm-.022 6 1.378.934-.933 1.377-.934 1.378-1.377-.933.933-1.378.933-1.378Zm-.91-4.622 1.377.933-.934 1.378-1.377-.933.933-1.378Zm.444 2.311 1.377.934-.933 1.377-1.378-.933.934-1.378Zm4.11 8.8L51.134 153l-.933 1.378-1.378-.934.933-1.377.934-1.378 1.378.933Zm3.245-1.822-.933 1.378-.934 1.378-1.377-.934.933-1.378.933-1.377 1.378.933Zm2.311-.444-.933 1.377-1.378-.933.933-1.378 1.378.934Zm2.311-.445L59 150.289l-1.378-.933.934-1.378 1.377.933Zm2.311-.444-.933 1.377-1.378-.933.934-1.378 1.377.934Zm-19.511-10.489-5.51-6.245 1.244-1.111 6.622 7.511-11.245 9.934-1.11-1.245 10-8.822v-.022Zm-6.466-10.622.933 1.377-12.4 8.445-.933-1.378 12.4-8.444Zm-2.334-2.978-13.578 6.355-.71-1.511 1.51-.711-.71-1.511 1.51-.711-.71-1.511 1.51-.711-.71-1.511 1.51-.712-.71-1.511 1.51-.711-.71-1.511-7.556 3.533-.711-1.511 13.578-6.377.71 1.511-4.533 2.111.711 1.511-1.51.711.71 1.511-1.51.711.71 1.511-1.51.711.71 1.512-1.51.711.71 1.511 10.556-4.956.711 1.511.022.045Zm-19.022-10.845 4.845-1.2-1.578-6.466 1.622-.4 1.578 6.466 4.866-1.2-1.977-8.089 1.622-.4 2.378 9.712-14.578 3.577-2.378-9.711 1.622-.4 1.978 8.089v.022Zm11.622-14.555h-1.666l-1.667-.045h-1.667l-1.666-.044H18.2l-1.667-.044h-1.666L13.2 98.8h-1.667l-1.666-.044H8.2l.022-1.69V95.4l.045-1.667v-1.666L8.31 90.4h1.667l1.667.044h1.666l1.667.045h1.667l-.023 1.689v1.666l-.044 1.667v1.667l1.644.022h1.667l1.667.044h1.666l1.667.045h1.667l-.023 1.689ZM26.8 82.31v1.667l-1.689-.022v-1.667l-1.644-.022H21.8l-1.667-.045h-1.666l-1.667-.044v1.666l-.044 1.667v1.667l-.045 1.666h-1.666l-1.667-.044H11.71l-1.667-.044H8.378l.022-1.69V85.4l.044-1.667v-1.666L8.49 80.4h1.667l1.666.044h1.667l1.667.045h1.666l1.667.044h1.667l1.666.045h1.667l1.667.044h1.666l-.022 1.69ZM11.622 93.733v-1.666l-1.644-.022v1.666l-.045 1.667v1.666l1.645.023V95.4l.044-1.667Zm.156-10v-1.666l-1.645-.022v1.666l-.044 1.667v1.666l1.644.023V85.4l.045-1.667Zm3.178 10.045V92.11l-1.645-.022v1.667l-.044 1.666v1.667l1.644.022v-1.666l.045-1.667Zm.155-10V82.11l-1.644-.022v1.667l-.045 1.666v1.667l1.645.022v-1.666l.044-1.667Zm11.578 5.178h-1.667l-1.666-.045v1.667L25 90.6v1.667l1.645.022v1.667l-1.69-.023v-1.666l-1.644-.022v1.666l-.044 1.667H21.6l.022-1.69v-1.666l-1.644-.022v1.667l-.045 1.666h-1.666l.022-1.689v-1.666l.044-1.667v-1.666l.045-1.667V85.51l.044-1.666h1.667l-.022 1.688V87.2l1.644.022v-1.666l.045-1.667h1.666l-.022 1.689v1.666l1.645.023h1.666l-.022 1.689Zm-5-.09h-1.667L20 90.512h1.667l.022-1.644Zm.955-17.666-1.577-.556-1.578-.555-1.578-.556-1.578-.555-.555 1.578 1.577.555 1.578.556 1.578.555-.555 1.578-1.578-.556-1.578-.555-1.578-.556-.555 1.578-1.578-.555.555-1.578-1.577-.556-1.578-.555.555-1.578 1.578.555L14.2 70l.556-1.578.555-1.578 1.578.556 1.578.555 1.577.556 1.578.556 1.578.555-.556 1.578Zm-7.177-9.645L13.889 61l.555-1.578 1.578.556-.555 1.578Zm1.022 2.134-1.578-.556.556-1.578 1.577.556-.555 1.578Zm5.378-5.156-.556 1.578-.555 1.578-.556 1.578-.556 1.577-.555 1.578-1.578-.555-1.578-.556.556-1.578 1.578.556.555-1.578.556-1.578.555-1.578.556-1.577-1.578-.556-1.578-.555.556-1.578 1.578.555 1.577.556 1.578.556-.555 1.577Zm3.377 15.356-1.577-.556-.556 1.578-.556 1.578-1.577-.556-1.578-.555.556-1.578 1.577.556.556-1.578.555-1.578 1.578.555.556-1.577 1.578.555-.556 1.578-.556 1.578Zm7.623-11.445-.556 1.578-.555 1.578-.556 1.578-.556 1.578-.555 1.577-1.578-.555-1.578-.556-1.578-.555-1.577-.556-1.578-.556.556-1.577.555-1.578.556-1.578.555-1.578.556-1.577.555-1.578 1.578.555 1.578.556 1.578.555 1.577.556 1.578.556-.555 1.577Zm-2.134 1 .556-1.577-1.578-.556-1.578-.556-1.578-.555L26 61.778l-.556 1.578-.555 1.577-.556 1.578 1.578.556 1.578.555 1.578.556.555-1.578.556-1.578.555-1.578Zm-2.91 13.111L26.243 76l-1.577-.556.555-1.577 1.578.555 1.578.556-.556 1.578Zm-4.156-30.888-1.045 1.31-1.311-1.044 1.044-1.31 1.312 1.044Zm17.688-.845-1.044 1.311L39 45.09l1.044-1.311-1.31-1.045-1.045 1.312-1.045 1.31 1.312 1.045-1.045 1.311 1.311 1.045-1.044 1.31-1.045 1.312-1.31-1.045 1.044-1.31 1.044-1.312-1.311-1.044-1.311-1.045-1.311-1.044-1.311-1.045-1.045 1.311 1.311 1.045 1.311 1.044-1.044 1.312 1.311 1.044-1.044 1.311 1.31 1.044 1.312 1.045L34.044 54l-1.31-1.044-1.312-1.045-1.044 1.311-1.045 1.311-1.31-1.044 1.044-1.311 1.044-1.311 1.044-1.311 1.045-1.311-1.311-1.045-1.311-1.044-1.311-1.045-1.311-1.044-1.045 1.31-1.044 1.312-1.312-1.044 1.045-1.312 1.044-1.31-1.31-1.045 1.044-1.311 1.31 1.044 1.045-1.311 1.045-1.311-1.311-1.044 1.044-1.312 1.311 1.045 1.045-1.311 1.044-1.311 1.044-1.312 1.312 1.045-1.045 1.311-1.044 1.311-1.045 1.311 1.311 1.045 1.045-1.311 1.044-1.311 1.045-1.312 1.31 1.045 1.312 1.044-1.044 1.311-1.312-1.044L34.8 39.6l-1.044 1.311-1.045 1.311 1.311 1.045 1.311 1.044L36.378 43l1.044-1.311-1.311-1.044 1.045-1.312 1.31 1.045 1.045-1.311 1.311 1.044-1.044 1.311 1.31 1.045L42.4 43.51l-1.044 1.311ZM26.534 50.09 25.49 51.4l-1.311-1.044 1.044-1.312 1.311 1.045Zm1.311 1.044-1.31-1.044 1.044-1.311 1.31 1.044-1.044 1.311Zm2.556-8.6 1.044-1.31-1.31-1.045-1.045 1.31-1.045 1.312 1.311 1.044 1.045-1.31Zm3.956 13.778-1.312-1.044 1.045-1.311L35.399 55l-1.044 1.311Zm.266 2.334L33.311 57.6l1.044-1.311 1.312 1.044-1.045 1.312Zm2.845-6.267-1.045 1.31-1.311-1.044 1.045-1.31 1.31 1.044Zm6.222-7.845 1.044-1.31 1.311 1.044L45 45.577l-1.044 1.312L42.91 48.2l-1.044 1.311-1.045 1.311-1.044 1.311-1.045 1.311-1.31-1.044 1.044-1.311 1.044-1.311 1.044-1.311 1.045-1.311 1.044-1.312 1.045-1.31ZM57.756 36.2l-1.4.911-1.4.911-1.4.911-1.4.911-1.4.912-1.4.91-.912-1.4 1.4-.91 1.4-.912-.91-1.4-1.4.912-.912-1.4-.91-1.4-1.4.91-.912-1.4-.911-1.4-.911-1.4-.911-1.4-.911-1.4 1.4-.91 1.4-.912-.912-1.4-.91-1.4 1.4-.91 1.4-.912 1.4-.91 1.4-.912.91 1.4-1.4.911-1.4.911-1.4.911.912 1.4 1.4-.91 1.4-.912 1.4-.911.91 1.4 1.4-.911-.91-1.4-.912-1.4-.91-1.4 1.4-.911.91 1.4.912 1.4.91 1.4 1.4-.911 1.4-.911.912 1.4-1.4.91-1.4.912.91 1.4.912 1.4.911 1.4 1.4-.911.911 1.4.911 1.4-1.4.91.912 1.4-1.4.912.91 1.4-1.4.911Zm-11.934-6.178-.91-1.4-1.4.911.91 1.4 1.4-.91Zm.334 9.711-.911-1.4-.912-1.4 1.4-.91.912 1.4.91 1.4-1.4.91Zm1.489-6.91-.912-1.4-1.4.91.912 1.4 1.4-.91Zm1-4.6 1.4-.912-.912-1.4-1.4.911-1.4.911.912 1.4 1.4-.91Zm4.6 1 1.4-.912-.912-1.4-.91-1.4-1.4.911.91 1.4-1.4.911-1.4.912-1.4.91.911 1.4 1.4-.91 1.4-.912 1.4-.91Zm-1 4.6 1.4-.912-.912-1.4-1.4.911-1.4.911-1.4.912.911 1.4 1.4-.912 1.4-.91Zm1.8 2.8-.912-1.4-1.4.91.912 1.4 1.4-.91ZM53.8 20.91l-.911-1.4-.911-1.4 1.4-.911.91 1.4.912 1.4-1.4.911Zm3.044 13.911 1.4-.91-.91-1.4 1.4-.912-.912-1.4-.91-1.4-1.4.911-1.4.911.91 1.4.911 1.4-1.4.911.911 1.4 1.4-.91Zm1.49-6.91-.912-1.4-.91-1.4 1.4-.912.91 1.4.911 1.4-1.4.911Zm3.622 5.6-.912-1.4-.91-1.4 1.4-.912.91 1.4.912 1.4-1.4.911ZM85.6 19.8l-4.311.489.978 4.178h-.045l-3.377-2.645-2.356 3.6h-.067l-.377-4.289-4.245.89-.044-.067 2.8-3.312-3.667-2.377V16.2l4.311-.356-.911-4.244h.089l3.266 2.711 2.245-3.622h.089L80.445 15l4.2-1v.044l-2.712 3.4 3.69 2.267v.089H85.6Zm10.2 5.578.378-1.622.377-1.623 1.623.378-.378 1.622-.378 1.623-1.622-.378Zm8.489.266.378-1.622.377-1.622.378-1.622.378-1.622.378-1.623.378-1.622-1.623-.378-1.622-.377-.378 1.622-.377 1.622-.378 1.622-1.622-.378-.378 1.623-.378 1.622-1.622-.378.377-1.622.378-1.622 1.623.377.377-1.622.378-1.622.378-1.622-1.622-.378-1.623-.378.378-1.622 1.622.378 1.623.377.377-1.622.378-1.622 1.622.378-.377 1.622-.378 1.622 1.622.378 1.622.378 1.623.378-.378 1.622-.378 1.622-.378 1.622-.378 1.622-.377 1.623-.378 1.622-.378 1.622-1.622-.378Zm-3.622.867 1.622.378-.378 1.622-1.622-.378-1.622-.377.377-1.623 1.623.378Zm1.622.378.378-1.622 1.622.377-.378 1.623-1.622-.378Zm9.355 3.889-1.622-.378-1.622-.378-1.622-.378.378-1.622.377-1.622.378-1.622.378-1.622.378-1.623.377-1.622.378-1.622.378-1.622.378-1.623.378-1.622 1.622.378 1.622.378 1.622.377 1.622.378-.377 1.622-.378 1.623-.378 1.622-.378 1.622-.377 1.622-.378 1.623-.378 1.622-.378 1.622-.378 1.622-.377 1.622-1.623-.377Zm-1.244-2 1.622.378.378-1.623.378-1.622.378-1.622.377-1.622.378-1.623.378-1.622.378-1.622.377-1.622-1.622-.378-1.622-.378-.378 1.622-.378 1.623-.377 1.622-.378 1.622-.378 1.622-.378 1.622-.377 1.623-.378 1.622 1.622.378Zm5.267 3.355.889-1.422 1.422.889-.889 1.422-1.422-.889Zm2.289-.533.888-1.422 1.423.889-.889 1.422-1.422-.889Zm2.288-.533.889-1.423 1.423.89-.889 1.422-1.423-.89Zm2.289-.534.889-1.422.889-1.422 1.422.889-.889 1.422-.888 1.422-1.423-.889Zm3.178-1.955.889-1.422.889-1.423 1.422.89-.889 1.421-.889 1.423-1.422-.89Zm4.6-1.067-1.422-.889.889-1.422.889-1.422.889-1.422-1.423-.89-1.422-.888-1.422-.89.889-1.421 1.422.889 1.422.888 1.422.89 1.423.888-.889 1.422-.889 1.423-.889 1.422-.889 1.422Zm-.689 7.422-1.422-.889.889-1.422.889-1.422 1.422.889-.889 1.422-.889 1.422Zm.356-3.71-1.422-.89.888-1.422.889-1.422 1.423.889-.889 1.422-.889 1.422Zm.178 6-1.423-.89.889-1.422 1.422.889-.888 1.422Zm.533 2.288-1.422-.889.889-1.422 1.422.889-.889 1.422Zm-.889 1.422.889-1.422 1.422.889-.889 1.422-1.422-.889Zm5.733.978 5.734 6.044-1.2 1.156-6.867-7.267 10.889-10.31 1.155 1.2-9.688 9.177h-.023Zm6.845 10.378-.978-1.334 12.089-8.888.978 1.333-12.089 8.889Zm2.444 2.933 13.334-6.844.755 1.489-1.489.755.756 1.49-1.489.755.755 1.489-1.488.755.755 1.489-1.489.756.756 1.488-1.489.756.755 1.489 7.423-3.8.755 1.489-13.355 6.844-.756-1.489 4.445-2.288-.756-1.49 1.489-.755-.756-1.489 1.489-.755-.755-1.49 1.489-.755-.756-1.489 1.489-.755-.756-1.49-10.377 5.334-.756-1.489h.022Zm19.4 10.111-4.8 1.356 1.822 6.422-1.6.445-1.822-6.423-4.8 1.378 2.267 8.022-1.6.467-2.733-9.622 14.422-4.09 2.733 9.623-1.6.467-2.267-8.022-.022-.023Zm-11.089 14.956h1.667l1.667-.067 1.666-.044 1.667-.045 1.667-.044h1.666l1.667-.067 1.667-.044 1.666-.045 1.667-.044 1.667-.044.044 1.666.045 1.667.044 1.666.045 1.667v1.667l-1.623.022-1.666.044-1.667.045-1.667.044-1.666.045-.045-1.667v-1.666l-.066-1.667-.045-1.667-1.667.045-1.666.044-1.667.044-1.667.045-1.666.044H153.2l-.044-1.644h-.023Zm.2 10 1.667-.044 1.667-.045-.045-1.667-1.666.045-.045-1.667-1.666.045v-1.667l1.622-.044.044 1.666 1.667-.044-.045-1.667-.044-1.667 1.667-.044.044 1.667.045 1.666h1.666l-.044-1.689-.045-1.666 1.667-.045.044 1.667.045 1.667v1.666l.067 1.667.044 1.667.044 1.666.045 1.667-1.667.044-.044-1.666-.045-1.667-1.666.044.044 1.667.045 1.667h-1.667l-.045-1.622v-1.667l-1.688.044h-1.667l-.045-1.622v-.022Zm.134 6.667v-1.667l1.622-.044.044 1.666 1.667-.044 1.667-.045h1.666l1.667-.066 1.667-.045v-1.666l-.067-1.667-.044-1.667-.045-1.666 1.667-.045 1.667-.044 1.666-.045 1.667-.044 1.667-.045.044 1.667.044 1.667.045 1.666.044 1.667v1.667l-1.622.022-1.667.044-1.666.045-1.667.044-1.667.045-1.666.044H160.2l-1.667.067-1.666.044-1.667.045-1.667.044-.044-1.667-.022.023Zm4.866-6.778 1.667-.045v-1.666l-1.689.044.045 1.667h-.023Zm6.556-5.133.044 1.666 1.667-.044-.044-1.667v-1.667l-.067-1.666-1.667.044.045 1.667v1.666h.022Zm.2 10 .044 1.666 1.667-.044-.044-1.667-.045-1.667v-1.666l-1.689.044.045 1.667v1.666h.022Zm3.133-10.067.045 1.666h1.666l-.044-1.688-.044-1.667-.045-1.667-1.667.045v1.666L168.2 85l.022-.022Zm.2 10 .045 1.666h1.666l-.044-1.688-.044-1.667-.045-1.667-1.667.045.045 1.666.044 1.667v-.022Zm-20.289 22.066.511-1.577.512-1.6.511-1.578.511-1.578.511-1.578 1.6.511 1.578.512 1.577.511 1.6.511 1.578.511-.511 1.578-.511 1.6-.511 1.577-.511 1.578-.511 1.6-.511 1.578-1.6-.511-1.578-.511-1.578-.511-1.578-.511-1.6-.512.511-1.577v-.023Zm2.089-1.088-.511 1.6 1.578.511 1.6.511 1.578.511.511-1.578.511-1.578.511-1.6.511-1.577-1.578-.512-1.6-.511-1.577-.511-.512 1.6-.511 1.578-.511 1.578v-.022Zm2.422-13.223 1.6.511 1.578.512-.511 1.577-1.578-.511-1.577-.511.511-1.578h-.023Zm2.667 2.6 1.6.511.511-1.577.511-1.578 1.578.511 1.578.511-.511 1.578-1.578-.511-.511 1.578-.511 1.577-1.6-.511-.511 1.578-1.6-.511.511-1.578.511-1.578h.022Zm2.689 2.6 1.578.511 1.578.512 1.577.511 1.6.511.511-1.578-1.577-.511-1.578-.511-1.6-.511.511-1.578 1.578.511 1.578.511 1.6.511.511-1.6 1.577.511-.511 1.578 1.578.511 1.578.511-.511 1.578L168 109.4l-1.6-.511-.511 1.6-.511 1.578-1.578-.511-1.578-.512-1.578-.511-1.6-.511-1.577-.511.511-1.578H158Zm1.244 12.623.512-1.6.511-1.578.511-1.578.511-1.6.511-1.578 1.6.511 1.578.511-.511 1.578-1.578-.511-.511 1.578-.511 1.6-.511 1.578-.512 1.577 1.578.512 1.6.511-.511 1.577-1.578-.511-1.577-.511-1.6-.511.511-1.578-.023.023Zm5.178-5.356 1.6.511-.511 1.578-1.578-.511.511-1.6-.022.022Zm1.089 2.089 1.578.511-.511 1.578-1.578-.511.511-1.6v.022Zm-27.578 18.022-.977 1.333-1.334-.977.978-1.334 1-1.333.978-1.333.978-1.334 1-1.333.977-1.333.978-1.334 1.334.978-.978 1.333-1 1.334-.978 1.333-.978 1.333-1 1.334-.978 1.333Zm2.334-.355.978-1.334 1.333 1-.978 1.334 1.333.977.978-1.333.978-1.333-1.333-.978.977-1.333-1.333-1 .978-1.334.978-1.333 1.333 1-1 1.333-.978 1.334 1.334.977 1.333.978 1.333 1 1.334.978.977-1.333-1.333-.978-1.333-.978 1-1.333-1.334-.978 1-1.333-1.333-1-1.333-.978.977-1.334 1.334 1 1.333.978.978-1.333 1-1.333 1.333.977-.978 1.334-1 1.333-.977 1.333-.978 1.334 1.333 1 1.334.977 1.333.978 1.333 1 .978-1.333.978-1.333 1.333.977-1 1.334-.978 1.333 1.334.978-1 1.333-1.334-1-1 1.333-.977 1.334 1.333 1-1 1.333-1.333-.978-1 1.334-.978 1.333-.978 1.333-1.333-.977 1-1.334.977-1.333.978-1.333-1.333-.978-1 1.333-.978 1.333-.978 1.334-1.333-1-1.333-.978.977-1.333 1.334 1 .978-1.334.977-1.333 1-1.333-1.333-.978-1.333-.978-1 1.333-.978 1.334 1.333.978-1 1.333-1.333-.978-1 1.333-1.333-1 .977-1.333-1.333-1-1.333-.978 1-1.333.111-.044Zm3.6-7.689.978-1.334 1.333.978-1 1.333-1.333-.977h.022Zm2.6-6.356 1.333.978-.978 1.333-1.333-1 1-1.333-.022.022Zm.355 2.333 1.334.978-.978 1.334-1.333-.978.977-1.334Zm4.445 13.623-.978 1.333 1.333.978.978-1.334.978-1.333-1.333-.978-1 1.334h.022Zm2.266-8.689 1.334 1-1 1.333-1.334-.978.978-1.333.022-.022Zm1.334 1 .978-1.334 1.333.978-.978 1.334-1.333-.978Zm3.044 4.311.978-1.333 1.333.977-1 1.334-1.333-.978h.022Zm-37.822 13.533.955 1.378.956 1.356-1.356.955-.955-1.355-.956-1.378 1.356-.956Zm4.089-2.866 1.378-.956 1.355-.956 1.378-.955 1.355-.956 1.378-.955 1.356-.956.955 1.356-1.355.955-1.378.956.956 1.378 1.355-.956.956 1.356.955 1.377 1.378-.955.956 1.355.955 1.378.956 1.356.955 1.378.956 1.355-1.356.956-1.378.955.956 1.378.956 1.356-1.356.955-1.378.956-1.355.955-1.378.956-.956-1.356 1.378-.955 1.356-.956 1.377-.955-.955-1.378-1.378.955-1.355.956-1.378.955-.956-1.377-1.355.955.955 1.378.956 1.356.955 1.377-1.377.956-.956-1.378-.956-1.355-.955-1.378-1.356.955-1.377.956-.956-1.356 1.378-.955 1.355-.956-.955-1.378-.956-1.355-.955-1.378-1.378.956-.956-1.356-.955-1.378 1.378-.955-.956-1.356 1.356-.955-.956-1.378 1.378-.956v.023Zm-.289 8.333.955 1.378.956 1.355-1.378.956-.955-1.356-.956-1.378 1.356-.955h.022Zm1.244-6.956-1.377.956.955 1.355-1.355.956.955 1.378.956 1.355 1.355-.955 1.378-.956-.956-1.355-.955-1.378 1.355-.956-.955-1.355-1.356.955Zm3.534 13.8.955 1.356.956 1.378-1.378.955-.956-1.378-.955-1.355 1.378-.956Zm.289-8.333-1.378.956.955 1.355.956 1.378 1.355-.956-.955-1.377 1.355-.956 1.378-.956 1.356-.955-.956-1.378-1.355.956-1.378.955-1.356.956.023.022Zm-1.089-7.378.955 1.378 1.356-.956-.956-1.377-1.355.955Zm1.911 2.734-1.378.955.956 1.356 1.377-.956 1.356-.955 1.378-.956-.956-1.378-1.378.956-1.355.955v.023Zm3.822 5.466-1.378.956.956 1.378 1.355-.956 1.378-.956-.955-1.377-1.356.955Zm2.044-11.6.956 1.356.956 1.378-1.356.955-.956-1.378-.955-1.355 1.355-.956Zm-1.222 6.956.956 1.378 1.355-.956-.955-1.378-1.356.956Zm1.911 2.733.956 1.378 1.378-.956-.956-1.377-1.355.955h-.023Zm-39.377 11.645 4.288-.645-1.111-4.133h.045l3.466 2.533 2.223-3.689h.066l.534 4.267 4.222-1.022.044.066-2.666 3.4 3.733 2.245v.066l-4.289.512 1.067 4.2-.089.044-3.356-2.622-2.133 3.711h-.089l-.622-4.289-4.156 1.156v-.045l2.578-3.489-3.778-2.133v-.089l.023-.044Z" fill="#231815"/><path d="m94.757 69.534 5.271-3.435c.076-.05.036-.167-.054-.164l-3.088.12 6.473-6.235c.073-.07-.007-.187-.097-.143l-8.585 3.926 1.268-2.767c.036-.08-.057-.16-.13-.11l-6.13 4.147 2.805-.067-.286 1.948 3.132-.27-.583 3.053.004-.003Z" fill="url(#paint0_linear_774_382)"/><path d="m121.857 104.042 4.262-2.937c.097-.067.047-.217-.069-.211l-2.49.124 4.593-4.117c.093-.083.003-.24-.117-.197l-5.78 2.059 1.304-1.999a.116.116 0 0 0-.126-.177l-4.093 1.213 1.883.896-1.301 2.305 2.34.555-.4 2.486h-.006Z" fill="url(#paint1_linear_774_382)"/><path d="m119.015 80.418 4.592-4.064c.093-.083.02-.24-.103-.22l-2.735.448 5.78-5.136c.106-.094 0-.264-.13-.214l-7.82 3 1.91-2.907c.067-.103-.036-.234-.153-.187l-6.505 2.677 3.64.992-1.265 2.687h3.148l-.359 2.92v.004Z" fill="url(#paint2_linear_774_382)"/><path d="m77.952 75.275 12.775-4.591a1.6 1.6 0 0 1 1.963.768c.51.986 1.288 2.266 2.093 2.767 1.385.855 9.021-3.034 10.762-1.714 1.74 1.32-.353 3.675.532 4.782.889 1.102 7.674-.93 9.308 1.102 1.633 2.035-1.278 6.102-.676 7.455.606 1.357 5.933 1.607 6.289 3.495.353 1.892-.426 3.389-5.896 10.987-1.671 2.496 2.735 2.142 2.805 3.997.07 1.854-13.79 18.128-32.125 21.195-18.335 3.068-28.924-5.26-33.725-14.686-4.802-9.423-.856-22.271 16.508-32.316a577.224 577.224 0 0 1 6.21-13.463.437.437 0 0 1 .821.094l2.356 10.128Z" fill="#FFE600"/><path d="M66.582 83.07a301.97 301.97 0 0 1 1.983-4.554 576.9 576.9 0 0 1 6.21-13.463.437.437 0 0 1 .821.094l2.356 10.128 1.607 6.91" stroke="#333434" stroke-width="2.222" stroke-miterlimit="10"/><path d="M68.565 78.516C51.2 88.561 47.255 101.41 52.057 110.832c4.801 9.426 15.39 17.754 33.725 14.686 18.335-3.068 32.195-19.341 32.125-21.195-.07-1.855-4.476-1.501-2.805-3.997 5.47-7.598 6.249-9.095 5.896-10.987-.356-1.888-5.683-2.138-6.289-3.495-.602-1.353 2.309-5.42.676-7.455-1.634-2.031-8.419 0-9.308-1.102-.885-1.107 1.208-3.462-.532-4.782-1.741-1.32-9.377 2.57-10.762 1.714-.805-.501-1.584-1.781-2.093-2.767a1.6 1.6 0 0 0-1.963-.768l-12.775 4.59" stroke="#333434" stroke-width="2.222" stroke-miterlimit="10"/><path d="M79.999 99.828a2.798 2.798 0 0 1-2.789-2.8c0-1.544 1.251-2.8 2.789-2.8a2.795 2.795 0 0 1 2.785 2.8c0 1.544-1.251 2.8-2.785 2.8Z" fill="#333434"/><path d="M79.999 94.398a2.625 2.625 0 0 1 2.618 2.63c0 1.45-1.174 2.63-2.618 2.63a2.627 2.627 0 0 1-2.62-2.63c0-1.45 1.175-2.63 2.62-2.63Zm0-.334a2.962 2.962 0 0 0-2.952 2.964 2.962 2.962 0 0 0 2.952 2.964 2.962 2.962 0 0 0 2.951-2.964A2.962 2.962 0 0 0 80 94.064Zm-17.604 5.764a2.795 2.795 0 0 1-2.785-2.8c0-1.544 1.251-2.8 2.785-2.8a2.8 2.8 0 0 1 2.789 2.8c0 1.544-1.251 2.8-2.789 2.8Z" fill="#333434"/><path d="M62.395 94.398a2.625 2.625 0 0 1 2.62 2.63c0 1.45-1.175 2.63-2.62 2.63a2.627 2.627 0 0 1-2.619-2.63c0-1.45 1.175-2.63 2.62-2.63Zm0-.334a2.962 2.962 0 0 0-2.951 2.964 2.962 2.962 0 0 0 2.951 2.964 2.962 2.962 0 0 0 2.952-2.964 2.962 2.962 0 0 0-2.952-2.964Z" fill="#333434"/><defs><linearGradient id="paint0_linear_774_382" x1="90.673" y1="67.159" x2="102.183" y2="59.788" gradientUnits="userSpaceOnUse"><stop stop-color="#00C7FF" stop-opacity=".1"/><stop offset=".36" stop-color="#FFD600" stop-opacity=".43"/><stop offset=".67" stop-color="#FFD600" stop-opacity=".69"/><stop offset=".89" stop-color="#FFD600" stop-opacity=".84"/><stop offset="1" stop-color="#FFD600" stop-opacity=".9"/></linearGradient><linearGradient id="paint1_linear_774_382" x1="119.979" y1="102.244" x2="128.045" y2="97.829" gradientUnits="userSpaceOnUse"><stop stop-color="#00C7FF" stop-opacity=".1"/><stop offset=".36" stop-color="#FFD600" stop-opacity=".43"/><stop offset=".67" stop-color="#FFD600" stop-opacity=".69"/><stop offset=".89" stop-color="#FFD600" stop-opacity=".84"/><stop offset="1" stop-color="#FFD600" stop-opacity=".9"/></linearGradient><linearGradient id="paint2_linear_774_382" x1="114.769" y1="78.179" x2="125.546" y2="71.359" gradientUnits="userSpaceOnUse"><stop stop-color="#00C7FF" stop-opacity=".1"/><stop offset=".36" stop-color="#FFD600" stop-opacity=".43"/><stop offset=".67" stop-color="#FFD600" stop-opacity=".69"/><stop offset=".89" stop-color="#FFD600" stop-opacity=".84"/><stop offset="1" stop-color="#FFD600" stop-opacity=".9"/></linearGradient></defs></svg>