<svg width="34" height="33" fill="none" xmlns="http://www.w3.org/2000/svg"><rect x="1.206" y="1.406" width="31.919" height="31" rx="4.206" fill="#E2CCAF"/><path d="M20.994 13.507h-1.49v-1.485h-1.486V10.53h-1.49V9.046h-1.492V7.555h-1.485v-1.49H10.57v2.98h1.491v1.486h1.491v1.49h1.485v1.486h1.491v1.49h1.49v2.977h-1.49v1.49h-1.49v1.491H13.55v1.486h-1.49v1.49h-1.492v2.976h2.982v-1.49h1.485V23.93h1.491v-1.49h1.49v-1.486h1.486v-1.49h1.49v-1.491h1.486v-2.976h-1.485v-1.491Z" fill="#fff"/><path d="M22.93 14.546h-.191v-.65h-1.293v-.84h-.198v-.645h-1.293v-.841h-.198v-.65h-1.293v-.84h-.198v-.65h-1.293v-.842h-.192v-.65h-1.293v-.84h-.198v-.644h-1.293v-.842h-3.88v3.885h1.294v.842h.197v.65h1.294v.84h.197v.65h1.293v.841h.198v.644h1.293v.842h.192v.65h1.294v.84h.197v1.232h-1.49v1.485H14.59v1.49h-1.485v1.486H11.62v1.485h-1.502v3.885h1.293v.841h3.88v-1.485h1.49V25.23h1.485v-1.49h1.486v-1.486h1.485V20.77h1.49v-1.485h1.486v-3.885h-1.294v-.842l.012-.011Zm-.45 3.428h-1.486v1.485h-1.485v1.49h-1.486v1.486h-1.49v1.485h-1.486v1.485h-1.485v1.491H10.57V23.92h1.491v-1.485h1.485V20.95h1.486v-1.491h1.485v-1.485h1.49v-2.976h-1.49v-1.491H15.03v-1.485h-1.486v-1.486H12.06V9.052h-1.49V6.064h2.975V7.55h1.486V9.04h1.485v1.485h1.49v1.485h1.486v1.486h1.485v1.49h1.485v2.976l.017.012Z" fill="#231815"/><rect x="1.206" y="1.406" width="31.919" height="31" rx="4.206" stroke="#231815"/></svg>