<svg width="80" height="80" fill="none" xmlns="http://www.w3.org/2000/svg"><path d="M79.5 40c0 21.815-17.685 39.5-39.5 39.5S.5 61.815.5 40 18.185.5 40 .5 79.5 18.185 79.5 40Z" fill="#E86546" stroke="#231815"/><g clip-path="url(#a)"><path d="M50.445 32.776h-3.168V29.62h-3.156v-3.168h-3.168v-3.156h-3.168v-3.168H34.63V16.96h-6.336v6.336h3.168v3.156h3.168v3.168h3.156v3.156h3.168v3.168h3.168v6.324h-3.168v3.168h-3.168v3.168H34.63v3.156h-3.168v3.168h-3.168v6.324h6.336v-3.168h3.156v-3.156h3.168V51.76h3.168v-3.156h3.156v-3.168h3.168v-3.168h3.156v-6.324h-3.156v-3.168Z" fill="#fff"/><path d="M54.561 34.984h-.408v-1.38h-2.748v-1.788h-.42v-1.368h-2.748V28.66h-.42v-1.38H45.07v-1.788h-.42v-1.38h-2.748v-1.788h-.408v-1.38h-2.748v-1.788h-.42v-1.368h-2.748V16h-8.244v8.256h2.748v1.788h.42v1.38h2.748v1.788h.42v1.38h2.748v1.788h.42v1.368h2.748v1.788h.408v1.38h2.748v1.788h.42v2.616h-3.168v3.156h-3.156v3.168h-3.156V50.8h-3.156v3.156h-3.192v8.256h2.748V64h8.244v-3.156h3.168v-3.156h3.156V54.52h3.156v-3.156h3.156v-3.156h3.168v-3.156h3.156v-8.256h-2.748v-1.788l.024-.024Zm-.96 7.284h-3.156v3.156H47.29v3.168h-3.156v3.156h-3.168v3.156H37.81v3.156h-3.156v3.168h-6.36v-6.324h3.168v-3.156h3.156v-3.156h3.156v-3.168h3.156v-3.156h3.168v-6.324H40.93v-3.168h-3.156V29.62h-3.156v-3.156h-3.156v-3.156h-3.168V16.96h6.324v3.156h3.156v3.168h3.156v3.156h3.168v3.156h3.156v3.156h3.156v3.168h3.156v6.324l.036.024Z" fill="#231815"/></g><defs><clipPath id="a"><path fill="#fff" transform="translate(27.333 16)" d="M0 0h29.988v48H0z"/></clipPath></defs></svg>