<svg fill="none" xmlns="http://www.w3.org/2000/svg" viewBox="0 0 97 82"><path d="m55.38 11.99 6.403-4.174c.093-.061.045-.203-.064-.2l-3.752.147L65.83.187c.089-.085-.008-.227-.118-.175l-10.43 4.77 1.54-3.36c.044-.098-.07-.196-.158-.135l-7.447 5.039 3.408-.082-.348 2.367 3.805-.328-.708 3.71.004-.004Z" fill="url(#paint0_linear_201_11710)"/><path d="m88.306 53.916 5.18-3.569c.117-.08.056-.264-.086-.255l-3.024.15 5.58-5.002c.113-.102.004-.292-.142-.24l-7.023 2.501 1.585-2.427a.141.141 0 0 0-.154-.216l-4.972 1.474 2.288 1.088-1.581 2.801 2.842.675-.485 3.02h-.008Z" fill="url(#paint1_linear_201_11710)"/><path d="m84.853 25.212 5.58-4.937c.113-.101.024-.292-.126-.268l-3.323.544 7.023-6.24c.13-.114 0-.32-.158-.26l-9.501 3.646 2.32-3.532c.081-.126-.044-.284-.185-.227l-7.905 3.252 4.423 1.205-1.536 3.265h3.825l-.437 3.548v.004Z" fill="url(#paint2_linear_201_11710)"/><path d="m34.962 18.964 15.521-5.578a1.943 1.943 0 0 1 2.386.934c.618 1.197 1.564 2.752 2.543 3.361 1.681 1.04 10.96-3.686 13.075-2.083 2.114 1.604-.429 4.466.647 5.81 1.08 1.34 9.323-1.129 11.308 1.34 1.985 2.473-1.552 7.413-.82 9.058.735 1.648 7.208 1.953 7.64 4.246.43 2.298-.517 4.117-7.163 13.35-2.03 3.032 3.323 2.602 3.408 4.855.085 2.254-16.755 22.026-39.032 25.753C22.198 83.737 9.333 73.62 3.5 62.166c-5.835-11.449-1.04-27.06 20.057-39.264a701.201 701.201 0 0 1 7.545-16.357.53.53 0 0 1 .998.113l2.863 12.306Z" fill="#FFE600"/><path d="M21.147 28.436a365.084 365.084 0 0 1 2.41-5.534A701.712 701.712 0 0 1 31.1 6.545a.53.53 0 0 1 .998.113l2.863 12.306 1.953 8.396" stroke="#231815" stroke-miterlimit="10"/><path d="M23.556 22.902C2.46 35.107-2.336 50.717 3.5 62.166 9.333 73.62 22.198 83.736 44.475 80.01c22.277-3.728 39.117-23.5 39.032-25.753-.085-2.253-5.438-1.823-3.408-4.855 6.646-9.233 7.593-11.052 7.164-13.35-.433-2.293-6.906-2.598-7.642-4.246-.731-1.645 2.806-6.585.821-9.058-1.985-2.468-10.229 0-11.308-1.34-1.076-1.344 1.467-4.206-.647-5.81-2.115-1.603-11.393 3.123-13.075 2.083-.979-.609-1.925-2.164-2.544-3.361a1.943 1.943 0 0 0-2.385-.934l-15.521 5.578" stroke="#231815" stroke-miterlimit="10"/><path d="M37.448 48.797a3.4 3.4 0 0 1-3.388-3.403 3.4 3.4 0 0 1 3.388-3.402c1.868 0 3.384 1.527 3.384 3.402 0 1.876-1.52 3.403-3.384 3.403Z" fill="#333434"/><path d="M37.448 42.199a3.19 3.19 0 0 1 3.182 3.195 3.192 3.192 0 0 1-3.182 3.195 3.192 3.192 0 0 1-3.182-3.195 3.192 3.192 0 0 1 3.182-3.195Zm0-.406c-1.977 0-3.586 1.616-3.586 3.601 0 1.986 1.61 3.601 3.586 3.601a3.598 3.598 0 0 0 3.587-3.6c0-1.986-1.61-3.602-3.587-3.602Z" fill="#231815"/><path d="M16.06 48.797c-1.867 0-3.384-1.527-3.384-3.403 0-1.875 1.52-3.402 3.384-3.402a3.403 3.403 0 0 1 3.389 3.402 3.4 3.4 0 0 1-3.389 3.403Z" fill="#333434"/><path d="M16.06 42.199a3.19 3.19 0 0 1 3.182 3.195 3.192 3.192 0 0 1-3.182 3.195 3.192 3.192 0 0 1-3.181-3.195A3.192 3.192 0 0 1 16.06 42.2Zm0-.406c-1.977 0-3.586 1.616-3.586 3.601 0 1.986 1.61 3.601 3.586 3.601a3.598 3.598 0 0 0 3.587-3.6c0-1.986-1.61-3.602-3.587-3.602Z" fill="#231815"/><defs><linearGradient id="paint0_linear_201_11710" x1="50.418" y1="9.103" x2="64.402" y2=".148" gradientUnits="userSpaceOnUse"><stop stop-color="#00C7FF" stop-opacity=".1"/><stop offset=".36" stop-color="#FFD600" stop-opacity=".43"/><stop offset=".67" stop-color="#FFD600" stop-opacity=".69"/><stop offset=".89" stop-color="#FFD600" stop-opacity=".84"/><stop offset="1" stop-color="#FFD600" stop-opacity=".9"/></linearGradient><linearGradient id="paint1_linear_201_11710" x1="86.025" y1="51.732" x2="95.825" y2="46.367" gradientUnits="userSpaceOnUse"><stop stop-color="#00C7FF" stop-opacity=".1"/><stop offset=".36" stop-color="#FFD600" stop-opacity=".43"/><stop offset=".67" stop-color="#FFD600" stop-opacity=".69"/><stop offset=".89" stop-color="#FFD600" stop-opacity=".84"/><stop offset="1" stop-color="#FFD600" stop-opacity=".9"/></linearGradient><linearGradient id="paint2_linear_201_11710" x1="79.694" y1="22.492" x2="92.789" y2="14.206" gradientUnits="userSpaceOnUse"><stop stop-color="#00C7FF" stop-opacity=".1"/><stop offset=".36" stop-color="#FFD600" stop-opacity=".43"/><stop offset=".67" stop-color="#FFD600" stop-opacity=".69"/><stop offset=".89" stop-color="#FFD600" stop-opacity=".84"/><stop offset="1" stop-color="#FFD600" stop-opacity=".9"/></linearGradient></defs></svg>