<svg fill="none" xmlns="http://www.w3.org/2000/svg" viewBox="0 0 133 33">
  <g filter="url(#filter0_d_787_16591)" fill="currentColor">
    <path d="M1.487 3.333H4.82V0h13.334v3.333h3.333v3.334h-3.333V3.333H4.82v10h13.334v3.334h3.333v10h-3.333V30H4.82v-3.333H1.487v-3.334H4.82v3.334h13.334v-10H4.82v-3.334H1.487v-10Zm23.32 0V0h23.334v3.333h-10V30h-3.334V3.333h-10ZM48.167 30v-6.667H51.5v-10h3.333V6.667h3.334V0H61.5v6.667h3.333v6.666h3.334v10H71.5V30h-3.333v-6.667H51.5V30h-3.333Zm10-16.667h-3.334V20h10v-6.667H61.5V6.667h-3.333v6.666ZM74.846 30V0h16.667v3.333h3.333v10h-3.333v3.334h-6.667V20h3.334v3.333h3.333v3.334h3.333V30h-3.333v-3.333H88.18v-3.334h-3.334V20h-3.333v-3.333H78.18V30h-3.334ZM91.513 3.333H78.18v10h13.333v-10Zm6.654 0V0H121.5v3.333h-10V30h-3.333V3.333h-10Zm30.013 23.334h3.333V30h-3.333v-3.333Zm3.333-3.334h-3.333V0h3.333v23.333Z" />
  </g>
  <path fill-rule="evenodd" clip-rule="evenodd" d="M.487 3.333H3.82V0h15.334v3.333h3.333v5.334h-5.333V5.333H5.82v8h13.334v3.334h3.333v12h-3.333V32H3.82v-3.333H.487v-5.334H5.82v3.334h11.334v-8H3.82v-3.334H.487v-12Zm4.333 11v3.334h13.334v10H4.82v-3.334H1.487v3.334H4.82V31h13.334v-3.333h3.333v-10h-3.333v-3.334H4.82v-10h13.334v3.334h3.333V4.333h-3.333V1H4.82v3.333H1.487v10H4.82Zm18.987-9V0h25.334v5.333h-10V32h-5.334V5.333h-10Zm11-1V31h3.334V4.333h10V1H24.807v3.333h10ZM47.167 32v-8.667H50.5v-10h3.333V6.667h3.334V0H62.5v6.667h3.333v6.666h3.334v10H72.5V32h-5.333v-6.667H52.5V32h-5.333Zm4.333-7.667h16.667V31H71.5v-6.667h-3.333v-10h-3.334V7.667H61.5V1h-3.333v6.667h-3.334v6.666H51.5v10h-3.333V31H51.5v-6.667Zm3.333-10V21h10v-6.667H61.5V7.667h-3.333v6.666h-3.334Zm1 1V20h8v-4.667H60.5V8.667h-1.333v6.666h-3.334ZM73.846 32V0h18.667v3.333h3.333v12h-3.333v3.334h-6.667V20h3.334v3.333h3.333v3.334h3.333V32h-5.333v-3.333H87.18v-3.334h-3.334V22h-3.333v-3.333H79.18V32h-5.334Zm4.334-14.333h3.333V21h3.333v3.333h3.334v3.334h3.333V31h3.333v-3.333h-3.333v-3.334H88.18V21h-3.334v-3.333h6.667v-3.334h3.333v-10h-3.333V1H74.846v30h3.334V17.667ZM91.513 4.333H78.18v10h13.333v-10Zm-1 1H79.18v8h11.333v-8Zm6.654 0V0H122.5v5.333h-10V32h-5.333V5.333h-10Zm11-1V31h3.333V4.333h10V1H98.167v3.333h10Zm19.013 22.334h5.333V32h-5.333v-5.333Zm5.333-1.334h-5.333V0h5.333v25.333Zm-4.333 2.334V31h3.333v-3.333h-3.333Zm3.333-3.334V1h-3.333v23.333h3.333Z" fill="#231815" />
  <defs>
    <filter id="filter0_d_787_16591" x="1.487" y="0" width="130.026" height="33" filterUnits="userSpaceOnUse" color-interpolation-filters="sRGB">
      <feFlood flood-opacity="0" result="BackgroundImageFix" />
      <feColorMatrix in="SourceAlpha" values="0 0 0 0 0 0 0 0 0 0 0 0 0 0 0 0 0 0 127 0" result="hardAlpha" />
      <feOffset dy="3" />
      <feComposite in2="hardAlpha" operator="out" />
      <feColorMatrix values="0 0 0 0 0 0 0 0 0 0 0 0 0 0 0 0 0 0 1 0" />
      <feBlend in2="BackgroundImageFix" result="effect1_dropShadow_787_16591" />
      <feBlend in="SourceGraphic" in2="effect1_dropShadow_787_16591" result="shape" />
    </filter>
  </defs>
</svg>