<svg fill="none" xmlns="http://www.w3.org/2000/svg" viewBox="0 0 44 37"><path d="m25.558 5.828 2.846-1.855c.041-.027.02-.09-.029-.088l-1.668.065L30.203.583c.04-.038-.003-.101-.052-.078l-4.636 2.12.685-1.493c.02-.044-.03-.087-.07-.06l-3.31 2.24 1.515-.037-.155 1.052 1.691-.146-.314 1.65.002-.003Z" fill="url(#paint0_linear_759_16297)"/><path d="m40.192 24.463 2.301-1.586c.053-.037.026-.118-.037-.114l-1.344.067 2.48-2.223c.05-.046.001-.13-.063-.107l-3.122 1.112.705-1.08a.063.063 0 0 0-.069-.095l-2.21.655 1.017.484-.702 1.245 1.263.3-.216 1.342h-.003Z" fill="url(#paint1_linear_759_16297)"/><path d="m38.657 11.705 2.48-2.194c.05-.045.01-.13-.056-.119l-1.477.242 3.121-2.773c.058-.05 0-.143-.07-.116l-4.223 1.62 1.032-1.57c.036-.055-.02-.126-.083-.1L35.868 8.14l1.966.536-.683 1.45h1.7l-.194 1.578v.001Z" fill="url(#paint2_linear_759_16297)"/><path d="m16.483 8.928 6.898-2.479a.864.864 0 0 1 1.06.415c.276.532.696 1.224 1.13 1.494.748.462 4.872-1.638 5.812-.925.94.712-.19 1.984.288 2.582.48.595 4.143-.502 5.026.595.882 1.1-.69 3.295-.365 4.026.327.732 3.204.868 3.396 1.887.19 1.021-.23 1.83-3.184 5.933-.902 1.348 1.477 1.157 1.515 2.158.037 1.002-7.447 9.79-17.348 11.446-9.9 1.656-15.619-2.84-18.212-7.93s-.461-12.027 8.915-17.451a311.474 311.474 0 0 1 3.353-7.27.236.236 0 0 1 .444.05l1.272 5.47Z" fill="#F590A8"/><path d="M10.343 13.138c.343-.808.706-1.638 1.07-2.46a311.799 311.799 0 0 1 3.354-7.27.236.236 0 0 1 .444.051l1.272 5.47.868 3.731" stroke="#231815" stroke-miterlimit="10"/><path d="M11.414 10.679C2.038 16.103-.094 23.04 2.499 28.129c2.593 5.09 8.311 9.587 18.212 7.93 9.901-1.656 17.385-10.443 17.348-11.445-.038-1.001-2.417-.81-1.515-2.158 2.954-4.103 3.375-4.911 3.184-5.933-.192-1.02-3.07-1.155-3.396-1.887-.325-.73 1.247-2.927.365-4.026-.883-1.097-4.547 0-5.026-.595-.478-.598.652-1.87-.288-2.582-.94-.713-5.064 1.387-5.811.925-.435-.27-.855-.961-1.13-1.494a.864.864 0 0 0-1.06-.415l-6.899 2.48" stroke="#231815" stroke-miterlimit="10"/><path d="M17.588 22.187a1.51 1.51 0 0 1-1.506-1.512 1.51 1.51 0 0 1 1.506-1.512c.83 0 1.504.678 1.504 1.512a1.51 1.51 0 0 1-1.504 1.512Z" fill="#333434"/><path d="M17.588 19.255c.782 0 1.414.637 1.414 1.42 0 .783-.634 1.42-1.414 1.42-.78 0-1.414-.637-1.414-1.42 0-.783.634-1.42 1.414-1.42Zm0-.18a1.6 1.6 0 0 0-1.594 1.6 1.6 1.6 0 0 0 1.594 1.6 1.6 1.6 0 0 0 1.594-1.6 1.6 1.6 0 0 0-1.594-1.6Z" fill="#231815"/><path d="M8.082 22.187a1.51 1.51 0 0 1-1.504-1.512 1.51 1.51 0 0 1 1.504-1.512 1.512 1.512 0 0 1 0 3.024Z" fill="#333434"/><path d="M8.082 19.255c.782 0 1.415.637 1.415 1.42 0 .783-.635 1.42-1.415 1.42s-1.414-.637-1.414-1.42c0-.783.635-1.42 1.414-1.42Zm0-.18a1.6 1.6 0 0 0-1.593 1.6 1.6 1.6 0 0 0 1.593 1.6 1.6 1.6 0 0 0 1.594-1.6 1.6 1.6 0 0 0-1.594-1.6Z" fill="#231815"/><defs><linearGradient id="paint0_linear_759_16297" x1="23.352" y1="4.546" x2="29.567" y2=".566" gradientUnits="userSpaceOnUse"><stop stop-color="#00C7FF" stop-opacity=".1"/><stop offset=".36" stop-color="#FFD600" stop-opacity=".43"/><stop offset=".67" stop-color="#FFD600" stop-opacity=".69"/><stop offset=".89" stop-color="#FFD600" stop-opacity=".84"/><stop offset="1" stop-color="#FFD600" stop-opacity=".9"/></linearGradient><linearGradient id="paint1_linear_759_16297" x1="39.178" y1="23.492" x2="43.533" y2="21.108" gradientUnits="userSpaceOnUse"><stop stop-color="#00C7FF" stop-opacity=".1"/><stop offset=".36" stop-color="#FFD600" stop-opacity=".43"/><stop offset=".67" stop-color="#FFD600" stop-opacity=".69"/><stop offset=".89" stop-color="#FFD600" stop-opacity=".84"/><stop offset="1" stop-color="#FFD600" stop-opacity=".9"/></linearGradient><linearGradient id="paint2_linear_759_16297" x1="36.364" y1="10.496" x2="42.184" y2="6.814" gradientUnits="userSpaceOnUse"><stop stop-color="#00C7FF" stop-opacity=".1"/><stop offset=".36" stop-color="#FFD600" stop-opacity=".43"/><stop offset=".67" stop-color="#FFD600" stop-opacity=".69"/><stop offset=".89" stop-color="#FFD600" stop-opacity=".84"/><stop offset="1" stop-color="#FFD600" stop-opacity=".9"/></linearGradient></defs></svg>