<svg fill="none" xmlns="http://www.w3.org/2000/svg" viewBox="0 0 133 30"><g clip-path="url(#clip0_94_5675)"><path d="M3.604 11.427h3.13v-3.13h-3.13V6.734H.474v3.13h3.13v1.564Zm3.129 4.694H5.17v-1.564H.474v3.129h3.13v6.259H2.039v1.57H.474v3.13h3.13V27.08h3.13v1.564h21.91v-3.129H8.298v-1.57H6.733V16.12ZM3.604.474H.474v3.13h3.13v1.564h3.13V2.04h-3.13V.474Z" fill="#fff"/><path d="M22.38.474h-3.13v4.694h-1.564V3.604h-3.13V.474h-3.129v3.13h-3.13v3.13h1.566V19.25H8.298v4.695h3.13V19.25h1.564v-6.258h1.565v7.823h-1.565v3.13h3.13V22.38h1.564V11.427H16.12V9.862h-3.13V6.733h4.695v1.565h1.565v3.13h6.258v1.564h-1.564v1.564H19.25v3.13h4.694v3.13H22.38V19.25h-3.13v3.13h1.565v1.565h4.694V22.38h1.565v-4.694h1.57v-3.13h-1.57v-1.564h1.57v-3.13h-1.57V8.298h-6.259V6.733h1.565V5.168h6.264V2.04H22.38V.474Zm38.71 1.565h-3.13V.474h-3.129v7.824h-3.129V6.733h-1.565V5.168h-4.694V3.604h4.694V.474h-7.823v4.694H37.62v1.565h-1.565V25.51h-1.564v3.13h3.129v-3.13h1.565v-7.823h1.564v3.13h1.565v1.564H40.75v1.565h1.565v1.564h-3.13v3.13h7.824v-1.565h4.694v1.565h3.13v-1.565h1.564V25.51h1.565v1.565h1.565v1.565h1.564v-1.565h1.565v-6.259H61.09v3.13h-1.565v-3.13h1.565v-3.13h1.565v-4.693h-3.13v4.694h-1.564v-6.259h4.694v-3.13H57.96V5.169h1.565v1.565h3.129v-3.13H61.09V2.04ZM39.185 8.298h3.13v1.564h-3.13V8.298Zm0 6.258v-3.129h3.13v1.565h1.564v1.564h-4.694Zm7.823 10.953h-1.565v-1.564H43.88V22.38h3.13v3.13Zm1.565-6.259h-4.694v-1.564h4.694v1.564Zm7.823 3.13h-1.565v1.565h-1.564v1.564h-1.565v-1.564h-1.565v-3.13h1.565v-3.13h1.565v-3.128h-3.13v-1.565h1.565v-1.565h-3.13v1.565h-3.129v-1.565h3.13V9.862h-3.13V8.298h3.13v1.564h3.13v1.565h3.128v7.823h1.565v3.13ZM84.154.474h-3.13v3.13H68.507v3.13h6.259v9.387H73.2v4.694h-1.565v3.13h-1.564v1.57h-1.565v3.13h3.13v-1.566H73.2v-1.564h1.565V22.38h1.564v-4.694h1.565v-4.694h12.517v10.953h-1.564v1.57h-6.259v3.13h7.823v-1.566h1.565v-1.564h1.565V11.427h-1.565V9.862H77.895V6.733H96.67v-3.13H84.154V.475Zm19.934 14.083h4.694v9.388h-6.259v3.135h7.823v-1.565h7.824V22.38h-6.259v-7.823h4.694v-3.13h-12.517v3.13Z" fill="#fff"/><path d="M129.123 2.039h-1.565V.474h-3.129v3.13h1.564v1.564h-4.694V.474h-3.129v4.694h-15.647v3.13h15.647v6.258h1.565v4.694h1.564v4.695h1.565v1.57h1.565v1.564h1.564v1.565h3.13V27.08h1.564v-7.83h-3.129v4.695h-1.565V22.38h-1.564v-4.694h-1.565v-4.694h-1.565V8.298h9.388v-3.13h-1.564V2.04Z" fill="#fff"/><path d="M1.361 11.224H3.13v.678h1.362v.887h4.084V8.705H7.213v-.887H5.445V7.14H4.084v-.887H0v4.084h1.361v.887ZM.474 9.863v-3.13h3.13v1.565h3.13v3.13h-3.13V9.862H.474Z" fill="#000"/><path d="M29.119 1.565H24.22V.887h-1.36V0h-4.085v4.016h-.61V3.13h-1.768V.887h-1.361V0h-4.084v3.13H8.569v-.678H7.208v-.887H5.44V.887H4.078V0H0v4.084h1.361v.887H3.13v.683h1.362v.887h3.332v.678h1.362v.887h.203v10.681H8.57v-2.242H7.208v-.887h-.204v-.678H5.643v-.887H0v4.084h1.361v.887H3.13v4.423H1.565v1.565H0v4.084h1.361v.887h4.084v-1.565h.814v.683H7.62v.887h22.86v-4.084h-1.36v-.887h-1.77v-1.293h1.565V19.07h1.564v-4.084H29.12v-.61h1.361v-4.084H29.12v-.887h-.203v-.678h-1.362V7.84h-3.333V6.547h6.26V2.463H29.12v-.898ZM6.733 5.169h-3.13V3.604H.475V.474h3.13V2.04h3.13v3.13Zm21.906 0H22.38v1.564h-1.565v1.565h6.259v1.565h1.565v3.129h-1.565v1.565h1.565v3.129h-1.565v4.694h-1.565v1.565h-4.694V22.38h-1.564v-3.13h3.129v1.565h1.565v-3.13H19.25v-3.128h4.694v-1.565h1.564v-1.565H19.25v-3.13h-1.565V6.734h-4.694v3.13h3.13v1.564h1.564V22.38H16.12v1.565h-3.13v-3.13h1.566v-7.823h-1.565v6.259h-1.565v4.694h-3.13v1.564H28.64v3.13H6.733v-1.565h-3.13v1.565H.475v-3.13H2.04v-1.564h1.565v-6.26H.474v-3.128H5.17v1.564h1.564v7.824h1.565V19.25h1.565V6.733H8.298v-3.13h3.13V.475h3.129v3.13h3.129V5.17h1.565V.474h3.129V2.04h6.259v3.13Zm-13.811 4.22V8.094h2.383v.677h1.362v.887h.203v2.175h-.61v-.887h-.203v-.678H16.6v-.887h-1.768l-.005.006Zm3.13 14.352h1.564v-.886h.61v.886h.203v.684h1.361v.61h-3.739V23.74Zm1.564-4.965v-.61h.61v.61h-.61Zm3.333.887v-.61h.61v.61h-.61Zm.61-6.874v1.293h-3.949v-2.175h.61v.887h3.333l.006-.005Zm-9.592 11.636v.61h-.61v-.61h.61Zm40.958-12.998h-3.129v1.565h-1.564v1.565h3.129v3.129h-1.565v3.13h-1.564v3.129h1.564v1.564h1.565v-1.564h1.564V22.38h1.565v-3.13h-1.565v-7.823Zm-1.293 1.362h.819v2.174h-.61v-.886h-.203v-1.294l-.006.006Zm2.175 6.942v.887h.203v1.293h-1.565v1.565h-1.564v.887h-.61v-.887h-.204v-1.294h1.565v-3.13h.819v.679h1.361-.005Z" fill="#000"/><path d="M63.135 3.13h-.203v-.678H61.57v-.887h-1.768V.887h-1.361V0h-4.084v7.823h-.82v-.677h-1.36v-.887h-.204v-.684h-1.361v-.61h1.361V.887h-1.361V0h-8.778v4.694H37.14v1.565h-1.565v18.776H34.01v4.084h1.362v.887h4.084v-.887h.61v.887h8.778V28.44h2.384v.684h1.361v.886h4.084v-1.564h1.565v-.887h.61v.887h.203v.683h1.361v.887h2.52v-1.565h1.564V21.24h-1.361v-.887h-.203V19.06h1.564v-5.65h-1.361v-.61h1.361V8.717h-1.361v-.61h1.361V4.022h-1.361v-.893Zm-.474 3.603h-3.13V5.17h-1.564v3.129h4.694v3.13h-4.694v6.258h1.564v-4.694h3.13v4.694h-1.565v3.13h1.565v6.258h-1.565v1.565H59.53v-1.565h-1.564V25.51h-1.565v1.565h-1.565v1.565h-3.13v-1.565h-4.693v1.565H39.19v-3.13h-1.564v3.13h-3.13v-3.13h1.565V6.733h1.565V5.17h4.694V.474h7.823v3.13H45.45v1.565h4.694v1.564h1.565v1.565h3.13V.474h3.129V2.04h3.129v1.565h1.565v3.13Zm-2.243.475v.61h-.61v-.61h.61Z" fill="#000"/><path d="M48.573 11.427h-3.13v1.565h3.13v-1.565Zm-4.694 12.518h1.564v1.564h1.565v-3.13h-3.13v1.566Zm2.039-.204h.61v.61h-.61v-.61ZM42.314 8.298h-3.13v1.565h3.13V8.298Zm9.388 1.565h-3.13v1.564h3.13V9.863Zm-7.823 3.129h-1.565v-1.565h-3.13v3.13h4.695v-1.565Zm-.678 1.09h-2.175V12.79h.82v.683h1.36v.61h-.005Zm5.372-5.784h-3.13v1.565h3.13V8.298ZM61.09 20.815h-1.565v3.13h1.565v-3.13Zm-18.776 3.13H40.75V22.38h1.565v-1.565H40.75v-3.129h-1.564v7.823h3.13v-1.564ZM41.02 21.29h.61v.61h-.61v-.61Zm.61 3.74h-.61v-.61h.61v.61Zm6.943-7.344h-4.694v1.565h4.694v-1.565ZM97.151 3.13H85.995V.886h-1.361V0H80.55v3.13H68.032v4.083h1.362V8.1h4.897v7.552h-1.565v4.694h-1.564v3.13h-1.565v1.565h-1.565v4.084h1.362v.886h4.084v-1.564h1.564v-1.565h1.565v-3.13h1.565V19.06h1.564v-4.695h10.207v9.117H88.38v1.565h-6.26v4.084h1.361v.887h8.779v-1.565h1.564v-1.564h1.565V11.85h-1.361v-.887h-.204v-.678h-1.361V9.4H79.742V8.106h18.776V4.022h-1.361v-.887l-.006-.006Zm-.474 3.603H77.9v3.13h14.082v1.564h1.564V25.51h-1.564v1.565h-1.565v1.565h-7.823v-3.13h6.258v-1.564h1.565V12.992H77.901v4.694h-1.565v4.694H74.77v3.13h-1.564v1.564h-1.565v1.565h-3.13v-3.13h1.565v-1.564h1.565v-3.13h1.565v-4.694h1.564V6.733h-6.258v-3.13H81.03V.475h3.13v3.13h12.517v3.13Zm34.49-2.039h-.203V2.452h-1.361v-.887h-.204V.887h-1.361V0h-4.084v4.084h1.361v.61h-2.174V.887h-1.362V0h-4.084v4.694h-15.646v4.084h1.361v.887h14.285v2.175h-.61v-.887h-13.472v4.084h1.362v.887h3.332v7.552h-6.258v4.084h1.361v.887h8.778v-1.565h7.823v-4.084h-1.361v-.887h-4.897v-5.987h4.694v-.887h.61v.887h.203v3.812h1.361v.887h.204v3.813h1.361v.887h.203V26h1.362v.887h.203v.677h1.361v.887h.204v.684h1.361v.887h4.084v-1.565h1.565V19.68h-1.362v-.887h-4.084v4.016h-.61v-.887h-.203V18.11h-1.361v-.887h-.204V13.41h-1.361v-.887h-.203V9.665h9.388V5.58h-1.362v-.887Zm-14.556 9.863h-4.694v7.823h6.258v3.13h-7.823v1.564h-7.823v-3.13h6.258v-9.387h-4.694v-3.13h12.518v3.13Zm14.082-6.26h-9.388v4.695h1.565v4.694h1.564v4.694h1.565v1.565h1.565V19.25h3.129v7.823h-1.565v1.565h-3.129v-1.565h-1.565v-1.565h-1.564v-1.564h-1.565V19.25h-1.565v-4.694h-1.565v-6.26h-15.646V5.17h15.646V.474h3.13V5.17h4.694V3.604h-1.565V.474h3.13V2.04h1.564v3.13h1.565v3.129Z" fill="#000"/></g><defs><clipPath id="clip0_94_5675"><path fill="#fff" d="M0 0h132.529v30H0z"/></clipPath></defs></svg>