<svg fill="none" xmlns="http://www.w3.org/2000/svg" viewBox="0 0 167 31"><g clip-path="url(#clip0_94_4291)"><path d="M53.267 13.908h7.823v-3.13h-9.388V7.65h-1.565V6.085h6.26V4.52h3.129V1.39H54.83v1.565h-6.258V4.52H36.055v3.13h10.953v1.564h1.565v1.565H36.055v3.13h14.082v3.129H34.491v3.129h15.646v4.694h-1.564v1.57h-4.694v-1.57h-3.13v3.135h1.565v1.565h7.823v-1.565h1.565V26.43h1.565v-6.264h9.388v-3.13h-9.388v-3.129ZM127.558 1.39h-3.13v1.565h-7.823V1.391h-3.129v1.564h-3.13v3.13h7.824v1.564h-4.694v1.565h-1.565v9.388h-1.565v-1.564h-1.564v-3.13h-1.565v-1.564h-4.694v3.129h3.129v1.565h-1.564v1.564h-1.565v3.13h3.129v-1.565h3.13v1.564h15.646v1.565h-21.905v3.13h6.259v1.564h1.564v1.565h3.13V27.99h-1.565v-1.564h12.517v1.564h-6.258v1.565h7.823V27.99h1.565v-1.564h3.129v-3.13h-3.129v-1.564h3.129v-3.13h-1.565V9.214h-1.564V7.65h-6.259V6.085h9.388v-3.13h-3.129V1.391Zm-1.565 17.212H115.04v-1.564h10.953v1.564Zm0-3.13H115.04v-1.564h10.953v1.565Zm0-4.693v1.565H115.04v-1.565h10.953Z" fill="#fff"/><path d="M108.782 7.65h-3.13V6.084h-3.129v3.13h3.129v1.564h3.13v-3.13Z" fill="#fff"/><path d="M108.782 2.955h-3.13V1.391h-3.129v3.13h3.129v1.564h3.13v-3.13ZM87.283 15.473h-1.565v-3.13h-3.13v3.13h1.566v3.13h1.564v3.129h3.13v-3.13h-1.565v-3.13ZM19.25 6.085h4.695V4.52h3.129V1.39h-3.13v1.565h-6.258V4.52H16.12v21.911h-1.564v3.13h3.129v-3.13h1.565V12.343h3.129v17.218h3.13V12.343h3.134V9.214H19.25v-3.13Zm60.21 7.823h-1.565v-1.564H76.33v-3.13h3.13v-3.13h-3.13V1.392H73.2v4.694h-4.693v3.13H73.2v1.564h-1.565v3.13h-1.564v3.129h-1.565v3.129h3.13v-3.13H73.2v12.524h3.13V17.038h1.564v1.564h3.13v-3.13H79.46v-1.564Z" fill="#fff"/><path d="M93.542 1.39h-3.13v4.695h-9.388v3.13h9.388V26.43h-6.258v3.13h7.823v-1.565h1.565V9.214h3.129v-3.13h-3.13V1.392Zm-80.55 21.906v-1.564h-1.565v-1.565h3.13v-3.13H9.863v-3.129h4.694v-3.13h-3.13V9.215h1.565v-3.13h1.565V2.956H9.863V1.391h-3.13v1.564H2.04v3.13h1.565v3.13H5.17v1.564H.474v3.13h6.26v3.129H2.038v3.129h3.13v1.564H3.604v1.565H2.039v1.565H.474v3.13h3.13v-1.565h1.565V24.86h1.564v4.694h3.13V24.86h1.564v1.565h3.13v-3.13h-1.565ZM6.733 10.78V7.65H5.17V6.085h6.258v1.564H9.863v3.13h-3.13Zm142.324-4.695h-1.565V4.52h3.129V1.39h-10.952v1.565h-1.565v12.518h1.565v7.823h1.564v1.565h3.13v1.565h-7.824v3.129h7.824V27.99h1.564v-1.564h1.565V24.86h6.259v3.13h1.564v1.564h7.824V27.99h1.564v-3.13h-3.129v1.566h-4.694V24.86h3.129v-1.565h1.565v-6.258h1.565v-1.565h1.564v-3.13h-1.564V10.78h-10.953v1.565h-1.565v1.564h-3.129v-1.564h1.565V10.78h1.564V7.65h-1.564V6.085Zm10.952 6.259h1.565v1.564h-1.565v-1.564ZM141.233 4.52h3.13v1.565h-3.13V4.52Zm0 7.824h3.13v1.564h-3.13v-1.564Zm17.212 9.388h-15.647v-1.565h15.647v1.564Zm-1.565-9.388h1.565v1.564h-1.565v-1.564Zm-3.129 0h1.564v1.564h-1.564v-1.564Zm4.694 4.694v1.564h-15.647v-1.564h15.647Zm-10.953-6.26h-6.259V9.215h6.259v1.565Z" fill="#fff"/><path d="M155.315 1.39h-3.129v3.13h-1.565v3.13h3.13V6.084h10.952v-3.13h-9.388V1.391Zm7.824 6.26h-9.388v1.564h9.388V7.65Z" fill="#fff"/><path d="M9.863 7.65h1.564V6.084H5.17v1.564h1.564v3.13h3.13v-3.13Zm-.475 2.654H8.57V8.062H7.208v-.61h2.174v2.858l.006-.006Z" fill="#231815"/><path d="M29.119 8.74h-8.027V7.446h4.694V5.881h3.13V1.803h-1.362V.916H23.47v1.565h-6.259v1.565h-.819v-.678h-1.36V2.48h-3.334v-.678h-1.361V.916H6.253v1.565H1.565v4.084h1.361v.887h.203v2.242h1.362v.61H0v4.084h1.361v.887H6.26v1.294H1.565v4.084h1.361v.887h.203v1.293H1.565v1.565H0v4.084h1.361v.887h4.084v-1.565h.814v2.242H7.62v.887h4.084v-4.016h.61v.887h1.768v2.242h1.361v.887h4.084v-3.13h1.565v-14.08h.82v16.33h1.36v.887h4.084V13.727h3.13V9.643h-1.362v-.886l-.005-.017ZM14.833 7.446h.82v3.74h-.61v-.887h-.204V7.44l-.006.006Zm0 15.376v-.684h-1.361v-.61h2.175v2.175h-.61v-.887h-.204v.006Zm.204-5.378v-.887h-3.333v-1.293h3.948v2.175h-.61l-.005.005Zm13.607-5.1h-3.129v17.21h-3.13v-17.21h-3.129v14.082h-1.564v3.129h-3.13v-3.13h-3.13v-1.564H9.869v4.694h-3.13V24.86H5.175v1.565H3.61v1.564H.474v-3.13H2.04v-1.564h1.565v-1.564H5.17v-1.565H2.04v-3.13h4.694v-3.129H.474v-3.13H5.17V9.215H3.604v-3.13H2.039V2.956h4.694V1.391h3.13v1.564h4.694v3.13h-1.565v3.13h-1.565v1.564h3.13v3.13H9.863v3.129h4.694v3.129h-3.13v1.564h1.565v1.565h1.565v3.13h1.564V4.52h1.565V2.955h6.259V1.391h3.129v3.13h-3.13v1.564h-4.693v3.13h9.388v3.129h.005Zm34.491 4.219h-8.027V15.27h7.824v-4.085H61.57V10.3h-8.026V8.056h-1.362v-.61h6.056V5.881h3.129V1.803h-1.361V.916h-5.649v1.565h-6.259v1.565H35.581V8.13h1.361v.886h9.592v.678h1.36v.61H35.582v4.084h1.361v.887h12.72v1.294H34.017v4.084h1.361v.887h14.286v2.858h-1.565v1.564h-2.383v-.683h-1.362v-.887H40.27v4.084h1.362v.887h.203v.683h1.361v.887h8.778V29.37h1.565v-1.565h1.565v-6.259h9.388v-4.084H63.13v-.887l.006-.011Zm-.474 3.604h-9.389v6.259h-1.564v1.564h-1.565v1.565H42.32V27.99h-1.565v-3.13h3.13v1.566h4.693V24.86h1.565v-4.694H34.496v-3.13h15.647v-3.129H36.061v-3.13h12.517V9.215h-1.564V7.65H36.06V4.52h12.517V2.955h6.26V1.391h4.693v3.13H56.4v1.564h-6.258v1.564h1.565v3.13h9.388v3.13h-7.824v3.129h9.389v3.129ZM97.151 5.61h-1.768V1.803h-1.361V.916h-4.084V5.61H80.55v.887h-.61V5.61h-1.768V1.803H76.81V.916h-4.084V5.61h-4.694v4.084h1.362v.887h1.768v2.858h-1.565v3.13h-1.565v4.084h1.362v.887h3.332v8.506h1.362v.887h4.084v-11.84h.61v.887h4.084v-4.016h.61v.887h.203v2.243h1.361v.886h.204v2.243h1.361v.887h3.333v2.858h-6.259v4.084h1.361v.887h8.778v-1.565h1.565V10.576h3.13V6.49H97.15v-.886.005ZM81.03 18.602H77.9v-1.564h-1.564v12.517h-3.13V17.038h-1.564v3.129h-3.13v-3.13h1.565v-3.129h1.565v-3.13h1.565V9.215h-4.694v-3.13h4.694V1.392h3.129v4.694h3.13v3.13h-3.13v3.129H77.9v1.564h1.565v1.565h1.565v3.13Zm7.823 3.13h-3.13v-3.13H84.16v-3.13h-1.564v-3.128h3.129v3.129h1.565v3.13h1.564v3.128Zm.475-2.723v-.887h-.204V15.88h-1.36v-.887h-.204V12.75h-1.362v-.887h-4.084v4.017h-.61v-.887h-.203v-.684H79.94v-.887h-.204v-.678h-1.361v-.886h-.203v-1.294H81.3v-.887h.61v.887h8.027v8.434h-.61v.01Zm7.349-9.795h-3.13V27.99h-1.564v1.565h-7.824v-3.13h6.259V9.216H81.03v-3.13h9.388V1.39h3.13v4.694h3.129v3.13Zm29.316 7.824H115.04v1.564h10.953v-1.564Z" fill="#231815"/><path d="M131.167 2.48h-1.768v-.677h-1.361V.916h-4.084v1.565h-5.513v-.678h-1.361V.916h-4.084v1.565h-3.13v.887h-.61V2.48h-1.768v-.678h-1.361V.916h-4.084V5h1.361v.61h-1.361v4.084h1.361v.887h1.768v.678h1.362v.61h-4.491v4.084h1.361v.887h.204v1.293h-1.565v4.084h1.361v.61h-1.361v4.084h1.361v.887h4.898v.678h1.361v.887h.203v.683h1.362v.887h4.084v-2.52h-1.362v-.61h3.74v2.243h1.361v.887h8.778V29.37h1.565v-1.565h3.129V23.72h-1.361v-.61h1.361v-4.084h-1.361v-.887h-.204V9.638h-1.361V8.75h-.203v-.678h-1.362v-.61h4.491V3.38h-1.361v-.887l.005-.011Zm-21.905 4.966h1.361V6.56h.61v.887h1.768V8.74h-1.564v8.71h-.61v-.887h-.204v-2.242h-1.361v-.887h-.203v-.678h-1.362v-.61h2.926V8.062h-1.361v-.616Zm-3.604 3.333V9.214h-3.129v-3.13h3.129V4.52h-3.129V1.39h3.129v1.565h3.129v3.13h-3.129v1.564h3.129v3.13h-3.129Zm25.035-4.694h-9.388v1.564h6.258v1.565h1.565v9.388h1.565v3.13h-3.13v1.564h3.13v3.13h-3.13v1.564h-1.564v1.565h-7.824V27.99h6.259v-1.564h-12.517v1.564h1.564v1.565h-3.129V27.99h-1.565v-1.564h-6.258v-3.13h21.905v-1.564h-15.647v-1.565h-3.129v1.564h-3.129v-3.129h1.564v-1.564h1.565v-1.565h-3.129v-3.13h4.694v1.565h1.564v3.13h1.565v1.564h1.565V9.214h1.564V7.65h4.694V6.085h-7.823v-3.13h3.129V1.391h3.13v1.564h7.823V1.391h3.129v1.564h3.13v3.13Zm-21.024 16.121v.61h-2.175v-1.293h.813v.683h1.362Z" fill="#231815"/><path d="M125.993 10.779H115.04v1.565h10.953v-1.565Zm0 3.129H115.04v1.565h10.953v-1.565Zm32.452 6.259h-15.647v1.564h15.647v-1.564Zm-14.082-7.823h-3.13v1.564h3.13v-1.564Zm0-7.824h-3.13v1.565h3.13V4.52Zm17.211 7.824h-1.565v1.564h1.565v-1.564Zm-3.129 0h-1.565v1.564h1.565v-1.564Z" fill="#231815"/><path d="M165.183 2.48h-8.026v-.677h-1.362V.916h-4.084v.887h-.61V.916h-11.907v1.565h-1.565v13.472h1.362v.887h.203v6.942h1.361v.887h.204v.683h1.361v.61h-6.055v4.084h1.361v.887h8.778V29.37h1.565v-1.565h1.564V26.24h3.949v2.243h1.361v.887h.203v.683h1.362v.887h8.778v-1.565h1.564V25.29h-1.361v-.887h-1.768v-5.987h1.565V16.85h1.564v-4.084h-1.361v-.887h-.203v-.678h-1.362v-.61h1.362V8.073h-1.362v-.61h2.926V3.38h-1.361v-.887l-.006-.011Zm-.474 3.605h-10.953v1.564h9.388v1.565h-9.388V7.65h-3.129v3.13h-1.565v1.565h-1.564v1.564h3.129v-1.564h1.565V10.78h10.952v1.565h1.565v3.129h-1.565v1.565h-1.564v6.258h-1.565v1.565h-3.129v1.565h4.694V24.86h3.129v3.13h-1.565v1.564h-7.823V27.99h-1.565v-3.13h-6.258v1.566h-1.565v1.564h-1.565v1.565h-7.823v-3.13h7.823v-1.564h-3.129v-1.565h-1.565v-7.823h-1.564V2.955h1.564V1.391h10.953v3.13h1.565V1.39h3.129v1.564h9.388v3.13Zm-10.072 3.604v.61h-2.174V9.005h.819v.678h1.361l-.006.006Z" fill="#231815"/><path d="M147.492 4.52v1.565h1.565v1.564h1.564V4.52h-3.129Zm2.655 1.972h-.61v-.61h.61v.61Zm5.168 5.852h-1.564v1.564h1.564v-1.564Zm-7.823-3.13h-6.259v1.565h6.259V9.214Zm10.953 7.824h-15.647v1.564h15.647v-1.564Z" fill="#231815"/></g><defs><clipPath id="clip0_94_4291"><path fill="#fff" transform="translate(0 .916)" d="M0 0h166.545v30H0z"/></clipPath></defs></svg>