<svg fill="none" xmlns="http://www.w3.org/2000/svg" viewBox="0 0 201 30"><g clip-path="url(#clip0_94_5186)"><path d="M91.977 12.992H73.2v1.565h-1.565v12.517H73.2v1.565h18.776v-1.565h1.564V14.557h-1.564v-1.565Zm-1.565 12.517H74.765v-1.564h15.647v1.564Zm0-4.694H74.765v-1.564h15.647v1.564Zm0-3.129H74.765v-1.565h15.647v1.565Zm37.146 3.129h-3.13v3.13h-1.564v1.57h-1.565v-1.57h-1.565v-3.13h-3.129v3.13h-1.565v1.57h-1.564v3.13h3.129v-3.13h3.129v3.13h4.694v-3.13h3.13v3.13h3.129v-3.13h-1.565v-1.57h-1.564v-3.13Zm0-14.082h-10.953v3.13h10.953v-3.13ZM27.074 3.604H16.121V.474h-3.13v3.13h-1.564v3.13H9.863v1.564H8.298v3.13h3.13V9.862h1.564V8.298h1.565V6.733h3.129v18.782h-4.694v3.13h6.259V27.08h1.564V6.733h4.694v1.565h-1.564v3.13h3.129v-3.13h1.57v-3.13h-1.57V3.605Zm26.193 10.953v6.258h3.129v-6.258h-1.565V9.863h-3.129v4.694h1.565Zm75.855-3.13h-4.694v1.565h-1.564v4.694h1.564v1.565h4.694v-1.565h1.565v-4.694h-1.565v-1.565Zm-1.564 4.694h-1.565v-1.564h1.565v1.564ZM90.412 9.863H74.765v1.564h15.647V9.863Zm19.934-7.823h-6.258v1.564h-1.565v25.035h3.129v-4.694h4.694V22.38h1.565v-7.823h-1.565V9.861h1.565V3.604h-1.565V2.039Zm-1.564 7.822h-1.565v4.694h1.565v6.26h-3.13V5.167h3.13v4.694Zm-18.37-3.129H74.765v1.565h15.647V6.733Z" fill="#fff"/><path d="M127.558 2.04h-3.13V.474h-4.694v1.564h-3.129v1.565h-3.129v3.13h3.129V5.168h3.129V3.604h4.694v1.565h3.13v1.564h3.129V3.604h-3.129V2.039Zm-34.017 0H71.636v1.564h-1.565v7.823h3.13V5.168h18.776v6.26h3.13V3.603H93.54V2.039ZM61.09 3.604h-7.823V.474h-3.13V5.17h-1.564v3.129h-1.565v-3.13h-1.565V3.605h-3.129V2.039h1.565V.475h-3.13v1.564h-1.564v1.565H37.62v1.565h-1.565v21.905h1.565v1.565h7.823v-1.565h1.565V11.427h3.13V9.863h1.564v-3.13h7.823v17.212h-1.564v1.564h-6.259v3.13h7.823v-1.565h1.565V25.51h1.565V5.17H61.09V3.604ZM43.88 25.509h-4.694v-7.823h4.694v7.823Zm0-10.952h-4.694V6.733h4.694v7.824Zm75.854 3.129h1.565v-4.694h-1.565v-1.565h-4.694v1.565h-1.564v4.694h1.564v1.565h4.694v-1.565Zm-1.564-1.565h-1.565v-1.564h1.565v1.564Zm77.42-9.388h1.565V2.04h-3.13v4.694h-1.564v3.13h3.129v-3.13Z" fill="#fff"/><path d="M189.331 14.557h7.824v-3.13h-7.824V.475h-3.129v10.952h-6.259v3.13h6.259v4.694h-7.824v3.13h7.824v6.263h3.129V22.38h9.388v-3.13h-9.388v-4.693ZM178.378.475h-3.129v4.694h-1.565v3.129h-1.564v3.13h-1.565v3.129h3.129v14.087h3.13V5.17h1.564V.475Z" fill="#fff"/><path d="M181.508 9.862h3.129V5.168h-1.565V2.04h-3.129v3.13h1.565v4.693ZM156.88 28.644V27.08h3.129v-1.565h1.565V23.95h1.564v-1.564h1.565v-4.694h-1.565v-1.565h-6.258v1.565h-1.565v1.564h-4.694v3.13h3.129v1.564h1.565v1.565h-6.259v3.13h7.824Zm-1.565-7.823h3.129v-1.565h3.13v1.565h-1.565v1.565h-1.565v1.564h-1.564v-1.564h-1.565V20.82ZM25.51 12.992h-3.13v3.13h1.565v3.129h1.564v4.694h3.135v-6.259h-1.57v-3.13h-1.565v-1.564ZM163.138 2.04h-7.823v1.564h-1.565v1.564h-1.564v1.565h-1.565v3.13h3.129V8.297h1.565v1.564h1.565v1.565h-3.13v1.565h-4.694v3.13h6.259v-1.566h3.129v-1.564h1.565v-1.565h1.565V9.862h1.564V8.298h1.565V3.604h-1.565V2.039Zm-1.564 4.693h-1.565v1.565h-1.565V6.733h-1.564V5.168h4.694v1.565ZM12.992 19.25h1.565v-6.258h-3.13v4.694H9.863v3.13H8.298v3.129h3.13V22.38h1.564v-3.13ZM8.298.475h-3.13v4.694H3.605v3.129H2.039v3.13H.474v3.129h3.13v14.087h3.13V5.17h1.564V.475Zm136.064 14.081h3.13v-1.564h1.564V3.604h-1.564V2.039h-9.388v1.565h-1.565v9.388h1.565v1.564h3.129v1.565h-4.694v3.13h3.129v1.564h-1.564v3.13h-1.565v3.129h3.129v-3.13h1.565v4.695h3.129v-4.694h1.565v1.564h3.129v-3.13h-1.564v-1.564h-1.565V19.25h3.129v-3.129h-4.694v-1.564Zm0-9.388h1.565v1.565h-1.565V5.168Zm0 4.694h1.565v1.565h-1.565V9.862Zm-3.129 1.565h-1.565V9.862h1.565v1.565Zm0-4.694h-1.565V5.168h1.565v1.565Z" fill="#fff"/><path d="M29.119 4.694h-.204v-.678h-1.36V3.13h-9.592V.887H16.6V0h-4.084v3.13h-1.564v3.129h-.82V.887h-1.36V0H4.687v4.694H3.124v3.13H1.559v3.129H0v4.084h1.361v.887H3.13v13.2h1.362v.887h4.084v-5.58h.61v.886h3.332v3.813h1.362v.887h7.213v-1.565h1.565v-11.84h.61v.888h.203v2.242h1.361v.887h.204v3.813h1.361v.887h4.084v-7.214H29.12v-.887h-.204v-2.242h-1.36v-.887h-.204v-.683H25.99v-.61h2.926v-3.13h1.565V5.592H29.12v-.898ZM8.575 6.53h.819v1.293h-.82V6.53ZM6.739 28.639h-3.13V14.557H.474v-3.13H2.04v-3.13h1.565V5.17H5.17V.474h3.129V5.17H6.733v23.47h.006Zm4.694-6.259v1.565h-3.13v-3.13h1.565v-3.13h1.565v-4.693h3.13v6.259h-1.566v3.129h-1.564Zm-.475-9.591v4.422H9.394v3.13h-.82v-8.434h.61v.887h1.769l.005-.005Zm4.084.61v-.887h-1.768v-1.294h1.565V9.654h1.565V8.089h.819v16.94h-3.949v-1.293h1.565v-3.13h1.565v-7.213h-1.362v.006Zm12.043 1.158v3.129h1.565v6.259h-3.13V19.25h-1.564v-3.13H22.39v-3.13h3.13v1.566h1.564Zm-2.242-2.655v.61h-2.175V8.089h.813v3.807h1.362v.006Zm3.807-3.604h-1.565v3.13h-3.13v-3.13h1.566V6.733h-4.695v20.341h-1.564v1.565h-6.259v-3.13h4.694V6.733h-3.13v1.565h-1.564v1.565h-1.565v1.564H8.31v-3.13h1.565V6.734h1.564v-3.13h1.565V.475h3.13v3.13h10.952V5.17h1.565v3.129Zm34.485-3.604h-.203v-.678H61.57V3.13h-6.462V.887h-1.361V0h-4.084v4.694h-1.565v.887h-.61v-.887h-.203v-.678h-1.361V3.13h-.204V.887h-1.36V0h-4.084v1.565H38.71v1.564h-1.565v1.565h-1.564v22.86h1.361v.887h.203v.684h1.362v.886h8.778v-1.564h1.565V12.8h2.383v2.242h1.361v.887h.204v5.378h1.361v.887h4.084V14.98h-1.361v-.887h-.203v-3.812h-1.362v-.887H53.55V8.1h5.513v15.376h-1.564v1.565h-6.26v4.084H52.6v.886h8.778v-1.564h1.565v-1.565h1.564V5.58h-1.36v-.887h-.012Zm-.475 20.815h-1.564v1.565H59.53v1.565h-7.823v-3.13h6.258v-1.564h1.565V6.733h-7.823v3.13h3.129v4.694h1.565v6.258h-3.13v-6.258h-1.564V9.863h-1.565v1.564h-3.13v15.647H45.45v1.565h-7.823v-1.565H36.06V5.169h1.565V3.604h1.564V2.039h1.565V.474h3.13V2.04H42.32v1.565h3.129V5.17h1.565v3.129h1.564v-3.13h1.565V.475h3.13v3.13h7.823V5.17h1.564v20.34Z" fill="#231815"/><path d="M39.185 14.556h4.694V6.733h-4.694v7.824Zm1.835-6.462h2.384v5.988H41.02V8.094Zm-1.835 17.421h4.694v-7.823h-4.694v7.823Zm1.835-6.462h2.384v5.988H41.02v-5.988Zm49.392-2.932H74.765v1.565h15.647v-1.565Z" fill="#231815"/><path d="M95.586 3.13h-.203v-.678h-1.361v-.887h-22.86v1.564h-1.565v8.778h1.361v.887h1.768v1.294h-1.564V27.56h1.36v.887h.204v.683h1.362v.887h19.73v-1.565h1.565V14.98h-1.361v-.887h-.204v-.683h-1.361v-.887h-.203v-.61h.61v.887h4.084V4.016h-1.362V3.13Zm-2.039 11.427v12.517h-1.564v1.565H73.206v-1.565h-1.564V14.557h1.564v-1.565h18.776v1.565h1.565Zm-18.776-6.26V6.734h15.647v1.565H74.77Zm.887.475v.61h-.61v-.61h.61Zm14.766 1.09v1.565H74.776V9.863h15.647Zm-14.766 2.04v.61h-.61v-.61h.61Zm15.85-2.243v.61h-.61v-.61h.61Zm-.61-2.52v-.61h.61v.61h-.61Zm4.22 4.288h-3.13V5.17H73.212v6.258h-3.13V3.604h1.565V2.039h21.906v1.565h1.565v7.823Z" fill="#231815"/><path d="M90.412 23.945H74.765v1.564h15.647v-1.564Zm0-4.695H74.765v1.565h15.647v-1.564Zm40.755-16.12h-1.768v-.678h-1.361v-.887h-1.768V.887h-1.362V0h-5.648v1.565h-3.13v1.564h-3.129v.887h-.61V3.13h-.203v-.677h-1.362v-.887h-7.213V3.13h-1.565v25.99h1.362v.887h4.084v-4.694h4.694v-1.565h1.564v-5.58h.61v.886h.204v.678h1.361v.887h.203v2.858h-1.564v1.565h-1.565v4.084h1.361v.886h4.084v-3.13h.819v2.244h1.362v.886h5.648v-3.13h.819v2.244h1.362v.886h4.084v-4.084h-1.362v-.886h-.203v-.684h-1.361v-.887h-.204v-2.242h-1.361v-.61h2.926v-1.565h1.565v-5.649h-1.362v-.887h-.203v-.677h-1.361v-.887h-.204V8.095h3.13V4.01h-1.362v-.887l-.011.005Zm-19.25 6.733h-1.565v4.694h1.565v7.823h-1.565v1.565h-4.694v4.694h-3.129V3.604h1.564V2.039h6.259v1.565h1.565v6.259Zm1.09 5.1h-.61v-.887h-.204v-2.858h1.565V7.202h.61v.887h1.768v2.242h1.361v.61h-2.926v1.565h-1.564v2.457Zm2.039 4.288v-1.565h-1.565v-4.694h1.565v-1.565h4.694v1.565h1.565v4.694h-1.565v1.565h-4.694Zm8.913-.204v.678h1.362v.61h-1.362v3.13h-1.564v.886h-.61v-.886h-.204v-2.243h-1.361v-.61h1.361v-1.565h1.565v-.887h.61v.887h.203Zm-1.564-5.648h-.61v-.887h-.204v-.678h-1.361v-.61h3.739v1.293h-1.564v.887-.005Zm6.733 10.546v1.564h1.565v3.13h-3.13v-3.13h-3.129v3.13h-4.694v-3.13h-3.129v3.13h-3.13v-3.13h1.565v-1.564h1.565v-3.13h3.129v3.13h1.565v1.564h1.564v-1.564h1.565v-3.13h3.129v3.13h1.565Zm1.565-10.953v4.694h-1.565v1.565h-4.694v-1.565h-1.565v-4.694h1.565v-1.565h4.694v1.565h1.565Zm0-6.259h-3.13v3.13h-10.952v-3.13h-3.13v-3.13h3.13V2.04h3.129V.474h4.694V2.04h3.129v1.565h3.13v3.13Z" fill="#231815"/><path d="M124.428 5.168V3.604h-4.694v1.564h-3.129v1.565h10.953V5.168h-3.13Zm.887 1.09h-3.739V4.966h2.383v.684h1.362v.61h-.006Zm-19.663 14.557h3.13v-6.259h-1.565V9.863h1.565V5.168h-3.13v15.647Zm1.836-5.784h.61v.887h.203v4.423h-.813V15.03Zm0-8.501h.813v2.858h-.813V6.53Zm20.07 8.027h-1.565v1.564h1.565v-1.564Zm-9.388 0h-1.565v1.564h1.565v-1.564Zm23.063-4.694h-1.565v1.564h1.565V9.863Zm4.694-4.695h-1.565v1.565h1.565V5.168Zm0 4.695h-1.565v1.564h1.565V9.863Zm-4.694-4.695h-1.565v1.565h1.565V5.168Zm15.647 18.777h1.564V22.38h1.565v-1.565h1.565v-1.564h-3.13v1.564h-3.129v1.565h1.565v1.565Zm.474-1.768h.61v.61h-.61v-.61Z" fill="#231815"/><path d="M165.183 3.13h-.203v-.678h-1.361v-.887h-8.778v1.564h-1.565v1.565h-1.565V6.26h-.819V4.016h-1.361V3.13h-.203v-.677h-1.362v-.887h-10.342V3.13h-1.565v10.343h1.361v.887h.204v.678h1.361v.61h-2.926v4.084h1.361v.887h.204v2.858h-1.565v4.084h1.361v.887h3.333v.683h1.361v.887h4.084v-4.016h.61v.887h1.768v2.242h1.362v.887h8.778v-1.565h3.129v-1.564h1.565v-1.565h1.564v-1.565h1.565V18.11h-1.361v-.887h-.204v-.684h-1.361v-.887h-3.333V14.36h1.565v-1.565h1.565V11.23h1.564V9.665h1.565V4.016h-1.361V3.13h.005Zm-.474 5.168h-1.565v1.565h-1.565v1.564h-1.564v1.565h-1.565v1.565h-3.129v1.564h-6.259v3.13h-3.129v1.564h1.564v1.565h1.565v3.13h6.259v-1.565h-1.565V22.38h-3.129v-3.13h4.694v-1.564h1.564v-1.565h6.259v1.565h1.565v4.694h-1.565v1.565h-1.565v1.564h-1.564v1.565h-3.13v1.565h-7.823v-3.13h-3.129v-1.564h-1.565v4.694h-3.129v-4.694h-1.565v3.129h-3.129v-3.13h1.564v-3.129h1.565v-1.564h-3.129v-3.13h4.694v-1.564h-3.13v-1.565h-1.564V3.604h1.564V2.039h9.388v1.565h1.565v9.388h4.694v-1.565h3.129V9.863h-1.564V8.298h-1.565v1.565h-3.129v-3.13h1.564V5.17h1.565V3.604h1.565V2.039h7.823v1.565h1.565v4.694Zm-9.863 9.185v1.293h-3.948v-1.293h3.948Zm-5.513 4.422v-.683h-1.361v-.61h2.175v2.175h-.61V21.9h-.204v.006Zm3.949 1.836v.684h1.361v.61h-3.74V22.86h.611v.887h1.768v-.006Zm0-12.517v1.293h-2.384v-2.174h.61v.886h1.768l.006-.005Zm2.31-.271v-.61h.61v.61h-.61Z" fill="#231815"/><path d="M156.88 6.733h1.564v1.565h1.565V6.733h1.565V5.168h-4.694v1.565Zm2.039-.203h.61v.61h-.61v-.61Zm-11.427 6.462v1.565h-3.13v1.564h4.694v-3.13h-1.564Zm51.707 5.784h-8.026v-2.858h7.823v-4.084h-1.361v-.887h-.204V8.09h1.565V2.452h-1.361v-.887h-4.084v4.694h-1.565v4.084h1.361v.61h-2.174V.887h-1.362V0h-4.084v5.58h-.61v-.886h-.203V2.452h-1.361v-.887h-3.333V.887h-1.361V0h-4.084v4.694h-1.565v3.13h-1.565v3.129h-1.564v4.084h1.361v.887h1.768v13.2h1.361v.887h4.084v-7.145h.61v.887h6.462v5.377h1.362v.887h4.084v-6.259h9.388v-4.084h-1.362v-.897Zm-6.733-8.913v-3.13h1.565V2.04h3.129v4.694h-1.564v3.13h-3.13Zm-12.517-7.824h3.129v3.13h1.565v4.694h-3.13V5.169h-1.564v-3.13Zm-1.294 4.49h1.565v-.886h.61v.887h.203v3.807h1.362v.61h-2.926v4.084h1.361v.887h4.897v2.858h-7.077V6.53h.005Zm-1.836 22.11h-3.129V14.557h-3.129v-3.13h1.564v-3.13h1.565V5.17h1.565V.474h3.129V5.17h-1.565v23.47Zm21.906-6.259h-9.388v6.259h-3.13V22.38h-7.823v-3.13h7.823v-4.693h-6.258v-3.13h6.258V.474h3.13v10.953h7.823v3.13h-7.823v4.694h9.388v3.129Z" fill="#231815"/></g><defs><clipPath id="clip0_94_5186"><path fill="#fff" d="M0 0h200.561v30H0z"/></clipPath></defs></svg>