<svg fill="none" xmlns="http://www.w3.org/2000/svg" viewBox="0 0 186 50"><g clip-path="url(#clip0_94_6049)"><path d="M22.094 27.088h2.888V24.2h-2.888v-1.444h-2.887V24.2H7.657v-1.444H4.769V24.2H1.882v2.888h2.887V40.08H.438v2.888h25.987V40.08h-4.33V27.088ZM19.207 40.08H7.657v-2.887h11.55v2.887Zm0-5.775H7.657v-1.443h11.55v1.443Zm0-4.33H7.657v-2.888h11.55v2.887Zm7.156-28.031h-.844V1.1h-3.373v.844h-.839v.84h-.844V5.31h1.683V3.627h.845v-.844h1.683v.844h.845v2.528h-.845V7h-.839v.839h-.844v.844h-.845v.845h-.839v1.683h-.844v2.528h6.74v-1.684H22.99v-1.688h.844v-.84h.84v-.844h.844V7.84h.844V7h.84V2.784h-.84v-.839ZM11.415 12.895h.844v.844h3.372v-.844h.845V11.21h.844V3.627h-.844V1.944h-.845V1.1H12.26v.844h-.844v1.683h-.845v7.584h.845v1.684Zm.844-8.428h.844V2.783h1.684v1.684h.844v5.9h-.844v1.683h-1.684v-1.683h-.844v-5.9Zm-4.842 7.589H3.205v-1.69h.845v-.838h.839v-.845h.844V7.84h.845V7h.839V2.784h-.84v-.839h-.844V1.1H2.361v.844h-.84v.84H.679V5.31H2.36V3.627h.844v-.844H4.89v.844h.844v2.528H4.89V7h-.84v.839h-.844v.844h-.844v.845h-.84v1.683H.679v2.528h6.739v-1.684Zm23.778.839h.844v.844h3.372v-.844h.845v-.84h.839V7.84h-.84V6.155h.84V2.783h-.84v-.839h-.844V1.1H32.04v.844h-.844v.84h-.84V5.31h1.684V3.627h.844v-.844h1.684v.844h.844v1.684h-.844v.844h-1.684V7.84h1.684v.844h.844v2.528h-.844v.845h-1.684v-.845h-.844V9.528h-1.684v2.527h.84v.84Zm-9.101 31.518h-4.331V47.3h4.331v1.444h4.337v-2.888h-4.337v-1.443ZM4.77 45.856H.437v2.888h4.331V47.3H9.1v-2.887H4.77v1.443Zm81.543-2.887h-1.444v-1.444h-2.887v2.887h1.443v1.444h1.444V47.3h1.444v1.444H89.2v-2.888h-1.444v-1.444h-1.444V42.97ZM62.78 15.423h1.684V.255H62.78v4.217h-4.217v1.684h4.217v3.372h-.844v.839h-1.684v.844h-1.689v1.684h1.69v-.84h1.683v-.844h.844v4.212Zm4.764 27.546H66.1v1.443h-1.444v1.444h-1.443v2.888H66.1V47.3h1.444v-1.444h1.444v-1.444h1.444v-2.887h-2.888v1.444Zm-28.5-20.213h-2.887v4.332h-1.444v2.887h-1.444v2.888h-1.444v2.887h2.888v12.994H37.6V27.088h1.444v-4.332Zm15.881 23.1h-11.55V32.863h2.888v10.106h2.887v-11.55h4.332v5.775h-2.888v2.887h4.331v-1.443h1.444v-8.663h-1.444v-1.444H49.15v-5.775h-2.887v7.22h-2.888v-4.332h-2.887v5.775h-1.444v2.887h1.444V47.3h1.444v1.444h14.437V47.3h1.444v-5.775h-2.888v4.331ZM177.749 2.783h1.684v.845h1.689v-.845h2.528V1.1h-5.056V.255h-1.689v1.69h-.839v1.683h1.683v-.845Zm-7.583 0h1.683v.845h1.689v-.845h1.684V1.1h-4.212V.255h-1.689v1.69h-.839v1.683h1.684v-.845Zm1.683 11.8h2.528v.845h1.684v-1.684h-.845v-1.683h-1.683v.844h-1.684v.844h-.844v-2.527h3.372v-.845h.845V5.321h-.845v-.844h-4.211v.844h-.845v8.428h-.844v1.684h3.372v-.85Zm-.844-8.428h2.528V7h-2.528v-.845Zm0 2.528h2.528v.845h-2.528v-.845Zm10.956-4.211h-4.212v.84h-.844v10.11h1.689V6.157h2.528v5.9h-1.689v1.683h2.528v-.844h.844V5.311h-.844v-.839ZM41.932 13.74h.844v-.845h.844v2.528h1.684v-2.528h.844v.844h1.684v-1.683h-.845v-.845h-.844v-.844h1.684V8.683h-2.528V7h2.528V5.316h-1.684v-.844h.844V2.788h.845V1.105h-2.528v-.85H43.62V1.1h-2.527v1.683h.844v1.684h.844v.844h-2.528v1.684h3.373v1.683h-2.528v1.684h1.683v.844h-.844v.844h-.844v.845h-.845v1.683h1.684v-.844.005Zm.844-10.112v-.845h3.372v.845h-.844V5.31H43.62V3.628h-.844Z" fill="#fff"/><path d="M87.757 35.75h-1.444v-2.887h-2.888v2.887h-4.33v1.444h-2.888V35.75h1.443v-1.444h1.444v-1.443h1.444v-1.444h1.444V28.53h-2.888v1.444H77.65v1.444h-1.443v1.444h-1.444v1.443h-1.444v-1.443h-1.444v-1.444h1.444v-1.444h1.444V28.53h1.444v-1.443h7.218v-1.444h4.332v-2.888h-4.332V24.2H64.656v2.888h7.22v1.443h-1.444v1.444h-1.444v-1.444H66.1v2.888h1.444v1.444h1.444v1.443h1.444v1.444h1.443v1.444h-8.662v2.887h11.55v8.663h2.887v-8.663h1.444v-1.443h7.219v2.887H89.2v-2.887h-1.444V35.75ZM49.515 15.423v-1.684h.845V6.156h1.683v9.267h1.689V6.156h1.683V4.472H50.36V2.783h2.528v-.839h1.683V.255h-1.683V1.1h-3.373v.844h-.844V13.74h-.84v1.684h1.684Zm86.543-.839h1.683v-.845h1.684v-.844h.844v.844h1.683v.845h1.684v.844h3.372v-1.684h-2.528V12.9h-1.683v-.844h-1.684v-.845h.845v-.844h.844V8.683h.844V7h.845V3.628h2.528V1.944h-6.74V.255h-1.683V1.94h-6.739v1.683h2.527V6.15h.845v1.684h.844v1.683h.845v.845h.844v.844h.844v.844h-1.683v.845h-1.684v.844h-3.372v1.684h4.211v-.845l-.02.006Zm1.683-5.9V7h-.844V5.316h-.845V3.633h6.74V6.16h-.845v1.683h-.844v1.684h-.844v.844h-.845v-.844h-.844v-.845h-.845.016Zm-40.853.844h.845v5.056h.844v.844h8.428v-.845h.844V9.529h.845v.844h1.683V8.69h-1.683v-.845h-1.684V7h3.373V5.316h-8.428v-.844h6.739V2.788h-1.684v-.844h.845V.255h-1.684V1.1h-.844v1.683h-2.528V1.94h.844V.255h-1.683V1.94h-.845v.844h-.844V1.1h-.844V.255h-1.684V1.94h.845v.844h-1.684v1.684h3.372v.844h-5.055v1.684h3.372v.844h-1.684v.844h-1.683v1.684h1.683v-.844l-.02.005ZM100.261 7h5.055v.844h-5.055V7Zm-.845 2.528h6.74v.844h-6.74v-.844Zm0 1.683h6.74v.845h-6.74v-.845Zm0 1.684h6.74v.844h-6.74v-.844Zm-31.58 2.528h5.056v-.84h.844v-3.372h-1.689v2.528H68.68V6.156h5.056V4.472H68.68V.255h-1.688v14.329h.844v.839Zm63.927 10.221h-1.444V24.2h-1.444v-1.444h-2.887v2.888h1.443v1.444h1.444v1.443h2.888v-2.887Zm-2.888 15.881h-1.444v2.888h-1.443v4.331h2.887v-2.888h1.444V42.97h1.444v-4.331h-2.888v2.887Zm1.444-10.106h-1.444v-1.444h-2.887v2.888h1.443v1.443h1.444v1.444h2.888v-2.887h-1.444v-1.444Zm-4.154-16.835h.839V4.472h1.689V2.783h-1.689V.255h-1.683v2.528h-5.056v1.689h5.056v9.267h-3.373v1.684h4.217v-.84Z" fill="#fff"/><path d="M123.637 7.84h-.844V6.155h-1.684v1.683h.839v1.689h.845v1.683h1.683V9.528h-.839V7.839ZM119.42 7h-.839v-.844h-.844V4.472h1.683V2.783h-1.683V.255h-1.684v2.528h-2.528v1.689h2.528v.84h-.844V7h-.844v1.683h-.84v1.684h1.684V8.683h.844v6.74h1.684v-6.74h.844v.845h1.684V7.839h-.845v-.84Zm23.893 20.088h2.887v-1.444h4.332v-2.888H146.2V24.2h-12.993v2.888h7.218v2.887h-8.662v2.888h8.662v4.331h-5.775v1.444h-1.443V47.3h1.443v1.444h14.438V47.3h1.444v-8.662h-1.444v-1.444h-5.775v-4.331h8.662v-2.888h-8.662v-2.887Zm4.331 12.993v5.775h-11.55v-5.775h11.55Zm34.275-12.993h-4.331v-4.332H174.7v4.332h-2.887v1.443h-5.775v-2.887h4.331v-2.888h-4.331V24.2h-7.219v2.888h4.331v1.443h-5.775v2.888h1.444v5.775h1.444v1.444h2.887v1.444h-4.331v2.887h4.331v2.887h-5.775v2.888h7.219V47.3h7.219v1.444h2.887v-2.888h1.444v-4.33h1.444v-11.55h2.887v15.88h-2.887v2.888h4.331V47.3h1.444V28.531h-1.444v-1.443ZM163.15 35.75h-1.444v-1.444h1.444v1.444Zm0-2.887h-1.444v-1.444h1.444v1.444Zm2.888-1.444h1.443v1.444h-1.443v-1.444Zm0 2.887h1.443v1.444h-1.443v-1.444Zm8.662 7.22h-1.443v4.33h-1.444v-1.443h-5.775v-1.444h4.331v-2.888h-4.331v-1.443h2.887v-1.444h1.444v-5.775h1.444v-1.444h2.887v11.55ZM153.534 2.783h-.845v1.689h-.844v1.684h-.839v1.683h-.844v1.689h1.683V7.839h.844v7.584h1.684V2.783h.844V.255h-1.683v2.528ZM117.7 45.856h-5.775v2.888h7.219V47.3h1.444V22.756H117.7v23.1Zm40.045-30.433h6.74v-.84h.844v-3.372h-1.684v2.528h-5.055V7h5.895V5.312h-5.895V.255h-1.689v14.329h.844v.839Z" fill="#fff"/><path d="M114.813 25.644h-2.888v17.325h2.888V25.644ZM85.312.255H83.63v1.69h-6.745v1.683h6.745V5.31h-5.061v.845h-.84v7.583h1.684V7h4.217v8.424h1.683V7h4.212v5.056h-2.528v1.683h3.372v-.844h.844v-6.74h-.844v-.844h-5.056V3.628h6.74V1.944h-6.74V.255Zm22.282 29.72h-5.775v-2.888h8.663V24.2H94.6v2.887h4.332v5.775h-1.444v2.888h-1.444v1.444H94.6v2.887h2.888v-1.444h1.444v-1.443h1.443v1.443h1.444v1.444h1.444v1.444h-1.444v1.444h-1.444v1.443h-1.444v1.444h-2.887v2.888h4.331V47.3h1.444v-1.444h1.444v-1.444h1.444V42.97h1.443v-2.89h1.444v-4.33h1.444v-4.331h-1.444v-1.444Zm-1.444 4.331h-1.443v2.888h-1.444V35.75h-1.444v-1.444h-1.444v-1.444h5.775v1.444Z" fill="#fff"/><path d="M1.152 14.474h7.255v-2.2h-.735V11.8H4.191v-.698h.844v-.845h.844v-.844h.845V8.57h.844v-.845h.844V3.002h-.735v-.474h-.109v-.365h-.735V1.69h-.11v-.365H5.99V.85H2.106v.844H1.26v.844H.422v3.039h.735v.474h2.2V4.368H4.2v-.845h.438v.365h.735v.475h.11V5.9h-.845v.845h-.845v.844H2.95v.844h-.844v.845H1.26v1.683H.422V14h.735v.474h-.005Zm-.474-.735v-2.528h.844V9.528h.844v-.845h.845V7.84h.844v-.844h.844V6.15h.845V3.622h-.845v-.844H3.216v.844h-.844v1.684H.678V2.778h.844v-.844h.844v-.845H5.74v.845h.844v.844h.844V6.99h-.844v.845H5.74v.844h-.845v.845H4.05v.844h-.845v1.683h4.212v1.684H.677v.005Zm10.366-1.793h.11v1.21h.735v.474h.11v.365h.734v.474h3.883v-.845h.845v-1.683h.844V3.847h-.735v-.475h-.11V2.163h-.734V1.69h-.11v-.365h-.735V.85h-3.883v.844h-.844v1.683h-.844v8.1h.734v.474-.005Zm-.474-.735V3.628h.845V1.944h.844V1.1h3.372v.844h.845v1.684h.844v7.583h-.844v1.684h-.845v.844H12.26v-.844h-.844V11.21h-.845Z" fill="#231815"/><path d="M13.098 12.056h1.684v-1.684h.844v-5.9h-.844V2.79h-1.684v1.683h-.844v5.9h.844v1.684Zm.146-6.854h.844V3.518h.438v1.21h.735v.474h.11v4.91h-.845v1.683h-.438v-1.21h-.734v-.473h-.11v-4.91Zm14.213-2.674h-.109v-.365h-.735V1.69h-.11v-.365h-.734V.85h-3.883v.844h-.845v.844h-.844v3.039h.735v.474h2.2V4.368h.844v-.845h.438v.365h.734v.475h.11V5.9h-.844v.845h-.845v.844h-.844v.844h-.845v.845h-.844v1.683h-.844V14h.735v.474h7.255v-2.2h-.735V11.8h-3.482v-.698h.845v-.845h.844v-.844h.845V8.57h.844v-.845h.844V3.002h-.735v-.474h.005ZM27.203 7h-.844v.844h-.845v.845h-.844v.844h-.844v.844h-.845v1.684h4.212v1.683h-6.74v-2.527h.845V9.533h.844v-.844h.845v-.845h.844V7h.844v-.844h.845V3.628h-.845v-.845h-1.683v.845h-.845V5.31h-1.683V2.783h.844V1.94h.845v-.844h3.372v.844h.844v.844h.845v4.212l-.01.005Zm4.471 6.155v.475h.11v.364h.735v.475h3.883v-.845h.844v-.844h.844V8.053h-.735v-.475h-.11V6.88h.845V2.997h-.735v-.474h-.11v-.365h-.734v-.475h-.11V1.32h-.734V.844h-3.883v.845h-.845v.844h-.844v3.039h.735v.474h1.793V8.1h.735v.474h.954v.365h.734v.474h.11v1.538h-.844v.844h-.438v-.365h-.735v-.474h-.11v-1.21h-.735v-.474h-2.2v3.039h.736v.474h.11v.365h.734v.005Zm-1.319-1.1V9.529h1.684v1.683h.844v.845h1.684v-.845h.844V8.683h-.844V7.84h-1.684V6.155h1.684v-.844h.844V3.628h-.844v-.845h-1.684v.845h-.844V5.31h-1.684V2.783h.845V1.94h.844v-.845h3.373v.845h.844v.844h.844v3.372h-.844V7.84h.844v4.211h-.844v.845h-.845v.844h-3.372v-.844H31.2v-.845h-.845v.005Zm4.691-8.172v.474h.11v.699h-.844V5.9h-1.283V4.362h.845v-.844h.438v.365h.734Zm8.569 1.428H45.3V3.628h.844v-.845h-3.372v.845h.844V5.31Zm.255-1.793h1.173v1.538h-.438v-1.21h-.734v-.328Z" fill="#231815"/><path d="M40.722 15.313h2.2v-.844h.438v1.21h.735v.473h2.2V13.99h.328v.475h.953v1.209h.735v.474h2.2v-1.683h.844V6.88h.438v8.793h.735v.474h2.2V6.89h1.683v-2.2h-.735v-.473h-4.32v-.699h2.527v-.844h1.684v-2.2h-.735V0h-2.2v.844H49.26v.845h-.438v-.365h-.735V.85h-1.793V.485h-.735V.01h-2.2v.845h-2.527v2.2h.735v.474h.11v1.209h.734v.328h-2.418v2.2h.735v.474h2.637v.698h-2.528v2.2h.735v.474h.11v.699h-.845v.844h-.844v2.2h.735v.474l-.006-.016Zm7.256-11.795h.438v2.017h-.329v-.474h-.11V3.518Zm0 8.282v-.365h-.735v-.328h1.172v1.173h-.328v-.474h-.11V11.8Zm.11-2.892v-.475h-1.794v-.698h2.127v1.173h-.334Zm-7.84 5.68v-1.683h.845v-.844h.844v-.845h.844v-.844h-1.683V8.69h2.528V7.005h-3.373V5.322h2.528v-.845h-.844V2.794h-.844V1.11h2.527V.255h1.684V1.1h2.528v1.683h-.845v1.684h-.844v.844h1.684v1.684h-2.528v1.683h2.528v1.684h-1.684v.844h.844v.845h.845v1.683h.844V1.944h.844V1.1h3.373V.255h1.683V1.94h-1.683v.844h-2.528v1.684h5.056V6.15h-1.684v9.267h-1.683v-9.26H50.37v7.583h-.844v1.684h-1.684V13.74H46.16v-.844h-.845v2.528h-1.683v-2.528h-.845v.844h-.844v.845h-1.684l-.01.005Zm23.007 1.095v.475h2.199V.474h-.735V0h-2.2v4.211h-4.21v2.2h.734v.474h3.482v2.382h-.845v.845h-1.683v.844h-1.684v2.2h.735v.474h2.2v-.845h1.282v2.893h.735l-.01.005Zm-1.32-4.472v.845h-1.683v.844H58.57v-1.684h1.683v-.844h1.684v-.844h.844V6.156H58.57V4.472h4.211V.255h1.684v15.168H62.78V11.21h-.844Zm5.536 4.102h.11v.365h.734v.474h5.567v-.844h.844v-3.883h-.734v-.474h-2.2v2.528h-2.127V6.885h5.056v-2.2h-.735v-.474h-4.32V.474h-.736V0h-2.2v14.839h.736v.474h.005Zm-.474-.735V.255h1.683v4.212h5.056V6.15H68.68v7.584h3.372v-2.528h1.684v3.372h-.844v.845h-5.056v-.845h-.844.005ZM92.312 1.684h-6.01V.474h-.734V0h-2.2v1.684h-6.74v2.199h.736v.474h6.01v.699h-5.056V5.9h-.845V14h.735v.474h2.2v-6.74h2.965v7.95h.735v.474h2.2V7.73h2.965v4.065h-2.527v2.2h.735v.474h3.883v-.845h.844V6.37h-.735v-.474h-.11V5.53h-.734v-.474h-4.321v-.699h6.739v-2.2h-.735v-.473Zm-.255 1.944h-6.74V5.31h5.056v.845h.845v6.739h-.845v.844h-3.372v-1.683h2.528V7h-4.212v8.428h-1.683V7h-4.212v6.74H77.74V6.155h.844V5.31h5.056V3.628H76.9V1.944h6.74V.255h1.684V1.94h6.739v1.683l-.005.006Zm14.099 5.9h-6.74v.844h6.74v-.844ZM105.316 7h-5.055v.844h5.055V7Zm.84 5.895h-6.74v.844h6.74v-.844Zm0-1.684h-6.74v.845h6.74v-.845Z" fill="#231815"/><path d="M95.68 11.102h1.792v3.737h.735v.474h.11v.365h.734v.474h8.939v-.844h.845v-4.69h.328v.473h2.199v-2.2h-.734v-.473h-.954v-.365h-.735v-.329h2.418v-2.2h-.735v-.473h-.953V2.997h-.735v-.474h-.11V.474h-.735V0h-2.199v.844h-.845v1.684h-.437V.474h-.735V0h-2.2v1.684h-.438v-.365h-.735V.844h-.109V.48h-.735V.005h-2.2v2.2h.735v.328h-1.574v2.2h.735v.328h-2.418v2.2h.735v.474h.954v.698h-1.684v2.2h.735v.474l.005-.005Zm-.475-.735V8.683h1.683V7.84h1.684v-.844H95.2V5.31h5.055v-.844h-3.372V2.783h1.684V1.94h-.845V.255h1.684V1.1h.844v1.683h.845V1.94h.844V.255h1.683V1.94h-.844v.844h2.528V1.1h.844V.255h1.684V1.94h-.845v.844h1.684v1.684h-6.739v.844h8.428v1.684h-3.373v.844h1.684v.844h1.684v1.684h-1.684v-.844h-.844v5.055h-.845v.845h-8.428v-.845h-.844V9.523h-.844v.844h-1.684.02Zm31.945 5.791v-.845h.844V5.202h1.684v-2.2h-.735v-.474h-.954V.474h-.735V0h-2.199v2.528h-5.056v.474h-.328v-.474h-.954V.474h-.735V0h-2.2v2.528h-2.528v2.2h.735v.474h.954v1.537h-.844v1.684h-.845v2.2h.735v.474h1.793v4.581h.735v.474h2.2V9.778h.328v.474h2.2V8.09h.328v.475h.109v1.209h.735v.474h.11v1.21h.735v.474h1.793v1.537h-3.373v2.2h.735v.474h4.728l.005.016Zm-6.89-6.63h-1.684v-.845h-.844v6.74h-1.684v-6.74h-.844v1.684h-1.684V8.683h.845V7h.844V5.316h.844v-.844h-2.528V2.788h2.528V.255h1.684v2.528h1.683v1.684h-1.683V6.15h.844v.845h.845v.844h.844v1.684l-.01.005Zm4.211 1.683h-1.684V9.528h-.844V7.844h-.844V6.161h1.683v1.683h.845v1.684h.844v1.683Zm.255-1.464v-.475h-.109V8.063h-.735V7.59h-.109V6.38h-.735v-.474h-2.2v2.163h-.328v-.474h-.11V7.23h-.735v-.474h-.109V6.39h-.735v-.474h-.109v-.699h1.683v-.474h.328v.474h4.321v4.545h-.328l.01-.015Zm-2.783 5.68v-1.683h3.372V4.472h-5.055V2.788h5.055V.255h1.684v2.528h1.683v1.684h-1.683v10.111h-.845v.845h-4.211v.005Zm10.377.731h4.728v-.845h1.683v-.844h1.684v-.474h.328v.474h.954v.365h.735v.474h.954v.365h.735v.474h3.883v-2.2h-.735v-.474h-1.793v-.365h-.735v-.474h-.954v-.365h-.735v-.474h-.109v-.698h.844V9.413h.845V7.73h.844V4.357h2.528v-2.2h-.735v-.473h-6.01V.474h-.735V0h-2.199v1.684h-6.739v2.199h.734v.474h1.793v2.054h.735v.474h.11v1.21h.735v.474h.109v1.209h.735v.474h.11v.365h.734v.474h.11v.365h.735v.329h-1.574v.844h-1.684v.844h-3.372v2.2h.735v.474l-.011.01Zm-.474-.735v-1.684h3.372v-.844h1.684v-.845h1.683v-.844h-.844v-.844h-.844v-.845h-.845V7.834h-.844V6.15h-.844V3.622h-2.528V1.94h6.739V.255h1.684V1.94h6.739v1.683h-2.528v3.373h-.844v1.683h-.845v1.684h-.844v.844h-.845v.845h1.684v.844h1.684v.844h2.527v1.684h-3.372v-.845h-1.683v-.844h-1.684v-.844h-.844v.844h-1.684v.844h-1.683v.845h-4.212.021Z" fill="#231815"/><path d="M138.585 9.528h.845v.844h.844v-.844h.845V7.844h.844V6.161h.844V3.633h-6.739v1.683h.844V7h.845v1.683h.844v.845h-.016Zm-.583-2.31v-.474h-.11V5.535h-.735v-.474h-.109v-.698h5.493V5.9h-.844v1.684h-.844v1.683h-.845v.474h-.328v-.474h-.109v-.365h-.735v-.474h-.11v-1.21h-.735.011ZM155.473 0h-2.2v2.528h-.844V4.21h-.845v1.684h-.844v1.683h-.844v2.2h.735v.474h1.793v5.42h.735v.475h2.199V3.518h.844V.474h-.734V0h.005Zm-.256 2.783h-.844v12.64h-1.684V7.839h-.844v1.684h-1.683V7.839h.844V6.156h.844V4.472h.845V2.788h.844V.255h1.684v2.528h-.006Zm2.163 12.53h.11v.365h.735v.474h7.255v-.844h.844v-3.883h-.734v-.474h-2.2v2.528h-3.81V7.724h5.9v-2.2h-.735v-.473h-5.165V.474h-.735V0h-2.2v14.839h.735v.474Zm-.474-.735V.255h1.684v5.056h5.9v1.684h-5.9v6.739h5.055v-2.528h1.684v3.372h-.844v.845h-6.74v-.845h-.844.005Zm16.632-8.422h-2.528V7h2.528v-.844Zm0 2.528h-2.528v.844h2.528v-.844Z" fill="#231815"/><path d="M168.957 16.158h3.883v-.845h1.282v.365h.735v.475h2.199v-.475h.329v.475h2.199V13.99h.328v.474h3.039v-.845h.844v-8.1h-.734v-.474h-.11v-.364h-.735v-.475h-.109v-.698h2.528v-2.19h-.735V.846h-4.321V.48h-.735V.005h-2.2V1.69h-.437v-.365h-.735V.85h-3.482V.485h-.735V.01h-2.199v1.683h-.845v2.2h.735v.474h.954v.698h-.844v8.428h-.845v2.2h.735v.474l.011-.01ZM182.805 5.31v7.584h-.844v.844h-2.528v-1.683h1.683v-5.9h-2.527v9.267h-1.684V5.31h.844v-.844h4.212v.844h.844Zm-3.226 6.484v-4.91h1.282v4.91h-1.282Zm.328-7.912v.329h-1.172v-.699h.437v.365h.735v.005Zm-3.846-1.944h.844V.256h1.684V1.1h5.055v1.683h-2.528v.845h-1.683v-.845h-1.684v.845h-1.683V1.944l-.005-.005Zm-.256 1.574v.365h.735v.474h.954v.699h-.844v8.902h-.329v-.474h-.109v-1.21h-.735v-.474h-.11v-.698h.845V5.53h-.735v-.474h-.11V4.69h-.734v-.474h-.11v-.699h1.282v-.005Zm-7.328.11V1.939h.844V.256h1.684V1.1h4.211v1.683h-1.683v.845h-1.684v-.845h-1.683v.845h-1.684l-.005-.005Zm3.847.255v.328h-1.173v-.698h.438v.365h.735v.005Zm-3.847 11.54v-1.684h.844V5.311h.845v-.844h4.211v.844h.845v5.056h-.845v.844h-3.372v2.528h.844v-.844h1.684v-.844h1.683v1.683h.845v1.684h-1.684v-.845h-2.528v.845h-3.372Zm4.8-3.482v.698h-1.282v-.698h1.282ZM7.657 29.975h11.55v-2.888H7.657v2.888Zm1.694-1.632h9.418v1.194H9.35v-1.194Zm9.856 4.519H7.657v1.444h11.55v-1.444Zm-11.55 7.219h11.55v-2.887H7.657v2.887ZM9.35 38.45h9.418v1.194H9.35V38.45Z" fill="#231815"/><path d="M26.869 39.643h-3.076v-11.3h2.888v-3.768h-1.256v-.818h-1.632v-.626h-1.256v-.818H18.77v1.444H9.35v-.626H8.094v-.818H4.326v1.444H1.444v3.768H2.7v.818h1.63v11.3H0v3.769h1.256v.818h3.075v1.194H0v3.768h1.256v.818h5.212v-1.444H10.8v-3.768H9.543v-.563h7.782v3.518h1.256v.819h3.075v.63h1.257v.819h5.212v-3.769h-1.256v-.818h-3.076v-.63h-1.256v-.564h5.588v-3.768h-1.256v-.828ZM9.106 47.3H4.774v1.444H.438v-2.888h4.331v-1.444H9.1V47.3h.006Zm17.325-1.444v2.888h-4.332V47.3h-4.33v-2.888h4.33v1.444h4.332Zm0-2.887H.438V40.08h4.331V27.087H1.882V24.2h2.887v-1.444h2.888V24.2h11.55v-1.444h2.887V24.2h2.888v2.887h-2.888v12.994h4.331v2.888h.006Zm31.825-1.882h-1.631v-1.194h1.443V30.35h-1.256v-.818h-.187v-.626h-1.257v-.818H50.85v-4.957h-1.257v-.818h-3.768v7.219h-.756v-3.513h-1.256V25.2h-3.075v-2.07h-1.256v-.818h-3.768v4.331H34.27v2.888h-1.444v2.887h-1.444v3.769h1.256v.818h1.632v12.18h1.256v.82h3.768V34.748h.563v.818h.188v12.181H41.3v.819h.188v.63h1.256v.819h15.318v-1.444h1.444v-6.656H58.25v-.819l.005-.01ZM39.3 28.343h.755v2.638H39.3v-2.638Zm-1.694 20.4h-2.888V35.75H31.83v-2.888h1.444v-2.887h1.444v-2.888h1.444v-4.331h2.887v4.331h-1.443v21.657ZM57.818 47.3h-1.444v1.444H41.937V47.3h-1.444V34.306H39.05V31.42h1.444v-5.776h2.888v4.332h2.887v-7.219h2.888v5.775h5.775v1.444h1.443v8.662h-1.443v1.444H50.6v-2.887h2.888V31.42h-4.331v11.55h-2.888V32.862h-2.887v12.994h11.55v-4.331h2.887V47.3Zm-10.737-3.893v.818h3.769v-3.706h.563v.818h3.075v4.081h-9.419v-11.3h.756v9.294h1.256v-.005Zm3.769-6.656V32.67h2.2v4.08h-2.2ZM89.644 38.2h-.188v-2.07H88.2v-.818h-.188v-2.069h-1.256v-.818h-3.075v-3.513h-1.256v-.563h2.7v-1.444h4.33v-3.768H88.2v-.819h-5.212v1.444h-18.77v3.768h1.257v.819h.188v3.513h1.256v.818h.187v.626h1.256v.818h.188v.63h1.256v.819h.188v.625h1.256v.563h-8.475v3.769h1.256v.818h3.075v1.193h-1.444v1.444H64.22v1.444h-1.444v3.768h1.256v.819H67.8v-1.444h1.444v-1.444h1.444v-1.444h1.444v-3.768h-1.256v-.563h3.45v7.85h1.256v.818h3.769v-8.663h1.443v-1.444h5.087v2.007h-.563v-.818H81.55v3.768h1.256v.819h.188v.625h1.256v.818h.188v.626h1.256v.818h.187v.63h1.257v.82h3.768v-3.77H89.65v-.818h-.188v-.63h-1.256v-.819h-.188v-.625h-1.256v-.818h-.187v-.563h.563v.818h3.768v-3.768H89.65v-.819l-.005-.015Zm-6.656-5.525v2.637h-2.2V34.12h1.444v-1.444h.756ZM70.432 44.413h-1.444v1.443h-1.444V47.3H66.1v1.444h-2.887v-2.888h1.443v-1.443H66.1v-1.444h1.444v-1.444h2.888v2.888Zm17.325 0v1.443H89.2v2.888h-2.888V47.3h-1.444v-1.444h-1.444v-1.443h-1.443v-2.888h2.887v1.444h1.444v1.444h1.444Zm1.444-2.888h-2.888v-2.887h-7.219v1.443H77.65v8.663h-2.887V40.08h-11.55v-2.887h8.662V35.75h-1.443v-1.444h-1.444v-1.444h-1.444V31.42H66.1v-2.89h2.888v1.444h1.444V28.53h1.443v-1.444h-7.219V24.2h18.77v-1.444h4.33v2.888h-4.33v1.444h-7.22v1.443h-1.443v1.444h-1.444v1.444h-1.444v1.443h1.444v1.444h1.444v-1.444h1.444V31.42h1.443v-1.444h1.444v-1.444h2.888v2.888h-1.444v1.443h-1.444v1.444H77.65v1.444h-1.443v1.444h2.887V35.75h4.331v-2.888h2.888v2.888h1.444v2.888H89.2v2.887ZM69.425 28.907v-.563h.563v.563h-.563Zm9.225-.563v1.193h-.756v-1.193h.756Zm-1.444 1.443v1.194h-.755v-1.194h.755Zm-1.443 1.444v1.194h-.756V31.23h.756Zm-1.444 1.444v.563h-.563v-.563h.563Zm46.712-10.362h-3.768v23.1h-5.775v3.769h1.256V50h8.099v-1.444h1.444V23.131h-1.256v-.818Zm-.438 24.987h-1.444v1.444h-7.218v-2.888h5.775v-23.1h2.887V47.3Zm-20.218-12.994h1.444v1.444h1.444v1.444h1.444v-2.888h1.443v-1.444h-5.775v1.444Zm1.882-.188h2.007v2.007h-.563v-.818h-.188v-.63h-1.256v-.564.005Z" fill="#231815"/><path d="M109.481 30.981h-.188v-.625h-1.256v-.819h-4.519v-1.193h7.975v15.068h1.256v.818h3.768V26.024h-1.256v-.818h-3.075v-.625h-1.256v-.819H94.168v3.769h1.256v.818h3.075v4.081h-1.444v2.888h-1.444v1.443h-1.443v3.769h1.256v.818h3.768v-1.444h1.444v-.818h.563v.818h.187v.626h1.257v.563h-1.257v1.443h-1.443v1.444h-1.444v1.444H95.61v3.768h1.257v.819h5.212v-1.444h1.443v-1.444h1.444v-1.444h1.444v-1.444h1.444v-2.887h1.443v-4.331h1.444v-5.213h-1.256v-.818l-.005-.005Zm2.45-5.337h2.887v17.325h-2.887V25.644Zm-2.888 10.106h-1.444v4.331h-1.443v2.888h-1.444v1.444h-1.444v1.443h-1.444V47.3h-1.444v1.444h-4.33v-2.888h2.887v-1.443h1.443v-1.444h1.444v-1.444h1.444v-1.444h-1.444v-1.443h-1.444v-1.444h-1.443v1.444h-1.444v1.443h-2.888v-2.887h1.444V35.75h1.444v-2.887h1.444v-5.776h-4.332V24.2h15.882v2.887h-8.663v2.888h5.775v1.444h1.444v4.331Zm43.375-6.213h-7.406v-1.194h2.888V26.9h4.331v-3.77h-1.256v-.818h-5.212v1.444h-12.994v2.262h-.563V25.2h-.188v-.626h-1.256v-.818h-.188v-.626h-1.256v-.818h-3.768v3.768h1.256v.819h.188v.63h1.256v.819h.187v.625h1.257v.818h1.631V31.8h-.563v-.818h-.188v-.626h-1.256v-.818h-3.768v3.768h1.256v.819h.188v.63h1.256v.819h.187v.625h1.257v.818h3.768V34.13h6.531v2.637h-5.775v1.444h-1.444v.818h-.563v-.818h-3.768v2.887h-1.444v2.888h-1.444v5.212h1.256v.819h3.769v-2.888h1.443V44.24h.756v3.519h1.256v.818h.188v.63h1.256v.819h15.318v-1.444h1.444V39.04h-1.256v-.819h-.188v-.63h-1.256v-.819h-4.519v-2.637h8.663v-3.768h-1.256v-.819l-.011-.01Zm-20.65 13.432h-1.444v2.887h-1.444v2.888h-2.887v-4.332h1.444v-2.887h1.443v-2.888h2.888v4.332ZM128.88 28.53v-1.444h-1.443v-1.444h-1.444v-2.887h2.887V24.2h1.444v1.444h1.444v2.887h-2.888Zm23.101 4.331h-8.663v4.332h5.775v1.443h1.444V47.3h-1.444v1.444h-14.438V47.3h-1.443v-8.663h1.443v-1.443h5.776v-4.332h-8.663v2.888h-2.888v-1.444h-1.443v-1.444h-1.444v-2.887h2.887v1.444h1.444v1.443h1.444v-2.887h8.663v-2.888h-7.219V24.2h12.994v-1.444h4.331v2.887h-4.331v1.444h-2.888v2.888h8.663v2.887Zm-11.988-4.519v1.194h-6.531V27.53h.563v.819h5.962l.006-.006Z" fill="#231815"/><path d="M136.094 45.857h11.55V40.08h-11.55v5.776Zm1.694-4.52h9.418v4.082h-9.418v-4.081Zm25.362-9.918h-1.444v1.444h1.444v-1.444Z" fill="#231815"/><path d="M183.806 28.093h-.188v-.63h-1.256v-.819h-3.075v-3.513h-1.256v-.818h-3.769v4.331h-2.199v-3.513h-1.256v-.818h-5.212v1.444h-7.219v3.768h1.256v.563h-2.7v3.768h1.256v.819h.188v4.956h1.256v.819h.188v.625h1.256v.563h-2.7v3.769h1.256v.818h3.075v1.193h-5.775v3.769h1.256v.818h8.1v-1.444h5.087v.631h1.256v.818h3.768v-2.887h.756v2.069h1.256v.818h5.212v-1.444h1.444v-19.65h-1.256V28.1l-.005-.006ZM171.375 26.9v1.193h-3.643V26.9h3.643Zm11.988 20.4h-1.444v1.444h-4.331v-2.888h2.887V29.975h-2.887v11.55h-1.444v4.331H174.7v2.888h-2.887V47.3h-7.219v1.444h-7.219v-2.888h5.775V42.97h-4.331v-2.89h4.331v-1.444h-2.887v-1.443h-1.444v-5.775h-1.444V28.53h5.775v-1.444h-4.331V24.2h7.219v-1.444h4.331v2.887h-4.331v2.888h5.775v-1.444h2.887v-4.331h2.888v4.331h4.331v1.444h1.444V47.3Zm-5.525-1.882v-2.637h1.444v-11.55h.756v14.187h-2.2Z" fill="#231815"/><path d="M171.813 31.419h-1.444v5.775h-1.444v1.444h-2.887v1.443h4.331v2.888h-4.331v1.444h5.775v1.444h1.444v-4.332h1.443v-11.55h-2.887v1.444Zm.25 1.256h1.444v-1.444h.755v9.856h-1.443v3.706h-.563v-.818h-.188v-3.513h-1.256v-.818h-.188V38.45h1.444v-5.775h-.005Zm-8.913 1.631h-1.444v1.444h1.444v-1.444Zm4.331 0h-1.443v1.444h1.443v-1.444Zm0-2.887h-1.443v1.444h1.443v-1.444Z" fill="#231815"/></g><defs><clipPath id="clip0_94_6049"><path fill="#fff" d="M0 0h185.062v50H0z"/></clipPath></defs></svg>