<svg fill="none" xmlns="http://www.w3.org/2000/svg" viewBox="0 0 234 30"><g clip-path="url(#clip0_787_16401)"><path d="M43.879 9.863h-4.694v-3.13h7.823v-3.13h-4.694V.475h-3.13v3.13h-6.258v3.13h3.13v14.081H34.49v4.7h-1.565v3.13h3.13v-3.13h1.564v-4.7h1.565v-7.823h3.13v12.523h-3.13v3.13h4.694V27.08h1.564V11.427H43.88V9.863ZM11.427 2.04H2.04v1.564H.474v25.035h3.13V11.427h3.13v1.565H5.168v3.13h1.564v1.564H5.17v1.565h7.823v-3.13h-1.565v1.565H9.863V16.12h1.564v-1.564h1.565v-1.565h-3.13v1.565H8.299v-1.565h1.565v-1.565h1.564V9.863h1.565v-6.26h-1.565V2.04ZM9.863 9.862h-6.26V8.298h6.26v1.565Zm0-3.13h-6.26V5.17h6.26v1.564ZM79.46 8.298h12.517v-3.13h-3.13V3.605h1.565V.474h-3.129V2.04h-1.565v3.13h-4.694V3.604h1.565V.474h-3.13v3.13h-1.564v1.565H76.33v-3.13h-1.564V.474h-3.13v3.13h1.565v1.565h-3.13v3.129h6.26v1.565h-9.389v3.129h6.259v1.565h-3.13v1.564h-3.129v3.13h3.13v-1.565h1.564v9.388h1.565v1.565h15.647v-1.565h1.564v-9.388h1.565v1.565h3.13v-3.13h-3.13v-1.564h-3.13v-1.565h6.26v-3.13H79.46V8.299Zm7.823 17.211H74.766v-1.564h12.517v1.564Zm0-3.129H74.766v-1.565h12.517v1.565Zm0-3.13H74.766v-1.564h12.517v1.565Zm-1.565-6.258v1.565H76.33v-1.565h9.388Z" fill="#fff"/><path d="M59.526 6.733H57.96V5.17h-1.565V2.04H54.83V.474h-3.129V2.04h-1.564v3.13h-1.565v1.564h-1.565v1.565h-1.565v3.13h3.13V9.862h1.565V8.298h1.564v-3.13h3.13v3.13h1.564v1.565h1.565v1.564h3.13v-3.13h-1.566V6.734Z" fill="#fff"/><path d="M50.138 14.557h3.129v1.564h3.13v1.565h3.129v-3.13H57.96v-1.564h-3.13v-1.565h-4.694v3.13ZM25.51 2.04h-9.39v1.564h-1.564v6.259h1.564v3.129h-1.564v3.13h1.564v1.564h-1.564v1.565h7.823v-3.13h-1.565v1.565H19.25V16.12h1.564v-1.564h1.565v-1.565h-3.13v1.565h-1.564v-1.565h1.565v-1.565h4.694V25.51h-3.13v3.13h4.694v-1.565h1.565V3.604h-1.565V2.039Zm-1.565 7.823h-6.26V8.298h6.26v1.565Zm0-3.13h-6.26V5.17h6.26v1.564Z" fill="#fff"/><path d="M22.38 23.945v-3.13h-3.13v1.565h-1.564v-1.565h-3.13v7.83h3.13v-3.13h3.13v-1.57h1.564Zm35.58 0h-1.564V22.38h-3.13v-1.565h-4.693v3.13h3.13v1.57h3.128v1.565h1.565v1.564h3.13v-3.129H57.96v-1.57Zm53.951-10.953h-1.565v-1.565h-1.564v-3.13h3.129V5.17h-3.129V.474h-3.13V5.17h-4.694v3.129h4.694v1.565h-1.564v3.129h-1.565v3.13h-1.565v3.129h3.13v-3.13h1.564v12.523h3.13V16.121h1.564v1.565h3.13v-3.13h-1.565v-1.564Zm103.613 9.388h-3.129v1.565h-3.129v1.564h-1.565v-4.694h6.259v-1.564h1.564V9.863h-1.564V8.298h-7.824v1.565h-1.564v15.646h-1.565v3.13h6.259v-1.565h4.694v1.565h3.129v-3.13h-1.565V22.38Zm-7.823-10.953h4.694v1.565h-4.694v-1.565Zm0 4.694h4.694v1.565h-4.694V16.12Zm-87.966-1.564h-1.565v-3.13h-3.13v3.13h1.565v3.129h1.565v3.13h3.129v-3.13h-1.564v-3.13ZM221.783.474h-3.129v3.13h-1.565v3.13h3.129V5.168h3.13v1.564h3.129V5.17h4.694V2.04h-9.388V.474Zm6.259 7.824h-7.824v1.565h-1.564v18.781h3.129V11.427h4.694V22.38h-3.129v3.135h4.694v-1.57h1.564V9.863h-1.564V8.298Zm-34.016 17.217h-9.388V12.992h10.952v-3.13h-10.952V.475h-3.13V27.08h1.565v1.564h12.517V27.08h1.565v-6.265h-3.129v4.7Zm12.11-20.346h3.13v1.564h3.129V5.17h3.129V2.04h-7.823V.474h-3.129v3.13h-1.565v3.13h3.129V5.168Zm-30.887 0h-1.564v3.129h-1.565v3.13h-1.565v3.129h-1.564v3.129h3.129v-3.13h1.565v14.088h3.129V5.17h1.565V.474h-3.13V5.17Z" fill="#fff"/><path d="M125.993.474h-3.129V5.17h-9.388v3.129h9.388v17.217h-6.259v3.13h7.824V27.08h1.564V8.298h3.13v-3.13h-3.13V.475ZM9.863 22.38H8.298v-1.565h-3.13v3.13h1.565v1.57h1.565v1.565h-3.13v1.564h4.695V27.08h1.564v-1.565h1.565v-4.7h-3.13v1.565ZM150.621.474h-3.129v3.13h-12.517v3.13h4.694v4.693h1.564v3.13h1.565v3.129h1.565v1.565h1.564v1.564h1.565v1.565h-3.129v1.565h-3.13v1.564h-6.258v3.13h7.823v-1.565h3.129v-1.565h3.13v-1.564h1.564v1.564h3.13v1.565h3.129v1.565h6.259v-3.13h-4.694v-1.564h-3.13V22.38h-3.129v-1.565h1.565v-1.564h1.564v-3.13h1.565v-3.13h1.565V6.734h4.694v-3.13h-12.518V.475Zm4.694 6.26v4.693h-1.564v3.13h-1.565v3.129h-1.565v1.565h-1.564v-1.565h-1.565V16.12h-1.565v-3.13h-1.564V9.864h-1.565v-3.13h12.517Z" fill="#fff"/><path d="M9.863 5.169h-6.26v1.564h6.26V5.17Zm0 7.823H8.298v1.565h1.565v-1.565Zm10.952 3.129h-1.564v1.565h1.564V16.12ZM9.863 8.298h-6.26v1.565h6.26V8.298Zm9.387 4.694h-1.564v1.565h1.565v-1.565Z" fill="#231815"/><path d="M27.554 3.13h-.203v-.678H25.99v-.887H15.646v1.564h-1.565v.887h-.61V3.13h-.203v-.677h-1.362v-.887H1.565V3.13H0v25.99h1.361v.887h4.084v-.887h.61v.887h5.649V28.44h1.565v-1.565h.819v2.243h1.361v.887h4.084v-3.13h.82v2.243h1.36v.887h5.65V28.44h1.564V4.016h-1.362V3.13h-.01ZM12.998 25.51h-1.565v1.564H9.868v1.565H5.174v-1.565h3.13v-1.565H6.739v-1.564H5.174v-3.13h3.13v1.565h1.564v-1.565h3.13v4.694Zm-6.734-.204v.678h1.362v.61H5.45v-2.175h.61v.887h.203Zm-.819-4.965v-.61h.61v.61h-.61Zm3.333.887v-.61h.61v.61h-.61Zm4.22-11.36h-1.565v1.565H9.868v1.565h3.13v1.564h-1.565v1.565h1.565v3.13H5.174v-1.565H6.74v-1.565H5.174v-3.13H6.74v-1.564H3.61v17.211H.474V3.604H2.04V2.039h9.388v1.565h1.565v6.259l.006.005Zm-7.553 7.35v-.611h.61v.61h-.61Zm8.643 4.015h-.61v-.61h.61v.61Zm0-4.694h-.61v-.61h.61v.61Zm0-3.13h-.61v-.886h-.204V11.23h1.565v-.887h.61v.886h.203v1.294h-1.564v.887ZM27.08 27.086h-1.565v1.565h-4.694v-3.13h-3.13v3.13h-3.129v-7.823h3.13v1.564h1.564v-1.564h3.13v3.129H20.82v1.565h3.13V11.438h-4.695v1.565h3.13v1.565H20.82v1.565h1.565v3.129h-7.824v-1.565h1.565v-1.564h-1.565v-3.13h1.565v-3.13h-1.565v-6.27h1.565V2.04h9.388v1.565h1.565v23.48Zm-12.247-6.733v-.61h.61v.61h-.61Zm3.333.887v-.61h.61v.61h-.61Zm5.304-5.304v.61h-.61v-.61h.61Zm-.61-2.52v-.61h.61v.61h-.61Zm.61 7.214v.61h-.61v-.61h.61Zm-8.642-3.4v-.61h.61v.61h-.61Z" fill="#231815"/><path d="M23.945 5.169h-6.26v1.564h6.26V5.17Zm0 3.129h-6.26v1.565h6.26V8.298Zm-12.518 7.823H9.863v1.565h1.564V16.12ZM61.57 7.823h-.203v-.677h-1.361v-.887h-.204v-.684h-1.361v-.887h-.203V2.446h-1.362v-.887h-.203V.881h-1.361V0h-4.084v1.565h-1.565v3.129h-.82v-.678h-1.36V3.13H44.15V.887h-1.361V0h-4.084v3.13h-6.26v4.083h1.362V8.1h1.768v12.246H34.01v4.695h-1.564v4.084h1.361v.886h4.084v-3.13h.814v2.244h1.36v.886h5.65v-1.564h1.564V12.8h2.384v2.242h1.361v.887h1.768v.684h1.362v.887h1.768v.677h1.361v.887h4.084V14.98h-1.361v-.887h-.204v-.683h-1.361v-.887h-1.768v-.678h-1.361v-.887h-3.333V9.665h1.565v-3.13h.819v2.243h1.361v.887h.203v.678h1.362v.886h.203v.678h1.361v.887h4.084V8.71h-1.361v-.887h-.006Zm-6.733 3.604v1.565h3.13v1.565h1.564v3.129h-3.13V16.12h-3.129v-1.564h-3.129v-3.13h4.694Zm6.259 0h-3.13V9.863h-1.564V8.298h-1.565v-3.13h-3.13v3.13h-1.564v1.565h-1.565v1.564H45.45v15.647h-1.565v1.565H39.19v-3.13h3.13V12.992h-3.13v7.823h-1.564v4.694H36.06v3.13h-3.13v-3.13h1.565v-4.694h1.565V6.733h-3.13v-3.13h6.26V.475h3.129v3.13h4.694v3.13h1.564V5.168h1.565v-3.13h1.565V.474h3.13V2.04h1.564v3.13h1.565v1.564h1.564v1.565h1.565v3.13ZM39.462 25.035v-2.858h1.564v-7.824h.82v10.682h-2.384Z" fill="#231815"/><path d="M47.008 8.298V6.733h-7.823v3.13h4.694v1.564h1.564v-3.13h1.565Zm-2.04 1.971h-.61v-.887h-3.332V8.09h3.949v2.175l-.006.005Zm15.038 14.766h-.204v-.684h-1.361v-.886h-.203v-.678h-1.362V21.9h-1.768v-.684h-1.361v-.887h-5.649v4.084h1.362v.887h1.768v.678h1.361v.887h1.768v.678h1.361v.887h.204v.683h1.361V30h4.084v-4.084h-1.361v-.887.006Zm-.475 3.604h-3.13v-1.565h-1.564v-1.565h-3.13v-1.564h-3.129v-3.13h4.694v1.565h3.13v1.565h1.565v1.564h1.564v3.13Zm27.752-7.824H74.766v1.565h12.517v-1.565Z" fill="#231815"/><path d="M95.587 9.388h-1.769V5.575h-1.36v-.887h-.204V.887h-1.362V0h-4.084v1.565h-1.564v3.129h-.82V.887h-1.36V0H78.98v3.13h-.82v-.678H76.8v-.887h-.204V.887h-1.362V0H71.15v4.084h1.362v.61h-2.926v4.084h1.361v.61h-4.49v4.084h1.36v.887h1.769v1.293h-3.13v4.084h1.362v.887h3.332v6.942h1.362v.887h.203v.684h1.361v.887h16.602v-1.565h1.565v-8.71h.61v.886h4.084v-4.083h-1.362v-.887h-1.768v-.678h-1.361v-.61h4.49v-4.084h-1.36v-.887l.01-.017Zm-.475 3.604h-6.259v1.565h3.13v1.564h3.129v3.13h-3.13v-1.565h-1.564v9.388h-1.565v1.565H73.207v-1.565h-1.565v-9.388h-1.565v1.565h-3.13v-3.13h3.13v-1.564h3.13v-1.565h-6.26v-3.13h9.389V8.299h-6.259v-3.13h3.13V3.605h-1.565V.474h3.13V2.04h1.564v3.13H77.9V3.604h1.564V.474h3.13v3.13H81.03v1.565h4.694v-3.13h1.565V.474h3.129v3.13h-1.565v1.565h3.13v3.129H79.465v1.565h15.647v3.129Z" fill="#231815"/><path d="M87.283 17.686H74.766v1.565h12.517v-1.565Zm0 6.259H74.766v1.564h12.517v-1.564Zm-1.565-10.953H76.33v1.565h9.388v-1.565Zm43.885-8.298h-1.768V.887h-1.362V0h-4.084v4.694h-9.388v.887h-.61v-.887h-1.768V.887h-1.361V0h-4.084v4.694h-4.694v4.084h1.361v.887h1.768v2.858h-1.564v3.13h-1.565v4.083h1.361v.887h3.333v8.507h1.361v.887h4.084v-11.84h.61v.887h4.084v-4.016h.61v.887h.204v2.242h1.361v.887h.203v2.243h1.362v.887h3.332v2.858h-6.258v4.084h1.361v.887h8.778v-1.565h1.565V9.659h3.129V5.575h-1.361v-.887.006Zm-16.122 12.992h-3.129V16.12h-1.565v12.52h-3.129V16.12h-1.565v3.13h-3.129v-3.13h1.565v-3.13h1.564V9.864h1.565V8.298h-4.694v-3.13h4.694V.475h3.129V5.17h3.13v3.129h-3.13v3.13h1.565v1.564h1.565v1.565h1.564v3.129Zm7.824 3.13h-3.13v-3.13h-1.564v-3.13h-1.565v-3.129h3.129v3.13h1.565v3.129h1.565v3.13Zm.474-2.723v-.887h-.203v-2.243h-1.361v-.887h-.204v-2.242h-1.361v-.887h-4.084v4.016h-.61v-.887h-.203v-.683h-1.362v-.887h-.203v-.678h-1.361v-.887h-.204V9.648h3.13V8.76h.61v.887h8.026v8.433h-.61v.012Zm7.349-9.795h-3.129v18.776h-1.565v1.565h-7.823v-3.13h6.259V8.298h-9.389v-3.13h9.389V.475h3.129V5.17h3.129v3.129Zm34.491-5.168h-11.156V.886h-1.362V0h-4.083v3.13H134.5v4.083h1.361V8.1h3.333v3.807h1.361v.887h.204v2.243h1.361v.887h.203v2.242h1.362v.887h.203v.678h1.361v.887h.204v.683h1.361v.61h-2.926v1.565h-3.129v1.565H134.5v4.084h1.361v.886h8.778v-1.564h3.13v-1.565h3.129v-.887h.61v.887h1.768v.678h1.362v.887h1.768v.683h1.361v.887h7.213v-4.084h-1.361v-.887h-3.333v-.683h-1.361v-.887h-1.768v-.678h-1.361v-.887h-.204v-1.293h1.565v-3.13h1.565v-3.13h1.564V8.1h4.694V4.016h-1.361V3.13Zm-.475 3.603h-4.694v6.259h-1.564v3.13h-1.565v3.129h-1.565v1.564h-1.564v1.565h3.129v1.565h3.129v1.564h4.694v3.13h-6.258v-1.565h-3.13v-1.565h-3.129v-1.564h-1.565v1.564h-3.129v1.565h-3.129v1.565h-7.824v-3.13h6.259v-1.564h3.129V22.38h3.13v-1.565h-1.565v-1.564h-1.565v-1.565h-1.564v-3.13h-1.565v-3.129h-1.565V6.733h-4.694v-3.13h12.518V.475h3.129v3.13h12.517v3.13Z" fill="#231815"/><path d="M142.798 9.863h1.565v3.129h1.564v3.13h1.565v1.564h1.565v1.565h1.564v-1.565h1.565v-3.13h1.565v-3.129h1.564V6.733h-12.517v3.13Zm1.836-1.768h10.207v2.858h-1.565v3.13h-1.564v3.128h-1.565v.887h-.61v-.887h-.204v-.683h-1.361v-.887h-.203V13.4h-1.362v-.887h-.203V10.27h-1.361v-.887h-.204V8.09l-.005.006Zm53.001 12.245h-4.084v4.695h-7.078V14.353h10.953V10.27h-1.361v-.887h-9.592V.887h-1.361V0h-4.084v27.554h1.361v.887h.204v.684h1.361v.886h13.472v-1.564h1.565v-7.214h-1.362v-.887l.006-.005Zm-.474 6.734h-1.565v1.565h-12.517v-1.565h-1.565V.474h3.129v9.389h10.953v3.129h-10.953v12.517h9.388v-4.694h3.13v6.259ZM178.859 0h-4.084v4.694h-1.565v3.13h-1.564v3.129h-1.565v3.13h-1.565v4.083h1.362v.887h3.332v10.072h1.362v.886h4.084V6.53h1.564V.887h-1.361V0Zm-.475 5.169h-1.564v23.47h-3.13V14.557h-1.564v3.129h-3.13v-3.13h1.565v-3.129h1.565v-3.13h1.564V5.17h1.565V.474h3.129V5.17Zm53.267-3.604h-8.026V.887h-1.362V0h-4.084v3.13h-.819v-.678h-1.361v-.887h-6.462V.887h-1.362V0h-4.084v3.13h-1.564v4.083h1.361V8.1h1.768v1.294h-1.565V25.04h-1.564v4.084h1.361v.886h7.213v-1.564h2.384v.683h1.362v.887h4.084v-.887h.61v.887h4.084V26h.61v.887h5.648v-1.565h1.565V10.286h-1.361V9.4h-.204v-.677h-1.361v-.887h-.203V6.54h4.694V2.457h-1.362v-.892Zm-28.644 5.168v-3.13h1.565V.475h3.129V2.04h7.823v3.13h-3.129v1.564h-3.129V5.17h-3.13v1.564h-3.129Zm7.146.475v.61h-2.175V6.524h.813v.678h1.362v.006Zm6.936 21.43h-3.129v-1.564h-4.694v1.565h-6.259v-3.13h1.565V9.863h1.564V8.298h7.824v1.565h1.564v9.388h-1.564v1.564h-6.259v4.694h1.565v-1.564h3.129V22.38h3.129v3.13h1.565v3.129Zm-5.168-6.461v1.293h-2.384v-1.293h2.384Zm6.258 3.739h-.61v-.887h-.203v-2.242h-1.361V21.9h-.204v-1.294h1.565V10.264h-1.361v-.887h-.204v-.678h-1.361v-.887h-.204V6.52h2.384v.677h1.362v.887h1.768v1.294h-1.565V25.91l-.006.006Zm11.427-16.053v14.082h-1.564v1.564h-4.694V22.38h3.129V11.427h-4.694V28.64h-3.129V9.863h1.564V8.298h7.824v1.565h1.564Zm-5.987 12.043v-9.117h2.384v9.117h-2.384Zm.61-14.698v.61h-2.175V6.524h.819v.678h1.362l-.006.006Zm6.942-2.04h-4.694v1.565h-3.129V5.17h-3.13v1.564h-3.129v-3.13h1.565V.475h3.129V2.04h9.388v3.13Z" fill="#231815"/><path d="M212.395 16.121h-4.694v1.565h4.694V16.12Zm0-4.694h-4.694v1.565h4.694v-1.565Z" fill="#231815"/></g><defs><clipPath id="clip0_787_16401"><path fill="#fff" d="M0 0h233.007v30H0z"/></clipPath></defs></svg>