<?xml version="1.0" encoding="UTF-8"?><svg id="_圖層_2" xmlns="http://www.w3.org/2000/svg" viewBox="0 0 195.45 30"><defs><style>.cls-1{fill:#fff;}</style></defs><g id="_圖層_1-2"><path class="cls-1" d="m23.41,29.5v-3.55h2.55v-11.73h-10.18V.5h13.73v29h-6.09Zm2.55-18.82v-1.55h-6.64v1.55h6.64Zm0-5.09v-1.54h-6.64v1.54h6.64Zm-10.18,23.91v-5.09h-1.55v2.54h-2.55v2.55h-3.55v-3.55h2.55v-1.54h-5.09v-3.55h5.09v-1.55h-5.09v-3.54h18.82v3.54h-5.09v1.55h5.09v3.55h-5.09v5.09h-3.55Zm0-8.64v-1.55h-1.55v1.55h1.55ZM.5,29.5V.5h13.73v13.73H4.05v15.27H.5ZM10.68,10.68v-1.55h-6.64v1.55h6.64Zm0-5.09v-1.54h-6.64v1.54h6.64Z"/><path d="m29,1v28h-5.09v-2.55h2.55v-12.73h-10.18V1h12.73m-10.18,5.09h7.64v-2.55h-7.64v2.55m0,5.09h7.64v-2.55h-7.64v2.55M13.73,1v12.73H3.55v15.27H1V1h12.73M3.55,6.09h7.64v-2.55H3.55v2.55m0,5.09h7.64v-2.55H3.55v2.55m20.36,5.09v2.55h-5.09v2.55h5.09v2.55h-5.09v5.09h-2.55v-5.09h-2.55v2.55h-2.55v2.55h-2.55v-2.55h2.55v-2.55h-5.09v-2.55h5.09v-2.55h-5.09v-2.55h17.82m-10.18,5.09h2.55v-2.55h-2.55v2.55M30,0h-14.73v14.73h10.18v10.73h-2.55v4.55h7.09V0h0Zm-10.18,4.55h5.64v.55h-5.64v-.55h0Zm0,5.09h5.64v.55h-5.64v-.55h0ZM14.73,0H0v30h4.55v-15.27h10.18V0h0ZM4.55,4.55h5.64v.55h-5.64v-.55h0Zm0,5.09h5.64v.55h-5.64v-.55h0Zm20.36,5.64H5.09v4.55h5.09v.55h-5.09v4.55h5.09v.55h-2.55v4.55h4.55v-2.55h2.55v-2.55h.55v5.09h4.55v-5.09h5.09v-4.55h-5.09v-.55h5.09v-4.55h0Zm-10.18,4.55h.55v.55h-.55v-.55h0Z"/><path class="cls-1" d="m51.41,29.5v-3.55h5.09V9.14h-10.18v-3.54h10.18V.5h3.55v5.09h2.55v3.54h-2.55v20.36h-8.64Zm-12.73,0v-10.18h-1.55v5.09h-3.55v-6.09h2.55v-5.09h2.55v-4.09h-5.09v-3.54h5.09V.5h3.55v5.09h2.55v3.54h-2.55v9.18h2.55v3.55h-2.55v7.64h-3.55Zm10.18-10.18v-2.54h-2.55v-3.54h3.55v2.54h2.55v3.54h-3.55Z"/><path d="m59.54,1v5.09h2.55v2.55h-2.55v20.36h-7.64v-2.55h5.09V8.64h-10.18v-2.55h10.18V1h2.55m-17.82,0v5.09h2.55v2.55h-2.55v10.18h2.55v2.55h-2.55v7.64h-2.55v-10.18h-2.55v5.09h-2.55v-5.09h2.55v-5.09h2.55v-5.09h-5.09v-2.55h5.09V1h2.55m7.64,12.73v2.55h-2.55v-2.55h2.55m2.55,2.55v2.55h-2.55v-2.55h2.55M60.54,0h-4.55v5.09h-10.18v4.55h10.18v15.82h-5.09v4.55h9.64V9.64h2.55v-4.55h-2.55V0h0Zm-17.82,0h-4.55v5.09h-5.09v4.55h5.09v3.09h-2.55v5.09h-2.55v7.09h4.55v-5.09h.55v10.18h4.55v-7.64h2.55v-4.55h-2.55v-8.18h2.55v-4.55h-2.55V0h0Zm7.64,12.73h-4.55v4.55h2.55v2.55h4.55v-4.55h-2.55v-2.55h0Z"/><path class="cls-1" d="m87.04,29.5v-3.55h2.55v-6.64h-11.73v7.64h-11.18V3.05h11.18v7.64h6.64v-4.09h-5.09v-3.54h5.09V.5h3.55v2.55h7.64v3.54h-7.64v4.09h7.64v3.55h-2.55v1.54h2.55v3.54h-2.55v10.18h-6.09Zm-12.73-6.09v-6.64h-4.09v6.64h4.09Zm15.27-7.64v-1.54h-11.73v1.54h11.73Zm-15.27-2.54v-6.64h-4.09v6.64h4.09Zm7.64,13.73v-2.54h-2.55v-3.55h3.55v2.55h2.55v3.54h-3.55Z"/><path d="m87.54,1v2.55h7.64v2.55h-7.64v5.09h7.64v2.55h-2.55v2.55h2.55v2.55h-2.55v10.18h-5.09v-2.55h2.55v-7.64h-12.73v7.64h-10.18V3.55h10.18v7.64h7.64v-5.09h-5.09v-2.55h5.09V1h2.55m-17.82,12.73h5.09v-7.64h-5.09v7.64m7.64,2.55h12.73v-2.55h-12.73v2.55m-7.64,7.64h5.09v-7.64h-5.09v7.64m12.73-2.55v2.55h-2.55v-2.55h2.55m2.55,2.55v2.55h-2.55v-2.55h2.55m3.55-23.91h-4.55v2.55h-5.09v4.55h5.09v3.09h-5.64V2.55h-12.18v24.91h12.18v-7.64h10.73v5.64h-2.55v4.55h7.09v-10.18h2.55v-4.55h-2.55v-.55h2.55v-4.55h-7.64v-3.09h7.64V2.55h-7.64V0h0Zm-17.82,7.09h3.09v5.64h-3.09v-5.64h0Zm7.64,7.64h10.73v.55h-10.73v-.55h0Zm-7.64,2.55h3.09v5.64h-3.09v-5.64h0Zm12.73,3.09h-4.55v4.55h2.55v2.55h4.55v-4.55h-2.55v-2.55h0Z"/><path class="cls-1" d="m122.68,29.5v-3.55h2.55v-11.73h-10.18V.5h13.73v29h-6.09Zm2.55-18.82v-1.55h-6.64v1.55h6.64Zm0-5.09v-1.54h-6.64v1.54h6.64Zm-17.82,23.91v-13.73h13.73v13.73h-13.73Zm10.18-3.55v-1.54h-6.64v1.54h6.64Zm0-5.09v-1.55h-6.64v1.55h6.64Zm-17.82,8.64V.5h13.73v13.73h-10.18v15.27h-3.54Zm10.18-18.82v-1.55h-6.64v1.55h6.64Zm0-5.09v-1.54h-6.64v1.54h6.64Z"/><path d="m128.27,1v28h-5.09v-2.55h2.55v-12.73h-10.18V1h12.73m-10.18,5.09h7.64v-2.55h-7.64v2.55m0,5.09h7.64v-2.55h-7.64v2.55m-5.09-10.18v12.73h-10.18v15.27h-2.55V1h12.73m-10.18,5.09h7.64v-2.55h-7.64v2.55m0,5.09h7.64v-2.55h-7.64v2.55m17.82,5.09v12.73h-12.73v-12.73h12.73m-10.18,5.09h7.64v-2.55h-7.64v2.55m0,5.09h7.64v-2.55h-7.64v2.55M129.27,0h-14.73v14.73h10.18v10.73h-2.55v4.55h7.09V0h0Zm-10.18,4.55h5.64v.55h-5.64v-.55h0Zm0,5.09h5.64v.55h-5.64v-.55h0Zm-5.09-9.64h-14.73v30h4.55v-15.27h10.18V0h0Zm-10.18,4.55h5.64v.55h-5.64v-.55h0Zm0,5.09h5.64v.55h-5.64v-.55h0Zm17.82,5.64h-14.73v14.73h14.73v-14.73h0Zm-10.18,4.55h5.64v.55h-5.64v-.55h0Zm0,5.09h5.64v.55h-5.64v-.55h0Z"/><path class="cls-1" d="m155.77,29.5v-3.55h2.54V.5h3.55v29h-6.09Zm-15.27,0v-3.55h5.09v-4.09h-5.09v-3.55h5.09v-4.09h-5.09v-6.09h2.54v-2.54h2.55v-1.54h-4.09v2.54h-2.55v22.91h-3.54v-15.27h-2.55v-3.55h2.55v-5.09h2.54V.5h16.27v2.55h2.55v18.82h-3.55v-7.64h-4.09v4.09h2.55v3.55h-2.55v4.09h5.09v3.55h-13.73Zm12.73-18.82v-6.64h-4.09v2.54h-2.54v2.54h-2.55v1.55h9.18Z"/><path d="m161.36,1v28h-5.09v-2.55h2.55V1h2.55m-7.64,0v2.55h-5.09v2.55h-2.55v-2.55h-5.09v2.55h-2.55V1h15.27m2.55,2.55v17.82h-2.55v-7.64h-5.09v5.09h2.55v2.55h-2.55v5.09h5.09v2.55h-12.73v-2.55h5.09v-5.09h-5.09v-2.55h5.09v-5.09h-5.09v-5.09h2.55v2.55h10.18V3.55h2.55m-10.18,2.55v2.55h-2.55v-2.55h2.55m-7.64,0v22.91h-2.55v-15.27h-2.55v-2.55h2.55v-5.09h2.55m23.91-6.09h-4.55v25.45h-2.55v4.55h7.09V0h0Zm-7.64,0h-17.27v5.09h-2.55v5.09h-2.55v4.55h2.55v15.27h4.55V7.09h2.55v-2.55h3.09v.55h-2.55v2.55h-2.55v7.09h5.09v3.09h-5.09v4.55h5.09v3.09h-5.09v4.55h14.73v-4.55h-5.09v-3.09h2.55v-4.55h-2.55v-3.09h3.09v7.64h4.55V2.55h-2.55V0h0Zm-5.09,4.55h3.09v5.64h-8.18v-.55h2.55v-2.55h2.55v-2.55h0Z"/><path class="cls-1" d="m191.41,29.5v-2.55h-2.55v-2.54h-1.54v2.54h-2.55v2.55h-6.09v-2.55h-6.64v2.55h-6.09v-3.55h5.09v-1.54h-5.09v-3.55h2.55v-9.18h-2.55v-3.55h2.55V3.05h5.09V.5h3.54v2.55h5.09v5.09h1.55V.5h3.55v2.55h7.64v3.54h-2.54v12.73h-2.55v4.09h2.55v2.54h2.54v3.55h-3.54Zm-7.64-3.55v-2.54h2.55v-4.09h-1.55v2.55h-2.55v2.55h-2.54v1.54h4.09Zm-5.09-2.54v-1.55h-6.64v1.55h6.64Zm10.18-5.09V6.59h-1.54v2.54h-2.55v2.55h-2.55v6.64h1.55v-5.09h3.55v5.09h1.54Zm-10.18,0v-1.54h-1.55v1.54h1.55Zm-5.09,0v-1.54h-1.55v1.54h1.55Zm5.09-5.09v-1.55h-1.55v1.55h1.55Zm-5.09,0v-1.55h-1.55v1.55h1.55Zm5.09-5.09v-1.54h-1.55v1.54h1.55Zm-5.09,0v-1.54h-1.55v1.54h1.55Z"/><path d="m186.81,1v2.55h7.64v2.55h-2.55v12.73h-2.55V6.09h-2.55v2.55h-2.55V1h2.55m-10.18,0v2.55h5.09v5.09h2.55v2.55h-2.55v7.64h2.55v2.55h-2.55v2.55h-2.55v-2.55h-7.64v2.55h-5.09v-2.55h2.55v-10.18h-2.55v-2.55h2.55V3.55h5.09V1h2.55m0,7.64h2.55v-2.55h-2.55v2.55m-5.09,0h2.55v-2.55h-2.55v2.55m5.09,5.09h2.55v-2.55h-2.55v2.55m-5.09,0h2.55v-2.55h-2.55v2.55m5.09,5.09h2.55v-2.55h-2.55v2.55m-5.09,0h2.55v-2.55h-2.55v2.55m15.27-5.09v5.09h-2.55v-5.09h2.55m2.55,5.09v5.09h-2.55v-5.09h2.55m2.55,5.09v2.55h-2.55v-2.55h2.55m-5.09,0v2.55h-2.55v-2.55h2.55m-7.64,0v2.55h-7.64v-2.55h7.64m15.27,2.55v2.55h-2.55v-2.55h2.55m-10.18,0v2.55h-5.09v-2.55h5.09m-12.73,0v2.55h-5.09v-2.55h5.09M187.81,0h-4.55v7.64h-.55V2.55h-5.09V0h-4.55v2.55h-5.09v5.09h-2.55v4.55h2.55v8.18h-2.55v4.55h5.09v.55h-5.09v4.55h7.09v-2.55h5.64v2.55h7.09v-2.55h2.55v-2.55h.55v2.55h2.55v2.55h4.55v-4.55h-2.55v-2.55h-2.55v-3.09h2.55V7.09h2.55V2.55h-7.64V0h0Zm0,7.09h.55v10.73h-.55v-5.09h-4.55v5.09h-.55v-5.64h2.55v-2.55h2.55v-2.55h0Zm-10.18,0h.55v.55h-.55v-.55h0Zm-5.09,0h.55v.55h-.55v-.55h0Zm5.09,5.09h.55v.55h-.55v-.55h0Zm-5.09,0h.55v.55h-.55v-.55h0Zm5.09,5.09h.55v.55h-.55v-.55h0Zm-5.09,0h.55v.55h-.55v-.55h0Zm12.73,2.55h.55v3.09h-2.55v2.55h-3.09v-.55h2.55v-2.55h2.55v-2.55h0Zm-12.73,2.55h5.64v.55h-5.64v-.55h0Z"/></g></svg>