<svg fill="none" xmlns="http://www.w3.org/2000/svg" viewBox="0 0 80 37"><g clip-path="url(#clip0_94_6431)"><path d="M28.12 2.49h1.91V.58h-3.81v1.91h-1.91V4.4H12.88V2.49h-1.91V.58H7.16v1.91h1.91V4.4H1.44v3.81h15.25v1.91h-1.91v1.91H7.16v1.91H5.25V33h1.91v1.91h22.87V33h1.91V13.92h-1.91v-1.91H18.6V10.1h1.91V8.19h15.25V4.38h-7.62V2.47l-.02.02Zm0 28.59H9.06v-3.81h19.06v3.81Zm0-7.62H9.06v-1.91h19.06v1.91Zm0-7.62v1.91H9.06v-1.91h19.06ZM42.87 6.3h13.34v1.91h-7.62v1.91h-1.91v17.15h1.91v1.91h1.91v1.91h-7.62v3.81h7.62v-1.91h3.81v-3.81h11.43v3.81h3.81v1.91h7.62v-3.81h-7.62v-1.91h1.91v-1.91h1.91V10.11h-1.91V8.2H60.03V6.29h17.15V2.48h-34.3v3.81l-.01.01Zm26.68 19.06H50.49v-1.91h19.06v1.91Zm0-5.72H50.49v-1.91h19.06v1.91Zm0-7.62v1.91H50.49v-1.91h19.06Z" fill="#fff"/><path d="M9.06 31.07h19.06v-3.81H9.06v3.81Zm2.24-2.15h16.24v1.57H11.3v-1.57Zm16.82-7.38H9.06v1.91h19.06v-1.91Zm0-5.71H9.06v1.91h19.06v-1.91Z" fill="#231815"/><path d="M36.32 3.81h-4.06V1.08H30.6V0h-4.97v1.91h-1.91v1.91H15.1v-.83h-1.66V1.91h-.25v-.83h-1.66V0H6.56v3.07h1.66v.75H.86v4.97h1.66v1.08H14.2v1.57H6.58v1.91H4.67v20.22h1.66v1.08h.25v.83h1.66v1.08h24.03v-1.91h1.91V14.42h-1.66v-1.08h-.25v-.83h-1.66v-1.08h-7.87V9.86h15.25V4.89h-1.66V3.81h-.01Zm-.58 4.39H20.49v1.91h-1.91v1.91h11.43v1.91h1.91v19.06h-1.91v1.91H7.16v-1.91H5.25V13.92h1.91v-1.91h7.62V10.1h1.91V8.19H1.44V4.38h7.62V2.47H7.15V.58h3.81v1.91h1.91V4.4H24.3V2.49h1.91V.58h3.81v1.91h-1.91V4.4h7.62v3.81l.01-.01Zm33.81 3.81H50.49v1.91h19.06v-1.91Zm0 11.44H50.49v1.91h19.06v-1.91Z" fill="#231815"/><path d="M77.75 1.91H42.29v4.97h1.66v1.08h4.06v1.57H46.1v18.31h1.66v1.08h.25v.83h1.66v.75H42.3v4.97h1.66v1.08h8.78v-1.91h3.81v-3.81h8.62v2.73h1.66v1.08h2.15v.83h1.66v1.08h8.78v-4.97h-1.66V30.5H73.7v-1.57h1.91V10.61h-1.66V9.53h-.25V8.7h-1.66v-.75h7.37V2.98h-1.66V1.9v.01Zm-.58 4.39H60.02v1.91h11.43v1.91h1.91v17.15h-1.91v1.91h-1.91v1.91h7.62v3.81h-7.62v-1.91h-3.81v-3.81H54.3v3.81h-3.81v1.91h-7.62v-3.81h7.62v-1.91h-1.91v-1.91h-1.91V10.11h1.91V8.2h7.62V6.29H42.86V2.48h34.3v3.81l.01.01Z" fill="#231815"/><path d="M69.55 17.73H50.49v1.91h19.06v-1.91Z" fill="#231815"/></g><defs><clipPath id="clip0_94_6431"><path fill="#fff" transform="translate(.86)" d="M0 0h78.55v36.54H0z"/></clipPath></defs></svg>