<svg fill="none" xmlns="http://www.w3.org/2000/svg" viewBox="0 0 245 37"><g clip-path="url(#clip0_94_6628)"><path d="M72.5 31.31H57.26V14.16h3.81V27.5h3.81V12.25h5.72v7.63h-3.82v3.81h5.72v-1.91h1.91V10.35H72.5V8.44h-7.62V.82h-3.81v9.53h-3.81V4.63h-3.82v7.62h-1.9v3.82h1.9v17.15h1.91v1.9h19.06v-1.9h1.9V25.6H72.5v5.71ZM51.54.82h-3.81v5.72h-1.91v3.81h-1.9v3.81h-1.91v3.81h3.81v17.15h3.81V6.54h1.91V.82Zm90.48 9.53h-7.62V6.54h11.43V2.73h-20.96v3.81h5.72v7.62h-1.91v3.81h-1.91v1.91h-1.91v3.81h3.81v-1.91h1.91v-1.91h1.91v1.91h1.91v1.91h1.91v1.91h-1.91v1.91h-1.91v1.91h-1.91v1.91h-3.81v3.81h5.72v-1.91h1.91v-1.91h1.91v-1.91h1.91V27.5h1.91v-3.81h1.91v-5.72h1.91v-5.72h-1.91v-1.91l-.02.01Zm-1.91 5.72h-1.91v3.81h-1.91v-1.91h-1.91v-1.91h-1.91v-1.91h7.62v1.91l.02.01Zm11.44-11.44h-3.81V27.5h3.81V4.63Z" fill="#fff"/><path d="M155.36 31.31h-7.62v3.81h9.53v-1.9h1.9V.82h-3.81v30.49Zm-41.43-3.81h-1.9v-1.9h-3.82v3.81h1.91v1.9h1.91v1.91h1.9v1.9h3.81v-3.81h-1.9v-1.9h-1.91V27.5Z" fill="#fff"/><path d="M115.84 17.97h-1.91v-3.81h-3.81v3.81h-5.72v1.91h-3.81v-1.91h1.91v-1.9h1.9v-1.91h1.91v-1.91h1.9V8.44h-3.81v1.91h-1.9v1.9h-1.91v1.91h-1.9v1.91h-1.91v-1.91h-1.91v-1.91h1.91v-1.9h1.91V8.44h1.9v-1.9h9.53V4.63h5.72V.82h-5.72v1.91H85.35v3.81h9.52v1.9h-1.9v1.91h-1.91V8.44h-3.81v3.81h1.91v1.91h1.9v1.91h1.91v1.9h1.9v1.91H83.44v3.81h15.25v11.43h3.81V23.69h1.9v-1.91h9.53v3.82h3.81v-3.82h-1.9v-3.81Z" fill="#fff"/><path d="M89.16 27.5h-1.91v1.91h-1.9v1.9h-1.91v3.81h3.81v-1.9h1.91v-1.91h1.9v-1.9h1.91V25.6h-3.81v1.9ZM240.13 6.54h-5.72V.82h-3.81v5.72h-3.81v1.91h-7.62V4.64h5.72V.82h-5.72v1.91h-9.53v3.81h5.72v1.91h-7.62v3.81h1.91v7.62h1.91v1.91h3.81v1.91h-5.72v3.81h5.72v3.81h-7.62v3.81h9.53v-1.91h9.53v1.91h3.81v-3.81h1.91V25.6h1.91V10.35h3.81v20.96h-3.81v3.81h5.72v-1.91h1.91V8.44h-1.91V6.53l-.03.01Zm-24.77 11.43h-1.91v-1.91h1.91v1.91Zm0-3.81h-1.91v-1.91h1.91v1.91Zm3.81-1.91h1.91v1.91h-1.91v-1.91Zm0 3.81h1.91v1.91h-1.91v-1.91Zm11.43 9.53h-1.91v5.72h-1.91V29.4h-7.62v-1.91h5.72v-3.81h-5.72v-1.91h3.81v-1.91h1.91v-7.62h1.91v-1.91h3.81v15.26ZM29.17 6.54h3.81V2.73h-3.81V.82h-3.81v1.91H10.11V.82H6.3v1.91H2.49v3.81H6.3v17.15H.58v3.81h34.3v-3.81h-5.72V6.54h.01Zm-3.81 17.15H10.11v-3.81h15.25v3.81Zm0-7.62H10.11v-1.91h15.25v1.91Zm0-5.72H10.11V6.54h15.25v3.81Zm3.81 19.06h-5.72v3.81h5.72v1.9h5.71v-3.81h-5.71v-1.9ZM6.3 31.31H.58v3.81H6.3v-1.9h5.71v-3.81H6.3v1.9ZM173.92 4.63h-1.9v-1.9h-1.91V.82h-3.81v3.81h1.91v1.91h1.9v1.9h3.81V4.63Zm-1.9 7.62h-1.91v-1.9h-3.81v3.81h1.91v1.91h1.9v1.9h3.81v-3.81h-1.9v-1.91Zm-1.91 13.35h-1.9v3.81h-1.91v5.71h3.81v-3.81h1.91V27.5h1.9v-5.72h-3.81v3.82Zm19.06-19.06h3.81V4.63h5.72V.82h-5.72v1.91h-17.15v3.81h9.53v3.81h-11.43v3.81h11.43v5.72h-7.62v1.91h-1.91v11.43h1.91v1.91h19.06v-1.91h1.91V21.79h-1.91v-1.91h-7.62v-5.72h11.43v-3.81h-11.43V6.54h-.01Zm5.72 17.15v7.62h-15.25v-7.62h15.25Z" fill="#fff"/><path d="M10.11 23.69h15.25v-3.81H10.11v3.81Zm2.24-2.15h12.43v1.57H12.35v-1.57Zm13.01-7.38H10.11v1.91h15.25v-1.91Z" fill="#231815"/><path d="M35.46 23.11H31.4V8.19h3.81V3.22h-1.66V2.14H31.4v-.83h-1.66V.24h-4.97v1.91H12.34v-.83h-1.66V.24H5.71v1.91h-3.8v4.97h1.66V8.2h2.15v14.91H0v4.97h1.66v1.08h4.06v1.57H0v4.97h1.66v1.08h6.88v-1.91h5.72V29.9H12.6v-.75h10.27v4.64h1.66v1.08h4.06v.83h1.66v1.08h6.88v-4.97h-1.66v-1.08h-4.06v-.83h-1.66v-.75h7.37v-4.97h-1.66V23.1v.01ZM12.01 33.22H6.29v1.91H.58v-3.81H6.3v-1.91h5.72v3.81h-.01Zm22.87-1.91v3.81h-5.72v-1.91h-5.72V29.4h5.72v1.91h5.72Zm0-3.81H.58v-3.81H6.3V6.54H2.49V2.73H6.3V.82h3.81v1.91h15.25V.82h3.81v1.91h3.81v3.81h-3.81v17.15h5.72v3.81h-.01Z" fill="#231815"/><path d="M10.11 10.35h15.25V6.54H10.11v3.81Zm2.24-2.15h12.43v1.57H12.35V8.2Zm64.54 16.82h-2.15v-1.57h1.91V10.86h-1.66V9.78h-.25v-.83h-1.66V7.87h-5.97V1.32h-1.66V.24h-4.97v9.53h-.99V5.13h-1.66V4.05h-4.06V1.32h-1.66V.24h-4.97v5.72h-1.91v3.81h-1.91v3.81h-1.91v4.97h1.66v1.08h2.15v16.08h1.66v1.08h4.97V16.66h.75v1.08h.25v16.07h1.66v1.08h.25v.83h1.66v1.08h20.22v-1.91h1.91v-8.78h-1.66v-1.09ZM51.87 8.19h.99v3.48h-.99V8.19Zm-2.24 26.93h-3.81V17.97h-3.81v-3.81h1.91v-3.81h1.91V6.54h1.91V.82h3.81v5.72h-1.91v28.59l-.01-.01Zm26.68-1.91H74.4v1.91H55.34v-1.91h-1.91V16.07h-1.91v-3.81h1.91V4.64h3.81v5.72h3.81V.82h3.81v7.62h7.62v1.91h1.91v11.43h-1.91v1.91h-5.72v-3.81h3.81v-7.62h-5.72v15.25h-3.81V14.17h-3.81v17.15h15.25V25.6h3.81v7.62l.02-.01Zm-14.17-5.14v1.08h4.97v-4.89h.75v1.08h4.06v5.39H59.49V15.81h.99v12.26h1.66Zm4.97-8.78V13.9h2.9v5.39h-2.9Zm51.21 1.91h-.25v-2.73h-1.66v-1.08h-.25v-2.73h-1.66v-1.08h-4.06V8.94h-1.66v-.75h3.56V6.28h5.72V1.32h-1.66V.24h-6.88v1.91H84.75v4.97h1.66V8.2h.25v4.64h1.66v1.08h.25v.83h1.66v1.08h.25v.83h1.66v1.08h.25v.83h1.66v.75H82.86v4.97h1.66v1.08h4.06v1.57h-1.91v1.91h-1.91v1.91h-1.91v4.97h1.66v1.08h4.97V34.9h1.91v-1.91h1.91v-1.91h1.91v-4.97h-1.66v-.75h4.56v10.36h1.66v1.08h4.97V25.37h1.91v-1.91h6.71v2.65h-.75v-1.08h-4.97V30h1.66v1.08h.25v.83h1.66v1.08h.25v.83h1.66v1.08h.25v.83h1.66v1.08H120v-4.97h-1.66v-1.08h-.25v-.83h-1.66v-1.08h-.25v-.83h-1.66v-1.08h-.25v-.75h.75v1.08h4.97V22.3h-1.66v-1.08l-.01-.02Zm-8.78-7.29v3.48h-2.9v-1.57h1.91v-1.91h.99ZM92.97 29.4h-1.91v1.91h-1.91v1.91h-1.91v1.91h-3.81v-3.81h1.91v-1.91h1.91V27.5h1.91v-1.91h3.81v3.81Zm22.87 0v1.91h1.91v3.81h-3.81v-1.91h-1.91V31.3h-1.91v-1.91h-1.91v-3.81h3.81v1.91h1.91v1.91h1.91Zm1.91-3.81h-3.81v-3.81h-9.53v1.91h-1.91v11.43h-3.81V23.69H83.44v-3.81h11.43v-1.91h-1.91v-1.91h-1.91v-1.91h-1.91v-1.91h-1.91V8.43h3.81v1.91h1.91V8.43h1.91V6.52h-9.53V2.71h24.77V.82h5.72v3.81h-5.72v1.91h-9.53v1.91h-1.91v1.91h-1.91v1.91h-1.91v1.91h1.91v1.91h1.91v-1.91h1.91v-1.91h1.91v-1.91h1.91V8.45h3.81v3.81h-1.91v1.91h-1.91v1.91h-1.91v1.91h-1.91v1.91h3.81v-1.91h5.72v-3.81h3.81v3.81h1.91v3.81h1.91v3.81l.03-.02ZM91.65 8.94v-.75h.75v.75h-.75Zm12.18-.75v1.57h-.99V8.19h.99Zm-1.91 1.91v1.57h-.99V10.1h.99Zm-1.91 1.91v1.57h-.99v-1.57h.99Zm-1.91 1.91v.75h-.75v-.75h.75ZM159.75.24h-4.97v30.49h-7.62v4.97h1.66v1.08h10.69v-1.91h1.91V1.32h-1.66V.24h-.01Zm-.58 32.98h-1.91v1.91h-9.53v-3.81h7.62V.82h3.81v32.4h.01Z" fill="#231815"/><path d="M144.51 11.67h-.25v-.83h-1.66V9.76h-5.97V8.19h10.52v19.89h1.66v1.08h4.97V5.13h-1.66V4.05h-4.06v-.83h-1.66V2.14h-22.12v4.97h1.66v1.08H130v5.39h-1.91v3.81h-1.91v1.91h-1.91v4.97h1.66v1.08h4.97v-1.91h1.91v-1.08h.75v1.08h.25v.83h1.66v.75h-1.66v1.91h-1.91v1.91h-1.91v1.91h-3.81v4.97h1.66v1.08h6.88v-1.91h1.91v-1.91h1.91v-1.91h1.91v-1.91h1.91v-3.81h1.91v-5.72h1.91v-6.88h-1.66v-1.08h-.01Zm3.23-7.04h3.81V27.5h-3.81V4.63Zm-3.81 13.34h-1.91v5.72h-1.91v3.81h-1.91v1.91h-1.91v1.91h-1.91v1.91h-1.91v1.91h-5.72v-3.81h3.81v-1.91h1.91v-1.91h1.91V25.6h1.91v-1.91h-1.91v-1.91h-1.91v-1.91h-1.91v1.91h-1.91v1.91h-3.81v-3.81h1.91v-1.91h1.91v-3.81h1.91V6.54h-5.72V2.73h20.96v3.81h-11.43v3.81H142v1.91h1.91v5.72l.02-.01Z" fill="#231815"/><path d="M132.49 16.07h1.91v1.91h1.91v1.91h1.91v-3.81h1.91v-1.91h-7.62v1.91l-.02-.01Zm2.49-.25h2.65v2.65h-.75v-1.08h-.25v-.83h-1.66v-.75l.01.01Zm44.66 15.49h15.25v-7.62h-15.25v7.62Zm2.24-5.97h12.43v5.39h-12.43v-5.39Z" fill="#231815"/><path d="M201.18 9.77h-9.78V8.2h3.81V6.29h5.72V1.32h-1.66V.24h-6.88v1.91h-17.15v2.98h-.75V4.05h-.25v-.83h-1.66V2.14h-.25v-.83h-1.66V.24h-4.97v4.97h1.66v1.08h.25v.83h1.66V8.2h.25v.83h1.66v1.08h2.15v2.65h-.75v-1.08h-.25v-.83h-1.66V9.77h-4.97v4.97h1.66v1.08h.25v.83h1.66v1.08h.25v.83h1.66v1.08h4.97v-3.81h8.62v3.48h-7.62v1.91h-1.91v1.08h-.75v-1.08h-4.97v3.81h-1.91v3.81h-1.91v6.88h1.66v1.08h4.97v-3.81h1.91v-3.81h.99v4.64h1.66v1.08h.25v.83h1.66v1.08h20.22V34.9h1.91V22.31h-1.66v-1.08h-.25v-.83h-1.66v-1.08h-5.97v-3.48h11.43v-4.97h-1.66V9.79l.02-.02ZM173.92 27.5h-1.91v3.81h-1.91v3.81h-3.81V29.4h1.91v-3.81h1.91v-3.81h3.81v5.72Zm-3.81-19.06V6.53h-1.91V4.62h-1.91V.82h3.81v1.91h1.91v1.91h1.91v3.81h-3.81v-.01Zm30.49 5.72h-11.43v5.72h7.62v1.91h1.91v11.43h-1.91v1.91h-19.06v-1.91h-1.91V21.79h1.91v-1.91h7.62v-5.72h-11.43v3.81h-3.81v-1.91h-1.91v-1.91h-1.91v-3.81h3.81v1.91h1.91v1.91h1.91v-3.81h11.43V6.54h-9.53V2.73h17.15V.82h5.72v3.81h-5.72v1.91h-3.81v3.81h11.43v3.81h.01Zm-15.83-5.97v1.57h-8.62V7.11h.75v1.08h7.87Zm30.59 7.88h-1.91v1.91h1.91v-1.91Zm0-3.82h-1.91v1.91h1.91v-1.91Zm5.71 0h-1.91v1.91h1.91v-1.91Z" fill="#231815"/><path d="M242.61 7.86h-.25v-.83h-1.66V5.95h-4.06V1.32h-1.66V.24h-4.97v5.72h-2.9V1.32h-1.66V.24h-6.88v1.91h-9.53v4.97h1.66v.75h-3.56v4.97h1.66v1.08h.25v6.55h1.66v1.08h.25v.83h1.66v.75h-3.56v4.97h1.66v1.08h4.06v1.57h-7.62v4.97h1.66v1.08h10.69v-1.91h6.71v.83h1.66v1.08h4.97v-3.81h.99v2.73h1.66v1.08h6.88v-1.91h1.91V8.94h-1.66V7.86h-.02ZM226.2 6.29v1.57h-4.81V6.29h4.81Zm15.83 26.93h-1.91v1.91h-5.72v-3.81h3.81V10.35h-3.81V25.6h-1.91v5.72h-1.91v3.81h-3.81v-1.91h-9.53v1.91h-9.53v-3.81h7.62v-3.81h-5.72V23.7h5.72v-1.91h-3.81v-1.91h-1.91v-7.62h-1.91V8.45h7.62V6.54h-5.72V2.73h9.53V.82h5.72v3.81h-5.72v3.81h7.62V6.53h3.81V.82h3.81v5.72h5.72v1.91H242v24.78l.03-.01Zm-7.29-2.49v-3.48h1.91V12h.99v18.73h-2.9Z" fill="#231815"/><path d="M221.07 16.07h-1.91v1.91h1.91v-1.91Zm5.72-3.82h-1.91v7.62h-1.91v1.91h-3.81v1.91h5.72v3.81h-5.72v1.91h7.62v1.91h1.91V25.6h1.91V10.35h-3.81v1.91-.01Zm.33 1.66h1.91V12h.99v13.01h-1.91v4.89h-.75v-1.08h-.25v-4.64h-1.66V23.1h-.25v-1.57h1.91v-7.62h.01Z" fill="#231815"/></g><defs><clipPath id="clip0_94_6628"><path fill="#fff" transform="translate(0 .24)" d="M0 0h244.27v36.54H0z"/></clipPath></defs></svg>