<svg fill="none" xmlns="http://www.w3.org/2000/svg" viewBox="0 0 201 30"><g clip-path="url(#clip0_94_5866)"><path d="M105.652 20.815h-3.129v6.26h3.129v-6.26Zm-46.126-9.388h1.564V3.604h-1.565V2.039H47.008v1.565h-1.565v7.823h1.565v1.565h12.517v-1.565ZM57.96 9.862h-9.388V8.298h9.388v1.564Zm0-3.129h-9.388V5.168h9.388v1.565Zm66.469 6.259h-1.565v4.694h1.565v1.565h4.694v-1.565h1.564v-4.694h-1.564v-1.565h-4.694v1.565Zm1.564 1.565h1.565v1.564h-1.565v-1.564Z" fill="#fff"/><path d="M127.558 3.604h-1.565V2.039h-1.564V.475h-4.694v1.564h-1.565v1.565h-1.565v1.565h-3.129v1.564h-3.13V5.17h3.13V2.04h-9.388v1.565h-1.565v14.082h1.565v1.565h6.258v6.258h-3.129v3.13h4.694v-1.565h1.565v1.565h3.129v-1.565h1.565V25.51h1.565v1.565h1.564v1.565h3.13v-1.565h3.129v1.565h3.129v-3.13h-1.564v-1.564h-1.565v-3.13h-3.129v3.13h-1.565v1.564h-1.565v-1.564h-1.564v-3.13h-3.13v3.13h-1.565v1.564h-1.564v-7.823h-1.565v-1.565h-1.565v-1.564h3.13v3.13h1.564v1.564h4.695v-1.565h1.564v-4.694h-1.564v-1.565h-4.695v1.565h-1.564v-1.565h-3.13V9.863h3.13V8.298h3.129V6.733h1.565v3.13h7.823v-3.13h1.565v1.565h3.129v-3.13h-3.129V3.605Zm-20.341 12.517h-1.565v-1.564h1.565v1.564Zm0-4.694h-1.565V9.863h1.565v1.564Zm0-4.694h-1.565V5.17h1.565v1.564Zm9.388 7.824h1.565v1.564h-1.565v-1.564Zm7.824-7.824h-4.694V5.17h1.564V3.604h1.565v1.565h1.565v1.564Zm-80.55 10.953h3.13v1.565h-1.566v1.564H43.88v1.565h-1.565v3.135h3.13v-1.57h1.564V22.38h1.565v1.565h-1.565v1.57h-1.565v3.13h3.13V27.08h1.564v-1.565h1.565v-1.57h1.565V22.38h1.564v1.565h-1.564v1.57h-1.565v3.13h3.13V27.08h1.564v-1.565h1.565V22.38h1.565v3.135H57.96v3.13h3.13V27.08h1.564v-6.265H61.09v-1.564H50.137v-1.565h12.518v-3.13H43.879v3.13ZM25.51 25.515h-1.565v-6.259h1.564v-1.564h1.565V3.604h-1.565V2.039H12.992v1.565h-1.565v14.082h1.565v1.564h1.565v3.13h-1.565v1.565h-1.565v1.564H9.863v3.13h3.129v-1.565h1.565v-1.565h1.564v-1.564h1.565V19.25h3.13v7.824h1.564v1.565h4.694v-1.565h1.565V22.38h-3.13v3.135ZM14.556 5.168h9.388v1.565h-9.388V5.168Zm0 4.694h9.388v1.565h-9.388V9.862Zm0 6.26v-1.566h9.388v1.565h-9.388ZM95.106 2.04h-3.129V.474h-1.565v1.564h-1.564V.475h-1.565v1.564h-3.13v1.565H82.59v6.259h1.565v1.564h10.952V9.863h1.565V3.604h-1.565V2.039Zm-7.823 7.823h-1.565V8.298h1.565v1.565Zm0-3.13h-1.565V5.17h1.565v1.564Zm3.13 3.13h-1.565V8.298h1.564v1.565Zm0-3.13h-1.565V5.17h1.564v1.564Zm3.129 3.13h-1.565V8.298h1.565v1.565Zm0-3.13h-1.565V5.17h1.565v1.564Z" fill="#fff"/><path d="M6.733 22.38v-7.823h3.13v-3.13h-3.13V5.168h3.13V2.04H.474v3.13h3.13v6.258H.474v3.13h3.13v9.388H.474v3.134H5.17v-1.564h4.694V22.38h-3.13Zm64.903-6.259h-1.564V28.64H73.2v-4.694h4.694v1.564h-3.13v3.13h4.695v-1.565h1.564v1.565H96.67v-3.13h-3.13v-1.564h1.565V22.38h1.565v-3.13h-1.565v-1.564H84.154v1.565h-1.565v3.129h1.565v1.565h1.564v1.564h-4.694v-9.388H79.46v-1.564h-7.824v1.564Zm18.776 9.388h-1.564v-1.564h1.564v1.564Zm-4.694-4.694h7.824v1.565h-7.824v-1.565Zm-12.517-3.129h4.694v1.565H73.2v-1.565Zm0 3.13h4.694v1.564H73.2v-1.565ZM40.75 19.25V9.864h1.564v-3.13H40.75V.475h-3.13v6.258h-3.13v3.13h3.13v10.952h-3.13v3.13h4.695V22.38h3.13v-3.13h-1.566Zm100.483-9.387h-1.564V8.298h-3.13v3.13h1.565v1.564h1.565v1.565h3.129v-3.13h-1.565V9.863Zm1.565-6.259h-1.565V2.039h-1.564V.475h-3.13v3.129h1.565v1.565h1.565v1.564h3.129V3.604Zm-3.129 17.211h-1.565v3.13h-1.565v4.7h3.13v-3.13h1.564V22.38h1.565v-4.694h-3.129v3.13Zm57.486-15.646h-4.694V.475h-3.129v4.694h-3.13v1.564h-6.258V3.604h4.694V.474h-4.694V2.04h-7.824v3.13h4.694v1.564h-6.259v3.13h1.565v6.258h1.565v1.565h3.129v1.565h-4.694v3.13h4.694v3.128h-6.259v3.13h7.824v-1.565h7.823v1.565h3.13v-3.13h1.564v-4.694h1.565V8.298h3.129v17.211h-3.129v3.13h4.694v-1.565h1.565V6.734h-1.565V5.168Zm-20.341 9.388h-1.565v-1.565h1.565v1.565Zm0-3.13h-1.565V9.863h1.565v1.564Zm3.13-1.564h1.564v1.564h-1.564V9.863Zm0 3.129h1.564v1.565h-1.564v-1.565Zm9.388 7.823h-1.565v4.694h-1.565v-1.564h-6.258V22.38h4.694v-3.13h-4.694v-1.564h3.129v-1.565h1.565V9.863h1.564V8.298h3.13v12.517ZM155.315 5.169h3.13V3.604h4.694V.474h-4.694V2.04h-14.082v3.13h7.823v3.129h-9.388v3.13h9.388v4.693h-6.259v1.565h-1.564v9.388h1.564v1.565h15.647v-1.565h1.565v-9.388h-1.565v-1.565h-6.259v-4.694h9.388v-3.13h-9.388v-3.13Zm4.694 14.082v6.258h-12.517v-6.258h12.517Z" fill="#fff"/><path d="M82.589 11.427h-1.565V3.604H79.46V2.039h-7.824v1.565h-1.564v7.823h-1.565v3.13h3.13v-1.565h7.823v1.564h3.129v1.565h14.082v-3.13H82.59v-1.564Zm-4.694-4.694H76.33v1.565h1.565v1.564H76.33V8.298h-1.564v1.564H73.2V5.168h4.694v1.565Z" fill="#fff"/><path d="M23.945 14.557h-9.388v1.564h9.388v-1.564Z" fill="#000"/><path d="M29.119 21.905h-3.333v-1.293h1.565v-1.565h1.565V4.016h-1.362v-.887h-.203v-.678H25.99v-.887H12.516V3.13h-.819v-.678h-1.361v-.887H0v4.084h1.361v.887H3.13v4.423H0v4.084h1.361v.887H3.13v7.552H0v4.084h1.361v.887H7.01v-1.565h2.378v2.243h1.361v.887h4.084v-1.565h1.565v-1.565h1.565v-1.564h1.564V20.63h.82v6.942h1.36v.887h.204v.683h1.361v.887h5.65v-1.565h1.564v-5.648h-1.361v-.887l-.006-.023ZM10.953 6.53v5.304h-.61v-.887H8.575V6.524h2.383l-.005.006Zm1.564 12.517v.678h1.362v.887h.203v1.293h-1.565v1.565h-.819v-.678h-1.361v-.887H8.569v-5.987h2.384v2.242h1.361v.887h.203Zm16.122 8.027h-1.565v1.564H22.38v-1.564h-1.565V19.25h-3.13v4.694h-1.564v1.565h-1.564v1.565h-1.565v1.564h-3.13V25.51H5.17v1.565H.474v-3.13h3.13v-9.388H.474v-3.129h3.13v-6.26H.474v-3.13h9.389v3.13h-3.13v6.259h3.13v3.13h-3.13v7.823h3.13v3.13h1.564v-1.566h1.565V22.38h1.565v-3.13h-1.565v-1.564h-1.565V3.604h1.565V2.039h12.517v1.565h1.565v14.082h-1.565v1.564h-1.564v6.26h1.564v-3.13h3.13v4.694Z" fill="#000"/><path d="M23.945 9.862h-9.388v1.565h9.388V9.862Zm0-4.694h-9.388v1.565h9.388V5.168Zm34.015 3.13h-9.387v1.565h9.388V8.298Zm0-3.13h-9.387v1.565h9.388V5.168ZM47.008 23.945h-1.565v1.564h1.565v-1.564Z" fill="#000"/><path d="M63.135 14.082h-1.768V12.79h1.565V4.016H61.57V3.13h-.203v-.677h-1.361v-.887H46.534V3.13h-1.565v8.778h1.361v.887h.204v.684h1.36v.61h-4.49v4.084h1.362v.887h.203v1.293h-.82v-.678h-1.36v-.887h-.204v-7.552h1.565V7.151h-1.361v-.887h-.204V.887h-1.361V0H37.14v6.259h-3.13v4.084h1.362v.886h1.768v9.117h-3.13v4.084h1.362v.887h5.648v-1.564h.82v2.242h1.36v.887h1.769v2.242h1.361v.887h4.084v-1.564h.82v.683h1.36v.887h4.085v-1.565h.813v.684h1.361v.887h4.084v-1.565h1.565v-7.213h-1.361v-.887h-.204v-.678h-1.361v-.61h2.926v-4.084h-1.361v-.887l-.006-.017Zm-16.121-1.09v-1.565h-1.565V3.604h1.565V2.039H59.53v1.565h1.565v7.823H59.53v1.565H47.014Zm15.646 4.694H50.144v1.565h10.953v1.564h1.565v6.259h-1.565v1.565h-3.13v-3.13h-1.564v1.565h-1.565v1.565h-3.13v-3.13h-1.564v1.565h-1.565v1.565H45.45v-3.13h-3.13V22.38h-3.13v1.565h-4.694v-3.13h3.13V9.863h-3.13v-3.13h3.13V.474h3.129v6.26h1.565v3.129h-1.565v9.388h1.565v3.129h1.564v-1.565h1.565v-1.564h1.565v-1.565h-3.13v-3.13H62.66v3.13Z" fill="#000"/><path d="M59.526 22.38H57.96v3.13h1.565v-3.13Zm-10.953 0h-1.565v1.565h1.565V22.38Zm6.258 0h-1.564v1.565h1.564V22.38Zm-1.564 1.565h-1.565v1.564h1.565v-1.564Zm24.628-6.259H73.2v1.565h4.694v-1.565Zm0 3.129H73.2v1.565h4.694v-1.565Zm15.647 0h-7.824v1.565h7.824v-1.565ZM73.2 9.862h1.566V8.298h1.564V6.733h1.565V5.168H73.2v4.694Zm1.837-3.332h.819v1.293h-.82V6.53Zm4.423 6.462h-7.824v1.564h7.824v-1.564Zm10.952 10.953h-1.564v1.564h1.564v-1.564Z" fill="#000"/><path d="M77.895 8.298H76.33v1.565h1.565V8.298Z" fill="#000"/><path d="M97.151 3.13h-.203v-.678h-1.361v-.887h-1.769V.887h-1.36V0h-2.52v.887h-.61V0h-2.52v1.565H83.68v1.564h-1.564v.887h-.61V3.13H81.3v-.677h-1.36v-.887h-8.778V3.13h-1.565v7.824h-1.565v4.084h1.362v.887h.203v13.2h1.361v.887h4.084v-.886h.61v.886h5.65v-.886h.61v.886h16.6v-4.084h-1.36v-.886h-.204v-1.294h1.565v-4.084H97.15v-.887h-.203v-.678h-1.361v-.61h2.925v-4.084h-1.36v-.887h-.204v-1.293h1.565V4.016H97.15V3.13Zm-.474 12.991H82.595v-1.564h-3.13v1.564h1.565v9.388h4.694v-1.564h-1.565V22.38h-1.564v-3.13h1.564v-1.564h10.953v1.565h1.565v3.129h-1.565v1.565h-1.565v1.564h3.13v3.13H81.03v-1.565h-1.565v1.565h-4.694v-3.13h3.13v-1.564h-4.694v4.694h-3.13V16.12h1.565v-1.564h-3.13v-3.13h1.565V3.604h1.565V2.039h7.823v1.565h1.565v7.823h1.565v1.565h14.082v3.13Zm-12.992 1.362v1.293h-.82v-2.175h.61v.887h.204l.006-.005Zm-1.565-1.565v.61h-.61v-.61h.61Zm1.565 7.823v.684h1.361v.61h-2.175V22.86h.61v.887h.204v-.006Zm0-12.517v.61h-.61v-.887h-.204v-.61h.61v.887h.204Zm.745 1.293v-.61h.61v.61h-.61Zm12.247-2.654h-1.565v1.564H84.159V9.863h-1.564v-6.26h1.564V2.04h3.13V.474h1.564V2.04h1.565V.474h1.565V2.04h3.129v1.565h1.565v6.259Z" fill="#000"/><path d="M93.542 8.298h-1.565v1.565h1.565V8.298Zm-3.13-3.13h-1.564v1.565h1.564V5.168Zm3.13 0h-1.565v1.565h1.565V5.168Zm-3.13 3.13h-1.564v1.565h1.564V8.298Zm-3.129 0h-1.565v1.565h1.565V8.298Zm0-3.13h-1.565v1.565h1.565V5.168Zm19.934 9.389h-1.565v1.564h1.565v-1.564Zm3.129 0v1.564h1.565v1.565h1.565v-3.13h-3.13Zm2.655 1.971h-.61v-.61h.61v.61Zm14.557-1.971h-1.565v1.564h1.565v-1.564Zm-14.082-9.389h-3.13v1.565h3.13V5.168Zm-6.259 4.694h-1.565v1.565h1.565V9.862Zm10.953 4.695h-1.565v1.564h1.565v-1.564Zm4.694-10.953h-1.565v1.565h-1.564v1.564h4.694V5.17h-1.565V3.604Zm.271 2.04h.61v.61h-.61v-.61Zm-15.918-.476h-1.565v1.565h1.565V5.168Z" fill="#000"/><path d="M131.167 4.694h-1.768v-.678h-1.361V3.13h-.203v-.677h-1.362v-.887h-.203V.887h-1.361V0h-5.649v1.565h-1.565v1.564h-1.564v1.565h-.819V2.452h-1.362v-.887h-10.342v1.564h-1.565v15.037h1.361v.887h.204v.678h1.361v.61h-2.926v7.213h1.361v.887h3.333v.684h1.361v.886h5.649v-.886h.61v.886h4.084v-1.564h1.565v-.887h.61v.887h.203v.683h1.361v.887h4.084v-1.565h.819v.684h1.362v.887h4.084v-4.084h-1.362v-.887h-.203v-.684h-1.361v-.886h-.204v-2.243h-1.361v-.61h2.926v-1.565h1.565v-5.648h-1.362v-.887h-.203v-.678h-1.361v-.887h-1.768V8.789h.61v.887h4.084V5.592h-1.362v-.898Zm-25.515 22.38h-3.129v-6.259h3.129v6.259Zm1.091-5.852h-.61v-.61h.61v.61Zm22.38-9.795v1.565h1.564v4.694h-1.564v1.565h-4.694v-1.565h-1.565v-4.694h1.565v-1.565h4.694ZM121.57 23.47v-2.242h-1.361v-.61h1.361v-1.565h1.565v-.887h.61v.887h.203v.678h1.362v.61h-1.362v3.13h-1.564v.886h-.61v-.887h-.204Zm0-10.953v-.677h-1.361v-.61h3.739v1.293h-1.564v.887h-.61v-.887h-.204v-.006Zm9.117-4.22h-3.129V6.734h-1.565v3.13h-7.823v-3.13h-1.565v1.565h-3.129v1.565h-3.13v1.564h3.13v1.565h1.564v-1.565h4.695v1.565h1.564v4.694h-1.564v1.565h-4.695v-1.565h-1.564v7.823h1.564v-1.564h1.565v-3.13h3.13v3.13h1.564v1.564h1.565v-1.564h1.565v-3.13h3.129v3.13h1.565v1.564h1.564v3.13h-3.129v-1.565h-3.129v1.565h-3.13v-1.565h-1.564V25.51h-1.565v1.565h-1.565v1.565h-3.129v-1.565h-1.565v1.565h-4.694v-3.13h3.129v-6.258h-6.258v-1.565h-1.565V3.604h1.565V2.039h9.388v3.13h3.129V3.604h1.565V2.039h1.565V.474h4.694V2.04h1.564v1.565h1.565V5.17h3.129v3.129Zm-11.636 2.04v.61h-3.739V9.654h2.383v.677h1.362l-.006.006Zm-4.491.887v.61h-.61v-.61h.61Zm1.565 9.388v2.858h-.819v-3.74h.61v.888h.203l.006-.006Zm-8.914 3.333v-3.13h1.565v3.13h-1.565Zm.887.474v.61h-.61v-.61h.61Zm1.158-3.197v-.61h.61v.61h-.61Zm38.236 4.293h12.517v-6.259h-12.517v6.26Zm1.836-4.897h10.207v4.423h-10.207v-4.423Z" fill="#000"/><path d="M165.184 7.823h-8.027V6.53h3.129V4.965h4.694V.887h-1.361V0h-5.649v1.565h-14.082v2.451h-.61V3.13h-.203v-.677h-1.362v-.887h-.203V.887h-1.361V0h-4.084v4.084h1.361v.887h.203v.683h1.362v.887h.203v.678h1.361v.887h1.768v2.175h-.61v-.887h-.203v-.678h-1.361v-.887h-4.084v4.084h1.361v.887h.203v.683h1.362v.887h.203v.678h1.361v.887h4.084v-3.13h7.078v2.859h-6.259v1.564h-1.564v.887h-.61v-.887H139.2v3.13h-1.565v3.13h-1.565v5.648h1.362v.887h4.084v-3.13h1.564v-3.13h.819v3.814h1.362v.887h.203v.683h1.361v.887h16.602v-1.565h1.565V18.126h-1.362v-.886h-.203v-.684h-1.361v-.887h-4.898v-2.858h9.388V8.727h-1.361V7.84l-.011-.017Zm-22.38 14.557h-1.565v3.13h-1.565v3.129h-3.129v-4.694h1.565v-3.13h1.564v-3.13h3.13v4.695Zm-3.13-15.647V5.17h-1.564V3.604h-1.565V.474h3.129V2.04h1.565v1.565h1.565v3.13h-3.13Zm25.035 4.694h-9.388v4.694h6.259v1.565h1.564v9.388h-1.564v1.565h-15.647v-1.565h-1.565v-9.388h1.565V16.12h6.259v-4.694h-9.388v3.13h-3.13v-1.565h-1.564v-1.565h-1.565v-3.13h3.129v1.566h1.565v1.564h1.565v-3.13h9.388V5.17h-7.824V2.04h14.082V.474h4.694v3.13h-4.694v1.565h-3.129v3.129h9.388v3.13ZM151.717 6.53v1.293h-7.078V5.65h.61v.886h6.463l.005-.005Zm29.791 6.462h-1.565v1.564h1.565v-1.564Zm4.694-3.129h-1.564v6.258h-1.565v1.565h-3.13v1.565h4.695v3.129h-4.695v1.565h6.259v1.564h1.565v-4.694h1.565V8.298h-3.13v1.565Zm.271 1.36h1.565V9.66h.819v10.682h-1.565v4.016h-.61v-.887h-.203v-3.807h-1.361v-.887h-.204v-1.293h1.565v-6.26h-.006Z" fill="#000"/><path d="M199.2 6.259h-.204v-.684h-1.361v-.887h-3.333V.887h-1.361V0h-4.084v4.694h-2.384V.887h-1.361V0h-5.649v1.565h-7.823v4.084h1.361v.61h-2.926v4.084h1.362v.886h.203v5.372h1.361v.887h.204v.678h1.361v.61h-2.926v4.084h1.361v.887h3.333v1.294h-6.259v4.084h1.362v.886h8.778v-1.564h5.513v.683h1.361v.887h4.084v-3.13h.819v2.243h1.361v.887h5.649v-1.565h1.565V7.146h-1.362v-.887h-.005Zm-13.472-1.294V6.26h-3.949V4.965h3.949Zm12.992 22.109h-1.565v1.565h-4.694v-3.13h3.129V8.298h-3.129v12.517h-1.565v4.694h-1.564v3.13h-3.13v-1.565h-7.823v1.565h-7.824v-3.13h6.259V22.38h-4.694v-3.13h4.694v-1.564h-3.129V16.12h-1.565V9.863h-1.565v-3.13h6.259V5.17h-4.694V2.04h7.824V.474h4.694v3.13h-4.694v3.13h6.258V5.168h3.13V.474h3.129V5.17h4.694v1.564h1.565v20.341Zm-5.988-2.04v-2.857h1.565V9.659h.819v15.376h-2.384Z" fill="#000"/><path d="M181.508 9.862h-1.565v1.565h1.565V9.862Zm-4.694 3.13h-1.565v1.564h1.565v-1.564Zm0-3.13h-1.565v1.565h1.565V9.862Z" fill="#000"/></g><defs><clipPath id="clip0_94_5866"><path fill="#fff" d="M0 0h200.555v30H0z"/></clipPath></defs></svg>