<?xml version="1.0" encoding="UTF-8"?><svg id="_圖層_2" xmlns="http://www.w3.org/2000/svg" viewBox="0 0 366.97 90.8"><defs><style>.cls-1{fill:#e86547;stroke:#231815;stroke-miterlimit:10;}</style></defs><g id="_圖層_1-2"><rect class="cls-1" x=".5" y=".5" width="14.97" height="14.97"/><rect class="cls-1" x="15.47" y="15.47" width="14.97" height="14.97"/><rect class="cls-1" x="45.4" y=".5" width="14.97" height="14.97"/><rect class="cls-1" x="60.37" y="15.47" width="14.97" height="14.97"/><rect class="cls-1" x="75.33" y="30.43" width="14.97" height="14.97"/><rect class="cls-1" x="90.3" y="15.47" width="14.97" height="14.97"/><rect class="cls-1" x="15.47" y="75.34" width="14.97" height="14.97"/><rect class="cls-1" x=".5" y="60.37" width="14.97" height="14.97"/><rect class="cls-1" x="173.48" y="15.47" width="14.97" height="14.97"/><rect class="cls-1" x="188.45" y=".5" width="14.97" height="14.97"/><rect class="cls-1" x="60.37" y="45.4" width="14.97" height="14.97"/><rect class="cls-1" x="30.43" y="30.43" width="14.97" height="14.97"/><rect class="cls-1" x="15.47" y="45.4" width="14.97" height="14.97"/><rect class="cls-1" x=".5" y="30.43" width="14.97" height="14.97"/><rect class="cls-1" x="30.43" y="60.37" width="14.97" height="14.97"/><rect class="cls-1" x="291.37" y=".51" width="14.97" height="14.97"/><rect class="cls-1" x="306.34" y="15.48" width="14.97" height="14.97"/><rect class="cls-1" x="321.31" y="30.44" width="14.97" height="14.97"/><rect class="cls-1" x="336.27" y="15.48" width="14.97" height="14.97"/><rect class="cls-1" x="306.34" y="45.41" width="14.97" height="14.97"/><rect class="cls-1" x="351.5" y=".51" width="14.97" height="14.97"/></g></svg>